<?xml version="1.0" encoding="UTF-8"?>
<svg xmlns="http://www.w3.org/2000/svg" width="150" height="150" viewBox="0 0 150 150" fill="none">
  <g clip-path="url(#clip0_1249_337)">
    <path d="M62.8418 14.6484C61.6283 14.6484 60.6445 15.6322 60.6445 16.8457C60.6445 18.0592 61.6283 19.043 62.8418 19.043H76.3184C77.5318 19.043 78.5156 18.0592 78.5156 16.8457C78.5156 15.6322 77.5318 14.6484 76.3184 14.6484H62.8418Z" fill="#43A862"></path>
    <path d="M89.209 14.6484C87.9955 14.6484 87.0117 15.6322 87.0117 16.8457C87.0117 18.0592 87.9955 19.043 89.209 19.043H96.5332C97.7467 19.043 98.7305 18.0592 98.7305 16.8457C98.7305 15.6322 97.7467 14.6484 96.5332 14.6484H89.209Z" fill="#43A862"></path>
    <path d="M122.989 0.643652C122.569 0.223242 122.007 0 121.435 0H121.436H56.9824C50.9238 0 45.9961 4.92773 45.9961 10.9863V39.4198C44.2198 40.7481 42.5271 42.213 40.9304 43.8097C32.2148 52.5252 27.4151 64.1124 27.4151 76.4373C27.4151 86.2852 30.4796 95.6619 36.1573 103.479L28.3863 111.25C27.3454 110.592 26.1381 110.24 24.876 110.24C23.1152 110.24 21.4597 110.926 20.2137 112.172L15.3064 117.082C14.4486 117.94 14.4489 119.331 15.3073 120.189C16.1654 121.047 17.5567 121.046 18.4146 120.188L23.3215 115.279C23.7369 114.863 24.2889 114.635 24.876 114.635C25.4622 114.635 26.013 114.863 26.4281 115.279L34.7174 123.568C35.1319 123.982 35.3602 124.533 35.3602 125.119C35.3602 125.706 35.1313 126.258 34.7159 126.673L18.1427 143.246C16.6216 144.768 14.5983 145.605 12.4459 145.605C10.2935 145.605 8.27022 144.768 6.74854 143.246C3.60703 140.105 3.60703 134.993 6.74854 131.851L11.1636 127.436C12.0217 126.578 12.0217 125.187 11.1636 124.329C10.3055 123.471 8.91416 123.471 8.05635 124.329L3.64131 128.744C-1.21377 133.599 -1.21377 141.499 3.64131 146.353C5.99268 148.705 9.11953 150 12.4459 150C15.7723 150 18.8991 148.705 21.2505 146.353L37.8237 129.78C39.0691 128.535 39.755 126.879 39.755 125.118C39.755 123.856 39.4025 122.649 38.7448 121.608L45.9961 114.357V124.365C45.9961 130.423 50.9244 135.352 56.9824 135.352H139.014C145.072 135.352 150 130.423 150 124.365V50.3994C150 49.1859 149.016 48.2021 147.803 48.2021C146.589 48.2021 145.605 49.1859 145.605 50.3994V124.365C145.605 128 142.649 130.957 139.014 130.957H56.9824C53.3476 130.957 50.3906 128 50.3906 124.365V116.364C57.3513 120.419 65.2884 122.58 73.5577 122.58C83.0443 122.58 92.0941 119.735 99.7336 114.451H135.938C137.151 114.451 138.135 113.467 138.135 112.254C138.135 111.04 137.151 110.057 135.938 110.057H105.163C105.508 109.732 105.848 109.401 106.185 109.064C109.804 105.445 112.748 101.33 114.954 96.873H135.938C137.151 96.873 138.135 95.8893 138.135 94.6758C138.135 93.4623 137.151 92.4785 135.938 92.4785H116.848C118.4 88.2844 119.337 83.8526 119.614 79.2949H135.938C137.151 79.2949 138.135 78.3111 138.135 77.0977C138.135 75.8842 137.151 74.9004 135.938 74.9004H119.675C119.528 70.3562 118.726 65.9253 117.314 61.7168H121.116C122.116 65.9039 125.889 69.0267 130.378 69.0267C135.628 69.0267 139.899 64.7552 139.899 59.5052C139.899 54.2552 135.628 49.9837 130.378 49.9837C125.879 49.9837 122.098 53.1208 121.109 57.3223H115.581C113.319 52.3559 110.159 47.7841 106.185 43.8094C97.4695 35.0938 85.8823 30.2941 73.5577 30.2941C65.2884 30.2941 57.351 32.4551 50.3906 36.5095V10.9863C50.3906 7.35059 53.3467 4.39453 56.9824 4.39453H119.238V22.7051C119.238 27.1477 122.852 30.7617 127.295 30.7617H145.605V40.1455C145.605 41.3584 146.59 42.3428 147.803 42.3428C149.016 42.3428 150 41.3584 150 40.1455V28.5645C150 27.9929 149.777 27.431 149.356 27.0108L122.989 0.643652ZM130.378 54.3782C133.205 54.3782 135.505 56.6783 135.505 59.5052C135.505 62.332 133.205 64.6321 130.378 64.6321C127.551 64.6321 125.251 62.332 125.251 59.5052C125.251 56.6783 127.551 54.3782 130.378 54.3782ZM35.7516 118.387L31.6081 114.243L38.9229 106.928C39.5669 107.658 40.2363 108.37 40.9304 109.065C41.6244 109.759 42.3369 110.428 43.0664 111.072L35.7516 118.387ZM103.078 46.9169C110.963 54.8024 115.306 65.286 115.306 76.437C115.306 87.588 110.963 98.0716 103.078 105.957C95.1926 113.843 84.7087 118.185 73.5577 118.185C62.4067 118.185 51.9229 113.842 44.0376 105.957C36.1521 98.0716 31.8097 87.588 31.8097 76.437C31.8097 65.286 36.1523 54.8022 44.0376 46.9169C51.9229 39.0313 62.4067 34.689 73.5577 34.689C84.7087 34.689 95.1923 39.0316 103.078 46.9169ZM127.295 26.3672C125.275 26.3672 123.633 24.7245 123.633 22.7051V7.50176L142.498 26.3672H127.295Z" fill="#43A862"></path>
    <path d="M47.1452 102.851C54.2344 109.938 63.7199 113.793 73.5223 113.793C76.0331 113.793 78.5649 113.54 81.0827 113.023C82.2716 112.779 83.0374 111.618 82.7936 110.429C82.5496 109.241 81.388 108.475 80.1997 108.719C69.3051 110.953 58.1101 107.598 50.2527 99.7432C37.4028 86.8906 37.4028 65.9806 50.2524 53.1307C63.105 40.2811 84.0153 40.2811 96.8649 53.1307C99.201 55.4668 101.112 58.0695 102.599 60.8419L89.6986 73.7425C88.6852 73.2119 87.5333 72.9116 86.3125 72.9116C84.7211 72.9116 83.2468 73.4217 82.0442 74.2871L76.4801 70.1132C76.7491 69.3518 76.8956 68.5326 76.8956 67.6804C76.8956 63.6418 73.6099 60.3562 69.5714 60.3562C65.5328 60.3562 62.2471 63.6418 62.2471 67.6804C62.2471 68.5332 62.3936 69.3526 62.6629 70.1146L57.0985 74.2874C55.8959 73.422 54.4217 72.9119 52.8302 72.9119C48.7917 72.9119 45.506 76.1976 45.506 80.2361C45.506 84.2747 48.7917 87.5603 52.8302 87.5603C56.8688 87.5603 60.1545 84.2747 60.1545 80.2361C60.1545 79.3827 60.0077 78.563 59.7382 77.8007L65.3019 73.6282C66.5046 74.4939 67.9794 75.0046 69.5714 75.0046C71.1636 75.0046 72.6387 74.4939 73.8417 73.6276L79.4043 77.8007C79.1347 78.563 78.988 79.3827 78.988 80.2361C78.988 84.2747 82.2736 87.5603 86.3122 87.5603C90.3507 87.5603 93.6364 84.2747 93.6364 80.2361C93.6364 79.0153 93.3361 77.8634 92.8055 76.85L104.518 65.1374C108.755 76.8037 106.204 90.4019 96.8643 99.7435C94.5944 102.013 92.0274 103.929 89.2351 105.437C88.1673 106.014 87.7694 107.347 88.346 108.415C88.9225 109.482 90.2558 109.88 91.3234 109.304C94.491 107.593 97.4005 105.422 99.9718 102.851C114.535 88.2849 114.535 64.5869 99.9718 50.0237C85.4087 35.4608 61.7104 35.4608 47.1449 50.0237C32.582 64.5863 32.5817 88.2843 47.1452 102.851ZM52.8302 83.1655C51.2148 83.1655 49.9006 81.8513 49.9006 80.2358C49.9006 78.6204 51.2148 77.3062 52.8302 77.3062C54.4457 77.3062 55.7599 78.6204 55.7599 80.2358C55.7599 81.8513 54.4457 83.1655 52.8302 83.1655ZM69.5714 70.6098C67.9559 70.6098 66.6417 69.2955 66.6417 67.6801C66.6417 66.0646 67.9559 64.7504 69.5714 64.7504C71.1868 64.7504 72.501 66.0646 72.501 67.6801C72.501 69.2955 71.1868 70.6098 69.5714 70.6098ZM86.3122 83.1655C84.6967 83.1655 83.3825 81.8513 83.3825 80.2358C83.3825 78.6204 84.6967 77.3062 86.3122 77.3062C87.9276 77.3062 89.2419 78.6204 89.2419 80.2358C89.2419 81.8513 87.9279 83.1655 86.3122 83.1655Z" fill="#43A862"></path>
  </g>
  <defs>
    <clipPath id="clip0_1249_337">
      <rect width="150" height="150" fill="white"></rect>
    </clipPath>
  </defs>
</svg>
