<svg xmlns="http://www.w3.org/2000/svg" width="2993" height="1162" viewBox="0 0 2993 1162" fill="none"><path d="M540.914 166H1375.91" stroke="#43A862" stroke-width="18"></path><path d="M1594.91 166H2385.91" stroke="#43A862" stroke-width="18"></path><path d="M1658.91 902L2385.91 902" stroke="#43A862" stroke-width="18"></path><path d="M540.914 902L1375.91 902" stroke="#43A862" stroke-width="18"></path><path d="M2706.68 166H2796.1C2899.87 166 2984 250.127 2984 353.903C2984 457.68 2899.87 541.807 2796.1 541.806L189.106 541.79C89.6365 541.789 9 622.425 9 721.895C9 821.364 89.6358 902 189.105 902H219.414" stroke="#43A862" stroke-width="18"></path><circle cx="374.414" cy="900.5" r="156.5" fill="#DDFEEB" stroke="#43A862" stroke-width="18"></circle><path d="M322.799 880.865C325.57 880.865 328.278 880.044 330.582 878.504C332.886 876.965 334.682 874.777 335.742 872.217C336.803 869.657 337.08 866.84 336.54 864.122C335.999 861.405 334.665 858.908 332.705 856.949C330.746 854.99 328.25 853.655 325.532 853.115C322.814 852.574 319.998 852.852 317.438 853.912C314.878 854.973 312.69 856.768 311.15 859.072C309.611 861.376 308.789 864.085 308.789 866.856C308.793 870.57 310.271 874.131 312.897 876.757C315.524 879.384 319.085 880.861 322.799 880.865ZM322.799 857.533C324.643 857.533 326.445 858.08 327.978 859.104C329.511 860.129 330.706 861.585 331.412 863.288C332.117 864.991 332.302 866.866 331.942 868.674C331.582 870.483 330.695 872.144 329.391 873.447C328.087 874.751 326.426 875.639 324.618 875.999C322.809 876.359 320.935 876.174 319.231 875.468C317.528 874.763 316.072 873.568 315.048 872.035C314.023 870.502 313.477 868.699 313.477 866.856C313.479 864.384 314.462 862.014 316.21 860.267C317.958 858.519 320.327 857.536 322.799 857.533Z" fill="#43A862"></path><path d="M426.029 852.846C423.259 852.846 420.55 853.667 418.246 855.207C415.942 856.746 414.146 858.934 413.086 861.494C412.026 864.054 411.748 866.871 412.289 869.589C412.829 872.306 414.164 874.803 416.123 876.762C418.082 878.721 420.579 880.056 423.296 880.596C426.014 881.137 428.831 880.859 431.391 879.799C433.951 878.739 436.139 876.943 437.678 874.639C439.218 872.335 440.039 869.626 440.039 866.856C440.035 863.141 438.558 859.58 435.931 856.954C433.305 854.327 429.744 852.85 426.029 852.846ZM426.029 876.178C424.186 876.178 422.383 875.631 420.85 874.607C419.317 873.582 418.122 872.127 417.417 870.423C416.711 868.72 416.526 866.845 416.886 865.037C417.246 863.229 418.134 861.567 419.437 860.264C420.741 858.96 422.402 858.072 424.211 857.712C426.019 857.353 427.893 857.537 429.597 858.243C431.3 858.948 432.756 860.143 433.781 861.676C434.805 863.209 435.352 865.012 435.352 866.856C435.349 869.327 434.366 871.697 432.618 873.444C430.871 875.192 428.501 876.175 426.029 876.178Z" fill="#43A862"></path><path d="M428.135 885.7C426.446 885.7 424.776 886.06 423.237 886.755C421.698 887.45 420.324 888.464 419.206 889.73L407.405 903.113C407.043 903.523 406.598 903.851 406.1 904.076C405.602 904.3 405.061 904.416 404.514 904.415H394.4C392.067 904.418 389.83 905.346 388.18 906.996C386.53 908.646 385.602 910.883 385.6 913.216V916.116H363.229V913.216C363.223 910.957 362.348 908.787 360.784 907.156C359.221 905.525 357.09 904.558 354.833 904.456V889.863C354.837 886.556 356.152 883.384 358.49 881.045C360.829 878.707 364 877.391 367.307 877.387H381.521C384.828 877.391 387.999 878.707 390.338 881.045C392.676 883.384 393.992 886.556 393.995 889.863V894.454C393.995 895.076 394.242 895.672 394.681 896.112C395.121 896.551 395.717 896.798 396.339 896.798C396.96 896.798 397.556 896.551 397.996 896.112C398.436 895.672 398.682 895.076 398.682 894.454V889.863C398.677 885.313 396.868 880.95 393.651 877.733C390.433 874.515 386.071 872.705 381.521 872.699H367.307C362.757 872.705 358.395 874.515 355.178 877.733C351.96 880.95 350.151 885.313 350.146 889.863V904.415H344.314C343.767 904.416 343.227 904.3 342.728 904.076C342.23 903.851 341.785 903.523 341.423 903.113L329.622 889.73C328.023 887.917 325.909 886.633 323.563 886.051C321.216 885.468 318.748 885.613 316.486 886.468C314.224 887.323 312.276 888.846 310.901 890.834C309.526 892.823 308.79 895.184 308.789 897.602V930.606C308.794 934.865 310.487 938.948 313.499 941.959C316.51 944.971 320.593 946.665 324.852 946.669L339.068 946.614L347.058 963.897C347.246 964.303 347.546 964.647 347.924 964.888C348.301 965.129 348.739 965.257 349.187 965.257C349.526 965.257 349.861 965.183 350.169 965.039C350.448 964.91 350.699 964.727 350.908 964.501C351.117 964.275 351.279 964.01 351.385 963.721C351.491 963.432 351.539 963.125 351.526 962.817C351.513 962.51 351.44 962.208 351.311 961.929L343.323 944.65C342.955 943.854 342.367 943.18 341.629 942.707C340.89 942.234 340.032 941.983 339.155 941.982H324.852C321.836 941.978 318.945 940.778 316.813 938.646C314.68 936.513 313.48 933.622 313.477 930.606V897.602C313.477 896.136 313.924 894.705 314.758 893.5C315.591 892.294 316.772 891.371 318.143 890.853C319.514 890.335 321.01 890.247 322.433 890.6C323.855 890.953 325.137 891.73 326.106 892.829L337.907 906.212C338.709 907.121 339.695 907.849 340.799 908.347C341.904 908.846 343.102 909.103 344.314 909.103H354.428C355.519 909.104 356.564 909.538 357.335 910.309C358.106 911.08 358.54 912.126 358.541 913.216V916.116H334.465L325.939 905.308C325.554 904.82 324.991 904.505 324.374 904.432C323.757 904.359 323.136 904.534 322.648 904.919C322.16 905.304 321.845 905.867 321.772 906.484C321.699 907.101 321.874 907.722 322.259 908.21L330.984 919.272V929.247C330.984 929.555 331.044 929.859 331.162 930.144C331.28 930.428 331.452 930.687 331.67 930.904C331.887 931.122 332.146 931.295 332.43 931.412C332.715 931.53 333.02 931.591 333.327 931.591H341.036C342.806 931.589 344.532 932.145 345.969 933.178C347.406 934.212 348.482 935.671 349.045 937.349L357.882 963.659C358.081 964.247 358.505 964.732 359.061 965.007C359.617 965.283 360.26 965.327 360.848 965.129C361.437 964.932 361.923 964.509 362.2 963.954C362.477 963.398 362.523 962.756 362.327 962.167L353.49 935.857C352.615 933.247 350.942 930.978 348.707 929.372C346.472 927.765 343.789 926.901 341.036 926.903H335.671V920.803H413.157V926.903H407.792C405.039 926.901 402.356 927.765 400.121 929.372C397.886 930.978 396.213 933.247 395.338 935.857L386.501 962.167C386.305 962.756 386.351 963.398 386.628 963.954C386.905 964.509 387.391 964.932 387.98 965.129C388.568 965.327 389.211 965.283 389.767 965.007C390.323 964.732 390.747 964.247 390.946 963.659L399.783 937.349C400.346 935.671 401.422 934.212 402.859 933.178C404.296 932.145 406.022 931.589 407.792 931.591H415.501C415.808 931.591 416.113 931.53 416.398 931.412C416.682 931.295 416.941 931.122 417.158 930.904C417.376 930.687 417.549 930.428 417.666 930.144C417.784 929.859 417.845 929.555 417.844 929.247V919.272L426.569 908.21C426.954 907.722 427.129 907.101 427.056 906.484C426.984 905.867 426.668 905.304 426.18 904.919C425.692 904.534 425.071 904.359 424.454 904.432C423.837 904.505 423.274 904.82 422.889 905.308L414.363 916.116H390.287V913.216C390.288 912.125 390.722 911.08 391.493 910.309C392.264 909.538 393.31 909.104 394.4 909.103H404.514C405.726 909.103 406.924 908.846 408.029 908.347C409.133 907.849 410.119 907.121 410.921 906.212L422.722 892.829C423.692 891.73 424.973 890.953 426.395 890.6C427.818 890.247 429.314 890.335 430.685 890.853C432.056 891.371 433.237 892.294 434.07 893.5C434.904 894.705 435.351 896.136 435.352 897.602V930.606C435.348 933.622 434.148 936.513 432.016 938.646C429.883 940.778 426.992 941.978 423.976 941.982H409.673C408.797 941.982 407.94 942.234 407.202 942.706C406.464 943.178 405.876 943.851 405.508 944.646L397.518 961.929C397.388 962.208 397.315 962.51 397.302 962.817C397.289 963.125 397.338 963.432 397.444 963.721C397.55 964.01 397.712 964.275 397.92 964.501C398.129 964.727 398.38 964.91 398.66 965.039C398.967 965.183 399.302 965.257 399.642 965.257C400.089 965.257 400.527 965.129 400.905 964.888C401.282 964.647 401.582 964.303 401.77 963.897L409.673 946.669H423.976C428.235 946.665 432.318 944.971 435.329 941.959C438.341 938.948 440.034 934.865 440.039 930.606V897.602C440.035 894.446 438.78 891.42 436.548 889.189C434.316 886.958 431.291 885.703 428.135 885.7Z" fill="#43A862"></path><path d="M374.414 925.863C374.106 925.863 373.801 925.924 373.517 926.041C373.233 926.159 372.974 926.332 372.756 926.549C372.539 926.767 372.366 927.025 372.248 927.31C372.131 927.594 372.07 927.899 372.07 928.207V962.262C372.07 962.884 372.317 963.48 372.757 963.92C373.196 964.359 373.792 964.606 374.414 964.606C375.036 964.606 375.632 964.359 376.071 963.92C376.511 963.48 376.758 962.884 376.758 962.262V928.207C376.758 927.899 376.697 927.594 376.58 927.31C376.462 927.025 376.289 926.767 376.072 926.549C375.854 926.332 375.596 926.159 375.311 926.041C375.027 925.924 374.722 925.863 374.414 925.863Z" fill="#43A862"></path><path d="M360.75 852.754C360.75 855.525 361.572 858.234 363.111 860.537C364.651 862.841 366.839 864.637 369.399 865.697C371.958 866.758 374.775 867.035 377.493 866.495C380.211 865.954 382.707 864.62 384.666 862.66C386.626 860.701 387.96 858.205 388.501 855.487C389.041 852.77 388.764 849.953 387.703 847.393C386.643 844.833 384.847 842.645 382.543 841.105C380.239 839.566 377.531 838.744 374.76 838.744C371.046 838.748 367.485 840.226 364.858 842.852C362.232 845.479 360.754 849.04 360.75 852.754ZM384.082 852.754C384.082 854.598 383.535 856.4 382.511 857.933C381.487 859.466 380.031 860.661 378.327 861.367C376.624 862.072 374.75 862.257 372.941 861.897C371.133 861.538 369.472 860.65 368.168 859.346C366.864 858.042 365.976 856.381 365.617 854.573C365.257 852.764 365.442 850.89 366.147 849.186C366.853 847.483 368.048 846.027 369.581 845.003C371.114 843.978 372.916 843.432 374.76 843.432C377.231 843.434 379.601 844.417 381.349 846.165C383.096 847.913 384.08 850.282 384.082 852.754Z" fill="#43A862"></path><circle cx="1520.41" cy="900.5" r="156.5" fill="#DDFEEB" stroke="#43A862" stroke-width="18"></circle><path d="M1549.52 839.916H1556.33C1576.77 839.916 1593.41 856.549 1593.41 876.993V923.008C1593.41 943.452 1576.77 960.085 1556.33 960.085H1538.2V967.96C1538.2 969.907 1537.11 971.64 1535.36 972.485C1534.66 972.825 1533.91 972.991 1533.17 972.991L1532.96 972.987C1531.92 972.944 1530.9 972.573 1530.05 971.892L1504.52 951.579H1504.52C1503.3 950.606 1502.63 949.212 1502.63 947.647C1502.63 946.084 1503.3 944.69 1504.52 943.717H1504.52L1530.05 923.403C1531.57 922.191 1533.6 921.964 1535.36 922.809C1537.11 923.655 1538.2 925.388 1538.2 927.335V935.21H1556.33C1562.95 935.21 1568.53 929.624 1568.53 923.008V876.993C1568.53 870.377 1562.95 864.791 1556.33 864.791H1549.52C1546.1 864.791 1543.32 862.012 1543.32 858.596V846.111C1543.32 842.696 1546.1 839.916 1549.52 839.916ZM1549.52 845.275C1549.06 845.275 1548.68 845.656 1548.68 846.111V858.596C1548.68 859.051 1549.06 859.432 1549.52 859.432H1556.33C1560.98 859.432 1565.38 861.267 1568.72 864.603C1572.05 867.938 1573.89 872.338 1573.89 876.993V923.008C1573.89 927.663 1572.05 932.063 1568.72 935.398C1565.38 938.734 1560.98 940.569 1556.33 940.569H1535.52C1534.04 940.569 1532.84 939.369 1532.84 937.89V928.029L1532.44 928.352L1508.44 947.451L1508.34 947.526V947.769L1508.44 947.844L1532.44 966.942L1532.84 967.266V957.405C1532.84 955.926 1534.04 954.726 1535.52 954.726H1556.33C1573.82 954.726 1588.05 940.497 1588.05 923.008V876.993C1588.05 859.504 1573.82 845.275 1556.33 845.275H1549.52ZM1505.47 827.516C1507.22 826.67 1509.26 826.897 1510.78 828.109L1536.3 848.422C1537.53 849.395 1538.2 850.789 1538.2 852.354C1538.2 853.918 1537.53 855.312 1536.3 856.285L1510.78 876.598C1509.26 877.81 1507.22 878.038 1505.47 877.192C1503.72 876.346 1502.63 874.613 1502.63 872.666V864.791H1484.5C1477.88 864.791 1472.3 870.376 1472.3 876.993V923.008C1472.3 929.625 1477.88 935.21 1484.5 935.21H1491.31C1494.72 935.21 1497.5 937.99 1497.5 941.405V953.89C1497.5 957.305 1494.72 960.085 1491.31 960.085H1484.5C1464.05 960.085 1447.42 943.452 1447.42 923.008V876.993C1447.42 856.549 1464.05 839.917 1484.5 839.917H1502.63V832.041C1502.63 830.094 1503.72 828.361 1505.47 827.516ZM1507.99 842.597C1507.99 844.076 1506.79 845.276 1505.31 845.276H1484.6L1484.6 845.275H1484.5C1467.01 845.276 1452.78 859.504 1452.78 876.993V923.008C1452.78 940.497 1467.01 954.725 1484.5 954.726H1491.31C1491.76 954.726 1492.14 954.345 1492.14 953.89V941.405C1492.14 940.95 1491.76 940.569 1491.31 940.569H1484.5C1479.84 940.569 1475.44 938.734 1472.11 935.398C1468.77 932.063 1466.94 927.663 1466.94 923.008V876.993C1466.94 872.338 1468.77 867.938 1472.11 864.603C1475.44 861.267 1479.84 859.432 1484.5 859.432H1505.31C1506.79 859.432 1507.99 860.632 1507.99 862.111V871.972L1508.39 871.649L1532.39 852.55L1532.64 852.354L1532.39 852.158L1508.39 833.059L1507.99 832.735V842.597Z" fill="#43A862" stroke="white" stroke-width="0.5"></path><circle cx="1504.41" cy="165.5" r="156.5" fill="#DDFEEB" stroke="#43A862" stroke-width="18"></circle><g clip-path="url(#clip0_1281_843)"><path d="M1435.96 181.029L1446.39 182.904C1447.56 186.77 1449.11 190.511 1451.02 194.072L1444.97 202.778C1444.07 204.075 1443.65 205.649 1443.79 207.223C1443.93 208.797 1444.62 210.272 1445.74 211.388L1459.03 224.678C1460.14 225.796 1461.62 226.486 1463.19 226.626C1464.77 226.767 1466.34 226.349 1467.64 225.446L1476.34 219.396C1479.9 221.302 1483.64 222.853 1487.51 224.025L1489.38 234.454C1489.66 236.01 1490.48 237.419 1491.69 238.432C1492.91 239.446 1494.44 240.001 1496.02 240H1514.81C1516.39 240.001 1517.92 239.446 1519.13 238.432C1520.35 237.418 1521.16 236.01 1521.44 234.455L1523.32 224.025C1527.18 222.853 1530.92 221.303 1534.49 219.396L1543.19 225.446C1544.49 226.349 1546.06 226.767 1547.64 226.627C1549.21 226.486 1550.69 225.796 1551.8 224.678L1565.09 211.388C1566.21 210.272 1566.9 208.797 1567.04 207.223C1567.18 205.649 1566.76 204.075 1565.86 202.778L1559.81 194.074C1561.72 190.512 1563.27 186.771 1564.44 182.905L1574.87 181.03C1576.42 180.751 1577.83 179.934 1578.85 178.721C1579.86 177.508 1580.42 175.977 1580.41 174.397V155.603C1580.42 154.023 1579.86 152.492 1578.85 151.28C1577.83 150.067 1576.42 149.25 1574.87 148.971L1564.44 147.096C1563.27 143.23 1561.72 139.489 1559.81 135.928L1565.86 127.223C1566.76 125.926 1567.18 124.353 1567.04 122.778C1566.9 121.204 1566.21 119.73 1565.09 118.613L1551.8 105.322C1550.69 104.204 1549.21 103.514 1547.64 103.374C1546.06 103.233 1544.49 103.651 1543.19 104.554L1534.49 110.604C1530.93 108.698 1527.18 107.147 1523.32 105.975L1521.44 95.5456C1521.17 93.9897 1520.35 92.5814 1519.13 91.5675C1517.92 90.5536 1516.39 89.9987 1514.81 90H1496.02C1494.44 89.999 1492.91 90.554 1491.69 91.5678C1490.48 92.5816 1489.66 93.9896 1489.39 95.5453L1487.51 105.975C1483.64 107.147 1479.9 108.697 1476.34 110.604L1467.64 104.554C1466.34 103.651 1464.77 103.233 1463.19 103.374C1461.62 103.514 1460.14 104.204 1459.03 105.322L1445.74 118.612C1444.62 119.728 1443.93 121.203 1443.79 122.777C1443.65 124.351 1444.07 125.925 1444.97 127.222L1451.02 135.926C1449.11 139.488 1447.56 143.229 1446.39 147.095L1435.96 148.97C1434.4 149.249 1433 150.066 1431.98 151.279C1430.97 152.492 1430.41 154.023 1430.41 155.603V174.397C1430.41 175.977 1430.97 177.508 1431.98 178.72C1433 179.933 1434.4 180.75 1435.96 181.029ZM1494 233.625L1491.87 221.765C1491.79 221.33 1491.59 220.927 1491.29 220.601C1490.99 220.274 1490.61 220.039 1490.18 219.921C1485.71 218.681 1481.4 216.894 1477.35 214.602C1476.97 214.384 1476.53 214.28 1476.09 214.3C1475.65 214.32 1475.22 214.464 1474.86 214.717L1464.96 221.597C1464.57 221.877 1464.09 222.007 1463.61 221.964C1463.13 221.921 1462.68 221.707 1462.34 221.363L1449.05 208.074C1448.71 207.736 1448.49 207.287 1448.45 206.807C1448.41 206.326 1448.54 205.846 1448.82 205.453L1455.7 195.554C1455.95 195.192 1456.09 194.765 1456.11 194.324C1456.13 193.883 1456.03 193.445 1455.81 193.061C1453.52 189.018 1451.73 184.709 1450.49 180.231C1450.37 179.805 1450.14 179.421 1449.81 179.124C1449.49 178.826 1449.08 178.627 1448.65 178.549L1436.79 176.415C1436.31 176.335 1435.88 176.088 1435.57 175.718C1435.26 175.347 1435.1 174.879 1435.1 174.397V167.344H1459.22C1459.84 167.344 1460.44 167.097 1460.88 166.657C1461.32 166.218 1461.56 165.622 1461.56 165C1461.56 162.286 1462.64 159.682 1464.56 157.763C1466.48 155.843 1469.08 154.765 1471.8 154.765C1474.51 154.765 1477.12 155.843 1479.03 157.763C1480.95 159.682 1482.03 162.286 1482.03 165C1482.03 165.622 1482.28 166.218 1482.72 166.657C1483.16 167.097 1483.75 167.344 1484.38 167.344H1503.07V183.878C1499.56 184.436 1496.37 186.226 1494.06 188.928C1491.76 191.629 1490.49 195.065 1490.49 198.616C1490.49 202.168 1491.76 205.603 1494.06 208.305C1496.37 211.006 1499.56 212.797 1503.07 213.355V235.312H1496.02C1495.54 235.318 1495.07 235.151 1494.7 234.841C1494.33 234.532 1494.08 234.101 1494 233.625ZM1574.04 176.415L1562.18 178.549C1561.74 178.627 1561.34 178.826 1561.01 179.124C1560.69 179.421 1560.45 179.805 1560.33 180.23C1559.09 184.709 1557.31 189.018 1555.02 193.061C1554.8 193.445 1554.69 193.883 1554.71 194.324C1554.73 194.765 1554.88 195.192 1555.13 195.554L1562.01 205.453C1562.29 205.846 1562.42 206.326 1562.38 206.807C1562.33 207.287 1562.12 207.736 1561.78 208.074L1548.49 221.363C1548.15 221.708 1547.7 221.921 1547.22 221.964C1546.74 222.007 1546.26 221.877 1545.87 221.597L1535.97 214.717C1535.61 214.465 1535.18 214.32 1534.74 214.3C1534.3 214.28 1533.86 214.385 1533.47 214.603C1529.43 216.895 1525.12 218.681 1520.64 219.921C1520.22 220.039 1519.83 220.274 1519.54 220.601C1519.24 220.927 1519.04 221.33 1518.96 221.765L1516.83 233.625C1516.75 234.1 1516.5 234.532 1516.13 234.841C1515.76 235.15 1515.29 235.317 1514.81 235.312H1507.76V211.195C1507.76 210.573 1507.51 209.977 1507.07 209.537C1506.63 209.098 1506.04 208.851 1505.41 208.851C1502.7 208.851 1500.1 207.773 1498.18 205.853C1496.26 203.934 1495.18 201.331 1495.18 198.616C1495.18 195.902 1496.26 193.298 1498.18 191.379C1500.1 189.46 1502.7 188.381 1505.41 188.381C1506.04 188.381 1506.63 188.134 1507.07 187.695C1507.51 187.255 1507.76 186.659 1507.76 186.038V167.344H1524.29C1524.85 170.851 1526.64 174.045 1529.34 176.351C1532.04 178.656 1535.48 179.923 1539.03 179.923C1542.58 179.923 1546.02 178.656 1548.72 176.351C1551.42 174.045 1553.21 170.851 1553.77 167.344H1575.73V174.397C1575.73 174.879 1575.56 175.347 1575.26 175.718C1574.95 176.088 1574.51 176.335 1574.04 176.415H1574.04ZM1516.83 96.375L1518.96 108.235C1519.04 108.67 1519.24 109.073 1519.54 109.399C1519.84 109.726 1520.22 109.961 1520.64 110.079C1525.12 111.319 1529.43 113.106 1533.48 115.398C1533.86 115.616 1534.3 115.72 1534.74 115.7C1535.18 115.68 1535.61 115.536 1535.97 115.283L1545.87 108.403C1546.26 108.123 1546.74 107.993 1547.22 108.036C1547.7 108.079 1548.15 108.293 1548.49 108.638L1561.78 121.927C1562.12 122.264 1562.34 122.713 1562.38 123.194C1562.42 123.674 1562.29 124.154 1562.01 124.547L1555.13 134.446C1554.88 134.808 1554.73 135.235 1554.71 135.676C1554.69 136.117 1554.8 136.555 1555.02 136.939C1557.31 140.982 1559.09 145.291 1560.34 149.769C1560.45 150.195 1560.69 150.579 1561.01 150.876C1561.34 151.174 1561.74 151.373 1562.18 151.451L1574.04 153.585C1574.51 153.665 1574.95 153.912 1575.26 154.282C1575.57 154.652 1575.73 155.121 1575.73 155.603V162.656H1551.61C1550.99 162.656 1550.39 162.903 1549.95 163.343C1549.51 163.782 1549.27 164.378 1549.27 165C1549.27 166.349 1549.01 167.686 1548.5 168.934C1547.99 170.182 1547.24 171.316 1546.29 172.273C1545.34 173.229 1544.21 173.988 1542.96 174.506C1541.71 175.023 1540.38 175.29 1539.03 175.29C1537.68 175.29 1536.35 175.023 1535.1 174.506C1533.86 173.988 1532.72 173.229 1531.77 172.273C1530.82 171.316 1530.07 170.182 1529.56 168.934C1529.05 167.686 1528.79 166.349 1528.8 165C1528.8 164.378 1528.55 163.782 1528.11 163.343C1527.67 162.903 1527.07 162.656 1526.45 162.656H1507.76V146.122C1511.27 145.564 1514.46 143.774 1516.76 141.072C1519.07 138.371 1520.34 134.935 1520.34 131.384C1520.34 127.832 1519.07 124.397 1516.76 121.695C1514.46 118.994 1511.27 117.203 1507.76 116.645V94.6875H1514.81C1515.29 94.6821 1515.76 94.8492 1516.13 95.1586C1516.5 95.4679 1516.75 95.8993 1516.83 96.375ZM1436.79 153.585L1448.65 151.451C1449.08 151.373 1449.49 151.174 1449.81 150.876C1450.14 150.579 1450.38 150.195 1450.49 149.77C1451.73 145.291 1453.52 140.982 1455.81 136.939C1456.03 136.555 1456.13 136.117 1456.11 135.676C1456.09 135.235 1455.95 134.808 1455.7 134.446L1448.82 124.547C1448.54 124.154 1448.41 123.674 1448.45 123.193C1448.49 122.713 1448.71 122.264 1449.05 121.926L1462.34 108.637C1462.68 108.292 1463.13 108.079 1463.61 108.036C1464.09 107.993 1464.57 108.123 1464.96 108.403L1474.86 115.283C1475.22 115.535 1475.65 115.68 1476.09 115.7C1476.53 115.72 1476.97 115.615 1477.35 115.397C1481.4 113.105 1485.71 111.319 1490.19 110.079C1490.61 109.961 1490.99 109.725 1491.29 109.399C1491.59 109.073 1491.79 108.669 1491.87 108.235L1494 96.375C1494.08 95.8996 1494.33 95.4684 1494.7 95.1591C1495.07 94.8497 1495.54 94.6825 1496.02 94.6875H1503.07V118.805C1503.07 119.427 1503.32 120.023 1503.76 120.463C1504.2 120.902 1504.79 121.149 1505.41 121.149C1508.13 121.149 1510.73 122.227 1512.65 124.147C1514.57 126.066 1515.65 128.669 1515.65 131.384C1515.65 134.098 1514.57 136.702 1512.65 138.621C1510.73 140.54 1508.13 141.619 1505.41 141.619C1504.79 141.619 1504.2 141.866 1503.76 142.305C1503.32 142.745 1503.07 143.341 1503.07 143.963V162.656H1486.54C1485.98 159.149 1484.19 155.955 1481.49 153.65C1478.78 151.344 1475.35 150.078 1471.8 150.078C1468.25 150.078 1464.81 151.344 1462.11 153.65C1459.41 155.955 1457.62 159.149 1457.06 162.656H1435.1V155.603C1435.1 155.121 1435.26 154.653 1435.57 154.282C1435.88 153.912 1436.31 153.665 1436.79 153.585Z" fill="#43A862"></path></g><circle cx="2543.41" cy="900.5" r="156.5" fill="#DDFEEB" stroke="#43A862" stroke-width="18"></circle><circle cx="2544.41" cy="165.5" r="156.5" fill="#DDFEEB" stroke="#43A862" stroke-width="18"></circle><mask id="path-18-inside-1_1281_843" fill="white"><path fill-rule="evenodd" clip-rule="evenodd" d="M2569.44 235.032H2492.91C2489.24 235.032 2486.24 232.038 2486.24 228.358V114.509C2486.24 110.829 2489.23 107.836 2492.91 107.836H2512.02V104.273C2512.02 103.136 2512.94 102.214 2514.08 102.214H2524.35C2525.33 96.6088 2530.21 92.3535 2536.09 92.3535C2541.96 92.3535 2546.85 96.6091 2547.83 102.214H2558.1C2559.23 102.214 2560.16 103.136 2560.16 104.273V107.836H2579.26C2582.94 107.836 2585.93 110.829 2585.93 114.509V189.892C2596.62 192.4 2604.59 202.002 2604.59 213.451C2604.59 226.805 2593.75 237.648 2580.39 237.648C2576.45 237.648 2572.73 236.704 2569.44 235.032ZM2512.02 111.953H2492.91C2491.5 111.953 2490.36 113.1 2490.36 114.509V228.358C2490.36 229.768 2491.51 230.914 2492.91 230.914H2563.65C2562.08 229.405 2560.71 227.686 2559.58 225.801H2497.53C2496.39 225.801 2495.47 224.88 2495.47 223.743V119.125C2495.47 117.988 2496.39 117.066 2497.53 117.066H2512.02V111.953ZM2556.04 117.066V106.331H2545.95C2544.81 106.331 2543.89 105.41 2543.89 104.273C2543.89 99.9609 2540.39 96.4712 2536.09 96.4712C2531.78 96.4712 2528.29 99.9612 2528.29 104.273C2528.29 105.41 2527.37 106.331 2526.23 106.331H2516.14V117.066H2556.04ZM2581.81 189.295V114.509C2581.81 113.1 2580.67 111.953 2579.26 111.953H2560.16V117.066H2574.64C2575.78 117.066 2576.7 117.988 2576.7 119.125V189.534C2577.9 189.349 2579.14 189.254 2580.39 189.254C2580.87 189.254 2581.34 189.267 2581.81 189.295ZM2557.63 221.684C2556.7 219.114 2556.19 216.341 2556.19 213.451C2556.19 211.257 2556.49 209.131 2557.03 207.111H2530.52C2529.38 207.111 2528.46 206.188 2528.46 205.052C2528.46 203.916 2529.38 202.993 2530.52 202.993H2558.57C2561.36 197.177 2566.41 192.648 2572.58 190.543V121.184C2569.85 121.184 2499.59 121.184 2499.59 121.184V221.684H2557.63ZM2580.39 193.371C2569.31 193.371 2560.31 202.369 2560.31 213.451C2560.31 224.533 2569.31 233.53 2580.39 233.53C2591.47 233.53 2600.47 224.533 2600.47 213.451C2600.47 202.369 2591.47 193.371 2580.39 193.371ZM2568.75 213.263C2567.9 212.502 2567.84 211.199 2568.6 210.355C2569.36 209.511 2570.66 209.444 2571.5 210.206L2578.12 216.175L2589.3 206.423C2590.16 205.676 2591.46 205.765 2592.21 206.621C2592.96 207.478 2592.87 208.779 2592.01 209.526L2579.45 220.478C2578.67 221.163 2577.49 221.153 2576.72 220.456L2568.75 213.263ZM2536.09 106.867C2534.65 106.867 2533.49 105.705 2533.49 104.273C2533.49 102.841 2534.65 101.671 2536.09 101.671C2537.52 101.671 2538.69 102.841 2538.69 104.273C2538.69 105.705 2537.52 106.867 2536.09 106.867ZM2515.07 138.199C2513.94 138.199 2513.01 137.277 2513.01 136.14C2513.01 135.004 2513.94 134.081 2515.07 134.081H2520.33L2522.62 128.428C2522.95 127.634 2523.73 127.124 2524.58 127.145C2525.44 127.167 2526.19 127.716 2526.47 128.525L2529.76 137.953L2530.66 135.5C2530.97 134.674 2531.76 134.132 2532.64 134.15L2535.58 134.208L2537.48 128.064C2537.74 127.207 2538.53 126.619 2539.43 126.612C2540.33 126.605 2541.12 127.18 2541.4 128.033L2544.83 138.565L2547.79 134.858C2548.18 134.367 2548.77 134.081 2549.4 134.081H2557.1C2558.23 134.081 2559.16 135.004 2559.16 136.14C2559.16 137.277 2558.23 138.199 2557.1 138.199H2550.39L2545.67 144.123C2545.2 144.715 2544.44 145.001 2543.69 144.866C2542.95 144.731 2542.34 144.198 2542.1 143.478L2539.5 135.484L2539.06 136.903C2538.79 137.781 2537.97 138.373 2537.05 138.355L2534.02 138.295L2531.65 144.775C2531.35 145.591 2530.57 146.132 2529.7 146.125C2528.83 146.119 2528.06 145.566 2527.77 144.745L2524.38 135.031L2523.62 136.916C2523.3 137.692 2522.55 138.199 2521.71 138.199H2515.07ZM2523.64 154.5V165.675C2523.64 166.812 2522.71 167.734 2521.58 167.734H2510.4C2509.26 167.734 2508.34 166.812 2508.34 165.675V154.5C2508.34 153.363 2509.26 152.441 2510.4 152.441H2521.58C2522.71 152.441 2523.64 153.363 2523.64 154.5ZM2519.52 156.559H2512.46V163.616H2519.52V156.559ZM2530.52 162.146C2529.38 162.146 2528.46 161.224 2528.46 160.088C2528.46 158.951 2529.38 158.029 2530.52 158.029H2561.77C2562.9 158.029 2563.83 158.951 2563.83 160.088C2563.83 161.224 2562.9 162.146 2561.77 162.146H2530.52ZM2523.64 199.464V210.639C2523.64 211.776 2522.71 212.698 2521.58 212.698H2510.4C2509.26 212.698 2508.34 211.776 2508.34 210.639V199.464C2508.34 198.327 2509.26 197.406 2510.4 197.406H2521.58C2522.71 197.406 2523.64 198.327 2523.64 199.464ZM2519.52 201.523H2512.46V208.58H2519.52V201.523ZM2530.52 184.629C2529.38 184.629 2528.46 183.706 2528.46 182.57C2528.46 181.434 2529.38 180.511 2530.52 180.511H2561.77C2562.9 180.511 2563.83 181.434 2563.83 182.57C2563.83 183.706 2562.9 184.629 2561.77 184.629H2530.52ZM2523.64 176.982V188.157C2523.64 189.294 2522.71 190.216 2521.58 190.216H2510.4C2509.26 190.216 2508.34 189.294 2508.34 188.157V176.982C2508.34 175.845 2509.26 174.924 2510.4 174.924H2521.58C2522.71 174.924 2523.64 175.845 2523.64 176.982ZM2519.52 179.041H2512.46V186.098H2519.52V179.041Z"></path></mask><path fill-rule="evenodd" clip-rule="evenodd" d="M2569.44 235.032H2492.91C2489.24 235.032 2486.24 232.038 2486.24 228.358V114.509C2486.24 110.829 2489.23 107.836 2492.91 107.836H2512.02V104.273C2512.02 103.136 2512.94 102.214 2514.08 102.214H2524.35C2525.33 96.6088 2530.21 92.3535 2536.09 92.3535C2541.96 92.3535 2546.85 96.6091 2547.83 102.214H2558.1C2559.23 102.214 2560.16 103.136 2560.16 104.273V107.836H2579.26C2582.94 107.836 2585.93 110.829 2585.93 114.509V189.892C2596.62 192.4 2604.59 202.002 2604.59 213.451C2604.59 226.805 2593.75 237.648 2580.39 237.648C2576.45 237.648 2572.73 236.704 2569.44 235.032ZM2512.02 111.953H2492.91C2491.5 111.953 2490.36 113.1 2490.36 114.509V228.358C2490.36 229.768 2491.51 230.914 2492.91 230.914H2563.65C2562.08 229.405 2560.71 227.686 2559.58 225.801H2497.53C2496.39 225.801 2495.47 224.88 2495.47 223.743V119.125C2495.47 117.988 2496.39 117.066 2497.53 117.066H2512.02V111.953ZM2556.04 117.066V106.331H2545.95C2544.81 106.331 2543.89 105.41 2543.89 104.273C2543.89 99.9609 2540.39 96.4712 2536.09 96.4712C2531.78 96.4712 2528.29 99.9612 2528.29 104.273C2528.29 105.41 2527.37 106.331 2526.23 106.331H2516.14V117.066H2556.04ZM2581.81 189.295V114.509C2581.81 113.1 2580.67 111.953 2579.26 111.953H2560.16V117.066H2574.64C2575.78 117.066 2576.7 117.988 2576.7 119.125V189.534C2577.9 189.349 2579.14 189.254 2580.39 189.254C2580.87 189.254 2581.34 189.267 2581.81 189.295ZM2557.63 221.684C2556.7 219.114 2556.19 216.341 2556.19 213.451C2556.19 211.257 2556.49 209.131 2557.03 207.111H2530.52C2529.38 207.111 2528.46 206.188 2528.46 205.052C2528.46 203.916 2529.38 202.993 2530.52 202.993H2558.57C2561.36 197.177 2566.41 192.648 2572.58 190.543V121.184C2569.85 121.184 2499.59 121.184 2499.59 121.184V221.684H2557.63ZM2580.39 193.371C2569.31 193.371 2560.31 202.369 2560.31 213.451C2560.31 224.533 2569.31 233.53 2580.39 233.53C2591.47 233.53 2600.47 224.533 2600.47 213.451C2600.47 202.369 2591.47 193.371 2580.39 193.371ZM2568.75 213.263C2567.9 212.502 2567.84 211.199 2568.6 210.355C2569.36 209.511 2570.66 209.444 2571.5 210.206L2578.12 216.175L2589.3 206.423C2590.16 205.676 2591.46 205.765 2592.21 206.621C2592.96 207.478 2592.87 208.779 2592.01 209.526L2579.45 220.478C2578.67 221.163 2577.49 221.153 2576.72 220.456L2568.75 213.263ZM2536.09 106.867C2534.65 106.867 2533.49 105.705 2533.49 104.273C2533.49 102.841 2534.65 101.671 2536.09 101.671C2537.52 101.671 2538.69 102.841 2538.69 104.273C2538.69 105.705 2537.52 106.867 2536.09 106.867ZM2515.07 138.199C2513.94 138.199 2513.01 137.277 2513.01 136.14C2513.01 135.004 2513.94 134.081 2515.07 134.081H2520.33L2522.62 128.428C2522.95 127.634 2523.73 127.124 2524.58 127.145C2525.44 127.167 2526.19 127.716 2526.47 128.525L2529.76 137.953L2530.66 135.5C2530.97 134.674 2531.76 134.132 2532.64 134.15L2535.58 134.208L2537.48 128.064C2537.74 127.207 2538.53 126.619 2539.43 126.612C2540.33 126.605 2541.12 127.18 2541.4 128.033L2544.83 138.565L2547.79 134.858C2548.18 134.367 2548.77 134.081 2549.4 134.081H2557.1C2558.23 134.081 2559.16 135.004 2559.16 136.14C2559.16 137.277 2558.23 138.199 2557.1 138.199H2550.39L2545.67 144.123C2545.2 144.715 2544.44 145.001 2543.69 144.866C2542.95 144.731 2542.34 144.198 2542.1 143.478L2539.5 135.484L2539.06 136.903C2538.79 137.781 2537.97 138.373 2537.05 138.355L2534.02 138.295L2531.65 144.775C2531.35 145.591 2530.57 146.132 2529.7 146.125C2528.83 146.119 2528.06 145.566 2527.77 144.745L2524.38 135.031L2523.62 136.916C2523.3 137.692 2522.55 138.199 2521.71 138.199H2515.07ZM2523.64 154.5V165.675C2523.64 166.812 2522.71 167.734 2521.58 167.734H2510.4C2509.26 167.734 2508.34 166.812 2508.34 165.675V154.5C2508.34 153.363 2509.26 152.441 2510.4 152.441H2521.58C2522.71 152.441 2523.64 153.363 2523.64 154.5ZM2519.52 156.559H2512.46V163.616H2519.52V156.559ZM2530.52 162.146C2529.38 162.146 2528.46 161.224 2528.46 160.088C2528.46 158.951 2529.38 158.029 2530.52 158.029H2561.77C2562.9 158.029 2563.83 158.951 2563.83 160.088C2563.83 161.224 2562.9 162.146 2561.77 162.146H2530.52ZM2523.64 199.464V210.639C2523.64 211.776 2522.71 212.698 2521.58 212.698H2510.4C2509.26 212.698 2508.34 211.776 2508.34 210.639V199.464C2508.34 198.327 2509.26 197.406 2510.4 197.406H2521.58C2522.71 197.406 2523.64 198.327 2523.64 199.464ZM2519.52 201.523H2512.46V208.58H2519.52V201.523ZM2530.52 184.629C2529.38 184.629 2528.46 183.706 2528.46 182.57C2528.46 181.434 2529.38 180.511 2530.52 180.511H2561.77C2562.9 180.511 2563.83 181.434 2563.83 182.57C2563.83 183.706 2562.9 184.629 2561.77 184.629H2530.52ZM2523.64 176.982V188.157C2523.64 189.294 2522.71 190.216 2521.58 190.216H2510.4C2509.26 190.216 2508.34 189.294 2508.34 188.157V176.982C2508.34 175.845 2509.26 174.924 2510.4 174.924H2521.58C2522.71 174.924 2523.64 175.845 2523.64 176.982ZM2519.52 179.041H2512.46V186.098H2519.52V179.041Z" fill="#43A862" stroke="white" mask="url(#path-18-inside-1_1281_843)"></path><circle cx="375.414" cy="165.5" r="156.5" fill="#DDFEEB" stroke="#43A862" stroke-width="18"></circle><path d="M289.978 389.727C289.978 394.803 289.016 399.121 287.092 402.682C285.183 406.242 282.577 408.962 279.274 410.841C275.986 412.705 272.289 413.636 268.183 413.636C264.047 413.636 260.335 412.697 257.047 410.818C253.759 408.939 251.16 406.22 249.251 402.659C247.342 399.098 246.388 394.788 246.388 389.727C246.388 384.652 247.342 380.333 249.251 376.773C251.16 373.212 253.759 370.5 257.047 368.636C260.335 366.758 264.047 365.818 268.183 365.818C272.289 365.818 275.986 366.758 279.274 368.636C282.577 370.5 285.183 373.212 287.092 376.773C289.016 380.333 289.978 384.652 289.978 389.727ZM280.001 389.727C280.001 386.439 279.509 383.667 278.524 381.409C277.554 379.152 276.183 377.439 274.41 376.273C272.638 375.106 270.562 374.523 268.183 374.523C265.804 374.523 263.728 375.106 261.956 376.273C260.183 377.439 258.804 379.152 257.819 381.409C256.85 383.667 256.365 386.439 256.365 389.727C256.365 393.015 256.85 395.788 257.819 398.045C258.804 400.303 260.183 402.015 261.956 403.182C263.728 404.348 265.804 404.932 268.183 404.932C270.562 404.932 272.638 404.348 274.41 403.182C276.183 402.015 277.554 400.303 278.524 398.045C279.509 395.788 280.001 393.015 280.001 389.727ZM305.488 392.818V413H295.806V378.091H305.034V384.25H305.443C306.216 382.22 307.511 380.614 309.329 379.432C311.147 378.235 313.352 377.636 315.943 377.636C318.367 377.636 320.481 378.167 322.284 379.227C324.087 380.288 325.488 381.803 326.488 383.773C327.488 385.727 327.988 388.061 327.988 390.773V413H318.306V392.5C318.322 390.364 317.776 388.697 316.67 387.5C315.564 386.288 314.041 385.682 312.102 385.682C310.799 385.682 309.647 385.962 308.647 386.523C307.663 387.083 306.89 387.902 306.329 388.977C305.784 390.038 305.503 391.318 305.488 392.818ZM334.521 413V366.455H344.203V383.955H344.498C344.922 383.015 345.536 382.061 346.339 381.091C347.157 380.106 348.218 379.288 349.521 378.636C350.839 377.97 352.475 377.636 354.43 377.636C356.975 377.636 359.324 378.303 361.475 379.636C363.627 380.955 365.347 382.947 366.634 385.614C367.922 388.265 368.566 391.591 368.566 395.591C368.566 399.485 367.937 402.773 366.68 405.455C365.437 408.121 363.74 410.144 361.589 411.523C359.453 412.886 357.059 413.568 354.407 413.568C352.528 413.568 350.93 413.258 349.612 412.636C348.309 412.015 347.24 411.235 346.407 410.295C345.574 409.341 344.937 408.379 344.498 407.409H344.066V413H334.521ZM343.998 395.545C343.998 397.621 344.286 399.432 344.862 400.977C345.437 402.523 346.271 403.727 347.362 404.591C348.453 405.439 349.778 405.864 351.339 405.864C352.915 405.864 354.248 405.432 355.339 404.568C356.43 403.689 357.256 402.477 357.816 400.932C358.392 399.371 358.68 397.576 358.68 395.545C358.68 393.53 358.4 391.758 357.839 390.227C357.278 388.697 356.453 387.5 355.362 386.636C354.271 385.773 352.93 385.341 351.339 385.341C349.763 385.341 348.43 385.758 347.339 386.591C346.263 387.424 345.437 388.606 344.862 390.136C344.286 391.667 343.998 393.47 343.998 395.545ZM389.519 413.682C385.989 413.682 382.936 412.932 380.36 411.432C377.799 409.917 375.822 407.811 374.428 405.114C373.034 402.402 372.337 399.258 372.337 395.682C372.337 392.076 373.034 388.924 374.428 386.227C375.822 383.515 377.799 381.409 380.36 379.909C382.936 378.394 385.989 377.636 389.519 377.636C393.049 377.636 396.095 378.394 398.656 379.909C401.231 381.409 403.216 383.515 404.61 386.227C406.004 388.924 406.701 392.076 406.701 395.682C406.701 399.258 406.004 402.402 404.61 405.114C403.216 407.811 401.231 409.917 398.656 411.432C396.095 412.932 393.049 413.682 389.519 413.682ZM389.565 406.182C391.171 406.182 392.512 405.727 393.587 404.818C394.663 403.894 395.474 402.636 396.019 401.045C396.58 399.455 396.86 397.644 396.86 395.614C396.86 393.583 396.58 391.773 396.019 390.182C395.474 388.591 394.663 387.333 393.587 386.409C392.512 385.485 391.171 385.023 389.565 385.023C387.943 385.023 386.58 385.485 385.474 386.409C384.383 387.333 383.557 388.591 382.996 390.182C382.451 391.773 382.178 393.583 382.178 395.614C382.178 397.644 382.451 399.455 382.996 401.045C383.557 402.636 384.383 403.894 385.474 404.818C386.58 405.727 387.943 406.182 389.565 406.182ZM421.671 413.659C419.444 413.659 417.459 413.273 415.716 412.5C413.974 411.712 412.595 410.553 411.58 409.023C410.58 407.477 410.08 405.553 410.08 403.25C410.08 401.311 410.436 399.682 411.148 398.364C411.86 397.045 412.83 395.985 414.057 395.182C415.285 394.379 416.679 393.773 418.239 393.364C419.815 392.955 421.466 392.667 423.194 392.5C425.224 392.288 426.86 392.091 428.103 391.909C429.345 391.712 430.247 391.424 430.807 391.045C431.368 390.667 431.648 390.106 431.648 389.364V389.227C431.648 387.788 431.194 386.674 430.285 385.886C429.391 385.098 428.118 384.705 426.466 384.705C424.724 384.705 423.338 385.091 422.307 385.864C421.277 386.621 420.595 387.576 420.262 388.727L411.307 388C411.762 385.879 412.656 384.045 413.989 382.5C415.323 380.939 417.042 379.742 419.148 378.909C421.269 378.061 423.724 377.636 426.512 377.636C428.451 377.636 430.307 377.864 432.08 378.318C433.868 378.773 435.451 379.477 436.83 380.432C438.224 381.386 439.323 382.614 440.126 384.114C440.929 385.598 441.33 387.379 441.33 389.455V413H432.148V408.159H431.876C431.315 409.25 430.565 410.212 429.626 411.045C428.686 411.864 427.557 412.508 426.239 412.977C424.921 413.432 423.398 413.659 421.671 413.659ZM424.444 406.977C425.868 406.977 427.126 406.697 428.216 406.136C429.307 405.561 430.163 404.788 430.785 403.818C431.406 402.848 431.716 401.75 431.716 400.523V396.818C431.413 397.015 430.997 397.197 430.466 397.364C429.951 397.515 429.368 397.659 428.716 397.795C428.065 397.917 427.413 398.03 426.762 398.136C426.11 398.227 425.519 398.311 424.989 398.386C423.853 398.553 422.86 398.818 422.012 399.182C421.163 399.545 420.504 400.038 420.035 400.659C419.565 401.265 419.33 402.023 419.33 402.932C419.33 404.25 419.807 405.258 420.762 405.955C421.732 406.636 422.959 406.977 424.444 406.977ZM447.561 413V378.091H456.948V384.182H457.311C457.948 382.015 459.016 380.379 460.516 379.273C462.016 378.152 463.743 377.591 465.698 377.591C466.183 377.591 466.705 377.621 467.266 377.682C467.827 377.742 468.319 377.826 468.743 377.932V386.523C468.289 386.386 467.66 386.265 466.857 386.159C466.054 386.053 465.319 386 464.652 386C463.228 386 461.955 386.311 460.834 386.932C459.728 387.538 458.849 388.386 458.198 389.477C457.561 390.568 457.243 391.826 457.243 393.25V413H447.561ZM483.708 413.568C481.056 413.568 478.655 412.886 476.503 411.523C474.367 410.144 472.67 408.121 471.412 405.455C470.17 402.773 469.548 399.485 469.548 395.591C469.548 391.591 470.192 388.265 471.48 385.614C472.768 382.947 474.48 380.955 476.617 379.636C478.768 378.303 481.124 377.636 483.685 377.636C485.639 377.636 487.268 377.97 488.571 378.636C489.889 379.288 490.95 380.106 491.753 381.091C492.571 382.061 493.192 383.015 493.617 383.955H493.912V366.455H503.571V413H494.026V407.409H493.617C493.162 408.379 492.518 409.341 491.685 410.295C490.867 411.235 489.798 412.015 488.48 412.636C487.177 413.258 485.586 413.568 483.708 413.568ZM486.776 405.864C488.336 405.864 489.655 405.439 490.73 404.591C491.821 403.727 492.655 402.523 493.23 400.977C493.821 399.432 494.117 397.621 494.117 395.545C494.117 393.47 493.829 391.667 493.253 390.136C492.677 388.606 491.844 387.424 490.753 386.591C489.662 385.758 488.336 385.341 486.776 385.341C485.185 385.341 483.844 385.773 482.753 386.636C481.662 387.5 480.836 388.697 480.276 390.227C479.715 391.758 479.435 393.53 479.435 395.545C479.435 397.576 479.715 399.371 480.276 400.932C480.852 402.477 481.677 403.689 482.753 404.568C483.844 405.432 485.185 405.864 486.776 405.864Z" fill="#43A862"></path><path d="M312.791 1131.82H321.155L325.36 1137.23L329.496 1142.05L337.291 1151.82H328.11L322.746 1145.23L319.996 1141.32L312.791 1131.82ZM337.996 1124.73C337.996 1129.8 337.034 1134.12 335.11 1137.68C333.201 1141.24 330.594 1143.96 327.291 1145.84C324.004 1147.7 320.307 1148.64 316.201 1148.64C312.064 1148.64 308.352 1147.7 305.064 1145.82C301.776 1143.94 299.178 1141.22 297.269 1137.66C295.36 1134.1 294.405 1129.79 294.405 1124.73C294.405 1119.65 295.36 1115.33 297.269 1111.77C299.178 1108.21 301.776 1105.5 305.064 1103.64C308.352 1101.76 312.064 1100.82 316.201 1100.82C320.307 1100.82 324.004 1101.76 327.291 1103.64C330.594 1105.5 333.201 1108.21 335.11 1111.77C337.034 1115.33 337.996 1119.65 337.996 1124.73ZM328.019 1124.73C328.019 1121.44 327.526 1118.67 326.541 1116.41C325.572 1114.15 324.201 1112.44 322.428 1111.27C320.655 1110.11 318.579 1109.52 316.201 1109.52C313.822 1109.52 311.746 1110.11 309.973 1111.27C308.201 1112.44 306.822 1114.15 305.837 1116.41C304.867 1118.67 304.382 1121.44 304.382 1124.73C304.382 1128.02 304.867 1130.79 305.837 1133.05C306.822 1135.3 308.201 1137.02 309.973 1138.18C311.746 1139.35 313.822 1139.93 316.201 1139.93C318.579 1139.93 320.655 1139.35 322.428 1138.18C324.201 1137.02 325.572 1135.3 326.541 1133.05C327.526 1130.79 328.019 1128.02 328.019 1124.73ZM344.006 1148V1101.45H362.642C366.066 1101.45 368.922 1101.96 371.21 1102.98C373.498 1103.99 375.218 1105.4 376.369 1107.2C377.521 1108.99 378.097 1111.05 378.097 1113.39C378.097 1115.2 377.733 1116.8 377.006 1118.18C376.278 1119.55 375.278 1120.67 374.006 1121.55C372.748 1122.41 371.309 1123.02 369.688 1123.39V1123.84C371.46 1123.92 373.119 1124.42 374.665 1125.34C376.225 1126.27 377.491 1127.56 378.46 1129.23C379.43 1130.88 379.915 1132.85 379.915 1135.14C379.915 1137.61 379.301 1139.81 378.074 1141.75C376.862 1143.67 375.066 1145.2 372.688 1146.32C370.309 1147.44 367.377 1148 363.892 1148H344.006ZM353.847 1139.95H361.869C364.612 1139.95 366.612 1139.43 367.869 1138.39C369.127 1137.33 369.756 1135.92 369.756 1134.16C369.756 1132.87 369.445 1131.73 368.824 1130.75C368.203 1129.77 367.316 1128.99 366.165 1128.43C365.028 1127.87 363.672 1127.59 362.097 1127.59H353.847V1139.95ZM353.847 1120.93H361.142C362.491 1120.93 363.688 1120.7 364.733 1120.23C365.794 1119.74 366.627 1119.06 367.233 1118.18C367.854 1117.3 368.165 1116.25 368.165 1115.02C368.165 1113.34 367.566 1111.98 366.369 1110.95C365.188 1109.92 363.506 1109.41 361.324 1109.41H353.847V1120.93ZM385.038 1148V1101.45H403.402C406.917 1101.45 409.917 1102.08 412.402 1103.34C414.902 1104.58 416.803 1106.35 418.106 1108.64C419.425 1110.91 420.084 1113.58 420.084 1116.66C420.084 1119.75 419.417 1122.41 418.084 1124.64C416.75 1126.85 414.819 1128.55 412.288 1129.73C409.773 1130.91 406.728 1131.5 403.152 1131.5H390.856V1123.59H401.561C403.44 1123.59 405 1123.33 406.243 1122.82C407.485 1122.3 408.409 1121.53 409.016 1120.5C409.637 1119.47 409.947 1118.19 409.947 1116.66C409.947 1115.11 409.637 1113.81 409.016 1112.75C408.409 1111.69 407.478 1110.89 406.22 1110.34C404.978 1109.78 403.409 1109.5 401.516 1109.5H394.879V1148H385.038ZM410.175 1126.82L421.743 1148H410.879L399.561 1126.82H410.175ZM454.622 1123.05L445.758 1123.59C445.607 1122.83 445.281 1122.15 444.781 1121.55C444.281 1120.92 443.622 1120.43 442.804 1120.07C442.001 1119.69 441.039 1119.5 439.917 1119.5C438.417 1119.5 437.152 1119.82 436.122 1120.45C435.092 1121.08 434.576 1121.91 434.576 1122.95C434.576 1123.79 434.91 1124.49 435.576 1125.07C436.243 1125.64 437.387 1126.11 439.008 1126.45L445.326 1127.73C448.72 1128.42 451.251 1129.55 452.917 1131.09C454.584 1132.64 455.417 1134.67 455.417 1137.18C455.417 1139.47 454.743 1141.48 453.395 1143.2C452.061 1144.93 450.228 1146.28 447.895 1147.25C445.576 1148.2 442.902 1148.68 439.872 1148.68C435.251 1148.68 431.569 1147.72 428.826 1145.8C426.099 1143.86 424.501 1141.22 424.031 1137.89L433.554 1137.39C433.842 1138.8 434.539 1139.87 435.645 1140.61C436.751 1141.34 438.167 1141.7 439.895 1141.7C441.592 1141.7 442.955 1141.38 443.986 1140.73C445.031 1140.06 445.561 1139.2 445.576 1138.16C445.561 1137.28 445.19 1136.56 444.463 1136C443.736 1135.42 442.614 1134.98 441.099 1134.68L435.054 1133.48C431.645 1132.8 429.107 1131.61 427.44 1129.93C425.789 1128.25 424.963 1126.11 424.963 1123.5C424.963 1121.26 425.569 1119.33 426.781 1117.7C428.008 1116.08 429.728 1114.83 431.94 1113.95C434.167 1113.08 436.773 1112.64 439.758 1112.64C444.167 1112.64 447.637 1113.57 450.167 1115.43C452.713 1117.3 454.198 1119.83 454.622 1123.05Z" fill="#43A862"></path><path d="M1423.26 413H1412.72L1428.78 366.455H1441.47L1457.51 413H1446.97L1435.31 377.091H1434.94L1423.26 413ZM1422.6 394.705H1447.51V402.386H1422.6V394.705ZM1472.89 413.568C1470.24 413.568 1467.84 412.886 1465.69 411.523C1463.55 410.144 1461.85 408.121 1460.59 405.455C1459.35 402.773 1458.73 399.485 1458.73 395.591C1458.73 391.591 1459.37 388.265 1460.66 385.614C1461.95 382.947 1463.66 380.955 1465.8 379.636C1467.95 378.303 1470.31 377.636 1472.87 377.636C1474.82 377.636 1476.45 377.97 1477.75 378.636C1479.07 379.288 1480.13 380.106 1480.94 381.091C1481.75 382.061 1482.37 383.015 1482.8 383.955H1483.09V366.455H1492.75V413H1483.21V407.409H1482.8C1482.34 408.379 1481.7 409.341 1480.87 410.295C1480.05 411.235 1478.98 412.015 1477.66 412.636C1476.36 413.258 1474.77 413.568 1472.89 413.568ZM1475.96 405.864C1477.52 405.864 1478.84 405.439 1479.91 404.591C1481 403.727 1481.84 402.523 1482.41 400.977C1483 399.432 1483.3 397.621 1483.3 395.545C1483.3 393.47 1483.01 391.667 1482.44 390.136C1481.86 388.606 1481.03 387.424 1479.94 386.591C1478.84 385.758 1477.52 385.341 1475.96 385.341C1474.37 385.341 1473.03 385.773 1471.94 386.636C1470.84 387.5 1470.02 388.697 1469.46 390.227C1468.9 391.758 1468.62 393.53 1468.62 395.545C1468.62 397.576 1468.9 399.371 1469.46 400.932C1470.03 402.477 1470.86 403.689 1471.94 404.568C1473.03 405.432 1474.37 405.864 1475.96 405.864ZM1515.21 413.682C1511.68 413.682 1508.62 412.932 1506.05 411.432C1503.49 409.917 1501.51 407.811 1500.12 405.114C1498.72 402.402 1498.02 399.258 1498.02 395.682C1498.02 392.076 1498.72 388.924 1500.12 386.227C1501.51 383.515 1503.49 381.409 1506.05 379.909C1508.62 378.394 1511.68 377.636 1515.21 377.636C1518.74 377.636 1521.78 378.394 1524.34 379.909C1526.92 381.409 1528.9 383.515 1530.3 386.227C1531.69 388.924 1532.39 392.076 1532.39 395.682C1532.39 399.258 1531.69 402.402 1530.3 405.114C1528.9 407.811 1526.92 409.917 1524.34 411.432C1521.78 412.932 1518.74 413.682 1515.21 413.682ZM1515.25 406.182C1516.86 406.182 1518.2 405.727 1519.27 404.818C1520.35 403.894 1521.16 402.636 1521.71 401.045C1522.27 399.455 1522.55 397.644 1522.55 395.614C1522.55 393.583 1522.27 391.773 1521.71 390.182C1521.16 388.591 1520.35 387.333 1519.27 386.409C1518.2 385.485 1516.86 385.023 1515.25 385.023C1513.63 385.023 1512.27 385.485 1511.16 386.409C1510.07 387.333 1509.24 388.591 1508.68 390.182C1508.14 391.773 1507.87 393.583 1507.87 395.614C1507.87 397.644 1508.14 399.455 1508.68 401.045C1509.24 402.636 1510.07 403.894 1511.16 404.818C1512.27 405.727 1513.63 406.182 1515.25 406.182ZM1537.4 426.091V378.091H1546.95V383.955H1547.38C1547.81 383.015 1548.42 382.061 1549.22 381.091C1550.04 380.106 1551.1 379.288 1552.4 378.636C1553.72 377.97 1555.36 377.636 1557.31 377.636C1559.86 377.636 1562.21 378.303 1564.36 379.636C1566.51 380.955 1568.23 382.947 1569.52 385.614C1570.81 388.265 1571.45 391.591 1571.45 395.591C1571.45 399.485 1570.82 402.773 1569.56 405.455C1568.32 408.121 1566.62 410.144 1564.47 411.523C1562.34 412.886 1559.94 413.568 1557.29 413.568C1555.41 413.568 1553.81 413.258 1552.49 412.636C1551.19 412.015 1550.12 411.235 1549.29 410.295C1548.46 409.341 1547.82 408.379 1547.38 407.409H1547.09V426.091H1537.4ZM1546.88 395.545C1546.88 397.621 1547.17 399.432 1547.74 400.977C1548.32 402.523 1549.15 403.727 1550.24 404.591C1551.34 405.439 1552.66 405.864 1554.22 405.864C1555.8 405.864 1557.13 405.432 1558.22 404.568C1559.31 403.689 1560.14 402.477 1560.7 400.932C1561.28 399.371 1561.56 397.576 1561.56 395.545C1561.56 393.53 1561.28 391.758 1560.72 390.227C1560.16 388.697 1559.34 387.5 1558.24 386.636C1557.15 385.773 1555.81 385.341 1554.22 385.341C1552.65 385.341 1551.31 385.758 1550.22 386.591C1549.15 387.424 1548.32 388.606 1547.74 390.136C1547.17 391.667 1546.88 393.47 1546.88 395.545ZM1595.19 378.091V385.364H1574.17V378.091H1595.19ZM1578.94 369.727H1588.62V402.273C1588.62 403.167 1588.76 403.864 1589.03 404.364C1589.31 404.848 1589.68 405.189 1590.17 405.386C1590.67 405.583 1591.25 405.682 1591.9 405.682C1592.35 405.682 1592.81 405.644 1593.26 405.568C1593.71 405.477 1594.06 405.409 1594.31 405.364L1595.83 412.568C1595.34 412.72 1594.66 412.894 1593.78 413.091C1592.9 413.303 1591.84 413.432 1590.58 413.477C1588.25 413.568 1586.2 413.258 1584.44 412.545C1582.7 411.833 1581.34 410.727 1580.37 409.227C1579.4 407.727 1578.93 405.833 1578.94 403.545V369.727Z" fill="#43A862"></path><path d="M1421.05 1148V1101.45H1439.41C1442.93 1101.45 1445.93 1102.08 1448.41 1103.34C1450.91 1104.58 1452.82 1106.35 1454.12 1108.64C1455.44 1110.91 1456.1 1113.58 1456.1 1116.66C1456.1 1119.75 1455.43 1122.41 1454.1 1124.64C1452.76 1126.85 1450.83 1128.55 1448.3 1129.73C1445.79 1130.91 1442.74 1131.5 1439.16 1131.5H1426.87V1123.59H1437.57C1439.45 1123.59 1441.01 1123.33 1442.26 1122.82C1443.5 1122.3 1444.42 1121.53 1445.03 1120.5C1445.65 1119.47 1445.96 1118.19 1445.96 1116.66C1445.96 1115.11 1445.65 1113.81 1445.03 1112.75C1444.42 1111.69 1443.49 1110.89 1442.23 1110.34C1440.99 1109.78 1439.42 1109.5 1437.53 1109.5H1430.89V1148H1421.05ZM1446.19 1126.82L1457.76 1148H1446.89L1435.57 1126.82H1446.19ZM1476.94 1148.68C1473.34 1148.68 1470.25 1147.95 1467.66 1146.5C1465.09 1145.03 1463.1 1142.95 1461.71 1140.27C1460.31 1137.58 1459.62 1134.39 1459.62 1130.7C1459.62 1127.11 1460.31 1123.96 1461.71 1121.25C1463.1 1118.54 1465.06 1116.42 1467.59 1114.91C1470.14 1113.39 1473.12 1112.64 1476.55 1112.64C1478.85 1112.64 1481 1113.01 1482.98 1113.75C1484.98 1114.48 1486.72 1115.58 1488.21 1117.05C1489.71 1118.52 1490.87 1120.36 1491.71 1122.59C1492.54 1124.8 1492.96 1127.39 1492.96 1130.36V1133.02H1463.48V1127.02H1483.84C1483.84 1125.63 1483.54 1124.39 1482.94 1123.32C1482.33 1122.24 1481.49 1121.4 1480.41 1120.8C1479.35 1120.17 1478.12 1119.86 1476.71 1119.86C1475.24 1119.86 1473.94 1120.2 1472.8 1120.89C1471.68 1121.55 1470.8 1122.45 1470.16 1123.59C1469.53 1124.71 1469.2 1125.96 1469.19 1127.34V1133.05C1469.19 1134.77 1469.5 1136.27 1470.14 1137.52C1470.79 1138.78 1471.71 1139.75 1472.89 1140.43C1474.07 1141.11 1475.47 1141.45 1477.09 1141.45C1478.17 1141.45 1479.16 1141.3 1480.05 1141C1480.94 1140.7 1481.71 1140.24 1482.34 1139.64C1482.98 1139.03 1483.47 1138.29 1483.8 1137.41L1492.75 1138C1492.3 1140.15 1491.37 1142.03 1489.96 1143.64C1488.56 1145.23 1486.76 1146.47 1484.55 1147.36C1482.35 1148.24 1479.81 1148.68 1476.94 1148.68ZM1507.68 1127.82V1148H1498V1113.09H1507.22V1119.25H1507.63C1508.41 1117.22 1509.7 1115.61 1511.52 1114.43C1513.34 1113.23 1515.54 1112.64 1518.13 1112.64C1520.56 1112.64 1522.67 1113.17 1524.47 1114.23C1526.28 1115.29 1527.68 1116.8 1528.68 1118.77C1529.68 1120.73 1530.18 1123.06 1530.18 1125.77V1148H1520.5V1127.5C1520.51 1125.36 1519.97 1123.7 1518.86 1122.5C1517.75 1121.29 1516.23 1120.68 1514.29 1120.68C1512.99 1120.68 1511.84 1120.96 1510.84 1121.52C1509.85 1122.08 1509.08 1122.9 1508.52 1123.98C1507.97 1125.04 1507.69 1126.32 1507.68 1127.82ZM1552.44 1148.68C1548.85 1148.68 1545.76 1147.95 1543.17 1146.5C1540.59 1145.03 1538.6 1142.95 1537.21 1140.27C1535.82 1137.58 1535.12 1134.39 1535.12 1130.7C1535.12 1127.11 1535.82 1123.96 1537.21 1121.25C1538.6 1118.54 1540.57 1116.42 1543.1 1114.91C1545.64 1113.39 1548.63 1112.64 1552.05 1112.64C1554.35 1112.64 1556.5 1113.01 1558.48 1113.75C1560.48 1114.48 1562.23 1115.58 1563.71 1117.05C1565.21 1118.52 1566.38 1120.36 1567.21 1122.59C1568.04 1124.8 1568.46 1127.39 1568.46 1130.36V1133.02H1538.98V1127.02H1559.35C1559.35 1125.63 1559.04 1124.39 1558.44 1123.32C1557.83 1122.24 1556.99 1121.4 1555.92 1120.8C1554.85 1120.17 1553.62 1119.86 1552.21 1119.86C1550.74 1119.86 1549.44 1120.2 1548.3 1120.89C1547.18 1121.55 1546.3 1122.45 1545.67 1123.59C1545.03 1124.71 1544.7 1125.96 1544.69 1127.34V1133.05C1544.69 1134.77 1545.01 1136.27 1545.64 1137.52C1546.29 1138.78 1547.21 1139.75 1548.39 1140.43C1549.57 1141.11 1550.98 1141.45 1552.6 1141.45C1553.67 1141.45 1554.66 1141.3 1555.55 1141C1556.45 1140.7 1557.21 1140.24 1557.85 1139.64C1558.48 1139.03 1558.97 1138.29 1559.3 1137.41L1568.26 1138C1567.8 1140.15 1566.87 1142.03 1565.46 1143.64C1564.07 1145.23 1562.26 1146.47 1560.05 1147.36C1557.85 1148.24 1555.32 1148.68 1552.44 1148.68ZM1580.14 1148L1570.64 1113.09H1580.43L1585.84 1136.55H1586.16L1591.79 1113.09H1601.41L1607.14 1136.41H1607.43L1612.75 1113.09H1622.52L1613.04 1148H1602.79L1596.79 1126.05H1596.36L1590.36 1148H1580.14Z" fill="#43A862"></path><path d="M2323.31 366.455H2335.45L2348.27 397.727H2348.81L2361.63 366.455H2373.77V413H2364.22V382.705H2363.83L2351.79 412.773H2345.29L2333.24 382.591H2332.86V413H2323.31V366.455ZM2396.18 413.682C2392.65 413.682 2389.6 412.932 2387.03 411.432C2384.46 409.917 2382.49 407.811 2381.09 405.114C2379.7 402.402 2379 399.258 2379 395.682C2379 392.076 2379.7 388.924 2381.09 386.227C2382.49 383.515 2384.46 381.409 2387.03 379.909C2389.6 378.394 2392.65 377.636 2396.18 377.636C2399.71 377.636 2402.76 378.394 2405.32 379.909C2407.9 381.409 2409.88 383.515 2411.28 386.227C2412.67 388.924 2413.37 392.076 2413.37 395.682C2413.37 399.258 2412.67 402.402 2411.28 405.114C2409.88 407.811 2407.9 409.917 2405.32 411.432C2402.76 412.932 2399.71 413.682 2396.18 413.682ZM2396.23 406.182C2397.84 406.182 2399.18 405.727 2400.25 404.818C2401.33 403.894 2402.14 402.636 2402.68 401.045C2403.24 399.455 2403.53 397.644 2403.53 395.614C2403.53 393.583 2403.24 391.773 2402.68 390.182C2402.14 388.591 2401.33 387.333 2400.25 386.409C2399.18 385.485 2397.84 385.023 2396.23 385.023C2394.61 385.023 2393.24 385.485 2392.14 386.409C2391.05 387.333 2390.22 388.591 2389.66 390.182C2389.12 391.773 2388.84 393.583 2388.84 395.614C2388.84 397.644 2389.12 399.455 2389.66 401.045C2390.22 402.636 2391.05 403.894 2392.14 404.818C2393.24 405.727 2394.61 406.182 2396.23 406.182ZM2428.06 392.818V413H2418.38V378.091H2427.61V384.25H2428.02C2428.79 382.22 2430.09 380.614 2431.9 379.432C2433.72 378.235 2435.93 377.636 2438.52 377.636C2440.94 377.636 2443.06 378.167 2444.86 379.227C2446.66 380.288 2448.06 381.803 2449.06 383.773C2450.06 385.727 2450.56 388.061 2450.56 390.773V413H2440.88V392.5C2440.9 390.364 2440.35 388.697 2439.25 387.5C2438.14 386.288 2436.62 385.682 2434.68 385.682C2433.37 385.682 2432.22 385.962 2431.22 386.523C2430.24 387.083 2429.46 387.902 2428.9 388.977C2428.36 390.038 2428.08 391.318 2428.06 392.818ZM2456.91 413V378.091H2466.6V413H2456.91ZM2461.78 373.591C2460.34 373.591 2459.1 373.114 2458.07 372.159C2457.06 371.189 2456.55 370.03 2456.55 368.682C2456.55 367.348 2457.06 366.205 2458.07 365.25C2459.1 364.28 2460.34 363.795 2461.78 363.795C2463.22 363.795 2464.44 364.28 2465.46 365.25C2466.49 366.205 2467 367.348 2467 368.682C2467 370.03 2466.49 371.189 2465.46 372.159C2464.44 373.114 2463.22 373.591 2461.78 373.591ZM2491.64 378.091V385.364H2470.62V378.091H2491.64ZM2475.39 369.727H2485.07V402.273C2485.07 403.167 2485.21 403.864 2485.48 404.364C2485.75 404.848 2486.13 405.189 2486.62 405.386C2487.12 405.583 2487.69 405.682 2488.34 405.682C2488.8 405.682 2489.25 405.644 2489.71 405.568C2490.16 405.477 2490.51 405.409 2490.75 405.364L2492.28 412.568C2491.79 412.72 2491.11 412.894 2490.23 413.091C2489.35 413.303 2488.28 413.432 2487.03 413.477C2484.69 413.568 2482.65 413.258 2480.89 412.545C2479.15 411.833 2477.79 410.727 2476.82 409.227C2475.85 407.727 2475.37 405.833 2475.39 403.545V369.727ZM2512.06 413.682C2508.53 413.682 2505.48 412.932 2502.91 411.432C2500.34 409.917 2498.37 407.811 2496.97 405.114C2495.58 402.402 2494.88 399.258 2494.88 395.682C2494.88 392.076 2495.58 388.924 2496.97 386.227C2498.37 383.515 2500.34 381.409 2502.91 379.909C2505.48 378.394 2508.53 377.636 2512.06 377.636C2515.59 377.636 2518.64 378.394 2521.2 379.909C2523.78 381.409 2525.76 383.515 2527.16 386.227C2528.55 388.924 2529.25 392.076 2529.25 395.682C2529.25 399.258 2528.55 402.402 2527.16 405.114C2525.76 407.811 2523.78 409.917 2521.2 411.432C2518.64 412.932 2515.59 413.682 2512.06 413.682ZM2512.11 406.182C2513.72 406.182 2515.06 405.727 2516.13 404.818C2517.21 403.894 2518.02 402.636 2518.56 401.045C2519.12 399.455 2519.41 397.644 2519.41 395.614C2519.41 393.583 2519.12 391.773 2518.56 390.182C2518.02 388.591 2517.21 387.333 2516.13 386.409C2515.06 385.485 2513.72 385.023 2512.11 385.023C2510.49 385.023 2509.12 385.485 2508.02 386.409C2506.93 387.333 2506.1 388.591 2505.54 390.182C2505 391.773 2504.72 393.583 2504.72 395.614C2504.72 397.644 2505 399.455 2505.54 401.045C2506.1 402.636 2506.93 403.894 2508.02 404.818C2509.12 405.727 2510.49 406.182 2512.11 406.182ZM2534.26 413V378.091H2543.65V384.182H2544.01C2544.65 382.015 2545.72 380.379 2547.22 379.273C2548.72 378.152 2550.44 377.591 2552.4 377.591C2552.88 377.591 2553.41 377.621 2553.97 377.682C2554.53 377.742 2555.02 377.826 2555.44 377.932V386.523C2554.99 386.386 2554.36 386.265 2553.56 386.159C2552.75 386.053 2552.02 386 2551.35 386C2549.93 386 2548.66 386.311 2547.53 386.932C2546.43 387.538 2545.55 388.386 2544.9 389.477C2544.26 390.568 2543.94 391.826 2543.94 393.25V413H2534.26ZM2572.88 413V366.455H2582.72V385.659H2602.7V366.455H2612.52V413H2602.7V393.773H2582.72V413H2572.88ZM2635.08 413.682C2631.49 413.682 2628.4 412.955 2625.81 411.5C2623.23 410.03 2621.25 407.955 2619.85 405.273C2618.46 402.576 2617.76 399.386 2617.76 395.705C2617.76 392.114 2618.46 388.962 2619.85 386.25C2621.25 383.538 2623.21 381.424 2625.74 379.909C2628.29 378.394 2631.27 377.636 2634.69 377.636C2637 377.636 2639.14 378.008 2641.13 378.75C2643.13 379.477 2644.87 380.576 2646.35 382.045C2647.85 383.515 2649.02 385.364 2649.85 387.591C2650.69 389.803 2651.1 392.394 2651.1 395.364V398.023H2621.63V392.023H2641.99C2641.99 390.629 2641.69 389.394 2641.08 388.318C2640.47 387.242 2639.63 386.402 2638.56 385.795C2637.5 385.174 2636.26 384.864 2634.85 384.864C2633.38 384.864 2632.08 385.205 2630.94 385.886C2629.82 386.553 2628.94 387.455 2628.31 388.591C2627.67 389.712 2627.35 390.962 2627.33 392.341V398.045C2627.33 399.773 2627.65 401.265 2628.29 402.523C2628.94 403.78 2629.85 404.75 2631.04 405.432C2632.22 406.114 2633.62 406.455 2635.24 406.455C2636.32 406.455 2637.3 406.303 2638.19 406C2639.09 405.697 2639.85 405.242 2640.49 404.636C2641.13 404.03 2641.61 403.288 2641.94 402.409L2650.9 403C2650.44 405.152 2649.51 407.03 2648.1 408.636C2646.71 410.227 2644.91 411.47 2642.69 412.364C2640.5 413.242 2637.96 413.682 2635.08 413.682ZM2666.1 413.659C2663.87 413.659 2661.88 413.273 2660.14 412.5C2658.4 411.712 2657.02 410.553 2656.01 409.023C2655.01 407.477 2654.51 405.553 2654.51 403.25C2654.51 401.311 2654.86 399.682 2655.57 398.364C2656.29 397.045 2657.26 395.985 2658.48 395.182C2659.71 394.379 2661.1 393.773 2662.66 393.364C2664.24 392.955 2665.89 392.667 2667.62 392.5C2669.65 392.288 2671.29 392.091 2672.53 391.909C2673.77 391.712 2674.67 391.424 2675.23 391.045C2675.79 390.667 2676.07 390.106 2676.07 389.364V389.227C2676.07 387.788 2675.62 386.674 2674.71 385.886C2673.82 385.098 2672.54 384.705 2670.89 384.705C2669.15 384.705 2667.76 385.091 2666.73 385.864C2665.7 386.621 2665.02 387.576 2664.69 388.727L2655.73 388C2656.19 385.879 2657.08 384.045 2658.41 382.5C2659.75 380.939 2661.47 379.742 2663.57 378.909C2665.69 378.061 2668.15 377.636 2670.94 377.636C2672.88 377.636 2674.73 377.864 2676.51 378.318C2678.29 378.773 2679.88 379.477 2681.26 380.432C2682.65 381.386 2683.75 382.614 2684.55 384.114C2685.35 385.598 2685.76 387.379 2685.76 389.455V413H2676.57V408.159H2676.3C2675.74 409.25 2674.99 410.212 2674.05 411.045C2673.11 411.864 2671.98 412.508 2670.66 412.977C2669.35 413.432 2667.82 413.659 2666.1 413.659ZM2668.87 406.977C2670.29 406.977 2671.55 406.697 2672.64 406.136C2673.73 405.561 2674.59 404.788 2675.21 403.818C2675.83 402.848 2676.14 401.75 2676.14 400.523V396.818C2675.84 397.015 2675.42 397.197 2674.89 397.364C2674.38 397.515 2673.79 397.659 2673.14 397.795C2672.49 397.917 2671.84 398.03 2671.19 398.136C2670.54 398.227 2669.94 398.311 2669.41 398.386C2668.28 398.553 2667.29 398.818 2666.44 399.182C2665.59 399.545 2664.93 400.038 2664.46 400.659C2663.99 401.265 2663.76 402.023 2663.76 402.932C2663.76 404.25 2664.23 405.258 2665.19 405.955C2666.16 406.636 2667.38 406.977 2668.87 406.977ZM2701.67 366.455V413H2691.99V366.455H2701.67ZM2726.71 378.091V385.364H2705.69V378.091H2726.71ZM2710.46 369.727H2720.14V402.273C2720.14 403.167 2720.28 403.864 2720.55 404.364C2720.83 404.848 2721.2 405.189 2721.69 405.386C2722.19 405.583 2722.77 405.682 2723.42 405.682C2723.87 405.682 2724.33 405.644 2724.78 405.568C2725.23 405.477 2725.58 405.409 2725.83 405.364L2727.35 412.568C2726.86 412.72 2726.18 412.894 2725.3 413.091C2724.42 413.303 2723.36 413.432 2722.1 413.477C2719.77 413.568 2717.72 413.258 2715.96 412.545C2714.22 411.833 2712.86 410.727 2711.89 409.227C2710.92 407.727 2710.45 405.833 2710.46 403.545V369.727ZM2742.17 392.818V413H2732.49V366.455H2741.9V384.25H2742.31C2743.1 382.189 2744.37 380.576 2746.13 379.409C2747.88 378.227 2750.09 377.636 2752.74 377.636C2755.16 377.636 2757.28 378.167 2759.08 379.227C2760.9 380.273 2762.31 381.78 2763.31 383.75C2764.32 385.705 2764.82 388.045 2764.81 390.773V413H2755.13V392.5C2755.14 390.348 2754.6 388.674 2753.49 387.477C2752.4 386.28 2750.87 385.682 2748.9 385.682C2747.58 385.682 2746.41 385.962 2745.4 386.523C2744.4 387.083 2743.61 387.902 2743.03 388.977C2742.47 390.038 2742.19 391.318 2742.17 392.818Z" fill="#43A862"></path><path d="M2433.13 1148V1101.45H2464.49V1109.57H2442.97V1120.66H2462.88V1128.77H2442.97V1139.89H2464.58V1148H2433.13ZM2478.94 1113.09L2485.35 1125.3L2491.92 1113.09H2501.85L2491.74 1130.55L2502.13 1148H2492.24L2485.35 1135.93L2478.58 1148H2468.58L2478.94 1130.55L2468.94 1113.09H2478.94ZM2506.32 1161.09V1113.09H2515.87V1118.95H2516.3C2516.73 1118.02 2517.34 1117.06 2518.14 1116.09C2518.96 1115.11 2520.02 1114.29 2521.32 1113.64C2522.64 1112.97 2524.28 1112.64 2526.23 1112.64C2528.78 1112.64 2531.13 1113.3 2533.28 1114.64C2535.43 1115.95 2537.15 1117.95 2538.44 1120.61C2539.73 1123.27 2540.37 1126.59 2540.37 1130.59C2540.37 1134.48 2539.74 1137.77 2538.48 1140.45C2537.24 1143.12 2535.54 1145.14 2533.39 1146.52C2531.26 1147.89 2528.86 1148.57 2526.21 1148.57C2524.33 1148.57 2522.73 1148.26 2521.41 1147.64C2520.11 1147.02 2519.04 1146.23 2518.21 1145.3C2517.38 1144.34 2516.74 1143.38 2516.3 1142.41H2516.01V1161.09H2506.32ZM2515.8 1130.55C2515.8 1132.62 2516.09 1134.43 2516.66 1135.98C2517.24 1137.52 2518.07 1138.73 2519.16 1139.59C2520.26 1140.44 2521.58 1140.86 2523.14 1140.86C2524.72 1140.86 2526.05 1140.43 2527.14 1139.57C2528.23 1138.69 2529.06 1137.48 2529.62 1135.93C2530.2 1134.37 2530.48 1132.58 2530.48 1130.55C2530.48 1128.53 2530.2 1126.76 2529.64 1125.23C2529.08 1123.7 2528.26 1122.5 2527.16 1121.64C2526.07 1120.77 2524.73 1120.34 2523.14 1120.34C2521.57 1120.34 2520.23 1120.76 2519.14 1121.59C2518.07 1122.42 2517.24 1123.61 2516.66 1125.14C2516.09 1126.67 2515.8 1128.47 2515.8 1130.55ZM2555.5 1148.66C2553.27 1148.66 2551.29 1148.27 2549.54 1147.5C2547.8 1146.71 2546.42 1145.55 2545.41 1144.02C2544.41 1142.48 2543.91 1140.55 2543.91 1138.25C2543.91 1136.31 2544.26 1134.68 2544.98 1133.36C2545.69 1132.05 2546.66 1130.98 2547.88 1130.18C2549.11 1129.38 2550.51 1128.77 2552.07 1128.36C2553.64 1127.95 2555.29 1127.67 2557.02 1127.5C2559.05 1127.29 2560.69 1127.09 2561.93 1126.91C2563.17 1126.71 2564.07 1126.42 2564.63 1126.05C2565.2 1125.67 2565.48 1125.11 2565.48 1124.36V1124.23C2565.48 1122.79 2565.02 1121.67 2564.11 1120.89C2563.22 1120.1 2561.95 1119.7 2560.29 1119.7C2558.55 1119.7 2557.17 1120.09 2556.13 1120.86C2555.1 1121.62 2554.42 1122.58 2554.09 1123.73L2545.13 1123C2545.59 1120.88 2546.48 1119.05 2547.82 1117.5C2549.15 1115.94 2550.87 1114.74 2552.98 1113.91C2555.1 1113.06 2557.55 1112.64 2560.34 1112.64C2562.28 1112.64 2564.13 1112.86 2565.91 1113.32C2567.7 1113.77 2569.28 1114.48 2570.66 1115.43C2572.05 1116.39 2573.15 1117.61 2573.95 1119.11C2574.76 1120.6 2575.16 1122.38 2575.16 1124.45V1148H2565.98V1143.16H2565.7C2565.14 1144.25 2564.39 1145.21 2563.45 1146.05C2562.51 1146.86 2561.38 1147.51 2560.07 1147.98C2558.75 1148.43 2557.23 1148.66 2555.5 1148.66ZM2558.27 1141.98C2559.7 1141.98 2560.95 1141.7 2562.04 1141.14C2563.13 1140.56 2563.99 1139.79 2564.61 1138.82C2565.23 1137.85 2565.54 1136.75 2565.54 1135.52V1131.82C2565.24 1132.02 2564.82 1132.2 2564.29 1132.36C2563.78 1132.52 2563.2 1132.66 2562.54 1132.8C2561.89 1132.92 2561.24 1133.03 2560.59 1133.14C2559.94 1133.23 2559.35 1133.31 2558.82 1133.39C2557.68 1133.55 2556.69 1133.82 2555.84 1134.18C2554.99 1134.55 2554.33 1135.04 2553.86 1135.66C2553.39 1136.27 2553.16 1137.02 2553.16 1137.93C2553.16 1139.25 2553.63 1140.26 2554.59 1140.95C2555.56 1141.64 2556.79 1141.98 2558.27 1141.98ZM2591.07 1127.82V1148H2581.39V1113.09H2590.62V1119.25H2591.03C2591.8 1117.22 2593.09 1115.61 2594.91 1114.43C2596.73 1113.23 2598.93 1112.64 2601.53 1112.64C2603.95 1112.64 2606.06 1113.17 2607.87 1114.23C2609.67 1115.29 2611.07 1116.8 2612.07 1118.77C2613.07 1120.73 2613.57 1123.06 2613.57 1125.77V1148H2603.89V1127.5C2603.9 1125.36 2603.36 1123.7 2602.25 1122.5C2601.15 1121.29 2599.62 1120.68 2597.68 1120.68C2596.38 1120.68 2595.23 1120.96 2594.23 1121.52C2593.25 1122.08 2592.47 1122.9 2591.91 1123.98C2591.37 1125.04 2591.09 1126.32 2591.07 1127.82ZM2632.79 1148.57C2630.13 1148.57 2627.73 1147.89 2625.58 1146.52C2623.44 1145.14 2621.75 1143.12 2620.49 1140.45C2619.25 1137.77 2618.63 1134.48 2618.63 1130.59C2618.63 1126.59 2619.27 1123.27 2620.56 1120.61C2621.85 1117.95 2623.56 1115.95 2625.69 1114.64C2627.85 1113.3 2630.2 1112.64 2632.76 1112.64C2634.72 1112.64 2636.35 1112.97 2637.65 1113.64C2638.97 1114.29 2640.03 1115.11 2640.83 1116.09C2641.65 1117.06 2642.27 1118.02 2642.69 1118.95H2642.99V1101.45H2652.65V1148H2643.1V1142.41H2642.69C2642.24 1143.38 2641.6 1144.34 2640.76 1145.3C2639.94 1146.23 2638.88 1147.02 2637.56 1147.64C2636.25 1148.26 2634.66 1148.57 2632.79 1148.57ZM2635.85 1140.86C2637.41 1140.86 2638.73 1140.44 2639.81 1139.59C2640.9 1138.73 2641.73 1137.52 2642.31 1135.98C2642.9 1134.43 2643.19 1132.62 2643.19 1130.55C2643.19 1128.47 2642.91 1126.67 2642.33 1125.14C2641.75 1123.61 2640.92 1122.42 2639.83 1121.59C2638.74 1120.76 2637.41 1120.34 2635.85 1120.34C2634.26 1120.34 2632.92 1120.77 2631.83 1121.64C2630.74 1122.5 2629.91 1123.7 2629.35 1125.23C2628.79 1126.76 2628.51 1128.53 2628.51 1130.55C2628.51 1132.58 2628.79 1134.37 2629.35 1135.93C2629.93 1137.48 2630.75 1138.69 2631.83 1139.57C2632.92 1140.43 2634.26 1140.86 2635.85 1140.86Z" fill="#43A862"></path><path fill-rule="evenodd" clip-rule="evenodd" d="M2505.37 933.679C2505.37 931.816 2504.63 930.03 2503.31 928.713C2501.99 927.396 2500.21 926.656 2498.34 926.656C2495.48 926.656 2491.84 926.656 2488.98 926.656C2487.12 926.656 2485.33 927.396 2484.01 928.713C2482.7 930.03 2481.96 931.816 2481.96 933.679V950.064C2481.96 951.927 2482.7 953.713 2484.01 955.03C2485.33 956.347 2487.12 957.087 2488.98 957.087H2498.34C2500.21 957.087 2501.99 956.347 2503.31 955.03C2504.63 953.713 2505.37 951.927 2505.37 950.064V933.679ZM2500.68 933.679V950.064C2500.68 950.685 2500.44 951.281 2500 951.72C2499.56 952.159 2498.96 952.405 2498.34 952.405C2495.48 952.405 2491.84 952.405 2488.98 952.405C2488.36 952.405 2487.76 952.159 2487.32 951.72C2486.89 951.281 2486.64 950.685 2486.64 950.064C2486.64 945.415 2486.64 938.328 2486.64 933.679C2486.64 933.058 2486.89 932.462 2487.32 932.023C2487.76 931.584 2488.36 931.338 2488.98 931.338H2498.34C2498.96 931.338 2499.56 931.584 2500 932.023C2500.44 932.462 2500.68 933.058 2500.68 933.679Z" fill="#43A862"></path><path fill-rule="evenodd" clip-rule="evenodd" d="M2538.14 924.315C2538.14 922.453 2537.4 920.667 2536.08 919.35C2534.77 918.033 2532.98 917.293 2531.12 917.293C2528.26 917.293 2524.61 917.293 2521.75 917.293C2519.89 917.293 2518.1 918.033 2516.79 919.35C2515.47 920.667 2514.73 922.453 2514.73 924.315V950.064C2514.73 951.927 2515.47 953.713 2516.79 955.03C2518.1 956.347 2519.89 957.087 2521.75 957.087H2531.12C2532.98 957.087 2534.77 956.347 2536.08 955.03C2537.4 953.713 2538.14 951.927 2538.14 950.064V924.315ZM2533.46 924.315V950.064C2533.46 950.685 2533.21 951.281 2532.77 951.72C2532.33 952.159 2531.74 952.405 2531.12 952.405C2528.26 952.405 2524.61 952.405 2521.75 952.405C2521.13 952.405 2520.54 952.159 2520.1 951.72C2519.66 951.281 2519.41 950.685 2519.41 950.064C2519.41 943.345 2519.41 931.035 2519.41 924.315C2519.41 923.695 2519.66 923.099 2520.1 922.66C2520.54 922.221 2521.13 921.975 2521.75 921.975H2531.12C2531.74 921.975 2532.33 922.221 2532.77 922.66C2533.21 923.099 2533.46 923.695 2533.46 924.315Z" fill="#43A862"></path><path fill-rule="evenodd" clip-rule="evenodd" d="M2570.91 914.952C2570.91 911.074 2567.76 907.93 2563.89 907.93C2561.03 907.93 2557.38 907.93 2554.52 907.93C2550.64 907.93 2547.5 911.074 2547.5 914.952V950.065C2547.5 953.943 2550.64 957.087 2554.52 957.087H2563.89C2567.76 957.087 2570.91 953.943 2570.91 950.065V914.952ZM2566.23 914.952C2566.23 913.66 2565.18 912.612 2563.89 912.612C2561.03 912.612 2557.38 912.612 2554.52 912.612C2553.23 912.612 2552.18 913.66 2552.18 914.952V950.065C2552.18 951.358 2553.23 952.406 2554.52 952.406H2563.89C2565.18 952.406 2566.23 951.358 2566.23 950.065V914.952Z" fill="#43A862"></path><path fill-rule="evenodd" clip-rule="evenodd" d="M2603.68 900.907C2603.68 899.045 2602.94 897.259 2601.62 895.942C2600.31 894.625 2598.52 893.885 2596.66 893.885C2593.8 893.885 2590.16 893.885 2587.3 893.885C2585.43 893.885 2583.65 894.625 2582.33 895.942C2581.01 897.259 2580.27 899.045 2580.27 900.907V950.064C2580.27 951.927 2581.01 953.713 2582.33 955.03C2583.65 956.347 2585.43 957.087 2587.3 957.087H2596.66C2598.52 957.087 2600.31 956.347 2601.62 955.03C2602.94 953.713 2603.68 951.927 2603.68 950.064V900.907ZM2599 900.907V950.064C2599 950.685 2598.75 951.281 2598.31 951.72C2597.88 952.159 2597.28 952.405 2596.66 952.405C2593.8 952.405 2590.16 952.405 2587.3 952.405C2586.67 952.405 2586.08 952.159 2585.64 951.72C2585.2 951.281 2584.96 950.685 2584.96 950.064C2584.96 939.102 2584.96 911.87 2584.96 900.907C2584.96 900.286 2585.2 899.691 2585.64 899.252C2586.08 898.813 2586.67 898.566 2587.3 898.566H2596.66C2597.28 898.566 2597.88 898.813 2598.31 899.252C2598.75 899.691 2599 900.286 2599 900.907Z" fill="#43A862"></path><path fill-rule="evenodd" clip-rule="evenodd" d="M2567.51 858.288L2563.6 854.375C2561.52 852.292 2560.96 849.13 2562.2 846.457C2563.43 843.784 2566.21 842.168 2569.15 842.411C2576.19 842.994 2584.48 843.679 2589.28 844.076C2592.73 844.361 2595.46 847.121 2595.7 850.577C2596.04 855.336 2596.62 863.509 2597.11 870.454C2597.32 873.377 2595.69 876.123 2593.03 877.34C2590.36 878.557 2587.22 877.99 2585.14 875.917L2580.76 871.529L2561.14 891.142C2559.39 892.898 2557.01 893.885 2554.52 893.885H2520.19L2498.34 910.271C2495.24 912.598 2490.84 911.969 2488.51 908.866C2487.61 907.661 2486.61 906.326 2485.7 905.121C2483.37 902.018 2484 897.616 2487.11 895.289C2494.75 889.553 2511.45 877.031 2511.45 877.031C2513.07 875.815 2515.04 875.158 2517.07 875.158H2550.64L2567.51 858.288ZM2572.48 859.943C2573.39 859.029 2573.39 857.546 2572.48 856.633C2572.48 856.633 2569.9 854.054 2566.91 851.064C2566.22 850.37 2566.03 849.316 2566.44 848.425C2566.86 847.534 2567.78 846.995 2568.76 847.076C2575.81 847.66 2584.09 848.344 2588.89 848.742C2590.04 848.836 2590.95 849.757 2591.03 850.908C2591.37 855.668 2591.95 863.841 2592.44 870.786C2592.51 871.76 2591.97 872.675 2591.08 873.081C2590.19 873.486 2589.14 873.298 2588.45 872.607C2585.25 869.405 2582.41 866.564 2582.41 866.564C2581.5 865.649 2580.02 865.649 2579.1 866.564L2557.83 887.832C2556.95 888.71 2555.76 889.203 2554.52 889.203H2519.41C2518.9 889.203 2518.41 889.368 2518.01 889.671C2518.01 889.671 2502.78 901.092 2495.53 906.525C2494.5 907.301 2493.03 907.092 2492.26 906.057C2491.35 904.852 2490.35 903.517 2489.45 902.312C2488.67 901.277 2488.88 899.81 2489.92 899.035C2497.56 893.299 2514.26 880.776 2514.26 880.776C2515.07 880.169 2516.06 879.84 2517.07 879.84H2551.61C2552.23 879.84 2552.83 879.593 2553.27 879.154L2572.48 859.943Z" fill="#43A862"></path><path fill-rule="evenodd" clip-rule="evenodd" d="M426.175 184.868C428.706 184.192 429.733 188.036 427.203 188.713L414.487 192.12C411.957 192.797 410.928 188.952 413.459 188.275L426.175 184.868ZM406.711 183.454L423.5 166.665C425.355 164.81 422.537 161.992 420.683 163.847L403.893 180.636C402.039 182.491 404.856 185.309 406.711 183.454ZM324.625 188.713C322.094 188.037 323.122 184.191 325.653 184.868L338.369 188.275C340.9 188.952 339.871 192.797 337.341 192.12L324.625 188.713ZM347.935 180.636L331.145 163.847C329.291 161.992 326.473 164.81 328.328 166.665L345.117 183.454C346.972 185.309 349.789 182.491 347.935 180.636ZM344.254 201.668C335.178 202.681 328.119 210.054 327.391 219.074C316.888 215.233 305.602 222.998 305.602 234.318C305.602 235.418 306.494 236.31 307.594 236.31H444.234C445.334 236.31 446.227 235.418 446.227 234.318C446.227 222.981 434.91 215.231 424.437 219.074C423.708 210.054 416.649 202.681 407.574 201.668C407.046 190.224 392.794 185.237 385.22 193.812C379.391 190.832 372.438 190.832 366.608 193.812C359.034 185.236 344.782 190.225 344.254 201.668ZM348.248 201.631C348.775 194.254 357.822 190.682 363.209 195.996C360.379 198.231 358.147 201.222 356.815 204.642C354.259 202.971 351.32 201.93 348.248 201.631ZM388.619 195.996C393.883 190.805 403.042 194.083 403.58 201.631C400.508 201.93 397.57 202.97 395.013 204.642C393.683 201.227 391.447 198.226 388.619 195.996ZM362.181 156.587C361.593 154.846 361.077 153.039 360.639 151.174C355.709 153.463 352.542 158.07 351.159 163.225C350.584 165.401 347.784 165 347.312 163.232C343.775 150.03 347.19 140.137 358.999 132.915C359.617 119.78 364.37 104.943 374.618 96.1687C375.38 95.5165 376.494 95.542 377.224 96.1883C387.455 104.964 392.201 119.785 392.82 132.909C404.635 140.13 408.055 150.025 404.517 163.232C403.99 165.205 401.186 165.177 400.67 163.225C399.285 158.066 396.115 153.458 391.181 151.17C390.743 153.036 390.227 154.845 389.639 156.587C389.411 157.437 388.635 158.063 387.714 158.063H364.106C363.184 158.063 362.409 157.437 362.181 156.587ZM359.84 147.19C359.324 144.034 359.017 140.905 358.942 137.706C352.596 142.252 349.487 147.921 350.023 155.735C352.298 151.96 355.733 148.844 359.84 147.19ZM363.684 146.082C364.127 148.855 364.755 151.53 365.548 154.078H386.272C389.478 143.775 389.74 131.975 387.199 121.536C379.858 119.14 371.988 119.196 364.63 121.495C362.72 129.321 362.39 137.994 363.684 146.082ZM365.929 117.004C372.473 115.384 379.362 115.358 385.898 117.027C383.847 110.914 380.572 104.871 375.91 100.365C371.254 104.866 367.981 110.899 365.929 117.004ZM392.878 137.7C392.803 140.9 392.496 144.029 391.98 147.187C396.091 148.84 399.529 151.957 401.806 155.735C402.342 147.917 399.229 142.246 392.878 137.7ZM375.91 178.725L381.875 164.782H369.944L375.91 178.725ZM377.739 184.556C377.061 186.147 374.772 186.181 374.081 184.556L365.159 163.705C364.481 162.398 365.423 160.797 366.929 160.797L384.89 160.801C386.295 160.8 387.28 162.25 386.719 163.568L377.739 184.556ZM375.91 124.902C372.415 124.902 369.58 127.737 369.58 131.231C369.58 134.726 372.415 137.561 375.91 137.561C379.404 137.561 382.239 134.726 382.239 131.231C382.239 127.737 379.404 124.902 375.91 124.902ZM375.91 128.887C372.823 128.887 372.823 133.575 375.91 133.575C378.996 133.575 378.996 128.887 375.91 128.887ZM309.748 232.325H442.08C440.658 223.646 430.801 219.34 423.486 223.945C422.106 224.814 420.277 223.737 420.455 222.032C421.865 208.554 405.531 200.151 395.289 209.428C394.161 210.45 392.355 209.866 392.022 208.393C389.371 196.643 375.164 191.551 365.625 199.156C358.645 204.721 361.093 210.717 357.435 209.895C356.084 209.592 352.65 204.857 344.937 205.59C336.634 206.379 330.592 213.801 331.378 222.077C331.534 223.72 329.729 224.816 328.343 223.945C321.022 219.34 311.17 223.649 309.748 232.325Z" fill="#43A862"></path><defs><clipPath id="clip0_1281_843"><rect width="150" height="150" fill="white" transform="translate(1430.41 90)"></rect></clipPath></defs></svg>