<svg xmlns="http://www.w3.org/2000/svg" width="2984" height="427" viewBox="0 0 2984 427" fill="none"><path d="M1661 166L2537 166" stroke="#43A862" stroke-width="18"></path><path d="M483 166L1367 166" stroke="#43A862" stroke-width="18"></path><circle cx="317.5" cy="165.5" r="156.5" fill="#DDFEEB" stroke="#43A862" stroke-width="18"></circle><g clip-path="url(#clip0_1281_840)"><path d="M312.661 240.847H312.813C313.295 240.843 313.765 240.691 314.158 240.411C314.551 240.131 314.847 239.736 315.008 239.281C315.168 238.826 315.184 238.333 315.053 237.869C314.923 237.404 314.652 236.991 314.278 236.687C314.212 236.247 314.024 235.835 313.733 235.499C313.443 235.163 313.063 234.917 312.637 234.788C301.094 231.355 291.942 221.194 286.129 206.534C295.601 203.993 305.351 202.635 315.157 202.491V205.843C315.157 206.464 315.404 207.061 315.843 207.5C316.283 207.94 316.879 208.187 317.501 208.187C318.122 208.187 318.718 207.94 319.158 207.5C319.597 207.061 319.844 206.464 319.844 205.843V202.48C321.18 202.48 322.516 202.538 323.84 202.608C324.148 202.624 324.456 202.578 324.746 202.475C325.036 202.371 325.304 202.212 325.532 202.005C325.761 201.798 325.946 201.548 326.078 201.27C326.21 200.991 326.286 200.69 326.301 200.382C326.317 200.074 326.271 199.766 326.168 199.476C326.064 199.186 325.905 198.919 325.698 198.69C325.491 198.462 325.241 198.276 324.963 198.144C324.684 198.012 324.383 197.936 324.075 197.921C322.68 197.851 321.262 197.815 319.856 197.792V168.343H358.129C358.751 168.343 359.347 168.096 359.787 167.656C360.226 167.217 360.473 166.621 360.473 165.999C360.54 153.224 358.562 140.52 354.614 128.37C360.466 126.51 366.098 124.015 371.407 120.929C381.079 132.442 386.779 146.769 387.661 161.78C387.698 162.402 387.981 162.983 388.447 163.396C388.913 163.81 389.524 164.021 390.145 163.983C390.767 163.946 391.348 163.663 391.761 163.198C392.174 162.732 392.386 162.121 392.348 161.499C391.388 144.792 384.838 128.893 373.751 116.358L373.622 116.218C366.603 108.299 357.986 101.958 348.339 97.611C338.692 93.2641 328.234 91.0103 317.653 90.9981C307.071 90.9859 296.608 93.2156 286.951 97.5404C277.294 101.865 268.662 108.187 261.626 116.089C261.428 116.248 261.258 116.438 261.122 116.651V116.722C251.916 127.246 245.837 140.136 243.574 153.934C241.311 167.732 242.953 181.888 248.315 194.802C253.677 207.715 262.545 218.871 273.916 227.008C285.287 235.145 298.708 239.939 312.661 240.847ZM301.094 234.378C287.899 231.216 275.903 224.296 266.559 214.456C271.343 211.749 276.393 209.542 281.629 207.87C286.27 219.577 292.891 228.73 301.094 234.378ZM247.188 168.343H274.563C274.619 180.273 276.48 192.126 280.083 203.499C274.282 205.359 268.702 207.846 263.442 210.917C253.432 198.933 247.712 183.949 247.188 168.343ZM263.594 120.94C268.893 124.02 274.512 126.512 280.352 128.37C276.654 139.773 274.703 151.669 274.563 163.655H247.247C247.757 147.988 253.514 132.946 263.594 120.94ZM319.844 95.8272C331.727 97.1514 342.11 108.472 348.672 125.253C339.263 127.761 329.581 129.103 319.844 129.249V95.8272ZM315.157 129.249C305.421 129.106 295.739 127.768 286.329 125.265C292.891 108.472 303.274 97.1514 315.157 95.8272V129.249ZM315.157 133.937V163.655H279.251C279.363 152.12 281.196 140.666 284.688 129.671C294.627 132.358 304.862 133.791 315.157 133.937ZM315.157 197.804C304.805 197.954 294.513 199.407 284.524 202.128C281.079 191.195 279.301 179.806 279.251 168.343H315.157V197.804ZM355.751 163.655H319.844V133.937C330.139 133.791 340.374 132.358 350.313 129.671C353.805 140.666 355.638 152.12 355.751 163.655ZM368.266 117.378C363.429 120.092 358.323 122.299 353.032 123.964C348.743 112.843 342.754 103.89 335.723 98.1006C348.126 101.438 359.38 108.105 368.266 117.378ZM299.29 98.0889C292.258 103.855 286.27 112.843 281.946 123.952C276.68 122.29 271.598 120.091 266.782 117.39C275.653 108.109 286.895 101.434 299.29 98.0889Z" fill="#43A862"></path><path d="M336.252 219.905C336.47 220.123 336.728 220.296 337.013 220.414C337.297 220.532 337.602 220.593 337.91 220.593C338.218 220.593 338.523 220.532 338.808 220.414C339.092 220.296 339.351 220.123 339.568 219.905L371.408 188.054C371.792 187.605 371.993 187.029 371.97 186.439C371.947 185.849 371.703 185.289 371.285 184.872C370.868 184.455 370.308 184.21 369.718 184.187C369.129 184.165 368.552 184.365 368.103 184.749L336.252 216.601C335.815 217.04 335.57 217.634 335.57 218.253C335.57 218.872 335.815 219.466 336.252 219.905Z" fill="#43A862"></path><path d="M387.812 168.345C384.769 165.317 380.65 163.617 376.357 163.617C372.064 163.617 367.946 165.317 364.902 168.345L353.828 179.442C352.188 181.087 350.92 183.065 350.112 185.243C349.303 187.421 348.972 189.747 349.14 192.063C349.159 192.371 349.238 192.672 349.373 192.95C349.508 193.227 349.696 193.475 349.926 193.679C350.157 193.884 350.426 194.041 350.717 194.142C351.009 194.243 351.317 194.285 351.625 194.266C351.933 194.248 352.234 194.169 352.511 194.034C352.788 193.899 353.036 193.711 353.241 193.481C353.446 193.25 353.603 192.981 353.703 192.69C353.804 192.398 353.846 192.09 353.828 191.782C353.694 190.131 353.917 188.469 354.484 186.912C355.05 185.355 355.946 183.938 357.109 182.759L368.172 171.696C370.343 169.592 373.255 168.426 376.279 168.45C379.302 168.473 382.196 169.685 384.334 171.823C386.472 173.961 387.684 176.855 387.707 179.878C387.731 182.902 386.565 185.814 384.461 187.985L373.398 199.048C372.193 200.247 370.736 201.163 369.132 201.731C367.529 202.298 365.82 202.502 364.129 202.329C363.507 202.27 362.888 202.46 362.406 202.858C361.925 203.256 361.621 203.828 361.562 204.45C361.503 205.072 361.694 205.691 362.091 206.173C362.489 206.654 363.062 206.957 363.683 207.016C364.215 207.071 364.746 207.099 365.277 207.099C367.398 207.108 369.5 206.699 371.463 205.894C373.426 205.09 375.21 203.906 376.715 202.411L387.812 191.302C390.854 188.256 392.563 184.128 392.563 179.823C392.563 175.519 390.854 171.39 387.812 168.345Z" fill="#43A862"></path><path d="M342.989 197.583C340.767 197.496 338.551 197.868 336.478 198.674C334.406 199.481 332.521 200.705 330.942 202.27L319.844 213.356C316.8 216.4 315.09 220.529 315.09 224.834C315.09 229.14 316.8 233.269 319.844 236.313C322.889 239.357 327.018 241.068 331.323 241.068C335.628 241.068 339.757 239.357 342.801 236.313L353.829 225.204C355.429 223.591 356.674 221.661 357.481 219.537C358.289 217.414 358.641 215.144 358.516 212.876C358.484 212.254 358.205 211.671 357.743 211.254C357.28 210.838 356.671 210.622 356.049 210.655C355.428 210.687 354.845 210.966 354.428 211.428C354.012 211.891 353.796 212.5 353.829 213.122C353.917 214.735 353.666 216.349 353.09 217.859C352.515 219.369 351.629 220.742 350.489 221.887L339.426 232.95C337.255 235.054 334.343 236.22 331.319 236.196C328.296 236.172 325.403 234.961 323.264 232.823C321.126 230.684 319.915 227.791 319.891 224.768C319.867 221.744 321.033 218.832 323.137 216.661L334.258 205.61C335.381 204.495 336.721 203.622 338.194 203.046C339.668 202.469 341.244 202.201 342.825 202.258C343.446 202.28 344.051 202.054 344.506 201.63C344.961 201.206 345.229 200.618 345.251 199.997C345.272 199.375 345.046 198.77 344.622 198.315C344.198 197.86 343.611 197.593 342.989 197.571V197.583Z" fill="#43A862"></path></g><path d="M33.2529 366.455H43.0939V396.682C43.0939 400.076 42.2832 403.045 40.662 405.591C39.056 408.136 36.806 410.121 33.912 411.545C31.0181 412.955 27.6469 413.659 23.7984 413.659C19.9348 413.659 16.556 412.955 13.662 411.545C10.7681 410.121 8.5181 408.136 6.91203 405.591C5.30597 403.045 4.50294 400.076 4.50294 396.682V366.455H14.3439V395.841C14.3439 397.614 14.7302 399.189 15.5029 400.568C16.2908 401.947 17.3969 403.03 18.8211 403.818C20.2454 404.606 21.9045 405 23.7984 405C25.7075 405 27.3666 404.606 28.7757 403.818C30.1999 403.03 31.2984 401.947 32.0711 400.568C32.859 399.189 33.2529 397.614 33.2529 395.841V366.455ZM48.1377 374.568V366.455H86.365V374.568H72.115V413H62.3877V374.568H48.1377ZM91.3804 366.455H103.517L116.335 397.727H116.88L129.699 366.455H141.835V413H132.29V382.705H131.903L119.858 412.773H113.358L101.312 382.591H100.926V413H91.3804V366.455ZM191.059 388.045L182.195 388.591C182.044 387.833 181.718 387.152 181.218 386.545C180.718 385.924 180.059 385.432 179.241 385.068C178.438 384.689 177.476 384.5 176.355 384.5C174.855 384.5 173.589 384.818 172.559 385.455C171.529 386.076 171.014 386.909 171.014 387.955C171.014 388.788 171.347 389.492 172.014 390.068C172.68 390.644 173.824 391.106 175.445 391.455L181.764 392.727C185.158 393.424 187.688 394.545 189.355 396.091C191.021 397.636 191.855 399.667 191.855 402.182C191.855 404.47 191.18 406.477 189.832 408.205C188.498 409.932 186.665 411.28 184.332 412.25C182.014 413.205 179.339 413.682 176.309 413.682C171.688 413.682 168.006 412.72 165.264 410.795C162.536 408.856 160.938 406.22 160.468 402.886L169.991 402.386C170.279 403.795 170.976 404.871 172.082 405.614C173.188 406.341 174.605 406.705 176.332 406.705C178.029 406.705 179.392 406.379 180.423 405.727C181.468 405.061 181.998 404.205 182.014 403.159C181.998 402.28 181.627 401.561 180.9 401C180.173 400.424 179.052 399.985 177.536 399.682L171.491 398.477C168.082 397.795 165.544 396.614 163.877 394.932C162.226 393.25 161.4 391.106 161.4 388.5C161.4 386.258 162.006 384.326 163.218 382.705C164.445 381.083 166.165 379.833 168.377 378.955C170.605 378.076 173.211 377.636 176.195 377.636C180.605 377.636 184.074 378.568 186.605 380.432C189.15 382.295 190.635 384.833 191.059 388.045ZM215.239 378.091V385.364H194.217V378.091H215.239ZM198.989 369.727H208.671V402.273C208.671 403.167 208.807 403.864 209.08 404.364C209.353 404.848 209.732 405.189 210.217 405.386C210.717 405.583 211.292 405.682 211.944 405.682C212.398 405.682 212.853 405.644 213.307 405.568C213.762 405.477 214.111 405.409 214.353 405.364L215.876 412.568C215.391 412.72 214.709 412.894 213.83 413.091C212.951 413.303 211.883 413.432 210.626 413.477C208.292 413.568 206.247 413.258 204.489 412.545C202.747 411.833 201.391 410.727 200.421 409.227C199.451 407.727 198.974 405.833 198.989 403.545V369.727ZM230.221 413.659C227.993 413.659 226.009 413.273 224.266 412.5C222.524 411.712 221.145 410.553 220.13 409.023C219.13 407.477 218.63 405.553 218.63 403.25C218.63 401.311 218.986 399.682 219.698 398.364C220.41 397.045 221.38 395.985 222.607 395.182C223.834 394.379 225.228 393.773 226.789 393.364C228.365 392.955 230.016 392.667 231.743 392.5C233.774 392.288 235.41 392.091 236.652 391.909C237.895 391.712 238.796 391.424 239.357 391.045C239.918 390.667 240.198 390.106 240.198 389.364V389.227C240.198 387.788 239.743 386.674 238.834 385.886C237.94 385.098 236.668 384.705 235.016 384.705C233.274 384.705 231.887 385.091 230.857 385.864C229.827 386.621 229.145 387.576 228.812 388.727L219.857 388C220.312 385.879 221.206 384.045 222.539 382.5C223.872 380.939 225.592 379.742 227.698 378.909C229.819 378.061 232.274 377.636 235.062 377.636C237.001 377.636 238.857 377.864 240.63 378.318C242.418 378.773 244.001 379.477 245.38 380.432C246.774 381.386 247.872 382.614 248.675 384.114C249.478 385.598 249.88 387.379 249.88 389.455V413H240.698V408.159H240.425C239.865 409.25 239.115 410.212 238.175 411.045C237.236 411.864 236.107 412.508 234.789 412.977C233.471 413.432 231.948 413.659 230.221 413.659ZM232.993 406.977C234.418 406.977 235.675 406.697 236.766 406.136C237.857 405.561 238.713 404.788 239.334 403.818C239.956 402.848 240.266 401.75 240.266 400.523V396.818C239.963 397.015 239.546 397.197 239.016 397.364C238.501 397.515 237.918 397.659 237.266 397.795C236.615 397.917 235.963 398.03 235.312 398.136C234.66 398.227 234.069 398.311 233.539 398.386C232.402 398.553 231.41 398.818 230.562 399.182C229.713 399.545 229.054 400.038 228.584 400.659C228.115 401.265 227.88 402.023 227.88 402.932C227.88 404.25 228.357 405.258 229.312 405.955C230.281 406.636 231.509 406.977 232.993 406.977ZM265.793 392.818V413H256.111V378.091H265.338V384.25H265.747C266.52 382.22 267.816 380.614 269.634 379.432C271.452 378.235 273.657 377.636 276.247 377.636C278.672 377.636 280.785 378.167 282.588 379.227C284.391 380.288 285.793 381.803 286.793 383.773C287.793 385.727 288.293 388.061 288.293 390.773V413H278.611V392.5C278.626 390.364 278.081 388.697 276.975 387.5C275.869 386.288 274.346 385.682 272.407 385.682C271.104 385.682 269.952 385.962 268.952 386.523C267.967 387.083 267.194 387.902 266.634 388.977C266.088 390.038 265.808 391.318 265.793 392.818ZM307.507 413.568C304.856 413.568 302.454 412.886 300.303 411.523C298.166 410.144 296.469 408.121 295.212 405.455C293.969 402.773 293.348 399.485 293.348 395.591C293.348 391.591 293.992 388.265 295.28 385.614C296.568 382.947 298.28 380.955 300.416 379.636C302.568 378.303 304.924 377.636 307.485 377.636C309.439 377.636 311.068 377.97 312.371 378.636C313.689 379.288 314.75 380.106 315.553 381.091C316.371 382.061 316.992 383.015 317.416 383.955H317.712V366.455H327.371V413H317.825V407.409H317.416C316.962 408.379 316.318 409.341 315.485 410.295C314.666 411.235 313.598 412.015 312.28 412.636C310.977 413.258 309.386 413.568 307.507 413.568ZM310.575 405.864C312.136 405.864 313.454 405.439 314.53 404.591C315.621 403.727 316.454 402.523 317.03 400.977C317.621 399.432 317.916 397.621 317.916 395.545C317.916 393.47 317.628 391.667 317.053 390.136C316.477 388.606 315.644 387.424 314.553 386.591C313.462 385.758 312.136 385.341 310.575 385.341C308.985 385.341 307.644 385.773 306.553 386.636C305.462 387.5 304.636 388.697 304.075 390.227C303.515 391.758 303.235 393.53 303.235 395.545C303.235 397.576 303.515 399.371 304.075 400.932C304.651 402.477 305.477 403.689 306.553 404.568C307.644 405.432 308.985 405.864 310.575 405.864ZM344.006 413.659C341.778 413.659 339.794 413.273 338.051 412.5C336.309 411.712 334.93 410.553 333.915 409.023C332.915 407.477 332.415 405.553 332.415 403.25C332.415 401.311 332.771 399.682 333.483 398.364C334.195 397.045 335.165 395.985 336.392 395.182C337.619 394.379 339.013 393.773 340.574 393.364C342.15 392.955 343.801 392.667 345.528 392.5C347.559 392.288 349.195 392.091 350.438 391.909C351.68 391.712 352.581 391.424 353.142 391.045C353.703 390.667 353.983 390.106 353.983 389.364V389.227C353.983 387.788 353.528 386.674 352.619 385.886C351.725 385.098 350.453 384.705 348.801 384.705C347.059 384.705 345.672 385.091 344.642 385.864C343.612 386.621 342.93 387.576 342.597 388.727L333.642 388C334.097 385.879 334.991 384.045 336.324 382.5C337.657 380.939 339.377 379.742 341.483 378.909C343.604 378.061 346.059 377.636 348.847 377.636C350.786 377.636 352.642 377.864 354.415 378.318C356.203 378.773 357.786 379.477 359.165 380.432C360.559 381.386 361.657 382.614 362.46 384.114C363.263 385.598 363.665 387.379 363.665 389.455V413H354.483V408.159H354.21C353.65 409.25 352.9 410.212 351.96 411.045C351.021 411.864 349.892 412.508 348.574 412.977C347.256 413.432 345.733 413.659 344.006 413.659ZM346.778 406.977C348.203 406.977 349.46 406.697 350.551 406.136C351.642 405.561 352.498 404.788 353.119 403.818C353.741 402.848 354.051 401.75 354.051 400.523V396.818C353.748 397.015 353.331 397.197 352.801 397.364C352.286 397.515 351.703 397.659 351.051 397.795C350.4 397.917 349.748 398.03 349.097 398.136C348.445 398.227 347.854 398.311 347.324 398.386C346.188 398.553 345.195 398.818 344.347 399.182C343.498 399.545 342.839 400.038 342.369 400.659C341.9 401.265 341.665 402.023 341.665 402.932C341.665 404.25 342.142 405.258 343.097 405.955C344.066 406.636 345.294 406.977 346.778 406.977ZM369.896 413V378.091H379.283V384.182H379.646C380.283 382.015 381.351 380.379 382.851 379.273C384.351 378.152 386.078 377.591 388.033 377.591C388.517 377.591 389.04 377.621 389.601 377.682C390.161 377.742 390.654 377.826 391.078 377.932V386.523C390.623 386.386 389.995 386.265 389.192 386.159C388.389 386.053 387.654 386 386.987 386C385.563 386 384.29 386.311 383.169 386.932C382.063 387.538 381.184 388.386 380.533 389.477C379.896 390.568 379.578 391.826 379.578 393.25V413H369.896ZM406.042 413.568C403.391 413.568 400.989 412.886 398.838 411.523C396.701 410.144 395.004 408.121 393.747 405.455C392.504 402.773 391.883 399.485 391.883 395.591C391.883 391.591 392.527 388.265 393.815 385.614C395.103 382.947 396.815 380.955 398.951 379.636C401.103 378.303 403.459 377.636 406.02 377.636C407.974 377.636 409.603 377.97 410.906 378.636C412.224 379.288 413.285 380.106 414.088 381.091C414.906 382.061 415.527 383.015 415.951 383.955H416.247V366.455H425.906V413H416.36V407.409H415.951C415.497 408.379 414.853 409.341 414.02 410.295C413.201 411.235 412.133 412.015 410.815 412.636C409.512 413.258 407.921 413.568 406.042 413.568ZM409.11 405.864C410.671 405.864 411.989 405.439 413.065 404.591C414.156 403.727 414.989 402.523 415.565 400.977C416.156 399.432 416.451 397.621 416.451 395.545C416.451 393.47 416.163 391.667 415.588 390.136C415.012 388.606 414.179 387.424 413.088 386.591C411.997 385.758 410.671 385.341 409.11 385.341C407.52 385.341 406.179 385.773 405.088 386.636C403.997 387.5 403.171 388.697 402.61 390.227C402.05 391.758 401.77 393.53 401.77 395.545C401.77 397.576 402.05 399.371 402.61 400.932C403.186 402.477 404.012 403.689 405.088 404.568C406.179 405.432 407.52 405.864 409.11 405.864ZM432.586 413V378.091H442.268V413H432.586ZM437.45 373.591C436.01 373.591 434.776 373.114 433.745 372.159C432.73 371.189 432.223 370.03 432.223 368.682C432.223 367.348 432.73 366.205 433.745 365.25C434.776 364.28 436.01 363.795 437.45 363.795C438.889 363.795 440.116 364.28 441.132 365.25C442.162 366.205 442.677 367.348 442.677 368.682C442.677 370.03 442.162 371.189 441.132 372.159C440.116 373.114 438.889 373.591 437.45 373.591ZM448.562 413V407.227L465.653 386.068V385.818H449.153V378.091H477.312V384.386L461.266 405.023V405.273H477.903V413H448.562ZM493.981 413.659C491.753 413.659 489.769 413.273 488.026 412.5C486.284 411.712 484.905 410.553 483.89 409.023C482.89 407.477 482.39 405.553 482.39 403.25C482.39 401.311 482.746 399.682 483.458 398.364C484.17 397.045 485.14 395.985 486.367 395.182C487.594 394.379 488.988 393.773 490.549 393.364C492.125 392.955 493.776 392.667 495.503 392.5C497.534 392.288 499.17 392.091 500.412 391.909C501.655 391.712 502.556 391.424 503.117 391.045C503.678 390.667 503.958 390.106 503.958 389.364V389.227C503.958 387.788 503.503 386.674 502.594 385.886C501.7 385.098 500.428 384.705 498.776 384.705C497.034 384.705 495.647 385.091 494.617 385.864C493.587 386.621 492.905 387.576 492.572 388.727L483.617 388C484.072 385.879 484.966 384.045 486.299 382.5C487.632 380.939 489.352 379.742 491.458 378.909C493.579 378.061 496.034 377.636 498.822 377.636C500.761 377.636 502.617 377.864 504.39 378.318C506.178 378.773 507.761 379.477 509.14 380.432C510.534 381.386 511.632 382.614 512.435 384.114C513.238 385.598 513.64 387.379 513.64 389.455V413H504.458V408.159H504.185C503.625 409.25 502.875 410.212 501.935 411.045C500.996 411.864 499.867 412.508 498.549 412.977C497.231 413.432 495.708 413.659 493.981 413.659ZM496.753 406.977C498.178 406.977 499.435 406.697 500.526 406.136C501.617 405.561 502.473 404.788 503.094 403.818C503.716 402.848 504.026 401.75 504.026 400.523V396.818C503.723 397.015 503.306 397.197 502.776 397.364C502.261 397.515 501.678 397.659 501.026 397.795C500.375 397.917 499.723 398.03 499.072 398.136C498.42 398.227 497.829 398.311 497.299 398.386C496.162 398.553 495.17 398.818 494.322 399.182C493.473 399.545 492.814 400.038 492.344 400.659C491.875 401.265 491.64 402.023 491.64 402.932C491.64 404.25 492.117 405.258 493.072 405.955C494.041 406.636 495.269 406.977 496.753 406.977ZM538.439 378.091V385.364H517.417V378.091H538.439ZM522.189 369.727H531.871V402.273C531.871 403.167 532.007 403.864 532.28 404.364C532.553 404.848 532.932 405.189 533.417 405.386C533.917 405.583 534.492 405.682 535.144 405.682C535.598 405.682 536.053 405.644 536.507 405.568C536.962 405.477 537.31 405.409 537.553 405.364L539.076 412.568C538.591 412.72 537.909 412.894 537.03 413.091C536.151 413.303 535.083 413.432 533.826 413.477C531.492 413.568 529.447 413.258 527.689 412.545C525.947 411.833 524.591 410.727 523.621 409.227C522.651 407.727 522.174 405.833 522.189 403.545V369.727ZM543.466 413V378.091H553.148V413H543.466ZM548.33 373.591C546.89 373.591 545.656 373.114 544.625 372.159C543.61 371.189 543.103 370.03 543.103 368.682C543.103 367.348 543.61 366.205 544.625 365.25C545.656 364.28 546.89 363.795 548.33 363.795C549.769 363.795 550.996 364.28 552.012 365.25C553.042 366.205 553.557 367.348 553.557 368.682C553.557 370.03 553.042 371.189 552.012 372.159C550.996 373.114 549.769 373.591 548.33 373.591ZM575.396 413.682C571.866 413.682 568.813 412.932 566.237 411.432C563.677 409.917 561.699 407.811 560.305 405.114C558.912 402.402 558.215 399.258 558.215 395.682C558.215 392.076 558.912 388.924 560.305 386.227C561.699 383.515 563.677 381.409 566.237 379.909C568.813 378.394 571.866 377.636 575.396 377.636C578.927 377.636 581.972 378.394 584.533 379.909C587.108 381.409 589.093 383.515 590.487 386.227C591.881 388.924 592.578 392.076 592.578 395.682C592.578 399.258 591.881 402.402 590.487 405.114C589.093 407.811 587.108 409.917 584.533 411.432C581.972 412.932 578.927 413.682 575.396 413.682ZM575.442 406.182C577.048 406.182 578.389 405.727 579.465 404.818C580.54 403.894 581.351 402.636 581.896 401.045C582.457 399.455 582.737 397.644 582.737 395.614C582.737 393.583 582.457 391.773 581.896 390.182C581.351 388.591 580.54 387.333 579.465 386.409C578.389 385.485 577.048 385.023 575.442 385.023C573.821 385.023 572.457 385.485 571.351 386.409C570.26 387.333 569.434 388.591 568.874 390.182C568.328 391.773 568.055 393.583 568.055 395.614C568.055 397.644 568.328 399.455 568.874 401.045C569.434 402.636 570.26 403.894 571.351 404.818C572.457 405.727 573.821 406.182 575.442 406.182ZM607.275 392.818V413H597.594V378.091H606.821V384.25H607.23C608.003 382.22 609.298 380.614 611.116 379.432C612.935 378.235 615.139 377.636 617.73 377.636C620.154 377.636 622.268 378.167 624.071 379.227C625.874 380.288 627.275 381.803 628.275 383.773C629.275 385.727 629.775 388.061 629.775 390.773V413H620.094V392.5C620.109 390.364 619.563 388.697 618.457 387.5C617.351 386.288 615.828 385.682 613.889 385.682C612.586 385.682 611.435 385.962 610.435 386.523C609.45 387.083 608.677 387.902 608.116 388.977C607.571 390.038 607.291 391.318 607.275 392.818Z" fill="#43A862"></path><circle cx="2685.5" cy="165.5" r="156.5" fill="#DDFEEB" stroke="#43A862" stroke-width="18"></circle><path d="M2650.4 113.973V105.783C2650.4 101.834 2648.86 98.1217 2646.06 95.3293C2643.27 92.5381 2639.56 91 2635.61 91C2627.46 91 2620.83 97.6319 2620.83 105.783V113.998C2616.81 117.875 2614.31 123.309 2614.31 129.321C2614.31 135.332 2616.81 140.765 2620.83 144.642V172.684C2620.83 173.915 2621.83 174.912 2623.06 174.912C2624.29 174.912 2625.29 173.915 2625.29 172.684V147.948C2628.35 149.652 2631.87 150.626 2635.61 150.626C2637.41 150.626 2639.19 150.402 2640.92 149.959C2642.7 149.501 2644.38 148.825 2645.94 147.965V226.217C2645.94 231.911 2641.31 236.545 2635.61 236.545C2629.92 236.545 2625.29 231.911 2625.29 226.217V180.111C2625.29 178.88 2624.29 177.882 2623.06 177.882C2621.83 177.882 2620.83 178.88 2620.83 180.111V226.217C2620.83 234.368 2627.46 241 2635.61 241C2643.76 241 2650.4 234.368 2650.4 226.217V144.668C2654.46 140.751 2656.92 135.27 2656.92 129.321C2656.92 123.371 2654.46 117.89 2650.4 113.973ZM2625.29 105.783C2625.29 100.089 2629.92 95.4552 2635.61 95.4552C2638.37 95.4552 2640.96 96.5298 2642.91 98.4799C2644.87 100.431 2645.94 103.024 2645.94 105.783V110.676C2644.38 109.815 2642.7 109.139 2640.92 108.681C2639.19 108.239 2637.41 108.014 2635.61 108.014C2631.87 108.014 2628.35 108.989 2625.29 110.693V105.783ZM2639.81 145.643C2638.45 145.993 2637.04 146.171 2635.61 146.171C2626.32 146.171 2618.76 138.612 2618.76 129.321C2618.76 120.029 2626.32 112.47 2635.61 112.47C2637.04 112.47 2638.45 112.648 2639.81 112.997C2647.26 114.909 2652.46 121.622 2652.46 129.321C2652.46 137.019 2647.26 143.732 2639.81 145.643Z" fill="#43A862"></path><path d="M2700.29 174.778V153.677C2700.29 152.447 2699.3 151.449 2698.07 151.449C2696.83 151.449 2695.84 152.447 2695.84 153.677V171.481C2694.28 170.62 2692.6 169.944 2690.82 169.486C2689.09 169.043 2687.31 168.819 2685.51 168.819C2681.77 168.819 2678.25 169.794 2675.19 171.498V105.783C2675.19 100.089 2679.82 95.4552 2685.51 95.4552C2688.27 95.4552 2690.86 96.5286 2692.81 98.4799C2694.76 100.431 2695.84 103.024 2695.84 105.783V146.251C2695.84 147.481 2696.84 148.478 2698.07 148.478C2699.3 148.478 2700.29 147.481 2700.29 146.251V105.783C2700.29 101.834 2698.76 98.1217 2695.96 95.3304C2693.18 92.5381 2689.46 91 2685.51 91C2677.36 91 2670.73 97.6319 2670.73 105.783V174.804C2666.71 178.681 2664.21 184.115 2664.21 190.125C2664.21 196.136 2666.71 201.569 2670.73 205.447V226.217C2670.73 234.368 2677.36 241 2685.51 241C2693.66 241 2700.29 234.368 2700.29 226.217V205.473C2704.36 201.557 2706.82 196.075 2706.82 190.125C2706.82 184.176 2704.36 178.695 2700.29 174.778ZM2695.84 226.217C2695.84 231.911 2691.21 236.545 2685.51 236.545C2679.82 236.545 2675.18 231.911 2675.18 226.217V208.753C2678.25 210.457 2681.77 211.431 2685.51 211.431C2687.31 211.431 2689.09 211.208 2690.82 210.765C2692.6 210.307 2694.28 209.631 2695.84 208.77V226.217ZM2689.71 206.449C2688.35 206.798 2686.93 206.976 2685.51 206.976C2676.22 206.976 2668.66 199.417 2668.66 190.125C2668.66 180.834 2676.22 173.275 2685.51 173.275C2686.93 173.275 2688.35 173.452 2689.71 173.803C2697.16 175.715 2702.36 182.427 2702.36 190.125C2702.36 197.824 2697.16 204.537 2689.71 206.449Z" fill="#43A862"></path><path d="M2756.71 148.771C2756.71 142.821 2754.25 137.339 2750.19 133.422V105.783C2750.19 101.834 2748.65 98.1217 2745.86 95.3293C2743.07 92.5381 2739.36 91 2735.41 91C2727.26 91 2720.63 97.6319 2720.63 105.783V133.45C2716.61 137.327 2714.11 142.76 2714.11 148.771C2714.11 154.781 2716.61 160.215 2720.63 164.092V226.217C2720.63 234.368 2727.26 241 2735.41 241C2743.56 241 2750.19 234.368 2750.19 226.217V164.12C2754.25 160.202 2756.71 154.721 2756.71 148.771ZM2725.08 105.783C2725.08 100.089 2729.72 95.4552 2735.41 95.4552C2738.17 95.4552 2740.76 96.5298 2742.71 98.4799C2744.66 100.431 2745.74 103.024 2745.74 105.783V130.126C2744.18 129.266 2742.5 128.59 2740.72 128.133C2738.99 127.69 2737.21 127.465 2735.41 127.465C2731.66 127.465 2728.14 128.44 2725.08 130.145V105.783ZM2718.56 148.771C2718.56 139.479 2726.12 131.921 2735.41 131.921C2736.83 131.921 2738.25 132.098 2739.61 132.447C2747.06 134.359 2752.26 141.072 2752.26 148.771C2752.26 156.469 2747.06 163.182 2739.61 165.095C2738.25 165.444 2736.83 165.621 2735.41 165.621C2726.12 165.621 2718.56 158.062 2718.56 148.771ZM2745.74 226.217C2745.74 231.911 2741.1 236.545 2735.41 236.545C2729.72 236.545 2725.08 231.911 2725.08 226.217V167.398C2728.14 169.102 2731.66 170.078 2735.41 170.078C2737.21 170.078 2738.99 169.853 2740.72 169.41C2742.5 168.953 2744.18 168.276 2745.74 167.417V226.217Z" fill="#43A862"></path><path d="M2391.11 413V366.455H2421.93V374.568H2400.95V385.659H2419.88V393.773H2400.95V413H2391.11ZM2440.3 413.682C2436.77 413.682 2433.71 412.932 2431.14 411.432C2428.58 409.917 2426.6 407.811 2425.21 405.114C2423.81 402.402 2423.12 399.258 2423.12 395.682C2423.12 392.076 2423.81 388.924 2425.21 386.227C2426.6 383.515 2428.58 381.409 2431.14 379.909C2433.71 378.394 2436.77 377.636 2440.3 377.636C2443.83 377.636 2446.87 378.394 2449.43 379.909C2452.01 381.409 2453.99 383.515 2455.39 386.227C2456.78 388.924 2457.48 392.076 2457.48 395.682C2457.48 399.258 2456.78 402.402 2455.39 405.114C2453.99 407.811 2452.01 409.917 2449.43 411.432C2446.87 412.932 2443.83 413.682 2440.3 413.682ZM2440.34 406.182C2441.95 406.182 2443.29 405.727 2444.37 404.818C2445.44 403.894 2446.25 402.636 2446.8 401.045C2447.36 399.455 2447.64 397.644 2447.64 395.614C2447.64 393.583 2447.36 391.773 2446.8 390.182C2446.25 388.591 2445.44 387.333 2444.37 386.409C2443.29 385.485 2441.95 385.023 2440.34 385.023C2438.72 385.023 2437.36 385.485 2436.25 386.409C2435.16 387.333 2434.34 388.591 2433.77 390.182C2433.23 391.773 2432.96 393.583 2432.96 395.614C2432.96 397.644 2433.23 399.455 2433.77 401.045C2434.34 402.636 2435.16 403.894 2436.25 404.818C2437.36 405.727 2438.72 406.182 2440.34 406.182ZM2462.49 413V378.091H2471.88V384.182H2472.24C2472.88 382.015 2473.95 380.379 2475.45 379.273C2476.95 378.152 2478.68 377.591 2480.63 377.591C2481.12 377.591 2481.64 377.621 2482.2 377.682C2482.76 377.742 2483.25 377.826 2483.68 377.932V386.523C2483.22 386.386 2482.59 386.265 2481.79 386.159C2480.99 386.053 2480.25 386 2479.59 386C2478.16 386 2476.89 386.311 2475.77 386.932C2474.66 387.538 2473.78 388.386 2473.13 389.477C2472.49 390.568 2472.18 391.826 2472.18 393.25V413H2462.49ZM2501.69 413.682C2498.1 413.682 2495 412.955 2492.41 411.5C2489.84 410.03 2487.85 407.955 2486.46 405.273C2485.07 402.576 2484.37 399.386 2484.37 395.705C2484.37 392.114 2485.07 388.962 2486.46 386.25C2487.85 383.538 2489.82 381.424 2492.35 379.909C2494.89 378.394 2497.88 377.636 2501.3 377.636C2503.6 377.636 2505.75 378.008 2507.73 378.75C2509.73 379.477 2511.47 380.576 2512.96 382.045C2514.46 383.515 2515.63 385.364 2516.46 387.591C2517.29 389.803 2517.71 392.394 2517.71 395.364V398.023H2488.23V392.023H2508.6C2508.6 390.629 2508.29 389.394 2507.69 388.318C2507.08 387.242 2506.24 386.402 2505.16 385.795C2504.1 385.174 2502.87 384.864 2501.46 384.864C2499.99 384.864 2498.69 385.205 2497.55 385.886C2496.43 386.553 2495.55 387.455 2494.91 388.591C2494.28 389.712 2493.95 390.962 2493.94 392.341V398.045C2493.94 399.773 2494.25 401.265 2494.89 402.523C2495.54 403.78 2496.46 404.75 2497.64 405.432C2498.82 406.114 2500.22 406.455 2501.85 406.455C2502.92 406.455 2503.91 406.303 2504.8 406C2505.69 405.697 2506.46 405.242 2507.1 404.636C2507.73 404.03 2508.22 403.288 2508.55 402.409L2517.5 403C2517.05 405.152 2516.12 407.03 2514.71 408.636C2513.32 410.227 2511.51 411.47 2509.3 412.364C2507.1 413.242 2504.57 413.682 2501.69 413.682ZM2538.52 413.682C2534.94 413.682 2531.87 412.924 2529.29 411.409C2526.73 409.879 2524.76 407.758 2523.38 405.045C2522.02 402.333 2521.34 399.212 2521.34 395.682C2521.34 392.106 2522.03 388.97 2523.41 386.273C2524.8 383.561 2526.78 381.447 2529.34 379.932C2531.9 378.402 2534.94 377.636 2538.47 377.636C2541.52 377.636 2544.19 378.189 2546.47 379.295C2548.76 380.402 2550.57 381.955 2551.91 383.955C2553.24 385.955 2553.97 388.303 2554.11 391H2544.97C2544.72 389.258 2544.04 387.856 2542.93 386.795C2541.84 385.72 2540.41 385.182 2538.63 385.182C2537.13 385.182 2535.82 385.591 2534.7 386.409C2533.6 387.212 2532.73 388.386 2532.11 389.932C2531.49 391.477 2531.18 393.348 2531.18 395.545C2531.18 397.773 2531.48 399.667 2532.09 401.227C2532.71 402.788 2533.58 403.977 2534.7 404.795C2535.82 405.614 2537.13 406.023 2538.63 406.023C2539.74 406.023 2540.73 405.795 2541.61 405.341C2542.5 404.886 2543.24 404.227 2543.82 403.364C2544.41 402.485 2544.79 401.432 2544.97 400.205H2554.11C2553.96 402.871 2553.23 405.22 2551.93 407.25C2550.64 409.265 2548.86 410.841 2546.59 411.977C2544.32 413.114 2541.63 413.682 2538.52 413.682ZM2568.98 413.659C2566.76 413.659 2564.77 413.273 2563.03 412.5C2561.29 411.712 2559.91 410.553 2558.89 409.023C2557.89 407.477 2557.39 405.553 2557.39 403.25C2557.39 401.311 2557.75 399.682 2558.46 398.364C2559.17 397.045 2560.14 395.985 2561.37 395.182C2562.6 394.379 2563.99 393.773 2565.55 393.364C2567.13 392.955 2568.78 392.667 2570.51 392.5C2572.54 392.288 2574.17 392.091 2575.42 391.909C2576.66 391.712 2577.56 391.424 2578.12 391.045C2578.68 390.667 2578.96 390.106 2578.96 389.364V389.227C2578.96 387.788 2578.51 386.674 2577.6 385.886C2576.7 385.098 2575.43 384.705 2573.78 384.705C2572.04 384.705 2570.65 385.091 2569.62 385.864C2568.59 386.621 2567.91 387.576 2567.58 388.727L2558.62 388C2559.08 385.879 2559.97 384.045 2561.3 382.5C2562.64 380.939 2564.36 379.742 2566.46 378.909C2568.58 378.061 2571.04 377.636 2573.83 377.636C2575.76 377.636 2577.62 377.864 2579.39 378.318C2581.18 378.773 2582.76 379.477 2584.14 380.432C2585.54 381.386 2586.64 382.614 2587.44 384.114C2588.24 385.598 2588.64 387.379 2588.64 389.455V413H2579.46V408.159H2579.19C2578.63 409.25 2577.88 410.212 2576.94 411.045C2576 411.864 2574.87 412.508 2573.55 412.977C2572.23 413.432 2570.71 413.659 2568.98 413.659ZM2571.76 406.977C2573.18 406.977 2574.44 406.697 2575.53 406.136C2576.62 405.561 2577.48 404.788 2578.1 403.818C2578.72 402.848 2579.03 401.75 2579.03 400.523V396.818C2578.73 397.015 2578.31 397.197 2577.78 397.364C2577.26 397.515 2576.68 397.659 2576.03 397.795C2575.38 397.917 2574.73 398.03 2574.08 398.136C2573.42 398.227 2572.83 398.311 2572.3 398.386C2571.17 398.553 2570.17 398.818 2569.33 399.182C2568.48 399.545 2567.82 400.038 2567.35 400.659C2566.88 401.265 2566.64 402.023 2566.64 402.932C2566.64 404.25 2567.12 405.258 2568.08 405.955C2569.05 406.636 2570.27 406.977 2571.76 406.977ZM2623.92 388.045L2615.06 388.591C2614.91 387.833 2614.58 387.152 2614.08 386.545C2613.58 385.924 2612.92 385.432 2612.1 385.068C2611.3 384.689 2610.34 384.5 2609.22 384.5C2607.72 384.5 2606.45 384.818 2605.42 385.455C2604.39 386.076 2603.87 386.909 2603.87 387.955C2603.87 388.788 2604.21 389.492 2604.87 390.068C2605.54 390.644 2606.69 391.106 2608.31 391.455L2614.62 392.727C2618.02 393.424 2620.55 394.545 2622.22 396.091C2623.88 397.636 2624.72 399.667 2624.72 402.182C2624.72 404.47 2624.04 406.477 2622.69 408.205C2621.36 409.932 2619.53 411.28 2617.19 412.25C2614.87 413.205 2612.2 413.682 2609.17 413.682C2604.55 413.682 2600.87 412.72 2598.12 410.795C2595.4 408.856 2593.8 406.22 2593.33 402.886L2602.85 402.386C2603.14 403.795 2603.84 404.871 2604.94 405.614C2606.05 406.341 2607.47 406.705 2609.19 406.705C2610.89 406.705 2612.25 406.379 2613.28 405.727C2614.33 405.061 2614.86 404.205 2614.87 403.159C2614.86 402.28 2614.49 401.561 2613.76 401C2613.03 400.424 2611.91 399.985 2610.4 399.682L2604.35 398.477C2600.94 397.795 2598.41 396.614 2596.74 394.932C2595.09 393.25 2594.26 391.106 2594.26 388.5C2594.26 386.258 2594.87 384.326 2596.08 382.705C2597.31 381.083 2599.03 379.833 2601.24 378.955C2603.47 378.076 2606.07 377.636 2609.06 377.636C2613.47 377.636 2616.94 378.568 2619.47 380.432C2622.01 382.295 2623.5 384.833 2623.92 388.045ZM2648.1 378.091V385.364H2627.08V378.091H2648.1ZM2631.85 369.727H2641.53V402.273C2641.53 403.167 2641.67 403.864 2641.94 404.364C2642.21 404.848 2642.59 405.189 2643.08 405.386C2643.58 405.583 2644.15 405.682 2644.81 405.682C2645.26 405.682 2645.71 405.644 2646.17 405.568C2646.62 405.477 2646.97 405.409 2647.21 405.364L2648.74 412.568C2648.25 412.72 2647.57 412.894 2646.69 413.091C2645.81 413.303 2644.74 413.432 2643.49 413.477C2641.15 413.568 2639.11 413.258 2637.35 412.545C2635.61 411.833 2634.25 410.727 2633.28 409.227C2632.31 407.727 2631.84 405.833 2631.85 403.545V369.727ZM2682.43 413.682C2678.86 413.682 2675.78 412.924 2673.21 411.409C2670.64 409.879 2668.68 407.758 2667.3 405.045C2665.93 402.333 2665.25 399.212 2665.25 395.682C2665.25 392.106 2665.94 388.97 2667.32 386.273C2668.71 383.561 2670.69 381.447 2673.25 379.932C2675.81 378.402 2678.86 377.636 2682.39 377.636C2685.43 377.636 2688.1 378.189 2690.39 379.295C2692.68 380.402 2694.49 381.955 2695.82 383.955C2697.15 385.955 2697.89 388.303 2698.02 391H2688.89C2688.63 389.258 2687.95 387.856 2686.84 386.795C2685.75 385.72 2684.32 385.182 2682.55 385.182C2681.05 385.182 2679.74 385.591 2678.61 386.409C2677.51 387.212 2676.64 388.386 2676.02 389.932C2675.4 391.477 2675.09 393.348 2675.09 395.545C2675.09 397.773 2675.39 399.667 2676 401.227C2676.62 402.788 2677.49 403.977 2678.61 404.795C2679.74 405.614 2681.05 406.023 2682.55 406.023C2683.65 406.023 2684.64 405.795 2685.52 405.341C2686.42 404.886 2687.15 404.227 2687.73 403.364C2688.32 402.485 2688.71 401.432 2688.89 400.205H2698.02C2697.87 402.871 2697.14 405.22 2695.84 407.25C2694.55 409.265 2692.77 410.841 2690.5 411.977C2688.23 413.114 2685.54 413.682 2682.43 413.682ZM2712.9 413.659C2710.67 413.659 2708.68 413.273 2706.94 412.5C2705.2 411.712 2703.82 410.553 2702.81 409.023C2701.81 407.477 2701.31 405.553 2701.31 403.25C2701.31 401.311 2701.66 399.682 2702.37 398.364C2703.09 397.045 2704.06 395.985 2705.28 395.182C2706.51 394.379 2707.9 393.773 2709.47 393.364C2711.04 392.955 2712.69 392.667 2714.42 392.5C2716.45 392.288 2718.09 392.091 2719.33 391.909C2720.57 391.712 2721.47 391.424 2722.03 391.045C2722.59 390.667 2722.87 390.106 2722.87 389.364V389.227C2722.87 387.788 2722.42 386.674 2721.51 385.886C2720.62 385.098 2719.34 384.705 2717.69 384.705C2715.95 384.705 2714.56 385.091 2713.53 385.864C2712.5 386.621 2711.82 387.576 2711.49 388.727L2702.53 388C2702.99 385.879 2703.88 384.045 2705.22 382.5C2706.55 380.939 2708.27 379.742 2710.37 378.909C2712.5 378.061 2714.95 377.636 2717.74 377.636C2719.68 377.636 2721.53 377.864 2723.31 378.318C2725.09 378.773 2726.68 379.477 2728.06 380.432C2729.45 381.386 2730.55 382.614 2731.35 384.114C2732.15 385.598 2732.56 387.379 2732.56 389.455V413H2723.37V408.159H2723.1C2722.54 409.25 2721.79 410.212 2720.85 411.045C2719.91 411.864 2718.78 412.508 2717.47 412.977C2716.15 413.432 2714.62 413.659 2712.9 413.659ZM2715.67 406.977C2717.09 406.977 2718.35 406.697 2719.44 406.136C2720.53 405.561 2721.39 404.788 2722.01 403.818C2722.63 402.848 2722.94 401.75 2722.94 400.523V396.818C2722.64 397.015 2722.22 397.197 2721.69 397.364C2721.18 397.515 2720.59 397.659 2719.94 397.795C2719.29 397.917 2718.64 398.03 2717.99 398.136C2717.34 398.227 2716.75 398.311 2716.22 398.386C2715.08 398.553 2714.09 398.818 2713.24 399.182C2712.39 399.545 2711.73 400.038 2711.26 400.659C2710.79 401.265 2710.56 402.023 2710.56 402.932C2710.56 404.25 2711.03 405.258 2711.99 405.955C2712.96 406.636 2714.18 406.977 2715.67 406.977ZM2748.47 366.455V413H2738.79V366.455H2748.47ZM2754.94 413V378.091H2764.63V413H2754.94ZM2759.81 373.591C2758.37 373.591 2757.13 373.114 2756.1 372.159C2755.09 371.189 2754.58 370.03 2754.58 368.682C2754.58 367.348 2755.09 366.205 2756.1 365.25C2757.13 364.28 2758.37 363.795 2759.81 363.795C2761.25 363.795 2762.48 364.28 2763.49 365.25C2764.52 366.205 2765.04 367.348 2765.04 368.682C2765.04 370.03 2764.52 371.189 2763.49 372.159C2762.48 373.114 2761.25 373.591 2759.81 373.591ZM2771.28 413V366.455H2780.97V383.955H2781.26C2781.69 383.015 2782.3 382.061 2783.1 381.091C2783.92 380.106 2784.98 379.288 2786.28 378.636C2787.6 377.97 2789.24 377.636 2791.19 377.636C2793.74 377.636 2796.09 378.303 2798.24 379.636C2800.39 380.955 2802.11 382.947 2803.4 385.614C2804.69 388.265 2805.33 391.591 2805.33 395.591C2805.33 399.485 2804.7 402.773 2803.44 405.455C2802.2 408.121 2800.5 410.144 2798.35 411.523C2796.22 412.886 2793.82 413.568 2791.17 413.568C2789.29 413.568 2787.69 413.258 2786.38 412.636C2785.07 412.015 2784 411.235 2783.17 410.295C2782.34 409.341 2781.7 408.379 2781.26 407.409H2780.83V413H2771.28ZM2780.76 395.545C2780.76 397.621 2781.05 399.432 2781.63 400.977C2782.2 402.523 2783.03 403.727 2784.13 404.591C2785.22 405.439 2786.54 405.864 2788.1 405.864C2789.68 405.864 2791.01 405.432 2792.1 404.568C2793.19 403.689 2794.02 402.477 2794.58 400.932C2795.16 399.371 2795.44 397.576 2795.44 395.545C2795.44 393.53 2795.16 391.758 2794.6 390.227C2794.04 388.697 2793.22 387.5 2792.13 386.636C2791.03 385.773 2789.69 385.341 2788.1 385.341C2786.53 385.341 2785.19 385.758 2784.1 386.591C2783.03 387.424 2782.2 388.606 2781.63 390.136C2781.05 391.667 2780.76 393.47 2780.76 395.545ZM2810.51 413V378.091H2819.9V384.182H2820.26C2820.9 382.015 2821.96 380.379 2823.46 379.273C2824.96 378.152 2826.69 377.591 2828.65 377.591C2829.13 377.591 2829.65 377.621 2830.21 377.682C2830.78 377.742 2831.27 377.826 2831.69 377.932V386.523C2831.24 386.386 2830.61 386.265 2829.81 386.159C2829 386.053 2828.27 386 2827.6 386C2826.18 386 2824.9 386.311 2823.78 386.932C2822.68 387.538 2821.8 388.386 2821.15 389.477C2820.51 390.568 2820.19 391.826 2820.19 393.25V413H2810.51ZM2844.37 413.659C2842.14 413.659 2840.16 413.273 2838.42 412.5C2836.67 411.712 2835.3 410.553 2834.28 409.023C2833.28 407.477 2832.78 405.553 2832.78 403.25C2832.78 401.311 2833.14 399.682 2833.85 398.364C2834.56 397.045 2835.53 395.985 2836.76 395.182C2837.99 394.379 2839.38 393.773 2840.94 393.364C2842.52 392.955 2844.17 392.667 2845.89 392.5C2847.92 392.288 2849.56 392.091 2850.8 391.909C2852.05 391.712 2852.95 391.424 2853.51 391.045C2854.07 390.667 2854.35 390.106 2854.35 389.364V389.227C2854.35 387.788 2853.89 386.674 2852.99 385.886C2852.09 385.098 2850.82 384.705 2849.17 384.705C2847.42 384.705 2846.04 385.091 2845.01 385.864C2843.98 386.621 2843.3 387.576 2842.96 388.727L2834.01 388C2834.46 385.879 2835.36 384.045 2836.69 382.5C2838.02 380.939 2839.74 379.742 2841.85 378.909C2843.97 378.061 2846.42 377.636 2849.21 377.636C2851.15 377.636 2853.01 377.864 2854.78 378.318C2856.57 378.773 2858.15 379.477 2859.53 380.432C2860.92 381.386 2862.02 382.614 2862.83 384.114C2863.63 385.598 2864.03 387.379 2864.03 389.455V413H2854.85V408.159H2854.58C2854.02 409.25 2853.27 410.212 2852.33 411.045C2851.39 411.864 2850.26 412.508 2848.94 412.977C2847.62 413.432 2846.1 413.659 2844.37 413.659ZM2847.14 406.977C2848.57 406.977 2849.83 406.697 2850.92 406.136C2852.01 405.561 2852.86 404.788 2853.49 403.818C2854.11 402.848 2854.42 401.75 2854.42 400.523V396.818C2854.11 397.015 2853.7 397.197 2853.17 397.364C2852.65 397.515 2852.07 397.659 2851.42 397.795C2850.77 397.917 2850.11 398.03 2849.46 398.136C2848.81 398.227 2848.22 398.311 2847.69 398.386C2846.55 398.553 2845.56 398.818 2844.71 399.182C2843.86 399.545 2843.21 400.038 2842.74 400.659C2842.27 401.265 2842.03 402.023 2842.03 402.932C2842.03 404.25 2842.51 405.258 2843.46 405.955C2844.43 406.636 2845.66 406.977 2847.14 406.977ZM2888.83 378.091V385.364H2867.81V378.091H2888.83ZM2872.58 369.727H2882.26V402.273C2882.26 403.167 2882.4 403.864 2882.67 404.364C2882.94 404.848 2883.32 405.189 2883.81 405.386C2884.31 405.583 2884.88 405.682 2885.54 405.682C2885.99 405.682 2886.44 405.644 2886.9 405.568C2887.35 405.477 2887.7 405.409 2887.94 405.364L2889.47 412.568C2888.98 412.72 2888.3 412.894 2887.42 413.091C2886.54 413.303 2885.47 413.432 2884.22 413.477C2881.88 413.568 2879.84 413.258 2878.08 412.545C2876.34 411.833 2874.98 410.727 2874.01 409.227C2873.04 407.727 2872.57 405.833 2872.58 403.545V369.727ZM2893.86 413V378.091H2903.54V413H2893.86ZM2898.72 373.591C2897.28 373.591 2896.05 373.114 2895.02 372.159C2894 371.189 2893.49 370.03 2893.49 368.682C2893.49 367.348 2894 366.205 2895.02 365.25C2896.05 364.28 2897.28 363.795 2898.72 363.795C2900.16 363.795 2901.39 364.28 2902.4 365.25C2903.43 366.205 2903.95 367.348 2903.95 368.682C2903.95 370.03 2903.43 371.189 2902.4 372.159C2901.39 373.114 2900.16 373.591 2898.72 373.591ZM2925.79 413.682C2922.26 413.682 2919.2 412.932 2916.63 411.432C2914.07 409.917 2912.09 407.811 2910.7 405.114C2909.3 402.402 2908.61 399.258 2908.61 395.682C2908.61 392.076 2909.3 388.924 2910.7 386.227C2912.09 383.515 2914.07 381.409 2916.63 379.909C2919.2 378.394 2922.26 377.636 2925.79 377.636C2929.32 377.636 2932.36 378.394 2934.92 379.909C2937.5 381.409 2939.48 383.515 2940.88 386.227C2942.27 388.924 2942.97 392.076 2942.97 395.682C2942.97 399.258 2942.27 402.402 2940.88 405.114C2939.48 407.811 2937.5 409.917 2934.92 411.432C2932.36 412.932 2929.32 413.682 2925.79 413.682ZM2925.83 406.182C2927.44 406.182 2928.78 405.727 2929.86 404.818C2930.93 403.894 2931.74 402.636 2932.29 401.045C2932.85 399.455 2933.13 397.644 2933.13 395.614C2933.13 393.583 2932.85 391.773 2932.29 390.182C2931.74 388.591 2930.93 387.333 2929.86 386.409C2928.78 385.485 2927.44 385.023 2925.83 385.023C2924.21 385.023 2922.85 385.485 2921.74 386.409C2920.65 387.333 2919.83 388.591 2919.26 390.182C2918.72 391.773 2918.45 393.583 2918.45 395.614C2918.45 397.644 2918.72 399.455 2919.26 401.045C2919.83 402.636 2920.65 403.894 2921.74 404.818C2922.85 405.727 2924.21 406.182 2925.83 406.182ZM2957.67 392.818V413H2947.98V378.091H2957.21V384.25H2957.62C2958.39 382.22 2959.69 380.614 2961.51 379.432C2963.33 378.235 2965.53 377.636 2968.12 377.636C2970.55 377.636 2972.66 378.167 2974.46 379.227C2976.27 380.288 2977.67 381.803 2978.67 383.773C2979.67 385.727 2980.17 388.061 2980.17 390.773V413H2970.48V392.5C2970.5 390.364 2969.95 388.697 2968.85 387.5C2967.74 386.288 2966.22 385.682 2964.28 385.682C2962.98 385.682 2961.83 385.962 2960.83 386.523C2959.84 387.083 2959.07 387.902 2958.51 388.977C2957.96 390.038 2957.68 391.318 2957.67 392.818Z" fill="#43A862"></path><circle cx="1511.5" cy="165.5" r="156.5" fill="#DDFEEB" stroke="#43A862" stroke-width="18"></circle><path d="M1252.46 382.75H1242.51C1242.33 381.462 1241.95 380.318 1241.39 379.318C1240.83 378.303 1240.11 377.439 1239.24 376.727C1238.36 376.015 1237.34 375.47 1236.19 375.091C1235.05 374.712 1233.82 374.523 1232.49 374.523C1230.08 374.523 1227.98 375.121 1226.19 376.318C1224.4 377.5 1223.02 379.227 1222.03 381.5C1221.05 383.758 1220.55 386.5 1220.55 389.727C1220.55 393.045 1221.05 395.833 1222.03 398.091C1223.03 400.348 1224.42 402.053 1226.21 403.205C1228 404.356 1230.07 404.932 1232.42 404.932C1233.74 404.932 1234.95 404.758 1236.08 404.409C1237.21 404.061 1238.22 403.553 1239.1 402.886C1239.98 402.205 1240.7 401.379 1241.28 400.409C1241.87 399.439 1242.28 398.333 1242.51 397.091L1252.46 397.136C1252.2 399.273 1251.56 401.333 1250.53 403.318C1249.52 405.288 1248.14 407.053 1246.42 408.614C1244.7 410.159 1242.66 411.386 1240.28 412.295C1237.92 413.189 1235.24 413.636 1232.26 413.636C1228.11 413.636 1224.39 412.697 1221.12 410.818C1217.86 408.939 1215.29 406.22 1213.39 402.659C1211.52 399.098 1210.58 394.788 1210.58 389.727C1210.58 384.652 1211.53 380.333 1213.44 376.773C1215.35 373.212 1217.94 370.5 1221.21 368.636C1224.49 366.758 1228.17 365.818 1232.26 365.818C1234.95 365.818 1237.45 366.197 1239.76 366.955C1242.08 367.712 1244.13 368.818 1245.92 370.273C1247.7 371.712 1249.16 373.477 1250.28 375.568C1251.42 377.659 1252.14 380.053 1252.46 382.75ZM1268.01 413.659C1265.78 413.659 1263.8 413.273 1262.06 412.5C1260.31 411.712 1258.94 410.553 1257.92 409.023C1256.92 407.477 1256.42 405.553 1256.42 403.25C1256.42 401.311 1256.78 399.682 1257.49 398.364C1258.2 397.045 1259.17 395.985 1260.4 395.182C1261.63 394.379 1263.02 393.773 1264.58 393.364C1266.16 392.955 1267.81 392.667 1269.53 392.5C1271.56 392.288 1273.2 392.091 1274.44 391.909C1275.69 391.712 1276.59 391.424 1277.15 391.045C1277.71 390.667 1277.99 390.106 1277.99 389.364V389.227C1277.99 387.788 1277.53 386.674 1276.63 385.886C1275.73 385.098 1274.46 384.705 1272.81 384.705C1271.06 384.705 1269.68 385.091 1268.65 385.864C1267.62 386.621 1266.94 387.576 1266.6 388.727L1257.65 388C1258.1 385.879 1259 384.045 1260.33 382.5C1261.66 380.939 1263.38 379.742 1265.49 378.909C1267.61 378.061 1270.06 377.636 1272.85 377.636C1274.79 377.636 1276.65 377.864 1278.42 378.318C1280.21 378.773 1281.79 379.477 1283.17 380.432C1284.56 381.386 1285.66 382.614 1286.47 384.114C1287.27 385.598 1287.67 387.379 1287.67 389.455V413H1278.49V408.159H1278.22C1277.66 409.25 1276.91 410.212 1275.97 411.045C1275.03 411.864 1273.9 412.508 1272.58 412.977C1271.26 413.432 1269.74 413.659 1268.01 413.659ZM1270.78 406.977C1272.21 406.977 1273.47 406.697 1274.56 406.136C1275.65 405.561 1276.5 404.788 1277.13 403.818C1277.75 402.848 1278.06 401.75 1278.06 400.523V396.818C1277.75 397.015 1277.34 397.197 1276.81 397.364C1276.29 397.515 1275.71 397.659 1275.06 397.795C1274.41 397.917 1273.75 398.03 1273.1 398.136C1272.45 398.227 1271.86 398.311 1271.33 398.386C1270.19 398.553 1269.2 398.818 1268.35 399.182C1267.5 399.545 1266.85 400.038 1266.38 400.659C1265.91 401.265 1265.67 402.023 1265.67 402.932C1265.67 404.25 1266.15 405.258 1267.1 405.955C1268.07 406.636 1269.3 406.977 1270.78 406.977ZM1293.9 413V378.091H1303.13V384.25H1303.54C1304.27 382.205 1305.48 380.591 1307.18 379.409C1308.87 378.227 1310.9 377.636 1313.27 377.636C1315.66 377.636 1317.7 378.235 1319.38 379.432C1321.06 380.614 1322.18 382.22 1322.74 384.25H1323.11C1323.82 382.25 1325.11 380.652 1326.97 379.455C1328.85 378.242 1331.07 377.636 1333.63 377.636C1336.89 377.636 1339.53 378.674 1341.56 380.75C1343.61 382.811 1344.63 385.735 1344.63 389.523V413H1334.97V391.432C1334.97 389.492 1334.46 388.038 1333.43 387.068C1332.39 386.098 1331.11 385.614 1329.56 385.614C1327.8 385.614 1326.43 386.174 1325.45 387.295C1324.46 388.402 1323.97 389.864 1323.97 391.682V413H1314.58V391.227C1314.58 389.515 1314.09 388.152 1313.11 387.136C1312.14 386.121 1310.86 385.614 1309.27 385.614C1308.19 385.614 1307.22 385.886 1306.36 386.432C1305.51 386.962 1304.83 387.712 1304.33 388.682C1303.83 389.636 1303.58 390.758 1303.58 392.045V413H1293.9ZM1351 426.091V378.091H1360.54V383.955H1360.97C1361.4 383.015 1362.01 382.061 1362.82 381.091C1363.63 380.106 1364.69 379.288 1366 378.636C1367.32 377.97 1368.95 377.636 1370.91 377.636C1373.45 377.636 1375.8 378.303 1377.95 379.636C1380.1 380.955 1381.82 382.947 1383.11 385.614C1384.4 388.265 1385.04 391.591 1385.04 395.591C1385.04 399.485 1384.41 402.773 1383.16 405.455C1381.91 408.121 1380.22 410.144 1378.07 411.523C1375.93 412.886 1373.54 413.568 1370.88 413.568C1369 413.568 1367.41 413.258 1366.09 412.636C1364.79 412.015 1363.72 411.235 1362.88 410.295C1362.05 409.341 1361.41 408.379 1360.97 407.409H1360.68V426.091H1351ZM1360.47 395.545C1360.47 397.621 1360.76 399.432 1361.34 400.977C1361.91 402.523 1362.75 403.727 1363.84 404.591C1364.93 405.439 1366.25 405.864 1367.82 405.864C1369.39 405.864 1370.72 405.432 1371.82 404.568C1372.91 403.689 1373.73 402.477 1374.29 400.932C1374.87 399.371 1375.16 397.576 1375.16 395.545C1375.16 393.53 1374.88 391.758 1374.32 390.227C1373.75 388.697 1372.93 387.5 1371.84 386.636C1370.75 385.773 1369.41 385.341 1367.82 385.341C1366.24 385.341 1364.91 385.758 1363.82 386.591C1362.74 387.424 1361.91 388.606 1361.34 390.136C1360.76 391.667 1360.47 393.47 1360.47 395.545ZM1400.17 413.659C1397.94 413.659 1395.96 413.273 1394.22 412.5C1392.47 411.712 1391.1 410.553 1390.08 409.023C1389.08 407.477 1388.58 405.553 1388.58 403.25C1388.58 401.311 1388.94 399.682 1389.65 398.364C1390.36 397.045 1391.33 395.985 1392.56 395.182C1393.79 394.379 1395.18 393.773 1396.74 393.364C1398.32 392.955 1399.97 392.667 1401.69 392.5C1403.72 392.288 1405.36 392.091 1406.6 391.909C1407.85 391.712 1408.75 391.424 1409.31 391.045C1409.87 390.667 1410.15 390.106 1410.15 389.364V389.227C1410.15 387.788 1409.69 386.674 1408.79 385.886C1407.89 385.098 1406.62 384.705 1404.97 384.705C1403.22 384.705 1401.84 385.091 1400.81 385.864C1399.78 386.621 1399.1 387.576 1398.76 388.727L1389.81 388C1390.26 385.879 1391.16 384.045 1392.49 382.5C1393.82 380.939 1395.54 379.742 1397.65 378.909C1399.77 378.061 1402.22 377.636 1405.01 377.636C1406.95 377.636 1408.81 377.864 1410.58 378.318C1412.37 378.773 1413.95 379.477 1415.33 380.432C1416.72 381.386 1417.82 382.614 1418.63 384.114C1419.43 385.598 1419.83 387.379 1419.83 389.455V413H1410.65V408.159H1410.38C1409.82 409.25 1409.07 410.212 1408.13 411.045C1407.19 411.864 1406.06 412.508 1404.74 412.977C1403.42 413.432 1401.9 413.659 1400.17 413.659ZM1402.94 406.977C1404.37 406.977 1405.63 406.697 1406.72 406.136C1407.81 405.561 1408.66 404.788 1409.29 403.818C1409.91 402.848 1410.22 401.75 1410.22 400.523V396.818C1409.91 397.015 1409.5 397.197 1408.97 397.364C1408.45 397.515 1407.87 397.659 1407.22 397.795C1406.57 397.917 1405.91 398.03 1405.26 398.136C1404.61 398.227 1404.02 398.311 1403.49 398.386C1402.35 398.553 1401.36 398.818 1400.51 399.182C1399.66 399.545 1399.01 400.038 1398.54 400.659C1398.07 401.265 1397.83 402.023 1397.83 402.932C1397.83 404.25 1398.31 405.258 1399.26 405.955C1400.23 406.636 1401.46 406.977 1402.94 406.977ZM1426.06 413V378.091H1435.74V413H1426.06ZM1430.93 373.591C1429.49 373.591 1428.25 373.114 1427.22 372.159C1426.21 371.189 1425.7 370.03 1425.7 368.682C1425.7 367.348 1426.21 366.205 1427.22 365.25C1428.25 364.28 1429.49 363.795 1430.93 363.795C1432.37 363.795 1433.59 364.28 1434.61 365.25C1435.64 366.205 1436.15 367.348 1436.15 368.682C1436.15 370.03 1435.64 371.189 1434.61 372.159C1433.59 373.114 1432.37 373.591 1430.93 373.591ZM1457.95 426.818C1454.81 426.818 1452.12 426.386 1449.88 425.523C1447.65 424.674 1445.88 423.515 1444.56 422.045C1443.24 420.576 1442.39 418.924 1441.99 417.091L1450.95 415.886C1451.22 416.583 1451.65 417.235 1452.24 417.841C1452.83 418.447 1453.61 418.932 1454.58 419.295C1455.57 419.674 1456.77 419.864 1458.17 419.864C1460.28 419.864 1462.02 419.348 1463.38 418.318C1464.76 417.303 1465.45 415.598 1465.45 413.205V406.818H1465.04C1464.61 407.788 1463.98 408.705 1463.13 409.568C1462.28 410.432 1461.19 411.136 1459.86 411.682C1458.52 412.227 1456.93 412.5 1455.08 412.5C1452.46 412.5 1450.08 411.894 1447.92 410.682C1445.79 409.455 1444.08 407.583 1442.81 405.068C1441.55 402.538 1440.92 399.341 1440.92 395.477C1440.92 391.523 1441.57 388.22 1442.86 385.568C1444.14 382.917 1445.86 380.932 1447.99 379.614C1450.14 378.295 1452.5 377.636 1455.06 377.636C1457.02 377.636 1458.65 377.97 1459.97 378.636C1461.29 379.288 1462.35 380.106 1463.15 381.091C1463.97 382.061 1464.6 383.015 1465.04 383.955H1465.4V378.091H1475.02V413.341C1475.02 416.311 1474.29 418.795 1472.83 420.795C1471.38 422.795 1469.36 424.295 1466.79 425.295C1464.23 426.311 1461.28 426.818 1457.95 426.818ZM1458.15 405.227C1459.71 405.227 1461.03 404.841 1462.11 404.068C1463.2 403.28 1464.03 402.159 1464.61 400.705C1465.2 399.235 1465.49 397.477 1465.49 395.432C1465.49 393.386 1465.2 391.614 1464.63 390.114C1464.05 388.598 1463.22 387.424 1462.13 386.591C1461.04 385.758 1459.71 385.341 1458.15 385.341C1456.56 385.341 1455.22 385.773 1454.13 386.636C1453.04 387.485 1452.21 388.667 1451.65 390.182C1451.09 391.697 1450.81 393.447 1450.81 395.432C1450.81 397.447 1451.09 399.189 1451.65 400.659C1452.23 402.114 1453.05 403.242 1454.13 404.045C1455.22 404.833 1456.56 405.227 1458.15 405.227ZM1491.12 392.818V413H1481.44V378.091H1490.67V384.25H1491.08C1491.85 382.22 1493.14 380.614 1494.96 379.432C1496.78 378.235 1498.99 377.636 1501.58 377.636C1504 377.636 1506.11 378.167 1507.92 379.227C1509.72 380.288 1511.12 381.803 1512.12 383.773C1513.12 385.727 1513.62 388.061 1513.62 390.773V413H1503.94V392.5C1503.96 390.364 1503.41 388.697 1502.3 387.5C1501.2 386.288 1499.67 385.682 1497.74 385.682C1496.43 385.682 1495.28 385.962 1494.28 386.523C1493.3 387.083 1492.52 387.902 1491.96 388.977C1491.42 390.038 1491.14 391.318 1491.12 392.818ZM1543.19 392.818V413H1533.5V366.455H1542.91V384.25H1543.32C1544.11 382.189 1545.38 380.576 1547.14 379.409C1548.9 378.227 1551.1 377.636 1553.75 377.636C1556.18 377.636 1558.29 378.167 1560.1 379.227C1561.91 380.273 1563.32 381.78 1564.32 383.75C1565.34 385.705 1565.84 388.045 1565.82 390.773V413H1556.14V392.5C1556.16 390.348 1555.61 388.674 1554.5 387.477C1553.41 386.28 1551.88 385.682 1549.91 385.682C1548.6 385.682 1547.43 385.962 1546.41 386.523C1545.41 387.083 1544.63 387.902 1544.05 388.977C1543.49 390.038 1543.2 391.318 1543.19 392.818ZM1572.16 413V378.091H1581.84V413H1572.16ZM1577.03 373.591C1575.59 373.591 1574.35 373.114 1573.32 372.159C1572.31 371.189 1571.8 370.03 1571.8 368.682C1571.8 367.348 1572.31 366.205 1573.32 365.25C1574.35 364.28 1575.59 363.795 1577.03 363.795C1578.47 363.795 1579.69 364.28 1580.71 365.25C1581.74 366.205 1582.25 367.348 1582.25 368.682C1582.25 370.03 1581.74 371.189 1580.71 372.159C1579.69 373.114 1578.47 373.591 1577.03 373.591ZM1604.23 413.682C1600.64 413.682 1597.55 412.955 1594.96 411.5C1592.38 410.03 1590.4 407.955 1589 405.273C1587.61 402.576 1586.91 399.386 1586.91 395.705C1586.91 392.114 1587.61 388.962 1589 386.25C1590.4 383.538 1592.36 381.424 1594.89 379.909C1597.43 378.394 1600.42 377.636 1603.84 377.636C1606.15 377.636 1608.29 378.008 1610.27 378.75C1612.27 379.477 1614.02 380.576 1615.5 382.045C1617 383.515 1618.17 385.364 1619 387.591C1619.84 389.803 1620.25 392.394 1620.25 395.364V398.023H1590.77V392.023H1611.14C1611.14 390.629 1610.84 389.394 1610.23 388.318C1609.62 387.242 1608.78 386.402 1607.71 385.795C1606.65 385.174 1605.41 384.864 1604 384.864C1602.53 384.864 1601.23 385.205 1600.09 385.886C1598.97 386.553 1598.09 387.455 1597.46 388.591C1596.82 389.712 1596.49 390.962 1596.48 392.341V398.045C1596.48 399.773 1596.8 401.265 1597.43 402.523C1598.09 403.78 1599 404.75 1600.18 405.432C1601.37 406.114 1602.77 406.455 1604.39 406.455C1605.46 406.455 1606.45 406.303 1607.34 406C1608.24 405.697 1609 405.242 1609.64 404.636C1610.27 404.03 1610.76 403.288 1611.09 402.409L1620.05 403C1619.59 405.152 1618.66 407.03 1617.25 408.636C1615.86 410.227 1614.05 411.47 1611.84 412.364C1609.65 413.242 1607.11 413.682 1604.23 413.682ZM1625.29 413V378.091H1634.68V384.182H1635.04C1635.68 382.015 1636.74 380.379 1638.24 379.273C1639.74 378.152 1641.47 377.591 1643.43 377.591C1643.91 377.591 1644.43 377.621 1644.99 377.682C1645.56 377.742 1646.05 377.826 1646.47 377.932V386.523C1646.02 386.386 1645.39 386.265 1644.59 386.159C1643.78 386.053 1643.05 386 1642.38 386C1640.96 386 1639.68 386.311 1638.56 386.932C1637.46 387.538 1636.58 388.386 1635.93 389.477C1635.29 390.568 1634.97 391.826 1634.97 393.25V413H1625.29ZM1659.15 413.659C1656.92 413.659 1654.94 413.273 1653.2 412.5C1651.45 411.712 1650.08 410.553 1649.06 409.023C1648.06 407.477 1647.56 405.553 1647.56 403.25C1647.56 401.311 1647.92 399.682 1648.63 398.364C1649.34 397.045 1650.31 395.985 1651.54 395.182C1652.77 394.379 1654.16 393.773 1655.72 393.364C1657.3 392.955 1658.95 392.667 1660.67 392.5C1662.7 392.288 1664.34 392.091 1665.58 391.909C1666.83 391.712 1667.73 391.424 1668.29 391.045C1668.85 390.667 1669.13 390.106 1669.13 389.364V389.227C1669.13 387.788 1668.67 386.674 1667.77 385.886C1666.87 385.098 1665.6 384.705 1663.95 384.705C1662.2 384.705 1660.82 385.091 1659.79 385.864C1658.76 386.621 1658.08 387.576 1657.74 388.727L1648.79 388C1649.24 385.879 1650.14 384.045 1651.47 382.5C1652.8 380.939 1654.52 379.742 1656.63 378.909C1658.75 378.061 1661.2 377.636 1663.99 377.636C1665.93 377.636 1667.79 377.864 1669.56 378.318C1671.35 378.773 1672.93 379.477 1674.31 380.432C1675.7 381.386 1676.8 382.614 1677.61 384.114C1678.41 385.598 1678.81 387.379 1678.81 389.455V413H1669.63V408.159H1669.36C1668.8 409.25 1668.05 410.212 1667.11 411.045C1666.17 411.864 1665.04 412.508 1663.72 412.977C1662.4 413.432 1660.88 413.659 1659.15 413.659ZM1661.92 406.977C1663.35 406.977 1664.61 406.697 1665.7 406.136C1666.79 405.561 1667.64 404.788 1668.27 403.818C1668.89 402.848 1669.2 401.75 1669.2 400.523V396.818C1668.89 397.015 1668.48 397.197 1667.95 397.364C1667.43 397.515 1666.85 397.659 1666.2 397.795C1665.55 397.917 1664.89 398.03 1664.24 398.136C1663.59 398.227 1663 398.311 1662.47 398.386C1661.33 398.553 1660.34 398.818 1659.49 399.182C1658.64 399.545 1657.99 400.038 1657.52 400.659C1657.05 401.265 1656.81 402.023 1656.81 402.932C1656.81 404.25 1657.29 405.258 1658.24 405.955C1659.21 406.636 1660.44 406.977 1661.92 406.977ZM1685.04 413V378.091H1694.43V384.182H1694.79C1695.43 382.015 1696.5 380.379 1698 379.273C1699.5 378.152 1701.22 377.591 1703.18 377.591C1703.66 377.591 1704.19 377.621 1704.75 377.682C1705.31 377.742 1705.8 377.826 1706.22 377.932V386.523C1705.77 386.386 1705.14 386.265 1704.34 386.159C1703.53 386.053 1702.8 386 1702.13 386C1700.71 386 1699.44 386.311 1698.32 386.932C1697.21 387.538 1696.33 388.386 1695.68 389.477C1695.04 390.568 1694.72 391.826 1694.72 393.25V413H1685.04ZM1724.1 413.682C1720.52 413.682 1717.45 412.924 1714.87 411.409C1712.31 409.879 1710.34 407.758 1708.96 405.045C1707.6 402.333 1706.92 399.212 1706.92 395.682C1706.92 392.106 1707.61 388.97 1708.98 386.273C1710.38 383.561 1712.36 381.447 1714.92 379.932C1717.48 378.402 1720.52 377.636 1724.05 377.636C1727.1 377.636 1729.76 378.189 1732.05 379.295C1734.34 380.402 1736.15 381.955 1737.48 383.955C1738.82 385.955 1739.55 388.303 1739.69 391H1730.55C1730.29 389.258 1729.61 387.856 1728.51 386.795C1727.42 385.72 1725.98 385.182 1724.21 385.182C1722.71 385.182 1721.4 385.591 1720.28 386.409C1719.17 387.212 1718.31 388.386 1717.69 389.932C1717.07 391.477 1716.76 393.348 1716.76 395.545C1716.76 397.773 1717.06 399.667 1717.67 401.227C1718.29 402.788 1719.16 403.977 1720.28 404.795C1721.4 405.614 1722.71 406.023 1724.21 406.023C1725.32 406.023 1726.31 405.795 1727.19 405.341C1728.08 404.886 1728.82 404.227 1729.39 403.364C1729.98 402.485 1730.37 401.432 1730.55 400.205H1739.69C1739.54 402.871 1738.81 405.22 1737.51 407.25C1736.22 409.265 1734.44 410.841 1732.17 411.977C1729.89 413.114 1727.2 413.682 1724.1 413.682ZM1754.29 392.818V413H1744.61V366.455H1754.02V384.25H1754.43C1755.21 382.189 1756.49 380.576 1758.24 379.409C1760 378.227 1762.21 377.636 1764.86 377.636C1767.28 377.636 1769.4 378.167 1771.2 379.227C1773.02 380.273 1774.43 381.78 1775.43 383.75C1776.44 385.705 1776.94 388.045 1776.93 390.773V413H1767.24V392.5C1767.26 390.348 1766.71 388.674 1765.61 387.477C1764.52 386.28 1762.99 385.682 1761.02 385.682C1759.7 385.682 1758.53 385.962 1757.52 386.523C1756.52 387.083 1755.73 387.902 1755.15 388.977C1754.59 390.038 1754.3 391.318 1754.29 392.818ZM1787.99 426.091C1786.76 426.091 1785.61 425.992 1784.54 425.795C1783.48 425.614 1782.6 425.379 1781.9 425.091L1784.08 417.864C1785.22 418.212 1786.24 418.402 1787.15 418.432C1788.08 418.462 1788.87 418.25 1789.54 417.795C1790.22 417.341 1790.77 416.568 1791.2 415.477L1791.76 414L1779.24 378.091H1789.42L1796.65 403.727H1797.01L1804.31 378.091H1814.56L1800.99 416.773C1800.34 418.652 1799.45 420.288 1798.33 421.682C1797.23 423.091 1795.83 424.174 1794.13 424.932C1792.43 425.705 1790.39 426.091 1787.99 426.091Z" fill="#43A862"></path><g clip-path="url(#clip1_1281_840)"><path d="M1499 191C1496.35 191 1493.8 192.054 1491.93 193.929C1490.05 195.804 1489 198.348 1489 201V231C1489 233.652 1490.05 236.196 1491.93 238.071C1493.8 239.946 1496.35 241 1499 241H1524C1526.65 241 1529.2 239.946 1531.07 238.071C1532.95 236.196 1534 233.652 1534 231V201C1534 198.348 1532.95 195.804 1531.07 193.929C1529.2 192.054 1526.65 191 1524 191H1499ZM1529 201V231C1529 232.326 1528.47 233.598 1527.54 234.536C1526.6 235.473 1525.33 236 1524 236H1499C1497.67 236 1496.4 235.473 1495.46 234.536C1494.53 233.598 1494 232.326 1494 231V201C1494 199.674 1494.53 198.402 1495.46 197.464C1496.4 196.527 1497.67 196 1499 196H1524C1525.33 196 1526.6 196.527 1527.54 197.464C1528.47 198.402 1529 199.674 1529 201Z" fill="#43A862"></path><path d="M1499 141H1524C1526.65 141 1529.2 139.946 1531.07 138.071C1532.95 136.196 1534 133.652 1534 131V101C1534 98.3478 1532.95 95.8043 1531.07 93.9289C1529.2 92.0536 1526.65 91 1524 91H1499C1496.35 91 1493.8 92.0536 1491.93 93.9289C1490.05 95.8043 1489 98.3478 1489 101V131C1489 133.652 1490.05 136.196 1491.93 138.071C1493.8 139.946 1496.35 141 1499 141ZM1494 101C1494 99.6739 1494.53 98.4021 1495.46 97.4645C1496.4 96.5268 1497.67 96 1499 96H1524C1525.33 96 1526.6 96.5268 1527.54 97.4645C1528.47 98.4021 1529 99.6739 1529 101V131C1529 132.326 1528.47 133.598 1527.54 134.536C1526.6 135.473 1525.33 136 1524 136H1499C1497.67 136 1496.4 135.473 1495.46 134.536C1494.53 133.598 1494 132.326 1494 131V101Z" fill="#43A862"></path><path d="M1446.5 241H1471.5C1474.15 241 1476.7 239.946 1478.57 238.071C1480.45 236.196 1481.5 233.652 1481.5 231V201C1481.5 198.348 1480.45 195.804 1478.57 193.929C1476.7 192.054 1474.15 191 1471.5 191H1446.5C1443.85 191 1441.3 192.054 1439.43 193.929C1437.55 195.804 1436.5 198.348 1436.5 201V231C1436.5 233.652 1437.55 236.196 1439.43 238.071C1441.3 239.946 1443.85 241 1446.5 241ZM1441.5 201C1441.5 199.674 1442.03 198.402 1442.96 197.464C1443.9 196.527 1445.17 196 1446.5 196H1471.5C1472.83 196 1474.1 196.527 1475.04 197.464C1475.97 198.402 1476.5 199.674 1476.5 201V231C1476.5 232.326 1475.97 233.598 1475.04 234.536C1474.1 235.473 1472.83 236 1471.5 236H1446.5C1445.17 236 1443.9 235.473 1442.96 234.536C1442.03 233.598 1441.5 232.326 1441.5 231V201Z" fill="#43A862"></path><path d="M1541.5 201V231C1541.5 233.652 1542.55 236.196 1544.43 238.071C1546.3 239.946 1548.85 241 1551.5 241H1576.5C1579.15 241 1581.7 239.946 1583.57 238.071C1585.45 236.196 1586.5 233.652 1586.5 231V201C1586.5 198.348 1585.45 195.804 1583.57 193.929C1581.7 192.054 1579.15 191 1576.5 191H1551.5C1548.85 191 1546.3 192.054 1544.43 193.929C1542.55 195.804 1541.5 198.348 1541.5 201ZM1581.5 201V231C1581.5 232.326 1580.97 233.598 1580.04 234.536C1579.1 235.473 1577.83 236 1576.5 236H1551.5C1550.17 236 1548.9 235.473 1547.96 234.536C1547.03 233.598 1546.5 232.326 1546.5 231V201C1546.5 199.674 1547.03 198.402 1547.96 197.464C1548.9 196.527 1550.17 196 1551.5 196H1576.5C1577.83 196 1579.1 196.527 1580.04 197.464C1580.97 198.402 1581.5 199.674 1581.5 201Z" fill="#43A862"></path><path d="M1459 186C1459.66 186 1460.3 185.737 1460.77 185.268C1461.24 184.799 1461.5 184.163 1461.5 183.5V178.5C1461.5 175.848 1462.55 173.304 1464.43 171.429C1466.3 169.554 1468.85 168.5 1471.5 168.5H1509V183.5C1509 184.163 1509.26 184.799 1509.73 185.268C1510.2 185.737 1510.84 186 1511.5 186C1512.16 186 1512.8 185.737 1513.27 185.268C1513.74 184.799 1514 184.163 1514 183.5V168.5H1551.5C1554.15 168.5 1556.7 169.554 1558.57 171.429C1560.45 173.304 1561.5 175.848 1561.5 178.5V183.5C1561.5 184.163 1561.76 184.799 1562.23 185.268C1562.7 185.737 1563.34 186 1564 186C1564.66 186 1565.3 185.737 1565.77 185.268C1566.24 184.799 1566.5 184.163 1566.5 183.5V178.5C1566.5 174.523 1564.91 170.71 1562.1 167.898C1559.29 165.086 1555.48 163.504 1551.5 163.5H1514V148.5C1514 147.837 1513.74 147.201 1513.27 146.732C1512.8 146.263 1512.16 146 1511.5 146C1510.84 146 1510.2 146.263 1509.73 146.732C1509.26 147.201 1509 147.837 1509 148.5V163.5H1471.5C1467.52 163.504 1463.71 165.086 1460.9 167.898C1458.09 170.71 1456.5 174.523 1456.5 178.5V183.5C1456.5 184.163 1456.76 184.799 1457.23 185.268C1457.7 185.737 1458.34 186 1459 186Z" fill="#43A862"></path></g><defs><clipPath id="clip0_1281_840"><rect width="150" height="150" fill="white" transform="translate(242.5 91)"></rect></clipPath><clipPath id="clip1_1281_840"><rect width="150" height="150" fill="white" transform="translate(1436.5 91)"></rect></clipPath></defs></svg>