<svg xmlns="http://www.w3.org/2000/svg" width="2993" height="1162" viewBox="0 0 2993 1162" fill="none"><path d="M540.914 166H1263.91" stroke="#43A862" stroke-width="18"></path><path d="M1594.91 166H2385.91" stroke="#43A862" stroke-width="18"></path><path d="M1658.91 902L2385.91 902" stroke="#43A862" stroke-width="18"></path><path d="M540.914 902L1375.91 902" stroke="#43A862" stroke-width="18"></path><path d="M2706.68 166H2796.1C2899.87 166 2984 250.127 2984 353.903C2984 457.68 2899.87 541.807 2796.1 541.806L189.106 541.79C89.6365 541.789 9 622.425 9 721.895C9 821.364 89.6358 902 189.105 902H219.414" stroke="#43A862" stroke-width="18"></path><circle cx="376.414" cy="900.5" r="156.5" fill="#DDFEEB" stroke="#43A862" stroke-width="18"></circle><path d="M438.783 885.629C438.217 869.682 431.744 854.771 420.401 843.429C408.518 831.546 392.72 825.002 375.915 825.002C359.11 825.002 343.311 831.546 331.428 843.429C320.086 854.771 313.612 869.682 313.046 885.629C307.644 885.801 303.301 890.246 303.301 895.69V923.093C303.301 928.645 307.817 933.162 313.37 933.162H317.221C322.774 933.162 327.29 928.645 327.29 923.093V895.69C327.29 890.278 322.998 885.852 317.639 885.632C318.313 868.223 326.652 852.75 339.371 842.496V844.528C339.371 852.494 345.851 858.975 353.817 858.975H398.012C405.978 858.975 412.459 852.494 412.459 844.528V842.496C425.177 852.749 433.516 868.223 434.19 885.632C428.831 885.852 424.539 890.278 424.539 895.69V923.093C424.539 928.521 428.858 932.957 434.239 933.152V942.395C434.239 952.493 426.023 960.709 415.925 960.709H397.389C397.296 960.226 397.173 959.748 397.021 959.277C395.404 954.331 390.82 951.008 385.614 951.008C379.001 951.008 373.621 956.389 373.621 963.004C373.621 969.618 379.001 975 385.614 975C391.444 975 396.314 970.819 397.388 965.299H415.925C428.554 965.299 438.828 955.024 438.828 942.395V933.153C444.21 932.957 448.528 928.522 448.528 923.093V895.69C448.528 890.246 444.185 885.801 438.783 885.629ZM322.701 895.69V923.093C322.701 926.114 320.243 928.572 317.221 928.572H313.37C310.348 928.572 307.89 926.114 307.89 923.093V895.69C307.89 892.668 310.348 890.21 313.37 890.21H317.221C320.243 890.21 322.701 892.668 322.701 895.69ZM407.869 844.528C407.869 849.963 403.447 854.386 398.012 854.386H353.817C348.382 854.386 343.96 849.963 343.96 844.528V839.149C353.144 833.111 364.125 829.591 375.915 829.591C387.704 829.591 398.685 833.111 407.869 839.149V844.528ZM385.614 970.41C381.531 970.41 378.21 967.088 378.21 963.003C378.21 958.919 381.531 955.597 385.614 955.597C388.829 955.597 391.66 957.649 392.656 960.696C392.898 961.444 393.021 962.22 393.021 963.003C393.021 967.088 389.698 970.41 385.614 970.41ZM443.939 923.093C443.939 926.114 441.481 928.572 438.46 928.572H434.608C431.586 928.572 429.128 926.114 429.128 923.093V895.69C429.128 892.669 431.586 890.211 434.608 890.211H438.46C441.481 890.211 443.939 892.669 443.939 895.69V923.093ZM398.012 937.916C405.978 937.916 412.459 931.435 412.459 923.469V895.314C412.459 887.348 405.978 880.867 398.012 880.867H353.817C345.851 880.867 339.371 887.348 339.371 895.314V963.004C339.371 963.886 339.876 964.689 340.671 965.072C340.987 965.224 341.327 965.299 341.665 965.299C342.176 965.299 342.684 965.128 343.098 964.796L370.96 942.521C374.674 939.551 379.34 937.916 384.096 937.916H398.012V937.916ZM368.093 938.937L343.96 958.231V895.314C343.96 889.878 348.382 885.456 353.817 885.456H398.012C403.447 885.456 407.869 889.878 407.869 895.314V923.468C407.869 928.904 403.447 933.326 398.012 933.326H384.095C378.302 933.326 372.619 935.319 368.093 938.937ZM352.636 901.298C352.636 900.03 353.664 899.003 354.931 899.003H396.845C398.113 899.003 399.14 900.031 399.14 901.298C399.14 902.565 398.112 903.592 396.845 903.592H354.931C353.664 903.592 352.636 902.565 352.636 901.298ZM384.397 917.485C384.397 918.752 383.37 919.779 382.103 919.779H354.931C353.664 919.779 352.637 918.752 352.637 917.485C352.637 916.217 353.664 915.19 354.931 915.19H382.103C383.37 915.19 384.397 916.218 384.397 917.485ZM399.14 917.485C399.14 918.752 398.113 919.779 396.845 919.779C395.578 919.779 394.551 918.752 394.551 917.485C394.551 916.217 395.578 915.19 396.845 915.19C398.113 915.19 399.14 916.217 399.14 917.485Z" fill="#43A862"></path><circle cx="1504.41" cy="900.5" r="156.5" fill="#DDFEEB" stroke="#43A862" stroke-width="18"></circle><path fill-rule="evenodd" clip-rule="evenodd" d="M1517.65 854.067C1521.91 855.195 1526 856.888 1529.81 859.109L1537.64 855.627C1538.53 855.232 1539.57 855.425 1540.26 856.114L1550.8 866.651C1551.49 867.339 1551.68 868.379 1551.29 869.268L1547.82 877.099C1550.04 880.918 1551.73 885.008 1552.86 889.285L1560.85 892.358C1561.76 892.708 1562.36 893.581 1562.36 894.554V909.46C1562.36 910.434 1561.76 911.307 1560.85 911.656C1560.85 911.656 1552.86 914.73 1552.86 914.73C1551.73 918.993 1550.03 923.08 1547.82 926.897L1551.29 934.732C1551.68 935.621 1551.49 936.66 1550.8 937.348L1540.26 947.886C1539.57 948.574 1538.53 948.767 1537.65 948.373C1537.65 948.373 1529.82 944.905 1529.82 944.905C1526.01 947.126 1521.91 948.82 1517.64 949.948L1514.57 957.935C1514.22 958.844 1513.35 959.443 1512.37 959.443H1497.47C1496.5 959.443 1495.62 958.844 1495.27 957.935C1495.27 957.935 1492.2 949.949 1492.2 949.949C1487.92 948.819 1483.83 947.115 1480.02 944.903L1472.18 948.373C1471.29 948.767 1470.25 948.574 1469.57 947.886L1459.03 937.348C1458.34 936.66 1458.15 935.618 1458.54 934.728L1462.02 926.9C1459.8 923.093 1458.11 918.996 1456.97 914.732L1448.98 911.656C1448.07 911.307 1447.47 910.434 1447.47 909.46V894.554C1447.47 893.581 1448.07 892.708 1448.98 892.358C1448.98 892.358 1456.97 889.283 1456.97 889.284C1458.11 885.008 1459.8 880.919 1462.02 877.101L1458.54 869.271C1458.15 868.382 1458.34 867.34 1459.03 866.651L1469.57 856.114C1470.25 855.425 1471.3 855.232 1472.19 855.627C1472.19 855.627 1480.02 859.109 1480.02 859.109C1483.83 856.888 1487.92 855.194 1492.18 854.066L1495.27 846.062C1495.62 845.155 1496.5 844.557 1497.47 844.557H1512.37C1513.35 844.557 1514.22 845.157 1514.57 846.066L1517.65 854.067ZM1513.69 856.895L1510.76 849.262H1499.08L1496.14 856.898C1495.86 857.622 1495.24 858.161 1494.48 858.34C1489.87 859.438 1485.46 861.263 1481.41 863.759C1480.75 864.166 1479.93 864.221 1479.22 863.905L1471.75 860.584L1463.5 868.836L1466.82 876.306C1467.14 877.015 1467.08 877.835 1466.67 878.496C1464.18 882.547 1462.35 886.955 1461.24 891.591C1461.06 892.344 1460.52 892.959 1459.8 893.238L1452.18 896.17V907.844L1459.8 910.777C1460.52 911.055 1461.06 911.67 1461.24 912.422C1462.35 917.043 1464.18 921.464 1466.67 925.5C1467.08 926.162 1467.14 926.983 1466.82 927.694L1463.5 935.164L1471.75 943.417L1479.22 940.108C1479.93 939.795 1480.75 939.849 1481.41 940.253C1485.46 942.735 1489.86 944.576 1494.5 945.674C1495.25 945.853 1495.87 946.393 1496.15 947.118L1499.08 954.737H1510.76L1513.69 947.118C1513.97 946.394 1514.59 945.854 1515.34 945.674C1519.96 944.577 1524.38 942.752 1528.41 940.258C1529.08 939.849 1529.89 939.793 1530.6 940.108L1538.08 943.417L1546.33 935.162L1543.02 927.691C1542.71 926.984 1542.76 926.168 1543.17 925.509C1545.65 921.458 1547.49 917.05 1548.59 912.429C1548.77 911.674 1549.31 911.056 1550.03 910.777L1557.65 907.844V896.17L1550.03 893.238C1549.31 892.959 1548.77 892.34 1548.59 891.584C1547.49 886.951 1545.67 882.545 1543.17 878.496C1542.76 877.836 1542.71 877.018 1543.02 876.309L1546.33 868.838L1538.08 860.584L1530.61 863.905C1529.9 864.221 1529.08 864.166 1528.42 863.759C1524.37 861.263 1519.96 859.438 1515.34 858.34C1514.59 858.161 1513.97 857.62 1513.69 856.895ZM1504.91 868.662C1523.33 868.662 1538.27 883.579 1538.27 901.998C1538.27 920.417 1523.33 935.353 1504.91 935.353C1486.49 935.353 1471.58 920.418 1471.58 901.998C1471.58 883.578 1486.49 868.662 1504.91 868.662ZM1517 927.977C1526.78 923.417 1533.56 913.498 1533.56 901.998C1533.56 886.178 1520.73 873.367 1504.91 873.367C1489.09 873.367 1476.28 886.179 1476.28 901.998C1476.28 913.498 1483.05 923.417 1492.82 927.977C1492.82 921.558 1492.82 908.458 1492.82 908.458H1486.68C1485.23 908.458 1483.96 907.64 1483.35 906.324C1483.34 906.32 1483.34 906.315 1483.34 906.31C1482.73 904.98 1482.94 903.532 1483.87 902.412C1483.87 902.407 1483.88 902.401 1483.88 902.395L1502.11 880.929C1502.12 880.924 1502.12 880.92 1502.12 880.916C1502.85 880.072 1503.79 879.632 1504.91 879.632C1506.02 879.632 1506.98 880.072 1507.71 880.916C1507.71 880.92 1507.71 880.924 1507.72 880.929L1525.95 902.395C1525.95 902.401 1525.95 902.407 1525.96 902.412C1526.89 903.532 1527.09 904.98 1526.49 906.31C1526.49 906.315 1526.48 906.32 1526.48 906.324C1525.87 907.64 1524.6 908.458 1523.14 908.458H1517V927.977ZM1497.53 929.686C1499.88 930.313 1502.36 930.647 1504.91 930.647C1507.47 930.647 1509.94 930.313 1512.3 929.686V906.105C1512.3 904.805 1513.35 903.752 1514.65 903.752H1520.92C1517.27 899.449 1507.7 888.185 1504.91 884.899C1502.11 888.204 1492.54 899.467 1488.9 903.752H1495.18C1496.48 903.752 1497.53 904.805 1497.53 906.105V929.686ZM1535.96 835.988L1535.09 832.434C1534.78 831.174 1535.55 829.898 1536.81 829.588C1538.07 829.278 1539.35 830.05 1539.66 831.311L1541.77 839.891C1542.04 841.009 1541.47 842.162 1540.41 842.616L1532.29 846.097C1531.09 846.608 1529.71 846.054 1529.2 844.861C1528.69 843.667 1529.24 842.283 1530.43 841.771L1533.98 840.254C1525.16 836.092 1515.3 833.764 1504.91 833.764C1467.25 833.764 1436.68 864.34 1436.68 902C1436.68 939.66 1467.25 970.235 1504.91 970.235C1542.57 970.235 1573.15 939.66 1573.15 902C1573.15 894.003 1571.77 886.326 1569.24 879.193C1568.8 877.969 1569.45 876.623 1570.67 876.188C1571.89 875.754 1573.24 876.395 1573.67 877.619C1576.38 885.244 1577.86 893.451 1577.86 902C1577.86 942.257 1545.17 974.941 1504.91 974.941C1464.66 974.941 1431.97 942.257 1431.97 902C1431.97 861.742 1464.66 829.059 1504.91 829.059C1516.01 829.059 1526.54 831.544 1535.96 835.988Z" fill="#43A862"></path><circle cx="1429.41" cy="165.5" r="156.5" fill="#DDFEEB" stroke="#43A862" stroke-width="18"></circle><path fill-rule="evenodd" clip-rule="evenodd" d="M1480.18 184.868C1482.71 184.192 1483.73 188.036 1481.2 188.713L1468.49 192.12C1465.96 192.797 1464.93 188.952 1467.46 188.275L1480.18 184.868ZM1460.71 183.454L1477.5 166.665C1479.35 164.81 1476.54 161.992 1474.68 163.847L1457.89 180.636C1456.04 182.491 1458.86 185.309 1460.71 183.454ZM1378.63 188.713C1376.09 188.037 1377.12 184.191 1379.65 184.868L1392.37 188.275C1394.9 188.952 1393.87 192.797 1391.34 192.12L1378.63 188.713ZM1401.93 180.636L1385.15 163.847C1383.29 161.992 1380.47 164.81 1382.33 166.665L1399.12 183.454C1400.97 185.309 1403.79 182.491 1401.93 180.636ZM1398.25 201.668C1389.18 202.681 1382.12 210.054 1381.39 219.074C1370.89 215.233 1359.6 222.998 1359.6 234.318C1359.6 235.418 1360.49 236.31 1361.59 236.31H1498.23C1499.33 236.31 1500.23 235.418 1500.23 234.318C1500.23 222.981 1488.91 215.231 1478.44 219.074C1477.71 210.054 1470.65 202.681 1461.57 201.668C1461.05 190.224 1446.79 185.237 1439.22 193.812C1433.39 190.832 1426.44 190.832 1420.61 193.812C1413.03 185.236 1398.78 190.225 1398.25 201.668ZM1402.25 201.631C1402.77 194.254 1411.82 190.682 1417.21 195.996C1414.38 198.231 1412.15 201.222 1410.81 204.642C1408.26 202.971 1405.32 201.93 1402.25 201.631ZM1442.62 195.996C1447.88 190.805 1457.04 194.083 1457.58 201.631C1454.51 201.93 1451.57 202.97 1449.01 204.642C1447.68 201.227 1445.45 198.226 1442.62 195.996ZM1416.18 156.587C1415.59 154.846 1415.08 153.039 1414.64 151.174C1409.71 153.463 1406.54 158.07 1405.16 163.225C1404.58 165.401 1401.78 165 1401.31 163.232C1397.78 150.03 1401.19 140.137 1413 132.915C1413.62 119.78 1418.37 104.943 1428.62 96.1687C1429.38 95.5165 1430.49 95.542 1431.22 96.1883C1441.46 104.964 1446.2 119.785 1446.82 132.909C1458.64 140.13 1462.05 150.025 1458.52 163.232C1457.99 165.205 1455.19 165.177 1454.67 163.225C1453.29 158.066 1450.12 153.458 1445.18 151.17C1444.74 153.036 1444.23 154.845 1443.64 156.587C1443.41 157.437 1442.64 158.063 1441.71 158.063H1418.11C1417.18 158.063 1416.41 157.437 1416.18 156.587ZM1413.84 147.19C1413.32 144.034 1413.02 140.905 1412.94 137.706C1406.6 142.252 1403.49 147.921 1404.02 155.735C1406.3 151.96 1409.73 148.844 1413.84 147.19ZM1417.68 146.082C1418.13 148.855 1418.76 151.53 1419.55 154.078H1440.27C1443.48 143.775 1443.74 131.975 1441.2 121.536C1433.86 119.14 1425.99 119.196 1418.63 121.495C1416.72 129.321 1416.39 137.994 1417.68 146.082ZM1419.93 117.004C1426.47 115.384 1433.36 115.358 1439.9 117.027C1437.85 110.914 1434.57 104.871 1429.91 100.365C1425.25 104.866 1421.98 110.899 1419.93 117.004ZM1446.88 137.7C1446.8 140.9 1446.5 144.029 1445.98 147.187C1450.09 148.84 1453.53 151.957 1455.81 155.735C1456.34 147.917 1453.23 142.246 1446.88 137.7ZM1429.91 178.725L1435.88 164.782H1423.94L1429.91 178.725ZM1431.74 184.556C1431.06 186.147 1428.77 186.181 1428.08 184.556L1419.16 163.705C1418.48 162.398 1419.42 160.797 1420.93 160.797L1438.89 160.801C1440.3 160.8 1441.28 162.25 1440.72 163.568L1431.74 184.556ZM1429.91 124.902C1426.42 124.902 1423.58 127.737 1423.58 131.231C1423.58 134.726 1426.42 137.561 1429.91 137.561C1433.4 137.561 1436.24 134.726 1436.24 131.231C1436.24 127.737 1433.4 124.902 1429.91 124.902ZM1429.91 128.887C1426.82 128.887 1426.82 133.575 1429.91 133.575C1433 133.575 1433 128.887 1429.91 128.887ZM1363.75 232.325H1496.08C1494.66 223.646 1484.8 219.34 1477.49 223.945C1476.11 224.814 1474.28 223.737 1474.45 222.032C1475.86 208.554 1459.53 200.151 1449.29 209.428C1448.16 210.45 1446.35 209.866 1446.02 208.393C1443.37 196.643 1429.16 191.551 1419.63 199.156C1412.64 204.721 1415.09 210.717 1411.43 209.895C1410.08 209.592 1406.65 204.857 1398.94 205.59C1390.63 206.379 1384.59 213.801 1385.38 222.077C1385.53 223.72 1383.73 224.816 1382.34 223.945C1375.02 219.34 1365.17 223.649 1363.75 232.325Z" fill="#43A862"></path><circle cx="2543.41" cy="900.5" r="156.5" fill="#DDFEEB" stroke="#43A862" stroke-width="18"></circle><circle cx="2543.41" cy="165.5" r="156.5" fill="#DDFEEB" stroke="#43A862" stroke-width="18"></circle><path d="M2509.39 107.093L2504.62 107.183L2503.11 102.524C2502.8 101.62 2502.21 100.835 2501.44 100.279C2500.66 99.7227 2499.73 99.4238 2498.77 99.4238C2497.82 99.4239 2496.88 99.7228 2496.11 100.279C2495.33 100.835 2494.75 101.62 2494.44 102.524L2493.05 107.093H2488.15C2487.19 107.093 2486.25 107.397 2485.47 107.963C2484.69 108.529 2484.11 109.326 2483.82 110.241C2483.52 111.157 2483.52 112.142 2483.82 113.058C2484.11 113.973 2484.69 114.77 2485.47 115.336L2489.39 118.069L2487.87 122.726C2487.58 123.642 2487.58 124.628 2487.87 125.543C2488.17 126.458 2488.75 127.256 2489.53 127.822C2490.31 128.387 2491.25 128.692 2492.21 128.692C2493.17 128.692 2494.11 128.387 2494.89 127.821L2498.69 124.942C2501.37 126.734 2504.61 130.416 2508.01 127.821C2508.8 127.262 2509.39 126.465 2509.69 125.548C2509.98 124.63 2509.98 123.641 2509.67 122.726L2508.11 118.215L2512.07 115.336C2512.83 114.763 2513.4 113.966 2513.69 113.055C2513.98 112.144 2513.98 111.165 2513.68 110.256C2513.39 109.347 2512.81 108.554 2512.04 107.986C2511.28 107.419 2510.35 107.106 2509.39 107.093ZM2505.35 114.422C2504.57 114.986 2503.99 115.783 2503.69 116.699C2503.4 117.615 2503.4 118.602 2503.7 119.518L2505.09 123.792L2501.45 121.148C2500.67 120.582 2499.73 120.277 2498.77 120.277C2497.81 120.278 2496.87 120.583 2496.09 121.149L2492.46 123.792L2493.85 119.517C2494.15 118.602 2494.15 117.616 2493.85 116.7C2493.55 115.784 2492.97 114.987 2492.19 114.422L2488.55 111.78H2493.05C2494.01 111.782 2494.95 111.479 2495.73 110.913C2496.51 110.347 2497.09 109.548 2497.38 108.632L2498.77 104.356L2500.16 108.633C2500.46 109.549 2501.04 110.347 2501.82 110.913C2502.59 111.478 2503.53 111.782 2504.49 111.78H2508.99L2505.35 114.422Z" fill="#43A862" stroke="white" stroke-width="0.8"></path><path d="M2509.39 141.066L2504.62 141.157L2503.11 136.499C2502.8 135.595 2502.21 134.809 2501.44 134.253C2500.66 133.697 2499.73 133.398 2498.77 133.398C2497.82 133.398 2496.88 133.697 2496.11 134.253C2495.33 134.809 2494.75 135.595 2494.44 136.499L2493.05 141.066H2488.15C2487.19 141.066 2486.25 141.371 2485.47 141.937C2484.69 142.502 2484.11 143.3 2483.82 144.215C2483.52 145.13 2483.52 146.116 2483.82 147.031C2484.11 147.946 2484.69 148.744 2485.47 149.309L2489.39 152.042L2487.87 156.701C2487.58 157.616 2487.58 158.602 2487.87 159.517C2488.17 160.433 2488.75 161.23 2489.53 161.796C2490.31 162.361 2491.25 162.666 2492.21 162.666C2493.17 162.666 2494.11 162.362 2494.89 161.796L2498.69 158.917C2501.37 160.709 2504.61 164.391 2508.01 161.795C2508.8 161.236 2509.39 160.439 2509.69 159.522C2509.98 158.604 2509.98 157.615 2509.67 156.701L2508.11 152.189L2512.07 149.31C2512.83 148.737 2513.4 147.939 2513.69 147.028C2513.98 146.117 2513.98 145.139 2513.68 144.23C2513.39 143.321 2512.81 142.527 2512.04 141.96C2511.28 141.392 2510.35 141.08 2509.39 141.066ZM2505.35 148.397C2504.57 148.962 2503.99 149.759 2503.7 150.674C2503.4 151.59 2503.4 152.576 2503.7 153.491L2505.09 157.767L2501.45 155.125C2500.67 154.557 2499.73 154.251 2498.77 154.251C2497.81 154.25 2496.87 154.556 2496.09 155.124L2492.46 157.766L2493.85 153.491C2494.14 152.576 2494.15 151.589 2493.85 150.674C2493.55 149.758 2492.97 148.961 2492.19 148.396L2488.55 145.754H2493.05C2494.01 145.756 2494.95 145.452 2495.73 144.886C2496.51 144.321 2497.09 143.522 2497.38 142.605L2498.77 138.331L2500.16 142.605C2500.46 143.521 2501.04 144.32 2501.82 144.886C2502.59 145.451 2503.53 145.755 2504.49 145.754H2508.99L2505.35 148.397Z" fill="#43A862" stroke="white" stroke-width="0.8"></path><path d="M2509.39 175.042L2504.62 175.132L2503.11 170.473C2502.8 169.569 2502.21 168.784 2501.44 168.228C2500.66 167.672 2499.73 167.373 2498.77 167.373C2497.82 167.373 2496.88 167.672 2496.11 168.228C2495.33 168.784 2494.75 169.569 2494.44 170.474L2493.05 175.042H2488.15C2487.19 175.042 2486.25 175.346 2485.47 175.912C2484.69 176.478 2484.11 177.275 2483.82 178.191C2483.52 179.106 2483.52 180.092 2483.82 181.007C2484.11 181.922 2484.69 182.719 2485.47 183.285L2489.39 186.018L2487.87 190.676C2487.58 191.591 2487.58 192.577 2487.87 193.492C2488.17 194.408 2488.75 195.205 2489.53 195.771C2490.31 196.337 2491.25 196.641 2492.21 196.641C2493.17 196.641 2494.11 196.336 2494.89 195.77L2498.69 192.892C2501.37 194.684 2504.61 198.365 2508.01 195.77C2508.8 195.212 2509.39 194.415 2509.69 193.497C2509.98 192.579 2509.98 191.59 2509.67 190.676L2508.11 186.164L2512.07 183.285C2512.83 182.713 2513.4 181.915 2513.69 181.004C2513.98 180.093 2513.98 179.115 2513.68 178.206C2513.39 177.297 2512.81 176.503 2512.04 175.935C2511.28 175.368 2510.35 175.056 2509.39 175.042ZM2505.35 182.371C2504.57 182.935 2503.99 183.733 2503.69 184.649C2503.4 185.565 2503.4 186.551 2503.7 187.467L2505.09 191.741C2502.5 189.933 2499.38 186.621 2496.09 189.1L2492.46 191.741L2493.85 187.467C2494.15 186.552 2494.15 185.565 2493.85 184.649C2493.55 183.734 2492.97 182.936 2492.19 182.372L2488.55 179.729H2493.05C2494.01 179.732 2494.95 179.428 2495.73 178.862C2496.51 178.296 2497.09 177.497 2497.38 176.581L2498.77 172.306L2500.16 176.581C2500.46 177.497 2501.04 178.295 2501.82 178.861C2502.59 179.427 2503.53 179.731 2504.49 179.729H2508.99L2505.35 182.371Z" fill="#43A862" stroke="white" stroke-width="0.8"></path><path d="M2509.39 209.016L2504.62 209.107L2503.11 204.448C2502.8 203.544 2502.21 202.758 2501.44 202.203C2500.66 201.647 2499.73 201.348 2498.77 201.348C2497.82 201.348 2496.88 201.647 2496.11 202.203C2495.33 202.759 2494.75 203.544 2494.44 204.448L2493.05 209.016H2488.15C2487.19 209.016 2486.25 209.321 2485.47 209.887C2484.69 210.452 2484.11 211.25 2483.82 212.165C2483.52 213.08 2483.52 214.066 2483.82 214.981C2484.11 215.897 2484.69 216.694 2485.47 217.26L2489.39 219.991L2487.87 224.65C2487.58 225.566 2487.58 226.552 2487.87 227.467C2488.17 228.382 2488.75 229.18 2489.53 229.746C2490.31 230.311 2491.25 230.616 2492.21 230.616C2493.17 230.616 2494.11 230.311 2494.89 229.745L2498.69 226.866C2501.37 228.658 2504.61 232.34 2508.01 229.745C2508.8 229.186 2509.39 228.389 2509.69 227.471C2509.98 226.554 2509.98 225.565 2509.67 224.65L2508.11 220.139L2512.07 217.26C2512.83 216.687 2513.4 215.889 2513.69 214.979C2513.98 214.068 2513.98 213.089 2513.68 212.18C2513.39 211.271 2512.81 210.477 2512.04 209.91C2511.28 209.343 2510.35 209.03 2509.39 209.016ZM2505.35 216.345C2504.57 216.91 2503.99 217.707 2503.7 218.623C2503.4 219.538 2503.4 220.525 2503.7 221.44L2505.09 225.716L2501.45 223.072C2500.67 222.506 2499.73 222.201 2498.77 222.201C2497.81 222.202 2496.87 222.507 2496.09 223.073L2492.46 225.716L2493.85 221.441C2494.14 220.526 2494.15 219.54 2493.85 218.624C2493.55 217.708 2492.97 216.911 2492.19 216.346L2488.55 213.704H2493.05C2494.01 213.706 2494.95 213.402 2495.73 212.837C2496.51 212.271 2497.09 211.472 2497.38 210.556L2498.77 206.28L2500.16 210.557C2500.46 211.473 2501.04 212.271 2501.82 212.836C2502.59 213.402 2503.53 213.706 2504.49 213.704H2508.99L2505.35 216.345Z" fill="#43A862" stroke="white" stroke-width="0.8"></path><path d="M2531.59 125.032H2587.84C2589.7 125.03 2591.49 124.289 2592.81 122.971C2594.12 121.653 2594.87 119.865 2594.87 118.001V110.076C2594.87 108.212 2594.12 106.425 2592.81 105.107C2591.49 103.788 2589.7 103.047 2587.84 103.045H2531.59C2529.72 103.047 2527.93 103.788 2526.62 105.107C2525.3 106.425 2524.56 108.212 2524.55 110.076V118.001C2524.56 119.865 2525.3 121.653 2526.62 122.971C2527.93 124.289 2529.72 125.03 2531.59 125.032ZM2529.24 110.076C2529.24 109.455 2529.49 108.859 2529.93 108.42C2530.37 107.98 2530.96 107.733 2531.59 107.732H2587.84C2588.46 107.733 2589.05 107.98 2589.49 108.42C2589.93 108.859 2590.18 109.455 2590.18 110.076V118.001C2590.18 118.623 2589.93 119.218 2589.49 119.658C2589.05 120.097 2588.46 120.344 2587.84 120.345H2531.59C2530.96 120.344 2530.37 120.097 2529.93 119.658C2529.49 119.218 2529.24 118.623 2529.24 118.001V110.076Z" fill="#43A862" stroke="white" stroke-width="0.8"></path><path d="M2597.21 137.02H2531.59C2529.72 137.022 2527.93 137.763 2526.62 139.081C2525.3 140.399 2524.56 142.187 2524.55 144.051V151.976C2524.56 153.84 2525.3 155.627 2526.62 156.945C2527.93 158.264 2529.72 159.005 2531.59 159.007H2597.21C2599.08 159.005 2600.86 158.264 2602.18 156.945C2603.5 155.627 2604.24 153.84 2604.24 151.976V144.051C2604.24 142.187 2603.5 140.399 2602.18 139.081C2600.86 137.763 2599.08 137.022 2597.21 137.02ZM2599.55 151.976C2599.55 152.597 2599.31 153.193 2598.87 153.632C2598.43 154.072 2597.83 154.319 2597.21 154.32H2531.59C2530.96 154.319 2530.37 154.072 2529.93 153.632C2529.49 153.193 2529.24 152.597 2529.24 151.976V144.051C2529.24 143.429 2529.49 142.834 2529.93 142.394C2530.37 141.955 2530.96 141.708 2531.59 141.707H2597.21C2597.83 141.708 2598.43 141.955 2598.87 142.394C2599.31 142.834 2599.55 143.429 2599.55 144.051V151.976Z" fill="#43A862" stroke="white" stroke-width="0.8"></path><path d="M2559.71 170.994H2531.59C2529.72 170.996 2527.93 171.738 2526.62 173.056C2525.3 174.374 2524.56 176.161 2524.55 178.025V185.95C2524.56 187.815 2525.3 189.602 2526.62 190.92C2527.93 192.238 2529.72 192.98 2531.59 192.982H2559.71C2561.58 192.98 2563.36 192.238 2564.68 190.92C2566 189.602 2566.74 187.815 2566.74 185.95V178.025C2566.74 176.161 2566 174.374 2564.68 173.056C2563.36 171.738 2561.58 170.996 2559.71 170.994ZM2562.05 185.95C2562.05 186.572 2561.81 187.167 2561.37 187.607C2560.93 188.046 2560.33 188.293 2559.71 188.294H2531.59C2530.96 188.293 2530.37 188.046 2529.93 187.607C2529.49 187.167 2529.24 186.572 2529.24 185.95V178.025C2529.24 177.404 2529.49 176.808 2529.93 176.369C2530.37 175.93 2530.96 175.682 2531.59 175.682H2559.71C2560.33 175.682 2560.93 175.93 2561.37 176.369C2561.81 176.808 2562.05 177.404 2562.05 178.025V185.95Z" fill="#43A862" stroke="white" stroke-width="0.8"></path><path d="M2540.96 204.969H2531.59C2529.72 204.971 2527.93 205.712 2526.62 207.03C2525.3 208.349 2524.56 210.136 2524.55 212V219.925C2524.56 221.789 2525.3 223.576 2526.62 224.895C2527.93 226.213 2529.72 226.954 2531.59 226.956H2540.96C2542.83 226.954 2544.61 226.213 2545.93 224.895C2547.25 223.576 2547.99 221.789 2547.99 219.925V212C2547.99 210.136 2547.25 208.349 2545.93 207.03C2544.61 205.712 2542.83 204.971 2540.96 204.969ZM2543.3 219.925C2543.3 220.546 2543.06 221.142 2542.62 221.581C2542.18 222.021 2541.58 222.268 2540.96 222.269H2531.59C2530.96 222.268 2530.37 222.021 2529.93 221.581C2529.49 221.142 2529.24 220.546 2529.24 219.925V212C2529.24 211.379 2529.49 210.783 2529.93 210.344C2530.37 209.904 2530.96 209.657 2531.59 209.656H2540.96C2541.58 209.657 2542.18 209.904 2542.62 210.344C2543.06 210.783 2543.3 211.379 2543.3 212V219.925Z" fill="#43A862" stroke="white" stroke-width="0.8"></path><circle cx="375.414" cy="165.5" r="156.5" fill="#DDFEEB" stroke="#43A862" stroke-width="18"></circle><g clip-path="url(#clip0_1281_842)"><path d="M426.317 164.21C429.831 160.697 435.565 160.697 439.078 164.21L447.916 173.047C451.436 176.566 451.436 182.289 447.916 185.809L399.302 234.423C398.969 234.76 398.55 235.003 398.084 235.133L397.881 235.182L375.793 239.6C375.615 239.633 375.43 239.649 375.251 239.649C374.524 239.649 373.812 239.36 373.284 238.838C372.63 238.182 372.343 237.24 372.525 236.338V236.337L376.944 214.243L376.943 214.242C377.056 213.693 377.313 213.203 377.701 212.825L377.704 212.822L426.317 164.21ZM435.161 168.127C433.806 166.772 431.603 166.772 430.247 168.127L382.304 216.071L382.229 216.146L382.208 216.25L378.896 232.818L378.792 233.333L379.307 233.23L395.876 229.918L395.979 229.897L396.055 229.822L443.998 181.878C445.353 180.522 445.353 178.32 443.998 176.965L435.161 168.127Z" fill="#43A862" stroke="white" stroke-width="0.7"></path><path d="M316.539 109.1H329.039C330.571 109.1 331.814 110.343 331.814 111.875C331.814 113.407 330.571 114.65 329.039 114.65H316.539C311.177 114.65 306.814 119.013 306.814 124.375V205.625C306.814 210.987 311.177 215.35 316.539 215.35H360.289C361.821 215.35 363.064 216.593 363.064 218.125C363.064 219.657 361.821 220.9 360.289 220.9H316.539C308.114 220.9 301.264 214.05 301.264 205.625V124.375C301.264 115.95 308.114 109.1 316.539 109.1Z" fill="#43A862" stroke="white" stroke-width="0.7"></path><path d="M379.039 109.1H391.539C399.965 109.1 406.814 115.95 406.814 124.375V161.875C406.814 163.407 405.571 164.65 404.039 164.65C402.507 164.65 401.264 163.407 401.264 161.875V124.375C401.264 119.013 396.901 114.65 391.539 114.65H379.039C377.507 114.65 376.264 113.407 376.264 111.875C376.264 110.343 377.507 109.1 379.039 109.1Z" fill="#43A862" stroke="white" stroke-width="0.7"></path><path d="M354.039 90.3496C361.413 90.3496 367.591 95.6043 369.009 102.569L369.065 102.85H379.039C380.571 102.85 381.814 104.093 381.814 105.625V118.125C381.814 123.1 377.765 127.15 372.789 127.15H335.289C330.314 127.15 326.264 123.1 326.264 118.125V105.625C326.264 104.093 327.507 102.85 329.039 102.85H339.013L339.069 102.569C340.487 95.6043 346.665 90.3496 354.039 90.3496ZM354.039 95.9004C348.677 95.9004 344.314 100.263 344.314 105.625C344.314 107.157 343.071 108.4 341.539 108.4H331.814V118.125C331.814 120.037 333.377 121.6 335.289 121.6H372.789C374.701 121.6 376.264 120.037 376.264 118.125V108.4H366.539C365.007 108.4 363.764 107.157 363.764 105.625C363.764 100.263 359.401 95.9004 354.039 95.9004Z" fill="#43A862" stroke="white" stroke-width="0.7"></path><path d="M322.789 140.35H385.289C386.821 140.35 388.064 141.593 388.064 143.125C388.064 144.657 386.821 145.9 385.289 145.9H322.789C321.257 145.9 320.014 144.657 320.014 143.125C320.014 141.593 321.257 140.35 322.789 140.35Z" fill="#43A862" stroke="white" stroke-width="0.7"></path><path d="M322.789 159.1H385.289C386.821 159.1 388.064 160.343 388.064 161.875C388.064 163.407 386.821 164.65 385.289 164.65H322.789C321.257 164.65 320.014 163.407 320.014 161.875C320.014 160.343 321.257 159.1 322.789 159.1Z" fill="#43A862" stroke="white" stroke-width="0.7"></path><path d="M322.789 177.85H385.289C386.821 177.85 388.064 179.093 388.064 180.625C388.064 182.157 386.821 183.4 385.289 183.4H322.789C321.257 183.4 320.014 182.157 320.014 180.625C320.014 179.093 321.257 177.85 322.789 177.85Z" fill="#43A862" stroke="white" stroke-width="0.7"></path></g><path d="M297.41 379.841C297.228 378.008 296.447 376.583 295.069 375.568C293.69 374.553 291.819 374.045 289.455 374.045C287.849 374.045 286.493 374.273 285.387 374.727C284.281 375.167 283.432 375.78 282.841 376.568C282.266 377.356 281.978 378.25 281.978 379.25C281.947 380.083 282.122 380.811 282.5 381.432C282.894 382.053 283.432 382.591 284.114 383.045C284.796 383.485 285.584 383.871 286.478 384.205C287.372 384.523 288.326 384.795 289.341 385.023L293.523 386.023C295.553 386.477 297.417 387.083 299.114 387.841C300.811 388.598 302.281 389.53 303.523 390.636C304.766 391.742 305.728 393.045 306.41 394.545C307.106 396.045 307.463 397.765 307.478 399.705C307.463 402.553 306.735 405.023 305.296 407.114C303.872 409.189 301.811 410.803 299.114 411.955C296.432 413.091 293.197 413.659 289.41 413.659C285.652 413.659 282.379 413.083 279.591 411.932C276.819 410.78 274.652 409.076 273.091 406.818C271.546 404.545 270.735 401.735 270.66 398.386H280.182C280.288 399.947 280.735 401.25 281.523 402.295C282.326 403.326 283.394 404.106 284.728 404.636C286.076 405.152 287.599 405.409 289.296 405.409C290.963 405.409 292.41 405.167 293.637 404.682C294.879 404.197 295.841 403.523 296.523 402.659C297.205 401.795 297.546 400.803 297.546 399.682C297.546 398.636 297.235 397.758 296.614 397.045C296.008 396.333 295.114 395.727 293.932 395.227C292.766 394.727 291.334 394.273 289.637 393.864L284.569 392.591C280.644 391.636 277.546 390.144 275.273 388.114C273 386.083 271.872 383.348 271.887 379.909C271.872 377.091 272.622 374.629 274.137 372.523C275.667 370.417 277.766 368.773 280.432 367.591C283.099 366.409 286.129 365.818 289.523 365.818C292.978 365.818 295.993 366.409 298.569 367.591C301.16 368.773 303.175 370.417 304.614 372.523C306.053 374.629 306.796 377.068 306.841 379.841H297.41ZM312.635 413V378.091H322.317V413H312.635ZM317.499 373.591C316.059 373.591 314.825 373.114 313.794 372.159C312.779 371.189 312.272 370.03 312.272 368.682C312.272 367.348 312.779 366.205 313.794 365.25C314.825 364.28 316.059 363.795 317.499 363.795C318.938 363.795 320.166 364.28 321.181 365.25C322.211 366.205 322.726 367.348 322.726 368.682C322.726 370.03 322.211 371.189 321.181 372.159C320.166 373.114 318.938 373.591 317.499 373.591ZM344.52 426.818C341.384 426.818 338.694 426.386 336.452 425.523C334.225 424.674 332.452 423.515 331.134 422.045C329.815 420.576 328.959 418.924 328.565 417.091L337.52 415.886C337.793 416.583 338.225 417.235 338.815 417.841C339.406 418.447 340.187 418.932 341.156 419.295C342.141 419.674 343.338 419.864 344.747 419.864C346.853 419.864 348.588 419.348 349.952 418.318C351.331 417.303 352.02 415.598 352.02 413.205V406.818H351.611C351.187 407.788 350.55 408.705 349.702 409.568C348.853 410.432 347.762 411.136 346.429 411.682C345.096 412.227 343.505 412.5 341.656 412.5C339.035 412.5 336.649 411.894 334.497 410.682C332.361 409.455 330.656 407.583 329.384 405.068C328.126 402.538 327.497 399.341 327.497 395.477C327.497 391.523 328.141 388.22 329.429 385.568C330.717 382.917 332.429 380.932 334.565 379.614C336.717 378.295 339.073 377.636 341.634 377.636C343.588 377.636 345.225 377.97 346.543 378.636C347.861 379.288 348.921 380.106 349.725 381.091C350.543 382.061 351.171 383.015 351.611 383.955H351.975V378.091H361.588V413.341C361.588 416.311 360.861 418.795 359.406 420.795C357.952 422.795 355.937 424.295 353.361 425.295C350.8 426.311 347.853 426.818 344.52 426.818ZM344.725 405.227C346.285 405.227 347.603 404.841 348.679 404.068C349.77 403.28 350.603 402.159 351.179 400.705C351.77 399.235 352.065 397.477 352.065 395.432C352.065 393.386 351.778 391.614 351.202 390.114C350.626 388.598 349.793 387.424 348.702 386.591C347.611 385.758 346.285 385.341 344.725 385.341C343.134 385.341 341.793 385.773 340.702 386.636C339.611 387.485 338.785 388.667 338.225 390.182C337.664 391.697 337.384 393.447 337.384 395.432C337.384 397.447 337.664 399.189 338.225 400.659C338.8 402.114 339.626 403.242 340.702 404.045C341.793 404.833 343.134 405.227 344.725 405.227ZM377.695 392.818V413H368.013V378.091H377.24V384.25H377.649C378.422 382.22 379.717 380.614 381.535 379.432C383.354 378.235 385.558 377.636 388.149 377.636C390.573 377.636 392.687 378.167 394.49 379.227C396.293 380.288 397.695 381.803 398.695 383.773C399.695 385.727 400.195 388.061 400.195 390.773V413H390.513V392.5C390.528 390.364 389.982 388.697 388.876 387.5C387.77 386.288 386.248 385.682 384.308 385.682C383.005 385.682 381.854 385.962 380.854 386.523C379.869 387.083 379.096 387.902 378.535 388.977C377.99 390.038 377.71 391.318 377.695 392.818ZM428.932 398.136V378.091H438.613V413H429.318V406.659H428.954C428.166 408.705 426.856 410.348 425.022 411.591C423.204 412.833 420.985 413.455 418.363 413.455C416.03 413.455 413.977 412.924 412.204 411.864C410.432 410.803 409.045 409.295 408.045 407.341C407.06 405.386 406.56 403.045 406.545 400.318V378.091H416.227V398.591C416.242 400.652 416.795 402.28 417.886 403.477C418.977 404.674 420.439 405.273 422.272 405.273C423.439 405.273 424.53 405.008 425.545 404.477C426.56 403.932 427.379 403.129 428 402.068C428.636 401.008 428.947 399.697 428.932 398.136ZM445.078 426.091V378.091H454.623V383.955H455.055C455.479 383.015 456.093 382.061 456.896 381.091C457.714 380.106 458.775 379.288 460.078 378.636C461.396 377.97 463.032 377.636 464.987 377.636C467.532 377.636 469.881 378.303 472.032 379.636C474.184 380.955 475.903 382.947 477.191 385.614C478.479 388.265 479.123 391.591 479.123 395.591C479.123 399.485 478.494 402.773 477.237 405.455C475.994 408.121 474.297 410.144 472.146 411.523C470.01 412.886 467.616 413.568 464.964 413.568C463.085 413.568 461.487 413.258 460.169 412.636C458.866 412.015 457.797 411.235 456.964 410.295C456.131 409.341 455.494 408.379 455.055 407.409H454.76V426.091H445.078ZM454.555 395.545C454.555 397.621 454.843 399.432 455.419 400.977C455.994 402.523 456.828 403.727 457.919 404.591C459.01 405.439 460.335 405.864 461.896 405.864C463.472 405.864 464.805 405.432 465.896 404.568C466.987 403.689 467.813 402.477 468.373 400.932C468.949 399.371 469.237 397.576 469.237 395.545C469.237 393.53 468.956 391.758 468.396 390.227C467.835 388.697 467.01 387.5 465.919 386.636C464.828 385.773 463.487 385.341 461.896 385.341C460.32 385.341 458.987 385.758 457.896 386.591C456.82 387.424 455.994 388.606 455.419 390.136C454.843 391.667 454.555 393.47 454.555 395.545Z" fill="#43A862"></path><path d="M165.326 1114.84C165.144 1113.01 164.364 1111.58 162.985 1110.57C161.606 1109.55 159.735 1109.05 157.371 1109.05C155.765 1109.05 154.409 1109.27 153.303 1109.73C152.197 1110.17 151.349 1110.78 150.758 1111.57C150.182 1112.36 149.894 1113.25 149.894 1114.25C149.864 1115.08 150.038 1115.81 150.417 1116.43C150.811 1117.05 151.349 1117.59 152.03 1118.05C152.712 1118.48 153.5 1118.87 154.394 1119.2C155.288 1119.52 156.242 1119.8 157.258 1120.02L161.439 1121.02C163.47 1121.48 165.333 1122.08 167.03 1122.84C168.727 1123.6 170.197 1124.53 171.439 1125.64C172.682 1126.74 173.644 1128.05 174.326 1129.55C175.023 1131.05 175.379 1132.77 175.394 1134.7C175.379 1137.55 174.652 1140.02 173.212 1142.11C171.788 1144.19 169.727 1145.8 167.03 1146.95C164.349 1148.09 161.114 1148.66 157.326 1148.66C153.568 1148.66 150.295 1148.08 147.508 1146.93C144.735 1145.78 142.568 1144.08 141.008 1141.82C139.462 1139.55 138.652 1136.73 138.576 1133.39H148.099C148.205 1134.95 148.652 1136.25 149.439 1137.3C150.242 1138.33 151.311 1139.11 152.644 1139.64C153.992 1140.15 155.515 1140.41 157.212 1140.41C158.879 1140.41 160.326 1140.17 161.553 1139.68C162.795 1139.2 163.758 1138.52 164.439 1137.66C165.121 1136.8 165.462 1135.8 165.462 1134.68C165.462 1133.64 165.152 1132.76 164.53 1132.05C163.924 1131.33 163.03 1130.73 161.849 1130.23C160.682 1129.73 159.25 1129.27 157.553 1128.86L152.485 1127.59C148.561 1126.64 145.462 1125.14 143.189 1123.11C140.917 1121.08 139.788 1118.35 139.803 1114.91C139.788 1112.09 140.538 1109.63 142.053 1107.52C143.583 1105.42 145.682 1103.77 148.349 1102.59C151.015 1101.41 154.045 1100.82 157.439 1100.82C160.894 1100.82 163.909 1101.41 166.485 1102.59C169.076 1103.77 171.091 1105.42 172.53 1107.52C173.97 1109.63 174.712 1112.07 174.758 1114.84H165.326ZM190.506 1148.66C188.279 1148.66 186.294 1148.27 184.551 1147.5C182.809 1146.71 181.43 1145.55 180.415 1144.02C179.415 1142.48 178.915 1140.55 178.915 1138.25C178.915 1136.31 179.271 1134.68 179.983 1133.36C180.695 1132.05 181.665 1130.98 182.892 1130.18C184.12 1129.38 185.514 1128.77 187.074 1128.36C188.65 1127.95 190.301 1127.67 192.029 1127.5C194.059 1127.29 195.695 1127.09 196.938 1126.91C198.18 1126.71 199.082 1126.42 199.642 1126.05C200.203 1125.67 200.483 1125.11 200.483 1124.36V1124.23C200.483 1122.79 200.029 1121.67 199.12 1120.89C198.226 1120.1 196.953 1119.7 195.301 1119.7C193.559 1119.7 192.173 1120.09 191.142 1120.86C190.112 1121.62 189.43 1122.58 189.097 1123.73L180.142 1123C180.597 1120.88 181.491 1119.05 182.824 1117.5C184.158 1115.94 185.877 1114.74 187.983 1113.91C190.104 1113.06 192.559 1112.64 195.347 1112.64C197.286 1112.64 199.142 1112.86 200.915 1113.32C202.703 1113.77 204.286 1114.48 205.665 1115.43C207.059 1116.39 208.158 1117.61 208.961 1119.11C209.764 1120.6 210.165 1122.38 210.165 1124.45V1148H200.983V1143.16H200.711C200.15 1144.25 199.4 1145.21 198.461 1146.05C197.521 1146.86 196.392 1147.51 195.074 1147.98C193.756 1148.43 192.233 1148.66 190.506 1148.66ZM193.279 1141.98C194.703 1141.98 195.961 1141.7 197.051 1141.14C198.142 1140.56 198.998 1139.79 199.62 1138.82C200.241 1137.85 200.551 1136.75 200.551 1135.52V1131.82C200.248 1132.02 199.832 1132.2 199.301 1132.36C198.786 1132.52 198.203 1132.66 197.551 1132.8C196.9 1132.92 196.248 1133.03 195.597 1133.14C194.945 1133.23 194.354 1133.31 193.824 1133.39C192.688 1133.55 191.695 1133.82 190.847 1134.18C189.998 1134.55 189.339 1135.04 188.87 1135.66C188.4 1136.27 188.165 1137.02 188.165 1137.93C188.165 1139.25 188.642 1140.26 189.597 1140.95C190.567 1141.64 191.794 1141.98 193.279 1141.98ZM226.078 1101.45V1148H216.396V1101.45H226.078ZM248.463 1148.68C244.872 1148.68 241.781 1147.95 239.19 1146.5C236.615 1145.03 234.63 1142.95 233.236 1140.27C231.842 1137.58 231.145 1134.39 231.145 1130.7C231.145 1127.11 231.842 1123.96 233.236 1121.25C234.63 1118.54 236.592 1116.42 239.122 1114.91C241.668 1113.39 244.652 1112.64 248.077 1112.64C250.38 1112.64 252.524 1113.01 254.509 1113.75C256.509 1114.48 258.251 1115.58 259.736 1117.05C261.236 1118.52 262.402 1120.36 263.236 1122.59C264.069 1124.8 264.486 1127.39 264.486 1130.36V1133.02H235.009V1127.02H255.372C255.372 1125.63 255.069 1124.39 254.463 1123.32C253.857 1122.24 253.016 1121.4 251.94 1120.8C250.88 1120.17 249.645 1119.86 248.236 1119.86C246.766 1119.86 245.463 1120.2 244.327 1120.89C243.205 1121.55 242.327 1122.45 241.69 1123.59C241.054 1124.71 240.728 1125.96 240.713 1127.34V1133.05C240.713 1134.77 241.031 1136.27 241.668 1137.52C242.319 1138.78 243.236 1139.75 244.418 1140.43C245.599 1141.11 247.001 1141.45 248.622 1141.45C249.698 1141.45 250.683 1141.3 251.577 1141C252.471 1140.7 253.236 1140.24 253.872 1139.64C254.509 1139.03 254.993 1138.29 255.327 1137.41L264.281 1138C263.827 1140.15 262.895 1142.03 261.486 1143.64C260.092 1145.23 258.289 1146.47 256.077 1147.36C253.88 1148.24 251.342 1148.68 248.463 1148.68ZM298.569 1123.05L289.706 1123.59C289.554 1122.83 289.229 1122.15 288.729 1121.55C288.229 1120.92 287.569 1120.43 286.751 1120.07C285.948 1119.69 284.986 1119.5 283.865 1119.5C282.365 1119.5 281.1 1119.82 280.069 1120.45C279.039 1121.08 278.524 1121.91 278.524 1122.95C278.524 1123.79 278.857 1124.49 279.524 1125.07C280.191 1125.64 281.335 1126.11 282.956 1126.45L289.274 1127.73C292.668 1128.42 295.198 1129.55 296.865 1131.09C298.532 1132.64 299.365 1134.67 299.365 1137.18C299.365 1139.47 298.691 1141.48 297.342 1143.2C296.009 1144.93 294.175 1146.28 291.842 1147.25C289.524 1148.2 286.85 1148.68 283.819 1148.68C279.198 1148.68 275.516 1147.72 272.774 1145.8C270.047 1143.86 268.448 1141.22 267.979 1137.89L277.501 1137.39C277.789 1138.8 278.486 1139.87 279.592 1140.61C280.698 1141.34 282.115 1141.7 283.842 1141.7C285.539 1141.7 286.903 1141.38 287.933 1140.73C288.979 1140.06 289.509 1139.2 289.524 1138.16C289.509 1137.28 289.138 1136.56 288.41 1136C287.683 1135.42 286.562 1134.98 285.047 1134.68L279.001 1133.48C275.592 1132.8 273.054 1131.61 271.388 1129.93C269.736 1128.25 268.91 1126.11 268.91 1123.5C268.91 1121.26 269.516 1119.33 270.729 1117.7C271.956 1116.08 273.675 1114.83 275.888 1113.95C278.115 1113.08 280.721 1112.64 283.706 1112.64C288.115 1112.64 291.585 1113.57 294.115 1115.43C296.66 1117.3 298.145 1119.83 298.569 1123.05ZM324.454 1099.27L309.454 1155H301.113L316.113 1099.27H324.454ZM369.089 1117.75H359.134C358.953 1116.46 358.581 1115.32 358.021 1114.32C357.46 1113.3 356.74 1112.44 355.862 1111.73C354.983 1111.02 353.968 1110.47 352.816 1110.09C351.68 1109.71 350.445 1109.52 349.112 1109.52C346.703 1109.52 344.604 1110.12 342.816 1111.32C341.028 1112.5 339.642 1114.23 338.657 1116.5C337.672 1118.76 337.18 1121.5 337.18 1124.73C337.18 1128.05 337.672 1130.83 338.657 1133.09C339.657 1135.35 341.051 1137.05 342.839 1138.2C344.627 1139.36 346.695 1139.93 349.044 1139.93C350.362 1139.93 351.581 1139.76 352.703 1139.41C353.839 1139.06 354.847 1138.55 355.725 1137.89C356.604 1137.2 357.331 1136.38 357.907 1135.41C358.498 1134.44 358.907 1133.33 359.134 1132.09L369.089 1132.14C368.831 1134.27 368.187 1136.33 367.157 1138.32C366.142 1140.29 364.771 1142.05 363.044 1143.61C361.331 1145.16 359.286 1146.39 356.907 1147.3C354.544 1148.19 351.869 1148.64 348.884 1148.64C344.733 1148.64 341.021 1147.7 337.748 1145.82C334.49 1143.94 331.915 1141.22 330.021 1137.66C328.142 1134.1 327.203 1129.79 327.203 1124.73C327.203 1119.65 328.157 1115.33 330.066 1111.77C331.975 1108.21 334.566 1105.5 337.839 1103.64C341.112 1101.76 344.794 1100.82 348.884 1100.82C351.581 1100.82 354.081 1101.2 356.384 1101.95C358.703 1102.71 360.756 1103.82 362.544 1105.27C364.331 1106.71 365.786 1108.48 366.907 1110.57C368.044 1112.66 368.771 1115.05 369.089 1117.75ZM400.116 1114.84C399.934 1113.01 399.154 1111.58 397.775 1110.57C396.396 1109.55 394.525 1109.05 392.161 1109.05C390.555 1109.05 389.199 1109.27 388.093 1109.73C386.987 1110.17 386.138 1110.78 385.548 1111.57C384.972 1112.36 384.684 1113.25 384.684 1114.25C384.654 1115.08 384.828 1115.81 385.207 1116.43C385.601 1117.05 386.138 1117.59 386.82 1118.05C387.502 1118.48 388.29 1118.87 389.184 1119.2C390.078 1119.52 391.032 1119.8 392.048 1120.02L396.229 1121.02C398.26 1121.48 400.123 1122.08 401.82 1122.84C403.517 1123.6 404.987 1124.53 406.229 1125.64C407.472 1126.74 408.434 1128.05 409.116 1129.55C409.813 1131.05 410.169 1132.77 410.184 1134.7C410.169 1137.55 409.442 1140.02 408.002 1142.11C406.578 1144.19 404.517 1145.8 401.82 1146.95C399.138 1148.09 395.904 1148.66 392.116 1148.66C388.358 1148.66 385.085 1148.08 382.298 1146.93C379.525 1145.78 377.358 1144.08 375.798 1141.82C374.252 1139.55 373.442 1136.73 373.366 1133.39H382.888C382.995 1134.95 383.442 1136.25 384.229 1137.3C385.032 1138.33 386.101 1139.11 387.434 1139.64C388.782 1140.15 390.305 1140.41 392.002 1140.41C393.669 1140.41 395.116 1140.17 396.343 1139.68C397.585 1139.2 398.548 1138.52 399.229 1137.66C399.911 1136.8 400.252 1135.8 400.252 1134.68C400.252 1133.64 399.942 1132.76 399.32 1132.05C398.714 1131.33 397.82 1130.73 396.638 1130.23C395.472 1129.73 394.04 1129.27 392.343 1128.86L387.275 1127.59C383.351 1126.64 380.252 1125.14 377.979 1123.11C375.707 1121.08 374.578 1118.35 374.593 1114.91C374.578 1112.09 375.328 1109.63 376.843 1107.52C378.373 1105.42 380.472 1103.77 383.138 1102.59C385.805 1101.41 388.835 1100.82 392.229 1100.82C395.684 1100.82 398.699 1101.41 401.275 1102.59C403.866 1103.77 405.881 1105.42 407.32 1107.52C408.76 1109.63 409.502 1112.07 409.548 1114.84H400.116ZM437.078 1148H426.533L442.601 1101.45H455.283L471.328 1148H460.783L449.124 1112.09H448.76L437.078 1148ZM436.419 1129.7H461.328V1137.39H436.419V1129.7ZM503.702 1123.05L494.838 1123.59C494.687 1122.83 494.361 1122.15 493.861 1121.55C493.361 1120.92 492.702 1120.43 491.884 1120.07C491.081 1119.69 490.119 1119.5 488.997 1119.5C487.497 1119.5 486.232 1119.82 485.202 1120.45C484.172 1121.08 483.656 1121.91 483.656 1122.95C483.656 1123.79 483.99 1124.49 484.656 1125.07C485.323 1125.64 486.467 1126.11 488.088 1126.45L494.406 1127.73C497.8 1128.42 500.331 1129.55 501.997 1131.09C503.664 1132.64 504.497 1134.67 504.497 1137.18C504.497 1139.47 503.823 1141.48 502.475 1143.2C501.141 1144.93 499.308 1146.28 496.975 1147.25C494.656 1148.2 491.982 1148.68 488.952 1148.68C484.331 1148.68 480.649 1147.72 477.906 1145.8C475.179 1143.86 473.581 1141.22 473.111 1137.89L482.634 1137.39C482.922 1138.8 483.619 1139.87 484.725 1140.61C485.831 1141.34 487.247 1141.7 488.975 1141.7C490.672 1141.7 492.035 1141.38 493.066 1140.73C494.111 1140.06 494.641 1139.2 494.656 1138.16C494.641 1137.28 494.27 1136.56 493.543 1136C492.816 1135.42 491.694 1134.98 490.179 1134.68L484.134 1133.48C480.725 1132.8 478.187 1131.61 476.52 1129.93C474.869 1128.25 474.043 1126.11 474.043 1123.5C474.043 1121.26 474.649 1119.33 475.861 1117.7C477.088 1116.08 478.808 1114.83 481.02 1113.95C483.247 1113.08 485.853 1112.64 488.838 1112.64C493.247 1112.64 496.717 1113.57 499.247 1115.43C501.793 1117.3 503.278 1119.83 503.702 1123.05ZM538.359 1123.05L529.496 1123.59C529.344 1122.83 529.018 1122.15 528.518 1121.55C528.018 1120.92 527.359 1120.43 526.541 1120.07C525.738 1119.69 524.776 1119.5 523.655 1119.5C522.155 1119.5 520.89 1119.82 519.859 1120.45C518.829 1121.08 518.314 1121.91 518.314 1122.95C518.314 1123.79 518.647 1124.49 519.314 1125.07C519.981 1125.64 521.125 1126.11 522.746 1126.45L529.064 1127.73C532.458 1128.42 534.988 1129.55 536.655 1131.09C538.322 1132.64 539.155 1134.67 539.155 1137.18C539.155 1139.47 538.481 1141.48 537.132 1143.2C535.799 1144.93 533.965 1146.28 531.632 1147.25C529.314 1148.2 526.64 1148.68 523.609 1148.68C518.988 1148.68 515.306 1147.72 512.564 1145.8C509.837 1143.86 508.238 1141.22 507.768 1137.89L517.291 1137.39C517.579 1138.8 518.276 1139.87 519.382 1140.61C520.488 1141.34 521.905 1141.7 523.632 1141.7C525.329 1141.7 526.693 1141.38 527.723 1140.73C528.769 1140.06 529.299 1139.2 529.314 1138.16C529.299 1137.28 528.928 1136.56 528.2 1136C527.473 1135.42 526.352 1134.98 524.837 1134.68L518.791 1133.48C515.382 1132.8 512.844 1131.61 511.178 1129.93C509.526 1128.25 508.7 1126.11 508.7 1123.5C508.7 1121.26 509.306 1119.33 510.518 1117.7C511.746 1116.08 513.465 1114.83 515.678 1113.95C517.905 1113.08 520.511 1112.64 523.496 1112.64C527.905 1112.64 531.375 1113.57 533.905 1115.43C536.45 1117.3 537.935 1119.83 538.359 1123.05ZM543.971 1148V1113.09H553.653V1148H543.971ZM548.835 1108.59C547.396 1108.59 546.161 1108.11 545.131 1107.16C544.115 1106.19 543.608 1105.03 543.608 1103.68C543.608 1102.35 544.115 1101.2 545.131 1100.25C546.161 1099.28 547.396 1098.8 548.835 1098.8C550.275 1098.8 551.502 1099.28 552.517 1100.25C553.547 1101.2 554.062 1102.35 554.062 1103.68C554.062 1105.03 553.547 1106.19 552.517 1107.16C551.502 1108.11 550.275 1108.59 548.835 1108.59ZM589.174 1123.05L580.311 1123.59C580.159 1122.83 579.834 1122.15 579.334 1121.55C578.834 1120.92 578.174 1120.43 577.356 1120.07C576.553 1119.69 575.591 1119.5 574.47 1119.5C572.97 1119.5 571.705 1119.82 570.674 1120.45C569.644 1121.08 569.129 1121.91 569.129 1122.95C569.129 1123.79 569.462 1124.49 570.129 1125.07C570.796 1125.64 571.94 1126.11 573.561 1126.45L579.879 1127.73C583.273 1128.42 585.803 1129.55 587.47 1131.09C589.137 1132.64 589.97 1134.67 589.97 1137.18C589.97 1139.47 589.296 1141.48 587.947 1143.2C586.614 1144.93 584.78 1146.28 582.447 1147.25C580.129 1148.2 577.455 1148.68 574.424 1148.68C569.803 1148.68 566.121 1147.72 563.379 1145.8C560.652 1143.86 559.053 1141.22 558.584 1137.89L568.106 1137.39C568.394 1138.8 569.091 1139.87 570.197 1140.61C571.303 1141.34 572.72 1141.7 574.447 1141.7C576.144 1141.7 577.508 1141.38 578.538 1140.73C579.584 1140.06 580.114 1139.2 580.129 1138.16C580.114 1137.28 579.743 1136.56 579.015 1136C578.288 1135.42 577.167 1134.98 575.652 1134.68L569.606 1133.48C566.197 1132.8 563.659 1131.61 561.993 1129.93C560.341 1128.25 559.515 1126.11 559.515 1123.5C559.515 1121.26 560.121 1119.33 561.334 1117.7C562.561 1116.08 564.28 1114.83 566.493 1113.95C568.72 1113.08 571.326 1112.64 574.311 1112.64C578.72 1112.64 582.19 1113.57 584.72 1115.43C587.265 1117.3 588.75 1119.83 589.174 1123.05ZM613.355 1113.09V1120.36H592.332V1113.09H613.355ZM597.105 1104.73H606.786V1137.27C606.786 1138.17 606.923 1138.86 607.196 1139.36C607.468 1139.85 607.847 1140.19 608.332 1140.39C608.832 1140.58 609.408 1140.68 610.059 1140.68C610.514 1140.68 610.968 1140.64 611.423 1140.57C611.877 1140.48 612.226 1140.41 612.468 1140.36L613.991 1147.57C613.506 1147.72 612.824 1147.89 611.946 1148.09C611.067 1148.3 609.999 1148.43 608.741 1148.48C606.408 1148.57 604.362 1148.26 602.605 1147.55C600.862 1146.83 599.506 1145.73 598.536 1144.23C597.567 1142.73 597.089 1140.83 597.105 1138.55V1104.73Z" fill="#43A862"></path><path d="M1286.15 413H1275.6L1291.67 366.455H1304.35L1320.4 413H1309.85L1298.19 377.091H1297.83L1286.15 413ZM1285.49 394.705H1310.4V402.386H1285.49V394.705ZM1338.69 413.682C1335.11 413.682 1332.04 412.924 1329.46 411.409C1326.9 409.879 1324.93 407.758 1323.55 405.045C1322.19 402.333 1321.5 399.212 1321.5 395.682C1321.5 392.106 1322.19 388.97 1323.57 386.273C1324.97 383.561 1326.94 381.447 1329.5 379.932C1332.07 378.402 1335.11 377.636 1338.64 377.636C1341.69 377.636 1344.35 378.189 1346.64 379.295C1348.93 380.402 1350.74 381.955 1352.07 383.955C1353.41 385.955 1354.14 388.303 1354.28 391H1345.14C1344.88 389.258 1344.2 387.856 1343.1 386.795C1342 385.72 1340.57 385.182 1338.8 385.182C1337.3 385.182 1335.99 385.591 1334.87 386.409C1333.76 387.212 1332.9 388.386 1332.28 389.932C1331.66 391.477 1331.35 393.348 1331.35 395.545C1331.35 397.773 1331.65 399.667 1332.25 401.227C1332.88 402.788 1333.75 403.977 1334.87 404.795C1335.99 405.614 1337.3 406.023 1338.8 406.023C1339.91 406.023 1340.9 405.795 1341.78 405.341C1342.67 404.886 1343.41 404.227 1343.98 403.364C1344.57 402.485 1344.96 401.432 1345.14 400.205H1354.28C1354.13 402.871 1353.4 405.22 1352.1 407.25C1350.81 409.265 1349.03 410.841 1346.75 411.977C1344.48 413.114 1341.79 413.682 1338.69 413.682ZM1377.76 378.091V385.364H1356.74V378.091H1377.76ZM1361.51 369.727H1371.2V402.273C1371.2 403.167 1371.33 403.864 1371.61 404.364C1371.88 404.848 1372.26 405.189 1372.74 405.386C1373.24 405.583 1373.82 405.682 1374.47 405.682C1374.92 405.682 1375.38 405.644 1375.83 405.568C1376.29 405.477 1376.64 405.409 1376.88 405.364L1378.4 412.568C1377.92 412.72 1377.23 412.894 1376.36 413.091C1375.48 413.303 1374.41 413.432 1373.15 413.477C1370.82 413.568 1368.77 413.258 1367.01 412.545C1365.27 411.833 1363.92 410.727 1362.95 409.227C1361.98 407.727 1361.5 405.833 1361.51 403.545V369.727ZM1382.79 413V378.091H1392.47V413H1382.79ZM1387.66 373.591C1386.22 373.591 1384.98 373.114 1383.95 372.159C1382.94 371.189 1382.43 370.03 1382.43 368.682C1382.43 367.348 1382.94 366.205 1383.95 365.25C1384.98 364.28 1386.22 363.795 1387.66 363.795C1389.09 363.795 1390.32 364.28 1391.34 365.25C1392.37 366.205 1392.88 367.348 1392.88 368.682C1392.88 370.03 1392.37 371.189 1391.34 372.159C1390.32 373.114 1389.09 373.591 1387.66 373.591ZM1431.49 378.091L1419.29 413H1408.38L1396.18 378.091H1406.4L1413.65 403.068H1414.02L1421.24 378.091H1431.49ZM1444.19 413.659C1441.96 413.659 1439.97 413.273 1438.23 412.5C1436.49 411.712 1435.11 410.553 1434.1 409.023C1433.1 407.477 1432.6 405.553 1432.6 403.25C1432.6 401.311 1432.95 399.682 1433.66 398.364C1434.38 397.045 1435.35 395.985 1436.57 395.182C1437.8 394.379 1439.19 393.773 1440.75 393.364C1442.33 392.955 1443.98 392.667 1445.71 392.5C1447.74 392.288 1449.38 392.091 1450.62 391.909C1451.86 391.712 1452.76 391.424 1453.32 391.045C1453.88 390.667 1454.16 390.106 1454.16 389.364V389.227C1454.16 387.788 1453.71 386.674 1452.8 385.886C1451.91 385.098 1450.63 384.705 1448.98 384.705C1447.24 384.705 1445.85 385.091 1444.82 385.864C1443.79 386.621 1443.11 387.576 1442.78 388.727L1433.82 388C1434.28 385.879 1435.17 384.045 1436.5 382.5C1437.84 380.939 1439.56 379.742 1441.66 378.909C1443.78 378.061 1446.24 377.636 1449.03 377.636C1450.97 377.636 1452.82 377.864 1454.6 378.318C1456.38 378.773 1457.97 379.477 1459.35 380.432C1460.74 381.386 1461.84 382.614 1462.64 384.114C1463.44 385.598 1463.85 387.379 1463.85 389.455V413H1454.66V408.159H1454.39C1453.83 409.25 1453.08 410.212 1452.14 411.045C1451.2 411.864 1450.07 412.508 1448.75 412.977C1447.44 413.432 1445.91 413.659 1444.19 413.659ZM1446.96 406.977C1448.38 406.977 1449.64 406.697 1450.73 406.136C1451.82 405.561 1452.68 404.788 1453.3 403.818C1453.92 402.848 1454.23 401.75 1454.23 400.523V396.818C1453.93 397.015 1453.51 397.197 1452.98 397.364C1452.47 397.515 1451.88 397.659 1451.23 397.795C1450.58 397.917 1449.93 398.03 1449.28 398.136C1448.63 398.227 1448.03 398.311 1447.5 398.386C1446.37 398.553 1445.38 398.818 1444.53 399.182C1443.68 399.545 1443.02 400.038 1442.55 400.659C1442.08 401.265 1441.85 402.023 1441.85 402.932C1441.85 404.25 1442.32 405.258 1443.28 405.955C1444.25 406.636 1445.47 406.977 1446.96 406.977ZM1488.64 378.091V385.364H1467.62V378.091H1488.64ZM1472.39 369.727H1482.08V402.273C1482.08 403.167 1482.21 403.864 1482.49 404.364C1482.76 404.848 1483.14 405.189 1483.62 405.386C1484.12 405.583 1484.7 405.682 1485.35 405.682C1485.8 405.682 1486.26 405.644 1486.71 405.568C1487.17 405.477 1487.52 405.409 1487.76 405.364L1489.28 412.568C1488.8 412.72 1488.11 412.894 1487.24 413.091C1486.36 413.303 1485.29 413.432 1484.03 413.477C1481.7 413.568 1479.65 413.258 1477.89 412.545C1476.15 411.833 1474.8 410.727 1473.83 409.227C1472.86 407.727 1472.38 405.833 1472.39 403.545V369.727ZM1493.67 413V378.091H1503.35V413H1493.67ZM1498.54 373.591C1497.1 373.591 1495.86 373.114 1494.83 372.159C1493.82 371.189 1493.31 370.03 1493.31 368.682C1493.31 367.348 1493.82 366.205 1494.83 365.25C1495.86 364.28 1497.1 363.795 1498.54 363.795C1499.97 363.795 1501.2 364.28 1502.22 365.25C1503.25 366.205 1503.76 367.348 1503.76 368.682C1503.76 370.03 1503.25 371.189 1502.22 372.159C1501.2 373.114 1499.97 373.591 1498.54 373.591ZM1525.6 413.682C1522.07 413.682 1519.02 412.932 1516.44 411.432C1513.88 409.917 1511.9 407.811 1510.51 405.114C1509.12 402.402 1508.42 399.258 1508.42 395.682C1508.42 392.076 1509.12 388.924 1510.51 386.227C1511.9 383.515 1513.88 381.409 1516.44 379.909C1519.02 378.394 1522.07 377.636 1525.6 377.636C1529.13 377.636 1532.18 378.394 1534.74 379.909C1537.31 381.409 1539.3 383.515 1540.69 386.227C1542.09 388.924 1542.78 392.076 1542.78 395.682C1542.78 399.258 1542.09 402.402 1540.69 405.114C1539.3 407.811 1537.31 409.917 1534.74 411.432C1532.18 412.932 1529.13 413.682 1525.6 413.682ZM1525.65 406.182C1527.25 406.182 1528.59 405.727 1529.67 404.818C1530.75 403.894 1531.56 402.636 1532.1 401.045C1532.66 399.455 1532.94 397.644 1532.94 395.614C1532.94 393.583 1532.66 391.773 1532.1 390.182C1531.56 388.591 1530.75 387.333 1529.67 386.409C1528.59 385.485 1527.25 385.023 1525.65 385.023C1524.03 385.023 1522.66 385.485 1521.56 386.409C1520.47 387.333 1519.64 388.591 1519.08 390.182C1518.53 391.773 1518.26 393.583 1518.26 395.614C1518.26 397.644 1518.53 399.455 1519.08 401.045C1519.64 402.636 1520.47 403.894 1521.56 404.818C1522.66 405.727 1524.03 406.182 1525.65 406.182ZM1557.48 392.818V413H1547.8V378.091H1557.03V384.25H1557.44C1558.21 382.22 1559.5 380.614 1561.32 379.432C1563.14 378.235 1565.34 377.636 1567.94 377.636C1570.36 377.636 1572.47 378.167 1574.28 379.227C1576.08 380.288 1577.48 381.803 1578.48 383.773C1579.48 385.727 1579.98 388.061 1579.98 390.773V413H1570.3V392.5C1570.31 390.364 1569.77 388.697 1568.66 387.5C1567.56 386.288 1566.03 385.682 1564.09 385.682C1562.79 385.682 1561.64 385.962 1560.64 386.523C1559.66 387.083 1558.88 387.902 1558.32 388.977C1557.78 390.038 1557.5 391.318 1557.48 392.818Z" fill="#43A862"></path><path d="M1406.08 1101.45H1415.92V1131.68C1415.92 1135.08 1415.11 1138.05 1413.49 1140.59C1411.88 1143.14 1409.63 1145.12 1406.74 1146.55C1403.85 1147.95 1400.47 1148.66 1396.63 1148.66C1392.76 1148.66 1389.38 1147.95 1386.49 1146.55C1383.6 1145.12 1381.35 1143.14 1379.74 1140.59C1378.13 1138.05 1377.33 1135.08 1377.33 1131.68V1101.45H1387.17V1130.84C1387.17 1132.61 1387.56 1134.19 1388.33 1135.57C1389.12 1136.95 1390.22 1138.03 1391.65 1138.82C1393.07 1139.61 1394.73 1140 1396.63 1140C1398.54 1140 1400.19 1139.61 1401.6 1138.82C1403.03 1138.03 1404.13 1136.95 1404.9 1135.57C1405.69 1134.19 1406.08 1132.61 1406.08 1130.84V1101.45ZM1422.56 1161.09V1113.09H1432.1V1118.95H1432.53C1432.96 1118.02 1433.57 1117.06 1434.37 1116.09C1435.19 1115.11 1436.25 1114.29 1437.56 1113.64C1438.87 1112.97 1440.51 1112.64 1442.47 1112.64C1445.01 1112.64 1447.36 1113.3 1449.51 1114.64C1451.66 1115.95 1453.38 1117.95 1454.67 1120.61C1455.96 1123.27 1456.6 1126.59 1456.6 1130.59C1456.6 1134.48 1455.97 1137.77 1454.72 1140.45C1453.47 1143.12 1451.78 1145.14 1449.62 1146.52C1447.49 1147.89 1445.09 1148.57 1442.44 1148.57C1440.56 1148.57 1438.97 1148.26 1437.65 1147.64C1436.34 1147.02 1435.28 1146.23 1434.44 1145.3C1433.61 1144.34 1432.97 1143.38 1432.53 1142.41H1432.24V1161.09H1422.56ZM1432.03 1130.55C1432.03 1132.62 1432.32 1134.43 1432.9 1135.98C1433.47 1137.52 1434.31 1138.73 1435.4 1139.59C1436.49 1140.44 1437.81 1140.86 1439.37 1140.86C1440.95 1140.86 1442.28 1140.43 1443.37 1139.57C1444.47 1138.69 1445.29 1137.48 1445.85 1135.93C1446.43 1134.37 1446.72 1132.58 1446.72 1130.55C1446.72 1128.53 1446.44 1126.76 1445.87 1125.23C1445.31 1123.7 1444.49 1122.5 1443.4 1121.64C1442.31 1120.77 1440.97 1120.34 1439.37 1120.34C1437.8 1120.34 1436.47 1120.76 1435.37 1121.59C1434.3 1122.42 1433.47 1123.61 1432.9 1125.14C1432.32 1126.67 1432.03 1128.47 1432.03 1130.55ZM1477.5 1161.82C1474.37 1161.82 1471.68 1161.39 1469.44 1160.52C1467.21 1159.67 1465.44 1158.52 1464.12 1157.05C1462.8 1155.58 1461.94 1153.92 1461.55 1152.09L1470.5 1150.89C1470.78 1151.58 1471.21 1152.23 1471.8 1152.84C1472.39 1153.45 1473.17 1153.93 1474.14 1154.3C1475.12 1154.67 1476.32 1154.86 1477.73 1154.86C1479.84 1154.86 1481.57 1154.35 1482.94 1153.32C1484.31 1152.3 1485 1150.6 1485 1148.2V1141.82H1484.59C1484.17 1142.79 1483.53 1143.7 1482.69 1144.57C1481.84 1145.43 1480.75 1146.14 1479.41 1146.68C1478.08 1147.23 1476.49 1147.5 1474.64 1147.5C1472.02 1147.5 1469.63 1146.89 1467.48 1145.68C1465.34 1144.45 1463.64 1142.58 1462.37 1140.07C1461.11 1137.54 1460.48 1134.34 1460.48 1130.48C1460.48 1126.52 1461.12 1123.22 1462.41 1120.57C1463.7 1117.92 1465.41 1115.93 1467.55 1114.61C1469.7 1113.3 1472.06 1112.64 1474.62 1112.64C1476.57 1112.64 1478.21 1112.97 1479.53 1113.64C1480.84 1114.29 1481.91 1115.11 1482.71 1116.09C1483.53 1117.06 1484.16 1118.02 1484.59 1118.95H1484.96V1113.09H1494.57V1148.34C1494.57 1151.31 1493.84 1153.8 1492.39 1155.8C1490.94 1157.8 1488.92 1159.3 1486.34 1160.3C1483.78 1161.31 1480.84 1161.82 1477.5 1161.82ZM1477.71 1140.23C1479.27 1140.23 1480.59 1139.84 1481.66 1139.07C1482.75 1138.28 1483.59 1137.16 1484.16 1135.7C1484.75 1134.23 1485.05 1132.48 1485.05 1130.43C1485.05 1128.39 1484.76 1126.61 1484.19 1125.11C1483.61 1123.6 1482.78 1122.42 1481.69 1121.59C1480.59 1120.76 1479.27 1120.34 1477.71 1120.34C1476.12 1120.34 1474.78 1120.77 1473.69 1121.64C1472.59 1122.48 1471.77 1123.67 1471.21 1125.18C1470.65 1126.7 1470.37 1128.45 1470.37 1130.43C1470.37 1132.45 1470.65 1134.19 1471.21 1135.66C1471.78 1137.11 1472.61 1138.24 1473.69 1139.05C1474.78 1139.83 1476.12 1140.23 1477.71 1140.23ZM1501 1148V1113.09H1510.38V1119.18H1510.75C1511.38 1117.02 1512.45 1115.38 1513.95 1114.27C1515.45 1113.15 1517.18 1112.59 1519.13 1112.59C1519.62 1112.59 1520.14 1112.62 1520.7 1112.68C1521.26 1112.74 1521.75 1112.83 1522.18 1112.93V1121.52C1521.72 1121.39 1521.09 1121.27 1520.29 1121.16C1519.49 1121.05 1518.75 1121 1518.09 1121C1516.66 1121 1515.39 1121.31 1514.27 1121.93C1513.16 1122.54 1512.28 1123.39 1511.63 1124.48C1511 1125.57 1510.68 1126.83 1510.68 1128.25V1148H1501ZM1534.86 1148.66C1532.63 1148.66 1530.65 1148.27 1528.9 1147.5C1527.16 1146.71 1525.78 1145.55 1524.77 1144.02C1523.77 1142.48 1523.27 1140.55 1523.27 1138.25C1523.27 1136.31 1523.62 1134.68 1524.34 1133.36C1525.05 1132.05 1526.02 1130.98 1527.24 1130.18C1528.47 1129.38 1529.87 1128.77 1531.43 1128.36C1533 1127.95 1534.65 1127.67 1536.38 1127.5C1538.41 1127.29 1540.05 1127.09 1541.29 1126.91C1542.53 1126.71 1543.43 1126.42 1543.99 1126.05C1544.56 1125.67 1544.84 1125.11 1544.84 1124.36V1124.23C1544.84 1122.79 1544.38 1121.67 1543.47 1120.89C1542.58 1120.1 1541.31 1119.7 1539.65 1119.7C1537.91 1119.7 1536.53 1120.09 1535.49 1120.86C1534.46 1121.62 1533.78 1122.58 1533.45 1123.73L1524.49 1123C1524.95 1120.88 1525.84 1119.05 1527.18 1117.5C1528.51 1115.94 1530.23 1114.74 1532.34 1113.91C1534.46 1113.06 1536.91 1112.64 1539.7 1112.64C1541.64 1112.64 1543.49 1112.86 1545.27 1113.32C1547.06 1113.77 1548.64 1114.48 1550.02 1115.43C1551.41 1116.39 1552.51 1117.61 1553.31 1119.11C1554.12 1120.6 1554.52 1122.38 1554.52 1124.45V1148H1545.34V1143.16H1545.06C1544.5 1144.25 1543.75 1145.21 1542.81 1146.05C1541.87 1146.86 1540.74 1147.51 1539.43 1147.98C1538.11 1148.43 1536.59 1148.66 1534.86 1148.66ZM1537.63 1141.98C1539.06 1141.98 1540.31 1141.7 1541.4 1141.14C1542.49 1140.56 1543.35 1139.79 1543.97 1138.82C1544.59 1137.85 1544.9 1136.75 1544.9 1135.52V1131.82C1544.6 1132.02 1544.18 1132.2 1543.65 1132.36C1543.14 1132.52 1542.56 1132.66 1541.9 1132.8C1541.25 1132.92 1540.6 1133.03 1539.95 1133.14C1539.3 1133.23 1538.71 1133.31 1538.18 1133.39C1537.04 1133.55 1536.05 1133.82 1535.2 1134.18C1534.35 1134.55 1533.69 1135.04 1533.22 1135.66C1532.75 1136.27 1532.52 1137.02 1532.52 1137.93C1532.52 1139.25 1532.99 1140.26 1533.95 1140.95C1534.92 1141.64 1536.15 1141.98 1537.63 1141.98ZM1573.61 1148.57C1570.96 1148.57 1568.56 1147.89 1566.41 1146.52C1564.27 1145.14 1562.57 1143.12 1561.32 1140.45C1560.07 1137.77 1559.45 1134.48 1559.45 1130.59C1559.45 1126.59 1560.1 1123.27 1561.39 1120.61C1562.67 1117.95 1564.39 1115.95 1566.52 1114.64C1568.67 1113.3 1571.03 1112.64 1573.59 1112.64C1575.54 1112.64 1577.17 1112.97 1578.48 1113.64C1579.79 1114.29 1580.86 1115.11 1581.66 1116.09C1582.48 1117.06 1583.1 1118.02 1583.52 1118.95H1583.82V1101.45H1593.48V1148H1583.93V1142.41H1583.52C1583.07 1143.38 1582.42 1144.34 1581.59 1145.3C1580.77 1146.23 1579.7 1147.02 1578.39 1147.64C1577.08 1148.26 1575.49 1148.57 1573.61 1148.57ZM1576.68 1140.86C1578.24 1140.86 1579.56 1140.44 1580.64 1139.59C1581.73 1138.73 1582.56 1137.52 1583.14 1135.98C1583.73 1134.43 1584.02 1132.62 1584.02 1130.55C1584.02 1128.47 1583.73 1126.67 1583.16 1125.14C1582.58 1123.61 1581.75 1122.42 1580.66 1121.59C1579.57 1120.76 1578.24 1120.34 1576.68 1120.34C1575.09 1120.34 1573.75 1120.77 1572.66 1121.64C1571.57 1122.5 1570.74 1123.7 1570.18 1125.23C1569.62 1126.76 1569.34 1128.53 1569.34 1130.55C1569.34 1132.58 1569.62 1134.37 1570.18 1135.93C1570.76 1137.48 1571.58 1138.69 1572.66 1139.57C1573.75 1140.43 1575.09 1140.86 1576.68 1140.86ZM1616.07 1148.68C1612.47 1148.68 1609.38 1147.95 1606.79 1146.5C1604.22 1145.03 1602.23 1142.95 1600.84 1140.27C1599.44 1137.58 1598.75 1134.39 1598.75 1130.7C1598.75 1127.11 1599.44 1123.96 1600.84 1121.25C1602.23 1118.54 1604.19 1116.42 1606.72 1114.91C1609.27 1113.39 1612.25 1112.64 1615.68 1112.64C1617.98 1112.64 1620.13 1113.01 1622.11 1113.75C1624.11 1114.48 1625.85 1115.58 1627.34 1117.05C1628.84 1118.52 1630 1120.36 1630.84 1122.59C1631.67 1124.8 1632.09 1127.39 1632.09 1130.36V1133.02H1602.61V1127.02H1622.97C1622.97 1125.63 1622.67 1124.39 1622.07 1123.32C1621.46 1122.24 1620.62 1121.4 1619.54 1120.8C1618.48 1120.17 1617.25 1119.86 1615.84 1119.86C1614.37 1119.86 1613.07 1120.2 1611.93 1120.89C1610.81 1121.55 1609.93 1122.45 1609.29 1123.59C1608.66 1124.71 1608.33 1125.96 1608.32 1127.34V1133.05C1608.32 1134.77 1608.63 1136.27 1609.27 1137.52C1609.92 1138.78 1610.84 1139.75 1612.02 1140.43C1613.2 1141.11 1614.6 1141.45 1616.22 1141.45C1617.3 1141.45 1618.29 1141.3 1619.18 1141C1620.07 1140.7 1620.84 1140.24 1621.47 1139.64C1622.11 1139.03 1622.6 1138.29 1622.93 1137.41L1631.88 1138C1631.43 1140.15 1630.5 1142.03 1629.09 1143.64C1627.69 1145.23 1625.89 1146.47 1623.68 1147.36C1621.48 1148.24 1618.94 1148.68 1616.07 1148.68Z" fill="#43A862"></path><path d="M2361.2 413V366.455H2379.57C2383.1 366.455 2386.1 367.129 2388.59 368.477C2391.07 369.811 2392.97 371.667 2394.27 374.045C2395.59 376.409 2396.25 379.136 2396.25 382.227C2396.25 385.318 2395.58 388.045 2394.25 390.409C2392.92 392.773 2390.98 394.614 2388.45 395.932C2385.94 397.25 2382.89 397.909 2379.32 397.909H2367.61V390.023H2377.73C2379.62 390.023 2381.18 389.697 2382.41 389.045C2383.65 388.379 2384.57 387.462 2385.18 386.295C2385.8 385.114 2386.11 383.758 2386.11 382.227C2386.11 380.682 2385.8 379.333 2385.18 378.182C2384.57 377.015 2383.65 376.114 2382.41 375.477C2381.17 374.826 2379.59 374.5 2377.68 374.5H2371.04V413H2361.2ZM2418.93 396.818H2427.29L2431.5 402.227L2435.63 407.045L2443.43 416.818H2434.25L2428.88 410.227L2426.13 406.318L2418.93 396.818ZM2444.13 389.727C2444.13 394.803 2443.17 399.121 2441.25 402.682C2439.34 406.242 2436.73 408.962 2433.43 410.841C2430.14 412.705 2426.44 413.636 2422.34 413.636C2418.2 413.636 2414.49 412.697 2411.2 410.818C2407.91 408.939 2405.32 406.22 2403.41 402.659C2401.5 399.098 2400.54 394.788 2400.54 389.727C2400.54 384.652 2401.5 380.333 2403.41 376.773C2405.32 373.212 2407.91 370.5 2411.2 368.636C2414.49 366.758 2418.2 365.818 2422.34 365.818C2426.44 365.818 2430.14 366.758 2433.43 368.636C2436.73 370.5 2439.34 373.212 2441.25 376.773C2443.17 380.333 2444.13 384.652 2444.13 389.727ZM2434.16 389.727C2434.16 386.439 2433.66 383.667 2432.68 381.409C2431.71 379.152 2430.34 377.439 2428.57 376.273C2426.79 375.106 2424.72 374.523 2422.34 374.523C2419.96 374.523 2417.88 375.106 2416.11 376.273C2414.34 377.439 2412.96 379.152 2411.97 381.409C2411 383.667 2410.52 386.439 2410.52 389.727C2410.52 393.015 2411 395.788 2411.97 398.045C2412.96 400.303 2414.34 402.015 2416.11 403.182C2417.88 404.348 2419.96 404.932 2422.34 404.932C2424.72 404.932 2426.79 404.348 2428.57 403.182C2430.34 402.015 2431.71 400.303 2432.68 398.045C2433.66 395.788 2434.16 393.015 2434.16 389.727ZM2450.14 413V366.455H2459.98V404.886H2479.94V413H2450.14ZM2523.96 379.841C2523.78 378.008 2523 376.583 2521.62 375.568C2520.24 374.553 2518.37 374.045 2516 374.045C2514.4 374.045 2513.04 374.273 2511.94 374.727C2510.83 375.167 2509.98 375.78 2509.39 376.568C2508.81 377.356 2508.53 378.25 2508.53 379.25C2508.5 380.083 2508.67 380.811 2509.05 381.432C2509.44 382.053 2509.98 382.591 2510.66 383.045C2511.34 383.485 2512.13 383.871 2513.03 384.205C2513.92 384.523 2514.87 384.795 2515.89 385.023L2520.07 386.023C2522.1 386.477 2523.97 387.083 2525.66 387.841C2527.36 388.598 2528.83 389.53 2530.07 390.636C2531.31 391.742 2532.28 393.045 2532.96 394.545C2533.66 396.045 2534.01 397.765 2534.03 399.705C2534.01 402.553 2533.28 405.023 2531.84 407.114C2530.42 409.189 2528.36 410.803 2525.66 411.955C2522.98 413.091 2519.75 413.659 2515.96 413.659C2512.2 413.659 2508.93 413.083 2506.14 411.932C2503.37 410.78 2501.2 409.076 2499.64 406.818C2498.09 404.545 2497.28 401.735 2497.21 398.386H2506.73C2506.84 399.947 2507.28 401.25 2508.07 402.295C2508.87 403.326 2509.94 404.106 2511.28 404.636C2512.62 405.152 2514.15 405.409 2515.84 405.409C2517.51 405.409 2518.96 405.167 2520.19 404.682C2521.43 404.197 2522.39 403.523 2523.07 402.659C2523.75 401.795 2524.09 400.803 2524.09 399.682C2524.09 398.636 2523.78 397.758 2523.16 397.045C2522.56 396.333 2521.66 395.727 2520.48 395.227C2519.31 394.727 2517.88 394.273 2516.19 393.864L2511.12 392.591C2507.19 391.636 2504.09 390.144 2501.82 388.114C2499.55 386.083 2498.42 383.348 2498.44 379.909C2498.42 377.091 2499.17 374.629 2500.69 372.523C2502.22 370.417 2504.31 368.773 2506.98 367.591C2509.65 366.409 2512.68 365.818 2516.07 365.818C2519.53 365.818 2522.54 366.409 2525.12 367.591C2527.71 368.773 2529.72 370.417 2531.16 372.523C2532.6 374.629 2533.34 377.068 2533.39 379.841H2523.96ZM2554.96 413.682C2551.38 413.682 2548.31 412.924 2545.73 411.409C2543.17 409.879 2541.2 407.758 2539.82 405.045C2538.46 402.333 2537.77 399.212 2537.77 395.682C2537.77 392.106 2538.46 388.97 2539.84 386.273C2541.24 383.561 2543.21 381.447 2545.77 379.932C2548.34 378.402 2551.38 377.636 2554.91 377.636C2557.96 377.636 2560.62 378.189 2562.91 379.295C2565.2 380.402 2567.01 381.955 2568.34 383.955C2569.68 385.955 2570.41 388.303 2570.55 391H2561.41C2561.15 389.258 2560.47 387.856 2559.37 386.795C2558.27 385.72 2556.84 385.182 2555.07 385.182C2553.57 385.182 2552.26 385.591 2551.14 386.409C2550.03 387.212 2549.17 388.386 2548.55 389.932C2547.93 391.477 2547.62 393.348 2547.62 395.545C2547.62 397.773 2547.92 399.667 2548.52 401.227C2549.15 402.788 2550.02 403.977 2551.14 404.795C2552.26 405.614 2553.57 406.023 2555.07 406.023C2556.18 406.023 2557.17 405.795 2558.05 405.341C2558.94 404.886 2559.68 404.227 2560.25 403.364C2560.84 402.485 2561.23 401.432 2561.41 400.205H2570.55C2570.4 402.871 2569.67 405.22 2568.37 407.25C2567.08 409.265 2565.3 410.841 2563.02 411.977C2560.75 413.114 2558.06 413.682 2554.96 413.682ZM2591.24 413.682C2587.71 413.682 2584.66 412.932 2582.08 411.432C2579.52 409.917 2577.54 407.811 2576.15 405.114C2574.75 402.402 2574.06 399.258 2574.06 395.682C2574.06 392.076 2574.75 388.924 2576.15 386.227C2577.54 383.515 2579.52 381.409 2582.08 379.909C2584.66 378.394 2587.71 377.636 2591.24 377.636C2594.77 377.636 2597.81 378.394 2600.38 379.909C2602.95 381.409 2604.94 383.515 2606.33 386.227C2607.72 388.924 2608.42 392.076 2608.42 395.682C2608.42 399.258 2607.72 402.402 2606.33 405.114C2604.94 407.811 2602.95 409.917 2600.38 411.432C2597.81 412.932 2594.77 413.682 2591.24 413.682ZM2591.28 406.182C2592.89 406.182 2594.23 405.727 2595.31 404.818C2596.38 403.894 2597.19 402.636 2597.74 401.045C2598.3 399.455 2598.58 397.644 2598.58 395.614C2598.58 393.583 2598.3 391.773 2597.74 390.182C2597.19 388.591 2596.38 387.333 2595.31 386.409C2594.23 385.485 2592.89 385.023 2591.28 385.023C2589.66 385.023 2588.3 385.485 2587.19 386.409C2586.1 387.333 2585.28 388.591 2584.72 390.182C2584.17 391.773 2583.9 393.583 2583.9 395.614C2583.9 397.644 2584.17 399.455 2584.72 401.045C2585.28 402.636 2586.1 403.894 2587.19 404.818C2588.3 405.727 2589.66 406.182 2591.28 406.182ZM2613.44 413V378.091H2622.82V384.182H2623.19C2623.82 382.015 2624.89 380.379 2626.39 379.273C2627.89 378.152 2629.62 377.591 2631.57 377.591C2632.06 377.591 2632.58 377.621 2633.14 377.682C2633.7 377.742 2634.19 377.826 2634.62 377.932V386.523C2634.16 386.386 2633.53 386.265 2632.73 386.159C2631.93 386.053 2631.19 386 2630.53 386C2629.1 386 2627.83 386.311 2626.71 386.932C2625.6 387.538 2624.72 388.386 2624.07 389.477C2623.44 390.568 2623.12 391.826 2623.12 393.25V413H2613.44ZM2638.34 413V378.091H2648.03V413H2638.34ZM2643.21 373.591C2641.77 373.591 2640.53 373.114 2639.5 372.159C2638.49 371.189 2637.98 370.03 2637.98 368.682C2637.98 367.348 2638.49 366.205 2639.5 365.25C2640.53 364.28 2641.77 363.795 2643.21 363.795C2644.65 363.795 2645.87 364.28 2646.89 365.25C2647.92 366.205 2648.43 367.348 2648.43 368.682C2648.43 370.03 2647.92 371.189 2646.89 372.159C2645.87 373.114 2644.65 373.591 2643.21 373.591ZM2664.18 392.818V413H2654.5V378.091H2663.73V384.25H2664.14C2664.91 382.22 2666.21 380.614 2668.02 379.432C2669.84 378.235 2672.05 377.636 2674.64 377.636C2677.06 377.636 2679.18 378.167 2680.98 379.227C2682.78 380.288 2684.18 381.803 2685.18 383.773C2686.18 385.727 2686.68 388.061 2686.68 390.773V413H2677V392.5C2677.02 390.364 2676.47 388.697 2675.37 387.5C2674.26 386.288 2672.74 385.682 2670.8 385.682C2669.49 385.682 2668.34 385.962 2667.34 386.523C2666.36 387.083 2665.58 387.902 2665.02 388.977C2664.48 390.038 2664.2 391.318 2664.18 392.818ZM2708.76 426.818C2705.62 426.818 2702.94 426.386 2700.69 425.523C2698.47 424.674 2696.69 423.515 2695.37 422.045C2694.06 420.576 2693.2 418.924 2692.81 417.091L2701.76 415.886C2702.03 416.583 2702.47 417.235 2703.06 417.841C2703.65 418.447 2704.43 418.932 2705.4 419.295C2706.38 419.674 2707.58 419.864 2708.99 419.864C2711.09 419.864 2712.83 419.348 2714.19 418.318C2715.57 417.303 2716.26 415.598 2716.26 413.205V406.818H2715.85C2715.43 407.788 2714.79 408.705 2713.94 409.568C2713.09 410.432 2712 411.136 2710.67 411.682C2709.34 412.227 2707.75 412.5 2705.9 412.5C2703.28 412.5 2700.89 411.894 2698.74 410.682C2696.6 409.455 2694.9 407.583 2693.62 405.068C2692.37 402.538 2691.74 399.341 2691.74 395.477C2691.74 391.523 2692.38 388.22 2693.67 385.568C2694.96 382.917 2696.67 380.932 2698.81 379.614C2700.96 378.295 2703.31 377.636 2705.87 377.636C2707.83 377.636 2709.47 377.97 2710.78 378.636C2712.1 379.288 2713.16 380.106 2713.97 381.091C2714.78 382.061 2715.41 383.015 2715.85 383.955H2716.22V378.091H2725.83V413.341C2725.83 416.311 2725.1 418.795 2723.65 420.795C2722.19 422.795 2720.18 424.295 2717.6 425.295C2715.04 426.311 2712.09 426.818 2708.76 426.818ZM2708.97 405.227C2710.53 405.227 2711.84 404.841 2712.92 404.068C2714.01 403.28 2714.84 402.159 2715.42 400.705C2716.01 399.235 2716.31 397.477 2716.31 395.432C2716.31 393.386 2716.02 391.614 2715.44 390.114C2714.87 388.598 2714.03 387.424 2712.94 386.591C2711.85 385.758 2710.53 385.341 2708.97 385.341C2707.37 385.341 2706.03 385.773 2704.94 386.636C2703.85 387.485 2703.03 388.667 2702.47 390.182C2701.91 391.697 2701.62 393.447 2701.62 395.432C2701.62 397.447 2701.91 399.189 2702.47 400.659C2703.04 402.114 2703.87 403.242 2704.94 404.045C2706.03 404.833 2707.37 405.227 2708.97 405.227Z" fill="#43A862"></path><path d="M2389.17 1148V1101.45H2420.54V1109.57H2399.01V1120.66H2418.92V1128.77H2399.01V1139.89H2420.63V1148H2389.17ZM2434.99 1113.09L2441.4 1125.3L2447.97 1113.09H2457.9L2447.79 1130.55L2458.17 1148H2448.29L2441.4 1135.93L2434.63 1148H2424.63L2434.99 1130.55L2424.99 1113.09H2434.99ZM2462.37 1161.09V1113.09H2471.91V1118.95H2472.35C2472.77 1118.02 2473.38 1117.06 2474.19 1116.09C2475.01 1115.11 2476.07 1114.29 2477.37 1113.64C2478.69 1112.97 2480.32 1112.64 2482.28 1112.64C2484.82 1112.64 2487.17 1113.3 2489.32 1114.64C2491.48 1115.95 2493.19 1117.95 2494.48 1120.61C2495.77 1123.27 2496.41 1126.59 2496.41 1130.59C2496.41 1134.48 2495.79 1137.77 2494.53 1140.45C2493.29 1143.12 2491.59 1145.14 2489.44 1146.52C2487.3 1147.89 2484.91 1148.57 2482.26 1148.57C2480.38 1148.57 2478.78 1148.26 2477.46 1147.64C2476.16 1147.02 2475.09 1146.23 2474.26 1145.3C2473.42 1144.34 2472.79 1143.38 2472.35 1142.41H2472.05V1161.09H2462.37ZM2471.85 1130.55C2471.85 1132.62 2472.13 1134.43 2472.71 1135.98C2473.29 1137.52 2474.12 1138.73 2475.21 1139.59C2476.3 1140.44 2477.63 1140.86 2479.19 1140.86C2480.76 1140.86 2482.1 1140.43 2483.19 1139.57C2484.28 1138.69 2485.1 1137.48 2485.66 1135.93C2486.24 1134.37 2486.53 1132.58 2486.53 1130.55C2486.53 1128.53 2486.25 1126.76 2485.69 1125.23C2485.13 1123.7 2484.3 1122.5 2483.21 1121.64C2482.12 1120.77 2480.78 1120.34 2479.19 1120.34C2477.61 1120.34 2476.28 1120.76 2475.19 1121.59C2474.11 1122.42 2473.29 1123.61 2472.71 1125.14C2472.13 1126.67 2471.85 1128.47 2471.85 1130.55ZM2511.54 1148.66C2509.32 1148.66 2507.33 1148.27 2505.59 1147.5C2503.85 1146.71 2502.47 1145.55 2501.45 1144.02C2500.45 1142.48 2499.95 1140.55 2499.95 1138.25C2499.95 1136.31 2500.31 1134.68 2501.02 1133.36C2501.73 1132.05 2502.7 1130.98 2503.93 1130.18C2505.16 1129.38 2506.55 1128.77 2508.11 1128.36C2509.69 1127.95 2511.34 1127.67 2513.07 1127.5C2515.1 1127.29 2516.73 1127.09 2517.98 1126.91C2519.22 1126.71 2520.12 1126.42 2520.68 1126.05C2521.24 1125.67 2521.52 1125.11 2521.52 1124.36V1124.23C2521.52 1122.79 2521.07 1121.67 2520.16 1120.89C2519.26 1120.1 2517.99 1119.7 2516.34 1119.7C2514.6 1119.7 2513.21 1120.09 2512.18 1120.86C2511.15 1121.62 2510.47 1122.58 2510.13 1123.73L2501.18 1123C2501.63 1120.88 2502.53 1119.05 2503.86 1117.5C2505.2 1115.94 2506.91 1114.74 2509.02 1113.91C2511.14 1113.06 2513.6 1112.64 2516.38 1112.64C2518.32 1112.64 2520.18 1112.86 2521.95 1113.32C2523.74 1113.77 2525.32 1114.48 2526.7 1115.43C2528.1 1116.39 2529.2 1117.61 2530 1119.11C2530.8 1120.6 2531.2 1122.38 2531.2 1124.45V1148H2522.02V1143.16H2521.75C2521.19 1144.25 2520.44 1145.21 2519.5 1146.05C2518.56 1146.86 2517.43 1147.51 2516.11 1147.98C2514.79 1148.43 2513.27 1148.66 2511.54 1148.66ZM2514.32 1141.98C2515.74 1141.98 2517 1141.7 2518.09 1141.14C2519.18 1140.56 2520.04 1139.79 2520.66 1138.82C2521.28 1137.85 2521.59 1136.75 2521.59 1135.52V1131.82C2521.29 1132.02 2520.87 1132.2 2520.34 1132.36C2519.82 1132.52 2519.24 1132.66 2518.59 1132.8C2517.94 1132.92 2517.29 1133.03 2516.63 1133.14C2515.98 1133.23 2515.39 1133.31 2514.86 1133.39C2513.73 1133.55 2512.73 1133.82 2511.88 1134.18C2511.04 1134.55 2510.38 1135.04 2509.91 1135.66C2509.44 1136.27 2509.2 1137.02 2509.2 1137.93C2509.2 1139.25 2509.68 1140.26 2510.63 1140.95C2511.6 1141.64 2512.83 1141.98 2514.32 1141.98ZM2547.12 1127.82V1148H2537.43V1113.09H2546.66V1119.25H2547.07C2547.84 1117.22 2549.14 1115.61 2550.96 1114.43C2552.77 1113.23 2554.98 1112.64 2557.57 1112.64C2559.99 1112.64 2562.11 1113.17 2563.91 1114.23C2565.71 1115.29 2567.12 1116.8 2568.12 1118.77C2569.12 1120.73 2569.62 1123.06 2569.62 1125.77V1148H2559.93V1127.5C2559.95 1125.36 2559.4 1123.7 2558.3 1122.5C2557.19 1121.29 2555.67 1120.68 2553.73 1120.68C2552.43 1120.68 2551.27 1120.96 2550.27 1121.52C2549.29 1122.08 2548.52 1122.9 2547.96 1123.98C2547.41 1125.04 2547.13 1126.32 2547.12 1127.82ZM2605.01 1123.05L2596.15 1123.59C2596 1122.83 2595.67 1122.15 2595.17 1121.55C2594.67 1120.92 2594.01 1120.43 2593.19 1120.07C2592.39 1119.69 2591.43 1119.5 2590.31 1119.5C2588.81 1119.5 2587.54 1119.82 2586.51 1120.45C2585.48 1121.08 2584.97 1121.91 2584.97 1122.95C2584.97 1123.79 2585.3 1124.49 2585.97 1125.07C2586.63 1125.64 2587.78 1126.11 2589.4 1126.45L2595.72 1127.73C2599.11 1128.42 2601.64 1129.55 2603.31 1131.09C2604.97 1132.64 2605.81 1134.67 2605.81 1137.18C2605.81 1139.47 2605.13 1141.48 2603.78 1143.2C2602.45 1144.93 2600.62 1146.28 2598.28 1147.25C2595.97 1148.2 2593.29 1148.68 2590.26 1148.68C2585.64 1148.68 2581.96 1147.72 2579.22 1145.8C2576.49 1143.86 2574.89 1141.22 2574.42 1137.89L2583.94 1137.39C2584.23 1138.8 2584.93 1139.87 2586.03 1140.61C2587.14 1141.34 2588.56 1141.7 2590.28 1141.7C2591.98 1141.7 2593.35 1141.38 2594.38 1140.73C2595.42 1140.06 2595.95 1139.2 2595.97 1138.16C2595.95 1137.28 2595.58 1136.56 2594.85 1136C2594.13 1135.42 2593 1134.98 2591.49 1134.68L2585.44 1133.48C2582.03 1132.8 2579.5 1131.61 2577.83 1129.93C2576.18 1128.25 2575.35 1126.11 2575.35 1123.5C2575.35 1121.26 2575.96 1119.33 2577.17 1117.7C2578.4 1116.08 2580.12 1114.83 2582.33 1113.95C2584.56 1113.08 2587.16 1112.64 2590.15 1112.64C2594.56 1112.64 2598.03 1113.57 2600.56 1115.43C2603.1 1117.3 2604.59 1119.83 2605.01 1123.05ZM2610.62 1148V1113.09H2620.31V1148H2610.62ZM2615.49 1108.59C2614.05 1108.59 2612.81 1108.11 2611.78 1107.16C2610.77 1106.19 2610.26 1105.03 2610.26 1103.68C2610.26 1102.35 2610.77 1101.2 2611.78 1100.25C2612.81 1099.28 2614.05 1098.8 2615.49 1098.8C2616.93 1098.8 2618.15 1099.28 2619.17 1100.25C2620.2 1101.2 2620.71 1102.35 2620.71 1103.68C2620.71 1105.03 2620.2 1106.19 2619.17 1107.16C2618.15 1108.11 2616.93 1108.59 2615.49 1108.59ZM2642.55 1148.68C2639.02 1148.68 2635.97 1147.93 2633.4 1146.43C2630.83 1144.92 2628.86 1142.81 2627.46 1140.11C2626.07 1137.4 2625.37 1134.26 2625.37 1130.68C2625.37 1127.08 2626.07 1123.92 2627.46 1121.23C2628.86 1118.52 2630.83 1116.41 2633.4 1114.91C2635.97 1113.39 2639.02 1112.64 2642.55 1112.64C2646.08 1112.64 2649.13 1113.39 2651.69 1114.91C2654.27 1116.41 2656.25 1118.52 2657.65 1121.23C2659.04 1123.92 2659.74 1127.08 2659.74 1130.68C2659.74 1134.26 2659.04 1137.4 2657.65 1140.11C2656.25 1142.81 2654.27 1144.92 2651.69 1146.43C2649.13 1147.93 2646.08 1148.68 2642.55 1148.68ZM2642.6 1141.18C2644.21 1141.18 2645.55 1140.73 2646.62 1139.82C2647.7 1138.89 2648.51 1137.64 2649.05 1136.05C2649.61 1134.45 2649.9 1132.64 2649.9 1130.61C2649.9 1128.58 2649.61 1126.77 2649.05 1125.18C2648.51 1123.59 2647.7 1122.33 2646.62 1121.41C2645.55 1120.48 2644.21 1120.02 2642.6 1120.02C2640.98 1120.02 2639.61 1120.48 2638.51 1121.41C2637.42 1122.33 2636.59 1123.59 2636.03 1125.18C2635.49 1126.77 2635.21 1128.58 2635.21 1130.61C2635.21 1132.64 2635.49 1134.45 2636.03 1136.05C2636.59 1137.64 2637.42 1138.89 2638.51 1139.82C2639.61 1140.73 2640.98 1141.18 2642.6 1141.18ZM2674.43 1127.82V1148H2664.75V1113.09H2673.98V1119.25H2674.39C2675.16 1117.22 2676.46 1115.61 2678.27 1114.43C2680.09 1113.23 2682.3 1112.64 2684.89 1112.64C2687.31 1112.64 2689.43 1113.17 2691.23 1114.23C2693.03 1115.29 2694.43 1116.8 2695.43 1118.77C2696.43 1120.73 2696.93 1123.06 2696.93 1125.77V1148H2687.25V1127.5C2687.27 1125.36 2686.72 1123.7 2685.62 1122.5C2684.51 1121.29 2682.99 1120.68 2681.05 1120.68C2679.74 1120.68 2678.59 1120.96 2677.59 1121.52C2676.61 1122.08 2675.83 1122.9 2675.27 1123.98C2674.73 1125.04 2674.45 1126.32 2674.43 1127.82Z" fill="#43A862"></path><path fill-rule="evenodd" clip-rule="evenodd" d="M2505.37 933.679C2505.37 931.816 2504.63 930.03 2503.31 928.713C2501.99 927.396 2500.21 926.656 2498.34 926.656C2495.48 926.656 2491.84 926.656 2488.98 926.656C2487.12 926.656 2485.33 927.396 2484.01 928.713C2482.7 930.03 2481.96 931.816 2481.96 933.679V950.064C2481.96 951.927 2482.7 953.713 2484.01 955.03C2485.33 956.347 2487.12 957.087 2488.98 957.087H2498.34C2500.21 957.087 2501.99 956.347 2503.31 955.03C2504.63 953.713 2505.37 951.927 2505.37 950.064V933.679ZM2500.68 933.679V950.064C2500.68 950.685 2500.44 951.281 2500 951.72C2499.56 952.159 2498.96 952.405 2498.34 952.405C2495.48 952.405 2491.84 952.405 2488.98 952.405C2488.36 952.405 2487.76 952.159 2487.32 951.72C2486.89 951.281 2486.64 950.685 2486.64 950.064C2486.64 945.415 2486.64 938.328 2486.64 933.679C2486.64 933.058 2486.89 932.462 2487.32 932.023C2487.76 931.584 2488.36 931.338 2488.98 931.338H2498.34C2498.96 931.338 2499.56 931.584 2500 932.023C2500.44 932.462 2500.68 933.058 2500.68 933.679Z" fill="#43A862"></path><path fill-rule="evenodd" clip-rule="evenodd" d="M2538.14 924.315C2538.14 922.453 2537.4 920.667 2536.08 919.35C2534.77 918.033 2532.98 917.293 2531.12 917.293C2528.26 917.293 2524.61 917.293 2521.75 917.293C2519.89 917.293 2518.1 918.033 2516.79 919.35C2515.47 920.667 2514.73 922.453 2514.73 924.315V950.064C2514.73 951.927 2515.47 953.713 2516.79 955.03C2518.1 956.347 2519.89 957.087 2521.75 957.087H2531.12C2532.98 957.087 2534.77 956.347 2536.08 955.03C2537.4 953.713 2538.14 951.927 2538.14 950.064V924.315ZM2533.46 924.315V950.064C2533.46 950.685 2533.21 951.281 2532.77 951.72C2532.33 952.159 2531.74 952.405 2531.12 952.405C2528.26 952.405 2524.61 952.405 2521.75 952.405C2521.13 952.405 2520.54 952.159 2520.1 951.72C2519.66 951.281 2519.41 950.685 2519.41 950.064C2519.41 943.345 2519.41 931.035 2519.41 924.315C2519.41 923.695 2519.66 923.099 2520.1 922.66C2520.54 922.221 2521.13 921.975 2521.75 921.975H2531.12C2531.74 921.975 2532.33 922.221 2532.77 922.66C2533.21 923.099 2533.46 923.695 2533.46 924.315Z" fill="#43A862"></path><path fill-rule="evenodd" clip-rule="evenodd" d="M2570.91 914.952C2570.91 911.074 2567.76 907.93 2563.89 907.93C2561.03 907.93 2557.38 907.93 2554.52 907.93C2550.64 907.93 2547.5 911.074 2547.5 914.952V950.065C2547.5 953.943 2550.64 957.087 2554.52 957.087H2563.89C2567.76 957.087 2570.91 953.943 2570.91 950.065V914.952ZM2566.23 914.952C2566.23 913.66 2565.18 912.612 2563.89 912.612C2561.03 912.612 2557.38 912.612 2554.52 912.612C2553.23 912.612 2552.18 913.66 2552.18 914.952V950.065C2552.18 951.358 2553.23 952.406 2554.52 952.406H2563.89C2565.18 952.406 2566.23 951.358 2566.23 950.065V914.952Z" fill="#43A862"></path><path fill-rule="evenodd" clip-rule="evenodd" d="M2603.68 900.907C2603.68 899.045 2602.94 897.259 2601.62 895.942C2600.31 894.625 2598.52 893.885 2596.66 893.885C2593.8 893.885 2590.16 893.885 2587.3 893.885C2585.43 893.885 2583.65 894.625 2582.33 895.942C2581.01 897.259 2580.27 899.045 2580.27 900.907V950.064C2580.27 951.927 2581.01 953.713 2582.33 955.03C2583.65 956.347 2585.43 957.087 2587.3 957.087H2596.66C2598.52 957.087 2600.31 956.347 2601.62 955.03C2602.94 953.713 2603.68 951.927 2603.68 950.064V900.907ZM2599 900.907V950.064C2599 950.685 2598.75 951.281 2598.31 951.72C2597.88 952.159 2597.28 952.405 2596.66 952.405C2593.8 952.405 2590.16 952.405 2587.3 952.405C2586.67 952.405 2586.08 952.159 2585.64 951.72C2585.2 951.281 2584.96 950.685 2584.96 950.064C2584.96 939.102 2584.96 911.87 2584.96 900.907C2584.96 900.286 2585.2 899.691 2585.64 899.252C2586.08 898.813 2586.67 898.566 2587.3 898.566H2596.66C2597.28 898.566 2597.88 898.813 2598.31 899.252C2598.75 899.691 2599 900.286 2599 900.907Z" fill="#43A862"></path><path fill-rule="evenodd" clip-rule="evenodd" d="M2567.51 858.288L2563.6 854.375C2561.52 852.292 2560.96 849.13 2562.2 846.457C2563.43 843.784 2566.21 842.168 2569.15 842.411C2576.19 842.994 2584.48 843.679 2589.28 844.076C2592.73 844.361 2595.46 847.121 2595.7 850.577C2596.04 855.336 2596.62 863.509 2597.11 870.454C2597.32 873.377 2595.69 876.123 2593.03 877.34C2590.36 878.557 2587.22 877.99 2585.14 875.917L2580.76 871.529L2561.14 891.142C2559.39 892.898 2557.01 893.885 2554.52 893.885H2520.19L2498.34 910.271C2495.24 912.598 2490.84 911.969 2488.51 908.866C2487.61 907.661 2486.61 906.326 2485.7 905.121C2483.37 902.018 2484 897.616 2487.11 895.289C2494.75 889.553 2511.45 877.031 2511.45 877.031C2513.07 875.815 2515.04 875.158 2517.07 875.158H2550.64L2567.51 858.288ZM2572.48 859.943C2573.39 859.029 2573.39 857.546 2572.48 856.633C2572.48 856.633 2569.9 854.054 2566.91 851.064C2566.22 850.37 2566.03 849.316 2566.44 848.425C2566.86 847.534 2567.78 846.995 2568.76 847.076C2575.81 847.66 2584.09 848.344 2588.89 848.742C2590.04 848.836 2590.95 849.757 2591.03 850.908C2591.37 855.668 2591.95 863.841 2592.44 870.786C2592.51 871.76 2591.97 872.675 2591.08 873.081C2590.19 873.486 2589.14 873.298 2588.45 872.607C2585.25 869.405 2582.41 866.564 2582.41 866.564C2581.5 865.649 2580.02 865.649 2579.1 866.564L2557.83 887.832C2556.95 888.71 2555.76 889.203 2554.52 889.203H2519.41C2518.9 889.203 2518.41 889.368 2518.01 889.671C2518.01 889.671 2502.78 901.092 2495.53 906.525C2494.5 907.301 2493.03 907.092 2492.26 906.057C2491.35 904.852 2490.35 903.517 2489.45 902.312C2488.67 901.277 2488.88 899.81 2489.92 899.035C2497.56 893.299 2514.26 880.776 2514.26 880.776C2515.07 880.169 2516.06 879.84 2517.07 879.84H2551.61C2552.23 879.84 2552.83 879.593 2553.27 879.154L2572.48 859.943Z" fill="#43A862"></path><defs><clipPath id="clip0_1281_842"><rect width="150" height="150" fill="white" transform="translate(300.914 90)"></rect></clipPath></defs></svg>