<svg xmlns="http://www.w3.org/2000/svg" width="92" height="92" viewBox="0 0 92 92" fill="none"><path d="M85.3156 35.7159L76.5619 30.2516C76.1638 30.0043 75.6707 29.9666 75.2419 30.1503L65.7925 34.1996L56.3432 30.1503C55.9144 29.9666 55.4213 30.0043 55.0232 30.2516L46.2639 35.7201C45.2009 36.3926 44.3349 37.3271 43.758 38.4236C43.3906 39.1227 43.6602 39.9873 44.36 40.3546C45.0612 40.7248 45.923 40.4538 46.2918 39.7533C46.634 39.101 47.1536 38.5423 47.785 38.1421L55.9032 33.0738L65.2296 37.0701C65.5872 37.2251 65.9979 37.2251 66.3555 37.0701L75.6819 33.0738L83.7945 38.1379C85.0614 38.939 85.8171 40.3051 85.8171 41.792V58.6409H65.0061C64.2156 58.6409 63.5758 59.2813 63.5758 60.0712C63.5758 60.8611 64.2156 61.5015 65.0061 61.5015H87.2474C88.038 61.5015 88.6777 60.8611 88.6777 60.0712V41.792C88.6777 39.3182 87.4234 37.0484 85.3156 35.7159Z" fill="#43A862"></path><path d="M65.7942 25.7446C72.1035 25.7446 77.2368 20.6113 77.2368 14.302C77.2368 7.99262 72.1035 2.85938 65.7942 2.85938C59.4848 2.85938 54.3516 7.99262 54.3516 14.302C54.3516 20.6113 59.4848 25.7446 65.7942 25.7446ZM65.7942 5.72002C70.5265 5.72002 74.3761 9.56961 74.3761 14.302C74.3761 19.0343 70.5265 22.8839 65.7942 22.8839C61.0618 22.8839 57.2122 19.0343 57.2122 14.302C57.2122 9.56961 61.0618 5.72002 65.7942 5.72002Z" fill="#43A862"></path><path d="M55.6183 55.6865C54.8682 54.8233 53.829 54.3023 52.6906 54.2185C51.5397 54.1396 50.4348 54.5042 49.5674 55.2584L44.2264 59.8872C44.2187 59.8934 44.2084 59.8949 44.2009 59.9014L32.898 69.6818C31.314 71.05 29.3026 71.719 27.2046 71.5689C25.1192 71.418 23.2209 70.4668 21.8576 68.887C19.0333 65.6311 19.3909 60.6794 22.6524 57.8509L33.9567 48.0705C33.9574 48.0699 33.9577 48.069 33.9584 48.0684L39.326 43.4212C41.1153 41.8729 41.3109 39.1582 39.7618 37.3696L34.1942 30.9331C33.4455 30.0664 32.4021 29.5433 31.2581 29.4609C30.1225 29.3771 29.0079 29.7465 28.1418 30.4966L22.7763 35.1425C22.7756 35.1431 22.7746 35.1432 22.7739 35.1438L11.4696 44.9242C6.44394 49.271 3.41008 55.3248 2.92679 61.9708C2.4435 68.6167 4.57082 75.0448 8.91907 80.0719C13.2729 85.099 19.3308 88.1321 25.9768 88.6126C26.5928 88.6573 27.2074 88.6797 27.8192 88.6797C33.8045 88.6797 39.5202 86.558 44.0794 82.6092L55.3837 72.8281C55.3836 72.8282 55.3838 72.828 55.3837 72.8281C55.3852 72.8267 55.3877 72.826 55.3893 72.8246L60.7502 68.1774C61.619 67.4308 62.1428 66.3937 62.2266 65.2546C62.3104 64.1086 61.9403 62.9967 61.1832 62.1244L55.6183 55.6865ZM30.0136 32.6589C30.3027 32.4088 30.6784 32.2971 31.0528 32.3139C31.4341 32.3418 31.7819 32.5157 32.0319 32.8048L37.5996 39.2413C37.8496 39.5304 37.9711 39.8992 37.9446 40.2798C37.9167 40.6605 37.7435 41.0083 37.4543 41.2576L33.1661 44.971L25.7268 36.3709L30.0136 32.6589ZM42.2076 80.4462C37.7588 84.2993 32.0599 86.1913 26.1835 85.7597C20.2988 85.3337 14.9351 82.649 11.0827 78.1995C7.23453 73.7521 5.35164 68.0615 5.77906 62.1775C6.20788 56.2942 8.89253 50.9353 13.3413 47.0878L23.5645 38.2433L27.2842 42.543L31.0039 46.8427L20.7793 55.6886C16.3249 59.5515 15.8388 66.3134 19.694 70.7587C21.5559 72.9154 24.1498 74.2158 26.9993 74.4218C29.8376 74.6362 32.6074 73.713 34.7683 71.8461L44.9915 63.0009L52.4308 71.6003L42.2076 80.4462ZM58.8841 66.0089C58.8827 66.011 58.8813 66.0124 58.8785 66.0138L54.5973 69.7251L47.1593 61.1334L51.4433 57.4186C51.7324 57.1672 52.09 57.047 52.4811 57.0715C52.861 57.0994 53.2074 57.274 53.4561 57.559L59.0223 63.9989C59.2766 64.2922 59.4023 64.6638 59.3743 65.0444C59.3464 65.4202 59.1718 65.7624 58.8841 66.0089Z" fill="#43A862"></path></svg>