<svg xmlns="http://www.w3.org/2000/svg" width="92" height="63" viewBox="0 0 92 63" fill="none"><mask id="path-1-inside-1_9945_3095" fill="white"><path d="M86.0547 1.1835C86.0222 0.998332 85.9535 0.821384 85.8526 0.662774C85.7517 0.504164 85.6205 0.367004 85.4666 0.259136C85.3126 0.151268 85.1389 0.0748085 84.9553 0.0341312C84.7718 -0.00654603 84.5821 -0.0106436 84.3969 0.0220729L77.3569 1.26217C77.1716 1.29463 76.9945 1.36333 76.8358 1.46434C76.6771 1.56535 76.5398 1.69667 76.4319 1.85079C76.324 2.00492 76.2476 2.17881 76.207 2.36251C76.1665 2.54621 76.1625 2.73611 76.1954 2.92134L76.5015 4.65346L72.4966 5.35289L56.3554 2.88415C53.9916 2.52811 51.5754 2.83459 49.3754 3.76952L45.771 5.30569L42.1766 3.77381C39.9731 2.83481 37.5514 2.52919 35.1837 2.89131L19.0354 5.35861L15.0419 4.6549L15.3466 2.92134C15.3795 2.73611 15.3756 2.54621 15.335 2.36251C15.2944 2.17881 15.218 2.00492 15.1101 1.85079C15.0022 1.69667 14.865 1.56535 14.7063 1.46434C14.5475 1.36333 14.3705 1.29463 14.1851 1.26217L7.15224 0.0220729C6.96701 -0.0108504 6.77711 -0.00690959 6.59341 0.0336702C6.40971 0.07425 6.23582 0.150672 6.08169 0.258558C5.92757 0.366444 5.79625 0.503673 5.69524 0.662389C5.59423 0.821105 5.52553 0.998189 5.49307 1.1835L0.0220728 32.1686C-0.0108505 32.3538 -0.0069094 32.5438 0.0336704 32.7275C0.0742502 32.9112 0.150671 33.085 0.258557 33.2392C0.366443 33.3933 0.503673 33.5246 0.662389 33.6256C0.821105 33.7266 0.998189 33.7953 1.1835 33.8278L8.22499 35.0679C8.41011 35.1006 8.59986 35.0965 8.7834 35.0558C8.96694 35.0152 9.14066 34.9387 9.29462 34.8308C9.44858 34.723 9.57978 34.5858 9.68069 34.4272C9.7816 34.2686 9.85026 34.0916 9.88273 33.9065L10.0129 33.1384L11.1943 33.3472C12.2833 35.7457 13.8675 37.8866 15.8429 39.6292C15.7672 40.9207 16.1349 42.1993 16.885 43.2533C17.6352 44.3073 18.7229 45.0734 19.968 45.4249C19.2988 46.5362 19.0296 47.8429 19.2051 49.1283C19.3805 50.4136 19.99 51.6004 20.9325 52.4918C21.875 53.3832 23.0938 53.9257 24.3869 54.0293C25.6801 54.1329 26.9697 53.7914 28.0421 53.0614C28.1844 54.0112 28.566 54.9091 29.1511 55.6707C29.7362 56.4322 30.5054 57.0323 31.3865 57.4145C32.2676 57.7966 33.2314 57.9483 34.1872 57.8551C35.1431 57.7619 36.0594 57.4269 36.8501 56.8818C36.9839 57.7578 37.3216 58.5901 37.836 59.3117C38.3504 60.0333 39.0271 60.624 39.8115 61.0362C40.596 61.4484 41.4663 61.6706 42.3524 61.6849C43.2385 61.6992 44.1155 61.5051 44.9128 61.1184V61.127L45.4849 61.5074C46.1115 61.9223 46.8137 62.2096 47.5513 62.353C48.289 62.4965 49.0476 62.4932 49.784 62.3433C50.5204 62.1935 51.22 61.9001 51.843 61.4798C52.4659 61.0596 53 60.5207 53.4147 59.894C54.0408 58.9407 54.3612 57.8189 54.3329 56.6787C54.7969 56.805 55.2752 56.8714 55.7561 56.8761C56.5119 56.8784 57.2607 56.7306 57.959 56.4414C58.6573 56.1522 59.2912 55.7272 59.824 55.1912C60.3569 54.6552 60.778 54.0187 61.0631 53.3187C61.3481 52.6187 61.4914 51.8691 61.4846 51.1133C61.9399 51.233 62.4083 51.2955 62.8791 51.2992C63.634 51.2992 64.3813 51.1499 65.0782 50.8598C65.7751 50.5697 66.4076 50.1445 66.9394 49.6088C67.4712 49.0732 67.8918 48.4376 68.1769 47.7386C68.462 47.0397 68.6059 46.2913 68.6004 45.5364C69.4724 45.7637 70.3859 45.7799 71.2654 45.5838C72.1449 45.3877 72.965 44.985 73.6578 44.4089C74.3506 43.8328 74.8963 43.0999 75.2495 42.2709C75.6028 41.442 75.7534 40.5408 75.6891 39.6421C77.6664 37.8967 79.2508 35.7516 80.3377 33.3486L81.5291 33.1455L81.6636 33.9065C81.696 34.0918 81.7647 34.2689 81.8658 34.4276C81.9668 34.5863 82.0981 34.7235 82.2522 34.8314C82.4063 34.9393 82.5802 35.0157 82.7639 35.0563C82.9476 35.0969 83.1375 35.1008 83.3228 35.0679L90.3628 33.8278C90.5481 33.7953 90.7252 33.7266 90.8839 33.6256C91.0426 33.5246 91.1799 33.3933 91.2878 33.2392C91.3956 33.085 91.4721 32.9112 91.5126 32.7275C91.5532 32.5438 91.5572 32.3538 91.5242 32.1686L86.0547 1.1835ZM7.31387 32.0041L3.08869 31.2575L8.05478 3.08011L12.2814 3.82531L7.31387 32.0041ZM19.3529 41.7632C18.8654 41.1822 18.6287 40.4313 18.6947 39.6758C18.7606 38.9202 19.124 38.2218 19.7048 37.734L25.1843 33.1384C25.7655 32.6505 26.5167 32.4135 27.2725 32.4795C28.0284 32.5455 28.7272 32.9091 29.215 33.4902C29.7028 34.0714 29.9398 34.8225 29.8738 35.5784C29.8079 36.3343 29.4443 37.0331 28.8631 37.5209L23.3836 42.1194C23.0956 42.3607 22.7628 42.543 22.4044 42.6557C22.0459 42.7684 21.6688 42.8094 21.2945 42.7763C20.9202 42.7433 20.556 42.6368 20.2229 42.4629C19.8898 42.2891 19.5941 42.0513 19.3529 41.7632ZM26.7076 50.5297C26.4198 50.7713 26.0872 50.9537 25.7288 51.0668C25.3704 51.1798 24.9933 51.2211 24.6189 51.1883C24.2446 51.1556 23.8804 51.0494 23.547 50.8759C23.2137 50.7024 22.9178 50.465 22.6763 50.1771C22.4347 49.8893 22.2522 49.5567 22.1392 49.1983C22.0262 48.8399 21.9849 48.4628 22.0176 48.0884C22.0504 47.7141 22.1565 47.3498 22.33 47.0165C22.5035 46.6832 22.741 46.3873 23.0288 46.1458L29.6083 40.629C30.1926 40.1717 30.9317 39.9593 31.6696 40.0366C32.4075 40.1139 33.0865 40.4749 33.5633 41.0434C34.0401 41.6118 34.2774 42.3433 34.2251 43.0834C34.1727 43.8235 33.8349 44.5143 33.2828 45.0101L26.7076 50.5297ZM35.5113 54.3458C35.2234 54.5873 34.8908 54.7697 34.5325 54.8826C34.1742 54.9955 33.7971 55.0367 33.4228 55.0039C33.0485 54.9711 32.6844 54.8649 32.3511 54.6914C32.0179 54.5178 31.7221 54.2804 31.4806 53.9925C31.2392 53.7047 31.0568 53.3721 30.9439 53.0137C30.8309 52.6554 30.7897 52.2783 30.8225 51.904C30.8553 51.5297 30.9615 51.1656 31.1351 50.8323C31.3086 50.4991 31.5461 50.2033 31.8339 49.9619L36.2179 46.2845C36.8002 45.8065 37.5475 45.5775 38.2976 45.6472C39.0477 45.7169 39.7401 46.0797 40.2243 46.6568C40.7085 47.2339 40.9456 47.9787 40.884 48.7295C40.8224 49.4804 40.4671 50.1766 39.8952 50.667L35.5113 54.3458ZM44.3135 58.1691C43.7314 58.6499 42.9828 58.8811 42.2309 58.8122C41.479 58.7434 40.7848 58.3801 40.2997 57.8015C39.8146 57.223 39.5779 56.4761 39.6412 55.7237C39.7045 54.9713 40.0626 54.2745 40.6376 53.7851L45.0201 50.1078C45.3078 49.8662 45.6404 49.6836 45.9987 49.5706C46.3569 49.4575 46.734 49.4161 47.1083 49.4488C47.4826 49.4815 47.8468 49.5875 48.1801 49.761C48.5134 49.9344 48.8092 50.1718 49.0507 50.4596C49.2923 50.7474 49.4747 51.08 49.5876 51.4384C49.7006 51.7967 49.7418 52.1738 49.709 52.5481C49.6762 52.9224 49.57 53.2866 49.3964 53.6198C49.2229 53.9531 48.9854 54.2488 48.6975 54.4903L44.3135 58.1691ZM51.026 58.3207C50.647 58.8986 50.0696 59.3179 49.4028 59.4997C48.736 59.6815 48.0258 59.6132 47.4059 59.3076L50.5369 56.6815C50.833 56.4339 51.1033 56.1569 51.3436 55.8548C51.4789 56.2619 51.5207 56.6943 51.4657 57.1197C51.4107 57.5452 51.2604 57.9528 51.026 58.3121V58.3207ZM72.3936 41.5773C72.1863 41.8906 71.9193 42.1601 71.6078 42.3702C71.2963 42.5803 70.9465 42.727 70.5783 42.802C70.2101 42.8769 69.8308 42.8785 69.462 42.8068C69.0932 42.7351 68.7421 42.5914 68.4288 42.384L56.4984 34.4929C56.3421 34.3796 56.1643 34.2991 55.976 34.2563C55.7876 34.2135 55.5926 34.2093 55.4026 34.2439C55.2126 34.2786 55.0315 34.3514 54.8704 34.4579C54.7093 34.5644 54.5714 34.7024 54.4651 34.8636C54.3587 35.0249 54.2862 35.206 54.2517 35.396C54.2173 35.5861 54.2217 35.7811 54.2647 35.9694C54.3077 36.1577 54.3883 36.3354 54.5018 36.4916C54.6153 36.6479 54.7593 36.7796 54.9251 36.8787L64.4711 43.1964C65.1034 43.6158 65.5433 44.2692 65.6939 45.0129C65.8446 45.7566 65.6936 46.5296 65.2742 47.162C64.8548 47.7944 64.2014 48.2342 63.4577 48.3849C62.7141 48.5355 61.941 48.3845 61.3086 47.9651L51.7641 41.6488C51.605 41.5423 51.4259 41.4693 51.2377 41.4343C50.9129 41.373 50.5769 41.4262 50.2869 41.5847C49.9968 41.7432 49.7706 41.9973 49.6468 42.3037C49.5229 42.6102 49.5089 42.9501 49.6073 43.2656C49.7057 43.5811 49.9103 43.8529 50.1864 44.0346L57.338 48.7733C57.9666 49.1941 58.4028 49.8467 58.5514 50.5884C58.7 51.33 58.5488 52.1003 58.1309 52.7308C57.7129 53.3613 57.0624 53.8006 56.3214 53.9526C55.5804 54.1046 54.8094 53.9569 54.177 53.542L52.5465 52.4635C52.5859 51.414 52.3331 50.3742 51.8164 49.46C51.2996 48.5457 50.5391 47.7929 49.6197 47.2854C48.7002 46.7779 47.6579 46.5357 46.6089 46.5858C45.5599 46.6359 44.5454 46.9762 43.6784 47.5689C43.5675 46.8253 43.3089 46.1113 42.9179 45.4692C42.5268 44.827 42.0112 44.2696 41.4014 43.8297C40.7916 43.3899 40.1 43.0765 39.3672 42.908C38.6344 42.7396 37.8754 42.7195 37.1347 42.8489C37.1597 41.495 36.694 40.1778 35.8235 39.1407C34.953 38.1035 33.7366 37.4164 32.3989 37.2062C32.8175 36.0253 32.8356 34.7393 32.4504 33.5471C32.0653 32.3548 31.2983 31.3225 30.2679 30.6096C29.2375 29.8967 28.001 29.543 26.7495 29.6029C25.498 29.6629 24.301 30.1333 23.3435 30.9414L17.8639 35.5399C17.4809 35.8698 17.1441 36.2499 16.8627 36.6699C15.4312 35.194 14.3029 33.452 13.5415 31.5421C13.4513 31.315 13.3045 31.1148 13.1149 30.9605C12.9254 30.8063 12.6995 30.7032 12.4587 30.6611L10.5121 30.3178L14.5413 7.46834L18.7665 8.21354C18.9203 8.23999 19.0775 8.23999 19.2313 8.21354L35.6157 5.71906C37.456 5.43677 39.3386 5.67457 41.0509 6.40561L42.1151 6.85903L36.4038 9.29058C35.1206 9.83933 34.0266 10.7524 33.2571 11.9167L27.8748 20.0309C27.2521 20.9839 27.0311 22.1443 27.2598 23.2595C27.4886 24.3748 28.1486 25.3544 29.0963 25.9853C30.6788 27.0281 32.6102 27.4009 34.4672 27.022C36.3241 26.6432 37.9551 25.5436 39.0027 23.9643L41.4586 20.2655L46.6807 19.197C47.2435 20.9323 48.1996 22.5141 49.4744 23.8192C50.7491 25.1242 52.3081 26.1171 54.0297 26.7205C54.6399 26.9381 55.2658 27.1088 55.902 27.2311L71.5855 37.6153C72.2178 38.0338 72.658 38.6861 72.8096 39.429C72.9611 40.172 72.8115 40.9446 72.3936 41.5773ZM79.0804 30.6639C78.8387 30.706 78.6119 30.8096 78.4218 30.9646C78.2317 31.1197 78.0846 31.321 77.9948 31.5493C77.233 33.468 76.1005 35.2177 74.6621 36.6985C74.2594 36.1189 73.7514 35.6202 73.1646 35.2281L61.0068 27.1854C62.5867 26.8696 64.0916 26.255 65.4408 25.3746L67.6879 23.9013C68.005 23.6927 68.2263 23.3666 68.303 22.9949C68.3797 22.6231 68.3056 22.236 68.097 21.9189C67.8883 21.6018 67.5622 21.3805 67.1905 21.3038C66.8187 21.2271 66.4317 21.3012 66.1145 21.5098L63.8746 22.9831C62.5792 23.8339 61.1033 24.3714 59.5641 24.5529C58.0248 24.7344 56.4645 24.5549 55.0066 24.0286C53.665 23.5612 52.4529 22.7832 51.4693 21.7581C50.4857 20.7329 49.7584 19.4898 49.3468 18.13C49.2581 17.8439 49.1838 17.5393 49.1208 17.2375C49.0434 16.8673 48.8225 16.5428 48.5065 16.3351C48.1904 16.1274 47.805 16.0533 47.4345 16.129L40.31 17.5879C39.9393 17.6637 39.6138 17.8833 39.4046 18.1986L36.6312 22.3881C36.0024 23.335 35.0241 23.9943 33.9104 24.2219C32.7967 24.4494 31.6382 24.2267 30.6882 23.6024C30.3713 23.3913 30.1503 23.0637 30.0732 22.6908C29.9961 22.3178 30.069 21.9295 30.2763 21.61L35.6558 13.4972C36.1171 12.8005 36.7718 12.2537 37.5395 11.9238L50.4997 6.40275C52.213 5.67542 54.0944 5.43727 55.9349 5.71476L72.3121 8.21783C72.4652 8.24143 72.621 8.24143 72.7741 8.21783L77.0079 7.47693L81.0285 30.3264L79.0804 30.6639ZM84.2296 32.0013L79.2621 3.82387L83.4887 3.07868L88.4548 31.2561L84.2296 32.0013Z"></path></mask><path d="M86.0547 1.1835C86.0222 0.998332 85.9535 0.821384 85.8526 0.662774C85.7517 0.504164 85.6205 0.367004 85.4666 0.259136C85.3126 0.151268 85.1389 0.0748085 84.9553 0.0341312C84.7718 -0.00654603 84.5821 -0.0106436 84.3969 0.0220729L77.3569 1.26217C77.1716 1.29463 76.9945 1.36333 76.8358 1.46434C76.6771 1.56535 76.5398 1.69667 76.4319 1.85079C76.324 2.00492 76.2476 2.17881 76.207 2.36251C76.1665 2.54621 76.1625 2.73611 76.1954 2.92134L76.5015 4.65346L72.4966 5.35289L56.3554 2.88415C53.9916 2.52811 51.5754 2.83459 49.3754 3.76952L45.771 5.30569L42.1766 3.77381C39.9731 2.83481 37.5514 2.52919 35.1837 2.89131L19.0354 5.35861L15.0419 4.6549L15.3466 2.92134C15.3795 2.73611 15.3756 2.54621 15.335 2.36251C15.2944 2.17881 15.218 2.00492 15.1101 1.85079C15.0022 1.69667 14.865 1.56535 14.7063 1.46434C14.5475 1.36333 14.3705 1.29463 14.1851 1.26217L7.15224 0.0220729C6.96701 -0.0108504 6.77711 -0.00690959 6.59341 0.0336702C6.40971 0.07425 6.23582 0.150672 6.08169 0.258558C5.92757 0.366444 5.79625 0.503673 5.69524 0.662389C5.59423 0.821105 5.52553 0.998189 5.49307 1.1835L0.0220728 32.1686C-0.0108505 32.3538 -0.0069094 32.5438 0.0336704 32.7275C0.0742502 32.9112 0.150671 33.085 0.258557 33.2392C0.366443 33.3933 0.503673 33.5246 0.662389 33.6256C0.821105 33.7266 0.998189 33.7953 1.1835 33.8278L8.22499 35.0679C8.41011 35.1006 8.59986 35.0965 8.7834 35.0558C8.96694 35.0152 9.14066 34.9387 9.29462 34.8308C9.44858 34.723 9.57978 34.5858 9.68069 34.4272C9.7816 34.2686 9.85026 34.0916 9.88273 33.9065L10.0129 33.1384L11.1943 33.3472C12.2833 35.7457 13.8675 37.8866 15.8429 39.6292C15.7672 40.9207 16.1349 42.1993 16.885 43.2533C17.6352 44.3073 18.7229 45.0734 19.968 45.4249C19.2988 46.5362 19.0296 47.8429 19.2051 49.1283C19.3805 50.4136 19.99 51.6004 20.9325 52.4918C21.875 53.3832 23.0938 53.9257 24.3869 54.0293C25.6801 54.1329 26.9697 53.7914 28.0421 53.0614C28.1844 54.0112 28.566 54.9091 29.1511 55.6707C29.7362 56.4322 30.5054 57.0323 31.3865 57.4145C32.2676 57.7966 33.2314 57.9483 34.1872 57.8551C35.1431 57.7619 36.0594 57.4269 36.8501 56.8818C36.9839 57.7578 37.3216 58.5901 37.836 59.3117C38.3504 60.0333 39.0271 60.624 39.8115 61.0362C40.596 61.4484 41.4663 61.6706 42.3524 61.6849C43.2385 61.6992 44.1155 61.5051 44.9128 61.1184V61.127L45.4849 61.5074C46.1115 61.9223 46.8137 62.2096 47.5513 62.353C48.289 62.4965 49.0476 62.4932 49.784 62.3433C50.5204 62.1935 51.22 61.9001 51.843 61.4798C52.4659 61.0596 53 60.5207 53.4147 59.894C54.0408 58.9407 54.3612 57.8189 54.3329 56.6787C54.7969 56.805 55.2752 56.8714 55.7561 56.8761C56.5119 56.8784 57.2607 56.7306 57.959 56.4414C58.6573 56.1522 59.2912 55.7272 59.824 55.1912C60.3569 54.6552 60.778 54.0187 61.0631 53.3187C61.3481 52.6187 61.4914 51.8691 61.4846 51.1133C61.9399 51.233 62.4083 51.2955 62.8791 51.2992C63.634 51.2992 64.3813 51.1499 65.0782 50.8598C65.7751 50.5697 66.4076 50.1445 66.9394 49.6088C67.4712 49.0732 67.8918 48.4376 68.1769 47.7386C68.462 47.0397 68.6059 46.2913 68.6004 45.5364C69.4724 45.7637 70.3859 45.7799 71.2654 45.5838C72.1449 45.3877 72.965 44.985 73.6578 44.4089C74.3506 43.8328 74.8963 43.0999 75.2495 42.2709C75.6028 41.442 75.7534 40.5408 75.6891 39.6421C77.6664 37.8967 79.2508 35.7516 80.3377 33.3486L81.5291 33.1455L81.6636 33.9065C81.696 34.0918 81.7647 34.2689 81.8658 34.4276C81.9668 34.5863 82.0981 34.7235 82.2522 34.8314C82.4063 34.9393 82.5802 35.0157 82.7639 35.0563C82.9476 35.0969 83.1375 35.1008 83.3228 35.0679L90.3628 33.8278C90.5481 33.7953 90.7252 33.7266 90.8839 33.6256C91.0426 33.5246 91.1799 33.3933 91.2878 33.2392C91.3956 33.085 91.4721 32.9112 91.5126 32.7275C91.5532 32.5438 91.5572 32.3538 91.5242 32.1686L86.0547 1.1835ZM7.31387 32.0041L3.08869 31.2575L8.05478 3.08011L12.2814 3.82531L7.31387 32.0041ZM19.3529 41.7632C18.8654 41.1822 18.6287 40.4313 18.6947 39.6758C18.7606 38.9202 19.124 38.2218 19.7048 37.734L25.1843 33.1384C25.7655 32.6505 26.5167 32.4135 27.2725 32.4795C28.0284 32.5455 28.7272 32.9091 29.215 33.4902C29.7028 34.0714 29.9398 34.8225 29.8738 35.5784C29.8079 36.3343 29.4443 37.0331 28.8631 37.5209L23.3836 42.1194C23.0956 42.3607 22.7628 42.543 22.4044 42.6557C22.0459 42.7684 21.6688 42.8094 21.2945 42.7763C20.9202 42.7433 20.556 42.6368 20.2229 42.4629C19.8898 42.2891 19.5941 42.0513 19.3529 41.7632ZM26.7076 50.5297C26.4198 50.7713 26.0872 50.9537 25.7288 51.0668C25.3704 51.1798 24.9933 51.2211 24.6189 51.1883C24.2446 51.1556 23.8804 51.0494 23.547 50.8759C23.2137 50.7024 22.9178 50.465 22.6763 50.1771C22.4347 49.8893 22.2522 49.5567 22.1392 49.1983C22.0262 48.8399 21.9849 48.4628 22.0176 48.0884C22.0504 47.7141 22.1565 47.3498 22.33 47.0165C22.5035 46.6832 22.741 46.3873 23.0288 46.1458L29.6083 40.629C30.1926 40.1717 30.9317 39.9593 31.6696 40.0366C32.4075 40.1139 33.0865 40.4749 33.5633 41.0434C34.0401 41.6118 34.2774 42.3433 34.2251 43.0834C34.1727 43.8235 33.8349 44.5143 33.2828 45.0101L26.7076 50.5297ZM35.5113 54.3458C35.2234 54.5873 34.8908 54.7697 34.5325 54.8826C34.1742 54.9955 33.7971 55.0367 33.4228 55.0039C33.0485 54.9711 32.6844 54.8649 32.3511 54.6914C32.0179 54.5178 31.7221 54.2804 31.4806 53.9925C31.2392 53.7047 31.0568 53.3721 30.9439 53.0137C30.8309 52.6554 30.7897 52.2783 30.8225 51.904C30.8553 51.5297 30.9615 51.1656 31.1351 50.8323C31.3086 50.4991 31.5461 50.2033 31.8339 49.9619L36.2179 46.2845C36.8002 45.8065 37.5475 45.5775 38.2976 45.6472C39.0477 45.7169 39.7401 46.0797 40.2243 46.6568C40.7085 47.2339 40.9456 47.9787 40.884 48.7295C40.8224 49.4804 40.4671 50.1766 39.8952 50.667L35.5113 54.3458ZM44.3135 58.1691C43.7314 58.6499 42.9828 58.8811 42.2309 58.8122C41.479 58.7434 40.7848 58.3801 40.2997 57.8015C39.8146 57.223 39.5779 56.4761 39.6412 55.7237C39.7045 54.9713 40.0626 54.2745 40.6376 53.7851L45.0201 50.1078C45.3078 49.8662 45.6404 49.6836 45.9987 49.5706C46.3569 49.4575 46.734 49.4161 47.1083 49.4488C47.4826 49.4815 47.8468 49.5875 48.1801 49.761C48.5134 49.9344 48.8092 50.1718 49.0507 50.4596C49.2923 50.7474 49.4747 51.08 49.5876 51.4384C49.7006 51.7967 49.7418 52.1738 49.709 52.5481C49.6762 52.9224 49.57 53.2866 49.3964 53.6198C49.2229 53.9531 48.9854 54.2488 48.6975 54.4903L44.3135 58.1691ZM51.026 58.3207C50.647 58.8986 50.0696 59.3179 49.4028 59.4997C48.736 59.6815 48.0258 59.6132 47.4059 59.3076L50.5369 56.6815C50.833 56.4339 51.1033 56.1569 51.3436 55.8548C51.4789 56.2619 51.5207 56.6943 51.4657 57.1197C51.4107 57.5452 51.2604 57.9528 51.026 58.3121V58.3207ZM72.3936 41.5773C72.1863 41.8906 71.9193 42.1601 71.6078 42.3702C71.2963 42.5803 70.9465 42.727 70.5783 42.802C70.2101 42.8769 69.8308 42.8785 69.462 42.8068C69.0932 42.7351 68.7421 42.5914 68.4288 42.384L56.4984 34.4929C56.3421 34.3796 56.1643 34.2991 55.976 34.2563C55.7876 34.2135 55.5926 34.2093 55.4026 34.2439C55.2126 34.2786 55.0315 34.3514 54.8704 34.4579C54.7093 34.5644 54.5714 34.7024 54.4651 34.8636C54.3587 35.0249 54.2862 35.206 54.2517 35.396C54.2173 35.5861 54.2217 35.7811 54.2647 35.9694C54.3077 36.1577 54.3883 36.3354 54.5018 36.4916C54.6153 36.6479 54.7593 36.7796 54.9251 36.8787L64.4711 43.1964C65.1034 43.6158 65.5433 44.2692 65.6939 45.0129C65.8446 45.7566 65.6936 46.5296 65.2742 47.162C64.8548 47.7944 64.2014 48.2342 63.4577 48.3849C62.7141 48.5355 61.941 48.3845 61.3086 47.9651L51.7641 41.6488C51.605 41.5423 51.4259 41.4693 51.2377 41.4343C50.9129 41.373 50.5769 41.4262 50.2869 41.5847C49.9968 41.7432 49.7706 41.9973 49.6468 42.3037C49.5229 42.6102 49.5089 42.9501 49.6073 43.2656C49.7057 43.5811 49.9103 43.8529 50.1864 44.0346L57.338 48.7733C57.9666 49.1941 58.4028 49.8467 58.5514 50.5884C58.7 51.33 58.5488 52.1003 58.1309 52.7308C57.7129 53.3613 57.0624 53.8006 56.3214 53.9526C55.5804 54.1046 54.8094 53.9569 54.177 53.542L52.5465 52.4635C52.5859 51.414 52.3331 50.3742 51.8164 49.46C51.2996 48.5457 50.5391 47.7929 49.6197 47.2854C48.7002 46.7779 47.6579 46.5357 46.6089 46.5858C45.5599 46.6359 44.5454 46.9762 43.6784 47.5689C43.5675 46.8253 43.3089 46.1113 42.9179 45.4692C42.5268 44.827 42.0112 44.2696 41.4014 43.8297C40.7916 43.3899 40.1 43.0765 39.3672 42.908C38.6344 42.7396 37.8754 42.7195 37.1347 42.8489C37.1597 41.495 36.694 40.1778 35.8235 39.1407C34.953 38.1035 33.7366 37.4164 32.3989 37.2062C32.8175 36.0253 32.8356 34.7393 32.4504 33.5471C32.0653 32.3548 31.2983 31.3225 30.2679 30.6096C29.2375 29.8967 28.001 29.543 26.7495 29.6029C25.498 29.6629 24.301 30.1333 23.3435 30.9414L17.8639 35.5399C17.4809 35.8698 17.1441 36.2499 16.8627 36.6699C15.4312 35.194 14.3029 33.452 13.5415 31.5421C13.4513 31.315 13.3045 31.1148 13.1149 30.9605C12.9254 30.8063 12.6995 30.7032 12.4587 30.6611L10.5121 30.3178L14.5413 7.46834L18.7665 8.21354C18.9203 8.23999 19.0775 8.23999 19.2313 8.21354L35.6157 5.71906C37.456 5.43677 39.3386 5.67457 41.0509 6.40561L42.1151 6.85903L36.4038 9.29058C35.1206 9.83933 34.0266 10.7524 33.2571 11.9167L27.8748 20.0309C27.2521 20.9839 27.0311 22.1443 27.2598 23.2595C27.4886 24.3748 28.1486 25.3544 29.0963 25.9853C30.6788 27.0281 32.6102 27.4009 34.4672 27.022C36.3241 26.6432 37.9551 25.5436 39.0027 23.9643L41.4586 20.2655L46.6807 19.197C47.2435 20.9323 48.1996 22.5141 49.4744 23.8192C50.7491 25.1242 52.3081 26.1171 54.0297 26.7205C54.6399 26.9381 55.2658 27.1088 55.902 27.2311L71.5855 37.6153C72.2178 38.0338 72.658 38.6861 72.8096 39.429C72.9611 40.172 72.8115 40.9446 72.3936 41.5773ZM79.0804 30.6639C78.8387 30.706 78.6119 30.8096 78.4218 30.9646C78.2317 31.1197 78.0846 31.321 77.9948 31.5493C77.233 33.468 76.1005 35.2177 74.6621 36.6985C74.2594 36.1189 73.7514 35.6202 73.1646 35.2281L61.0068 27.1854C62.5867 26.8696 64.0916 26.255 65.4408 25.3746L67.6879 23.9013C68.005 23.6927 68.2263 23.3666 68.303 22.9949C68.3797 22.6231 68.3056 22.236 68.097 21.9189C67.8883 21.6018 67.5622 21.3805 67.1905 21.3038C66.8187 21.2271 66.4317 21.3012 66.1145 21.5098L63.8746 22.9831C62.5792 23.8339 61.1033 24.3714 59.5641 24.5529C58.0248 24.7344 56.4645 24.5549 55.0066 24.0286C53.665 23.5612 52.4529 22.7832 51.4693 21.7581C50.4857 20.7329 49.7584 19.4898 49.3468 18.13C49.2581 17.8439 49.1838 17.5393 49.1208 17.2375C49.0434 16.8673 48.8225 16.5428 48.5065 16.3351C48.1904 16.1274 47.805 16.0533 47.4345 16.129L40.31 17.5879C39.9393 17.6637 39.6138 17.8833 39.4046 18.1986L36.6312 22.3881C36.0024 23.335 35.0241 23.9943 33.9104 24.2219C32.7967 24.4494 31.6382 24.2267 30.6882 23.6024C30.3713 23.3913 30.1503 23.0637 30.0732 22.6908C29.9961 22.3178 30.069 21.9295 30.2763 21.61L35.6558 13.4972C36.1171 12.8005 36.7718 12.2537 37.5395 11.9238L50.4997 6.40275C52.213 5.67542 54.0944 5.43727 55.9349 5.71476L72.3121 8.21783C72.4652 8.24143 72.621 8.24143 72.7741 8.21783L77.0079 7.47693L81.0285 30.3264L79.0804 30.6639ZM84.2296 32.0013L79.2621 3.82387L83.4887 3.07868L88.4548 31.2561L84.2296 32.0013Z" fill="#43A862" stroke="white" stroke-width="0.610272" mask="url(#path-1-inside-1_9945_3095)"></path></svg>