<?xml version="1.0" encoding="UTF-8"?>
<svg xmlns="http://www.w3.org/2000/svg" width="150" height="150" viewBox="0 0 150 150" fill="none">
  <path d="M146.762 52.6313L113.917 19.7866C113.727 19.5961 113.501 19.4451 113.252 19.342C113.003 19.2389 112.736 19.1859 112.467 19.1859C112.198 19.1859 111.931 19.2389 111.682 19.342C111.433 19.4451 111.207 19.5961 111.017 19.7866L101.367 29.437C101.177 29.6274 101.026 29.8535 100.922 30.1023C100.819 30.3511 100.766 30.6178 100.766 30.8872C100.766 31.1565 100.819 31.4232 100.922 31.672C101.026 31.9208 101.177 32.1469 101.367 32.3374L103.751 34.7213C96.3807 38.6453 93.0122 39.4088 90.497 39.9792C86.8349 40.8088 84.5035 41.5319 78.0353 46.9559C77.1277 46.6838 76.1749 46.5958 75.2328 46.6969H75.2096C74.8138 46.6969 74.2033 46.7995 72.7997 47.6119C72.7833 47.5949 72.7683 47.5773 72.751 47.5609C65.9679 41.1238 63.5676 40.4347 59.5733 39.6882C56.9864 39.2048 53.5229 38.5562 46.252 34.718L48.6327 32.3368C48.8231 32.1463 48.9742 31.9203 49.0773 31.6714C49.1804 31.4226 49.2334 31.1559 49.2334 30.8866C49.2334 30.6173 49.1804 30.3506 49.0773 30.1017C48.9742 29.8529 48.8231 29.6268 48.6327 29.4364L38.9826 19.786C38.7921 19.5955 38.566 19.4445 38.3172 19.3414C38.0684 19.2383 37.8017 19.1853 37.5324 19.1853C37.263 19.1853 36.9964 19.2383 36.7475 19.3414C36.4987 19.4445 36.2726 19.5955 36.0822 19.786L3.23745 52.6313C3.047 52.8217 2.89592 53.0478 2.79285 53.2967C2.68977 53.5455 2.63672 53.8122 2.63672 54.0815C2.63672 54.3508 2.68977 54.6175 2.79285 54.8664C2.89592 55.1152 3.047 55.3413 3.23745 55.5317L12.8876 65.1821C13.078 65.3725 13.3041 65.5236 13.5529 65.6267C13.8017 65.7298 14.0684 65.7828 14.3377 65.7828C14.6071 65.7828 14.8738 65.7298 15.1226 65.6267C15.3714 65.5236 15.5975 65.3725 15.7879 65.1821L16.7632 64.2068C21.6154 80.7666 27.3558 86.1399 37.3036 95.4496C40.1454 98.1083 43.3531 101.111 47.0073 104.813C47.8648 110.592 49.8596 116.507 54.1727 124.396H52.7928C52.2489 124.396 51.7273 124.612 51.3427 124.997C50.9581 125.381 50.742 125.903 50.742 126.447V140.094C50.742 140.638 50.9581 141.16 51.3427 141.545C51.7273 141.929 52.2489 142.145 52.7928 142.145H99.243C99.7869 142.145 100.309 141.929 100.693 141.545C101.078 141.16 101.294 140.638 101.294 140.094V126.446C101.294 125.902 101.078 125.38 100.693 124.996C100.309 124.611 99.7869 124.395 99.243 124.395H95.8759C98.3035 116.54 100.294 113.632 101.781 111.461C103.501 108.95 104.591 107.053 105.143 102.661C107.921 99.9173 110.456 97.5449 112.696 95.4484C122.644 86.1396 128.384 80.766 133.237 64.2059L134.212 65.1812C134.402 65.3717 134.629 65.5227 134.877 65.6258C135.126 65.7289 135.393 65.7819 135.662 65.7819C135.932 65.7819 136.198 65.7289 136.447 65.6258C136.696 65.5227 136.922 65.3717 137.112 65.1812L146.763 55.5308C147.147 55.1462 147.363 54.6247 147.363 54.081C147.363 53.5373 147.147 53.0158 146.762 52.6313ZM14.3375 60.8318L7.58775 54.0824L37.5324 24.1369L44.2824 30.8869L14.3375 60.8318ZM40.1073 92.454C29.9542 82.953 24.7692 78.1003 20.0873 60.8834L43.2236 37.747C51.7997 42.4052 55.8403 43.1623 58.8209 43.7195C61.8678 44.2884 63.5908 44.6116 69.3136 49.9562C67.1638 51.5347 64.2092 53.8712 60.1042 57.3288C57.0324 59.916 53.9181 62.6464 51.5597 64.8203C47.396 68.6582 47.1359 69.2974 46.9446 69.7647C46.8387 70.0249 46.7874 70.3041 46.7937 70.585C46.9481 77.4619 46.7665 82.9433 46.6059 87.7794C46.475 91.73 46.3616 95.1944 46.4665 98.4941C44.1561 96.2447 42.0461 94.2695 40.1073 92.454ZM97.1919 138.043H54.8436V128.496H97.1922L97.1919 138.043ZM91.5913 124.395H58.8743C50.0143 108.914 50.2428 101.811 50.704 87.9147C50.8607 83.1874 51.0379 77.8501 50.9076 71.1824C52.0701 69.8667 56.3058 65.8975 62.5648 60.6173C70.9094 53.5776 74.6231 51.1427 75.514 50.7891H75.5178C75.7706 50.7597 76.0256 50.7534 76.2795 50.7704C76.3321 50.8545 76.3909 50.9346 76.4553 51.01C76.7802 51.3869 77.2315 51.632 77.7245 51.6994C78.0968 52.4283 78.4815 53.9488 78.168 57.0437C78.1327 57.3945 78.1885 57.7484 78.3299 58.0713C78.4712 58.3943 78.6935 58.6753 78.9751 58.8873C79.2567 59.0993 79.5883 59.2352 79.9377 59.2817C80.2871 59.3283 80.6427 59.284 80.97 59.1531C83.0571 58.3181 84.7285 58.1605 85.9376 58.6843C86.9085 59.1056 87.7127 60.0437 88.3305 61.4749L88.2133 77.7053C88.2109 78.0422 88.2915 78.3744 88.4479 78.6728C88.6044 78.9711 88.832 79.2263 89.1105 79.4157C89.389 79.6052 89.7099 79.7232 90.0448 79.7592C90.3797 79.7952 90.7184 79.7482 91.0308 79.6222C93.6535 78.5652 95.7807 78.4375 97.3519 79.244C99.1466 80.1651 100.504 82.4028 101.388 85.8964C101.819 104.148 100.743 105.718 98.3972 109.142C96.6834 111.645 94.3616 115.037 91.5913 124.395ZM109.892 92.4543C108.545 93.714 107.09 95.0769 105.541 96.5579C105.613 93.6651 105.59 90.0891 105.482 85.5736C105.478 85.4263 105.458 85.2799 105.423 85.1368C104.246 80.3136 102.16 77.1039 99.2231 75.5965C97.2403 74.5794 94.9314 74.3561 92.3334 74.9268L92.4333 61.0961C92.435 60.8361 92.3874 60.5783 92.2929 60.3361C91.2461 57.651 89.6562 55.8302 87.5679 54.9244C86.05 54.2658 84.3122 54.1161 82.3771 54.4747C82.3276 52.4643 81.9549 50.8524 81.2568 49.6079C86.7998 45.0217 88.5157 44.6324 91.4014 43.9785C94.2708 43.329 98.1599 42.4463 106.777 37.7479L129.912 60.8834C125.232 78.1003 120.046 82.953 109.892 92.4543ZM135.661 60.8318L105.717 30.8869L112.467 24.1369L142.412 54.0824L135.661 60.8318ZM46.518 15.5892C46.3137 15.0852 46.3179 14.5207 46.5297 14.0198C46.7416 13.5189 47.1437 13.1226 47.6477 12.9182C56.3909 9.38696 65.7607 7.6699 75.1879 7.87135C84.6151 8.0728 93.903 10.1886 102.487 14.0901C102.736 14.1993 102.961 14.357 103.148 14.5539C103.336 14.7508 103.482 14.983 103.579 15.237C103.676 15.491 103.722 15.7617 103.713 16.0334C103.704 16.3052 103.642 16.5724 103.529 16.8197C103.416 17.067 103.255 17.2894 103.055 17.474C102.856 17.6585 102.621 17.8015 102.366 17.8946C102.11 17.9878 101.839 18.0292 101.568 18.0165C101.296 18.0039 101.03 17.9373 100.784 17.8208C92.7073 14.1513 83.9691 12.1615 75.0998 11.972C66.2306 11.7826 57.4154 13.3974 49.1893 16.7186C48.6853 16.9231 48.1207 16.919 47.6198 16.7072C47.1188 16.4954 46.7225 16.0932 46.518 15.5892ZM142.822 71.3016C143.883 83.7771 141.551 96.3073 136.075 107.567C130.599 118.826 122.181 128.396 111.713 135.264C111.258 135.552 110.709 135.65 110.182 135.537C109.656 135.423 109.196 135.108 108.9 134.658C108.605 134.208 108.498 133.66 108.603 133.132C108.708 132.604 109.016 132.139 109.461 131.836C119.312 125.373 127.233 116.368 132.386 105.773C137.539 95.1779 139.732 83.387 138.734 71.6476C138.708 71.3773 138.735 71.1045 138.815 70.845C138.895 70.5855 139.026 70.3444 139.2 70.1357C139.373 69.9271 139.587 69.755 139.828 69.6295C140.069 69.5041 140.332 69.4277 140.603 69.4048C140.873 69.3819 141.146 69.413 141.404 69.4962C141.663 69.5794 141.902 69.7132 142.108 69.8897C142.315 70.0662 142.484 70.2819 142.606 70.5243C142.729 70.7667 142.802 71.0311 142.821 71.3019L142.822 71.3016ZM45.5175 138.399C45.2746 138.885 44.8484 139.255 44.3326 139.428C43.8169 139.6 43.2538 139.561 42.7671 139.318C31.2216 133.564 21.5092 124.705 14.7214 113.735C7.93359 102.765 4.33925 90.1201 4.34224 77.2202C4.34224 76.6763 4.5583 76.1547 4.9429 75.7701C5.32749 75.3855 5.84912 75.1694 6.39302 75.1694C6.93692 75.1694 7.45854 75.3855 7.84314 75.7701C8.22774 76.1547 8.4438 76.6763 8.4438 77.2202C8.4438 102.128 22.2974 124.516 44.5985 135.649C45.085 135.892 45.4551 136.318 45.6274 136.833C45.7997 137.349 45.7602 137.912 45.5175 138.399Z" fill="#43A862" stroke="#43A862" stroke-width="1.5"></path>
</svg>
