<?xml version="1.0" encoding="UTF-8"?>
<svg xmlns="http://www.w3.org/2000/svg" width="150" height="150" viewBox="0 0 150 150" fill="none">
  <path d="M137.869 60.6295C137.303 44.6823 130.829 29.7714 119.487 18.4291C107.604 6.54629 91.8055 0.00195312 75.0005 0.00195312C58.1955 0.00195312 42.3966 6.54629 30.5138 18.4291C19.1715 29.7714 12.698 44.6823 12.132 60.6295C6.72969 60.8012 2.38672 65.2464 2.38672 70.69V98.0929C2.38672 103.645 6.90342 108.162 12.4555 108.162H16.3074C21.8595 108.162 26.3762 103.645 26.3762 98.0929V70.69C26.3762 65.278 22.0839 60.8519 16.7252 60.6318C17.3993 43.223 25.7381 27.7496 38.4564 17.496V19.528C38.4564 27.4941 44.9372 33.9749 52.9033 33.9749H97.0977C105.064 33.9749 111.545 27.4941 111.545 19.528V17.496C124.263 27.7493 132.602 43.223 133.276 60.6318C127.917 60.8519 123.625 65.278 123.625 70.69V98.0929C123.625 103.521 127.943 107.957 133.325 108.152V117.395C133.325 127.493 125.109 135.709 115.011 135.709H96.4751C96.3816 135.226 96.2592 134.748 96.1065 134.277C94.4899 129.331 89.9059 126.008 84.7001 126.008C78.0872 126.008 72.7071 131.389 72.7071 138.004C72.7071 144.618 78.0872 150 84.7001 150C90.5299 150 95.3996 145.819 96.4736 140.299H115.011C127.64 140.299 137.914 130.024 137.914 117.395V108.153C143.296 107.957 147.614 103.522 147.614 98.0932V70.6903C147.614 65.2464 143.271 60.8012 137.869 60.6295ZM21.7868 70.6898V98.0926C21.7868 101.114 19.3288 103.572 16.3074 103.572H12.4555C9.43408 103.572 6.97607 101.114 6.97607 98.0926V70.6898C6.97607 67.6684 9.43408 65.2104 12.4555 65.2104H16.3074C19.3288 65.2104 21.7868 67.6684 21.7868 70.6898ZM106.955 19.528C106.955 24.9635 102.533 29.3855 97.0977 29.3855H52.9033C47.4679 29.3855 43.0458 24.9635 43.0458 19.528V14.1491C52.2301 8.11074 63.2111 4.59131 75.0005 4.59131C86.7898 4.59131 97.7709 8.11074 106.955 14.1491V19.528ZM84.6998 145.41C80.6173 145.41 77.2959 142.088 77.2959 138.003C77.2959 133.919 80.6173 130.597 84.6998 130.597C87.9148 130.597 90.7458 132.649 91.7419 135.696C91.9839 136.444 92.1066 137.22 92.1066 138.003C92.1066 142.088 88.7841 145.41 84.6998 145.41ZM143.025 98.0929C143.025 101.114 140.567 103.572 137.546 103.572H133.694C130.672 103.572 128.214 101.114 128.214 98.0929V70.69C128.214 67.6687 130.672 65.2106 133.694 65.2106H137.546C140.567 65.2106 143.025 67.6687 143.025 70.69V98.0929ZM97.0977 112.916C105.064 112.916 111.545 106.435 111.545 98.4688V70.3142C111.545 62.348 105.064 55.8673 97.0977 55.8673H52.9033C44.9372 55.8673 38.4564 62.348 38.4564 70.3142V138.004C38.4564 138.886 38.9618 139.689 39.7569 140.072C40.073 140.224 40.4129 140.299 40.751 140.299C41.2622 140.299 41.7696 140.128 42.1842 139.796L70.0455 117.521C73.7604 114.551 78.4256 112.916 83.1819 112.916H97.0977V112.916ZM67.1794 113.937L43.0458 133.231V70.3139C43.0458 64.8784 47.4679 60.4563 52.9033 60.4563H97.0977C102.533 60.4563 106.955 64.8784 106.955 70.3139V98.4685C106.955 103.904 102.533 108.326 97.0977 108.326H83.1814C77.3876 108.326 71.7046 110.319 67.1794 113.937ZM51.7224 76.2978C51.7224 75.0304 52.7498 74.0032 54.0169 74.0032H95.9311C97.1984 74.0032 98.2256 75.0307 98.2256 76.2978C98.2256 77.5651 97.1981 78.5923 95.9311 78.5923H54.0172C52.7498 78.5923 51.7224 77.5648 51.7224 76.2978ZM83.4834 92.4849C83.4834 93.7522 82.456 94.7794 81.1889 94.7794H54.0172C52.7498 94.7794 51.7227 93.752 51.7227 92.4849C51.7227 91.2175 52.7501 90.1903 54.0172 90.1903H81.1889C82.4562 90.1903 83.4834 91.2178 83.4834 92.4849ZM98.2259 92.4849C98.2259 93.7522 97.1984 94.7794 95.9314 94.7794C94.664 94.7794 93.6368 93.752 93.6368 92.4849C93.6368 91.2175 94.6643 90.1903 95.9314 90.1903C97.1984 90.1903 98.2259 91.2175 98.2259 92.4849Z" fill="#43A862"></path>
</svg>
