<?xml version="1.0" encoding="UTF-8"?>
<svg xmlns="http://www.w3.org/2000/svg" width="150" height="150" viewBox="0 0 150 150" fill="none">
  <mask id="path-1-inside-1_1249_482" fill="white">
    <path fill-rule="evenodd" clip-rule="evenodd" d="M99.0301 145.032H22.498C18.8298 145.032 15.8242 142.038 15.8242 138.358V24.5094C15.8242 20.8294 18.818 17.8356 22.498 17.8356H41.6083V14.2726C41.6083 13.1356 42.5301 12.2138 43.6672 12.2138H53.9369C54.911 6.60881 59.7939 2.35352 65.671 2.35352C71.5478 2.35352 76.4375 6.6091 77.413 12.2138H87.683C88.8201 12.2138 89.7419 13.1356 89.7419 14.2726V17.8356H108.844C112.524 17.8356 115.518 20.8294 115.518 24.5094V99.892C126.206 102.4 134.174 112.002 134.174 123.451C134.174 136.805 123.332 147.648 109.977 147.648C106.038 147.648 102.318 146.704 99.0301 145.032ZM41.6083 21.9532H22.498C21.0886 21.9532 19.9419 23.1 19.9419 24.5094V138.358C19.9419 139.768 21.093 140.914 22.498 140.914H93.2354C91.6616 139.405 90.2913 137.686 89.1698 135.801H27.1133C25.9763 135.801 25.0545 134.88 25.0545 133.743V29.1247C25.0545 27.9876 25.9763 27.0659 27.1133 27.0659H41.6083V21.9532ZM85.6242 27.0659V16.3315H75.5313C74.3942 16.3315 73.4725 15.4097 73.4725 14.2726C73.4725 9.96087 69.9766 6.47116 65.671 6.47116C61.366 6.47116 57.8777 9.96116 57.8777 14.2726C57.8777 15.4097 56.956 16.3315 55.8189 16.3315H45.726V27.0659H85.6242ZM111.4 99.2947V24.5094C111.4 23.1 110.254 21.9532 108.844 21.9532H89.7419V27.0659H104.229C105.366 27.0659 106.287 27.9876 106.287 29.1247V99.5335C107.491 99.3491 108.723 99.2535 109.977 99.2535C110.455 99.2535 110.929 99.2673 111.4 99.2947ZM87.2192 131.684C86.288 129.114 85.7801 126.341 85.7801 123.451C85.7801 121.257 86.0725 119.131 86.6207 117.111H60.1033C58.9669 117.111 58.0445 116.188 58.0445 115.052C58.0445 113.916 58.9669 112.993 60.1033 112.993H88.1539C90.9483 107.177 95.9998 102.648 102.17 100.543V31.1835C99.4322 31.1835 29.1722 31.1835 29.1722 31.1835V131.684H87.2192ZM109.977 103.371C98.8951 103.371 89.8978 112.369 89.8978 123.451C89.8978 134.533 98.8951 143.53 109.977 143.53C121.059 143.53 130.057 134.533 130.057 123.451C130.057 112.369 121.059 103.371 109.977 103.371ZM98.3322 123.263C97.4883 122.502 97.4213 121.199 98.1822 120.355C98.9433 119.511 100.246 119.444 101.09 120.206L107.708 126.175L118.89 116.423C119.747 115.676 121.048 115.765 121.795 116.621C122.542 117.478 122.453 118.779 121.597 119.526L109.038 130.478C108.253 131.163 107.08 131.153 106.306 130.456L98.3322 123.263ZM65.671 16.8668C64.2389 16.8668 63.0772 15.7047 63.0772 14.2726C63.0772 12.8406 64.2389 11.6706 65.671 11.6706C67.103 11.6706 68.273 12.8406 68.273 14.2726C68.273 15.7047 67.103 16.8668 65.671 16.8668ZM44.6592 48.1991C43.523 48.1991 42.6004 47.2767 42.6004 46.1403C42.6004 45.0041 43.523 44.0815 44.6592 44.0815H49.911L52.2095 38.4279C52.5322 37.6344 53.3125 37.1235 54.1686 37.145C55.0248 37.1667 55.7783 37.7162 56.0607 38.525L59.3507 47.9529L60.2498 45.4997C60.5522 44.6744 61.3448 44.1323 62.2233 44.1497L65.1692 44.2076L67.0633 38.0641C67.3278 37.2067 68.1172 36.6191 69.0145 36.612C69.9119 36.605 70.7104 37.18 70.9883 38.0332L74.418 48.565L77.3713 44.8576C77.7619 44.3673 78.3548 44.0815 78.9816 44.0815H86.6828C87.8189 44.0815 88.7416 45.0041 88.7416 46.1403C88.7416 47.2767 87.8189 48.1991 86.6828 48.1991H79.9739L75.2554 54.1229C74.7836 54.7153 74.0242 55.0009 73.2789 54.8662C72.5333 54.7312 71.9222 54.1979 71.6875 53.4776L69.0845 45.4844L68.6469 46.9032C68.3763 47.7809 67.5572 48.3732 66.6389 48.355L63.6107 48.2953L61.2369 54.7747C60.9375 55.5915 60.1575 56.1317 59.2878 56.1253C58.418 56.1185 57.6463 55.5659 57.3598 54.7447L53.9698 45.0312L53.2036 46.9159C52.8883 47.6917 52.1342 48.1991 51.2966 48.1991H44.6592ZM53.2213 64.5003V75.675C53.2213 76.812 52.2995 77.7338 51.1625 77.7338H39.9877C38.8507 77.7338 37.9289 76.812 37.9289 75.675V64.5003C37.9289 63.3632 38.8507 62.4415 39.9877 62.4415H51.1625C52.2995 62.4415 53.2213 63.3632 53.2213 64.5003ZM49.1036 66.5591H42.0466V73.6162H49.1036V66.5591ZM60.1033 72.1465C58.9669 72.1465 58.0445 71.2241 58.0445 70.0876C58.0445 68.9515 58.9669 68.0288 60.1033 68.0288H91.3542C92.4907 68.0288 93.413 68.9515 93.413 70.0876C93.413 71.2241 92.4907 72.1465 91.3542 72.1465H60.1033ZM53.2213 109.464V120.639C53.2213 121.776 52.2995 122.698 51.1625 122.698H39.9877C38.8507 122.698 37.9289 121.776 37.9289 120.639V109.464C37.9289 108.327 38.8507 107.406 39.9877 107.406H51.1625C52.2995 107.406 53.2213 108.327 53.2213 109.464ZM49.1036 111.523H42.0466V118.58H49.1036V111.523ZM60.1033 94.6285C58.9669 94.6285 58.0445 93.7062 58.0445 92.5697C58.0445 91.4335 58.9669 90.5109 60.1033 90.5109H91.3542C92.4907 90.5109 93.413 91.4335 93.413 92.5697C93.413 93.7062 92.4907 94.6285 91.3542 94.6285H60.1033ZM53.2213 86.9823V98.157C53.2213 99.2941 52.2995 100.216 51.1625 100.216H39.9877C38.8507 100.216 37.9289 99.2941 37.9289 98.157V86.9823C37.9289 85.8453 38.8507 84.9235 39.9877 84.9235H51.1625C52.2995 84.9235 53.2213 85.8453 53.2213 86.9823ZM49.1036 89.0412H42.0466V96.0982H49.1036V89.0412Z"></path>
  </mask>
  <path fill-rule="evenodd" clip-rule="evenodd" d="M99.0301 145.032H22.498C18.8298 145.032 15.8242 142.038 15.8242 138.358V24.5094C15.8242 20.8294 18.818 17.8356 22.498 17.8356H41.6083V14.2726C41.6083 13.1356 42.5301 12.2138 43.6672 12.2138H53.9369C54.911 6.60881 59.7939 2.35352 65.671 2.35352C71.5478 2.35352 76.4375 6.6091 77.413 12.2138H87.683C88.8201 12.2138 89.7419 13.1356 89.7419 14.2726V17.8356H108.844C112.524 17.8356 115.518 20.8294 115.518 24.5094V99.892C126.206 102.4 134.174 112.002 134.174 123.451C134.174 136.805 123.332 147.648 109.977 147.648C106.038 147.648 102.318 146.704 99.0301 145.032ZM41.6083 21.9532H22.498C21.0886 21.9532 19.9419 23.1 19.9419 24.5094V138.358C19.9419 139.768 21.093 140.914 22.498 140.914H93.2354C91.6616 139.405 90.2913 137.686 89.1698 135.801H27.1133C25.9763 135.801 25.0545 134.88 25.0545 133.743V29.1247C25.0545 27.9876 25.9763 27.0659 27.1133 27.0659H41.6083V21.9532ZM85.6242 27.0659V16.3315H75.5313C74.3942 16.3315 73.4725 15.4097 73.4725 14.2726C73.4725 9.96087 69.9766 6.47116 65.671 6.47116C61.366 6.47116 57.8777 9.96116 57.8777 14.2726C57.8777 15.4097 56.956 16.3315 55.8189 16.3315H45.726V27.0659H85.6242ZM111.4 99.2947V24.5094C111.4 23.1 110.254 21.9532 108.844 21.9532H89.7419V27.0659H104.229C105.366 27.0659 106.287 27.9876 106.287 29.1247V99.5335C107.491 99.3491 108.723 99.2535 109.977 99.2535C110.455 99.2535 110.929 99.2673 111.4 99.2947ZM87.2192 131.684C86.288 129.114 85.7801 126.341 85.7801 123.451C85.7801 121.257 86.0725 119.131 86.6207 117.111H60.1033C58.9669 117.111 58.0445 116.188 58.0445 115.052C58.0445 113.916 58.9669 112.993 60.1033 112.993H88.1539C90.9483 107.177 95.9998 102.648 102.17 100.543V31.1835C99.4322 31.1835 29.1722 31.1835 29.1722 31.1835V131.684H87.2192ZM109.977 103.371C98.8951 103.371 89.8978 112.369 89.8978 123.451C89.8978 134.533 98.8951 143.53 109.977 143.53C121.059 143.53 130.057 134.533 130.057 123.451C130.057 112.369 121.059 103.371 109.977 103.371ZM98.3322 123.263C97.4883 122.502 97.4213 121.199 98.1822 120.355C98.9433 119.511 100.246 119.444 101.09 120.206L107.708 126.175L118.89 116.423C119.747 115.676 121.048 115.765 121.795 116.621C122.542 117.478 122.453 118.779 121.597 119.526L109.038 130.478C108.253 131.163 107.08 131.153 106.306 130.456L98.3322 123.263ZM65.671 16.8668C64.2389 16.8668 63.0772 15.7047 63.0772 14.2726C63.0772 12.8406 64.2389 11.6706 65.671 11.6706C67.103 11.6706 68.273 12.8406 68.273 14.2726C68.273 15.7047 67.103 16.8668 65.671 16.8668ZM44.6592 48.1991C43.523 48.1991 42.6004 47.2767 42.6004 46.1403C42.6004 45.0041 43.523 44.0815 44.6592 44.0815H49.911L52.2095 38.4279C52.5322 37.6344 53.3125 37.1235 54.1686 37.145C55.0248 37.1667 55.7783 37.7162 56.0607 38.525L59.3507 47.9529L60.2498 45.4997C60.5522 44.6744 61.3448 44.1323 62.2233 44.1497L65.1692 44.2076L67.0633 38.0641C67.3278 37.2067 68.1172 36.6191 69.0145 36.612C69.9119 36.605 70.7104 37.18 70.9883 38.0332L74.418 48.565L77.3713 44.8576C77.7619 44.3673 78.3548 44.0815 78.9816 44.0815H86.6828C87.8189 44.0815 88.7416 45.0041 88.7416 46.1403C88.7416 47.2767 87.8189 48.1991 86.6828 48.1991H79.9739L75.2554 54.1229C74.7836 54.7153 74.0242 55.0009 73.2789 54.8662C72.5333 54.7312 71.9222 54.1979 71.6875 53.4776L69.0845 45.4844L68.6469 46.9032C68.3763 47.7809 67.5572 48.3732 66.6389 48.355L63.6107 48.2953L61.2369 54.7747C60.9375 55.5915 60.1575 56.1317 59.2878 56.1253C58.418 56.1185 57.6463 55.5659 57.3598 54.7447L53.9698 45.0312L53.2036 46.9159C52.8883 47.6917 52.1342 48.1991 51.2966 48.1991H44.6592ZM53.2213 64.5003V75.675C53.2213 76.812 52.2995 77.7338 51.1625 77.7338H39.9877C38.8507 77.7338 37.9289 76.812 37.9289 75.675V64.5003C37.9289 63.3632 38.8507 62.4415 39.9877 62.4415H51.1625C52.2995 62.4415 53.2213 63.3632 53.2213 64.5003ZM49.1036 66.5591H42.0466V73.6162H49.1036V66.5591ZM60.1033 72.1465C58.9669 72.1465 58.0445 71.2241 58.0445 70.0876C58.0445 68.9515 58.9669 68.0288 60.1033 68.0288H91.3542C92.4907 68.0288 93.413 68.9515 93.413 70.0876C93.413 71.2241 92.4907 72.1465 91.3542 72.1465H60.1033ZM53.2213 109.464V120.639C53.2213 121.776 52.2995 122.698 51.1625 122.698H39.9877C38.8507 122.698 37.9289 121.776 37.9289 120.639V109.464C37.9289 108.327 38.8507 107.406 39.9877 107.406H51.1625C52.2995 107.406 53.2213 108.327 53.2213 109.464ZM49.1036 111.523H42.0466V118.58H49.1036V111.523ZM60.1033 94.6285C58.9669 94.6285 58.0445 93.7062 58.0445 92.5697C58.0445 91.4335 58.9669 90.5109 60.1033 90.5109H91.3542C92.4907 90.5109 93.413 91.4335 93.413 92.5697C93.413 93.7062 92.4907 94.6285 91.3542 94.6285H60.1033ZM53.2213 86.9823V98.157C53.2213 99.2941 52.2995 100.216 51.1625 100.216H39.9877C38.8507 100.216 37.9289 99.2941 37.9289 98.157V86.9823C37.9289 85.8453 38.8507 84.9235 39.9877 84.9235H51.1625C52.2995 84.9235 53.2213 85.8453 53.2213 86.9823ZM49.1036 89.0412H42.0466V96.0982H49.1036V89.0412Z" fill="#43A862" stroke="white" mask="url(#path-1-inside-1_1249_482)"></path>
</svg>
