<?xml version="1.0" encoding="UTF-8"?>
<svg xmlns="http://www.w3.org/2000/svg" width="150" height="150" viewBox="0 0 150 150" fill="none">
  <path d="M149.63 17.9888C149.249 17.0021 148.311 16.342 147.254 16.3168L133.936 15.9961L134.254 2.67795C134.279 1.6202 133.665 0.652085 132.698 0.224138C131.731 -0.204473 130.601 -0.00759752 129.835 0.722469L115.088 14.7783C114.693 15.1551 114.426 15.6458 114.324 16.1824L110.61 35.692L108.884 37.4174C97.3114 26.733 81.8571 20.1949 64.9022 20.1949C29.115 20.1949 0 49.3099 0 85.0971C0 120.884 29.115 149.999 64.9022 149.999C100.689 149.999 129.804 120.884 129.804 85.0971C129.804 68.1426 123.266 52.688 112.583 41.1152L114.322 39.3755L132.969 35.5489C133.45 35.4503 133.893 35.2185 134.248 34.8802L148.995 20.8244C149.761 20.0943 150.012 18.9755 149.63 17.9888ZM124.574 85.0971C124.574 118.001 97.8054 144.769 64.9022 144.769C31.9988 144.769 5.22999 118.001 5.22999 85.0971C5.22999 52.194 31.9988 25.4252 64.9022 25.4252C80.4149 25.4252 94.5624 31.3773 105.186 41.1152L91.4712 54.8297C84.373 48.5915 75.0727 44.8024 64.9026 44.8024C42.6842 44.8024 24.6081 62.8784 24.6081 85.0968C24.6081 107.315 42.6842 125.391 64.9026 125.391C87.121 125.391 105.197 107.316 105.197 85.0971C105.197 74.927 101.408 65.6264 95.1693 58.5285L108.884 44.814C118.622 55.437 124.574 69.5845 124.574 85.0971ZM66.7515 86.9464L73.9071 79.7908C74.828 81.3475 75.3586 83.1609 75.3586 85.0968C75.3586 90.8626 70.6677 95.5535 64.9022 95.5535C59.1364 95.5535 54.4456 90.8626 54.4456 85.0968C54.4456 79.3313 59.1364 74.6405 64.9022 74.6405C66.8381 74.6405 68.6518 75.1713 70.2082 76.092L63.0527 83.2476L66.7515 86.9464ZM73.9827 72.3178C71.4181 70.4898 68.2846 69.4102 64.9022 69.4102C56.2523 69.4102 49.2153 76.4472 49.2153 85.0968C49.2153 93.7467 56.2523 100.784 64.9022 100.784C73.5518 100.784 80.5889 93.7467 80.5889 85.0968C80.5889 81.7144 79.5092 78.5813 77.6812 76.0163L91.4649 62.2327C96.7602 68.376 99.9664 76.3689 99.9664 85.0968C99.9664 104.431 84.2365 120.161 64.9022 120.161C45.5676 120.161 29.8381 104.431 29.8381 85.0968C29.8381 65.7621 45.5679 50.0327 64.9022 50.0327C73.6302 50.0327 81.6231 53.2388 87.7664 58.5342L73.9827 72.3178ZM131.183 30.5759L116.327 33.6246L119.304 17.9841L128.874 8.8631L128.644 18.4844C128.61 19.9283 129.752 21.1268 131.196 21.1614L140.817 21.3931L131.183 30.5759Z" fill="#43A862"></path>
</svg>
