<?xml version="1.0" encoding="UTF-8"?>
<svg xmlns="http://www.w3.org/2000/svg" width="150" height="150" viewBox="0 0 150 150" fill="none">
  <path fill-rule="evenodd" clip-rule="evenodd" d="M87.731 27.0668C91.9942 28.1951 96.0812 29.8883 99.8983 32.1089L107.728 28.6274C108.618 28.2318 109.66 28.4251 110.348 29.1136L120.886 39.6512C121.574 40.3392 121.767 41.3789 121.373 42.268L117.904 50.0995C120.127 53.9183 121.821 58.0083 122.949 62.2848L130.935 65.3583C131.844 65.708 132.443 66.5809 132.443 67.5545V82.4604C132.443 83.4336 131.844 84.3065 130.935 84.6562C130.935 84.6562 122.948 87.7304 122.948 87.7301C121.818 91.9933 120.115 96.0804 117.903 99.8971L121.373 107.732C121.767 108.621 121.574 109.66 120.886 110.348L110.348 120.886C109.66 121.574 108.621 121.767 107.732 121.373C107.732 121.373 99.9018 117.905 99.9018 117.905C96.0936 120.126 91.9957 121.82 87.7301 122.948L84.6562 130.935C84.3065 131.844 83.4336 132.443 82.4604 132.443H67.5545C66.5809 132.443 65.708 131.844 65.3583 130.935C65.3583 130.935 62.2845 122.949 62.2848 122.949C58.0092 121.819 53.9201 120.115 50.1024 117.903L42.268 121.373C41.3789 121.767 40.3392 121.574 39.6512 120.886L29.1136 110.348C28.4251 109.66 28.2318 108.618 28.6274 107.728L32.1083 99.9001C29.888 96.0927 28.1939 91.9959 27.0554 87.7315L19.0645 84.6562C18.1559 84.3065 17.5565 83.4336 17.5565 82.4604V67.5545C17.5565 66.5809 18.1559 65.708 19.0645 65.3583C19.0645 65.3583 27.0545 62.2833 27.0542 62.2836C28.1933 58.008 29.8877 53.9192 32.1089 50.1012L28.6274 42.2712C28.2318 41.3815 28.4251 40.3398 29.1136 39.6512L39.6512 29.1136C40.3398 28.4251 41.3815 28.2318 42.2712 28.6274C42.2712 28.6274 50.1012 32.1089 50.1012 32.1092C53.9189 29.8877 58.0068 28.1945 62.2707 27.0662L65.3592 19.0624C65.7092 18.1551 66.5818 17.5565 67.5545 17.5565H82.4604C83.4342 17.5565 84.3074 18.1565 84.6565 19.0657L87.731 27.0668ZM83.7765 29.8951L80.8436 22.2624H69.1683L66.2218 29.8983C65.9427 30.6215 65.3251 31.1612 64.5707 31.3404C59.9512 32.4383 55.5454 34.2633 51.4959 36.7586C50.8348 37.166 50.0154 37.2209 49.3057 36.9054L41.8359 33.5842L33.5842 41.8359L36.9054 49.3057C37.2209 50.0154 37.166 50.8348 36.7586 51.4959C34.2624 55.5471 32.4368 59.9551 31.3242 64.591C31.1436 65.3439 30.6039 65.9595 29.8812 66.2377L22.2624 69.1701V80.8445L29.8812 83.7768C30.6033 84.0548 31.1427 84.6698 31.3239 85.4221C32.4362 90.0427 34.2609 94.4642 36.7565 98.5004C37.1657 99.1618 37.2215 99.983 36.9054 100.694L33.5842 108.164L41.8377 116.417L49.3089 113.108C50.0157 112.795 50.8315 112.849 51.491 113.253C55.5418 115.735 59.9486 117.576 64.5842 118.674C65.3401 118.853 65.9586 119.393 66.2377 120.118L69.1701 127.737H80.8445L83.7768 120.118C84.0557 119.394 84.6736 118.854 85.4289 118.674C90.0471 117.577 94.4662 115.752 98.5004 113.258C99.1609 112.849 99.9807 112.793 100.691 113.108L108.162 116.417L116.417 108.162L113.108 100.691C112.795 99.9839 112.849 99.168 113.253 98.5086C115.735 94.4577 117.576 90.0504 118.674 85.4289C118.854 84.6736 119.394 84.0557 120.118 83.7768L127.737 80.8445V69.1701L120.118 66.2377C119.393 65.9586 118.853 65.3401 118.674 64.5842C117.576 59.9507 115.751 55.5451 113.256 51.4959C112.849 50.8359 112.794 50.0177 113.108 49.3089L116.417 41.8377L108.164 33.5842L100.694 36.9054C99.9842 37.2209 99.1648 37.166 98.5036 36.7586C94.4542 34.2633 90.0483 32.4383 85.4289 31.3404C84.6733 31.1609 84.0551 30.6201 83.7765 29.8951ZM74.9983 41.6615C93.418 41.6615 108.353 56.5789 108.353 74.9983C108.353 93.4174 93.4174 108.353 74.9983 108.353C56.5789 108.353 41.6615 93.418 41.6615 74.9983C41.6615 56.5783 56.5783 41.6615 74.9983 41.6615ZM87.0904 100.977C96.8689 96.4171 103.647 86.4983 103.647 74.9983C103.647 59.1783 90.8183 46.3674 74.9983 46.3674C59.1786 46.3674 46.3674 59.1786 46.3674 74.9983C46.3674 86.4977 53.1362 96.4165 62.9092 100.977C62.9092 94.5577 62.9092 81.4577 62.9092 81.4577H56.7704C55.3142 81.4577 54.0433 80.6398 53.4327 79.3245C53.4307 79.3198 53.4283 79.3151 53.4262 79.3101C52.8195 77.9801 53.021 76.5321 53.9542 75.4121C53.9589 75.4065 53.9636 75.4009 53.9683 75.3954L72.1977 53.9286C72.2012 53.9245 72.2048 53.9204 72.2083 53.9162C72.9348 53.0724 73.8748 52.6324 74.9998 52.6324C76.1012 52.6324 77.0648 53.0724 77.7912 53.9162C77.7948 53.9204 77.7983 53.9245 77.8018 53.9286L96.0312 75.3954C96.0359 75.4009 96.0407 75.4065 96.0454 75.4121C96.9786 76.5321 97.1801 77.9801 96.5733 79.3101C96.5712 79.3151 96.5689 79.3198 96.5668 79.3245C95.9562 80.6398 94.6854 81.4577 93.2292 81.4577H87.0904V100.977ZM67.6151 102.686C69.9704 103.313 72.4451 103.647 74.9983 103.647C77.5521 103.647 80.028 103.313 82.3845 102.686V79.1048C82.3845 77.8054 83.438 76.7518 84.7374 76.7518H91.0095C87.3554 72.4489 77.7901 61.1848 74.9998 57.8989C72.193 61.2042 62.6283 72.4674 58.9901 76.7518H65.2621C66.5615 76.7518 67.6151 77.8054 67.6151 79.1048V102.686ZM106.048 8.98771L105.174 5.43448C104.864 4.17359 105.636 2.89801 106.897 2.58771C108.158 2.27771 109.434 3.05006 109.744 4.31095L111.853 12.8912C112.128 14.0095 111.554 15.1621 110.495 15.6157L102.374 19.0965C101.18 19.6083 99.796 19.0545 99.2845 17.8609C98.773 16.6674 99.3265 15.283 100.52 14.7712L104.061 13.2536C95.2424 9.09154 85.3907 6.76448 74.9998 6.76448C37.3398 6.76448 6.76448 37.3398 6.76448 74.9998C6.76448 112.66 37.3398 143.235 74.9998 143.235C112.66 143.235 143.235 112.66 143.235 74.9998C143.235 67.003 141.857 59.326 139.325 52.193C138.89 50.9692 139.531 49.623 140.755 49.1883C141.979 48.7539 143.325 49.3948 143.759 50.6186C146.467 58.2439 147.941 66.451 147.941 74.9998C147.941 115.257 115.257 147.941 74.9998 147.941C34.7424 147.941 2.05859 115.257 2.05859 74.9998C2.05859 34.7424 34.7424 2.05859 74.9998 2.05859C86.1004 2.05859 96.6251 4.54418 106.048 8.98771Z" fill="#43A862"></path>
</svg>
