<?xml version="1.0" encoding="UTF-8"?>
<svg xmlns="http://www.w3.org/2000/svg" width="150" height="150" viewBox="0 0 150 150" fill="none">
  <path fill-rule="evenodd" clip-rule="evenodd" d="M37.4514 107.679C37.4514 105.816 36.7115 104.03 35.3944 102.713C34.0777 101.396 32.2916 100.656 30.4288 100.656C27.5691 100.656 23.9253 100.656 21.0656 100.656C19.2032 100.656 17.4167 101.396 16.1 102.713C14.7829 104.03 14.043 105.816 14.043 107.679V124.064C14.043 125.927 14.7829 127.713 16.1 129.03C17.4167 130.347 19.2032 131.087 21.0656 131.087H30.4288C32.2916 131.087 34.0777 130.347 35.3944 129.03C36.7115 127.713 37.4514 125.927 37.4514 124.064V107.679ZM32.7698 107.679V124.064C32.7698 124.685 32.5229 125.281 32.0843 125.72C31.6452 126.159 31.0499 126.405 30.4288 126.405C27.5691 126.405 23.9253 126.405 21.0656 126.405C20.4449 126.405 19.8491 126.159 19.4105 125.72C18.9715 125.281 18.7246 124.685 18.7246 124.064C18.7246 119.415 18.7246 112.328 18.7246 107.679C18.7246 107.058 18.9715 106.462 19.4105 106.023C19.8491 105.584 20.4449 105.338 21.0656 105.338H30.4288C31.0499 105.338 31.6452 105.584 32.0843 106.023C32.5229 106.462 32.7698 107.058 32.7698 107.679Z" fill="#43A862"></path>
  <path fill-rule="evenodd" clip-rule="evenodd" d="M70.2248 98.3152C70.2248 96.4528 69.4849 94.6667 68.1678 93.3496C66.8511 92.0329 65.0646 91.293 63.2022 91.293C60.3425 91.293 56.6987 91.293 53.839 91.293C51.9762 91.293 50.1901 92.0329 48.8734 93.3496C47.5563 94.6667 46.8164 96.4528 46.8164 98.3152V124.064C46.8164 125.927 47.5563 127.713 48.8734 129.03C50.1901 130.347 51.9762 131.087 53.839 131.087H63.2022C65.0646 131.087 66.8511 130.347 68.1678 129.03C69.4849 127.713 70.2248 125.927 70.2248 124.064V98.3152ZM65.5432 98.3152V124.064C65.5432 124.685 65.2963 125.281 64.8573 125.72C64.4186 126.159 63.8229 126.405 63.2022 126.405C60.3425 126.405 56.6987 126.405 53.839 126.405C53.218 126.405 52.6226 126.159 52.1835 125.72C51.7449 125.281 51.498 124.685 51.498 124.064C51.498 117.345 51.498 105.035 51.498 98.3152C51.498 97.6945 51.7449 97.0991 52.1835 96.6601C52.6226 96.2211 53.218 95.9746 53.839 95.9746H63.2022C63.8229 95.9746 64.4186 96.2211 64.8573 96.6601C65.2963 97.0991 65.5432 97.6945 65.5432 98.3152Z" fill="#43A862"></path>
  <path fill-rule="evenodd" clip-rule="evenodd" d="M102.994 88.9523C102.994 85.0738 99.8503 81.9297 95.9718 81.9297C93.1121 81.9297 89.4678 81.9297 86.6085 81.9297C82.73 81.9297 79.5859 85.0738 79.5859 88.9523V124.065C79.5859 127.943 82.73 131.087 86.6085 131.087H95.9718C99.8503 131.087 102.994 127.943 102.994 124.065V88.9523ZM98.3123 88.9523C98.3123 87.6596 97.2644 86.6117 95.9718 86.6117C93.1121 86.6117 89.4678 86.6117 86.6085 86.6117C85.3154 86.6117 84.2675 87.6596 84.2675 88.9523V124.065C84.2675 125.358 85.3154 126.406 86.6085 126.406H95.9718C97.2644 126.406 98.3123 125.358 98.3123 124.065V88.9523Z" fill="#43A862"></path>
  <path fill-rule="evenodd" clip-rule="evenodd" d="M135.767 74.9074C135.767 73.045 135.027 71.2585 133.711 69.9418C132.394 68.6247 130.608 67.8848 128.745 67.8848C125.886 67.8848 122.241 67.8848 119.382 67.8848C117.519 67.8848 115.733 68.6247 114.416 69.9418C113.099 71.2585 112.359 73.045 112.359 74.9074V124.064C112.359 125.927 113.099 127.713 114.416 129.03C115.733 130.347 117.519 131.087 119.382 131.087H128.745C130.608 131.087 132.394 130.347 133.711 129.03C135.027 127.713 135.767 125.927 135.767 124.064V74.9074ZM131.086 74.9074V124.064C131.086 124.685 130.839 125.281 130.4 125.72C129.961 126.159 129.366 126.405 128.745 126.405C125.886 126.405 122.241 126.405 119.382 126.405C118.761 126.405 118.166 126.159 117.727 125.72C117.287 125.281 117.041 124.685 117.041 124.064C117.041 113.102 117.041 85.8696 117.041 74.9074C117.041 74.2863 117.287 73.6909 117.727 73.2519C118.166 72.8133 118.761 72.5664 119.382 72.5664H128.745C129.366 72.5664 129.961 72.8133 130.4 73.2519C130.839 73.6909 131.086 74.2863 131.086 74.9074Z" fill="#43A862"></path>
  <path fill-rule="evenodd" clip-rule="evenodd" d="M99.6 32.2876L95.6874 28.375C93.6042 26.2918 93.0426 23.1296 94.2813 20.4566C95.5201 17.7835 98.296 16.1677 101.232 16.4108C108.28 16.9935 116.562 17.6786 121.361 18.0755C124.814 18.3612 127.542 21.1215 127.787 24.5765C128.126 29.3357 128.706 37.509 129.2 44.4536C129.408 47.3774 127.778 50.1229 125.111 51.3401C122.444 52.557 119.302 51.9899 117.23 49.9173L112.842 45.5293L93.2288 65.1423C91.4731 66.8984 89.0912 67.8848 86.6082 67.8848H52.2759L30.4281 84.2706C27.3253 86.5977 22.9239 85.9687 20.5968 82.8663C19.693 81.6608 18.6915 80.326 17.7877 79.1209C15.4606 76.0181 16.0896 71.6163 19.1924 69.2892C26.8403 63.5534 43.5367 51.0309 43.5367 51.0309C45.1576 49.8153 47.1287 49.1584 49.1549 49.1584H82.7297L99.6 32.2876ZM104.566 33.9427C105.48 33.0288 105.48 31.5465 104.566 30.6326C104.566 30.6326 101.987 28.0539 98.9979 25.0644C98.3035 24.3701 98.1165 23.3163 98.5294 22.4251C98.9423 21.534 99.8672 20.9955 100.846 21.0764C107.894 21.6595 116.176 22.3442 120.975 22.7416C122.126 22.8364 123.036 23.7566 123.118 24.9081C123.456 29.6677 124.037 37.8406 124.53 44.7857C124.599 45.7602 124.056 46.6754 123.167 47.0807C122.278 47.4865 121.231 47.2977 120.54 46.6067C117.338 43.4049 114.497 40.5637 114.497 40.5637C113.583 39.6494 112.101 39.6494 111.187 40.5637L89.9183 61.8321C89.0406 62.7098 87.8495 63.2032 86.6082 63.2032H51.4955C50.9891 63.2032 50.4965 63.3675 50.0912 63.6713C50.0912 63.6713 34.8641 75.0916 27.6194 80.5253C26.585 81.301 25.1179 81.0916 24.3422 80.0571C23.4384 78.8521 22.4368 77.5168 21.533 76.3118C20.7573 75.2774 20.9672 73.8102 22.0012 73.0345C29.649 67.2987 46.3458 54.7762 46.3458 54.7762C47.1561 54.1687 48.142 53.84 49.1549 53.84H83.6992C84.3198 53.84 84.9152 53.5931 85.3542 53.1545L104.566 33.9427Z" fill="#43A862"></path>
</svg>
