<?xml version="1.0" encoding="UTF-8"?>
<svg xmlns="http://www.w3.org/2000/svg" width="150" height="150" viewBox="0 0 150 150" fill="none">
  <path d="M53.9062 87.5769V103.125C53.9062 103.746 54.1532 104.343 54.5927 104.782C55.0323 105.222 55.6284 105.469 56.25 105.469C56.8716 105.469 57.4677 105.222 57.9073 104.782C58.3468 104.343 58.5938 103.746 58.5938 103.125V86.7186C58.5933 86.1644 58.3972 85.6282 58.0399 85.2045L35.4227 58.4733C34.9372 57.8973 34.6881 57.1586 34.7257 56.4061C34.7634 55.6537 35.0849 54.9435 35.6256 54.4188C36.1662 53.8941 36.8857 53.594 37.639 53.5789C38.3922 53.5638 39.1232 53.8349 39.6844 54.3376L59.3719 72.0542C59.8014 72.4414 60.3592 72.6558 60.9375 72.6561H89.0625C89.6415 72.6563 90.2001 72.4419 90.6302 72.0542L110.317 54.3376C110.878 53.8349 111.609 53.5638 112.362 53.5789C113.115 53.594 113.835 53.8941 114.375 54.4188C114.916 54.9435 115.238 55.6537 115.275 56.4061C115.313 57.1586 115.064 57.8973 114.578 58.4733L91.961 85.2045C91.6034 85.628 91.4069 86.1643 91.4062 86.7186V103.125C91.4062 103.746 91.6532 104.343 92.0927 104.782C92.5323 105.222 93.1284 105.469 93.75 105.469C94.3716 105.469 94.9677 105.222 95.4073 104.782C95.8468 104.343 96.0938 103.746 96.0938 103.125V87.5769L118.158 61.5015C119.413 60.0185 120.057 58.1144 119.962 56.1743C119.866 54.2342 119.037 52.4027 117.643 51.0503C116.249 49.6979 114.393 48.9253 112.451 48.8889C110.508 48.8525 108.625 49.5549 107.181 50.854L88.163 67.9686H85.4531C87.2718 65.9481 88.4659 63.4438 88.8908 60.7588C89.3157 58.0738 88.9533 55.3231 87.8475 52.8398C86.7416 50.3565 84.9396 48.2469 82.6597 46.7665C80.3798 45.286 77.7196 44.4981 75.0012 44.4981C72.2827 44.4981 69.6226 45.286 67.3427 46.7665C65.0627 48.2469 63.2608 50.3565 62.1549 52.8398C61.049 55.3231 60.6866 58.0738 61.1115 60.7588C61.5365 63.4438 62.7305 65.9481 64.5492 67.9686H61.837L42.8203 50.854C41.3762 49.5549 39.4927 48.8525 37.5506 48.8889C35.6085 48.9253 33.7526 49.6979 32.3583 51.0503C30.964 52.4027 30.1352 54.2342 30.0396 56.1743C29.944 58.1144 30.5886 60.0185 31.8431 61.5015L53.9062 87.5769ZM65.625 58.5936C65.625 56.7394 66.1748 54.9268 67.205 53.3851C68.2351 51.8434 69.6993 50.6418 71.4123 49.9322C73.1254 49.2226 75.0104 49.037 76.829 49.3987C78.6475 49.7604 80.318 50.6533 81.6291 51.9644C82.9402 53.2756 83.8331 54.946 84.1949 56.7646C84.5566 58.5832 84.3709 60.4682 83.6614 62.1812C82.9518 63.8943 81.7502 65.3585 80.2085 66.3886C78.6668 67.4187 76.8542 67.9686 75 67.9686C72.5144 67.966 70.1313 66.9774 68.3737 65.2198C66.6162 63.4622 65.6276 61.0792 65.625 58.5936ZM65.0895 28.1419L63.5513 37.104C63.4776 37.5347 63.5259 37.9775 63.6905 38.3822C63.8552 38.787 64.1298 39.1377 64.4832 39.3946C64.8367 39.6516 65.2549 39.8046 65.6908 39.8365C66.1266 39.8683 66.5627 39.7776 66.9497 39.5747L75 35.3436L83.0498 39.5745C83.4369 39.7774 83.8729 39.8681 84.3087 39.8362C84.7446 39.8044 85.1628 39.6514 85.5163 39.3944C85.8697 39.1374 86.1443 38.7868 86.309 38.382C86.4737 37.9772 86.5219 37.5345 86.4483 37.1037L84.9101 28.1417L91.4222 21.7967C91.7356 21.4914 91.9573 21.1044 92.0621 20.6797C92.167 20.2549 92.1509 19.8093 92.0156 19.3932C91.8803 18.9771 91.6313 18.6072 91.2966 18.3253C90.962 18.0434 90.5551 17.8609 90.1221 17.7983L81.1249 16.4911L77.1012 8.33794C76.8855 7.97247 76.5783 7.66956 76.2098 7.45912C75.8413 7.24868 75.4243 7.138 75 7.138C74.5757 7.138 74.1587 7.24868 73.7902 7.45912C73.4217 7.66956 73.1145 7.97247 72.8988 8.33794L68.8751 16.4907L59.8779 17.7978C59.4448 17.8603 59.0378 18.0429 58.7031 18.3248C58.3684 18.6067 58.1193 18.9767 57.984 19.3928C57.8486 19.809 57.8326 20.2547 57.9375 20.6796C58.0425 21.1044 58.2643 21.4914 58.5778 21.7967L65.0895 28.1419ZM70.7679 20.9529C71.1441 20.8985 71.5014 20.7533 71.8089 20.5298C72.1164 20.3063 72.3649 20.0113 72.5327 19.6702L75 14.6717L77.4673 19.6704C77.6351 20.0115 77.8836 20.3065 78.1911 20.53C78.4986 20.7535 78.8559 20.8988 79.2321 20.9532L84.7481 21.7543L80.7565 25.6449C80.4847 25.9104 80.2815 26.2379 80.1642 26.5993C80.047 26.9607 80.0192 27.3451 80.0834 27.7196L81.0265 33.2152L76.0894 30.6207C75.7533 30.4439 75.3793 30.3516 74.9995 30.3516C74.6198 30.3516 74.2458 30.4439 73.9097 30.6207L68.9726 33.2152L69.9157 27.7196C69.9798 27.3451 69.9521 26.9607 69.8348 26.5993C69.7176 26.2379 69.5144 25.9104 69.2426 25.6449L65.2509 21.7543L70.7679 20.9529ZM100.781 21.0936H110.156C110.778 21.0936 111.374 21.3405 111.814 21.78C112.253 22.2196 112.5 22.8157 112.5 23.4373C112.5 24.0589 112.253 24.6551 111.814 25.0946C111.374 25.5341 110.778 25.7811 110.156 25.7811H100.781C100.16 25.7811 99.5635 25.5341 99.124 25.0946C98.6844 24.6551 98.4375 24.0589 98.4375 23.4373C98.4375 22.8157 98.6844 22.2196 99.124 21.78C99.5635 21.3405 100.16 21.0936 100.781 21.0936ZM94.1437 13.0186C93.9728 12.7626 93.854 12.4754 93.7942 12.1735C93.7343 11.8715 93.7346 11.5607 93.795 11.2589C93.8553 10.957 93.9746 10.67 94.146 10.4143C94.3173 10.1586 94.5374 9.93916 94.7937 9.76857L101.825 5.08107C102.342 4.74304 102.972 4.62292 103.577 4.74686C104.183 4.87079 104.714 5.22875 105.057 5.74284C105.4 6.25694 105.526 6.88559 105.407 7.49203C105.289 8.09846 104.936 8.63362 104.425 8.98107L97.3938 13.6686C96.8766 14.0133 96.2437 14.1386 95.6342 14.0167C95.0247 13.8948 94.4886 13.5358 94.1437 13.0186ZM94.7937 37.1061C94.2827 36.7586 93.9297 36.2235 93.8113 35.617C93.6929 35.0106 93.8188 34.3819 94.1615 33.8678C94.5043 33.3537 95.0362 32.9958 95.6415 32.8719C96.2468 32.7479 96.8766 32.868 97.3938 33.2061L104.425 37.8936C104.684 38.0629 104.907 38.282 105.081 38.538C105.255 38.7941 105.377 39.0821 105.439 39.3854C105.501 39.6887 105.502 40.0013 105.443 40.3051C105.384 40.609 105.265 40.898 105.093 41.1556C104.921 41.4132 104.7 41.6342 104.443 41.8059C104.185 41.9776 103.896 42.0965 103.592 42.1558C103.288 42.2151 102.975 42.2137 102.672 42.1515C102.369 42.0893 102.081 41.9677 101.825 41.7936L94.7937 37.1061ZM37.5 23.4373C37.5 22.8157 37.7469 22.2196 38.1865 21.78C38.626 21.3405 39.2221 21.0936 39.8438 21.0936H49.2188C49.8404 21.0936 50.4365 21.3405 50.876 21.78C51.3156 22.2196 51.5625 22.8157 51.5625 23.4373C51.5625 24.0589 51.3156 24.6551 50.876 25.0946C50.4365 25.5341 49.8404 25.7811 49.2188 25.7811H39.8438C39.2221 25.7811 38.626 25.5341 38.1865 25.0946C37.7469 24.6551 37.5 24.0589 37.5 23.4373ZM43.2312 8.98107C42.7202 8.63362 42.3672 8.09846 42.2488 7.49203C42.1304 6.88559 42.2563 6.25694 42.599 5.74284C42.9418 5.22875 43.4737 4.87079 44.079 4.74686C44.6843 4.62292 45.3141 4.74304 45.8313 5.08107L52.8626 9.76857C53.1217 9.93794 53.3448 10.157 53.5188 10.413C53.6928 10.6691 53.8144 10.9571 53.8765 11.2604C53.9386 11.5637 53.94 11.8763 53.8806 12.1801C53.8212 12.484 53.7022 12.773 53.5304 13.0306C53.3587 13.2882 53.1376 13.5092 52.88 13.6809C52.6224 13.8526 52.3333 13.9715 52.0294 14.0308C51.7256 14.0901 51.413 14.0887 51.1097 14.0265C50.8064 13.9643 50.5184 13.8427 50.2624 13.6686L43.2312 8.98107ZM55.8563 33.856C56.0272 34.112 56.146 34.3992 56.2058 34.7012C56.2657 35.0031 56.2654 35.3139 56.205 35.6158C56.1447 35.9176 56.0254 36.2046 55.854 36.4603C55.6827 36.716 55.4626 36.9355 55.2063 37.1061L48.1751 41.7936C47.9191 41.9677 47.6311 42.0893 47.3278 42.1515C47.0245 42.2137 46.7119 42.2151 46.4081 42.1558C46.1042 42.0965 45.8151 41.9776 45.5575 41.8059C45.2999 41.6342 45.0788 41.4132 44.9071 41.1556C44.7353 40.898 44.6163 40.609 44.5569 40.3051C44.4975 40.0013 44.4989 39.6887 44.561 39.3854C44.6231 39.0821 44.7447 38.7941 44.9187 38.538C45.0927 38.282 45.3158 38.0629 45.5749 37.8936L52.6062 33.2061C52.8621 33.0349 53.1493 32.916 53.4513 32.856C53.7533 32.796 54.0642 32.7962 54.3661 32.8566C54.668 32.917 54.955 33.0363 55.2107 33.2078C55.4664 33.3793 55.6858 33.5996 55.8563 33.856ZM127.592 112.552C129.425 110.536 130.633 108.032 131.069 105.343C131.505 102.653 131.15 99.8954 130.048 97.4039C128.947 94.9124 127.145 92.7945 124.862 91.3078C122.579 89.8211 119.913 89.0295 117.189 89.0292C114.465 89.0289 111.799 89.82 109.516 91.3063C107.233 92.7925 105.43 94.91 104.328 97.4013C103.225 99.8926 102.87 102.65 103.306 105.34C103.741 108.029 104.949 110.534 106.781 112.55C103.5 112.766 100.359 113.961 97.7632 115.98C95.1676 117.999 93.2368 120.75 92.2198 123.877C90.1187 122.735 87.7919 122.069 85.4046 121.927C87.2374 119.911 88.4453 117.407 88.8813 114.717C89.3173 112.028 88.9627 109.27 87.8606 106.778C86.7585 104.287 84.9564 102.169 82.6733 100.682C80.3902 99.1956 77.7244 98.4042 75 98.4042C72.2756 98.4042 69.6098 99.1956 67.3267 100.682C65.0436 102.169 63.2415 104.287 62.1394 106.778C61.0373 109.27 60.6827 112.028 61.1187 114.717C61.5547 117.407 62.7626 119.911 64.5954 121.927C62.2081 122.069 59.8813 122.735 57.7802 123.877C56.7632 120.75 54.8323 117.999 52.2367 115.98C49.6411 113.961 46.5 112.766 43.2188 112.55C45.0511 110.534 46.2584 108.029 46.6939 105.34C47.1294 102.65 46.7744 99.8926 45.672 97.4013C44.5696 94.91 42.7673 92.7925 40.4841 91.3063C38.2009 89.82 35.5351 89.0289 32.8108 89.0292C30.0865 89.0295 27.4209 89.8211 25.138 91.3078C22.8551 92.7945 21.0533 94.9124 19.9514 97.4039C18.8495 99.8954 18.495 102.653 18.9311 105.343C19.3671 108.032 20.5749 110.536 22.4077 112.552C18.2471 112.816 14.3427 114.653 11.487 117.69C8.63129 120.727 7.03826 124.737 7.03125 128.906V133.594C7.03125 134.215 7.27818 134.811 7.71772 135.251C8.15726 135.69 8.7534 135.937 9.375 135.937C9.9966 135.937 10.5927 135.69 11.0323 135.251C11.4718 134.811 11.7188 134.215 11.7188 133.594V128.906C11.7224 125.799 12.9582 122.821 15.1551 120.624C17.352 118.427 20.3306 117.191 23.4375 117.187H42.1875C44.9641 117.199 47.6462 118.197 49.7549 120.004C51.8636 121.81 53.2616 124.307 53.6993 127.049C50.8235 130.082 49.2199 134.102 49.2188 138.281V142.969C49.2188 143.59 49.4657 144.186 49.9052 144.626C50.3448 145.065 50.9409 145.312 51.5625 145.312C52.1841 145.312 52.7802 145.065 53.2198 144.626C53.6593 144.186 53.9062 143.59 53.9062 142.969V138.281C53.9099 135.174 55.1457 132.196 57.3426 129.999C59.5395 127.802 62.5181 126.566 65.625 126.562H84.375C87.4819 126.566 90.4605 127.802 92.6574 129.999C94.8543 132.196 96.0901 135.174 96.0938 138.281V142.969C96.0938 143.59 96.3407 144.186 96.7802 144.626C97.2198 145.065 97.8159 145.312 98.4375 145.312C99.0591 145.312 99.6552 145.065 100.095 144.626C100.534 144.186 100.781 143.59 100.781 142.969V138.281C100.78 134.102 99.1765 130.082 96.3007 127.049C96.7384 124.307 98.1364 121.81 100.245 120.004C102.354 118.197 105.036 117.199 107.812 117.187H126.562C129.669 117.191 132.648 118.427 134.845 120.624C137.042 122.821 138.278 125.799 138.281 128.906V133.594C138.281 134.215 138.528 134.811 138.968 135.251C139.407 135.69 140.003 135.937 140.625 135.937C141.247 135.937 141.843 135.69 142.282 135.251C142.722 134.811 142.969 134.215 142.969 133.594V128.906C142.962 124.737 141.369 120.727 138.513 117.69C135.657 114.652 131.753 112.816 127.592 112.552ZM32.8125 93.7498C34.6667 93.7498 36.4793 94.2997 38.021 95.3298C39.5627 96.3599 40.7643 97.8241 41.4739 99.5372C42.1834 101.25 42.3691 103.135 42.0074 104.954C41.6456 106.772 40.7527 108.443 39.4416 109.754C38.1305 111.065 36.46 111.958 34.6415 112.32C32.8229 112.681 30.9379 112.496 29.2248 111.786C27.5118 111.077 26.0476 109.875 25.0175 108.333C23.9873 106.792 23.4375 104.979 23.4375 103.125C23.4401 100.639 24.4287 98.2562 26.1863 96.4986C27.9438 94.741 30.3269 93.7524 32.8125 93.7498ZM75 103.125C76.8542 103.125 78.6668 103.675 80.2085 104.705C81.7502 105.735 82.9518 107.199 83.6614 108.912C84.3709 110.625 84.5566 112.51 84.1949 114.329C83.8331 116.147 82.9402 117.818 81.6291 119.129C80.318 120.44 78.6475 121.333 76.829 121.695C75.0104 122.056 73.1254 121.871 71.4123 121.161C69.6993 120.452 68.2351 119.25 67.205 117.708C66.1748 116.167 65.625 114.354 65.625 112.5C65.6276 110.014 66.6162 107.631 68.3737 105.874C70.1313 104.116 72.5144 103.127 75 103.125ZM117.188 93.7498C119.042 93.7498 120.854 94.2997 122.396 95.3298C123.938 96.3599 125.139 97.8241 125.849 99.5372C126.558 101.25 126.744 103.135 126.382 104.954C126.021 106.772 125.128 108.443 123.817 109.754C122.506 111.065 120.835 111.958 119.016 112.32C117.198 112.681 115.313 112.496 113.6 111.786C111.887 111.077 110.423 109.875 109.392 108.333C108.362 106.792 107.812 104.979 107.812 103.125C107.815 100.639 108.804 98.2562 110.561 96.4986C112.319 94.741 114.702 93.7524 117.188 93.7498Z" fill="#43A862"></path>
</svg>
