<?xml version="1.0" encoding="UTF-8"?>
<svg xmlns="http://www.w3.org/2000/svg" width="150" height="150" viewBox="0 0 150 150" fill="none">
  <g clip-path="url(#clip0_1249_510)">
    <path d="M70.1607 149.847H70.3131C70.7955 149.843 71.2651 149.691 71.6578 149.411C72.0506 149.131 72.3473 148.736 72.5075 148.281C72.6678 147.826 72.6837 147.333 72.5531 146.869C72.4225 146.404 72.1518 145.991 71.7779 145.687C71.7125 145.247 71.5235 144.835 71.2331 144.499C70.9426 144.163 70.5626 143.917 70.1373 143.788C58.5943 140.355 49.442 130.194 43.6295 115.534C53.1013 112.993 62.8513 111.635 72.6568 111.491V114.843C72.6568 115.464 72.9038 116.061 73.3433 116.5C73.7828 116.94 74.379 117.187 75.0006 117.187C75.6222 117.187 76.2183 116.94 76.6579 116.5C77.0974 116.061 77.3443 115.464 77.3443 114.843V111.48C78.6803 111.48 80.0162 111.538 81.3404 111.608C81.6482 111.624 81.956 111.578 82.2463 111.475C82.5365 111.371 82.8035 111.212 83.032 111.005C83.2605 110.798 83.4461 110.548 83.5781 110.27C83.7101 109.991 83.786 109.69 83.8014 109.382C83.8168 109.074 83.7714 108.766 83.6678 108.476C83.5642 108.186 83.4045 107.919 83.1978 107.69C82.991 107.462 82.7413 107.276 82.4628 107.144C82.1843 107.012 81.8826 106.936 81.5748 106.921C80.1803 106.851 78.7623 106.815 77.356 106.792V77.3428H115.629C116.251 77.3428 116.847 77.0959 117.287 76.6563C117.726 76.2168 117.973 75.6207 117.973 74.999C118.04 62.2238 116.062 49.5202 112.114 37.3701C117.966 35.5104 123.598 33.0151 128.907 29.9287C138.579 41.4424 144.279 55.769 145.161 70.7803C145.198 71.4019 145.481 71.9832 145.947 72.3964C146.413 72.8096 147.024 73.0207 147.645 72.9834C148.267 72.9461 148.848 72.6634 149.261 72.1975C149.674 71.7316 149.886 71.1206 149.848 70.499C148.888 53.792 142.338 37.893 131.251 25.3584L131.122 25.2178C124.103 17.2995 115.486 10.958 105.839 6.61103C96.1923 2.26407 85.7338 0.0102753 75.1526 -0.0019035C64.5714 -0.0140823 54.1077 2.21563 44.4507 6.54037C34.7937 10.8651 26.1625 17.1867 19.1256 25.0889C18.9283 25.2479 18.7581 25.4379 18.6217 25.6514V25.7217C9.41551 36.2458 3.33725 49.1357 1.07411 62.9338C-1.18904 76.732 0.453212 90.8881 5.81517 103.802C11.1771 116.715 20.0449 127.871 31.416 136.008C42.787 144.145 56.2077 148.939 70.1607 149.847ZM58.5943 143.378C45.3986 140.216 33.4026 133.296 24.0592 123.456C28.8431 120.749 33.8932 118.542 39.1295 116.87C43.7701 128.577 50.3912 137.73 58.5943 143.378ZM4.68808 77.3428H32.0631C32.1192 89.2729 33.9801 101.126 37.5826 112.499C31.7823 114.359 26.2023 116.846 20.942 119.917C10.9322 107.933 5.21158 92.9487 4.68808 77.3428ZM21.0943 29.9404C26.3928 33.0202 32.0122 35.5116 37.8521 37.3701C34.1544 48.7727 32.2027 60.669 32.0631 72.6553H4.74667C5.2574 56.9878 11.0143 41.9456 21.0943 29.9404ZM77.3443 4.82717C89.2271 6.15139 99.61 17.4717 106.172 34.2529C96.763 36.7606 87.0811 38.1027 77.3443 38.249V4.82717ZM72.6568 38.249C62.9206 38.1064 53.2387 36.7682 43.8287 34.2647C50.3912 17.4717 60.774 6.15139 72.6568 4.82717V38.249ZM72.6568 42.9365V72.6553H36.7506C36.8634 61.1198 38.696 49.6657 42.1881 38.6709C52.1267 41.3577 62.3624 42.7907 72.6568 42.9365ZM72.6568 106.804C62.3049 106.954 52.0131 108.407 42.024 111.128C38.5787 100.195 36.8009 88.8055 36.7506 77.3428H72.6568V106.804ZM113.251 72.6553H77.3443V42.9365C87.6387 42.7907 97.8744 41.3577 107.813 38.6709C111.305 49.6657 113.138 61.1198 113.251 72.6553ZM125.766 26.378C120.929 29.0923 115.823 31.2994 110.532 32.9639C106.243 21.8428 100.254 12.8897 93.2232 7.10061C105.626 10.4383 116.88 17.1046 125.766 26.378ZM56.7896 7.08889C49.7584 12.8545 43.7701 21.8428 39.4459 32.9522C34.1796 31.2904 29.0981 29.0913 24.2818 26.3897C33.1525 17.1089 44.3949 10.4341 56.7896 7.08889Z" fill="#43A862"></path>
    <path d="M93.7519 128.905C93.9695 129.123 94.228 129.296 94.5125 129.414C94.7971 129.532 95.1021 129.593 95.4101 129.593C95.7181 129.593 96.0231 129.532 96.3076 129.414C96.5921 129.296 96.8506 129.123 97.0683 128.905L128.908 97.0538C129.292 96.6054 129.493 96.0287 129.47 95.4388C129.447 94.849 129.203 94.2894 128.785 93.872C128.368 93.4546 127.808 93.2101 127.218 93.1873C126.629 93.1645 126.052 93.3652 125.603 93.7491L93.7519 125.601C93.3153 126.04 93.0703 126.634 93.0703 127.253C93.0703 127.872 93.3153 128.466 93.7519 128.905Z" fill="#43A862"></path>
    <path d="M145.312 77.3446C142.269 74.3168 138.15 72.6172 133.857 72.6172C129.564 72.6172 125.446 74.3168 122.402 77.3446L111.328 88.4423C109.688 90.0872 108.42 92.0655 107.612 94.243C106.803 96.4206 106.472 98.7466 106.64 101.063C106.659 101.371 106.738 101.672 106.873 101.95C107.008 102.227 107.196 102.475 107.426 102.679C107.657 102.884 107.926 103.041 108.217 103.142C108.509 103.243 108.817 103.285 109.125 103.266C109.433 103.248 109.734 103.169 110.011 103.034C110.288 102.899 110.536 102.711 110.741 102.481C110.946 102.25 111.103 101.981 111.203 101.69C111.304 101.398 111.346 101.09 111.328 100.782C111.194 99.1306 111.417 97.4695 111.984 95.9122C112.55 94.355 113.446 92.9382 114.609 91.7587L125.672 80.6962C127.843 78.5919 130.755 77.4259 133.779 77.4496C136.802 77.4734 139.696 78.6851 141.834 80.8233C143.972 82.9614 145.184 85.8545 145.207 88.8782C145.231 91.9019 144.065 94.8137 141.961 96.9852L130.898 108.048C129.693 109.247 128.236 110.163 126.632 110.731C125.029 111.298 123.32 111.502 121.629 111.329C121.007 111.27 120.388 111.46 119.906 111.858C119.425 112.256 119.121 112.828 119.062 113.45C119.003 114.072 119.194 114.691 119.591 115.173C119.989 115.654 120.562 115.957 121.183 116.016C121.715 116.071 122.246 116.099 122.777 116.099C124.898 116.108 127 115.699 128.963 114.894C130.926 114.09 132.71 112.906 134.215 111.411L145.312 100.302C148.354 97.2562 150.063 93.1277 150.063 88.8231C150.063 84.5186 148.354 80.3901 145.312 77.3446Z" fill="#43A862"></path>
    <path d="M100.489 106.583C98.2668 106.496 96.0507 106.868 93.9783 107.674C91.9059 108.481 90.0214 109.705 88.4421 111.27L77.3444 122.356C74.3001 125.4 72.5898 129.529 72.5898 133.834C72.5898 138.14 74.3001 142.269 77.3444 145.313C80.3887 148.357 84.5176 150.068 88.8229 150.068C93.1282 150.068 97.2571 148.357 100.301 145.313L111.329 134.204C112.929 132.591 114.174 130.661 114.981 128.537C115.789 126.414 116.141 124.144 116.016 121.876C115.984 121.254 115.705 120.671 115.243 120.254C114.78 119.838 114.171 119.622 113.549 119.655C112.928 119.687 112.345 119.966 111.928 120.428C111.512 120.891 111.296 121.5 111.329 122.122C111.417 123.735 111.166 125.349 110.59 126.859C110.015 128.369 109.129 129.742 107.989 130.887L96.9264 141.95C94.7549 144.054 91.8431 145.22 88.8194 145.196C85.7957 145.172 82.9026 143.961 80.7645 141.823C78.6263 139.684 77.4146 136.791 77.3908 133.768C77.367 130.744 78.5331 127.832 80.6374 125.661L91.7585 114.61C92.8812 113.495 94.2207 112.622 95.6942 112.046C97.1676 111.469 98.7437 111.201 100.325 111.258C100.946 111.28 101.551 111.054 102.006 110.63C102.461 110.206 102.729 109.618 102.751 108.997C102.772 108.375 102.546 107.77 102.122 107.315C101.698 106.86 101.111 106.593 100.489 106.571V106.583Z" fill="#43A862"></path>
  </g>
  <defs>
    <clipPath id="clip0_1249_510">
      <rect width="150" height="150" fill="white"></rect>
    </clipPath>
  </defs>
</svg>
