<?xml version="1.0" encoding="UTF-8"?>
<svg xmlns="http://www.w3.org/2000/svg" width="150" height="150" viewBox="0 0 150 150" fill="none">
  <path d="M23.3849 53.8654C26.1557 53.8654 28.8644 53.0438 31.1683 51.5043C33.4722 49.9649 35.2679 47.7769 36.3283 45.2169C37.3887 42.6569 37.6661 39.84 37.1255 37.1224C36.5849 34.4047 35.2506 31.9084 33.2913 29.9491C31.332 27.9898 28.8357 26.6555 26.118 26.1149C23.4004 25.5743 20.5835 25.8518 18.0235 26.9121C15.4636 27.9725 13.2755 29.7682 11.7361 32.0721C10.1967 34.376 9.375 37.0847 9.375 39.8556C9.3793 43.5699 10.8567 47.1309 13.4831 49.7573C16.1096 52.3837 19.6705 53.8611 23.3849 53.8654ZM23.3849 30.5332C25.2286 30.5332 27.031 31.08 28.5641 32.1043C30.0971 33.1287 31.292 34.5846 31.9976 36.2881C32.7032 37.9915 32.8878 39.8659 32.5281 41.6743C32.1684 43.4826 31.2805 45.1437 29.9768 46.4475C28.673 47.7512 27.0119 48.6391 25.2036 48.9988C23.3952 49.3585 21.5208 49.1739 19.8173 48.4683C18.1139 47.7627 16.658 46.5679 15.6336 45.0348C14.6092 43.5017 14.0625 41.6994 14.0625 39.8556C14.0652 37.384 15.0482 35.0143 16.7959 33.2666C18.5436 31.5189 20.9132 30.5359 23.3849 30.5332Z" fill="#43A862"></path>
  <path d="M126.615 25.8457C123.844 25.8457 121.136 26.6674 118.832 28.2068C116.528 29.7462 114.732 31.9343 113.672 34.4942C112.612 37.0542 112.334 39.8711 112.875 42.5887C113.415 45.3064 114.75 47.8027 116.709 49.762C118.668 51.7213 121.164 53.0557 123.882 53.5962C126.6 54.1368 129.417 53.8594 131.977 52.799C134.537 51.7386 136.725 49.9429 138.264 47.639C139.804 45.3351 140.625 42.6265 140.625 39.8556C140.621 36.1412 139.143 32.5803 136.517 29.9538C133.891 27.3274 130.33 25.85 126.615 25.8457ZM126.615 49.1779C124.772 49.1779 122.969 48.6312 121.436 47.6068C119.903 46.5825 118.708 45.1265 118.003 43.4231C117.297 41.7196 117.112 39.8452 117.472 38.0369C117.832 36.2285 118.72 34.5674 120.023 33.2637C121.327 31.9599 122.988 31.072 124.797 30.7123C126.605 30.3526 128.479 30.5372 130.183 31.2428C131.886 31.9484 133.342 33.1433 134.367 34.6763C135.391 36.2094 135.938 38.0118 135.938 39.8556C135.935 42.3272 134.952 44.6968 133.204 46.4445C131.457 48.1922 129.087 49.1752 126.615 49.1779Z" fill="#43A862"></path>
  <path d="M128.721 58.6997C127.032 58.7001 125.362 59.0597 123.823 59.7546C122.284 60.4495 120.91 61.4639 119.792 62.7303L107.991 76.1131C107.629 76.523 107.184 76.8511 106.686 77.0756C106.187 77.3002 105.647 77.416 105.1 77.4155H94.986C92.6528 77.4182 90.4159 78.3463 88.7661 79.9961C87.1163 81.6459 86.1882 83.8828 86.1855 86.216V89.1159H63.8145V86.216C63.8087 83.9569 62.9335 81.7867 61.3703 80.1557C59.8071 78.5247 57.6761 77.5581 55.4192 77.4564V62.8631C55.4226 59.5556 56.7378 56.3845 59.0764 54.0455C61.4149 51.7065 64.5858 50.3907 67.8933 50.3867H82.1069C85.4144 50.3907 88.5852 51.7065 90.9238 54.0455C93.2623 56.3845 94.5775 59.5556 94.5809 62.8631V67.4545C94.5809 68.0761 94.8278 68.6722 95.2674 69.1117C95.7069 69.5513 96.3031 69.7982 96.9247 69.7982C97.5463 69.7982 98.1424 69.5513 98.5819 69.1117C99.0215 68.6722 99.2684 68.0761 99.2684 67.4545V62.8631C99.2634 58.3129 97.4538 53.9504 94.2365 50.7327C91.0193 47.515 86.6571 45.7048 82.1069 45.6992H67.8932C63.343 45.7048 58.9808 47.515 55.7635 50.7327C52.5463 53.9504 50.7366 58.3129 50.7317 62.8631V77.4154H44.8998C44.3531 77.416 43.8125 77.3001 43.3141 77.0756C42.8157 76.851 42.3708 76.5229 42.009 76.1131L30.2078 62.7303C28.6086 60.9168 26.4951 59.6333 24.1486 59.0506C21.802 58.4678 19.3336 58.6134 17.0718 59.468C14.81 60.3226 12.8621 61.8456 11.4871 63.8345C10.1122 65.8233 9.37549 68.1837 9.375 70.6016V103.606C9.37961 107.865 11.0734 111.948 14.0848 114.959C17.0962 117.971 21.1792 119.665 25.4379 119.669L39.6538 119.614L47.6441 136.897C47.8319 137.303 48.1322 137.647 48.5095 137.888C48.8867 138.129 49.325 138.257 49.7726 138.257C50.1119 138.257 50.4471 138.183 50.7545 138.039C51.0339 137.91 51.2851 137.727 51.4938 137.501C51.7025 137.275 51.8645 137.01 51.9705 136.721C52.0766 136.432 52.1247 136.125 52.112 135.817C52.0993 135.51 52.0262 135.208 51.8967 134.929L43.9087 117.65C43.5408 116.854 42.953 116.18 42.2145 115.707C41.476 115.234 40.6177 114.983 39.7407 114.982H25.4379C22.4222 114.978 19.531 113.778 17.3985 111.646C15.266 109.513 14.0663 106.622 14.0625 103.606V70.6016C14.0632 69.136 14.51 67.7053 15.3436 66.4999C16.1772 65.2944 17.358 64.3712 18.729 63.8532C20.1 63.3351 21.5963 63.2467 23.0187 63.5998C24.4412 63.9528 25.7225 64.7305 26.6922 65.8294L38.4934 79.2122C39.2949 80.1211 40.2807 80.849 41.3853 81.3474C42.4899 81.8458 43.6879 82.1034 44.8998 82.103H55.014C56.1045 82.1041 57.15 82.5378 57.9211 83.3089C58.6922 84.08 59.1259 85.1255 59.127 86.216V89.1159H35.051L26.5251 78.3081C26.1403 77.8201 25.5773 77.5049 24.96 77.4319C24.3428 77.359 23.7218 77.5342 23.2338 77.919C22.7457 78.3039 22.4306 78.8669 22.3576 79.4841C22.2846 80.1014 22.4598 80.7223 22.8447 81.2104L31.5697 92.2724V102.247C31.5695 102.555 31.63 102.859 31.7477 103.144C31.8654 103.428 32.0381 103.687 32.2557 103.904C32.4734 104.122 32.7319 104.295 33.0163 104.412C33.3007 104.53 33.6056 104.591 33.9134 104.591H41.6222C43.3923 104.589 45.1181 105.145 46.5552 106.178C47.9924 107.212 49.0683 108.671 49.6308 110.349L58.4679 136.659C58.6671 137.247 59.0912 137.732 59.6473 138.007C60.2034 138.283 60.846 138.327 61.4344 138.129C62.0227 137.932 62.5088 137.509 62.7859 136.954C63.063 136.398 63.1086 135.756 62.9128 135.167L54.0757 108.857C53.2008 106.247 51.5276 103.978 49.2928 102.372C47.058 100.765 44.3746 99.9013 41.6222 99.903H36.2572V93.8033H113.743V99.903H108.378C105.625 99.9013 102.942 100.765 100.707 102.372C98.4724 103.978 96.7992 106.247 95.9244 108.857L87.0873 135.167C86.8914 135.756 86.937 136.398 87.2141 136.954C87.4913 137.509 87.9773 137.932 88.5656 138.129C89.154 138.327 89.7966 138.283 90.3527 138.007C90.9088 137.732 91.333 137.247 91.5321 136.659L100.369 110.349C100.932 108.671 102.008 107.212 103.445 106.178C104.882 105.145 106.608 104.589 108.378 104.591H116.087C116.394 104.591 116.699 104.53 116.984 104.412C117.268 104.295 117.527 104.122 117.744 103.904C117.962 103.687 118.135 103.428 118.252 103.144C118.37 102.859 118.431 102.555 118.43 102.247V92.2722L127.155 81.2102C127.54 80.7222 127.715 80.1012 127.642 79.484C127.569 78.8667 127.254 78.3038 126.766 77.9189C126.278 77.534 125.657 77.3588 125.04 77.4318C124.423 77.5048 123.86 77.8199 123.475 78.308L114.949 89.1158H90.873V86.2159C90.8741 85.1254 91.3078 84.0799 92.0789 83.3088C92.85 82.5377 93.8955 82.104 94.986 82.1029H105.1C106.312 82.1032 107.51 81.8457 108.615 81.3472C109.719 80.8488 110.705 80.121 111.507 79.2121L123.308 65.8293C124.278 64.7303 125.559 63.9526 126.981 63.5996C128.404 63.2466 129.9 63.335 131.271 63.8531C132.642 64.3711 133.823 65.2943 134.656 66.4998C135.49 67.7052 135.937 69.1359 135.938 70.6016V103.606C135.934 106.622 134.734 109.513 132.602 111.646C130.469 113.778 127.578 114.978 124.562 114.982H110.259C109.383 114.982 108.526 115.234 107.788 115.706C107.05 116.178 106.462 116.851 106.094 117.646L98.1034 134.929C97.974 135.208 97.9008 135.51 97.8881 135.817C97.8754 136.125 97.9235 136.432 98.0296 136.721C98.1357 137.01 98.2977 137.275 98.5063 137.501C98.715 137.727 98.9662 137.91 99.2456 138.039C99.553 138.183 99.8882 138.257 100.227 138.257C100.675 138.257 101.113 138.129 101.491 137.888C101.868 137.647 102.168 137.303 102.356 136.897L110.259 119.669H124.562C128.821 119.665 132.904 117.971 135.915 114.959C138.927 111.948 140.62 107.865 140.625 103.606V70.6016C140.621 67.4459 139.366 64.4205 137.134 62.1892C134.902 59.958 131.877 58.703 128.721 58.6997Z" fill="#43A862"></path>
  <path d="M75 98.8633C74.6922 98.8631 74.3873 98.9236 74.1029 99.0413C73.8184 99.159 73.56 99.3317 73.3423 99.5494C73.1247 99.767 72.952 100.025 72.8343 100.31C72.7166 100.594 72.6561 100.899 72.6563 101.207V135.262C72.6563 135.884 72.9032 136.48 73.3427 136.92C73.7823 137.359 74.3784 137.606 75 137.606C75.6216 137.606 76.2177 137.359 76.6573 136.92C77.0968 136.48 77.3438 135.884 77.3438 135.262V101.207C77.3439 100.899 77.2834 100.594 77.1657 100.31C77.048 100.025 76.8753 99.767 76.6577 99.5494C76.44 99.3317 76.1816 99.159 75.8971 99.0413C75.6127 98.9236 75.3078 98.8631 75 98.8633Z" fill="#43A862"></path>
  <path d="M61.3359 25.754C61.3359 28.5249 62.1576 31.2336 63.697 33.5375C65.2364 35.8414 67.4245 37.637 69.9845 38.6974C72.5444 39.7578 75.3613 40.0352 78.079 39.4947C80.7966 38.9541 83.2929 37.6198 85.2523 35.6605C87.2116 33.7012 88.5459 31.2048 89.0865 28.4872C89.627 25.7695 89.3496 22.9526 88.2892 20.3927C87.2288 17.8327 85.4332 15.6447 83.1293 14.1052C80.8253 12.5658 78.1167 11.7441 75.3458 11.7441C71.6315 11.7484 68.0705 13.2259 65.4441 15.8523C62.8177 18.4787 61.3402 22.0397 61.3359 25.754ZM84.6682 25.754C84.6682 27.5978 84.1214 29.4002 83.0971 30.9332C82.0727 32.4663 80.6167 33.6611 78.9133 34.3667C77.2099 35.0723 75.3355 35.2569 73.5271 34.8972C71.7187 34.5375 70.0577 33.6497 68.7539 32.3459C67.4501 31.0421 66.5623 29.3811 66.2026 27.5727C65.8429 25.7643 66.0275 23.8899 66.7331 22.1865C67.4386 20.4831 68.6335 19.0271 70.1666 18.0027C71.6996 16.9784 73.502 16.4316 75.3458 16.4316C77.8174 16.4343 80.187 17.4174 81.9347 19.1651C83.6824 20.9128 84.6655 23.2824 84.6682 25.754Z" fill="#43A862"></path>
</svg>
