<?xml version="1.0" encoding="UTF-8"?>
<svg xmlns="http://www.w3.org/2000/svg" width="150" height="150" viewBox="0 0 150 150" fill="none">
  <g clip-path="url(#clip0_1249_439)">
    <path d="M125.403 74.21C128.917 70.6966 134.651 70.6966 138.164 74.21L147.002 83.0469C150.522 86.5664 150.522 92.289 147.002 95.8086L98.3877 144.423C98.0552 144.76 97.6363 145.003 97.1699 145.133L96.9668 145.182L74.8789 149.6C74.7005 149.633 74.5155 149.649 74.3369 149.649C73.6102 149.649 72.8982 149.36 72.3701 148.838C71.7158 148.182 71.4288 147.24 71.6113 146.338V146.337L76.0303 124.243L76.0293 124.242C76.1417 123.693 76.3987 123.203 76.7871 122.825L76.79 122.822L125.403 74.21ZM134.247 78.127C132.892 76.7716 130.688 76.7716 129.333 78.127L81.3896 126.071L81.3145 126.146L81.2939 126.25L77.9814 142.818L77.8779 143.333L78.3926 143.23L94.9619 139.918L95.0654 139.897L95.1406 139.822L143.084 91.8779C144.439 90.5225 144.439 88.3202 143.084 86.9648L134.247 78.127Z" fill="#43A862" stroke="white" stroke-width="0.7"></path>
    <path d="M15.625 19.0996H28.125C29.6567 19.0996 30.9004 20.3433 30.9004 21.875C30.9004 23.4067 29.6567 24.6504 28.125 24.6504H15.625C10.263 24.6504 5.90039 29.013 5.90039 34.375V115.625C5.90039 120.987 10.263 125.35 15.625 125.35H59.375C60.9067 125.35 62.1504 126.593 62.1504 128.125C62.1504 129.657 60.9067 130.9 59.375 130.9H15.625C7.19955 130.9 0.349609 124.05 0.349609 115.625V34.375C0.349609 25.9496 7.19955 19.0996 15.625 19.0996Z" fill="#43A862" stroke="white" stroke-width="0.7"></path>
    <path d="M78.125 19.0996H90.625C99.0504 19.0996 105.9 25.9496 105.9 34.375V71.875C105.9 73.4067 104.657 74.6504 103.125 74.6504C101.593 74.6504 100.35 73.4067 100.35 71.875V34.375C100.35 29.013 95.9871 24.6504 90.625 24.6504H78.125C76.5933 24.6504 75.3496 23.4067 75.3496 21.875C75.3496 20.3433 76.5933 19.0996 78.125 19.0996Z" fill="#43A862" stroke="white" stroke-width="0.7"></path>
    <path d="M53.125 0.349609C60.4989 0.349609 66.6771 5.60428 68.0947 12.5693L68.1514 12.8496H78.125C79.6567 12.8496 80.9004 14.0933 80.9004 15.625V28.125C80.9004 33.1005 76.8505 37.1504 71.875 37.1504H34.375C29.3995 37.1504 25.3496 33.1005 25.3496 28.125V15.625C25.3496 14.0933 26.5933 12.8496 28.125 12.8496H38.0986L38.1553 12.5693C39.5729 5.60428 45.7511 0.349609 53.125 0.349609ZM53.125 5.90039C47.7629 5.90039 43.4004 10.263 43.4004 15.625C43.4004 17.1567 42.1567 18.4004 40.625 18.4004H30.9004V28.125C30.9004 30.037 32.463 31.5996 34.375 31.5996H71.875C73.787 31.5996 75.3496 30.037 75.3496 28.125V18.4004H65.625C64.0933 18.4004 62.8496 17.1567 62.8496 15.625C62.8496 10.263 58.4871 5.90039 53.125 5.90039Z" fill="#43A862" stroke="white" stroke-width="0.7"></path>
    <path d="M21.875 50.3496H84.375C85.9067 50.3496 87.1504 51.5933 87.1504 53.125C87.1504 54.6567 85.9067 55.9004 84.375 55.9004H21.875C20.3433 55.9004 19.0996 54.6567 19.0996 53.125C19.0996 51.5933 20.3433 50.3496 21.875 50.3496Z" fill="#43A862" stroke="white" stroke-width="0.7"></path>
    <path d="M21.875 69.0996H84.375C85.9067 69.0996 87.1504 70.3433 87.1504 71.875C87.1504 73.4067 85.9067 74.6504 84.375 74.6504H21.875C20.3433 74.6504 19.0996 73.4067 19.0996 71.875C19.0996 70.3433 20.3433 69.0996 21.875 69.0996Z" fill="#43A862" stroke="white" stroke-width="0.7"></path>
    <path d="M21.875 87.8496H84.375C85.9067 87.8496 87.1504 89.0933 87.1504 90.625C87.1504 92.1567 85.9067 93.4004 84.375 93.4004H21.875C20.3433 93.4004 19.0996 92.1567 19.0996 90.625C19.0996 89.0933 20.3433 87.8496 21.875 87.8496Z" fill="#43A862" stroke="white" stroke-width="0.7"></path>
  </g>
  <defs>
    <clipPath id="clip0_1249_439">
      <rect width="150" height="150" fill="white"></rect>
    </clipPath>
  </defs>
</svg>
