<svg xmlns="http://www.w3.org/2000/svg" width="92" height="92" viewBox="0 0 92 92" fill="none"><path fill-rule="evenodd" clip-rule="evenodd" d="M76.4461 57.2853C77.9907 56.8729 78.6175 59.2187 77.0731 59.6317L69.313 61.7111C67.769 62.1241 67.1411 59.7778 68.6859 59.3646L76.4461 57.2853ZM64.5675 56.4223L74.8136 46.1762C75.9454 45.0444 74.226 43.325 73.0942 44.4567L62.8481 54.7028C61.7163 55.8346 63.4357 57.5541 64.5675 56.4223ZM14.473 59.6317C12.9284 59.2194 13.5556 56.8722 15.1 57.2853L22.8602 59.3646C24.405 59.7778 23.7771 62.1241 22.2331 61.7111L14.473 59.6317ZM28.698 54.7028L18.4519 44.4567C17.3201 43.325 15.6007 45.0444 16.7325 46.1762L26.9786 56.4223C28.1103 57.5541 29.8298 55.8346 28.698 54.7028ZM26.4519 67.5379C20.9131 68.1562 16.6053 72.6556 16.1608 78.1603C9.7511 75.8161 2.86328 80.555 2.86328 87.463C2.86328 88.1345 3.40782 88.679 4.07942 88.679H87.4666C88.1382 88.679 88.6828 88.1345 88.6828 87.463C88.6828 80.5445 81.7765 75.8146 75.3854 78.1603C74.9406 72.6556 70.6325 68.1562 65.0944 67.5379C64.772 60.5538 56.0743 57.5104 51.4523 62.7434C47.8946 60.925 43.6514 60.925 40.0937 62.7434C35.4713 57.5099 26.7742 60.5546 26.4519 67.5379ZM28.8895 67.5153C29.2108 63.0134 34.7318 60.8331 38.0198 64.0761C36.2923 65.4403 34.9301 67.2654 34.1174 69.353C32.5573 68.3328 30.7638 67.6978 28.8895 67.5153ZM53.5265 64.0762C56.7387 60.9082 62.3283 62.9092 62.6568 67.5153C60.7823 67.6977 58.9889 68.3325 57.4287 69.353C56.6172 67.2689 55.2523 65.4372 53.5265 64.0762ZM37.392 40.0264C37.0332 38.9637 36.7182 37.8607 36.4513 36.7225C33.4427 38.1194 31.5099 40.9313 30.6657 44.0771C30.3146 45.4053 28.6061 45.1601 28.318 44.0817C26.1596 36.0247 28.2437 29.9869 35.4504 25.5798C35.8273 17.5641 38.7278 8.50928 44.9818 3.15458C45.447 2.75653 46.1267 2.77209 46.5726 3.16652C52.8164 8.52217 55.7128 17.5667 56.0903 25.5763C63.3007 29.9831 65.3874 36.0214 63.2283 44.0817C62.9068 45.2855 61.1955 45.2683 60.8806 44.0771C60.0358 40.929 58.1013 38.1168 55.09 36.7203C54.8229 37.8592 54.5077 38.9632 54.1487 40.0264C54.0098 40.5451 53.5364 40.9272 52.9739 40.9272H38.5668C38.0043 40.9272 37.531 40.5451 37.392 40.0264ZM35.9636 34.2915C35.6486 32.3656 35.4611 30.4556 35.4155 28.5037C31.5427 31.2779 29.6453 34.7378 29.9724 39.506C31.3609 37.2025 33.4569 35.301 35.9636 34.2915ZM38.3092 33.6154C38.5797 35.3077 38.963 36.9402 39.4468 38.4949H52.0939C54.0506 32.2072 54.2106 25.006 52.66 18.6355C48.1798 17.1734 43.3771 17.2076 38.8869 18.6105C37.7208 23.3864 37.5195 28.6793 38.3092 33.6154ZM39.6795 15.8696C43.6728 14.8813 47.8772 14.8653 51.8662 15.884C50.6141 12.153 48.6155 8.46555 45.7704 5.71568C42.929 8.46208 40.9315 12.1439 39.6795 15.8696ZM56.1254 28.4998C56.0798 30.4529 55.8923 32.3623 55.5775 34.2894C58.0865 35.2981 60.1844 37.2008 61.5739 39.506C61.9011 34.7351 60.0013 31.274 56.1254 28.4998ZM45.7704 53.5363L49.4111 45.0275H42.1296L45.7704 53.5363ZM46.8866 57.095C46.4731 58.0655 45.0758 58.0863 44.6542 57.095L39.2094 44.3701C38.7959 43.5726 39.3707 42.5953 40.2897 42.5953L51.251 42.5981C52.1085 42.5971 52.7094 43.4821 52.3672 44.2864L46.8866 57.095ZM45.7704 20.6894C43.6377 20.6894 41.9076 22.4195 41.9076 24.5522C41.9076 26.6848 43.6377 28.415 45.7704 28.415C47.9031 28.415 49.6332 26.6848 49.6332 24.5522C49.6332 22.4195 47.903 20.6894 45.7704 20.6894ZM45.7704 23.1217C43.8867 23.1217 43.8867 25.9827 45.7704 25.9827C47.6541 25.9827 47.654 23.1217 45.7704 23.1217ZM5.39401 86.2468H86.1521C85.2846 80.9504 79.269 78.3226 74.8048 81.133C73.9627 81.6632 72.8463 81.0062 72.955 79.9657C73.8154 71.7401 63.8475 66.6121 57.597 72.2738C56.9086 72.8973 55.8064 72.5409 55.6034 71.6416C53.9853 64.4712 45.3153 61.3635 39.4942 66.0045C35.2341 69.4012 36.7282 73.0601 34.4955 72.5588C33.6715 72.3737 31.5753 69.4839 26.8684 69.9312C21.8014 70.4127 18.114 74.9424 18.5938 79.993C18.6889 80.9956 17.5873 81.6644 16.7415 81.1326C12.2739 78.3226 6.2613 80.9521 5.39401 86.2468Z" fill="#43A862"></path></svg>