<svg xmlns="http://www.w3.org/2000/svg" width="92" height="92" viewBox="0 0 92 92" fill="none"><g clip-path="url(#clip0_9945_3083)"><path d="M79.8643 12.0508C83.3421 9.82518 87.9823 10.843 90.208 14.3203H90.209C92.435 17.7973 91.4166 22.4377 87.9395 24.6641C80.9007 29.1699 74.944 33.8445 69.9688 38.3154L69.918 38.3604V70.4971C69.9179 76.1077 65.3537 80.6727 59.7432 80.6729H10.3281C4.71764 80.6728 0.152441 76.1077 0.152344 70.4971V21.082C0.152535 15.4715 4.7177 10.9073 10.3281 10.9072H20.1885C20.9246 10.9072 21.5213 11.5034 21.5215 12.2393C21.5215 12.9753 20.9247 13.5723 20.1885 13.5723H10.3281C6.18708 13.5723 2.81855 16.941 2.81836 21.082V70.4971C2.81846 74.6383 6.18702 78.0068 10.3281 78.0068H59.7432C63.8842 78.0068 67.2529 74.6383 67.2529 70.4971V40.8252L66.9951 41.0723C64.775 43.1948 62.7816 45.2506 61.0049 47.1982L60.9648 47.2422V66.4551C60.9646 69.3576 58.6035 71.7186 55.7012 71.7188H14.3711C11.4685 71.7188 9.1067 69.3577 9.10645 66.4551V25.124C9.1067 22.2218 11.4684 19.8604 14.3711 19.8604H42.1709C42.9071 19.8604 43.5039 20.4573 43.5039 21.1934C43.5037 21.9293 42.907 22.5264 42.1709 22.5264H14.3711C12.9379 22.5264 11.7715 23.6919 11.7715 25.125V66.4551C11.7715 67.8883 12.9379 69.0547 14.3711 69.0547H55.7012C57.1343 69.0546 58.2998 67.8882 58.2998 66.4551V50.2676L58.0303 50.5869C51.9041 57.8429 49.1726 62.92 49.1123 63.0342V63.0352C48.4314 64.3387 47.3787 65.4011 46.1172 66.1055C45.0107 66.7235 43.7416 67.0546 42.4746 67.0547C40.5103 67.0547 38.6545 66.3 37.248 64.9287L28.877 56.7705C28.3498 56.2569 28.3398 55.4129 28.8535 54.8857C29.3025 54.4248 30.0045 54.3584 30.5264 54.6934C30.6007 54.7411 30.6714 54.797 30.7373 54.8613L39.1084 63.0205C40.1926 64.0774 41.7396 64.5682 43.2354 64.3291C44.7341 64.0897 46.0476 63.1438 46.75 61.7988L46.7529 61.793C46.7543 61.7905 46.7549 61.7868 46.7568 61.7832L46.7578 61.7842C46.7613 61.778 46.7641 61.7724 46.7666 61.7676C46.7707 61.7598 46.7755 61.7499 46.7812 61.7393C47.0376 61.2634 48.9645 57.7704 52.9688 52.5889C54.7674 50.2593 56.6782 47.9888 58.6436 45.8154C60.8808 43.342 63.4596 40.6936 66.4053 37.9521L67.6904 36.7715C67.6909 36.7711 67.6925 36.7694 67.6963 36.7666L67.7217 36.7471L67.7256 36.7441C72.8914 32.0614 79.1116 27.1511 86.502 22.4199C88.6719 21.0309 89.3551 18.1826 88.0918 15.9697L87.9639 15.7578C86.5301 13.5179 83.5416 12.8622 81.3018 14.2959C61.2174 27.1536 49.1243 41.3664 43.2969 49.4102C43.0048 49.8137 42.7149 50.2189 42.4287 50.627C42.2045 50.9467 41.8509 51.152 41.4619 51.1885C41.0771 51.2246 40.6855 51.087 40.4082 50.8174H40.4092C40.4068 50.815 36.7124 47.2149 33.0215 43.6172C31.1756 41.8179 29.3296 40.0183 27.9453 38.6689C27.2533 37.9944 26.6771 37.4316 26.2734 37.0381C26.0718 36.8415 25.9128 36.6874 25.8047 36.582C25.7506 36.5293 25.7086 36.4882 25.6807 36.4609C25.667 36.4476 25.6565 36.4375 25.6494 36.4307L25.6387 36.4199C23.7341 34.5637 20.674 34.6028 18.8184 36.5068C16.962 38.4112 17.0019 41.4708 18.9062 43.3271L26.4707 50.7012C26.9978 51.2148 27.0088 52.0588 26.4951 52.5859C26.2483 52.8388 25.8987 52.9851 25.5439 52.9883C25.2007 52.9915 24.8569 52.8498 24.6104 52.6094L17.0449 45.2363C14.0883 42.3544 14.0281 37.6031 16.9102 34.6465C19.7917 31.6904 24.5418 31.629 27.499 34.5107L41.0283 47.6992L41.1553 47.8223L41.2588 47.6797C44.9683 42.572 50.5085 35.8824 58.251 28.7148L58.2998 28.6699V25.125C58.2998 23.6921 57.1342 22.5266 55.7012 22.5264H48.1133C47.3771 22.5264 46.7803 21.9294 46.7803 21.1934C46.7803 20.4573 47.3771 19.8604 48.1133 19.8604H55.7012C58.6034 19.8606 60.9648 22.2225 60.9648 25.125V26.2637L61.2178 26.042C63.0938 24.3975 65.0827 22.7362 67.1934 21.0693L67.2529 21.0225L67.252 20.9463C67.1789 16.8676 63.8387 13.5723 59.7432 13.5723H26.1309C25.3947 13.5723 24.7979 12.9753 24.7979 12.2393C24.7979 11.5033 25.3947 10.9062 26.1309 10.9062H59.7432C64.5985 10.9063 68.6689 14.3264 69.6768 18.8838L69.7275 19.1162L69.918 18.9727C72.9941 16.6497 76.3057 14.3287 79.8643 12.0508Z" fill="#43A862" stroke="white" stroke-width="0.305136"></path></g><defs><clipPath id="clip0_9945_3083"><rect width="91.5408" height="91.5408" fill="white"></rect></clipPath></defs></svg>