<?xml version="1.0" encoding="UTF-8"?>
<svg xmlns="http://www.w3.org/2000/svg" width="150" height="150" viewBox="0 0 150 150" fill="none">
  <path d="M40.4789 17.0926L35.7056 17.183L34.1915 12.5242C33.8829 11.6198 33.2991 10.8346 32.5219 10.2787C31.7447 9.72271 30.8131 9.4238 29.8575 9.42383C28.902 9.42385 27.9704 9.72281 27.1932 10.2788C26.4161 10.8348 25.8323 11.62 25.5238 12.5244L24.1344 17.0926H19.2363C18.274 17.0926 17.3364 17.3973 16.5579 17.9629C15.7794 18.5286 15.2 19.3261 14.9026 20.2414C14.6053 21.1566 14.6054 22.1424 14.9028 23.0576C15.2003 23.9728 15.7798 24.7703 16.5584 25.3358L20.4734 28.0686L18.9593 32.7264C18.6618 33.6417 18.6618 34.6277 18.9592 35.543C19.2565 36.4583 19.8361 37.256 20.6147 37.8217C21.3934 38.3874 22.3311 38.692 23.2936 38.692C24.256 38.6919 25.1937 38.3871 25.9723 37.8213L29.7808 34.9419C32.4555 36.7341 35.6918 40.4165 39.1009 37.8211C39.8875 37.2624 40.4732 36.4651 40.7712 35.5475C41.0693 34.6299 41.0638 33.6407 40.7557 32.7264L39.1948 28.2151L43.1556 25.3358C43.9208 24.7632 44.4876 23.9656 44.7765 23.0547C45.0655 22.1438 45.0622 21.1653 44.7671 20.2563C44.4719 19.3474 43.8997 18.5536 43.1307 17.9863C42.3617 17.4189 41.4344 17.1064 40.4789 17.0926ZM36.4403 24.4215C35.6598 24.9858 35.0787 25.7835 34.7809 26.6994C34.483 27.6153 34.4839 28.6022 34.7832 29.5176L36.1726 33.792L32.5356 31.1484C31.7573 30.5822 30.8195 30.2773 29.8569 30.2774C28.8944 30.2776 27.9567 30.5829 27.1786 31.1493L23.5428 33.7918L24.9321 29.5174C25.2315 28.6023 25.2324 27.6157 24.9348 26.6999C24.6372 25.7842 24.0563 24.9867 23.2761 24.4225L19.6403 21.7801H24.1344C25.0972 21.7824 26.0359 21.4786 26.8148 20.9128C27.5938 20.3469 28.1728 19.5482 28.4683 18.6319L29.8576 14.3564L31.248 18.633C31.5439 19.5488 32.1229 20.347 32.9016 20.9125C33.6803 21.4781 34.6184 21.7819 35.5807 21.7801H40.0748L36.4403 24.4215Z" fill="#43A862" stroke="white" stroke-width="0.8"></path>
  <path d="M40.4789 51.0663L35.7056 51.1567L34.1915 46.4989C33.8829 45.5945 33.2992 44.8093 32.522 44.2533C31.7448 43.6973 30.8131 43.3984 29.8576 43.3984C28.902 43.3985 27.9703 43.6974 27.1932 44.2535C26.416 44.8095 25.8323 45.5947 25.5238 46.4991L24.1344 51.0663H19.2363C18.274 51.0662 17.3364 51.3709 16.5579 51.9365C15.7794 52.5022 15.2 53.2998 14.9026 54.215C14.6053 55.1302 14.6054 56.116 14.9028 57.0312C15.2003 57.9464 15.7798 58.7439 16.5584 59.3094L20.4734 62.0423L18.9593 66.7011C18.6621 67.6164 18.6623 68.6022 18.9598 69.5174C19.2572 70.4326 19.8368 71.2301 20.6153 71.7957C21.3938 72.3613 22.3314 72.666 23.2937 72.666C24.256 72.6661 25.1937 72.3616 25.9723 71.796L29.7808 68.9167C32.4548 70.7089 35.6923 74.3907 39.1009 71.7949C39.8875 71.2363 40.4731 70.4393 40.7712 69.5219C41.0693 68.6044 41.0638 67.6154 40.7557 66.7012L39.1948 62.1888L43.1556 59.3095C43.9208 58.737 44.4876 57.9393 44.7767 57.0284C45.0657 56.1175 45.0624 55.1389 44.7672 54.23C44.4721 53.321 43.8999 52.5272 43.1308 51.9599C42.3618 51.3925 41.4345 51.08 40.4789 51.0663ZM36.4391 58.3973C35.6594 58.9617 35.0789 59.759 34.7813 60.6744C34.4837 61.5898 34.4843 62.5761 34.7832 63.4911L36.1725 67.7666L32.5367 65.1252C31.759 64.5571 30.8209 64.2508 29.8578 64.2506C28.8947 64.2504 27.9565 64.5563 27.1786 65.124L23.5428 67.7664L24.9321 63.4909C25.2309 62.5758 25.2315 61.5894 24.9339 60.6738C24.6363 59.7582 24.0559 58.9607 23.2761 58.396L19.6403 55.7538H24.1344C25.0972 55.756 26.0359 55.4523 26.8148 54.8864C27.5938 54.3205 28.1728 53.5218 28.4683 52.6055L29.8576 48.3311L31.2469 52.6055C31.543 53.5214 32.1222 54.3198 32.901 54.8856C33.6799 55.4513 34.6182 55.7553 35.5808 55.7538H40.0749L36.4391 58.3973Z" fill="#43A862" stroke="white" stroke-width="0.8"></path>
  <path d="M40.4789 85.0419L35.7056 85.1323L34.1915 80.4734C33.8829 79.569 33.2991 78.7839 32.5219 78.2279C31.7447 77.6719 30.8131 77.373 29.8575 77.373C28.902 77.3731 27.9704 77.672 27.1932 78.228C26.4161 78.784 25.8323 79.5692 25.5238 80.4736L24.1344 85.0419H19.2363C18.274 85.0418 17.3364 85.3465 16.5579 85.9121C15.7794 86.4778 15.2 87.2754 14.9026 88.1906C14.6053 89.1058 14.6054 90.0916 14.9028 91.0068C15.2003 91.922 15.7798 92.7195 16.5584 93.285L20.4734 96.0179L18.9593 100.676C18.6618 101.591 18.6618 102.577 18.9592 103.492C19.2565 104.408 19.8361 105.205 20.6147 105.771C21.3934 106.337 22.3311 106.641 23.2936 106.641C24.256 106.641 25.1937 106.336 25.9723 105.77L29.7808 102.892C32.4557 104.684 35.6922 108.365 39.1009 105.77C39.8875 105.212 40.4732 104.415 40.7712 103.497C41.0693 102.579 41.0638 101.59 40.7557 100.676L39.1948 96.1645L43.1556 93.2852C43.9208 92.7126 44.4877 91.915 44.7767 91.0041C45.0658 90.0931 45.0625 89.1146 44.7673 88.2056C44.4722 87.2966 43.8999 86.5028 43.1309 85.9354C42.3618 85.3681 41.4345 85.0556 40.4789 85.0419ZM36.4403 92.3708C35.6598 92.9351 35.0787 93.7327 34.7809 94.6486C34.483 95.5646 34.4839 96.5514 34.7832 97.4668L36.1726 101.741C33.5841 99.9327 30.4619 96.621 27.1786 99.1001L23.5428 101.741L24.9322 97.4668C25.2315 96.5517 25.2325 95.5651 24.9349 94.6494C24.6372 93.7337 24.0564 92.9362 23.2762 92.3719L19.6403 89.7294H24.1344C25.0972 89.7316 26.0359 89.4279 26.8148 88.862C27.5938 88.2961 28.1728 87.4974 28.4683 86.5811L29.8576 82.3056L31.2469 86.5811C31.543 87.4971 32.1222 88.2954 32.901 88.8612C33.6799 89.4269 34.6182 89.7309 35.5808 89.7294H40.0749L36.4403 92.3708Z" fill="#43A862" stroke="white" stroke-width="0.8"></path>
  <path d="M40.4789 119.016L35.7056 119.107L34.1915 114.448C33.8829 113.544 33.2991 112.758 32.5219 112.203C31.7447 111.647 30.8131 111.348 29.8575 111.348C28.902 111.348 27.9704 111.647 27.1932 112.203C26.4161 112.759 25.8323 113.544 25.5238 114.448L24.1344 119.016H19.2363C18.274 119.016 17.3364 119.321 16.5579 119.887C15.7794 120.452 15.2 121.25 14.9026 122.165C14.6053 123.08 14.6054 124.066 14.9028 124.981C15.2003 125.897 15.7798 126.694 16.5584 127.26L20.4734 129.991L18.9593 134.65C18.6618 135.566 18.6618 136.552 18.9592 137.467C19.2565 138.382 19.8361 139.18 20.6147 139.746C21.3934 140.311 22.3311 140.616 23.2936 140.616C24.256 140.616 25.1937 140.311 25.9723 139.745L29.7808 136.866C32.4555 138.658 35.6918 142.34 39.1009 139.745C39.8875 139.186 40.4732 138.389 40.7712 137.471C41.0693 136.554 41.0638 135.565 40.7557 134.65L39.1948 130.139L43.1556 127.26C43.9208 126.687 44.4876 125.889 44.7766 124.979C45.0656 124.068 45.0623 123.089 44.7671 122.18C44.472 121.271 43.8998 120.477 43.1308 119.91C42.3618 119.343 41.4345 119.03 40.4789 119.016ZM36.4403 126.345C35.6599 126.91 35.0789 127.707 34.7811 128.623C34.4833 129.538 34.484 130.525 34.7832 131.44L36.1726 135.716L32.5356 133.072C31.7572 132.506 30.8194 132.201 29.8569 132.201C28.8944 132.202 27.9568 132.507 27.1786 133.073L23.5428 135.716L24.931 131.441C25.2308 130.526 25.232 129.54 24.9346 128.624C24.6372 127.708 24.0564 126.911 23.2762 126.346L19.6403 123.704H24.1344C25.0972 123.706 26.0359 123.402 26.8148 122.837C27.5938 122.271 28.1728 121.472 28.4683 120.556L29.8576 116.28L31.248 120.557C31.5439 121.473 32.1229 122.271 32.9016 122.836C33.6803 123.402 34.6184 123.706 35.5807 123.704H40.0748L36.4403 126.345Z" fill="#43A862" stroke="white" stroke-width="0.8"></path>
  <path d="M62.6719 35.0325H118.922C120.786 35.0304 122.573 34.289 123.891 32.9708C125.21 31.6526 125.951 29.8654 125.953 28.0012V20.0762C125.951 18.212 125.21 16.4247 123.891 15.1066C122.573 13.7884 120.786 13.047 118.922 13.0449H62.6719C60.8077 13.047 59.0205 13.7884 57.7023 15.1066C56.3841 16.4247 55.6427 18.212 55.6406 20.0762V28.0012C55.6427 29.8654 56.3841 31.6526 57.7023 32.9708C59.0205 34.289 60.8077 35.0304 62.6719 35.0325ZM60.3281 20.0762C60.3289 19.4548 60.5761 18.8591 61.0155 18.4198C61.4548 17.9804 62.0505 17.7332 62.6719 17.7324H118.922C119.543 17.7332 120.139 17.9804 120.578 18.4198C121.018 18.8591 121.265 19.4548 121.266 20.0762V28.0012C121.265 28.6226 121.018 29.2182 120.578 29.6576C120.139 30.097 119.543 30.3442 118.922 30.345H62.6719C62.0505 30.3442 61.4548 30.097 61.0155 29.6576C60.5761 29.2182 60.3289 28.6226 60.3281 28.0012V20.0762Z" fill="#43A862" stroke="white" stroke-width="0.8"></path>
  <path d="M128.297 47.0195H62.6719C60.8077 47.0216 59.0205 47.763 57.7023 49.0812C56.3841 50.3994 55.6427 52.1866 55.6406 54.0508V61.9758C55.6427 63.84 56.3841 65.6272 57.7023 66.9454C59.0205 68.2636 60.8077 69.005 62.6719 69.0071H128.297C130.161 69.005 131.948 68.2636 133.266 66.9454C134.585 65.6272 135.326 63.84 135.328 61.9758V54.0508C135.326 52.1866 134.585 50.3994 133.266 49.0812C131.948 47.763 130.161 47.0216 128.297 47.0195ZM130.641 61.9758C130.64 62.5972 130.393 63.1929 129.953 63.6322C129.514 64.0716 128.918 64.3188 128.297 64.3196H62.6719C62.0505 64.3188 61.4548 64.0716 61.0155 63.6322C60.5761 63.1929 60.3289 62.5972 60.3281 61.9758V54.0508C60.3289 53.4294 60.5761 52.8338 61.0155 52.3944C61.4548 51.955 62.0505 51.7078 62.6719 51.707H128.297C128.918 51.7078 129.514 51.955 129.953 52.3944C130.393 52.8338 130.64 53.4294 130.641 54.0508V61.9758Z" fill="#43A862" stroke="white" stroke-width="0.8"></path>
  <path d="M90.7969 80.9941H62.6719C60.8077 80.9962 59.0205 81.7376 57.7023 83.0558C56.3841 84.374 55.6427 86.1612 55.6406 88.0254V95.9504C55.6427 97.8146 56.3841 99.6019 57.7023 100.92C59.0205 102.238 60.8077 102.98 62.6719 102.982H90.7969C92.6611 102.98 94.4483 102.238 95.7665 100.92C97.0846 99.6019 97.8261 97.8146 97.8281 95.9504V88.0254C97.8261 86.1612 97.0846 84.374 95.7665 83.0558C94.4483 81.7376 92.6611 80.9962 90.7969 80.9941ZM93.1406 95.9504C93.1398 96.5718 92.8926 97.1675 92.4533 97.6068C92.0139 98.0462 91.4182 98.2934 90.7969 98.2942H62.6719C62.0505 98.2934 61.4548 98.0462 61.0155 97.6068C60.5761 97.1675 60.3289 96.5718 60.3281 95.9504V88.0254C60.3289 87.404 60.5761 86.8084 61.0155 86.369C61.4548 85.9296 62.0505 85.6824 62.6719 85.6816H90.7969C91.4182 85.6824 92.0139 85.9296 92.4533 86.369C92.8926 86.8084 93.1398 87.404 93.1406 88.0254V95.9504Z" fill="#43A862" stroke="white" stroke-width="0.8"></path>
  <path d="M72.0469 114.969H62.6719C60.8077 114.971 59.0205 115.712 57.7023 117.03C56.3841 118.349 55.6427 120.136 55.6406 122V129.925C55.6427 131.789 56.3841 133.576 57.7023 134.895C59.0205 136.213 60.8077 136.954 62.6719 136.956H72.0469C73.9111 136.954 75.6983 136.213 77.0165 134.895C78.3346 133.576 79.0761 131.789 79.0781 129.925V122C79.0761 120.136 78.3346 118.349 77.0165 117.03C75.6983 115.712 73.9111 114.971 72.0469 114.969ZM74.3906 129.925C74.3898 130.546 74.1426 131.142 73.7033 131.581C73.2639 132.021 72.6682 132.268 72.0469 132.269H62.6719C62.0505 132.268 61.4548 132.021 61.0155 131.581C60.5761 131.142 60.3289 130.546 60.3281 129.925V122C60.3289 121.379 60.5761 120.783 61.0155 120.344C61.4548 119.904 62.0505 119.657 62.6719 119.656H72.0469C72.6682 119.657 73.2639 119.904 73.7033 120.344C74.1426 120.783 74.3898 121.379 74.3906 122V129.925Z" fill="#43A862" stroke="white" stroke-width="0.8"></path>
</svg>
