<?xml version="1.0" encoding="UTF-8"?>
<svg xmlns="http://www.w3.org/2000/svg" width="150" height="150" viewBox="0 0 150 150" fill="none">
  <path d="M104.105 14.916H110.916C131.36 14.9162 147.992 31.5492 147.992 51.9932V98.0078C147.992 118.452 131.36 135.085 110.916 135.085H92.7871V142.96C92.7871 144.907 91.6983 146.64 89.9443 147.485C89.2412 147.825 88.4937 147.991 87.7529 147.991L87.5449 147.987C86.5077 147.944 85.4906 147.573 84.6338 146.892L59.1094 126.579H59.1084C57.885 125.606 57.2139 124.212 57.2139 122.647C57.2139 121.084 57.8851 119.69 59.1084 118.717H59.1094L84.6338 98.4033C86.157 97.1909 88.1907 96.9635 89.9443 97.8086C91.6986 98.6546 92.7871 100.388 92.7871 102.335V110.21H110.916C117.533 110.21 123.117 104.624 123.117 98.0078V51.9932C123.117 45.3766 117.532 39.7912 110.916 39.791H104.105C100.69 39.791 97.9102 37.0116 97.9102 33.5957V21.1113C97.9104 17.6956 100.69 14.9161 104.105 14.916ZM104.105 20.2754C103.65 20.2754 103.27 20.6558 103.27 21.1113V33.5957C103.27 34.0513 103.65 34.4316 104.105 34.4316H110.915C115.57 34.4316 119.97 36.2673 123.306 39.6025C126.641 42.9381 128.477 47.3378 128.477 51.9932V98.0078C128.477 102.663 126.641 107.063 123.306 110.398C119.97 113.734 115.57 115.569 110.915 115.569H90.1074C88.6275 115.569 87.4278 114.369 87.4277 112.89V103.029L87.0215 103.352L63.0215 122.451L62.9268 122.526V122.769L63.0215 122.844L87.0215 141.942L87.4277 142.266V132.405C87.4277 130.926 88.6274 129.726 90.1074 129.726H110.915C128.404 129.726 142.633 115.497 142.633 98.0078V51.9932C142.633 34.5038 128.404 20.2754 110.915 20.2754H104.105ZM60.0547 2.51562C61.8083 1.66965 63.8426 1.89657 65.3662 3.10938L90.8906 23.4219C92.1141 24.3954 92.7861 25.7894 92.7861 27.3535C92.7861 28.9177 92.114 30.3116 90.8906 31.2852L65.3662 51.5977C63.8432 52.8102 61.8097 53.0375 60.0557 52.1924C58.3011 51.3461 57.2129 49.6129 57.2129 47.666V39.791H39.084C32.4673 39.7911 26.8819 45.3765 26.8818 51.9932V98.0078C26.8818 104.625 32.4675 110.21 39.084 110.21H45.8945C49.3102 110.21 52.0896 112.99 52.0898 116.405V128.89C52.0898 132.305 49.3103 135.085 45.8945 135.085H39.084C18.6403 135.085 2.00781 118.452 2.00781 98.0078V51.9932C2.00786 31.5495 18.6403 14.9172 39.084 14.917H57.2129V7.04102C57.2129 5.09426 58.3012 3.3614 60.0547 2.51562ZM62.5732 17.5967C62.5731 19.0761 61.3732 20.2761 59.8936 20.2764H39.1895L39.1885 20.2754H39.084C21.595 20.2756 7.36719 34.5044 7.36719 51.9932V98.0078C7.36719 115.497 21.595 129.725 39.084 129.726H45.8945C46.35 129.726 46.7303 129.345 46.7305 128.89V116.405C46.7304 115.95 46.3501 115.569 45.8945 115.569H39.084C34.4287 115.569 30.0295 113.734 26.6943 110.398C23.3588 107.063 21.5234 102.663 21.5234 98.0078V51.9932C21.5235 47.3378 23.3582 42.9377 26.6934 39.6025C30.0288 36.2671 34.4287 34.4317 39.084 34.4316H59.8926C61.3725 34.4316 62.5721 35.6317 62.5723 37.1113V46.9717L62.9785 46.6494L86.9785 27.5498L87.2246 27.3545L86.9785 27.1582L62.9785 8.05859L62.5732 7.73535V17.5967Z" fill="#43A862" stroke="white" stroke-width="0.5"></path>
</svg>
