<?xml version="1.0" encoding="UTF-8"?>
<svg xmlns="http://www.w3.org/2000/svg" width="150" height="150" viewBox="0 0 150 150" fill="none">
  <path d="M51.4412 89.9648H38.3528C36.8587 89.9648 35.7744 91.3986 35.7744 93.3738V132.049C35.7744 134.024 36.8587 135.458 38.3528 135.458H51.4412C52.9354 135.458 54.0196 134.024 54.0196 132.049V93.3738C54.0196 91.3986 52.9354 89.9648 51.4412 89.9648ZM50.5069 131.945H39.2874V93.4775H50.5069V131.945ZM29.2761 111.059H16.188C14.7659 111.059 13.6093 112.215 13.6093 113.637V132.879C13.6093 134.301 14.7659 135.458 16.188 135.458H29.2761C30.6981 135.458 31.8548 134.301 31.8548 132.879V113.637C31.8548 112.215 30.6981 111.059 29.2761 111.059ZM28.3421 131.945H17.122V114.571H28.3418L28.3421 131.945ZM73.6063 100.512H60.5265C59.0804 100.512 57.9478 101.827 57.9478 103.506V132.464C57.9478 134.142 59.0804 135.458 60.5265 135.458H73.6063C75.0524 135.458 76.1851 134.143 76.1851 132.464V103.506C76.1851 101.827 75.0524 100.512 73.6063 100.512ZM72.6715 131.945H61.4607L61.4616 104.024H72.6724L72.6715 131.945ZM63.0387 23.0669C63.0387 22.0966 63.825 21.3105 64.795 21.3105H79.6353C80.6057 21.3105 81.3917 22.0969 81.3917 23.0669C81.3917 24.0369 80.6054 24.8232 79.6353 24.8232H64.795C63.8247 24.8232 63.0387 24.0369 63.0387 23.0669ZM53.2225 39.5599C53.2225 38.5896 54.0088 37.8035 54.9788 37.8035H86.4035C87.3738 37.8035 88.1599 38.5898 88.1599 39.5599C88.1599 40.5299 87.3735 41.3162 86.4035 41.3162H54.9788C54.0085 41.3162 53.2225 40.5299 53.2225 39.5599ZM147.206 103.198C147.206 97.6963 142.73 93.22 137.228 93.22H132.804C141.386 88.4432 147.206 79.2809 147.206 68.7838C147.206 53.3678 134.664 40.8261 119.248 40.8261C115.593 40.8261 112.1 41.5327 108.896 42.815V11.7642C108.896 6.88945 104.931 2.92383 100.056 2.92383H39.4658C39.4474 2.92383 39.4289 2.92588 39.4102 2.92646C39.3882 2.92705 39.3665 2.92822 39.3442 2.92969C39.273 2.93467 39.2024 2.94258 39.1327 2.95605C39.1286 2.95693 39.1245 2.95723 39.1204 2.95811C39.0475 2.97275 38.976 2.99355 38.906 3.01729C38.8866 3.02373 38.8679 3.03047 38.8488 3.03779C38.7823 3.0627 38.7173 3.09053 38.6543 3.12334C38.6496 3.12568 38.6449 3.12773 38.6402 3.13008C38.5734 3.16553 38.5102 3.20684 38.448 3.25107C38.4319 3.2625 38.4164 3.27422 38.4006 3.28623C38.3391 3.3334 38.279 3.3832 38.2236 3.43857L3.58477 38.0854C3.52939 38.1407 3.47959 38.2008 3.43242 38.2623C3.42041 38.2778 3.40869 38.2934 3.39756 38.3095C3.35361 38.3713 3.31201 38.4352 3.27656 38.502C3.27422 38.5061 3.27275 38.5104 3.27041 38.5148C3.2373 38.5781 3.20918 38.644 3.18428 38.7108C3.17725 38.7293 3.1708 38.7478 3.16436 38.7665C3.14033 38.8377 3.11924 38.9098 3.1043 38.9836C3.104 38.9856 3.104 38.9877 3.10342 38.9897C3.08936 39.0615 3.08115 39.1345 3.07617 39.208C3.075 39.2285 3.07383 39.2487 3.07324 39.2692C3.07266 39.2886 3.07031 39.3079 3.07031 39.3272V137.214C3.07031 142.088 7.03594 146.054 11.9106 146.054H100.056C100.245 146.054 100.433 146.043 100.623 146.03C100.839 146.044 101.057 146.054 101.277 146.054H137.228C142.73 146.054 147.206 141.578 147.206 136.076C147.206 132.669 145.488 129.656 142.874 127.855C145.488 126.056 147.206 123.046 147.206 119.641C147.206 116.237 145.488 113.22 142.873 111.42C145.488 109.619 147.206 106.606 147.206 103.198ZM143.693 68.7838C143.693 82.258 132.727 93.22 119.249 93.22C105.77 93.22 94.8123 82.258 94.8123 68.7838C94.8123 55.3096 105.774 44.3391 119.249 44.3391C132.723 44.3391 143.693 55.3052 143.693 68.7838ZM91.2993 103.198C91.2993 106.606 93.0176 109.619 95.632 111.42C93.0176 113.22 91.2993 116.233 91.2993 119.641C91.2993 123.049 93.017 126.056 95.6311 127.855C94.0781 128.925 92.8409 130.422 92.0933 132.177H83.6259V83.1715H94.8372V95.5854C92.6754 97.4171 91.2996 100.149 91.2996 103.198H91.2993ZM86.3505 66.6987C84.5297 65.6593 83.4428 63.7872 83.4428 61.6916C83.4428 58.4977 86.0414 55.8993 89.2353 55.8993C90.8959 55.8993 92.4478 56.606 93.5385 57.8218C92.3109 60.6914 91.5513 63.8068 91.3532 67.0717C89.7328 67.7162 87.9193 67.5949 86.3505 66.6987ZM98.3496 87.3196C100.442 89.6757 102.925 91.6767 105.697 93.22H101.277C100.259 93.22 99.2757 93.3741 98.3496 93.6592V87.3199V87.3196ZM37.7095 8.92148V35.2746C37.7095 36.5405 36.6791 37.5709 35.4132 37.5709H9.0668L37.7095 8.92148ZM6.58359 137.214V41.0836H35.4132C38.6165 41.0836 41.2222 38.4776 41.2222 35.2746V6.43682H100.056C102.994 6.43682 105.384 8.82656 105.384 11.7645V44.5154C101.185 46.9248 97.6696 50.3936 95.2002 54.5534C93.5496 53.17 91.4534 52.3866 89.2356 52.3866C84.1046 52.3866 79.9301 56.5608 79.9301 61.6919C79.9301 63.6905 80.5482 65.5597 81.6583 67.1013L72.2792 76.4865C70.79 75.4755 68.9941 74.8837 67.062 74.8837C64.4927 74.8837 62.1642 75.9313 60.4799 77.6218L53.453 72.8851C53.9347 71.763 54.2024 70.5284 54.2024 69.2323C54.2024 64.106 50.0282 59.9355 44.8972 59.9355C39.7661 59.9355 35.6001 64.106 35.6001 69.2323C35.6001 71.2497 36.2481 73.1177 37.3441 74.6432L27.7371 84.7646C26.291 83.8368 24.5742 83.2963 22.7323 83.2963C17.606 83.2963 13.4355 87.467 13.4355 92.5934C13.4355 97.7197 17.606 101.899 22.7323 101.899C27.8587 101.899 32.0291 97.7244 32.0291 92.5934C32.0291 90.576 31.3813 88.708 30.2854 87.1825L39.8924 77.0607C41.3385 77.9886 43.0556 78.5291 44.8975 78.5291C47.4677 78.5291 49.7977 77.4823 51.4831 75.7934L58.5123 80.5315C58.0321 81.6524 57.7655 82.8858 57.7655 84.1805C57.7655 89.3068 61.9359 93.4772 67.0623 93.4772C72.1887 93.4772 76.3676 89.3068 76.3676 84.1805C76.3676 82.251 75.7758 80.4571 74.7647 78.9697L84.2188 69.5092C84.3475 69.5909 84.4755 69.673 84.6094 69.7491C86.0681 70.582 87.6609 70.998 89.2497 70.998C89.9616 70.998 90.6718 70.9096 91.3696 70.7426C91.5885 73.8847 92.327 76.8855 93.5027 79.6585H82.6922C81.2704 79.6585 80.1138 80.8116 80.1138 82.2284V133.111C80.1138 134.533 81.2704 135.69 82.6922 135.69H91.3099C91.3049 135.818 91.3002 135.946 91.3002 136.076C91.3002 138.541 92.2005 140.798 93.687 142.541H11.9109C8.97334 142.541 6.5833 140.151 6.5833 137.213L6.58359 137.214ZM67.0623 78.3961C70.2563 78.3961 72.8546 80.9909 72.8546 84.1805C72.8546 87.37 70.2563 89.9646 67.0623 89.9646C63.8684 89.9646 61.2782 87.37 61.2782 84.1805C61.2782 80.9909 63.8728 78.3961 67.0623 78.3961ZM39.1131 69.232C39.1131 66.0425 41.7079 63.4479 44.8975 63.4479C48.087 63.4479 50.6897 66.0425 50.6897 69.232C50.6897 72.4216 48.0914 75.0164 44.8975 75.0164C41.7035 75.0164 39.1131 72.4216 39.1131 69.232ZM28.5164 92.5931C28.5164 95.787 25.9219 98.3854 22.7323 98.3854C19.5428 98.3854 16.9482 95.787 16.9482 92.5931C16.9482 89.3991 19.5428 86.8087 22.7323 86.8087C25.9219 86.8087 28.5164 89.4035 28.5164 92.5931ZM143.694 136.076C143.694 139.641 140.793 142.541 137.228 142.541H101.278C97.7127 142.541 94.8126 139.641 94.8126 136.076C94.8126 132.511 97.7127 129.611 101.278 129.611H137.228C140.793 129.611 143.694 132.511 143.694 136.076ZM143.694 119.641C143.694 123.201 140.793 126.098 137.228 126.098H101.278C97.7127 126.098 94.8126 123.201 94.8126 119.641C94.8126 116.081 97.7127 113.176 101.278 113.176H137.228C140.793 113.176 143.694 116.076 143.694 119.641ZM137.228 109.663H101.278C97.7127 109.663 94.8126 106.763 94.8126 103.198C94.8126 101.047 95.8696 99.1389 97.4903 97.9629C97.5688 97.916 97.6441 97.865 97.7142 97.807C98.7366 97.1288 99.9615 96.7327 101.278 96.7327H137.228C140.793 96.7327 143.694 99.6331 143.694 103.198C143.694 106.763 140.793 109.663 137.228 109.663ZM125.025 74.148C125.025 72.1585 123.406 70.5398 121.416 70.5398H117.09C113.092 70.5398 109.96 67.3535 109.96 63.2856C109.96 59.3593 113.159 56.1645 117.09 56.1645H117.492V51.7919C117.492 50.8216 118.279 50.0355 119.249 50.0355C120.219 50.0355 121.005 50.8219 121.005 51.7919V56.1645H126.781C127.752 56.1645 128.538 56.9508 128.538 57.9208C128.538 58.8908 127.751 59.6772 126.781 59.6772H117.09C115.095 59.6772 113.473 61.2958 113.473 63.2854C113.473 65.3833 115.062 67.0269 117.09 67.0269H121.416C125.343 67.0269 128.538 70.2214 128.538 74.148C128.538 78.2159 125.41 81.4022 121.416 81.4022H121.005V85.7748C121.005 86.7451 120.219 87.5312 119.249 87.5312C118.279 87.5312 117.493 86.7448 117.493 85.7748V81.4022H111.717C110.747 81.4022 109.961 80.6159 109.961 79.6459C109.961 78.6759 110.747 77.8895 111.717 77.8895H121.416C123.44 77.8895 125.025 76.2463 125.025 74.148Z" fill="#43A862" stroke="#43A862" stroke-width="1.5"></path>
</svg>
