<svg xmlns="http://www.w3.org/2000/svg" width="92" height="92" viewBox="0 0 92 92" fill="none"><g clip-path="url(#clip0_9945_2976)"><path d="M61.3374 11.5352H59.6211C58.989 11.5352 58.4766 12.0467 58.4766 12.6797C58.4766 13.3117 58.989 13.8233 59.6211 13.8233H61.3374C61.9694 13.8233 62.4819 13.3117 62.4819 12.6797C62.4819 12.0467 61.9694 11.5352 61.3374 11.5352Z" fill="#43A862"></path><path d="M23.0424 13.8233C23.6745 13.8233 24.1869 13.3117 24.1869 12.6797C24.1869 12.0467 23.6745 11.5352 23.0424 11.5352H19.6133C18.9812 11.5352 18.4688 12.0467 18.4688 12.6797C18.4688 13.3117 18.9812 13.8233 19.6133 13.8233H23.0424Z" fill="#43A862"></path><path d="M2.01245 25.011C1.50087 25.3812 1.38564 26.097 1.75666 26.6095C2.51879 27.6606 3.51576 28.5598 4.63844 29.2075C4.81828 29.3114 5.0147 29.3603 5.20851 29.3603C5.60398 29.3603 5.98897 29.1543 6.20111 28.7885C6.51714 28.2402 6.32944 27.5401 5.7812 27.2249C4.93526 26.7361 4.18448 26.0595 3.61004 25.2659C3.23989 24.7552 2.52403 24.6391 2.01245 25.011Z" fill="#43A862"></path><path d="M65.1713 62.2109C65.1713 61.5789 64.6588 61.0664 64.0268 61.0664H60.5976C59.9656 61.0664 59.4531 61.5789 59.4531 62.2109C59.4531 62.8438 59.9656 63.3554 60.5976 63.3554H64.0268C64.6588 63.3554 65.1713 62.8438 65.1713 62.2109Z" fill="#43A862"></path><path d="M16.4492 29.3008C16.4492 29.9328 16.9617 30.4453 17.5937 30.4453H21.022C21.6541 30.4453 22.1665 29.9328 22.1665 29.3008C22.1665 28.6678 21.6541 28.1562 21.022 28.1562H17.5937C16.9617 28.1562 16.4492 28.6678 16.4492 29.3008Z" fill="#43A862"></path><path d="M8.44531 29.3008C8.44531 29.9328 8.95689 30.4453 9.58894 30.4453H13.019C13.6501 30.4453 14.1626 29.9328 14.1626 29.3008C14.1626 28.6678 13.6501 28.1562 13.019 28.1562H9.58894C8.95689 28.1562 8.44531 28.6678 8.44531 29.3008Z" fill="#43A862"></path><path d="M4.7917 15.4464C5.55557 14.8082 6.42596 14.3499 7.37753 14.0827C7.98601 13.9116 8.34045 13.2804 8.17021 12.6728C7.9991 12.0626 7.36618 11.7073 6.75944 11.8793C5.49446 12.2346 4.33861 12.8439 3.32506 13.689C2.83967 14.0941 2.77507 14.816 3.18014 15.3006C3.40625 15.5721 3.731 15.7117 4.05925 15.7117C4.31766 15.7117 4.57694 15.6244 4.7917 15.4464Z" fill="#43A862"></path><path d="M1.88743 17.2167C1.28332 17.0202 0.640787 17.3528 0.446107 17.9535C0.15016 18.8719 -0.000869238 19.8313 3.7631e-06 20.8029V21.1766C3.7631e-06 21.3739 0.00611478 21.5694 0.0183368 21.7632C0.0558758 22.3708 0.559597 22.8379 1.15935 22.8379C1.18379 22.8379 1.20736 22.8362 1.23181 22.8353C1.86211 22.796 2.34139 22.253 2.30211 21.6227C2.29338 21.4751 2.28814 21.3267 2.28814 21.1766V20.8012C2.28814 20.0696 2.40076 19.3476 2.62424 18.6571C2.81892 18.0556 2.48893 17.4113 1.88743 17.2167Z" fill="#43A862"></path><path d="M81.1704 62.2109C81.1704 61.5789 80.658 61.0664 80.0259 61.0664H76.5976C75.9656 61.0664 75.4531 61.5789 75.4531 62.2109C75.4531 62.8438 75.9656 63.3554 76.5976 63.3554H80.0259C80.658 63.3554 81.1704 62.8438 81.1704 62.2109Z" fill="#43A862"></path><path d="M87.5008 65.4581C87.8125 65.4581 88.1232 65.3316 88.3485 65.0827C88.7736 64.6148 88.7378 63.8902 88.2699 63.4659C87.2913 62.5781 86.1616 61.9234 84.9123 61.5165C84.3108 61.3227 83.6666 61.6519 83.4701 62.2507C83.2755 62.8522 83.6037 63.4983 84.2052 63.6938C85.1454 63.9985 85.9949 64.4926 86.7326 65.1622C86.9517 65.3595 87.2267 65.4581 87.5008 65.4581Z" fill="#43A862"></path><path d="M81.6861 77.9844H78.2569C77.6249 77.9844 77.1133 78.496 77.1133 79.1289C77.1133 79.7609 77.6249 80.2725 78.2569 80.2725H81.6861C82.3181 80.2725 82.8306 79.7609 82.8306 79.1289C82.8306 78.496 82.3181 77.9844 81.6861 77.9844Z" fill="#43A862"></path><path d="M57.683 77.9844H54.2539C53.6218 77.9844 53.1094 78.496 53.1094 79.1289C53.1094 79.7609 53.6218 80.2725 54.2539 80.2725H57.683C58.3142 80.2725 58.8267 79.7609 58.8267 79.1289C58.8267 78.496 58.3142 77.9844 57.683 77.9844Z" fill="#43A862"></path><path d="M89.5657 67.0492C88.9563 67.2177 88.5993 67.8498 88.7686 68.4583C88.9363 69.0641 89.0218 69.6944 89.0218 70.33V71.0065C89.0218 71.1646 89.0175 71.3208 89.007 71.4762C88.9633 72.1065 89.44 72.6521 90.0703 72.6958C90.0974 72.6967 90.1227 72.6975 90.1489 72.6975C90.746 72.6975 91.2488 72.2357 91.2899 71.6307C91.3038 71.4238 91.3108 71.2161 91.3108 71.0065V70.3291C91.31 69.4866 91.1965 68.6503 90.973 67.8463C90.8054 67.2378 90.1742 66.8816 89.5657 67.0492Z" fill="#43A862"></path><path d="M73.1704 62.2109C73.1704 61.5789 72.658 61.0664 72.0268 61.0664H68.5976C67.9656 61.0664 67.4531 61.5789 67.4531 62.2109C67.4531 62.8438 67.9656 63.3554 68.5976 63.3554H72.0268C72.658 63.3554 73.1704 62.8438 73.1704 62.2109Z" fill="#43A862"></path><path d="M29.022 28.1562H25.5928C24.9617 28.1562 24.4492 28.6678 24.4492 29.3008C24.4492 29.9328 24.9617 30.4453 25.5928 30.4453H29.022C29.6541 30.4453 30.1665 29.9328 30.1665 29.3008C30.1665 28.6678 29.6541 28.1562 29.022 28.1562Z" fill="#43A862"></path><path d="M65.6822 77.9844H62.2539C61.6218 77.9844 61.1094 78.496 61.1094 79.1289C61.1094 79.7609 61.6218 80.2725 62.2539 80.2725H65.6822C66.3142 80.2725 66.8267 79.7609 66.8267 79.1289C66.8267 78.496 66.3142 77.9844 65.6822 77.9844Z" fill="#43A862"></path><path d="M73.6861 77.9844H70.2569C69.6257 77.9844 69.1133 78.496 69.1133 79.1289C69.1133 79.7609 69.6257 80.2725 70.2569 80.2725H73.6861C74.3181 80.2725 74.8306 79.7609 74.8306 79.1289C74.8306 78.496 74.3181 77.9844 73.6861 77.9844Z" fill="#43A862"></path><path d="M87.6817 75.1184C87.1047 75.9093 86.3504 76.5832 85.5027 77.0678C84.9536 77.382 84.7633 78.0804 85.0767 78.6287C85.288 78.9988 85.6738 79.2057 86.0711 79.2057C86.2631 79.2057 86.4587 79.1577 86.6376 79.0547C87.7638 78.4113 88.7634 77.5174 89.5308 76.468C89.9027 75.9573 89.7909 75.2423 89.2811 74.8687C88.7704 74.4959 88.0545 74.6076 87.6817 75.1184Z" fill="#43A862"></path><path d="M39.2956 46.0608C39.3358 46.6641 39.8386 47.1277 40.4358 47.1277C40.462 47.1277 40.4873 47.1268 40.5135 47.1259C40.6715 47.1146 40.8312 47.1084 40.991 47.1084H43.8649C44.497 47.1084 45.0094 46.5969 45.0094 45.9648C45.0094 45.3319 44.497 44.8203 43.8649 44.8203H40.991C40.7797 44.8203 40.5685 44.8282 40.3607 44.8413C39.7295 44.884 39.2529 45.4297 39.2956 46.0608Z" fill="#43A862"></path><path d="M36.8753 48.4512C37.3851 48.0776 37.496 47.3626 37.1232 46.8519C36.7513 46.3421 36.0328 46.2295 35.5239 46.6048C34.4745 47.3713 33.5814 48.3727 32.9398 49.4988C32.6264 50.048 32.8176 50.7472 33.3667 51.0606C33.5456 51.1619 33.7403 51.2099 33.9324 51.2099C34.3305 51.2099 34.7163 51.0022 34.9276 50.632C35.4112 49.7843 36.0843 49.03 36.8753 48.4512Z" fill="#43A862"></path><path d="M40.0291 63.2945C40.6009 63.2945 41.0942 62.8667 41.164 62.2853C41.2382 61.6576 40.7903 61.0884 40.1618 61.0134C39.1779 60.8973 38.2482 60.5777 37.3987 60.067C36.8575 59.7397 36.1538 59.916 35.8282 60.4573C35.5026 60.9977 35.6763 61.7013 36.2176 62.0269C37.3472 62.7079 38.5834 63.1313 39.8929 63.2867C39.9383 63.2919 39.9837 63.2945 40.0291 63.2945Z" fill="#43A862"></path><path d="M39.0463 11.5352H35.6172C34.9851 11.5352 34.4727 12.0467 34.4727 12.6797C34.4727 13.3117 34.9851 13.8233 35.6172 13.8233H39.0463C39.6784 13.8233 40.1908 13.3117 40.1908 12.6797C40.1908 12.0467 39.6784 11.5352 39.0463 11.5352Z" fill="#43A862"></path><path d="M32.4492 29.3008C32.4492 29.9328 32.9608 30.4453 33.5928 30.4453H37.022C37.6541 30.4453 38.1665 29.9328 38.1665 29.3008C38.1665 28.6678 37.6541 28.1562 37.022 28.1562H33.5928C32.9608 28.1562 32.4492 28.6678 32.4492 29.3008Z" fill="#43A862"></path><path d="M57.1674 62.2109C57.1674 61.5789 56.6549 61.0664 56.0229 61.0664H52.5937C51.9617 61.0664 51.4492 61.5789 51.4492 62.2109C51.4492 62.8438 51.9617 63.3554 52.5937 63.3554H56.0229C56.6549 63.3554 57.1674 62.8438 57.1674 62.2109Z" fill="#43A862"></path><path d="M49.683 77.9844H46.253C45.6218 77.9844 45.1094 78.496 45.1094 79.1289C45.1094 79.7609 45.6218 80.2725 46.253 80.2725H49.683C50.3151 80.2725 50.8267 79.7609 50.8267 79.1289C50.8267 78.496 50.3151 77.9844 49.683 77.9844Z" fill="#43A862"></path><path d="M41.6822 77.9844H38.2539C37.6218 77.9844 37.1094 78.496 37.1094 79.1289C37.1094 79.7609 37.6218 80.2725 38.2539 80.2725H41.6822C42.3142 80.2725 42.8267 79.7609 42.8267 79.1289C42.8267 78.496 42.3142 77.9844 41.6822 77.9844Z" fill="#43A862"></path><path d="M49.1674 62.2109C49.1674 61.5789 48.6549 61.0664 48.0229 61.0664H44.5937C43.9617 61.0664 43.4492 61.5789 43.4492 62.2109C43.4492 62.8438 43.9617 63.3554 44.5937 63.3554H48.0229C48.6549 63.3554 49.1674 62.8438 49.1674 62.2109Z" fill="#43A862"></path><path d="M40.4492 29.3008C40.4492 29.9328 40.9617 30.4453 41.5937 30.4453H45.0229C45.6549 30.4453 46.1665 29.9328 46.1665 29.3008C46.1665 28.6678 45.6549 28.1562 45.0229 28.1562H41.5937C40.9617 28.1562 40.4492 28.6678 40.4492 29.3008Z" fill="#43A862"></path><path d="M56.4385 29.6667C56.1504 30.2289 56.373 30.9186 56.9361 31.2067C57.8056 31.6511 58.5896 32.2892 59.2024 33.054C59.4285 33.3351 59.7603 33.4817 60.0955 33.4817C60.3469 33.4817 60.6001 33.3988 60.8114 33.2303C61.3037 32.8348 61.3823 32.1137 60.9868 31.6214C60.1627 30.593 59.15 29.768 57.9785 29.1682C57.4145 28.881 56.7257 29.1045 56.4385 29.6667Z" fill="#43A862"></path><path d="M55.3042 45.8958C55.4657 46.3707 55.911 46.6701 56.3868 46.6701C56.509 46.6701 56.6338 46.6509 56.7569 46.609C57.9992 46.1839 59.1193 45.5125 60.0848 44.6099C60.5466 44.1786 60.5711 43.454 60.1389 42.9922C59.7085 42.5304 58.9831 42.5051 58.5221 42.9381C57.7949 43.6173 56.9516 44.1236 56.0166 44.4431C55.4195 44.6474 55.0991 45.2978 55.3042 45.8958Z" fill="#43A862"></path><path d="M60.5097 39.6168C60.3508 40.2279 60.7175 40.852 61.3295 41.0118C61.4255 41.0371 61.5224 41.0493 61.6176 41.0493C62.1265 41.0493 62.5909 40.708 62.7245 40.1929C62.9236 39.4291 63.0248 38.639 63.0248 37.8446V37.4194C63.024 37.0658 63.0039 36.7158 62.9655 36.3718C62.8948 35.7424 62.3221 35.2928 61.7005 35.3626C61.0728 35.4342 60.6206 36.0008 60.6913 36.6285C60.721 36.8904 60.7358 37.1549 60.7358 37.422V37.8446C60.7358 38.4443 60.6599 39.0397 60.5097 39.6168Z" fill="#43A862"></path><path d="M34.0219 54.3986C33.994 53.7665 33.444 53.2715 32.8285 53.3064C32.1973 53.3344 31.7076 53.8678 31.7355 54.4998C31.794 55.8189 32.124 57.0839 32.7176 58.2572C32.9193 58.6562 33.3218 58.8858 33.7399 58.8858C33.9128 58.8858 34.09 58.8465 34.255 58.7627C34.819 58.4772 35.0451 57.7893 34.7605 57.2253C34.3144 56.3436 34.0656 55.392 34.0219 54.3986Z" fill="#43A862"></path><path d="M55.0502 11.5352H51.6211C50.989 11.5352 50.4766 12.0467 50.4766 12.6797C50.4766 13.3117 50.989 13.8233 51.6211 13.8233H55.0502C55.6814 13.8233 56.1938 13.3117 56.1938 12.6797C56.1938 12.0467 55.6814 11.5352 55.0502 11.5352Z" fill="#43A862"></path><path d="M47.293 45.9648C47.293 46.5969 47.8054 47.1084 48.4375 47.1084H51.8657C52.4978 47.1084 53.0103 46.5969 53.0103 45.9648C53.0103 45.3319 52.4978 44.8203 51.8657 44.8203H48.4375C47.8054 44.8203 47.293 45.3319 47.293 45.9648Z" fill="#43A862"></path><path d="M47.0463 11.5352H43.6172C42.9851 11.5352 42.4727 12.0467 42.4727 12.6797C42.4727 13.3117 42.9851 13.8233 43.6172 13.8233H47.0463C47.6784 13.8233 48.1908 13.3117 48.1908 12.6797C48.1908 12.0467 47.6784 11.5352 47.0463 11.5352Z" fill="#43A862"></path><path d="M48.4531 29.3008C48.4531 29.9328 48.9656 30.4453 49.5976 30.4453H53.0268C53.658 30.4453 54.1704 29.9328 54.1704 29.3008C54.1704 28.6678 53.658 28.1562 53.0268 28.1562H49.5976C48.9656 28.1562 48.4531 28.6678 48.4531 29.3008Z" fill="#43A862"></path><path d="M31.0463 13.8233C31.6784 13.8233 32.1908 13.3117 32.1908 12.6797C32.1908 12.0467 31.6784 11.5352 31.0463 11.5352H27.6172C26.9851 11.5352 26.4727 12.0467 26.4727 12.6797C26.4727 13.3117 26.9851 13.8233 27.6172 13.8233H31.0463Z" fill="#43A862"></path><path d="M15.0415 13.8233C15.6736 13.8233 16.186 13.3117 16.186 12.6797C16.186 12.0467 15.6736 11.5352 15.0415 11.5352H11.6124C10.9803 11.5352 10.4688 12.0467 10.4688 12.6797C10.4688 13.3117 10.9803 13.8233 11.6124 13.8233H15.0415Z" fill="#43A862"></path><path d="M33.4928 77.9844H31.7764C31.1453 77.9844 30.6328 78.496 30.6328 79.1289C30.6328 79.7609 31.1453 80.2725 31.7764 80.2725H33.4928C34.1248 80.2725 34.6373 79.7609 34.6373 79.1289C34.6373 78.496 34.1248 77.9844 33.4928 77.9844Z" fill="#43A862"></path><path d="M78.1509 0.132812C70.768 0.132812 64.7617 6.13906 64.7617 13.522C64.7617 23.5353 76.81 36.2908 77.3225 36.8285C77.5381 37.0555 77.8375 37.1838 78.1509 37.1838H78.1614C78.4783 37.1804 78.7804 37.0459 78.9943 36.8128C79.5067 36.2541 91.5401 23.0142 91.5401 13.522C91.5401 6.13906 85.5339 0.132812 78.1509 0.132812ZM78.1352 34.3221C75.4149 31.2509 67.0507 21.1861 67.0507 13.522C67.0507 7.40054 72.0295 2.42095 78.1509 2.42095C84.2715 2.42095 89.2511 7.40054 89.2511 13.522C89.2511 20.7767 80.8433 31.1636 78.1352 34.3221Z" fill="#43A862"></path><path d="M78.1535 7.4375C75.1268 7.4375 72.6641 9.90024 72.6641 12.9261C72.6641 15.9519 75.1268 18.4146 78.1535 18.4146C81.1802 18.4146 83.6429 15.9519 83.6429 12.9261C83.6429 9.90024 81.1802 7.4375 78.1535 7.4375ZM78.1535 16.1265C76.3892 16.1265 74.9531 14.6904 74.9531 12.9261C74.9531 11.1617 76.3892 9.72564 78.1535 9.72564C79.9178 9.72564 81.3539 11.1617 81.3539 12.9261C81.3539 14.6904 79.9178 16.1265 78.1535 16.1265Z" fill="#43A862"></path><path d="M13.3892 54.625C6.00625 54.625 0 60.6312 0 68.0142C0 78.0275 12.0483 90.7838 12.5607 91.3207C12.7772 91.5477 13.0767 91.676 13.3892 91.676H13.4006C13.7175 91.6734 14.0186 91.539 14.2325 91.305C14.745 90.7463 26.7776 77.5072 26.7776 68.0142C26.7776 60.6312 20.7713 54.625 13.3892 54.625ZM13.3744 88.8143C10.6541 85.7414 2.28814 75.6713 2.28814 68.0142C2.28814 61.8936 7.26861 56.914 13.3892 56.914C19.5098 56.914 24.4894 61.8936 24.4894 68.0142C24.4894 75.2689 16.0824 85.6567 13.3744 88.8143Z" fill="#43A862"></path><path d="M13.3879 61.9258C10.3603 61.9258 7.89844 64.3885 7.89844 67.4152C7.89844 70.441 10.3603 72.9038 13.3879 72.9038C16.4146 72.9038 18.8764 70.441 18.8764 67.4152C18.8764 64.3885 16.4146 61.9258 13.3879 61.9258ZM13.3879 70.6156C11.6227 70.6156 10.1866 69.1795 10.1866 67.4152C10.1866 65.65 11.6227 64.2148 13.3879 64.2148C15.1522 64.2148 16.5883 65.65 16.5883 67.4152C16.5883 69.1795 15.1522 70.6156 13.3879 70.6156Z" fill="#43A862"></path></g><defs><clipPath id="clip0_9945_2976"><rect width="91.5408" height="91.5408" fill="white"></rect></clipPath></defs></svg>