<svg xmlns="http://www.w3.org/2000/svg" width="92" height="92" viewBox="0 0 92 92" fill="none"><path d="M14.9492 15.6914C15.4682 15.6914 15.9752 15.8517 16.4004 16.1494C16.8253 16.447 17.1487 16.868 17.3262 17.3555V17.3564L19.4238 23.0635V23.0645C19.5332 23.3557 19.7288 23.6069 19.9844 23.7842C20.2401 23.9615 20.5443 24.0563 20.8555 24.0566H26.3428C26.8557 24.0565 27.3565 24.2157 27.7754 24.5117C28.1943 24.8077 28.5114 25.2265 28.6826 25.71C28.8538 26.1935 28.8707 26.7183 28.7314 27.2119C28.6096 27.6437 28.373 28.0331 28.0488 28.3398L27.9043 28.4668L23.7139 31.8633C23.4823 32.0509 23.315 32.307 23.2373 32.5947C23.1596 32.8825 23.1746 33.1881 23.2803 33.4668H23.2812L26.2881 41.334C26.4607 41.7861 26.4816 42.2823 26.3467 42.7471C26.2117 43.2119 25.928 43.6198 25.54 43.9092C25.152 44.1986 24.6803 44.3537 24.1963 44.3506C23.7122 44.3474 23.2426 44.1861 22.8584 43.8916L15.7295 38.4277C15.5055 38.2565 15.2311 38.1641 14.9492 38.1641C14.6673 38.1641 14.3929 38.2565 14.1689 38.4277L7.04102 43.8916C6.73884 44.1211 6.38334 44.2698 6.00781 44.3242C5.63241 44.3786 5.24934 44.3373 4.89453 44.2031C4.34427 43.9922 3.89977 43.5712 3.65918 43.0332C3.41884 42.4955 3.40188 41.8845 3.61133 41.334L6.61816 33.4668C6.72386 33.1881 6.73884 32.8825 6.66113 32.5947C6.58338 32.3071 6.41707 32.0509 6.18555 31.8633L2.05078 28.5117V28.5068L1.99512 28.4609C1.59638 28.1382 1.30728 27.6997 1.16797 27.2061C1.02875 26.7125 1.04562 26.1875 1.2168 25.7041C1.38804 25.2207 1.70522 24.8028 2.12402 24.5068C2.54286 24.2109 3.04284 24.0517 3.55566 24.0518H9.04297C9.35415 24.0512 9.65835 23.9557 9.91406 23.7783C10.1697 23.601 10.365 23.3498 10.4746 23.0586L10.4756 23.0576L12.5723 17.3564L12.5732 17.3555C12.7508 16.8679 13.074 16.447 13.499 16.1494C13.9241 15.8518 14.4303 15.6915 14.9492 15.6914ZM14.8037 18.1826L12.7119 23.8779C12.4346 24.6262 11.9347 25.2718 11.2803 25.7285C10.6258 26.1852 9.84782 26.4314 9.0498 26.4336L3.68945 26.4424L3.25977 26.4434L3.59375 26.7139L7.68164 30.0215C8.30385 30.5233 8.75116 31.2096 8.95898 31.9814C9.16679 32.7534 9.12409 33.5719 8.83789 34.3184L6.21875 41.1768L6.02637 41.6797L6.4541 41.3525L12.7246 36.5459C13.3634 36.0575 14.1451 35.793 14.9492 35.793C15.6531 35.793 16.34 35.9959 16.9287 36.374L17.1748 36.5459L23.4395 41.3486L23.8672 41.6758L23.6748 41.1729L21.0557 34.3145C20.7695 33.5682 20.7269 32.7503 20.9346 31.9785C21.1424 31.2066 21.5897 30.5195 22.2119 30.0176L26.2979 26.71L26.6328 26.4395H20.8506L20.5527 26.4268C19.8602 26.372 19.1927 26.134 18.6201 25.7344C17.9657 25.2777 17.4658 24.6321 17.1885 23.8838H17.1895L15.0898 18.1826L14.9463 17.793L14.8037 18.1826Z" fill="#43A862" stroke="white" stroke-width="0.305136"></path><path d="M76.5898 15.6914C77.1089 15.6914 77.6158 15.8517 78.041 16.1494C78.466 16.447 78.7893 16.868 78.9668 17.3555V17.3564L81.0645 23.0635V23.0645C81.1741 23.3556 81.3703 23.6069 81.626 23.7842C81.8816 23.9613 82.1851 24.056 82.4961 24.0566H88.1201C88.5849 24.0822 89.0344 24.2372 89.416 24.5068C89.8347 24.8028 90.152 25.2208 90.3232 25.7041C90.4944 26.1875 90.5113 26.7125 90.3721 27.2061C90.2502 27.638 90.0137 28.0281 89.6895 28.335L89.5449 28.4609L85.3545 31.8584C85.1229 32.0461 84.9556 32.302 84.8779 32.5898C84.8003 32.8775 84.8154 33.1824 84.9209 33.4609L84.9219 33.4619L87.9287 41.3281C88.1014 41.7803 88.1223 42.2773 87.9873 42.7422C87.8523 43.2069 87.5686 43.6149 87.1807 43.9043C86.7927 44.1936 86.3209 44.3489 85.8369 44.3457C85.3529 44.3425 84.8832 44.1811 84.499 43.8867L77.3701 38.4229C77.1461 38.2516 76.8718 38.1582 76.5898 38.1582C76.308 38.1583 76.0335 38.2516 75.8096 38.4229L68.6816 43.8857C68.3794 44.1154 68.0241 44.2649 67.6484 44.3193C67.2728 44.3738 66.8892 44.3316 66.5342 44.1973H66.5352C65.9849 43.9864 65.5404 43.5663 65.2998 43.0283C65.0593 42.4904 65.0423 41.8789 65.252 41.3281L68.2588 33.4619V33.4609C68.3644 33.1823 68.3794 32.8776 68.3018 32.5898C68.2241 32.3021 68.0578 32.0461 67.8262 31.8584L63.6357 28.4609C63.237 28.1382 62.9479 27.6997 62.8086 27.2061C62.6694 26.7125 62.6862 26.1875 62.8574 25.7041C63.0287 25.2207 63.3458 24.8028 63.7646 24.5068C64.1835 24.2109 64.6835 24.0517 65.1963 24.0518H70.6836C70.9949 24.0514 71.2989 23.9557 71.5547 23.7783C71.8104 23.6009 72.0058 23.35 72.1152 23.0586L72.1162 23.0576L74.2129 17.3564L74.2139 17.3555C74.3914 16.8679 74.7146 16.447 75.1396 16.1494C75.5647 15.8518 76.0709 15.6915 76.5898 15.6914ZM76.4443 18.1826L74.3457 23.8867C74.0683 24.635 73.5685 25.2816 72.9141 25.7383C72.2597 26.1948 71.4815 26.4402 70.6836 26.4424H64.8994L65.2344 26.7139L69.3223 30.0215C69.9445 30.5233 70.3918 31.2096 70.5996 31.9814C70.8074 32.7534 70.7647 33.5719 70.4785 34.3184L67.8594 41.168L67.667 41.6709L68.0947 41.3428L74.3652 36.5371C75.004 36.0487 75.7857 35.7842 76.5898 35.7842C77.2936 35.7842 77.9807 35.9863 78.5693 36.3643L78.8154 36.5371L85.0859 41.3428L85.5127 41.6709L85.3213 41.168L82.7012 34.3096V34.3086C82.4152 33.5623 82.3733 32.7444 82.5811 31.9727C82.7889 31.2007 83.2362 30.5146 83.8584 30.0127L87.9404 26.71L88.2754 26.4395H82.4912L82.1934 26.4268C81.5008 26.372 80.8334 26.134 80.2607 25.7344C79.6063 25.2777 79.1065 24.6321 78.8291 23.8838H78.8301L76.7305 18.1826L76.5869 17.793L76.4443 18.1826Z" fill="#43A862" stroke="white" stroke-width="0.305136"></path><mask id="path-3-inside-1_9945_2926" fill="white"><path d="M56.3182 37.9985L54.2156 33.3499C54.019 32.9137 54.1942 32.3398 54.634 31.9858L58.8231 28.5887C59.2463 28.2462 59.553 27.7809 59.7009 27.2568C59.8487 26.7328 59.8306 26.1758 59.6488 25.6626C59.4671 25.1493 59.1307 24.705 58.686 24.3907C58.2413 24.0765 57.7102 23.9079 57.1657 23.908H51.6696C51.3896 23.9076 51.1164 23.8218 50.8864 23.6621C50.6564 23.5024 50.4805 23.2763 50.3824 23.0141L48.2887 17.3035C48.1005 16.7863 47.7577 16.3397 47.3068 16.024C46.856 15.7084 46.319 15.5391 45.7687 15.5391C45.2183 15.5391 44.6813 15.7084 44.2305 16.024C43.7797 16.3397 43.4369 16.7863 43.2486 17.3035L41.1514 23.0051C41.0532 23.2674 40.8774 23.4934 40.6474 23.6531C40.4174 23.8129 40.1441 23.8987 39.8641 23.8991H34.377C33.8311 23.8972 33.298 24.065 32.8516 24.3794C32.4053 24.6937 32.0676 25.139 31.8854 25.6536C31.7032 26.1683 31.6854 26.7269 31.8345 27.252C31.9837 27.7772 32.2923 28.2431 32.7178 28.5852L36.9069 31.9822C37.1136 32.1496 37.2622 32.378 37.3315 32.6348C37.4009 32.8917 37.3874 33.1638 37.2931 33.4125L34.2876 41.2793C34.1005 41.7626 34.0769 42.2939 34.2202 42.7919C34.3635 43.2899 34.6659 43.7273 35.0813 44.0373C35.4966 44.3472 36.002 44.5126 36.5202 44.5082C37.0385 44.5039 37.541 44.3299 37.951 44.013L45.0812 38.5492C45.2783 38.3984 45.5196 38.3167 45.7678 38.3167C46.0159 38.3167 46.2572 38.3984 46.4543 38.5492L51.0868 42.0982C51.0761 42.2126 51.0707 42.327 51.0707 42.4432V57.0325L47.4716 56.0099C47.0307 55.8857 46.5666 55.8679 46.1175 55.9581C45.6683 56.0482 45.247 56.2437 44.8881 56.5283C44.4015 56.913 44.0072 57.4017 43.734 57.9586C43.4609 58.5154 43.3158 59.1264 43.3094 59.7466V59.8574C43.4213 61.2656 44.0867 62.5719 45.1599 63.4905C49.2166 67.3076 50.082 69.2118 50.7149 70.6117C51.2513 71.7899 51.7537 72.9038 53.597 74.2608C55.1722 75.4176 56.7008 75.9808 58.2724 75.9808H68.0093C69.9202 75.9789 71.7522 75.219 73.1034 73.8678C74.4546 72.5166 75.2145 70.6846 75.2164 68.7737V58.4879C75.2145 56.5777 74.455 54.7462 73.1046 53.3951C71.7542 52.044 69.9231 51.2837 68.0129 51.2808L60.0871 51.2594V42.4486C60.0862 41.381 59.7071 40.3483 59.0172 39.5337C58.3272 38.719 57.371 38.1751 56.3182 37.9985ZM48.0938 36.4251C47.4282 35.9164 46.6136 35.6407 45.7758 35.6407C44.938 35.6407 44.1234 35.9164 43.4578 36.4251L37.1876 41.231L39.8087 34.3726C40.1062 33.5959 40.1499 32.7448 39.9334 31.9417C39.7168 31.1386 39.2513 30.4248 38.6036 29.9029L34.5057 26.5863H39.8695C40.6986 26.5838 41.5071 26.3282 42.187 25.8538C42.8669 25.3793 43.3858 24.7086 43.6741 23.9312L45.7696 18.235L47.8668 23.9366C48.1559 24.7126 48.6748 25.382 49.3543 25.8555C50.0338 26.3289 50.8415 26.5838 51.6696 26.5863H57.0334L52.948 29.8939C51.5552 31.0203 51.0725 32.894 51.7733 34.4459L53.5684 38.4383C53.0316 38.7149 52.5537 39.0932 52.1613 39.5522L48.0938 36.4251ZM68.0236 53.9627C69.2233 53.9641 70.3735 54.4413 71.2218 55.2897C72.0702 56.138 72.5474 57.2882 72.5488 58.4879V68.7845C72.5455 69.9842 72.0665 71.1336 71.2168 71.9806C70.3671 72.8276 69.2162 73.303 68.0165 73.3025H58.2849C57.2926 73.3025 56.3182 72.9217 55.199 72.1028C53.9188 71.1624 53.6524 70.5741 53.1697 69.5086C52.4438 67.8994 51.4497 65.7146 46.9871 61.5184L46.9353 61.4719C46.4052 61.0252 46.0698 60.3898 46.0002 59.7001C46.0113 59.502 46.0624 59.3082 46.1502 59.1303C46.2381 58.9524 46.361 58.7941 46.5115 58.6649C46.6528 58.5594 46.7171 58.5773 46.7458 58.5844L52.0523 60.0934C52.2518 60.1501 52.4618 60.1598 52.6658 60.1216C52.8697 60.0833 53.062 59.9983 53.2275 59.8732C53.3929 59.7481 53.5272 59.5863 53.6195 59.4005C53.7119 59.2147 53.7599 59.01 53.7597 58.8026V42.4486C53.7597 41.4027 54.7252 40.6196 55.5887 40.6196C55.8296 40.6172 56.0685 40.6629 56.2915 40.7539C56.5145 40.845 56.7171 40.9796 56.8874 41.1499C57.0577 41.3203 57.1923 41.5228 57.2834 41.7458C57.3745 41.9688 57.4202 42.2077 57.4178 42.4486V52.5967C57.4175 52.7726 57.4519 52.9468 57.519 53.1093C57.5861 53.2719 57.6845 53.4197 57.8087 53.5442C57.9329 53.6687 58.0804 53.7675 58.2428 53.8351C58.4052 53.9026 58.5793 53.9374 58.7551 53.9377L68.0236 53.9627Z"></path></mask><path d="M56.3182 37.9985L54.2156 33.3499C54.019 32.9137 54.1942 32.3398 54.634 31.9858L58.8231 28.5887C59.2463 28.2462 59.553 27.7809 59.7009 27.2568C59.8487 26.7328 59.8306 26.1758 59.6488 25.6626C59.4671 25.1493 59.1307 24.705 58.686 24.3907C58.2413 24.0765 57.7102 23.9079 57.1657 23.908H51.6696C51.3896 23.9076 51.1164 23.8218 50.8864 23.6621C50.6564 23.5024 50.4805 23.2763 50.3824 23.0141L48.2887 17.3035C48.1005 16.7863 47.7577 16.3397 47.3068 16.024C46.856 15.7084 46.319 15.5391 45.7687 15.5391C45.2183 15.5391 44.6813 15.7084 44.2305 16.024C43.7797 16.3397 43.4369 16.7863 43.2486 17.3035L41.1514 23.0051C41.0532 23.2674 40.8774 23.4934 40.6474 23.6531C40.4174 23.8129 40.1441 23.8987 39.8641 23.8991H34.377C33.8311 23.8972 33.298 24.065 32.8516 24.3794C32.4053 24.6937 32.0676 25.139 31.8854 25.6536C31.7032 26.1683 31.6854 26.7269 31.8345 27.252C31.9837 27.7772 32.2923 28.2431 32.7178 28.5852L36.9069 31.9822C37.1136 32.1496 37.2622 32.378 37.3315 32.6348C37.4009 32.8917 37.3874 33.1638 37.2931 33.4125L34.2876 41.2793C34.1005 41.7626 34.0769 42.2939 34.2202 42.7919C34.3635 43.2899 34.6659 43.7273 35.0813 44.0373C35.4966 44.3472 36.002 44.5126 36.5202 44.5082C37.0385 44.5039 37.541 44.3299 37.951 44.013L45.0812 38.5492C45.2783 38.3984 45.5196 38.3167 45.7678 38.3167C46.0159 38.3167 46.2572 38.3984 46.4543 38.5492L51.0868 42.0982C51.0761 42.2126 51.0707 42.327 51.0707 42.4432V57.0325L47.4716 56.0099C47.0307 55.8857 46.5666 55.8679 46.1175 55.9581C45.6683 56.0482 45.247 56.2437 44.8881 56.5283C44.4015 56.913 44.0072 57.4017 43.734 57.9586C43.4609 58.5154 43.3158 59.1264 43.3094 59.7466V59.8574C43.4213 61.2656 44.0867 62.5719 45.1599 63.4905C49.2166 67.3076 50.082 69.2118 50.7149 70.6117C51.2513 71.7899 51.7537 72.9038 53.597 74.2608C55.1722 75.4176 56.7008 75.9808 58.2724 75.9808H68.0093C69.9202 75.9789 71.7522 75.219 73.1034 73.8678C74.4546 72.5166 75.2145 70.6846 75.2164 68.7737V58.4879C75.2145 56.5777 74.455 54.7462 73.1046 53.3951C71.7542 52.044 69.9231 51.2837 68.0129 51.2808L60.0871 51.2594V42.4486C60.0862 41.381 59.7071 40.3483 59.0172 39.5337C58.3272 38.719 57.371 38.1751 56.3182 37.9985ZM48.0938 36.4251C47.4282 35.9164 46.6136 35.6407 45.7758 35.6407C44.938 35.6407 44.1234 35.9164 43.4578 36.4251L37.1876 41.231L39.8087 34.3726C40.1062 33.5959 40.1499 32.7448 39.9334 31.9417C39.7168 31.1386 39.2513 30.4248 38.6036 29.9029L34.5057 26.5863H39.8695C40.6986 26.5838 41.5071 26.3282 42.187 25.8538C42.8669 25.3793 43.3858 24.7086 43.6741 23.9312L45.7696 18.235L47.8668 23.9366C48.1559 24.7126 48.6748 25.382 49.3543 25.8555C50.0338 26.3289 50.8415 26.5838 51.6696 26.5863H57.0334L52.948 29.8939C51.5552 31.0203 51.0725 32.894 51.7733 34.4459L53.5684 38.4383C53.0316 38.7149 52.5537 39.0932 52.1613 39.5522L48.0938 36.4251ZM68.0236 53.9627C69.2233 53.9641 70.3735 54.4413 71.2218 55.2897C72.0702 56.138 72.5474 57.2882 72.5488 58.4879V68.7845C72.5455 69.9842 72.0665 71.1336 71.2168 71.9806C70.3671 72.8276 69.2162 73.303 68.0165 73.3025H58.2849C57.2926 73.3025 56.3182 72.9217 55.199 72.1028C53.9188 71.1624 53.6524 70.5741 53.1697 69.5086C52.4438 67.8994 51.4497 65.7146 46.9871 61.5184L46.9353 61.4719C46.4052 61.0252 46.0698 60.3898 46.0002 59.7001C46.0113 59.502 46.0624 59.3082 46.1502 59.1303C46.2381 58.9524 46.361 58.7941 46.5115 58.6649C46.6528 58.5594 46.7171 58.5773 46.7458 58.5844L52.0523 60.0934C52.2518 60.1501 52.4618 60.1598 52.6658 60.1216C52.8697 60.0833 53.062 59.9983 53.2275 59.8732C53.3929 59.7481 53.5272 59.5863 53.6195 59.4005C53.7119 59.2147 53.7599 59.01 53.7597 58.8026V42.4486C53.7597 41.4027 54.7252 40.6196 55.5887 40.6196C55.8296 40.6172 56.0685 40.6629 56.2915 40.7539C56.5145 40.845 56.7171 40.9796 56.8874 41.1499C57.0577 41.3203 57.1923 41.5228 57.2834 41.7458C57.3745 41.9688 57.4202 42.2077 57.4178 42.4486V52.5967C57.4175 52.7726 57.4519 52.9468 57.519 53.1093C57.5861 53.2719 57.6845 53.4197 57.8087 53.5442C57.9329 53.6687 58.0804 53.7675 58.2428 53.8351C58.4052 53.9026 58.5793 53.9374 58.7551 53.9377L68.0236 53.9627Z" fill="#43A862" stroke="white" stroke-width="0.610272" mask="url(#path-3-inside-1_9945_2926)"></path></svg>