<svg xmlns="http://www.w3.org/2000/svg" width="92" height="92" viewBox="0 0 92 92" fill="none"><g clip-path="url(#clip0_9945_3042)"><mask id="mask0_9945_3042" style="mask-type:luminance" maskUnits="userSpaceOnUse" x="0" y="0" width="92" height="92"><path d="M0 -0.00171661H91.5408V91.5391H0V-0.00171661Z" fill="white"></path></mask><g mask="url(#mask0_9945_3042)"><path d="M73.3251 26.582H76.731C80.6251 26.582 83.7806 23.4264 83.7806 19.5323V8.39009C83.7806 4.49603 80.6251 1.34038 76.731 1.34038H53.5437C49.6496 1.34038 46.4922 4.49603 46.4922 8.39009V19.5323C46.4922 23.4264 49.6496 26.582 53.5437 26.582H67.9614" stroke="#43A862" stroke-width="2.13595" stroke-miterlimit="10" stroke-linecap="round" stroke-linejoin="round"></path><path d="M63.625 6.88079H66.6521V21.043" stroke="#43A862" stroke-width="2.13595" stroke-miterlimit="10" stroke-linecap="round" stroke-linejoin="round"></path><path d="M57.3637 58.3906H34.1756C30.2815 58.3906 27.125 55.2339 27.125 51.34V40.1985C27.125 36.3046 30.2815 33.1479 34.1756 33.1479H57.3637C61.2576 33.1479 64.4143 36.3046 64.4143 40.1985V51.34C64.4143 55.2339 61.2576 58.3906 57.3637 58.3906Z" stroke="#43A862" stroke-width="2.13595" stroke-miterlimit="10" stroke-linecap="round" stroke-linejoin="round"></path><path d="M49.6588 52.9557C49.6588 52.9557 42.7684 53.0422 42.4421 52.9333C42.1158 52.8246 42.9652 52.25 47.4829 45.7953C48.3266 44.5897 48.791 43.5727 48.9885 42.7206L49.0586 42.1728C49.0586 40.1716 47.4361 38.5491 45.4347 38.5491C43.6736 38.5491 42.2059 39.8053 41.8789 41.4705" stroke="#43A862" stroke-width="2.13595" stroke-miterlimit="10" stroke-linecap="round" stroke-linejoin="round"></path><path d="M67.9978 73.2504C68.3248 71.5851 69.7925 70.3289 71.5536 70.3289C73.555 70.3289 75.1773 71.9513 75.1773 73.9529C75.1773 75.9542 73.555 77.5766 71.5536 77.5766C73.555 77.5766 75.1773 79.1991 75.1773 81.2005C75.1773 83.2019 73.555 84.8242 71.5536 84.8242C69.7237 84.8242 68.2106 83.4679 67.9647 81.7059C67.9418 81.5407 67.9297 81.372 67.9297 81.2005" stroke="#43A862" stroke-width="2.13595" stroke-miterlimit="10" stroke-linecap="round" stroke-linejoin="round"></path><path d="M7.5707 80.0178C10.2794 82.1132 13.6764 83.3594 17.3666 83.3594H39.249C42.2775 83.3594 44.7325 80.9046 44.7325 77.8759C44.7325 76.3615 44.1191 74.9902 43.1268 73.9979C42.1345 73.0056 40.7632 72.3924 39.249 72.3924H19.2868C15.4323 72.3924 12.3069 69.2671 12.3069 65.4124V29.0124C12.3069 24.7125 15.7076 21.1975 19.9591 21.008L19.9682 23.6415C19.9734 26.1339 22.6767 27.6858 24.8311 26.4325L38.7983 18.3225C40.9509 17.0692 40.9455 13.9547 38.7822 12.7139L24.7741 4.67364C22.6143 3.43105 19.9182 4.99726 19.9269 7.4896L19.9325 10.0445C9.64485 10.2501 1.33984 18.6747 1.33984 29.0124V67.3326C1.33984 70.5633 2.29459 73.5706 3.93946 76.0862" stroke="#43A862" stroke-width="2.13595" stroke-miterlimit="10" stroke-linecap="round" stroke-linejoin="round"></path><path d="M83.1488 90.1992H59.9608C56.0667 90.1992 52.9102 87.0427 52.9102 83.1486V72.0073C52.9102 68.1132 56.0667 64.9567 59.9608 64.9567H83.1488C87.0427 64.9567 90.1994 68.1132 90.1994 72.0073V83.1486C90.1994 87.0427 87.0427 90.1992 83.1488 90.1992Z" stroke="#43A862" stroke-width="2.13595" stroke-miterlimit="10" stroke-linecap="round" stroke-linejoin="round"></path></g></g><defs><clipPath id="clip0_9945_3042"><rect width="91.5408" height="91.5408" fill="white"></rect></clipPath></defs></svg>