<?xml version="1.0" encoding="UTF-8"?>
<svg xmlns="http://www.w3.org/2000/svg" width="150" height="150" viewBox="0 0 150 150" fill="none">
  <path d="M39.8952 22.9729V14.7835C39.8952 10.8341 38.3572 7.12166 35.5648 4.3293C32.7724 1.53809 29.0611 0 25.1118 0C16.9613 0 10.3317 6.63185 10.3317 14.7835V22.998C6.31485 26.8753 3.80859 32.309 3.80859 38.3205C3.80859 44.3321 6.31485 49.7646 10.3317 53.6419V81.6845C10.3317 82.9147 11.3285 83.9115 12.5587 83.9115C13.7901 83.9115 14.7869 82.9147 14.7869 81.6845V56.9481C17.8482 58.6521 21.3673 59.626 25.1118 59.626C26.9085 59.626 28.6938 59.4017 30.4218 58.9588C32.2048 58.5011 33.8848 57.8247 35.4401 56.9653V135.217C35.4401 140.911 30.8064 145.545 25.1118 145.545C19.4183 145.545 14.7869 140.911 14.7869 135.217V89.1106C14.7869 87.8803 13.7901 86.8824 12.5587 86.8824C11.3285 86.8824 10.3317 87.8803 10.3317 89.1106V135.217C10.3317 143.368 16.9613 150 25.1118 150C33.2634 150 39.8952 143.368 39.8952 135.217V53.6682C43.9568 49.7509 46.4172 44.2703 46.4172 38.3205C46.4172 32.3708 43.9568 26.8902 39.8952 22.9729ZM14.7869 14.7835C14.7869 9.0889 19.4183 4.45518 25.1118 4.45518C27.8709 4.45518 30.4642 5.52979 32.4142 7.47986C34.3655 9.43108 35.4401 12.0243 35.4401 14.7835V19.6758C33.8848 18.8152 32.2037 18.1389 30.4207 17.6811C28.6949 17.2394 26.9085 17.0139 25.1118 17.0139C21.3673 17.0139 17.8482 17.989 14.7869 19.693V14.7835ZM29.314 54.6432C27.9488 54.9934 26.5354 55.1708 25.1118 55.1708C15.8215 55.1708 8.26378 47.612 8.26378 38.3205C8.26378 29.0291 15.8215 21.4703 25.1118 21.4703C26.5354 21.4703 27.9499 21.6476 29.3129 21.9967C36.7607 23.909 41.9621 30.6221 41.9621 38.3205C41.9621 46.019 36.7607 52.7321 29.314 54.6432Z" fill="#43A862"></path>
  <path d="M89.7925 83.7776V62.677C89.7925 61.4468 88.7958 60.4488 87.5655 60.4488C86.3341 60.4488 85.3374 61.4468 85.3374 62.677V80.4806C83.7832 79.62 82.1021 78.9436 80.3191 78.4859C78.5934 78.043 76.8069 77.8187 75.0102 77.8187C71.2657 77.8187 67.7455 78.7937 64.6853 80.4977V14.7835C64.6853 9.0889 69.3179 4.45518 75.0125 4.45518C77.7728 4.45518 80.3649 5.52864 82.3127 7.47986C84.2639 9.43108 85.3374 12.0243 85.3374 14.7835V55.2509C85.3374 56.4812 86.3353 57.478 87.5655 57.478C88.7958 57.478 89.7937 56.4812 89.7937 55.2509V14.7835C89.7937 10.8341 88.2556 7.12166 85.4644 4.33044C82.6755 1.53809 78.963 0 75.0125 0C66.8609 0 60.229 6.63185 60.229 14.7835V83.8039C56.2121 87.6812 53.707 93.1149 53.707 99.1253C53.707 105.136 56.2121 110.569 60.229 114.447V135.217C60.229 143.368 66.8609 150 75.0125 150C83.163 150 89.7925 143.368 89.7925 135.217V114.473C93.8552 110.557 96.3168 105.075 96.3168 99.1253C96.3168 93.1755 93.8552 87.6949 89.7925 83.7776ZM85.3374 135.217C85.3374 140.911 80.7059 145.545 75.0125 145.545C69.3179 145.545 64.6842 140.911 64.6842 135.217V117.753C67.7455 119.457 71.2657 120.431 75.0102 120.431C76.8069 120.431 78.5934 120.208 80.3191 119.765C82.1021 119.307 83.7832 118.631 85.3374 117.77V135.217ZM79.2125 115.449C77.8483 115.798 76.4339 115.976 75.0102 115.976C65.721 115.976 58.1634 108.417 58.1634 99.1253C58.1634 89.8338 65.721 82.275 75.0102 82.275C76.4339 82.275 77.8483 82.4524 79.2113 82.8026C86.6591 84.7149 91.8616 91.4268 91.8616 99.1253C91.8605 106.824 86.6591 113.537 79.2125 115.449Z" fill="#43A862"></path>
  <path d="M146.214 57.7709C146.214 51.8211 143.754 46.3394 139.691 42.4221V14.7835C139.691 10.8341 138.153 7.12166 135.361 4.3293C132.568 1.53809 128.857 0 124.911 0C116.759 0 110.127 6.63185 110.127 14.7835V42.4496C106.111 46.3268 103.605 51.7605 103.605 57.7709C103.605 63.7814 106.111 69.215 110.127 73.0923V135.217C110.127 143.368 116.758 150 124.911 150C133.06 150 139.691 143.368 139.691 135.217V73.1197C143.754 69.2024 146.214 63.7207 146.214 57.7709ZM114.583 14.7835C114.583 9.0889 119.216 4.45518 124.911 4.45518C127.668 4.45518 130.261 5.52979 132.211 7.47986C134.161 9.43108 135.236 12.0243 135.236 14.7835V39.1262C133.682 38.2656 132.001 37.5904 130.218 37.1326C128.491 36.6898 126.705 36.4655 124.909 36.4655C121.164 36.4655 117.644 37.4405 114.583 39.1445V14.7835ZM108.061 57.7709C108.061 48.4795 115.618 40.9206 124.909 40.9206C126.332 40.9206 127.746 41.098 129.111 41.4471C136.558 43.3594 141.759 50.0725 141.759 57.7709C141.759 65.4694 136.558 72.1825 129.111 74.0948C127.747 74.4438 126.333 74.6212 124.909 74.6212C115.618 74.6212 108.061 67.0624 108.061 57.7709ZM135.236 135.217C135.236 140.911 130.603 145.545 124.911 145.545C119.215 145.545 114.583 140.911 114.583 135.217V76.3985C117.644 78.1025 121.164 79.0775 124.909 79.0775C126.705 79.0775 128.492 78.8532 130.218 78.4103C132.001 77.9526 133.682 77.2762 135.236 76.4168V135.217Z" fill="#43A862"></path>
</svg>
