<?xml version="1.0" encoding="UTF-8"?>
<svg xmlns="http://www.w3.org/2000/svg" width="150" height="150" viewBox="0 0 150 150" fill="none">
  <g clip-path="url(#clip0_1249_478)">
    <path d="M5.54502 91.0286L15.9747 92.9036C17.1466 96.7697 18.6971 100.511 20.6036 104.072L14.5541 112.778C13.6512 114.075 13.2334 115.649 13.3738 117.223C13.5142 118.797 14.204 120.272 15.3223 121.388L28.6113 134.678C29.7282 135.796 31.2028 136.486 32.7771 136.626C34.3513 136.767 35.9248 136.349 37.222 135.446L45.9264 129.396C49.4881 131.302 53.2291 132.853 57.0952 134.025L58.9702 144.454C59.249 146.01 60.0664 147.419 61.2791 148.432C62.4918 149.446 64.0226 150.001 65.6033 150H84.3967C85.9772 150.001 87.5077 149.446 88.7202 148.432C89.9327 147.418 90.75 146.01 91.0289 144.455L92.9039 134.025C96.7699 132.853 100.511 131.303 104.072 129.396L112.777 135.446C114.074 136.349 115.648 136.767 117.223 136.627C118.797 136.486 120.272 135.796 121.389 134.678L134.678 121.388C135.796 120.272 136.486 118.797 136.626 117.223C136.767 115.649 136.349 114.075 135.446 112.778L129.396 104.074C131.302 100.512 132.853 96.7708 134.025 92.9048L144.455 91.0298C146.011 90.751 147.419 89.9337 148.433 88.7209C149.447 87.5082 150.001 85.9774 150 84.3967V65.6033C150.001 64.0229 149.446 62.4924 148.432 61.2799C147.419 60.0674 146.011 59.2502 144.455 58.9714L134.025 57.0964C132.854 53.2302 131.303 49.4891 129.396 45.9275L135.446 37.2231C136.349 35.926 136.767 34.3526 136.626 32.7784C136.486 31.2042 135.796 29.7296 134.678 28.6128L121.389 15.3223C120.272 14.2039 118.797 13.5141 117.223 13.3736C115.649 13.2331 114.075 13.6509 112.778 14.5538L104.073 20.6042C100.512 18.6977 96.7708 17.1472 92.9048 15.9753L91.0298 5.54561C90.751 3.98968 89.9336 2.58144 88.7209 1.56754C87.5082 0.553649 85.9774 -0.00126123 84.3967 2.15252e-06H65.6033C64.0228 -0.00100953 62.4923 0.553974 61.2798 1.56778C60.0673 2.58159 59.25 3.98961 58.9711 5.54531L57.0961 15.975C53.2301 17.1469 49.4891 18.6974 45.9275 20.6039L37.222 14.5541C35.9248 13.6512 34.3513 13.2333 32.7771 13.3738C31.2028 13.5142 29.7282 14.204 28.6113 15.3223L15.3223 28.6116C14.204 29.7285 13.5143 31.2031 13.3739 32.7772C13.2334 34.3514 13.6512 35.9248 14.5541 37.222L20.6039 45.9264C18.6975 49.4881 17.147 53.2291 15.975 57.0952L5.54532 58.9702C3.98939 59.249 2.58115 60.0663 1.56729 61.2791C0.553439 62.4918 -0.00138828 64.0226 2.60877e-06 65.6033V84.3967C-0.00112534 85.9771 0.553786 87.5076 1.56756 88.7201C2.58133 89.9326 3.98934 90.7498 5.54502 91.0286ZM63.5848 143.625L61.4514 131.765C61.3732 131.33 61.1739 130.927 60.8764 130.601C60.579 130.274 60.1955 130.039 59.77 129.921C55.2913 128.681 50.9822 126.894 46.9395 124.602C46.5553 124.384 46.1173 124.28 45.6761 124.3C45.2349 124.32 44.8084 124.464 44.4457 124.717L34.5469 131.597C34.1538 131.877 33.6738 132.007 33.1933 131.964C32.7128 131.921 32.2635 131.707 31.9263 131.363L18.6369 118.074C18.2921 117.736 18.079 117.287 18.0361 116.807C17.9931 116.326 18.1231 115.846 18.4025 115.453L25.2832 105.554C25.5352 105.192 25.6796 104.765 25.6997 104.324C25.7199 103.883 25.615 103.445 25.3972 103.061C23.1054 99.0181 21.3192 94.709 20.0786 90.2306C19.9609 89.805 19.7253 89.4214 19.3991 89.1239C19.0728 88.8264 18.6692 88.6271 18.2347 88.5489L6.375 86.4152C5.89934 86.335 5.46795 86.0876 5.15856 85.7175C4.84917 85.3474 4.68212 84.879 4.6875 84.3967V77.3438H28.805C29.4266 77.3438 30.0227 77.0968 30.4623 76.6573C30.9018 76.2177 31.1487 75.6216 31.1487 75C31.1487 72.2855 32.227 69.6823 34.1465 67.7629C36.0659 65.8435 38.6691 64.7651 41.3836 64.7651C44.0981 64.7651 46.7013 65.8435 48.6207 67.7629C50.5401 69.6823 51.6185 72.2855 51.6185 75C51.6185 75.6216 51.8654 76.2177 52.3049 76.6573C52.7445 77.0968 53.3406 77.3438 53.9622 77.3438H72.6563V93.8777C69.1487 94.4357 65.955 96.2263 63.6493 98.9278C61.3436 101.629 60.0769 105.065 60.0769 108.616C60.0769 112.168 61.3436 115.603 63.6493 118.305C65.955 121.006 69.1487 122.797 72.6563 123.355V145.312H65.6033C65.121 145.318 64.6526 145.151 64.2825 144.841C63.9124 144.532 63.665 144.101 63.5848 143.625ZM143.624 86.4152L131.764 88.5489C131.329 88.6271 130.926 88.8263 130.6 89.1238C130.273 89.4213 130.038 89.8048 129.92 90.2303C128.68 94.7087 126.894 99.0177 124.603 103.061C124.385 103.445 124.28 103.883 124.3 104.324C124.32 104.765 124.464 105.192 124.717 105.554L131.597 115.453C131.876 115.846 132.006 116.326 131.963 116.807C131.92 117.287 131.707 117.736 131.363 118.074L118.073 131.363C117.736 131.708 117.287 131.921 116.806 131.964C116.326 132.007 115.846 131.877 115.453 131.597L105.554 124.717C105.192 124.465 104.765 124.32 104.324 124.3C103.883 124.28 103.445 124.385 103.061 124.603C99.0177 126.895 94.708 128.681 90.2288 129.921C89.8033 130.039 89.4197 130.274 89.1222 130.601C88.8246 130.927 88.6253 131.33 88.5472 131.765L86.4141 143.625C86.3338 144.1 86.0865 144.532 85.7167 144.841C85.3469 145.15 84.8788 145.317 84.3967 145.312H77.3438V121.195C77.3438 120.573 77.0968 119.977 76.6573 119.537C76.2177 119.098 75.6216 118.851 75 118.851C72.2855 118.851 69.6823 117.773 67.7629 115.853C65.8435 113.934 64.7651 111.331 64.7651 108.616C64.7651 105.902 65.8435 103.298 67.7629 101.379C69.6823 99.4596 72.2855 98.3813 75 98.3813C75.6216 98.3813 76.2177 98.1343 76.6573 97.6948C77.0968 97.2552 77.3438 96.6591 77.3438 96.0375V77.3438H93.8777C94.4357 80.8513 96.2263 84.045 98.9278 86.3507C101.629 88.6564 105.065 89.9231 108.616 89.9231C112.168 89.9231 115.603 88.6564 118.305 86.3507C121.006 84.045 122.797 80.8513 123.355 77.3438H145.312V84.3967C145.318 84.879 145.151 85.3474 144.841 85.7175C144.532 86.0876 144.101 86.335 143.625 86.4152H143.624ZM86.4152 6.375L88.5486 18.2353C88.6268 18.6697 88.8262 19.0733 89.1237 19.3995C89.4212 19.7257 89.8048 19.9612 90.2303 20.0789C94.7094 21.3192 99.0191 23.1056 103.062 25.3978C103.446 25.6156 103.884 25.7204 104.326 25.7002C104.767 25.68 105.193 25.5355 105.556 25.2835L115.453 18.4031C115.846 18.1235 116.326 17.9934 116.807 18.0364C117.287 18.0793 117.737 18.2925 118.074 18.6375L131.363 31.9269C131.708 32.2641 131.921 32.7134 131.964 33.1938C132.007 33.6741 131.877 34.1541 131.597 34.5472L124.717 44.4457C124.465 44.8084 124.32 45.2348 124.3 45.676C124.28 46.1171 124.385 46.555 124.603 46.9392C126.895 50.9819 128.681 55.2909 129.921 59.7694C130.039 60.195 130.275 60.5786 130.601 60.8761C130.927 61.1736 131.331 61.3729 131.765 61.4511L143.625 63.5848C144.101 63.6649 144.532 63.9123 144.842 64.2824C145.151 64.6525 145.318 65.1209 145.313 65.6033V72.6562H121.195C120.573 72.6562 119.977 72.9032 119.538 73.3427C119.098 73.7823 118.851 74.3784 118.851 75C118.858 76.3487 118.599 77.6855 118.088 78.9336C117.577 80.1817 116.824 81.3165 115.873 82.2727C114.922 83.229 113.791 83.9878 112.546 84.5056C111.3 85.0234 109.965 85.2899 108.616 85.2899C107.268 85.2899 105.932 85.0234 104.687 84.5056C103.441 83.9878 102.311 83.229 101.36 82.2727C100.408 81.3165 99.6557 80.1817 99.1446 78.9336C98.6334 77.6855 98.374 76.3487 98.3813 75C98.3813 74.3784 98.1343 73.7823 97.6948 73.3427C97.2552 72.9032 96.6591 72.6562 96.0375 72.6562H77.3438V56.1223C80.8513 55.5643 84.045 53.7737 86.3507 51.0722C88.6564 48.3707 89.9231 44.9354 89.9231 41.3837C89.9231 37.832 88.6564 34.3968 86.3507 31.6953C84.045 28.9938 80.8513 27.2032 77.3438 26.6452V4.6875H84.3967C84.879 4.68212 85.3474 4.84917 85.7175 5.15856C86.0876 5.46795 86.335 5.89934 86.4152 6.375ZM6.375 63.5848L18.235 61.4511C18.6695 61.3729 19.0731 61.1737 19.3993 60.8762C19.7255 60.5787 19.9611 60.1952 20.0789 59.7697C21.3195 55.2912 23.1057 50.9822 25.3975 46.9395C25.6154 46.5553 25.7203 46.1174 25.7001 45.6761C25.68 45.2349 25.5355 44.8084 25.2835 44.4457L18.4031 34.5466C18.1237 34.1535 17.9937 33.6736 18.0367 33.1932C18.0796 32.7128 18.2927 32.2635 18.6375 31.9263L31.9269 18.6369C32.2641 18.292 32.7134 18.0788 33.1939 18.0359C33.6744 17.9929 34.1544 18.1229 34.5475 18.4025L44.4457 25.2832C44.8083 25.5352 45.2348 25.6797 45.676 25.6999C46.1171 25.7201 46.555 25.6153 46.9392 25.3975C50.9823 23.1053 55.292 21.3189 59.7712 20.0786C60.1967 19.9609 60.5803 19.7254 60.8778 19.3992C61.1753 19.073 61.3746 18.6695 61.4528 18.235L63.5859 6.375C63.6662 5.89959 63.9135 5.46843 64.2833 5.15908C64.6531 4.84974 65.1212 4.68252 65.6033 4.6875H72.6563V28.8053C72.6563 29.4269 72.9032 30.023 73.3427 30.4626C73.7823 30.9021 74.3784 31.149 75 31.149C77.7145 31.149 80.3177 32.2273 82.2371 34.1467C84.1566 36.0662 85.2349 38.6694 85.2349 41.3839C85.2349 44.0983 84.1566 46.7016 82.2371 48.621C80.3177 50.5404 77.7145 51.6188 75 51.6188C74.3784 51.6188 73.7823 51.8657 73.3427 52.3052C72.9032 52.7448 72.6563 53.3409 72.6563 53.9625V72.6562H56.122C55.5638 69.1488 53.7731 65.9555 51.0717 63.6499C48.3702 61.3444 44.9351 60.0778 41.3836 60.0778C37.8321 60.0778 34.3969 61.3444 31.6955 63.6499C28.994 65.9555 27.2034 69.1488 26.6452 72.6562H4.6875V65.6033C4.68212 65.121 4.84917 64.6526 5.15856 64.2825C5.46795 63.9124 5.89934 63.665 6.375 63.5848Z" fill="#43A862"></path>
  </g>
  <defs>
    <clipPath id="clip0_1249_478">
      <rect width="150" height="150" fill="white"></rect>
    </clipPath>
  </defs>
</svg>
