<?xml version="1.0" encoding="UTF-8"?>
<svg xmlns="http://www.w3.org/2000/svg" width="150" height="150" viewBox="0 0 150 150" fill="none">
  <path fill-rule="evenodd" clip-rule="evenodd" d="M125.261 93.868C127.792 93.1923 128.819 97.0362 126.289 97.713L113.573 101.12C111.043 101.797 110.014 97.9523 112.545 97.2752L125.261 93.868ZM105.797 92.4539L122.586 75.6645C124.441 73.81 121.623 70.9925 119.769 72.8469L102.979 89.6363C101.125 91.4909 103.942 94.3085 105.797 92.4539ZM23.7114 97.713C21.1803 97.0373 22.2081 93.1912 24.7388 93.868L37.4546 97.2752C39.986 97.9523 38.9572 101.797 36.4271 101.12L23.7114 97.713ZM47.0207 89.6363L30.2313 72.8469C28.3767 70.9925 25.5592 73.8099 27.4138 75.6645L44.2032 92.4539C46.0577 94.3085 48.8753 91.491 47.0207 89.6363ZM43.3401 110.668C34.2643 111.681 27.2053 119.054 26.477 128.074C15.974 124.233 4.6875 131.998 4.6875 143.318C4.6875 144.418 5.5798 145.31 6.68027 145.31H143.32C144.42 145.31 145.312 144.418 145.312 143.318C145.312 131.981 133.996 124.231 123.523 128.074C122.794 119.054 115.735 111.681 106.66 110.668C106.132 99.2239 91.8798 94.2369 84.3062 102.812C78.4765 99.8322 71.5235 99.8322 65.6938 102.812C58.1194 94.2362 43.8683 99.2253 43.3401 110.668ZM47.3344 110.631C47.8609 103.254 56.9077 99.6815 62.2954 104.996C59.4647 107.231 57.2326 110.222 55.9009 113.642C53.3446 111.971 50.4057 110.93 47.3344 110.631ZM87.705 104.996C92.9684 99.8047 102.128 103.083 102.666 110.631C99.5943 110.93 96.6558 111.97 94.0992 113.642C92.7694 110.227 90.5329 107.226 87.705 104.996ZM61.2668 65.5874C60.6788 63.8461 60.1627 62.0386 59.7253 60.1736C54.7953 62.4626 51.6282 67.0701 50.245 72.225C49.6697 74.4013 46.87 73.9996 46.398 72.2324C42.8612 59.0302 46.2763 49.1366 58.0852 41.915C58.7028 28.7803 63.4557 13.943 73.7036 5.16873C74.4657 4.51649 75.5796 4.54198 76.3102 5.1883C86.5413 13.9641 91.2874 28.7847 91.9061 41.9093C103.721 49.1303 107.14 59.0247 103.602 72.2324C103.076 74.2051 100.272 74.1768 99.7554 72.225C98.3711 67.0664 95.2013 62.4582 90.267 60.1699C89.8292 62.0362 89.3128 63.8452 88.7244 65.5874C88.4968 66.4374 87.7211 67.0634 86.7995 67.0634H63.1917C62.2701 67.0634 61.4945 66.4374 61.2668 65.5874ZM58.9262 56.1901C58.41 53.0343 58.1028 49.9046 58.028 46.7061C51.6819 51.2521 48.5729 56.9214 49.1089 64.7347C51.3841 60.9601 54.8186 57.8443 58.9262 56.1901ZM62.7697 55.0822C63.2128 57.8553 63.841 60.5303 64.6338 63.0778H85.3575C88.5637 52.7748 88.826 40.9748 86.2851 30.536C78.9439 28.1401 71.074 28.1962 63.7162 30.495C61.8055 38.3208 61.4757 46.9939 62.7697 55.0822ZM65.015 26.0038C71.5585 24.3843 78.448 24.358 84.9843 26.0274C82.9327 19.9136 79.6576 13.8714 74.9957 9.36539C70.3397 13.8657 67.0666 19.8988 65.015 26.0038ZM91.9636 46.6997C91.8889 49.9001 91.5816 53.0289 91.0658 56.1867C95.1771 57.8396 98.6146 60.9573 100.891 64.7347C101.428 56.917 98.3147 51.2457 91.9636 46.6997ZM74.9957 87.7249L80.9614 73.7823H69.0298L74.9957 87.7249ZM76.8247 93.5563C76.1472 95.1466 73.8575 95.1806 73.1666 93.5563L64.2447 72.7051C63.5672 71.3982 64.509 69.7969 66.0149 69.7969L83.9763 69.8015C85.3814 69.7998 86.3661 71.25 85.8053 72.568L76.8247 93.5563ZM74.9957 33.9015C71.501 33.9015 68.6661 36.7365 68.6661 40.2311C68.6661 43.7257 71.501 46.5608 74.9957 46.5608C78.4904 46.5608 81.3253 43.7257 81.3253 40.2311C81.3253 36.7365 78.4903 33.9015 74.9957 33.9015ZM74.9957 37.8871C71.9091 37.8871 71.9091 42.5752 74.9957 42.5752C78.0823 42.5752 78.0822 37.8871 74.9957 37.8871ZM8.83438 141.325H141.166C139.744 132.646 129.887 128.34 122.572 132.945C121.192 133.814 119.363 132.737 119.541 131.032C120.951 117.554 104.617 109.151 94.375 118.428C93.2468 119.45 91.4408 118.866 91.1082 117.393C88.4568 105.643 74.2499 100.551 64.7114 108.156C57.7308 113.721 60.1789 119.717 56.5206 118.895C55.1703 118.592 51.7355 113.857 44.0226 114.59C35.7198 115.379 29.6775 122.801 30.4637 131.077C30.6197 132.72 28.8145 133.816 27.4286 132.945C20.1078 128.34 10.2555 132.649 8.83438 141.325Z" fill="#43A862"></path>
</svg>
