<?xml version="1.0" encoding="UTF-8"?>
<svg xmlns="http://www.w3.org/2000/svg" width="150" height="150" viewBox="0 0 150 150" fill="none">
  <g clip-path="url(#clip0_1249_526)">
    <path d="M62.5 100C59.8478 100 57.3043 101.054 55.4289 102.929C53.5536 104.804 52.5 107.348 52.5 110V140C52.5 142.652 53.5536 145.196 55.4289 147.071C57.3043 148.946 59.8478 150 62.5 150H87.5C90.1522 150 92.6957 148.946 94.5711 147.071C96.4464 145.196 97.5 142.652 97.5 140V110C97.5 107.348 96.4464 104.804 94.5711 102.929C92.6957 101.054 90.1522 100 87.5 100H62.5ZM92.5 110V140C92.5 141.326 91.9732 142.598 91.0355 143.536C90.0979 144.473 88.8261 145 87.5 145H62.5C61.1739 145 59.9021 144.473 58.9645 143.536C58.0268 142.598 57.5 141.326 57.5 140V110C57.5 108.674 58.0268 107.402 58.9645 106.464C59.9021 105.527 61.1739 105 62.5 105H87.5C88.8261 105 90.0979 105.527 91.0355 106.464C91.9732 107.402 92.5 108.674 92.5 110Z" fill="#43A862"></path>
    <path d="M62.5 50H87.5C90.1522 50 92.6957 48.9464 94.5711 47.0711C96.4464 45.1957 97.5 42.6522 97.5 40V10C97.5 7.34784 96.4464 4.8043 94.5711 2.92893C92.6957 1.05357 90.1522 0 87.5 0L62.5 0C59.8478 0 57.3043 1.05357 55.4289 2.92893C53.5536 4.8043 52.5 7.34784 52.5 10V40C52.5 42.6522 53.5536 45.1957 55.4289 47.0711C57.3043 48.9464 59.8478 50 62.5 50ZM57.5 10C57.5 8.67392 58.0268 7.40215 58.9645 6.46447C59.9021 5.52678 61.1739 5 62.5 5H87.5C88.8261 5 90.0979 5.52678 91.0355 6.46447C91.9732 7.40215 92.5 8.67392 92.5 10V40C92.5 41.3261 91.9732 42.5979 91.0355 43.5355C90.0979 44.4732 88.8261 45 87.5 45H62.5C61.1739 45 59.9021 44.4732 58.9645 43.5355C58.0268 42.5979 57.5 41.3261 57.5 40V10Z" fill="#43A862"></path>
    <path d="M10 150H35C37.6522 150 40.1957 148.946 42.0711 147.071C43.9464 145.196 45 142.652 45 140V110C45 107.348 43.9464 104.804 42.0711 102.929C40.1957 101.054 37.6522 100 35 100H10C7.34784 100 4.8043 101.054 2.92893 102.929C1.05357 104.804 0 107.348 0 110L0 140C0 142.652 1.05357 145.196 2.92893 147.071C4.8043 148.946 7.34784 150 10 150ZM5 110C5 108.674 5.52678 107.402 6.46447 106.464C7.40215 105.527 8.67392 105 10 105H35C36.3261 105 37.5979 105.527 38.5355 106.464C39.4732 107.402 40 108.674 40 110V140C40 141.326 39.4732 142.598 38.5355 143.536C37.5979 144.473 36.3261 145 35 145H10C8.67392 145 7.40215 144.473 6.46447 143.536C5.52678 142.598 5 141.326 5 140V110Z" fill="#43A862"></path>
    <path d="M105 110V140C105 142.652 106.054 145.196 107.929 147.071C109.804 148.946 112.348 150 115 150H140C142.652 150 145.196 148.946 147.071 147.071C148.946 145.196 150 142.652 150 140V110C150 107.348 148.946 104.804 147.071 102.929C145.196 101.054 142.652 100 140 100H115C112.348 100 109.804 101.054 107.929 102.929C106.054 104.804 105 107.348 105 110ZM145 110V140C145 141.326 144.473 142.598 143.536 143.536C142.598 144.473 141.326 145 140 145H115C113.674 145 112.402 144.473 111.464 143.536C110.527 142.598 110 141.326 110 140V110C110 108.674 110.527 107.402 111.464 106.464C112.402 105.527 113.674 105 115 105H140C141.326 105 142.598 105.527 143.536 106.464C144.473 107.402 145 108.674 145 110Z" fill="#43A862"></path>
    <path d="M22.5 95C23.163 95 23.7989 94.7366 24.2678 94.2678C24.7366 93.7989 25 93.163 25 92.5V87.5C25 84.8478 26.0536 82.3043 27.9289 80.4289C29.8043 78.5536 32.3478 77.5 35 77.5H72.5V92.5C72.5 93.163 72.7634 93.7989 73.2322 94.2678C73.7011 94.7366 74.337 95 75 95C75.663 95 76.2989 94.7366 76.7678 94.2678C77.2366 93.7989 77.5 93.163 77.5 92.5V77.5H115C117.652 77.5 120.196 78.5536 122.071 80.4289C123.946 82.3043 125 84.8478 125 87.5V92.5C125 93.163 125.263 93.7989 125.732 94.2678C126.201 94.7366 126.837 95 127.5 95C128.163 95 128.799 94.7366 129.268 94.2678C129.737 93.7989 130 93.163 130 92.5V87.5C129.996 83.523 128.414 79.71 125.602 76.8978C122.79 74.0856 118.977 72.504 115 72.5H77.5V57.5C77.5 56.837 77.2366 56.2011 76.7678 55.7322C76.2989 55.2634 75.663 55 75 55C74.337 55 73.7011 55.2634 73.2322 55.7322C72.7634 56.2011 72.5 56.837 72.5 57.5V72.5H35C31.023 72.504 27.21 74.0856 24.3978 76.8978C21.5856 79.71 20.004 83.523 20 87.5V92.5C20 93.163 20.2634 93.7989 20.7322 94.2678C21.2011 94.7366 21.837 95 22.5 95Z" fill="#43A862"></path>
  </g>
  <defs>
    <clipPath id="clip0_1249_526">
      <rect width="150" height="150" fill="white"></rect>
    </clipPath>
  </defs>
</svg>
