<?xml version="1.0" encoding="UTF-8"?>
<svg xmlns="http://www.w3.org/2000/svg" width="180" height="123" viewBox="0 0 180 123" fill="none">
  <mask id="path-1-inside-1_1249_414" fill="white">
    <path d="M168.56 2.31817C168.496 1.95548 168.361 1.60888 168.164 1.29821C167.966 0.987531 167.709 0.71887 167.408 0.507583C167.106 0.296297 166.766 0.146531 166.406 0.0668545C166.047 -0.012822 165.675 -0.0208482 165.312 0.0432353L151.523 2.47227C151.16 2.53586 150.813 2.67043 150.502 2.86827C150.191 3.06612 149.922 3.32336 149.711 3.62524C149.5 3.92713 149.35 4.26774 149.271 4.62756C149.191 4.98739 149.183 5.35936 149.248 5.72218L149.847 9.11497L142.003 10.485L110.386 5.64933C105.756 4.95193 101.023 5.55225 96.7141 7.38355L89.6539 10.3925L82.6134 7.39196C78.2974 5.55268 73.5538 4.95404 68.9161 5.66334L37.2855 10.4962L29.4633 9.11777L30.0601 5.72218C30.1246 5.35936 30.1169 4.98739 30.0374 4.62756C29.9579 4.26774 29.8082 3.92713 29.5969 3.62524C29.3856 3.32336 29.1168 3.06612 28.8059 2.86827C28.495 2.67043 28.1481 2.53586 27.7852 2.47227L14.0095 0.0432353C13.6466 -0.0212532 13.2747 -0.0135342 12.9148 0.0659515C12.555 0.145437 12.2144 0.295129 11.9125 0.50645C11.6106 0.717771 11.3534 0.98657 11.1555 1.29745C10.9577 1.60834 10.8231 1.9552 10.7595 2.31817L0.043235 63.0103C-0.0212534 63.3731 -0.0135338 63.7451 0.0659518 64.1049C0.145437 64.4647 0.295127 64.8053 0.506449 65.1072C0.71777 65.4091 0.98657 65.6663 1.29745 65.8642C1.60834 66.062 1.9552 66.1966 2.31817 66.2602L16.1107 68.6892C16.4733 68.7533 16.845 68.7453 17.2045 68.6656C17.564 68.5859 17.9043 68.4362 18.2058 68.2249C18.5074 68.0136 18.7644 67.7449 18.962 67.4342C19.1597 67.1236 19.2942 66.777 19.3578 66.4143L19.6127 64.9098L21.9269 65.3188C24.0599 70.0169 27.163 74.2104 31.0323 77.6237C30.884 80.1534 31.6042 82.6578 33.0736 84.7224C34.543 86.7869 36.6735 88.2876 39.1122 88.976C37.8015 91.1528 37.2743 93.7123 37.6179 96.23C37.9615 98.7477 39.1553 101.072 41.0015 102.818C42.8476 104.564 45.235 105.627 47.7679 105.83C50.3008 106.033 52.827 105.364 54.9275 103.934C55.2061 105.794 55.9536 107.553 57.0996 109.045C58.2457 110.537 59.7525 111.712 61.4783 112.461C63.2041 113.209 65.092 113.506 66.9642 113.324C68.8364 113.141 70.6314 112.485 72.1801 111.417C72.4422 113.133 73.1037 114.763 74.1113 116.177C75.1188 117.59 76.4443 118.747 77.9809 119.555C79.5174 120.362 81.2222 120.797 82.9577 120.825C84.6933 120.853 86.4112 120.473 87.973 119.716V119.732L89.0936 120.478C90.3209 121.29 91.6963 121.853 93.1412 122.134C94.586 122.415 96.0721 122.408 97.5144 122.115C98.9568 121.822 100.327 121.247 101.547 120.424C102.768 119.6 103.814 118.545 104.626 117.317C105.852 115.45 106.48 113.253 106.425 111.019C107.333 111.267 108.27 111.397 109.212 111.406C110.693 111.41 112.159 111.121 113.527 110.555C114.895 109.988 116.137 109.156 117.18 108.106C118.224 107.056 119.049 105.809 119.607 104.438C120.166 103.067 120.446 101.599 120.433 100.118C121.325 100.353 122.242 100.475 123.164 100.482C124.643 100.482 126.107 100.19 127.472 99.6216C128.837 99.0533 130.076 98.2206 131.118 97.1713C132.159 96.1221 132.983 94.877 133.541 93.508C134.1 92.139 134.382 90.673 134.371 89.1945C136.079 89.6396 137.868 89.6714 139.591 89.2873C141.314 88.9032 142.92 88.1143 144.277 86.9858C145.634 85.8574 146.703 84.4219 147.395 82.7982C148.087 81.1745 148.382 79.4094 148.256 77.6489C152.129 74.2301 155.232 70.0285 157.361 65.3216L159.695 64.9238L159.959 66.4143C160.022 66.7773 160.157 67.1241 160.355 67.435C160.552 67.7459 160.81 68.0147 161.111 68.226C161.413 68.4373 161.754 68.587 162.114 68.6665C162.474 68.746 162.846 68.7537 163.208 68.6892L176.998 66.2602C177.361 66.1966 177.708 66.062 178.019 65.8642C178.33 65.6663 178.599 65.4091 178.81 65.1072C179.021 64.8053 179.171 64.4647 179.25 64.1049C179.33 63.7451 179.338 63.3731 179.273 63.0103L168.56 2.31817ZM14.326 62.6881L6.04997 61.2256L15.7773 6.03316L24.0562 7.49282L14.326 62.6881ZM37.9075 81.8037C36.9527 80.6656 36.4889 79.1949 36.6182 77.7149C36.7474 76.2349 37.4591 74.8669 38.5967 73.9115L49.3298 64.9098C50.4682 63.9542 51.9395 63.49 53.4201 63.6193C54.9007 63.7485 56.2693 64.4607 57.2249 65.599C58.1804 66.7373 58.6446 68.2087 58.5154 69.6893C58.3861 71.1699 57.674 72.5385 56.5357 73.494L45.8026 82.5013C45.2384 82.9741 44.5867 83.331 43.8845 83.5518C43.1824 83.7726 42.4437 83.8529 41.7105 83.7881C40.9773 83.7233 40.2641 83.5147 39.6116 83.1742C38.9591 82.8338 38.38 82.3681 37.9075 81.8037ZM52.3136 98.975C51.7498 99.4482 51.0982 99.8056 50.3963 100.027C49.6943 100.248 48.9556 100.329 48.2223 100.265C47.4891 100.201 46.7756 99.9931 46.1227 99.6532C45.4698 99.3134 44.8903 98.8483 44.4171 98.2844C43.944 97.7206 43.5865 97.0691 43.3652 96.3671C43.1438 95.6651 43.0629 94.9264 43.127 94.1932C43.1912 93.4599 43.3991 92.7465 43.7389 92.0936C44.0788 91.4407 44.5439 90.8611 45.1077 90.388L57.9953 79.582C59.1398 78.6863 60.5874 78.2702 62.0328 78.4216C63.4782 78.5731 64.8082 79.2802 65.7421 80.3937C66.6761 81.5071 67.1408 82.9399 67.0383 84.3896C66.9358 85.8393 66.2741 87.1925 65.1928 88.1635L52.3136 98.975ZM69.5577 106.45C68.9939 106.923 68.3424 107.28 67.6405 107.501C66.9386 107.722 66.2 107.803 65.4669 107.739C64.7338 107.675 64.0205 107.467 63.3677 107.127C62.715 106.787 62.1356 106.322 61.6627 105.758C61.1897 105.194 60.8325 104.543 60.6113 103.841C60.3901 103.139 60.3093 102.4 60.3736 101.667C60.4378 100.934 60.6459 100.221 60.9858 99.5678C61.3257 98.9151 61.7909 98.3357 62.3547 97.8628L70.9417 90.6597C72.0823 89.7235 73.5461 89.2749 75.0154 89.4115C76.4847 89.548 77.8408 90.2586 78.7893 91.389C79.7378 92.5194 80.2021 93.9783 80.0815 95.449C79.9608 96.9196 79.2649 98.2833 78.1448 99.244L69.5577 106.45ZM86.7991 113.939C85.6588 114.88 84.1925 115.333 82.7197 115.198C81.247 115.064 79.8873 114.352 78.9371 113.219C77.9868 112.085 77.5232 110.623 77.6471 109.149C77.7711 107.675 78.4726 106.31 79.5988 105.352L88.1831 98.1485C88.7467 97.6753 89.398 97.3178 90.0998 97.0963C90.8017 96.8748 91.5402 96.7938 92.2734 96.8578C93.0065 96.9218 93.7199 97.1296 94.3727 97.4693C95.0255 97.809 95.605 98.274 96.0781 98.8378C96.5512 99.4015 96.9085 100.053 97.1298 100.755C97.351 101.457 97.4318 102.195 97.3676 102.929C97.3033 103.662 97.0952 104.375 96.7552 105.028C96.4153 105.681 95.95 106.26 95.3861 106.733L86.7991 113.939ZM99.9472 114.236C99.2047 115.368 98.0739 116.189 96.7678 116.545C95.4617 116.901 94.0705 116.767 92.8562 116.169L98.989 111.025C99.5691 110.54 100.099 109.997 100.569 109.406C100.834 110.203 100.916 111.05 100.808 111.883C100.701 112.717 100.406 113.515 99.9472 114.219V114.236ZM141.801 81.4395C141.395 82.0533 140.872 82.581 140.262 82.9926C139.652 83.4042 138.966 83.6916 138.245 83.8383C137.524 83.985 136.781 83.9883 136.059 83.8478C135.336 83.7073 134.649 83.4259 134.035 83.0197L110.666 67.563C110.36 67.341 110.012 67.1833 109.643 67.0995C109.274 67.0157 108.892 67.0075 108.52 67.0753C108.148 67.1432 107.793 67.2857 107.477 67.4943C107.162 67.7029 106.892 67.9733 106.683 68.2891C106.475 68.6049 106.333 68.9597 106.266 69.3319C106.198 69.7042 106.207 70.0863 106.291 70.4551C106.375 70.8239 106.533 71.1719 106.755 71.478C106.978 71.784 107.26 72.042 107.585 72.2361L126.283 84.611C127.521 85.4324 128.383 86.7123 128.678 88.169C128.973 89.6257 128.677 91.1399 127.856 92.3785C127.034 93.6172 125.755 94.4788 124.298 94.7738C122.841 95.0688 121.327 94.7731 120.088 93.9517L101.393 81.5796C101.081 81.3709 100.73 81.2279 100.362 81.1594C99.7256 81.0394 99.0675 81.1436 98.4994 81.4541C97.9313 81.7645 97.4882 82.2622 97.2456 82.8624C97.0029 83.4627 96.9756 84.1284 97.1683 84.7465C97.361 85.3645 97.7618 85.8968 98.3026 86.2528L112.311 95.5346C113.542 96.3589 114.397 97.6372 114.688 99.09C114.979 100.543 114.682 102.052 113.864 103.286C113.045 104.521 111.771 105.382 110.32 105.68C108.868 105.977 107.358 105.688 106.119 104.875L102.925 102.763C103.003 100.707 102.508 98.6705 101.495 96.8797C100.483 95.0889 98.9935 93.6143 97.1925 92.6203C95.3915 91.6263 93.3499 91.1519 91.2952 91.2499C89.2404 91.348 87.2533 92.0146 85.5551 93.1756C85.3379 91.719 84.8313 90.3206 84.0654 89.0627C83.2994 87.8048 82.2894 86.713 81.095 85.8514C79.9005 84.9899 78.5458 84.376 77.1105 84.0461C75.6752 83.7161 74.1884 83.6767 72.7376 83.9302C72.7866 81.2784 71.8744 78.6983 70.1693 76.6668C68.4642 74.6352 66.0815 73.2893 63.4613 72.8777C64.2813 70.5645 64.3167 68.0457 63.5623 65.7103C62.8078 63.3749 61.3055 61.3529 59.2872 59.9566C57.2689 58.5602 54.847 57.8673 52.3956 57.9848C49.9442 58.1022 47.5996 59.0236 45.7241 60.6065L34.991 69.6138C34.2406 70.2599 33.581 71.0044 33.0298 71.8271C30.2259 68.9363 28.0158 65.524 26.5244 61.7832C26.3478 61.3383 26.0601 60.9461 25.6888 60.6439C25.3176 60.3418 24.8751 60.1399 24.4036 60.0573L20.5905 59.3849L28.4828 14.6286L36.7588 16.0883C37.0601 16.1401 37.3681 16.1401 37.6694 16.0883L69.7622 11.2022C73.367 10.6493 77.0545 11.1151 80.4085 12.547L82.4929 13.4351L71.306 18.1979C68.7925 19.2728 66.6496 21.0612 65.1423 23.3417L54.5997 39.2355C53.38 41.1022 52.9471 43.3752 53.3952 45.5596C53.8433 47.744 55.1362 49.663 56.9923 50.8988C60.0921 52.9412 63.8753 53.6715 67.5125 52.9294C71.1498 52.1873 74.3446 50.0335 76.3965 46.94L81.207 39.695L91.4358 37.6021C92.5383 41.0011 94.411 44.0996 96.9079 46.6558C99.4048 49.212 102.458 51.1569 105.831 52.3388C107.026 52.765 108.252 53.0994 109.498 53.339L140.218 73.679C141.457 74.4986 142.319 75.7765 142.616 77.2316C142.913 78.6868 142.619 80.2003 141.801 81.4395ZM154.899 60.0629C154.425 60.1454 153.981 60.3482 153.609 60.6519C153.236 60.9556 152.948 61.35 152.772 61.7972C151.28 65.5554 149.062 68.9826 146.244 71.8831C145.456 70.7479 144.461 69.771 143.311 69.003L119.497 53.2493C122.592 52.6309 125.539 51.427 128.182 49.7024L132.584 46.8167C133.205 46.4081 133.638 45.7694 133.788 45.0412C133.939 44.3129 133.794 43.5548 133.385 42.9337C132.976 42.3125 132.337 41.8791 131.609 41.7288C130.881 41.5785 130.123 41.7237 129.502 42.1324L125.114 45.0181C122.577 46.6847 119.686 47.7375 116.671 48.093C113.656 48.4484 110.6 48.0969 107.744 47.0661C105.116 46.1505 102.742 44.6266 100.816 42.6186C98.8889 40.6106 97.4643 38.1755 96.6581 35.5121C96.4844 34.9518 96.3387 34.355 96.2154 33.7639C96.0637 33.0388 95.6311 32.4033 95.012 31.9964C94.393 31.5895 93.638 31.4443 92.9123 31.5926L78.9573 34.4503C78.2311 34.5988 77.5935 35.0289 77.1838 35.6466L71.7514 43.8526C70.5196 45.7074 68.6034 46.9988 66.4219 47.4446C64.2405 47.8903 61.9712 47.4541 60.1106 46.2312C59.4897 45.8177 59.0568 45.1761 58.9058 44.4455C58.7548 43.715 58.8977 42.9544 59.3037 42.3285L69.8407 26.4376C70.7443 25.073 72.0267 24.0019 73.5305 23.3557L98.9162 12.5414C102.272 11.1167 105.957 10.6503 109.562 11.1938L141.641 16.0967C141.941 16.1429 142.246 16.1429 142.546 16.0967L150.839 14.6454L158.715 59.4018L154.899 60.0629ZM164.985 62.6825L155.255 7.49001L163.533 6.03035L173.261 61.2228L164.985 62.6825Z"></path>
  </mask>
  <path d="M168.56 2.31817C168.496 1.95548 168.361 1.60888 168.164 1.29821C167.966 0.987531 167.709 0.71887 167.408 0.507583C167.106 0.296297 166.766 0.146531 166.406 0.0668545C166.047 -0.012822 165.675 -0.0208482 165.312 0.0432353L151.523 2.47227C151.16 2.53586 150.813 2.67043 150.502 2.86827C150.191 3.06612 149.922 3.32336 149.711 3.62524C149.5 3.92713 149.35 4.26774 149.271 4.62756C149.191 4.98739 149.183 5.35936 149.248 5.72218L149.847 9.11497L142.003 10.485L110.386 5.64933C105.756 4.95193 101.023 5.55225 96.7141 7.38355L89.6539 10.3925L82.6134 7.39196C78.2974 5.55268 73.5538 4.95404 68.9161 5.66334L37.2855 10.4962L29.4633 9.11777L30.0601 5.72218C30.1246 5.35936 30.1169 4.98739 30.0374 4.62756C29.9579 4.26774 29.8082 3.92713 29.5969 3.62524C29.3856 3.32336 29.1168 3.06612 28.8059 2.86827C28.495 2.67043 28.1481 2.53586 27.7852 2.47227L14.0095 0.0432353C13.6466 -0.0212532 13.2747 -0.0135342 12.9148 0.0659515C12.555 0.145437 12.2144 0.295129 11.9125 0.50645C11.6106 0.717771 11.3534 0.98657 11.1555 1.29745C10.9577 1.60834 10.8231 1.9552 10.7595 2.31817L0.043235 63.0103C-0.0212534 63.3731 -0.0135338 63.7451 0.0659518 64.1049C0.145437 64.4647 0.295127 64.8053 0.506449 65.1072C0.71777 65.4091 0.98657 65.6663 1.29745 65.8642C1.60834 66.062 1.9552 66.1966 2.31817 66.2602L16.1107 68.6892C16.4733 68.7533 16.845 68.7453 17.2045 68.6656C17.564 68.5859 17.9043 68.4362 18.2058 68.2249C18.5074 68.0136 18.7644 67.7449 18.962 67.4342C19.1597 67.1236 19.2942 66.777 19.3578 66.4143L19.6127 64.9098L21.9269 65.3188C24.0599 70.0169 27.163 74.2104 31.0323 77.6237C30.884 80.1534 31.6042 82.6578 33.0736 84.7224C34.543 86.7869 36.6735 88.2876 39.1122 88.976C37.8015 91.1528 37.2743 93.7123 37.6179 96.23C37.9615 98.7477 39.1553 101.072 41.0015 102.818C42.8476 104.564 45.235 105.627 47.7679 105.83C50.3008 106.033 52.827 105.364 54.9275 103.934C55.2061 105.794 55.9536 107.553 57.0996 109.045C58.2457 110.537 59.7525 111.712 61.4783 112.461C63.2041 113.209 65.092 113.506 66.9642 113.324C68.8364 113.141 70.6314 112.485 72.1801 111.417C72.4422 113.133 73.1037 114.763 74.1113 116.177C75.1188 117.59 76.4443 118.747 77.9809 119.555C79.5174 120.362 81.2222 120.797 82.9577 120.825C84.6933 120.853 86.4112 120.473 87.973 119.716V119.732L89.0936 120.478C90.3209 121.29 91.6963 121.853 93.1412 122.134C94.586 122.415 96.0721 122.408 97.5144 122.115C98.9568 121.822 100.327 121.247 101.547 120.424C102.768 119.6 103.814 118.545 104.626 117.317C105.852 115.45 106.48 113.253 106.425 111.019C107.333 111.267 108.27 111.397 109.212 111.406C110.693 111.41 112.159 111.121 113.527 110.555C114.895 109.988 116.137 109.156 117.18 108.106C118.224 107.056 119.049 105.809 119.607 104.438C120.166 103.067 120.446 101.599 120.433 100.118C121.325 100.353 122.242 100.475 123.164 100.482C124.643 100.482 126.107 100.19 127.472 99.6216C128.837 99.0533 130.076 98.2206 131.118 97.1713C132.159 96.1221 132.983 94.877 133.541 93.508C134.1 92.139 134.382 90.673 134.371 89.1945C136.079 89.6396 137.868 89.6714 139.591 89.2873C141.314 88.9032 142.92 88.1143 144.277 86.9858C145.634 85.8574 146.703 84.4219 147.395 82.7982C148.087 81.1745 148.382 79.4094 148.256 77.6489C152.129 74.2301 155.232 70.0285 157.361 65.3216L159.695 64.9238L159.959 66.4143C160.022 66.7773 160.157 67.1241 160.355 67.435C160.552 67.7459 160.81 68.0147 161.111 68.226C161.413 68.4373 161.754 68.587 162.114 68.6665C162.474 68.746 162.846 68.7537 163.208 68.6892L176.998 66.2602C177.361 66.1966 177.708 66.062 178.019 65.8642C178.33 65.6663 178.599 65.4091 178.81 65.1072C179.021 64.8053 179.171 64.4647 179.25 64.1049C179.33 63.7451 179.338 63.3731 179.273 63.0103L168.56 2.31817ZM14.326 62.6881L6.04997 61.2256L15.7773 6.03316L24.0562 7.49282L14.326 62.6881ZM37.9075 81.8037C36.9527 80.6656 36.4889 79.1949 36.6182 77.7149C36.7474 76.2349 37.4591 74.8669 38.5967 73.9115L49.3298 64.9098C50.4682 63.9542 51.9395 63.49 53.4201 63.6193C54.9007 63.7485 56.2693 64.4607 57.2249 65.599C58.1804 66.7373 58.6446 68.2087 58.5154 69.6893C58.3861 71.1699 57.674 72.5385 56.5357 73.494L45.8026 82.5013C45.2384 82.9741 44.5867 83.331 43.8845 83.5518C43.1824 83.7726 42.4437 83.8529 41.7105 83.7881C40.9773 83.7233 40.2641 83.5147 39.6116 83.1742C38.9591 82.8338 38.38 82.3681 37.9075 81.8037ZM52.3136 98.975C51.7498 99.4482 51.0982 99.8056 50.3963 100.027C49.6943 100.248 48.9556 100.329 48.2223 100.265C47.4891 100.201 46.7756 99.9931 46.1227 99.6532C45.4698 99.3134 44.8903 98.8483 44.4171 98.2844C43.944 97.7206 43.5865 97.0691 43.3652 96.3671C43.1438 95.6651 43.0629 94.9264 43.127 94.1932C43.1912 93.4599 43.3991 92.7465 43.7389 92.0936C44.0788 91.4407 44.5439 90.8611 45.1077 90.388L57.9953 79.582C59.1398 78.6863 60.5874 78.2702 62.0328 78.4216C63.4782 78.5731 64.8082 79.2802 65.7421 80.3937C66.6761 81.5071 67.1408 82.9399 67.0383 84.3896C66.9358 85.8393 66.2741 87.1925 65.1928 88.1635L52.3136 98.975ZM69.5577 106.45C68.9939 106.923 68.3424 107.28 67.6405 107.501C66.9386 107.722 66.2 107.803 65.4669 107.739C64.7338 107.675 64.0205 107.467 63.3677 107.127C62.715 106.787 62.1356 106.322 61.6627 105.758C61.1897 105.194 60.8325 104.543 60.6113 103.841C60.3901 103.139 60.3093 102.4 60.3736 101.667C60.4378 100.934 60.6459 100.221 60.9858 99.5678C61.3257 98.9151 61.7909 98.3357 62.3547 97.8628L70.9417 90.6597C72.0823 89.7235 73.5461 89.2749 75.0154 89.4115C76.4847 89.548 77.8408 90.2586 78.7893 91.389C79.7378 92.5194 80.2021 93.9783 80.0815 95.449C79.9608 96.9196 79.2649 98.2833 78.1448 99.244L69.5577 106.45ZM86.7991 113.939C85.6588 114.88 84.1925 115.333 82.7197 115.198C81.247 115.064 79.8873 114.352 78.9371 113.219C77.9868 112.085 77.5232 110.623 77.6471 109.149C77.7711 107.675 78.4726 106.31 79.5988 105.352L88.1831 98.1485C88.7467 97.6753 89.398 97.3178 90.0998 97.0963C90.8017 96.8748 91.5402 96.7938 92.2734 96.8578C93.0065 96.9218 93.7199 97.1296 94.3727 97.4693C95.0255 97.809 95.605 98.274 96.0781 98.8378C96.5512 99.4015 96.9085 100.053 97.1298 100.755C97.351 101.457 97.4318 102.195 97.3676 102.929C97.3033 103.662 97.0952 104.375 96.7552 105.028C96.4153 105.681 95.95 106.26 95.3861 106.733L86.7991 113.939ZM99.9472 114.236C99.2047 115.368 98.0739 116.189 96.7678 116.545C95.4617 116.901 94.0705 116.767 92.8562 116.169L98.989 111.025C99.5691 110.54 100.099 109.997 100.569 109.406C100.834 110.203 100.916 111.05 100.808 111.883C100.701 112.717 100.406 113.515 99.9472 114.219V114.236ZM141.801 81.4395C141.395 82.0533 140.872 82.581 140.262 82.9926C139.652 83.4042 138.966 83.6916 138.245 83.8383C137.524 83.985 136.781 83.9883 136.059 83.8478C135.336 83.7073 134.649 83.4259 134.035 83.0197L110.666 67.563C110.36 67.341 110.012 67.1833 109.643 67.0995C109.274 67.0157 108.892 67.0075 108.52 67.0753C108.148 67.1432 107.793 67.2857 107.477 67.4943C107.162 67.7029 106.892 67.9733 106.683 68.2891C106.475 68.6049 106.333 68.9597 106.266 69.3319C106.198 69.7042 106.207 70.0863 106.291 70.4551C106.375 70.8239 106.533 71.1719 106.755 71.478C106.978 71.784 107.26 72.042 107.585 72.2361L126.283 84.611C127.521 85.4324 128.383 86.7123 128.678 88.169C128.973 89.6257 128.677 91.1399 127.856 92.3785C127.034 93.6172 125.755 94.4788 124.298 94.7738C122.841 95.0688 121.327 94.7731 120.088 93.9517L101.393 81.5796C101.081 81.3709 100.73 81.2279 100.362 81.1594C99.7256 81.0394 99.0675 81.1436 98.4994 81.4541C97.9313 81.7645 97.4882 82.2622 97.2456 82.8624C97.0029 83.4627 96.9756 84.1284 97.1683 84.7465C97.361 85.3645 97.7618 85.8968 98.3026 86.2528L112.311 95.5346C113.542 96.3589 114.397 97.6372 114.688 99.09C114.979 100.543 114.682 102.052 113.864 103.286C113.045 104.521 111.771 105.382 110.32 105.68C108.868 105.977 107.358 105.688 106.119 104.875L102.925 102.763C103.003 100.707 102.508 98.6705 101.495 96.8797C100.483 95.0889 98.9935 93.6143 97.1925 92.6203C95.3915 91.6263 93.3499 91.1519 91.2952 91.2499C89.2404 91.348 87.2533 92.0146 85.5551 93.1756C85.3379 91.719 84.8313 90.3206 84.0654 89.0627C83.2994 87.8048 82.2894 86.713 81.095 85.8514C79.9005 84.9899 78.5458 84.376 77.1105 84.0461C75.6752 83.7161 74.1884 83.6767 72.7376 83.9302C72.7866 81.2784 71.8744 78.6983 70.1693 76.6668C68.4642 74.6352 66.0815 73.2893 63.4613 72.8777C64.2813 70.5645 64.3167 68.0457 63.5623 65.7103C62.8078 63.3749 61.3055 61.3529 59.2872 59.9566C57.2689 58.5602 54.847 57.8673 52.3956 57.9848C49.9442 58.1022 47.5996 59.0236 45.7241 60.6065L34.991 69.6138C34.2406 70.2599 33.581 71.0044 33.0298 71.8271C30.2259 68.9363 28.0158 65.524 26.5244 61.7832C26.3478 61.3383 26.0601 60.9461 25.6888 60.6439C25.3176 60.3418 24.8751 60.1399 24.4036 60.0573L20.5905 59.3849L28.4828 14.6286L36.7588 16.0883C37.0601 16.1401 37.3681 16.1401 37.6694 16.0883L69.7622 11.2022C73.367 10.6493 77.0545 11.1151 80.4085 12.547L82.4929 13.4351L71.306 18.1979C68.7925 19.2728 66.6496 21.0612 65.1423 23.3417L54.5997 39.2355C53.38 41.1022 52.9471 43.3752 53.3952 45.5596C53.8433 47.744 55.1362 49.663 56.9923 50.8988C60.0921 52.9412 63.8753 53.6715 67.5125 52.9294C71.1498 52.1873 74.3446 50.0335 76.3965 46.94L81.207 39.695L91.4358 37.6021C92.5383 41.0011 94.411 44.0996 96.9079 46.6558C99.4048 49.212 102.458 51.1569 105.831 52.3388C107.026 52.765 108.252 53.0994 109.498 53.339L140.218 73.679C141.457 74.4986 142.319 75.7765 142.616 77.2316C142.913 78.6868 142.619 80.2003 141.801 81.4395ZM154.899 60.0629C154.425 60.1454 153.981 60.3482 153.609 60.6519C153.236 60.9556 152.948 61.35 152.772 61.7972C151.28 65.5554 149.062 68.9826 146.244 71.8831C145.456 70.7479 144.461 69.771 143.311 69.003L119.497 53.2493C122.592 52.6309 125.539 51.427 128.182 49.7024L132.584 46.8167C133.205 46.4081 133.638 45.7694 133.788 45.0412C133.939 44.3129 133.794 43.5548 133.385 42.9337C132.976 42.3125 132.337 41.8791 131.609 41.7288C130.881 41.5785 130.123 41.7237 129.502 42.1324L125.114 45.0181C122.577 46.6847 119.686 47.7375 116.671 48.093C113.656 48.4484 110.6 48.0969 107.744 47.0661C105.116 46.1505 102.742 44.6266 100.816 42.6186C98.8889 40.6106 97.4643 38.1755 96.6581 35.5121C96.4844 34.9518 96.3387 34.355 96.2154 33.7639C96.0637 33.0388 95.6311 32.4033 95.012 31.9964C94.393 31.5895 93.638 31.4443 92.9123 31.5926L78.9573 34.4503C78.2311 34.5988 77.5935 35.0289 77.1838 35.6466L71.7514 43.8526C70.5196 45.7074 68.6034 46.9988 66.4219 47.4446C64.2405 47.8903 61.9712 47.4541 60.1106 46.2312C59.4897 45.8177 59.0568 45.1761 58.9058 44.4455C58.7548 43.715 58.8977 42.9544 59.3037 42.3285L69.8407 26.4376C70.7443 25.073 72.0267 24.0019 73.5305 23.3557L98.9162 12.5414C102.272 11.1167 105.957 10.6503 109.562 11.1938L141.641 16.0967C141.941 16.1429 142.246 16.1429 142.546 16.0967L150.839 14.6454L158.715 59.4018L154.899 60.0629ZM164.985 62.6825L155.255 7.49001L163.533 6.03035L173.261 61.2228L164.985 62.6825Z" fill="#43A862" stroke="white" mask="url(#path-1-inside-1_1249_414)"></path>
</svg>
