<svg xmlns="http://www.w3.org/2000/svg" width="96" height="96" viewBox="0 0 96 96" fill="none"><path d="M17.2272 79.0502C16.8699 79.0502 16.5124 78.9138 16.2398 78.6412C7.90608 70.3074 3.31641 59.2267 3.31641 47.4403C3.31641 35.6541 7.90608 24.5735 16.2399 16.2396C23.6326 8.84676 33.4349 4.3091 43.841 3.46273C54.1273 2.62544 64.4146 5.41956 72.807 11.3293C73.4374 11.7734 73.5888 12.6445 73.1447 13.275C72.7009 13.9056 71.8295 14.0568 71.1991 13.6127C54.7485 2.02831 32.4655 3.96385 18.2147 18.2143C10.4082 26.0208 6.10913 36.4 6.10913 47.4403C6.10913 58.4807 10.4082 68.86 18.2146 76.6662C18.76 77.2117 18.76 78.0956 18.2146 78.641C17.9419 78.9137 17.5846 79.0502 17.2272 79.0502Z" fill="#44AB64"></path><path d="M17.2252 79.0501C17.123 79.0501 17.0201 79.0389 16.9186 79.0161L8.75019 77.1774C7.99772 77.0079 7.52523 76.2609 7.69453 75.5084C7.86384 74.7559 8.61107 74.284 9.36354 74.4528L15.8699 75.9174L16.0055 70.219C16.0238 69.4478 16.6599 68.8443 17.4347 68.8561C18.2057 68.8745 18.8159 69.5143 18.7974 70.2853L18.6211 77.6869C18.6111 78.1051 18.4141 78.497 18.0844 78.7544C17.8368 78.9478 17.5337 79.0501 17.2252 79.0501Z" fill="#44AB64"></path><path d="M48.577 92.6824C39.5077 92.6828 30.6114 89.8935 23.1941 84.6704C22.5635 84.2264 22.4123 83.3554 22.8564 82.7248C23.3006 82.0943 24.1719 81.943 24.802 82.387C31.9891 87.4482 40.2917 89.9288 48.5493 89.9291C59.1924 89.9298 69.7616 85.8102 77.7864 77.7855C85.5927 69.9793 89.8918 59.6 89.8918 48.5596C89.8918 37.5193 85.5927 27.1399 77.7864 19.3335C77.2411 18.7883 77.2411 17.9042 77.7864 17.3589C78.3318 16.8136 79.2157 16.8136 79.7612 17.3589C88.0948 25.6926 92.6845 36.7733 92.6845 48.5596C92.6845 60.3458 88.0948 71.4265 79.7612 79.7603C72.3683 87.153 62.566 91.6907 52.1599 92.537C50.9652 92.6342 49.7688 92.6824 48.577 92.6824Z" fill="#44AB64"></path><path d="M78.5963 27.1443C78.5852 27.1443 78.5738 27.1443 78.5625 27.1439C77.7915 27.1256 77.1815 26.4857 77.1996 25.7147L77.3759 18.313C77.386 17.8947 77.5829 17.5029 77.9126 17.2454C78.2427 16.9878 78.6705 16.892 79.0786 16.9838L87.247 18.8224C87.9994 18.9918 88.4721 19.739 88.3026 20.4915C88.1331 21.2437 87.3857 21.7164 86.6336 21.5471L80.1274 20.0825L79.9918 25.7811C79.9737 26.5408 79.3519 27.1443 78.5963 27.1443Z" fill="#44AB64"></path><path d="M47.9989 82.909C28.7501 82.909 13.0898 67.2488 13.0898 47.9999C13.0898 28.751 28.7501 13.0908 47.9989 13.0908C67.2478 13.0908 82.908 28.751 82.908 47.9999C82.908 67.2488 67.2478 82.909 47.9989 82.909ZM47.9989 15.8835C30.2899 15.8835 15.8826 30.2909 15.8826 47.9999C15.8826 65.7089 30.2899 80.1163 47.9989 80.1163C65.708 80.1163 80.1153 65.7089 80.1153 47.9999C80.1153 30.2909 65.708 15.8835 47.9989 15.8835Z" fill="#44AB64"></path><path d="M57.7736 61.9635H38.2245C37.4533 61.9635 36.8281 61.3383 36.8281 60.5672V52.189C36.8281 46.0293 41.8393 41.0181 47.999 41.0181C54.1587 41.0181 59.1699 46.0293 59.1699 52.189V60.5672C59.1699 61.3383 58.5447 61.9635 57.7736 61.9635ZM39.6209 59.1708H56.3772V52.189C56.3772 47.5693 52.6189 43.8108 47.999 43.8108C43.3793 43.8108 39.6209 47.5693 39.6209 52.189V59.1708Z" fill="#44AB64"></path><path d="M73.1326 61.9635H57.7726C57.0015 61.9635 56.3762 61.3383 56.3762 60.5672C56.3762 59.796 57.0015 59.1708 57.7726 59.1708H71.7362V54.9817C71.7362 52.7449 70.8647 50.6406 69.2821 49.0566C67.699 47.475 65.5947 46.6035 63.3581 46.6035C61.2473 46.6035 59.2306 47.3919 57.6794 48.8236C57.1126 49.3467 56.2294 49.3114 55.7062 48.7445C55.1832 48.1777 55.2185 47.2944 55.7852 46.7713C57.8539 44.8621 60.5433 43.8108 63.3581 43.8108C66.3403 43.8108 69.1455 44.9724 71.2569 47.0818C73.3674 49.1941 74.529 51.9994 74.529 54.9817V60.5672C74.529 61.3383 73.9037 61.9635 73.1326 61.9635Z" fill="#44AB64"></path><path d="M38.2251 61.9635H22.8651C22.094 61.9635 21.4688 61.3383 21.4688 60.5672V54.9817C21.4688 48.822 26.4799 43.8108 32.6397 43.8108C35.4544 43.8108 38.1438 44.8621 40.2123 46.7713C40.7791 47.2942 40.8145 48.1777 40.2916 48.7445C39.7686 49.3111 38.8852 49.3467 38.3185 48.8236C36.7671 47.3919 34.7503 46.6035 32.6397 46.6035C28.02 46.6035 24.2615 50.362 24.2615 54.9817V59.1708H38.2251C38.9963 59.1708 39.6215 59.796 39.6215 60.5672C39.6215 61.3383 38.9963 61.9635 38.2251 61.9635Z" fill="#44AB64"></path><path d="M48.0013 43.8108C44.1516 43.8108 41.0195 40.6788 41.0195 36.829C41.0195 32.9792 44.1516 29.8472 48.0013 29.8472C51.8511 29.8472 54.9832 32.9792 54.9832 36.829C54.9832 40.6788 51.8511 43.8108 48.0013 43.8108ZM48.0013 32.6399C45.6916 32.6399 43.8123 34.5192 43.8123 36.829C43.8123 39.1387 45.6916 41.0181 48.0013 41.0181C50.3111 41.0181 52.1904 39.1387 52.1904 36.829C52.1904 34.5192 50.3111 32.6399 48.0013 32.6399Z" fill="#44AB64"></path><path d="M63.3589 46.6035C60.279 46.6035 57.7734 44.0979 57.7734 41.0181C57.7734 37.9382 60.279 35.4326 63.3589 35.4326C66.4387 35.4326 68.9443 37.9382 68.9443 41.0181C68.9443 44.0979 66.4387 46.6035 63.3589 46.6035ZM63.3589 38.2253C61.8191 38.2253 60.5662 39.4782 60.5662 41.0181C60.5662 42.5579 61.8191 43.8108 63.3589 43.8108C64.8987 43.8108 66.1516 42.5579 66.1516 41.0181C66.1516 39.4782 64.8987 38.2253 63.3589 38.2253Z" fill="#44AB64"></path><path d="M32.6401 46.6035C29.5603 46.6035 27.0547 44.0979 27.0547 41.0181C27.0547 37.9382 29.5603 35.4326 32.6401 35.4326C35.72 35.4326 38.2256 37.9382 38.2256 41.0181C38.2256 44.0979 35.72 46.6035 32.6401 46.6035ZM32.6401 38.2253C31.1003 38.2253 29.8474 39.4782 29.8474 41.0181C29.8474 42.5579 31.1003 43.8108 32.6401 43.8108C34.18 43.8108 35.4329 42.5579 35.4329 41.0181C35.4329 39.4782 34.18 38.2253 32.6401 38.2253Z" fill="#44AB64"></path></svg>