<svg xmlns="http://www.w3.org/2000/svg" width="96" height="97" viewBox="0 0 96 97" fill="none"><path d="M48 48.4688L58.606 37.8628C56.152 35.409 52.923 33.8821 49.4694 33.5421C46.0157 33.2022 42.551 34.0703 39.6657 35.9985C36.7803 37.9267 34.6528 40.7957 33.6456 44.1167C32.6384 47.4376 32.8139 51.0051 34.1422 54.2112C35.4705 57.4173 37.8693 60.0636 40.93 61.6993C43.9907 63.335 47.5238 63.8588 50.9275 63.1816C54.3311 62.5043 57.3945 60.6678 59.5959 57.985C61.7973 55.3022 63.0003 51.9391 63 48.4688" stroke="#44AB64" stroke-width="3.5" stroke-linecap="round" stroke-linejoin="round"></path><path d="M48.0002 87.4689C66.0862 81.2349 78.9782 66.7429 81.0002 48.2909C81.5611 40.2808 81.5136 32.2397 80.8582 24.2369C80.772 22.9753 80.2184 21.7912 79.3056 20.9161C78.3928 20.041 77.1863 19.5378 75.9222 19.5049C67.7402 19.2529 58.2302 17.8889 50.8822 10.6509C50.1149 9.89299 49.0798 9.46802 48.0012 9.46802C46.9227 9.46802 45.8876 9.89299 45.1202 10.6509C37.7702 17.8889 28.2602 19.2529 20.0802 19.5049C18.8161 19.5378 17.6097 20.041 16.6969 20.9161C15.7841 21.7912 15.2304 22.9753 15.1442 24.2369C14.4882 32.2397 14.44 40.2807 15.0002 48.2909C17.0222 66.7429 29.9142 81.2349 48.0002 87.4689Z" stroke="#44AB64" stroke-width="3.5" stroke-linecap="round" stroke-linejoin="round"></path></svg>