<svg xmlns="http://www.w3.org/2000/svg" width="96" height="97" viewBox="0 0 96 97" fill="none"><path d="M28.1609 64.0107C23.7072 64.0107 20.0967 60.4002 20.0967 55.9466V49.4953L16.8711 41.4312H31.3865C34.0588 41.4312 36.225 43.5973 36.225 46.2696V55.9466C36.225 60.4002 32.6145 64.0107 28.1609 64.0107Z" stroke="#44AB64" stroke-width="3" stroke-miterlimit="10" stroke-linecap="round"></path><path d="M20.0977 49.4954H36.2259" stroke="#44AB64" stroke-width="3" stroke-miterlimit="10" stroke-linecap="round"></path><path d="M23.1606 62.3979L12.4308 65.9365C9.78653 66.8085 8 69.2787 8 72.0633V89.816" stroke="#44AB64" stroke-width="3" stroke-miterlimit="10" stroke-linecap="round"></path><path d="M33.1602 62.3979L43.89 65.9365C46.5343 66.8085 48.3207 69.2787 48.3207 72.0631V78.2036H65.0941V79.8165C65.0941 83.3794 62.2057 86.2678 58.6428 86.2678H45.0951C42.4228 86.2678 40.2566 84.1016 40.2566 81.4293V79.6552" stroke="#44AB64" stroke-width="3" stroke-miterlimit="10" stroke-linecap="round"></path><path d="M65.418 57.3979V60.9462" stroke="#44AB64" stroke-width="3" stroke-miterlimit="10" stroke-linecap="round"></path><path d="M65.418 71.2686V74.8168" stroke="#44AB64" stroke-width="3" stroke-miterlimit="10" stroke-linecap="round"></path><path d="M61.3867 71.2684H66.8703C68.2956 71.2684 69.4508 70.1131 69.4508 68.6879C69.4508 67.2626 68.2956 66.1073 66.8703 66.1073H63.9672C62.542 66.1073 61.3867 64.9521 61.3867 63.5268C61.3867 62.1016 62.542 60.9463 63.9672 60.9463H69.4508" stroke="#44AB64" stroke-width="3" stroke-miterlimit="10" stroke-linecap="round"></path><path d="M65.4165 78.2036C72.097 78.2036 77.5127 72.788 77.5127 66.1074C77.5127 59.4269 72.097 54.0112 65.4165 54.0112C58.736 54.0112 53.3203 59.4269 53.3203 66.1074C53.3203 72.788 58.736 78.2036 65.4165 78.2036Z" stroke="#44AB64" stroke-width="3" stroke-miterlimit="10" stroke-linecap="round"></path><path d="M57.0312 78.2036V86.2677" stroke="#44AB64" stroke-width="3" stroke-miterlimit="10" stroke-linecap="round"></path><path d="M16.0664 89.8158V73.365" stroke="#44AB64" stroke-width="3" stroke-miterlimit="10" stroke-linecap="round"></path><path d="M40.2578 73.365V89.8158" stroke="#44AB64" stroke-width="3" stroke-miterlimit="10" stroke-linecap="round"></path><path d="M28.1602 68.5266V70.9458" stroke="#44AB64" stroke-width="3" stroke-miterlimit="10" stroke-linecap="round"></path><path d="M28.1602 73.365V87.074" stroke="#44AB64" stroke-width="3" stroke-miterlimit="10" stroke-linecap="round"></path><path d="M50.9044 16.5937H44.4531V11.7552C44.4531 9.97366 45.8972 8.52954 47.6788 8.52954C49.4603 8.52954 50.9044 9.97366 50.9044 11.7552V45.9471C50.9044 47.7286 52.3485 49.1727 54.1301 49.1727M54.1301 49.1727C55.9116 49.1727 57.3557 47.7286 57.3557 45.9471V41.7537H87.9994V45.9471C87.9994 47.7286 86.5553 49.1727 84.7738 49.1727H54.1301Z" stroke="#44AB64" stroke-width="3" stroke-miterlimit="10" stroke-linecap="round"></path><path d="M81.5451 41.7537V11.7552C81.5451 9.97367 80.101 8.52954 78.3195 8.52954H47.6758" stroke="#44AB64" stroke-width="3" stroke-miterlimit="10" stroke-linecap="round"></path><path d="M66.2221 36.27C71.4499 34.8918 75.0926 30.1642 75.0926 24.7578V18.5289L66.2221 13.6904L57.3516 18.5289V24.7578C57.3516 30.1642 60.9943 34.8918 66.2221 36.27Z" stroke="#44AB64" stroke-width="3" stroke-miterlimit="10" stroke-linecap="round"></path><path d="M62.1914 24.6577H70.2555" stroke="#44AB64" stroke-width="3" stroke-miterlimit="10" stroke-linecap="round"></path><path d="M66.2227 28.6899V20.6257" stroke="#44AB64" stroke-width="3" stroke-miterlimit="10" stroke-linecap="round"></path><path d="M40.6614 23.3674H38.2422" stroke="#44AB64" stroke-width="3" stroke-miterlimit="10" stroke-linecap="round"></path><path d="M40.6614 31.4316H38.2422" stroke="#44AB64" stroke-width="3" stroke-miterlimit="10" stroke-linecap="round"></path><path d="M43.4844 28.6092V26.1899" stroke="#44AB64" stroke-width="3" stroke-miterlimit="10" stroke-linecap="round"></path><path d="M35.418 28.6092V26.1899" stroke="#44AB64" stroke-width="3" stroke-miterlimit="10" stroke-linecap="round"></path></svg>