<svg xmlns="http://www.w3.org/2000/svg" width="96" height="97" viewBox="0 0 96 97" fill="none"><path d="M22.0346 34.8022H22.062C27.5423 34.6928 38.5727 34.097 45.1477 32.5472C53.2917 30.6284 61.1022 27.5151 68.3838 23.288L69.6712 25.1822C69.9664 25.6154 70.483 25.8437 71.0009 25.7658C71.5203 25.6892 71.9494 25.323 72.1052 24.8228L75.2718 14.7108C75.4043 14.2871 75.3237 13.8266 75.0545 13.474C74.7866 13.1214 74.3752 12.9273 73.9188 12.9369L64.1198 13.2881C63.6223 13.3059 63.174 13.5929 62.9499 14.0357C62.7258 14.4785 62.7586 15.0101 63.0387 15.4215L64.0897 16.9685C57.6896 20.4248 50.8863 23.0147 43.8453 24.6752C37.4438 26.184 27.1063 26.7566 22.0073 26.8564C21.2625 26.8714 20.668 27.4796 20.668 28.223V33.4355C20.668 33.8031 20.8156 34.1544 21.078 34.4113C21.3335 34.6614 21.6766 34.8022 22.0346 34.8022ZM23.4013 29.5542C27.2006 29.4353 37.5272 28.972 44.4726 27.3347C52.2434 25.5034 59.7328 22.5746 66.7342 18.6318C67.0677 18.4445 67.3068 18.1261 67.3943 17.753C67.4818 17.3799 67.4093 16.989 67.1948 16.672L66.6905 15.9299L72.0888 15.7358L70.3449 21.3063L69.9254 20.69C69.5181 20.0914 68.7145 19.9137 68.0913 20.2868C60.7386 24.7039 52.8079 27.9333 44.5218 29.8863C38.6779 31.2639 29.0839 31.8638 23.4013 32.0347V29.5542Z" fill="#44AB64"></path><path d="M32.9656 40.2688H26.1323C25.3779 40.2688 24.7656 40.8811 24.7656 41.6355V52.5688C24.7656 53.3232 25.3779 53.9355 26.1323 53.9355H32.9656C33.72 53.9355 34.3323 53.3232 34.3323 52.5688V41.6355C34.3323 40.8811 33.72 40.2688 32.9656 40.2688ZM31.599 51.2021H27.499V43.0021H31.599V51.2021Z" fill="#44AB64"></path><path d="M45.2664 37.5354H38.4331C37.6787 37.5354 37.0664 38.1477 37.0664 38.9021V52.5687C37.0664 53.3231 37.6787 53.9354 38.4331 53.9354H45.2664C46.0208 53.9354 46.6331 53.3231 46.6331 52.5687V38.9021C46.6331 38.1477 46.0208 37.5354 45.2664 37.5354ZM43.8997 51.2021H39.7997V40.2687H43.8997V51.2021Z" fill="#44AB64"></path><path d="M57.5672 34.802H50.7339C49.9795 34.802 49.3672 35.4143 49.3672 36.1687V52.5687C49.3672 53.3231 49.9795 53.9353 50.7339 53.9353H57.5672C58.3216 53.9353 58.9339 53.3231 58.9339 52.5687V36.1687C58.9339 35.4143 58.3216 34.802 57.5672 34.802ZM56.2005 51.202H52.1005V37.5353H56.2005V51.202Z" fill="#44AB64"></path><path d="M69.868 30.7021H63.0346C62.2802 30.7021 61.668 31.3144 61.668 32.0688V52.5688C61.668 53.3232 62.2802 53.9355 63.0346 53.9355H69.868C70.6224 53.9355 71.2346 53.3232 71.2346 52.5688V32.0688C71.2346 31.3144 70.6224 30.7021 69.868 30.7021ZM68.5013 51.2021H64.4013V33.4355H68.5013V51.2021Z" fill="#44AB64"></path><path d="M83.3948 71.8265C84.3227 70.6594 84.8995 69.2039 84.8995 67.6021C84.8995 63.8342 81.834 60.7688 78.0661 60.7688C74.2982 60.7688 71.2328 63.8342 71.2328 67.6021C71.2328 69.2039 71.8095 70.6594 72.7375 71.8265C69.5559 72.4087 67.1328 75.1885 67.1328 78.5355V88.1021C67.1328 88.8565 67.7451 89.4688 68.4995 89.4688H87.6328C88.3872 89.4688 88.9995 88.8565 88.9995 88.1021V78.5355C88.9995 75.1885 86.5764 72.4087 83.3948 71.8265ZM78.0661 63.5021C80.3266 63.5021 82.1661 65.3417 82.1661 67.6021C82.1661 69.8626 80.3266 71.7021 78.0661 71.7021C75.8057 71.7021 73.9661 69.8626 73.9661 67.6021C73.9661 65.3417 75.8057 63.5021 78.0661 63.5021ZM86.2661 86.7355H69.8661V78.5355C69.8661 76.275 71.7057 74.4355 73.9661 74.4355H82.1661C84.4266 74.4355 86.2661 76.275 86.2661 78.5355V86.7355Z" fill="#44AB64"></path><path d="M19.3 89.4687C26.0814 89.4687 31.6 83.9501 31.6 77.1687C31.6 70.3873 26.0814 64.8687 19.3 64.8687C12.5186 64.8687 7 70.3873 7 77.1687C7 83.9501 12.5186 89.4687 19.3 89.4687ZM19.3 67.602C24.5753 67.602 28.8667 71.8933 28.8667 77.1687C28.8667 82.444 24.5753 86.7353 19.3 86.7353C14.0247 86.7353 9.73333 82.444 9.73333 77.1687C9.73333 71.8933 14.0247 67.602 19.3 67.602Z" fill="#44AB64"></path><path d="M19.2992 81.2688C18.5462 81.2688 17.9326 80.6551 17.9326 79.9021H15.1992C15.1992 81.6815 16.3459 83.1848 17.9326 83.7506V85.3687H20.6659V83.7506C22.2526 83.1848 23.3992 81.6815 23.3992 79.9021C23.3992 77.6416 21.5597 75.8021 19.2992 75.8021C18.5462 75.8021 17.9326 75.1884 17.9326 74.4354C17.9326 73.6824 18.5462 73.0687 19.2992 73.0687C20.0523 73.0687 20.6659 73.6824 20.6659 74.4354H23.3992C23.3992 72.656 22.2526 71.1527 20.6659 70.5869V68.9688H17.9326V70.5869C16.3459 71.1527 15.1992 72.656 15.1992 74.4354C15.1992 76.6959 17.0388 78.5354 19.2992 78.5354C20.0523 78.5354 20.6659 79.149 20.6659 79.9021C20.6659 80.6551 20.0523 81.2688 19.2992 81.2688Z" fill="#44AB64"></path><path d="M63.0326 78.5354C63.0326 78.1364 62.859 77.7578 62.5556 77.4981L52.9889 69.2981C52.5844 68.9524 52.0159 68.8731 51.528 69.0945C51.0442 69.3173 50.7326 69.8011 50.7326 70.3354V73.0688H37.0659C36.3115 73.0688 35.6992 73.681 35.6992 74.4354V82.6354C35.6992 83.3898 36.3115 84.0021 37.0659 84.0021H50.7326V86.7354C50.7326 87.2698 51.0442 87.7536 51.528 87.9777C51.7111 88.0611 51.9052 88.1021 52.0992 88.1021C52.419 88.1021 52.7361 87.9887 52.9889 87.7727L62.5556 79.5727C62.859 79.3131 63.0326 78.9345 63.0326 78.5354ZM53.4659 83.7643V82.6354C53.4659 81.881 52.8536 81.2688 52.0992 81.2688H38.4326V75.8021H52.0992C52.8536 75.8021 53.4659 75.1898 53.4659 74.4354V73.3066L59.5653 78.5354L53.4659 83.7643Z" fill="#44AB64"></path><path d="M20.6672 59.4021H75.3339C82.1153 59.4021 87.6339 53.8835 87.6339 47.1021V19.7688C87.6339 12.9873 82.1153 7.46875 75.3339 7.46875H20.6672C13.8858 7.46875 8.36719 12.9873 8.36719 19.7688V47.1021C8.36719 53.8835 13.8858 59.4021 20.6672 59.4021ZM11.1005 19.7688C11.1005 14.4934 15.3919 10.2021 20.6672 10.2021H75.3339C80.6092 10.2021 84.9005 14.4934 84.9005 19.7688V47.1021C84.9005 52.3774 80.6092 56.6688 75.3339 56.6688H20.6672C15.3919 56.6688 11.1005 52.3774 11.1005 47.1021V19.7688Z" fill="#44AB64"></path></svg>