<svg xmlns="http://www.w3.org/2000/svg" width="126" height="96" viewBox="0 0 126 96" fill="none"><g clip-path="url(#clip0_363_330)"><path d="M11.076 65.16C11.604 65.286 12.321 65.937 12.528 66.531L13.578 69.063C13.815 69.549 13.77 70.512 13.488 70.974L9.297 77.826C8.4 79.296 8.586 81.378 9.792 82.728L13.341 86.274C14.577 87.372 16.758 87.57 18.18 86.709L25.032 82.518C25.461 82.254 26.382 82.161 27.027 82.464L29.556 83.508C30.066 83.685 30.717 84.399 30.843 84.927L32.724 92.739C33.123 94.395 34.704 95.757 36.402 95.913C36.402 95.913 37.443 96.009 39.003 96.009C40.563 96.009 41.604 95.913 41.607 95.913C42.4671 95.8132 43.2774 95.4572 43.9327 94.8912C44.588 94.3253 45.0581 93.5754 45.282 92.739L47.166 84.927C47.292 84.402 47.94 83.685 48.534 83.478L51.066 82.428C51.513 82.209 52.548 82.254 52.977 82.518L59.829 86.709C60.432 87.078 61.152 87.273 61.917 87.273C62.952 87.273 63.954 86.91 64.731 86.217L68.277 82.668C68.838 82.0039 69.1807 81.183 69.2585 80.3172C69.3364 79.4513 69.1455 78.5825 68.712 77.829L64.521 70.977C64.239 70.515 64.194 69.552 64.467 68.982L65.511 66.453C65.688 65.943 66.402 65.292 66.93 65.166L74.742 63.285C75.5769 63.0572 76.3249 62.5856 76.8903 61.9304C77.4557 61.2752 77.8128 60.4662 77.916 59.607C77.916 59.607 78.012 58.566 78.012 57.006C78.012 55.446 77.916 54.405 77.916 54.402C77.8128 53.5428 77.4557 52.7338 76.8903 52.0786C76.3249 51.4234 75.5769 50.9518 74.742 50.724L66.933 48.846C66.405 48.72 65.688 48.069 65.481 47.475L64.431 44.943C64.194 44.457 64.239 43.494 64.521 43.032L68.712 36.18C69.609 34.71 69.423 32.628 68.217 31.278L64.668 27.732C63.429 26.631 61.245 26.433 59.829 27.297L52.977 31.488C52.548 31.749 51.624 31.848 50.982 31.542L48.453 30.498C47.943 30.321 47.295 29.607 47.169 29.079L45.285 21.267C45.0572 20.4321 44.5856 19.6841 43.9304 19.1187C43.2752 18.5533 42.4662 18.1962 41.607 18.093C41.601 18.096 40.56 18 39 18C37.44 18 36.399 18.096 36.396 18.096C35.5368 18.1992 34.7278 18.5563 34.0726 19.1217C33.4174 19.6871 32.9458 20.4351 32.718 21.27L30.84 29.076C30.714 29.604 30.063 30.321 29.469 30.528L26.937 31.578C26.487 31.797 25.455 31.749 25.026 31.488L18.177 27.297C16.758 26.433 14.622 26.583 13.275 27.789L9.729 31.338C9.16803 32.0021 8.82531 32.823 8.74747 33.6888C8.66964 34.5547 8.86047 35.4235 9.294 36.177L13.485 43.029C13.767 43.491 13.812 44.454 13.539 45.024L12.495 47.553C12.318 48.063 11.604 48.714 11.076 48.84L3.264 50.721C2.4291 50.9488 1.68111 51.4204 1.11571 52.0756C0.550303 52.7308 0.193176 53.5397 0.09 54.399C0.096 54.399 0 55.44 0 57C0 58.56 0.096 59.601 0.096 59.604C0.199176 60.4632 0.556303 61.2722 1.12171 61.9274C1.68711 62.5826 2.4351 63.0542 3.27 63.282L11.076 65.16ZM3 57C3 55.626 3.081 54.699 3.084 54.669C3.13286 54.436 3.23992 54.2192 3.39519 54.0387C3.55046 53.8583 3.7489 53.7201 3.972 53.637L11.784 51.756C13.299 51.39 14.826 50.004 15.3 48.615L16.272 46.254C16.956 44.853 16.86 42.795 16.047 41.463L11.856 34.614C11.655 34.281 11.712 33.621 11.91 33.396L15.333 29.97C15.606 29.727 16.302 29.667 16.614 29.856L23.466 34.047C24.765 34.842 26.991 34.896 28.17 34.311L30.534 33.333C32.007 32.826 33.393 31.299 33.759 29.781L35.637 21.972C35.7196 21.7483 35.8577 21.5493 36.0381 21.3935C36.2186 21.2376 36.4357 21.1301 36.669 21.081C36.699 21.081 37.626 21 39 21C40.374 21 41.301 21.081 41.331 21.084C41.564 21.1329 41.7808 21.2399 41.9613 21.3952C42.1417 21.5505 42.2799 21.7489 42.363 21.972L44.244 29.781C44.61 31.296 45.993 32.826 47.385 33.3L49.746 34.272C51.117 34.944 53.241 34.839 54.537 34.047L61.386 29.856C61.698 29.667 62.436 29.766 62.604 29.91L66.03 33.333C66.288 33.624 66.345 34.281 66.144 34.614L61.953 41.466C61.14 42.795 61.044 44.856 61.689 46.17L62.667 48.534C63.174 50.007 64.701 51.393 66.219 51.759L74.028 53.637C74.2517 53.7196 74.4507 53.8577 74.6065 54.0381C74.7624 54.2186 74.8699 54.4357 74.919 54.669C74.919 54.699 75 55.626 75 57C75 58.374 74.919 59.301 74.916 59.331C74.8671 59.564 74.7601 59.7808 74.6048 59.9613C74.4495 60.1417 74.2511 60.2799 74.028 60.363L66.216 62.244C64.701 62.61 63.174 63.996 62.7 65.385L61.728 67.746C61.044 69.147 61.14 71.205 61.953 72.537L66.144 79.386C66.345 79.719 66.288 80.379 66.09 80.604L62.667 84.03C62.4499 84.1917 62.1845 84.2752 61.914 84.267C61.7313 84.2724 61.5503 84.23 61.389 84.144L54.537 79.953C53.241 79.161 51.015 79.104 49.833 79.689L47.469 80.667C45.996 81.174 44.61 82.704 44.247 84.219L42.366 92.028C42.2834 92.2517 42.1453 92.4507 41.9649 92.6065C41.7844 92.7624 41.5673 92.8699 41.334 92.919C41.301 92.919 40.374 93 39 93C37.626 93 36.699 92.919 36.669 92.916C36.436 92.8671 36.2192 92.7601 36.0387 92.6048C35.8583 92.4495 35.7201 92.2511 35.637 92.028L33.756 84.216C33.39 82.701 32.004 81.174 30.615 80.7L28.254 79.728C27.5838 79.4125 26.8496 79.2564 26.109 79.272C25.122 79.272 24.183 79.515 23.463 79.956L16.614 84.147C16.302 84.336 15.561 84.234 15.396 84.093L11.97 80.667C11.712 80.376 11.655 79.719 11.856 79.386L16.047 72.534C16.86 71.205 16.956 69.144 16.311 67.83L15.333 65.466C14.826 63.993 13.299 62.607 11.781 62.241L3.972 60.363C3.74834 60.2804 3.54929 60.1423 3.39347 59.9619C3.23765 59.7814 3.13014 59.5643 3.081 59.331C3.081 59.301 3 58.374 3 57Z" fill="#44AB64"></path><path d="M39 73.5001C48.099 73.5001 55.5 66.0991 55.5 57.0001C55.5 47.9011 48.099 40.5001 39 40.5001C29.901 40.5001 22.5 47.9011 22.5 57.0001C22.5 66.0991 29.901 73.5001 39 73.5001ZM39 43.5001C46.443 43.5001 52.5 49.5571 52.5 57.0001C52.5 64.4431 46.443 70.5001 39 70.5001C31.557 70.5001 25.5 64.4431 25.5 57.0001C25.5 49.5571 31.557 43.5001 39 43.5001ZM82.431 15.9421C82.2302 16.169 81.9544 16.316 81.654 16.3561L76.071 16.3021C75.382 16.3204 74.714 16.5428 74.1516 16.9412C73.5892 17.3397 73.1577 17.8961 72.912 18.5401C72.912 18.5401 72.666 19.2391 72.396 20.3101C72.126 21.3811 72.012 22.1131 72.012 22.1131C71.802 23.4661 72.555 24.9631 73.764 25.5961L78.687 28.1761C78.9498 28.377 79.1275 28.6693 79.185 28.9951L79.464 30.9001C79.4807 31.2009 79.3915 31.4981 79.212 31.7401L75.246 35.6281C74.253 36.6001 73.992 38.2621 74.676 39.5671L76.473 42.5671C77.232 43.6831 78.876 44.2531 80.166 43.8511L85.638 42.1771C85.935 42.1771 86.232 42.2911 86.4 42.4261L87.945 43.5661C88.1698 43.7685 88.3164 44.0435 88.359 44.3431L88.305 49.8991C88.293 51.2671 89.253 52.6381 90.543 53.0881C90.543 53.0881 91.242 53.3341 92.313 53.6041C93.384 53.8741 94.116 53.9881 94.116 53.9881C94.194 54.0001 94.506 54.0241 94.584 54.0241C95.1992 54.0164 95.8015 53.8472 96.3307 53.5334C96.8598 53.2196 97.2972 52.7722 97.599 52.2361L100.179 47.3131C100.38 47.0503 100.672 46.8726 100.998 46.8151L102.987 46.5271C103.287 46.5271 103.641 46.6831 103.74 46.7851L107.628 50.7511C108.573 51.7171 110.166 52.0621 111.567 51.3211L114.564 49.5241C115.71 48.7441 116.265 47.1541 115.851 45.8311L114.195 40.5301C114.15 40.2005 114.234 39.8663 114.429 39.5971L115.569 38.0521C115.77 37.8251 116.046 37.6782 116.346 37.6381L121.929 37.6921C122.618 37.6738 123.286 37.4513 123.848 37.0529C124.411 36.6545 124.842 36.098 125.088 35.4541C125.088 35.4541 125.334 34.7551 125.604 33.6841C125.874 32.6131 125.988 31.8811 125.988 31.8811C126.077 31.192 125.958 30.4919 125.646 29.8712C125.333 29.2504 124.842 28.7374 124.236 28.3981L119.313 25.8181C119.05 25.6171 118.873 25.3248 118.815 24.9991L118.539 23.1001C118.522 22.7992 118.611 22.5021 118.791 22.2601L122.757 18.3721C123.75 17.4001 124.011 15.7381 123.327 14.4331L121.53 11.4331C120.771 10.3201 119.13 9.74407 117.837 10.1461L112.362 11.8201C112.088 11.8201 111.821 11.7329 111.6 11.5711L110.055 10.4311C109.83 10.2286 109.684 9.95361 109.641 9.65407L109.695 4.09807C109.683 3.40392 109.463 2.72933 109.064 2.16104C108.665 1.59275 108.106 1.15675 107.457 0.909074C107.457 0.909074 106.758 0.663074 105.687 0.393074C104.616 0.123074 103.884 0.00907422 103.884 0.00907422C103.728 -0.00599067 103.572 -0.0169944 103.416 -0.0239258C102.801 -0.0162632 102.198 0.152953 101.669 0.466764C101.14 0.780576 100.703 1.22796 100.401 1.76407L97.821 6.68707C97.62 6.94983 97.3278 7.12756 97.002 7.18507L95.013 7.47007C94.7414 7.4636 94.4785 7.37351 94.26 7.21207L90.372 3.24607C89.8643 2.73961 89.2067 2.41055 88.497 2.30785C87.7873 2.20515 87.0634 2.33429 86.433 2.67607L83.433 4.47007C82.287 5.25007 81.732 6.84007 82.146 8.16307L83.802 13.4641C83.8472 13.7936 83.7634 14.1279 83.568 14.3971L82.431 15.9421ZM84.891 17.6581L85.92 16.2601C86.724 15.3091 87.036 13.7581 86.664 12.5731L85.011 7.27507C84.996 7.19107 85.062 7.00207 85.047 6.99907L87.891 5.29507L88.23 5.34607L92.121 9.31207C92.811 10.0141 93.948 10.4701 95.016 10.4701C95.2214 10.4721 95.4265 10.453 95.628 10.4131L97.353 10.1581C98.0004 10.0779 98.6203 9.84799 99.1634 9.4866C99.7065 9.12521 100.158 8.64228 100.482 8.07607L103.059 3.15607C103.154 3.05531 103.281 2.99064 103.419 2.97307C103.452 2.97607 104.064 3.07807 104.958 3.30007C105.849 3.52507 106.437 3.72607 106.464 3.73807C106.557 3.77707 106.692 3.97207 106.698 4.06807L106.644 9.62407C106.632 10.8661 107.379 12.2611 108.345 12.8911L109.74 13.9201C110.667 14.7031 112.257 15.0331 113.427 14.6641L118.749 13.0081C118.875 13.0081 119.016 13.0861 118.998 13.0471L120.702 15.8911C120.735 15.9691 120.702 16.1671 120.651 16.2301L116.685 20.1211C115.8 20.9941 115.341 22.5061 115.584 23.6281L115.836 25.3531C115.944 26.5891 116.82 27.9061 117.921 28.4821L122.841 31.0591C122.942 31.1543 123.006 31.2815 123.024 31.4191C122.937 31.9366 122.828 32.4501 122.697 32.9581C122.573 33.4662 122.427 33.9687 122.259 34.4641C122.22 34.5571 122.025 34.6921 121.929 34.6981L116.343 34.6441C115.11 34.6441 113.73 35.3911 113.106 36.3451L112.08 37.7401C111.676 38.2534 111.398 38.8545 111.269 39.4949C111.139 40.1354 111.163 40.7972 111.336 41.4271L112.989 46.7251C113.004 46.8061 112.938 46.9981 112.953 47.0011L110.109 48.7051L109.77 48.6541L105.879 44.6881C105.189 43.9861 104.052 43.5301 102.984 43.5301C102.779 43.5281 102.574 43.5472 102.372 43.5871L100.647 43.8421C99.9996 43.9223 99.3797 44.1522 98.8366 44.5136C98.2935 44.8749 97.842 45.3579 97.518 45.9241L94.941 50.8441C94.8457 50.9448 94.7185 51.0095 94.581 51.0271C94.0635 50.9406 93.55 50.8315 93.042 50.7001C92.5339 50.576 92.0314 50.4299 91.536 50.2621C91.443 50.2231 91.308 50.0281 91.302 49.9321L91.356 44.3761C91.368 43.1341 90.621 41.7391 89.655 41.1091L88.26 40.0801C87.7463 39.6754 87.1447 39.3973 86.5037 39.268C85.8627 39.1388 85.2003 39.1621 84.57 39.3361L79.248 40.9921C79.119 40.9921 78.978 40.9231 78.999 40.9531L77.295 38.1091C77.262 38.0311 77.295 37.8331 77.346 37.7701L81.312 33.8791C82.197 33.0061 82.656 31.4941 82.413 30.3721L82.161 28.6501C82.0805 28.0024 81.8501 27.3824 81.4882 26.8392C81.1263 26.2961 80.6428 25.8448 80.076 25.5211L75.156 22.9441C75.0552 22.8488 74.9906 22.7216 74.973 22.5841C74.976 22.5511 75.078 21.9391 75.3 21.0451C75.525 20.1541 75.726 19.5661 75.738 19.5391C75.777 19.4461 75.972 19.3111 76.068 19.3051L81.654 19.3591C82.887 19.3591 84.267 18.6121 84.891 17.6581Z" fill="#44AB64"></path><path d="M99 36C103.962 36 108 31.962 108 27C108 22.038 103.962 18 99 18C94.038 18 90 22.038 90 27C90 31.962 94.038 36 99 36ZM99 21C102.309 21 105 23.691 105 27C105 30.309 102.309 33 99 33C95.691 33 93 30.309 93 27C93 23.691 95.691 21 99 21Z" fill="#44AB64"></path></g><defs><clipPath id="clip0_363_330"><rect width="126" height="96" fill="white"></rect></clipPath></defs></svg>