<svg xmlns="http://www.w3.org/2000/svg" width="134" height="135" viewBox="0 0 134 135" fill="none"><path d="M67 92.55C71.3399 92.55 75.5021 90.8432 78.5708 87.8051C81.6396 84.767 83.3636 80.6465 83.3636 76.35C83.3636 72.0535 81.6396 67.933 78.5708 64.8949C75.5021 61.8568 71.3399 60.15 67 60.15C62.6601 60.15 58.4979 61.8568 55.4292 64.8949C52.3604 67.933 50.6364 72.0535 50.6364 76.35C50.6364 80.6465 52.3604 84.767 55.4292 87.8051C58.4979 90.8432 62.6601 92.55 67 92.55ZM67 92.55C60.4901 92.55 54.2469 95.1102 49.6437 99.6673C45.0406 104.224 42.4545 110.405 42.4545 116.85V129M67 92.55C73.5099 92.55 79.7531 95.1102 84.3563 99.6673C88.9594 104.224 91.5455 110.405 91.5455 116.85V129M71.0909 60.15C72.7436 53.4108 79.3341 48 87.4545 48C96.34 48 103.736 55.2495 103.818 64.2C103.736 73.1505 96.34 80.4 87.4545 80.4M87.4545 80.4H83.3636M87.4545 80.4C100.905 80.4 112 91.2783 112 104.7V112.8M62.9091 60.15C61.2564 53.4108 54.6659 48 46.5455 48C37.66 48 30.2636 55.2495 30.1818 64.2C30.2636 73.1505 37.66 80.4 46.5455 80.4M46.5455 80.4H50.6364M46.5455 80.4C33.0945 80.4 22 91.2783 22 104.7V112.8" stroke="#44AB64" stroke-width="5"></path><g clip-path="url(#clip0_398_475)"><path d="M31.1532 21.408C32.4202 19.136 33.0532 18 34.0002 18C34.9472 18 35.5802 19.136 36.8472 21.408L37.1752 21.996C37.5352 22.642 37.7152 22.965 37.9952 23.178C38.2752 23.391 38.6252 23.47 39.3252 23.628L39.9612 23.772C42.4212 24.329 43.6502 24.607 43.9432 25.548C44.2352 26.488 43.3972 27.469 41.7202 29.43L41.2862 29.937C40.8102 30.494 40.5712 30.773 40.4642 31.117C40.3572 31.462 40.3932 31.834 40.4652 32.577L40.5312 33.254C40.7842 35.871 40.9112 37.179 40.1452 37.76C39.3792 38.341 38.2272 37.811 35.9252 36.751L35.3282 36.477C34.6742 36.175 34.3472 36.025 34.0002 36.025C33.6532 36.025 33.3262 36.175 32.6722 36.477L32.0762 36.751C29.7732 37.811 28.6212 38.341 27.8562 37.761C27.0892 37.179 27.2162 35.871 27.4692 33.254L27.5352 32.578C27.6072 31.834 27.6432 31.462 27.5352 31.118C27.4292 30.773 27.1902 30.494 26.7142 29.938L26.2802 29.43C24.6032 27.47 23.7652 26.489 24.0572 25.548C24.3492 24.607 25.5802 24.328 28.0402 23.772L28.6762 23.628C29.3752 23.47 29.7242 23.391 30.0052 23.178C30.2862 22.965 30.4652 22.642 30.8252 21.996L31.1532 21.408Z" stroke="#44AB64" stroke-width="3.5"></path></g><g clip-path="url(#clip1_398_475)"><path d="M64.1532 11.408C65.4202 9.136 66.0532 8 67.0002 8C67.9472 8 68.5802 9.136 69.8472 11.408L70.1752 11.996C70.5352 12.642 70.7152 12.965 70.9952 13.178C71.2752 13.391 71.6252 13.47 72.3252 13.628L72.9612 13.772C75.4212 14.329 76.6502 14.607 76.9432 15.548C77.2352 16.488 76.3972 17.469 74.7202 19.43L74.2862 19.937C73.8102 20.494 73.5712 20.773 73.4642 21.117C73.3572 21.462 73.3932 21.834 73.4652 22.577L73.5312 23.254C73.7842 25.871 73.9112 27.179 73.1452 27.76C72.3792 28.341 71.2272 27.811 68.9252 26.751L68.3282 26.477C67.6742 26.175 67.3472 26.025 67.0002 26.025C66.6532 26.025 66.3262 26.175 65.6722 26.477L65.0762 26.751C62.7732 27.811 61.6212 28.341 60.8562 27.761C60.0892 27.179 60.2162 25.871 60.4692 23.254L60.5352 22.578C60.6072 21.834 60.6432 21.462 60.5352 21.118C60.4292 20.773 60.1902 20.494 59.7142 19.938L59.2802 19.43C57.6032 17.47 56.7652 16.489 57.0572 15.548C57.3492 14.607 58.5802 14.328 61.0402 13.772L61.6762 13.628C62.3752 13.47 62.7242 13.391 63.0052 13.178C63.2862 12.965 63.4652 12.642 63.8252 11.996L64.1532 11.408Z" stroke="#44AB64" stroke-width="3.5"></path></g><g clip-path="url(#clip2_398_475)"><path d="M97.1532 21.408C98.4202 19.136 99.0532 18 100 18C100.947 18 101.58 19.136 102.847 21.408L103.175 21.996C103.535 22.642 103.715 22.965 103.995 23.178C104.275 23.391 104.625 23.47 105.325 23.628L105.961 23.772C108.421 24.329 109.65 24.607 109.943 25.548C110.235 26.488 109.397 27.469 107.72 29.43L107.286 29.937C106.81 30.494 106.571 30.773 106.464 31.117C106.357 31.462 106.393 31.834 106.465 32.577L106.531 33.254C106.784 35.871 106.911 37.179 106.145 37.76C105.379 38.341 104.227 37.811 101.925 36.751L101.328 36.477C100.674 36.175 100.347 36.025 100 36.025C99.6532 36.025 99.3262 36.175 98.6722 36.477L98.0762 36.751C95.7732 37.811 94.6212 38.341 93.8562 37.761C93.0892 37.179 93.2162 35.871 93.4692 33.254L93.5352 32.578C93.6072 31.834 93.6432 31.462 93.5352 31.118C93.4292 30.773 93.1902 30.494 92.7142 29.938L92.2802 29.43C90.6032 27.47 89.7652 26.489 90.0572 25.548C90.3492 24.607 91.5802 24.328 94.0402 23.772L94.6762 23.628C95.3752 23.47 95.7242 23.391 96.0052 23.178C96.2862 22.965 96.4652 22.642 96.8252 21.996L97.1532 21.408Z" stroke="#44AB64" stroke-width="3.5"></path></g><defs><clipPath id="clip0_398_475"><rect width="24" height="24" fill="white" transform="translate(22 16)"></rect></clipPath><clipPath id="clip1_398_475"><rect width="24" height="24" fill="white" transform="translate(55 6)"></rect></clipPath><clipPath id="clip2_398_475"><rect width="24" height="24" fill="white" transform="translate(88 16)"></rect></clipPath></defs></svg>