<svg xmlns="http://www.w3.org/2000/svg" width="96" height="96" viewBox="0 0 96 96" fill="none"><path d="M37.4958 25.632C34.0158 25.766 30.8698 27.008 29.1878 28.692C29.002 28.8777 28.7814 29.025 28.5387 29.1254C28.296 29.2259 28.0358 29.2775 27.7731 29.2774C27.5104 29.2773 27.2503 29.2255 27.0077 29.1249C26.765 29.0243 26.5445 28.8768 26.3588 28.691C26.1732 28.5052 26.0259 28.2846 25.9254 28.0419C25.825 27.7991 25.7733 27.539 25.7734 27.2763C25.7735 27.0136 25.8254 26.7535 25.926 26.5108C26.0266 26.2682 26.174 26.0477 26.3598 25.862C28.9538 23.268 33.1778 21.796 37.3398 21.634C41.5298 21.472 46.1038 22.618 49.3078 25.822C49.6829 26.1973 49.8934 26.7062 49.8932 27.2367C49.8931 27.7673 49.6821 28.276 49.3068 28.651C48.9316 29.026 48.4227 29.2366 47.8921 29.2364C47.3616 29.2362 46.8529 29.0253 46.4778 28.65C44.2978 26.468 40.9498 25.496 37.4958 25.63" fill="#44AB64"></path><path fill-rule="evenodd" clip-rule="evenodd" d="M54.768 57.872C50.0815 61.8373 44.1389 64.0091 38 64C23.64 64 12 52.36 12 38C12 23.64 23.64 12 38 12C52.36 12 64 23.64 64 38C64 44.39 61.696 50.24 57.872 54.768L62.288 54L82.856 74.568C84.382 76.094 84.382 78.568 82.856 80.092L80.092 82.856C78.566 84.382 76.092 84.382 74.568 82.856L54 62.288L54.768 57.872ZM60 38C60 50.15 50.15 60 38 60C25.85 60 16 50.15 16 38C16 25.85 25.85 16 38 16C50.15 16 60 25.85 60 38ZM74.498 71.866L60.928 58.296L58.688 58.686L58.296 60.928L71.906 74.538L74.498 71.866ZM74.734 77.366L77.33 79.962L79.962 77.33L77.326 74.694L74.734 77.366Z" fill="#44AB64"></path></svg>