<svg xmlns="http://www.w3.org/2000/svg" width="96" height="96" viewBox="0 0 96 96" fill="none"><path d="M68.0016 43.22C68.0016 41.836 68.0016 41.144 68.2096 40.528C68.8136 38.736 70.4096 38.044 72.0096 37.316C73.8016 36.496 74.6976 36.088 75.5896 36.016C76.5976 35.936 77.6096 36.152 78.4736 36.636C79.6176 37.276 80.4176 38.5 81.2336 39.492C85.0056 44.076 86.8936 46.368 87.5816 48.892C88.1416 50.932 88.1416 53.068 87.5816 55.104C86.5776 58.792 83.3976 61.88 81.0416 64.744C79.8376 66.204 79.2336 66.936 78.4736 67.364C77.5947 67.8514 76.5911 68.0671 75.5896 67.984C74.6976 67.912 73.8016 67.504 72.0056 66.684C70.4056 65.956 68.8136 65.264 68.2096 63.472C68.0016 62.856 68.0016 62.164 68.0016 60.78V43.22ZM28.0016 43.22C28.0016 41.476 27.9536 39.912 26.5456 38.688C26.0336 38.244 25.3536 37.936 23.9976 37.316C22.2016 36.5 21.3056 36.088 20.4136 36.016C17.7456 35.8 16.3096 37.624 14.7736 39.496C10.9976 44.076 9.10959 46.368 8.41759 48.896C7.8608 50.9292 7.8608 53.0748 8.41759 55.108C9.42559 58.792 12.6096 61.884 14.9616 64.744C16.4456 66.544 17.8656 68.188 20.4136 67.984C21.3056 67.912 22.2016 67.504 23.9976 66.684C25.3576 66.068 26.0336 65.756 26.5456 65.312C27.9536 64.088 28.0016 62.524 28.0016 60.784V43.22Z" stroke="#44AB64" stroke-width="3.5"></path><path d="M20 36C20 22.744 32.536 12 48 12C63.464 12 76 22.744 76 36" stroke="#44AB64" stroke-width="3.5" stroke-linecap="square" stroke-linejoin="round"></path><path d="M76 68V71.2C76 78.268 68.84 84 60 84H52" stroke="#44AB64" stroke-width="3.5" stroke-linecap="round" stroke-linejoin="round"></path></svg>