<svg xmlns="http://www.w3.org/2000/svg" width="96" height="97" viewBox="0 0 96 97" fill="none"><path d="M68.0016 43.6887C68.0016 42.3047 68.0016 41.6127 68.2096 40.9967C68.8136 39.2047 70.4096 38.5127 72.0096 37.7847C73.8016 36.9647 74.6976 36.5567 75.5896 36.4847C76.5976 36.4047 77.6096 36.6207 78.4736 37.1047C79.6176 37.7447 80.4176 38.9687 81.2336 39.9607C85.0056 44.5447 86.8936 46.8367 87.5816 49.3607C88.1416 51.4007 88.1416 53.5367 87.5816 55.5727C86.5776 59.2607 83.3976 62.3487 81.0416 65.2127C79.8376 66.6727 79.2336 67.4047 78.4736 67.8327C77.5947 68.3201 76.5911 68.5359 75.5896 68.4527C74.6976 68.3807 73.8016 67.9727 72.0056 67.1527C70.4056 66.4247 68.8136 65.7327 68.2096 63.9407C68.0016 63.3247 68.0016 62.6327 68.0016 61.2487V43.6887ZM28.0016 43.6887C28.0016 41.9447 27.9536 40.3807 26.5456 39.1567C26.0336 38.7127 25.3536 38.4047 23.9976 37.7847C22.2016 36.9687 21.3056 36.5567 20.4136 36.4847C17.7456 36.2687 16.3096 38.0927 14.7736 39.9647C10.9976 44.5447 9.10959 46.8367 8.41759 49.3647C7.8608 51.398 7.8608 53.5435 8.41759 55.5767C9.42559 59.2607 12.6096 62.3527 14.9616 65.2127C16.4456 67.0127 17.8656 68.6567 20.4136 68.4527C21.3056 68.3807 22.2016 67.9727 23.9976 67.1527C25.3576 66.5367 26.0336 66.2247 26.5456 65.7807C27.9536 64.5567 28.0016 62.9927 28.0016 61.2527V43.6887Z" stroke="#44AB64" stroke-width="3.5"></path><path d="M20 36.4688C20 23.2128 32.536 12.4688 48 12.4688C63.464 12.4688 76 23.2128 76 36.4688" stroke="#44AB64" stroke-width="3.5" stroke-linecap="square" stroke-linejoin="round"></path><path d="M76 68.4688V71.6687C76 78.7367 68.84 84.4688 60 84.4688H52" stroke="#44AB64" stroke-width="3.5" stroke-linecap="round" stroke-linejoin="round"></path></svg>