<svg xmlns="http://www.w3.org/2000/svg" width="134" height="135" viewBox="0 0 134 135" fill="none"><path d="M19.543 70.3229V109.406C19.543 112.008 19.543 113.309 19.9673 114.336C20.5352 115.702 21.6215 116.786 22.9879 117.351C24.0152 117.781 25.3161 117.781 27.918 117.781C30.5198 117.781 31.8207 117.781 32.8481 117.357C34.2134 116.789 35.2977 115.703 35.8631 114.336C36.293 113.309 36.293 112.008 36.293 109.406V70.3229C36.293 67.7211 36.293 66.4202 35.8686 65.3928C35.3008 64.0275 34.2144 62.9432 32.8481 62.3778C31.8207 61.9479 30.5198 61.9479 27.918 61.9479C25.3161 61.9479 24.0152 61.9479 22.9879 62.3723C21.6225 62.9401 20.5382 64.0264 19.9729 65.3928C19.543 66.4202 19.543 67.7211 19.543 70.3229ZM58.6263 81.4896V109.406C58.6263 112.003 58.6263 113.303 59.0506 114.331C59.6173 115.698 60.7038 116.785 62.0712 117.351C63.0986 117.781 64.3995 117.781 67.0013 117.781C69.6031 117.781 70.9041 117.781 71.9314 117.351C73.2957 116.785 74.3798 115.701 74.9464 114.336C75.3763 113.303 75.3763 112.003 75.3763 109.406V81.4896C75.3763 78.8878 75.3763 77.5868 74.952 76.5595C74.3841 75.1942 73.2978 74.1098 71.9314 73.5445C70.9041 73.1146 69.6031 73.1146 67.0013 73.1146C64.3995 73.1146 63.0986 73.1146 62.0712 73.5389C60.7059 74.1068 59.6216 75.1931 59.0562 76.5595C58.6263 77.5868 58.6263 78.8878 58.6263 81.4896ZM97.7096 59.1563V109.406C97.7096 112.008 97.7096 113.309 98.134 114.336C98.7018 115.702 99.7882 116.786 101.155 117.351C102.182 117.781 103.483 117.781 106.085 117.781C108.686 117.781 109.987 117.781 111.015 117.357C112.38 116.789 113.464 115.703 114.03 114.336C114.46 113.309 114.46 112.008 114.46 109.406V59.1563C114.46 56.5544 114.46 55.2535 114.035 54.2262C113.467 52.8608 112.381 51.7765 111.015 51.2112C109.987 50.7812 108.686 50.7812 106.085 50.7812C103.483 50.7812 102.182 50.7813 101.155 51.2056C99.7892 51.7735 98.7049 52.8598 98.1396 54.2262C97.7096 55.2535 97.7096 56.5544 97.7096 59.1563Z" stroke="#44AB64" stroke-width="5" stroke-linecap="square" stroke-linejoin="round"></path><path d="M35.9747 39.1233L58.9501 45.6893M74.2764 43.83L98.8151 29.8158M36.293 36.8229C36.293 39.0441 35.4106 41.1743 33.84 42.7449C32.2694 44.3156 30.1392 45.1979 27.918 45.1979C25.6968 45.1979 23.5666 44.3156 21.9959 42.7449C20.4253 41.1743 19.543 39.0441 19.543 36.8229C19.543 34.6017 20.4253 32.4715 21.9959 30.9009C23.5666 29.3303 25.6968 28.4479 27.918 28.4479C30.1392 28.4479 32.2694 29.3303 33.84 30.9009C35.4106 32.4715 36.293 34.6017 36.293 36.8229ZM114.46 25.6563C114.46 27.8774 113.577 30.0077 112.007 31.5783C110.436 33.1489 108.306 34.0313 106.085 34.0313C103.863 34.0313 101.733 33.1489 100.163 31.5783C98.592 30.0077 97.7096 27.8774 97.7096 25.6563C97.7096 23.4351 98.592 21.3048 100.163 19.7342C101.733 18.1636 103.863 17.2813 106.085 17.2812C108.306 17.2812 110.436 18.1636 112.007 19.7342C113.577 21.3048 114.46 23.4351 114.46 25.6563ZM75.3763 47.9896C75.3763 50.2108 74.4939 52.341 72.9233 53.9116C71.3527 55.4822 69.2225 56.3646 67.0013 56.3646C64.7801 56.3646 62.6499 55.4822 61.0793 53.9116C59.5087 52.341 58.6263 50.2108 58.6263 47.9896C58.6263 45.7684 59.5087 43.6382 61.0793 42.0676C62.6499 40.4969 64.7801 39.6146 67.0013 39.6146C69.2225 39.6146 71.3527 40.4969 72.9233 42.0676C74.4939 43.6382 75.3763 45.7684 75.3763 47.9896Z" stroke="#44AB64" stroke-width="5"></path></svg>