<svg xmlns="http://www.w3.org/2000/svg" width="96" height="96" viewBox="0 0 96 96" fill="none"><path d="M62 44C62 42.1615 61.6379 40.341 60.9343 38.6424C60.2307 36.9439 59.1995 35.4005 57.8995 34.1005C56.5995 32.8005 55.0561 31.7693 53.3576 31.0657C51.659 30.3621 49.8385 30 48 30C46.1615 30 44.341 30.3621 42.6424 31.0657C40.9439 31.7693 39.4005 32.8005 38.1005 34.1005C36.8005 35.4005 35.7693 36.9439 35.0657 38.6424C34.3621 40.341 34 42.1615 34 44C34 47.713 35.475 51.274 38.1005 53.8995C40.726 56.525 44.287 58 48 58C51.713 58 55.274 56.525 57.8995 53.8995C60.525 51.274 62 47.713 62 44Z" stroke="#44AB64" stroke-width="3.5" stroke-linecap="round" stroke-linejoin="round"></path><path d="M61.9334 45.4C63.2241 45.7973 64.5801 45.9973 66.0014 46M66.0014 46C68.7106 45.9996 71.3614 45.2131 73.6325 43.736C75.9035 42.2589 77.6972 40.1546 78.796 37.6783C79.8948 35.2019 80.2515 32.46 79.8229 29.785C79.3943 27.1099 78.1987 24.6167 76.3812 22.6077C74.5637 20.5987 72.2023 19.1602 69.5834 18.4666C66.9645 17.773 64.2007 17.8542 61.627 18.7002C59.0534 19.5463 56.7805 21.1209 55.084 23.2331C53.3875 25.3454 52.3403 27.9044 52.0694 30.6M66.0014 46C78.1534 46 88.0014 54.956 88.0014 66M43.9334 30.6C43.6442 27.7297 42.4754 25.0188 40.5868 22.8381C38.6983 20.6573 36.1821 19.1133 33.3825 18.4171C30.583 17.7209 27.6367 17.9065 24.9466 18.9486C22.2566 19.9907 19.9542 21.8384 18.3542 24.2389C16.7543 26.6395 15.935 29.4756 16.0084 32.3596C16.0819 35.2435 17.0444 38.0343 18.7644 40.3503C20.4843 42.6663 22.8778 44.3945 25.6174 45.2983C28.357 46.2022 31.3089 46.2377 34.0694 45.4M70.0014 78C70.0014 66.956 60.1534 58 48.0014 58C35.8494 58 26.0014 66.956 26.0014 78" stroke="#44AB64" stroke-width="3.5" stroke-linecap="round" stroke-linejoin="round"></path><path d="M30 46C17.848 46 8 54.956 8 66" stroke="#44AB64" stroke-width="3.5" stroke-linecap="round" stroke-linejoin="round"></path></svg>