<svg xmlns="http://www.w3.org/2000/svg" width="143" height="144" viewBox="0 0 143 144" fill="none"><path d="M122.148 63.0938V116.719C122.148 119.495 122.148 120.884 121.696 121.98C121.09 123.437 119.93 124.594 118.472 125.197C117.376 125.656 115.988 125.656 113.211 125.656C110.434 125.656 109.046 125.656 107.95 125.203C106.493 124.597 105.336 123.438 104.732 121.98C104.273 120.884 104.273 119.495 104.273 116.719V63.0938C104.273 60.3172 104.273 58.9289 104.726 57.8325C105.332 56.3755 106.492 55.2184 107.95 54.615C109.046 54.1562 110.434 54.1562 113.211 54.1562C115.988 54.1562 117.376 54.1563 118.472 54.6091C119.929 55.2151 121.086 56.3744 121.69 57.8325C122.148 58.9289 122.148 60.3172 122.148 63.0938Z" stroke="#44AB64" stroke-width="5" stroke-linejoin="round"></path><path d="M98.3125 18.4062H116.188V36.2813" stroke="#44AB64" stroke-width="8.9375" stroke-linecap="round" stroke-linejoin="round"></path><path d="M113.208 21.3853C113.208 21.3853 89.375 51.1769 26.8125 72.0311" stroke="#44AB64" stroke-width="5" stroke-linecap="round" stroke-linejoin="round"></path><path d="M80.4388 83.9478V116.719C80.4388 119.495 80.4388 120.883 79.986 121.98C79.38 123.437 78.2207 124.594 76.7625 125.197C75.6662 125.656 74.2779 125.656 71.5013 125.656C68.7247 125.656 67.3364 125.656 66.2401 125.203C64.783 124.597 63.6259 123.438 63.0226 121.98C62.5638 120.883 62.5638 119.495 62.5638 116.719V83.9478C62.5638 81.1712 62.5638 79.7829 63.0166 78.6865C63.6227 77.2295 64.7819 76.0724 66.2401 75.469C67.3364 75.0103 68.7247 75.0103 71.5013 75.0103C74.2779 75.0103 75.6662 75.0103 76.7625 75.4631C78.2196 76.0691 79.3767 77.2284 79.98 78.6865C80.4388 79.7829 80.4388 81.1712 80.4388 83.9478ZM38.7305 98.8436V116.719C38.7305 119.495 38.7305 120.883 38.2776 121.98C37.6716 123.437 36.5123 124.594 35.0542 125.197C33.9578 125.656 32.5696 125.656 29.793 125.656C27.0164 125.656 25.6281 125.656 24.5318 125.203C23.0747 124.597 21.9176 123.438 21.3143 121.98C20.8555 120.883 20.8555 119.495 20.8555 116.719V98.8436C20.8555 96.067 20.8555 94.6787 21.3083 93.5824C21.9143 92.1253 23.0736 90.9682 24.5318 90.3649C25.6281 89.9061 27.0164 89.9061 29.793 89.9061C32.5696 89.9061 33.9578 89.9061 35.0542 90.3589C36.5112 90.9649 37.6684 92.1242 38.2717 93.5824C38.7305 94.6787 38.7305 96.067 38.7305 98.8436Z" stroke="#44AB64" stroke-width="5" stroke-linejoin="round"></path></svg>