<svg xmlns="http://www.w3.org/2000/svg" width="96" height="96" viewBox="0 0 96 96" fill="none"><path d="M28 72V64M48 72V60M68 72V52M10 48C10 30.088 10 21.128 15.564 15.564C21.128 10 30.084 10 48 10C65.912 10 74.872 10 80.436 15.564C86 21.128 86 30.084 86 48C86 65.912 86 74.872 80.436 80.436C74.872 86 65.916 86 48 86C30.088 86 21.128 86 15.564 80.436C10 74.872 10 65.916 10 48Z" stroke="#44AB64" stroke-width="3.5" stroke-linecap="round" stroke-linejoin="round"></path><path d="M23.9688 45.9439C32.5887 46.2319 52.1368 44.9319 63.2568 27.2839M55.9687 25.1519L63.4727 23.9439C64.3847 23.8279 65.7287 24.5519 66.0607 25.4119L68.0407 31.9639" stroke="#44AB64" stroke-width="3.5" stroke-linecap="round" stroke-linejoin="round"></path></svg>