<svg xmlns="http://www.w3.org/2000/svg" width="96" height="97" viewBox="0 0 96 97" fill="none"><path d="M56.112 54.25C58.704 51.658 60 50.362 60 48.75C60 47.138 58.704 45.842 56.112 43.25L53.5 40.638C50.908 38.046 49.612 36.75 48 36.75C46.388 36.75 45.092 38.046 42.5 40.638L39.888 43.25C37.296 45.842 36 47.138 36 48.75C36 50.362 37.296 51.658 39.888 54.25L42.5 56.862C45.092 59.454 46.388 60.75 48 60.75C49.612 60.75 50.908 59.454 53.5 56.862L56.112 54.25ZM32 16.75C32 10.13 33.38 8.75 40 8.75H56C62.62 8.75 64 10.13 64 16.75C64 23.37 62.62 24.75 56 24.75H40C33.38 24.75 32 23.37 32 16.75ZM32 80.75C32 74.13 33.38 72.75 40 72.75H56C62.62 72.75 64 74.13 64 80.75C64 87.37 62.62 88.75 56 88.75H40C33.38 88.75 32 87.37 32 80.75Z" stroke="#44AB64" stroke-width="3"></path><path d="M34 48.75H32C24.456 48.75 20.688 48.75 18.344 46.406C16 44.062 16 40.294 16 32.75C16 25.206 16 21.438 18.344 19.094C20.688 16.75 24.456 16.75 32 16.75M62 48.75H64C71.544 48.75 75.312 48.75 77.656 51.094C80 53.438 80 57.206 80 64.75C80 72.294 80 76.062 77.656 78.406C75.312 80.75 71.544 80.75 64 80.75M48 34.75V24.75M48 62.75V72.75" stroke="#44AB64" stroke-width="3" stroke-linecap="round" stroke-linejoin="round"></path></svg>