<svg xmlns="http://www.w3.org/2000/svg" width="96" height="96" viewBox="0 0 96 96" fill="none"><path d="M42.8323 37.166C41.1 37.9934 39.5914 39.2243 38.4333 40.7554C37.2752 42.2865 36.5014 44.0731 36.1767 45.9652C35.8521 47.8573 35.9862 49.7997 36.5677 51.6293C37.1492 53.4589 38.1611 55.1222 39.5186 56.4797C40.8761 57.8372 42.5395 58.8492 44.369 59.4307C46.1986 60.0122 48.141 60.1463 50.0331 59.8216C51.9253 59.497 53.7119 58.7231 55.243 57.565C56.7741 56.4069 58.005 54.8984 58.8323 53.166" stroke="#44AB64" stroke-width="3.5" stroke-linecap="round" stroke-linejoin="round"></path><path d="M56.56 23.44C53.88 22.51 51 22 48 22C33.64 22 22 33.64 22 48C22 62.36 33.64 74 48 74C62.36 74 74 62.36 74 48C74 45 73.492 42.12 72.56 39.44" stroke="#44AB64" stroke-width="3.5" stroke-linecap="round" stroke-linejoin="round"></path><path d="M67.136 12.8661C61.2673 9.66244 54.6861 7.98894 48 8.00005C25.908 8.00005 8 25.9081 8 48.0001C8 70.0921 25.908 88.0001 48 88.0001C70.092 88.0001 88 70.0921 88 48.0001C88.0114 41.3148 86.3386 34.7343 83.136 28.8661M88 8.00005L48 48.0001" stroke="#44AB64" stroke-width="3.5" stroke-linecap="round" stroke-linejoin="round"></path></svg>