<svg xmlns="http://www.w3.org/2000/svg" width="134" height="135" viewBox="0 0 134 135" fill="none"><path d="M61.418 22.8643V56.3643C61.418 62.5338 50.1676 67.5309 36.293 67.5309C22.4184 67.5309 11.168 62.5338 11.168 56.3643V22.8643" stroke="#44AB64" stroke-width="5" stroke-linecap="round" stroke-linejoin="round"></path><path d="M61.418 39.6144C61.418 45.784 50.1676 50.7811 36.293 50.7811C22.4184 50.7811 11.168 45.784 11.168 39.6144M89.3346 17.2811H106.085C109.046 17.2811 111.887 18.4576 113.981 20.5517C116.075 22.6459 117.251 25.4862 117.251 28.4478V45.1978M44.668 117.781H27.918C24.9564 117.781 22.1161 116.605 20.0219 114.51C17.9278 112.416 16.7513 109.576 16.7513 106.614V89.8644M61.418 22.8644C61.418 29.034 50.1676 34.0311 36.293 34.0311C22.4184 34.0311 11.168 29.034 11.168 22.8644C11.168 16.6948 22.4184 11.6978 36.293 11.6978C50.1676 11.6978 61.418 16.6948 61.418 22.8644Z" stroke="#44AB64" stroke-width="5" stroke-linecap="round" stroke-linejoin="round"></path><path d="M97.7083 95.4479C105.417 95.4479 111.667 89.1986 111.667 81.4896C111.667 73.7806 105.417 67.5312 97.7083 67.5312C89.9994 67.5312 83.75 73.7806 83.75 81.4896C83.75 89.1986 89.9994 95.4479 97.7083 95.4479Z" stroke="#44AB64" stroke-width="5" stroke-linecap="round" stroke-linejoin="round"></path><path d="M122.836 123.364H72.5859C72.5859 120.065 73.2358 116.798 74.4985 113.749C75.7611 110.701 77.6118 107.931 79.9449 105.598C82.278 103.265 85.0477 101.414 88.096 100.152C91.1443 98.8891 94.4115 98.2393 97.7109 98.2393C101.01 98.2393 104.278 98.8891 107.326 100.152C110.374 101.414 113.144 103.265 115.477 105.598C117.81 107.931 119.661 110.701 120.923 113.749C122.186 116.798 122.836 120.065 122.836 123.364Z" stroke="#44AB64" stroke-width="5" stroke-linecap="round" stroke-linejoin="round"></path></svg>