<svg xmlns="http://www.w3.org/2000/svg" width="96" height="83" viewBox="0 0 96 83" fill="none"><path d="M48 5.49995L48.788 3.65995C48.539 3.55321 48.2709 3.49817 48 3.49817C47.7291 3.49817 47.461 3.55321 47.212 3.65995L48 5.49995ZM48 77.4999L47.008 79.2359C47.3101 79.4085 47.6521 79.4993 48 79.4993C48.3479 79.4993 48.6899 79.4085 48.992 79.2359L48 77.4999ZM47.208 3.65995L21.636 14.6199L23.212 18.2999L48.788 7.33995L47.208 3.65995ZM18 20.1399V47.5719H22V20.1399H18ZM31.1 70.1479L47.008 79.2359L48.992 75.7639L33.084 66.6719L31.1 70.1479ZM48.992 79.2359L64.9 70.1479L62.916 66.6719L47.008 75.7639L48.992 79.2359ZM78 47.5719V20.1399H74V47.5799L78 47.5719ZM74.36 14.6239L48.788 3.65995L47.212 7.33995L72.788 18.2999L74.36 14.6239ZM78 20.1399C77.9991 18.9658 77.6538 17.8137 77.0068 16.834C76.3598 15.8542 75.4395 15.0858 74.36 14.6239L72.788 18.2999C73.148 18.4543 73.4548 18.7109 73.6702 19.038C73.8857 19.3651 74.0003 19.7483 74 20.1399H78ZM64.9 70.1479C68.8798 67.8737 72.1877 64.5876 74.4883 60.6229C76.7888 56.6582 78.0003 52.1558 78 47.5719H74C73.9999 51.45 72.9746 55.2592 71.0281 58.6134C69.0816 61.9676 66.283 64.7477 62.916 66.6719L64.9 70.1479ZM18 47.5719C17.9997 52.1558 19.2112 56.6582 21.5117 60.6229C23.8123 64.5876 27.1202 67.8737 31.1 70.1479L33.084 66.6719C29.717 64.7477 26.9184 61.9676 24.9719 58.6134C23.0254 55.2592 22.0001 51.45 22 47.5719H18ZM21.64 14.6239C20.5605 15.0858 19.6402 15.8542 18.9932 16.834C18.3462 17.8137 18.0009 18.9658 18 20.1399H22C22 19.3399 22.48 18.6199 23.212 18.2999L21.64 14.6239Z" fill="#44AB64"></path><path d="M60 33.5L44 49.5L36 41.5" stroke="#44AB64" stroke-width="3" stroke-linecap="round" stroke-linejoin="round"></path></svg>