<svg xmlns="http://www.w3.org/2000/svg" width="96" height="97" viewBox="0 0 96 97" fill="none"><g clip-path="url(#clip0_398_742)"><path d="M65.8795 56.2488C75.9614 56.2488 84.1627 48.46 84.1627 38.8844C84.1627 31.5063 79.117 24.1131 71.4726 20.0931L73.5952 15.1769C74.227 13.7181 73.8633 12.0269 72.6877 10.9713C71.632 10.0169 70.1152 9.88938 68.902 10.66L68.3152 11.0388C68.2551 11.0763 68.2195 11.0763 68.1689 11.0444L67.5633 10.6563C66.5227 9.99063 65.2327 9.99063 64.192 10.6563L63.5939 11.0388C63.5358 11.0763 63.4983 11.0763 63.4533 11.0481L62.8439 10.6544C61.642 9.88938 60.1233 10.0169 59.0714 10.9694C57.8958 12.0288 57.5302 13.72 58.162 15.175L60.2864 20.095C52.6402 24.115 47.5964 31.51 47.5964 38.8863C47.5964 48.46 55.7976 56.2488 65.8795 56.2488ZM61.0814 13.1931C61.1114 13.1669 61.1376 13.1538 61.1658 13.1538C61.1864 13.1538 61.207 13.1613 61.2295 13.1744L61.8445 13.5719C62.8795 14.2244 64.1639 14.2244 65.2064 13.5663L65.812 13.1781C65.8664 13.1425 65.8945 13.1425 65.9489 13.1781L66.5639 13.5719C67.5989 14.2244 68.8833 14.2244 69.9314 13.5625L70.522 13.18C70.582 13.1406 70.6289 13.1444 70.6814 13.1931C70.9026 13.3919 70.9664 13.7013 70.8445 13.9825L68.4408 19.5513C67.6664 19.7388 66.7926 19.8381 65.8814 19.8381C64.9795 19.8381 64.0983 19.7369 63.3201 19.5494L60.9164 13.9806C60.7927 13.7031 60.8564 13.3938 61.0814 13.1931ZM62.3658 22.4031C63.4364 22.6881 64.6514 22.8381 65.8795 22.8381C67.1208 22.8381 68.3264 22.6881 69.397 22.4031C76.4583 25.8288 81.1664 32.3913 81.1664 38.8825C81.1664 46.8044 74.3095 53.2488 65.8814 53.2488C57.4533 53.2488 50.5964 46.8044 50.5964 38.8825C50.5945 32.3913 55.3027 25.8288 62.3658 22.4031ZM95.5233 72.6644C94.7508 70.3638 92.032 68.365 86.722 69.6588L67.7658 74.2731C67.0158 73.4856 65.9583 72.8238 64.5445 72.4075L40.702 65.4081C36.2283 64.0938 32.032 63.9663 27.4927 65.0031L21.2883 66.4188V64.2213C21.2883 62.3538 19.7714 60.835 17.9077 60.835H3.60891C1.74141 60.835 0.222656 62.3538 0.222656 64.2213V91.6356C0.222656 93.4994 1.74141 95.0163 3.60891 95.0163H17.9058C19.7695 95.0163 21.2864 93.4994 21.2864 91.6356V89.5488L41.5645 95.4344C44.0826 96.1656 46.552 96.5331 48.9933 96.5331C52.4545 96.5331 55.8614 95.7963 59.2795 94.3188L91.2239 80.4775C94.612 79.0075 96.5001 75.5763 95.5233 72.6644ZM17.9058 92.0181H3.60891C3.39891 92.0181 3.22078 91.8438 3.22078 91.6356V64.2213C3.22078 64.0113 3.39891 63.8331 3.60891 63.8331H17.9058C18.1139 63.8331 18.2883 64.0113 18.2883 64.2213V87.58V87.5838V91.6356C18.2902 91.8438 18.1139 92.0181 17.9058 92.0181ZM90.0295 77.7269L58.087 91.5663C52.9233 93.7975 47.7933 94.1219 42.4008 92.5544L21.2864 86.4269V69.4938L28.1583 67.9263C32.2327 66.9963 35.8402 67.1069 39.8545 68.2863L63.697 75.2856C64.8127 75.6138 65.497 76.1181 65.872 76.675C65.8927 76.7144 65.9151 76.75 65.9395 76.7875C66.2545 77.3181 66.3014 77.8863 66.1739 78.3888C65.842 79.6881 64.3364 80.8394 61.8108 80.2919L37.7452 75.0775C36.9352 74.9031 36.1383 75.415 35.9639 76.225C35.7895 77.0331 36.3033 77.8319 37.1114 78.0063L61.177 83.2206C61.8352 83.3631 62.4614 83.4288 63.0539 83.4288C66.2977 83.4288 68.4914 81.4375 69.0801 79.1256C69.2508 78.46 69.2845 77.7381 69.1608 77.0181L87.4308 72.5706C90.2245 71.8919 92.2364 72.2931 92.6826 73.6188C93.1008 74.8656 92.1351 76.8138 90.0295 77.7269ZM60.1964 41.8394C59.8776 41.0763 60.2377 40.1969 61.0008 39.8781C61.7639 39.5575 62.6433 39.9194 62.962 40.6825C63.5676 42.1319 64.5464 42.6963 65.2608 42.9156C66.1814 43.1988 67.2033 43.0788 67.9289 42.6044C68.3508 42.3288 68.6301 41.8881 68.6733 41.4288C68.7127 41.0181 68.5645 40.645 68.2289 40.3206C67.882 39.9813 66.9989 39.7731 66.1439 39.5725C64.7864 39.2519 63.097 38.8544 61.8708 37.5981C60.8264 36.5219 60.4064 34.9131 60.7701 33.3981C61.1451 31.8438 62.257 30.6456 63.8208 30.1131C64.0027 30.0513 64.1902 29.9988 64.3777 29.9538V28.3713C64.3777 27.5425 65.0489 26.8731 65.8758 26.8731C66.7027 26.8731 67.3739 27.5444 67.3739 28.3713V29.8956C67.9664 30.0156 68.5308 30.2125 69.037 30.49C70.2708 31.165 71.0977 32.23 71.4277 33.5725C71.6264 34.3769 71.1352 35.1888 70.3308 35.3875C69.5264 35.5863 68.7145 35.095 68.5158 34.2906C68.3883 33.7713 68.0864 33.3888 67.597 33.1206C66.8395 32.7063 65.7089 32.6388 64.7827 32.9538C64.0402 33.2069 63.7739 33.7169 63.6802 34.1013C63.5564 34.6188 63.6877 35.17 64.0139 35.5075C64.627 36.1375 65.6958 36.3888 66.8264 36.655C68.0789 36.9494 69.3745 37.255 70.3158 38.1738C71.3039 39.1338 71.7783 40.3919 71.6508 41.7156C71.5195 43.0731 70.7395 44.3425 69.562 45.1131C68.9058 45.5425 68.1558 45.8256 67.3701 45.9644V47.4456C67.3701 48.2725 66.6989 48.9438 65.872 48.9438C65.0452 48.9438 64.3739 48.2725 64.3739 47.4456V45.7788C62.5064 45.205 61.0195 43.8063 60.1964 41.8394ZM1.72266 53.5919H43.1414C43.9701 53.5919 44.6395 52.9206 44.6395 52.0938C44.6395 51.2669 43.9683 50.5956 43.1414 50.5956H40.3252V22.0206C40.3252 21.1919 39.6539 20.5225 38.827 20.5225H31.9964C31.1677 20.5225 30.4983 21.1938 30.4983 22.0206V50.5938H27.7495V26.9894C27.7495 26.1606 27.0783 25.4913 26.2514 25.4913H19.4208C18.5939 25.4913 17.9227 26.1625 17.9227 26.9894V50.5938H15.1702V35.35C15.1702 34.5213 14.4989 33.8519 13.672 33.8519H6.84141C6.01453 33.8519 5.34328 34.5231 5.34328 35.35V50.5938H3.22078V18.1038C3.22078 17.275 2.54953 16.6056 1.72266 16.6056C0.895781 16.6056 0.224531 17.275 0.224531 18.1038V52.0938C0.224531 52.9206 0.893906 53.5919 1.72266 53.5919ZM33.4964 23.5188H37.3289V50.5938H33.4964V23.5188ZM20.9208 28.4894H24.7533V50.5938H20.9208V28.4894ZM8.33953 36.85H12.172V50.5938H8.33953V36.85ZM7.63641 26.0931C7.13016 25.4369 7.25203 24.4956 7.90828 23.9913L34.3252 3.61376L31.0833 3.67376C30.2545 3.68876 29.572 3.03063 29.557 2.20376C29.542 1.37688 30.2002 0.692506 31.027 0.677506L38.797 0.533131C39.2677 0.521881 39.7214 0.739381 40.0102 1.11626C40.2989 1.49126 40.3945 1.98251 40.267 2.43813L38.1614 9.92126C37.9758 10.5831 37.3739 11.0144 36.7195 11.0144C36.5845 11.0144 36.4495 10.9956 36.3127 10.9581C35.5158 10.7331 35.0508 9.90626 35.2758 9.10938L36.1552 5.98563L9.73828 26.365C9.46641 26.575 9.14391 26.6763 8.82328 26.6763C8.37516 26.6763 7.93266 26.4756 7.63641 26.0931Z" fill="#44AB64"></path></g><defs><clipPath id="clip0_398_742"><rect width="96" height="96" fill="white" transform="translate(0 0.53125)"></rect></clipPath></defs></svg>