<svg xmlns="http://www.w3.org/2000/svg" width="134" height="135" viewBox="0 0 134 135" fill="none"><path d="M18.6276 78.5382C13.7432 83.4226 10.9991 90.0473 10.9991 96.9549C10.9991 103.862 13.7432 110.487 18.6276 115.372C23.512 120.256 30.1367 123 37.0443 123C43.9519 123 50.5765 120.256 55.4609 115.372" stroke="#44AB64" stroke-width="5.26637" stroke-miterlimit="10"></path><path d="M30.9064 90.8155C29.3002 92.4481 28.4042 94.6492 28.4135 96.9395C28.4228 99.2297 29.3367 101.423 30.9562 103.043C32.5756 104.662 34.7694 105.576 37.0596 105.586C39.3499 105.595 41.551 104.699 43.1836 103.093" stroke="#44AB64" stroke-width="5.26637" stroke-miterlimit="10"></path><path d="M60.1975 47.7585V56.4401V47.7585ZM78.6133 55.3874L72.4747 61.526L78.6133 55.3874ZM86.2422 73.8032H77.5606H86.2422Z" fill="#44AB64"></path><path d="M60.1975 47.7585V56.4401M78.6133 55.3874L72.4747 61.526M86.2422 73.8032H77.5606" stroke="#44AB64" stroke-width="5.26637" stroke-miterlimit="10" stroke-linecap="round"></path><path d="M43.1857 103.093L63.6488 82.6312C64.7342 81.5461 66.2062 80.9365 67.7409 80.9365C69.2757 80.9365 70.7477 81.5461 71.833 82.6312L75.9333 86.7224C76.4708 87.2599 76.8973 87.8979 77.1882 88.6002C77.4792 89.3025 77.6289 90.0552 77.6289 90.8154C77.6289 91.5756 77.4792 92.3283 77.1882 93.0306C76.8973 93.7328 76.4708 94.3709 75.9333 94.9084L55.4628 115.372M18.6295 78.5382L39.0927 58.0678C39.6301 57.5302 40.2682 57.1038 40.9705 56.8128C41.6728 56.5219 42.4255 56.3721 43.1857 56.3721C43.9458 56.3721 44.6985 56.5219 45.4008 56.8128C46.1031 57.1038 46.7412 57.5302 47.2787 58.0678L51.3699 62.1608C51.9074 62.6982 52.3339 63.3363 52.6248 64.0386C52.9158 64.7409 53.0655 65.4936 53.0655 66.2538C53.0655 67.0139 52.9158 67.7667 52.6248 68.469C52.3339 69.1712 51.9074 69.8093 51.3699 70.3468L30.9085 90.8154M69.6753 100.937L57.3981 88.6577M45.1209 76.3805L32.8419 64.1033" stroke="#44AB64" stroke-width="5.26637" stroke-linejoin="round"></path><path d="M101.057 53.573C105.811 53.573 110.371 51.6842 113.733 48.3221C117.095 44.96 118.984 40.4001 118.984 35.6454C118.984 30.8907 117.095 26.3307 113.733 22.9686C110.371 19.6066 105.811 17.7178 101.057 17.7178C96.3018 17.7178 91.7419 19.6066 88.3798 22.9686C85.0177 26.3307 83.1289 30.8907 83.1289 35.6454C83.1289 40.4001 85.0177 44.96 88.3798 48.3221C91.7419 51.6842 96.3018 53.573 101.057 53.573Z" stroke="#44AB64" stroke-width="4.2131" stroke-linecap="round" stroke-linejoin="round"></path><path d="M95.3945 40.2368C95.5149 41.6256 96.1755 42.9117 97.2341 43.8186C98.2928 44.7255 99.665 45.1808 101.056 45.0866C105.623 45.0866 106.717 42.4635 106.717 40.2368C106.717 38.01 104.83 35.6511 101.056 35.6511C97.2816 35.6511 95.3945 34.1602 95.3945 31.122C95.4297 30.423 95.6059 29.7384 95.9125 29.1093C96.2192 28.4802 96.6499 27.9196 97.1787 27.4613C97.7076 27.0029 98.3237 26.6563 98.99 26.4422C99.6563 26.2281 100.359 26.151 101.056 26.2155C102.448 26.1556 103.81 26.6305 104.862 27.5429C105.915 28.4552 106.579 29.7358 106.717 31.122M101.056 47.9117V45.4584M101.056 23.3792V26.2079" stroke="#44AB64" stroke-width="4.2131" stroke-linecap="round" stroke-linejoin="round"></path></svg>