<svg xmlns="http://www.w3.org/2000/svg" width="106" height="96" viewBox="0 0 106 96" fill="none"><path d="M20.0117 36.7435L34.5887 25.5723" stroke="#44AB64" stroke-width="3" stroke-miterlimit="10" stroke-linecap="round"></path><path d="M14.7219 48.1225C18.5163 48.1225 21.5923 45.0524 21.5923 41.2653C21.5923 37.4783 18.5163 34.4082 14.7219 34.4082C10.9275 34.4082 7.85156 37.4783 7.85156 41.2653C7.85156 45.0524 10.9275 48.1225 14.7219 48.1225Z" stroke="#44AB64" stroke-width="3" stroke-miterlimit="10" stroke-linecap="round"></path><path d="M98.1479 87.3062V40.2858C98.1479 39.2466 97.7342 38.2499 96.998 37.5151C96.2617 36.7803 95.2632 36.3674 94.2219 36.3674H89.1743C88.1331 36.3674 87.1345 36.7803 86.3983 37.5151C85.662 38.2499 85.2484 39.2466 85.2484 40.2858V83.3878C85.2484 84.4271 84.8348 85.4237 84.0985 86.1585C83.3623 86.8934 82.3637 87.3062 81.3225 87.3062H76.2748C75.2336 87.3062 74.235 86.8934 73.4988 86.1585C72.7625 85.4237 72.3489 84.4271 72.3489 83.3878V59.8776C72.3489 58.8384 71.9353 57.8418 71.199 57.1069C70.4628 56.3721 69.4642 55.9593 68.423 55.9593H63.3754C62.3341 55.9593 61.3356 56.3721 60.5993 57.1069C59.8631 57.8418 59.4494 58.8384 59.4494 59.8776V83.3878C59.4494 84.4271 59.0358 85.4237 58.2996 86.1585C57.5633 86.8934 56.5647 87.3062 55.5235 87.3062H50.4759C49.4347 87.3062 48.4361 86.8934 47.6999 86.1585C46.9636 85.4237 46.55 84.4271 46.55 83.3878V52.0409C46.55 51.0017 46.1364 50.005 45.4001 49.2702C44.6639 48.5354 43.6653 48.1225 42.6241 48.1225H37.5764C36.5352 48.1225 35.5366 48.5354 34.8004 49.2702C34.0641 50.005 33.6505 51.0017 33.6505 52.0409V83.3878C33.6505 84.4271 33.2369 85.4237 32.5006 86.1585C31.7644 86.8934 30.7658 87.3062 29.7246 87.3062H24.677C23.6357 87.3062 22.6372 86.8934 21.9009 86.1585C21.1647 85.4237 20.751 84.4271 20.751 83.3878V71.6327C20.751 70.5935 20.3374 69.5969 19.6012 68.862C18.8649 68.1272 17.8663 67.7144 16.8251 67.7144H11.7775C10.7363 67.7144 9.73769 68.1272 9.00144 68.862C8.26519 69.5969 7.85156 70.5935 7.85156 71.6327V87.3062" stroke="#44AB64" stroke-width="3" stroke-linecap="round" stroke-linejoin="round"></path><path d="M58.886 28.5303L46.957 23.8635" stroke="#44AB64" stroke-width="3" stroke-miterlimit="10" stroke-linecap="round"></path><path d="M71.543 26.7986L86.0493 15.4314" stroke="#44AB64" stroke-width="3" stroke-miterlimit="10" stroke-linecap="round"></path><path d="M40.2415 28.5304C44.0359 28.5304 47.1118 25.4604 47.1118 21.6733C47.1118 17.8862 44.0359 14.8162 40.2415 14.8162C36.4471 14.8162 33.3711 17.8862 33.3711 21.6733C33.3711 25.4604 36.4471 28.5304 40.2415 28.5304Z" stroke="#44AB64" stroke-width="3" stroke-miterlimit="10" stroke-linecap="round"></path><path d="M65.761 37.3469C69.5554 37.3469 72.6314 34.2768 72.6314 30.4897C72.6314 26.7026 69.5554 23.6326 65.761 23.6326C61.9666 23.6326 58.8906 26.7026 58.8906 30.4897C58.8906 34.2768 61.9666 37.3469 65.761 37.3469Z" stroke="#44AB64" stroke-width="3" stroke-miterlimit="10" stroke-linecap="round"></path><path d="M91.2766 17.7551C95.071 17.7551 98.147 14.685 98.147 10.8979C98.147 7.11082 95.071 4.04077 91.2766 4.04077C87.4822 4.04077 84.4062 7.11082 84.4062 10.8979C84.4062 14.685 87.4822 17.7551 91.2766 17.7551Z" stroke="#44AB64" stroke-width="3" stroke-miterlimit="10" stroke-linecap="round"></path></svg>