<svg xmlns="http://www.w3.org/2000/svg" width="96" height="96" viewBox="0 0 96 96" fill="none"><path fill-rule="evenodd" clip-rule="evenodd" d="M56.128 43.0063C56.3026 43.2086 56.3897 43.472 56.3701 43.7385C56.3506 44.005 56.226 44.2528 56.0237 44.4275L46.3858 52.7586C46.2021 52.9163 45.968 53.0033 45.7259 53.0038C45.6904 53.0038 45.6555 53.0005 45.6201 52.997C45.4832 52.9828 45.3506 52.9406 45.2308 52.873C45.1109 52.8054 45.0062 52.7139 44.9232 52.6041L40.5359 46.8076C40.4543 46.7022 40.3945 46.5817 40.3599 46.453C40.3252 46.3243 40.3164 46.19 40.334 46.0579C40.3516 45.9259 40.3952 45.7986 40.4623 45.6834C40.5294 45.5683 40.6186 45.4676 40.7249 45.3872C40.8312 45.3068 40.9523 45.2483 41.0814 45.215C41.2104 45.1817 41.3448 45.1744 41.4767 45.1934C41.6086 45.2124 41.7354 45.2574 41.8498 45.3257C41.9642 45.394 42.0639 45.4844 42.1432 45.5915L45.8802 50.5297L54.7054 42.9025C54.908 42.728 55.1715 42.6409 55.4382 42.6604C55.7049 42.6799 55.953 42.8042 56.128 43.0063ZM90.7843 45.8535C90.9496 45.6433 91.0246 45.376 90.9929 45.1104C90.9611 44.8449 90.8251 44.6029 90.6149 44.4376C90.4046 44.2723 90.1373 44.1973 89.8718 44.2291C89.6062 44.2608 89.3642 44.3968 89.1989 44.607L86.6979 47.7885C86.6442 38.781 83.447 30.0749 77.6584 23.1733C71.8698 16.2718 63.8531 11.6081 54.9924 9.98738C54.7335 9.94858 54.4696 10.0121 54.2567 10.1644C54.0438 10.3167 53.8985 10.5459 53.8516 10.8035C53.8046 11.061 53.8598 11.3268 54.0054 11.5444C54.1509 11.762 54.3755 11.9144 54.6315 11.9694C63.0737 13.5136 70.7063 17.9718 76.1985 24.5666C81.6908 31.1614 84.6944 39.4746 84.6857 48.0569C84.6857 48.1913 84.6823 48.3256 84.6808 48.46L81.2843 45.2082C81.0912 45.0233 80.8325 44.9228 80.5652 44.9286C80.2979 44.9345 80.0438 45.0463 79.859 45.2394C79.6741 45.4326 79.5735 45.6913 79.5794 45.9586C79.5853 46.2259 79.6971 46.4799 79.8902 46.6648L84.9394 51.497C85.1271 51.6765 85.3766 51.777 85.6363 51.7775C85.6602 51.7775 85.6834 51.776 85.7069 51.7745C85.847 51.7648 85.9835 51.7258 86.1077 51.6601C86.2318 51.5944 86.3408 51.5034 86.4276 51.393L90.7845 45.8535H90.7843ZM45.2084 14.7161L48.4051 11.3766C48.2707 11.3751 48.1345 11.3716 48.0003 11.3716C30.315 11.3716 15.1441 23.9726 11.9292 41.3332C11.8865 41.5645 11.7641 41.7735 11.5835 41.9241C11.4028 42.0747 11.1751 42.1574 10.9399 42.1578C10.878 42.1572 10.8162 42.1516 10.7551 42.141C10.4923 42.0918 10.2596 41.9405 10.1082 41.7201C9.95677 41.4997 9.89894 41.2282 9.94739 40.9652C13.3319 22.6959 29.2635 9.42452 47.8591 9.35751L44.6072 6.8014C44.3969 6.6361 44.2609 6.39405 44.2291 6.12847C44.1973 5.8629 44.2723 5.59556 44.4376 5.38527C44.6029 5.17499 44.8449 5.03898 45.1105 5.00716C45.3761 4.97535 45.6434 5.05034 45.8537 5.21563L51.3931 9.57301C51.5033 9.65998 51.5942 9.76904 51.6599 9.8932C51.7255 10.0174 51.7645 10.1539 51.7743 10.294C51.7841 10.4341 51.7646 10.5747 51.7168 10.7068C51.6691 10.8389 51.5943 10.9595 51.4972 11.061L46.665 16.1099C46.5708 16.2083 46.4576 16.2866 46.3323 16.34C46.207 16.3935 46.0722 16.4209 45.936 16.4208C45.6765 16.4215 45.427 16.3208 45.2406 16.1403C45.1449 16.049 45.0681 15.9397 45.0146 15.8186C44.9612 15.6976 44.9321 15.5672 44.9291 15.4349C44.9261 15.3026 44.9492 15.171 44.9972 15.0477C45.0451 14.9244 45.1169 14.8117 45.2084 14.7161ZM42.0859 85.3037C42.1344 85.0407 42.0766 84.7692 41.9251 84.5488C41.7737 84.3284 41.541 84.177 41.2781 84.128C23.9153 80.9146 11.3148 65.7439 11.3148 48.0571C11.3148 47.8857 11.3197 47.7146 11.3232 47.5433L14.7161 50.7916C14.9092 50.9764 15.1678 51.077 15.4351 51.0712C15.7024 51.0654 15.9564 50.9537 16.1412 50.7606C16.3261 50.5675 16.4267 50.3089 16.4209 50.0416C16.4151 49.7743 16.3033 49.5203 16.1102 49.3355L11.0612 44.5029C10.9597 44.4058 10.839 44.331 10.7069 44.2832C10.5748 44.2355 10.4342 44.2159 10.294 44.2257C10.1539 44.2355 10.0174 44.2745 9.89321 44.3402C9.76904 44.4058 9.65996 44.4967 9.57299 44.607L5.21561 50.1466C5.05032 50.3569 4.97534 50.6242 5.00717 50.8898C5.039 51.1554 5.17503 51.3975 5.38534 51.5628C5.59565 51.7281 5.86301 51.803 6.1286 51.7712C6.39419 51.7394 6.63626 51.6033 6.80155 51.393L9.30072 48.2133C9.37429 66.8039 22.6456 82.7286 40.912 86.11C40.9722 86.1213 41.0334 86.1269 41.0947 86.1268C41.33 86.1268 41.5579 86.0446 41.7389 85.8942C41.9199 85.7439 42.0426 85.535 42.0857 85.3037H42.0859ZM86.0715 55.048C84.4517 63.9067 79.7901 71.922 72.8914 77.7107C65.9927 83.4993 57.2896 86.6981 48.2842 86.755L51.3929 89.1989C51.6032 89.3641 51.7392 89.6061 51.771 89.8716C51.8028 90.1372 51.7279 90.4045 51.5626 90.6147C51.3974 90.825 51.1554 90.961 50.8898 90.9928C50.6243 91.0247 50.357 90.9497 50.1468 90.7845L44.6072 86.4272C44.497 86.3403 44.4061 86.2312 44.3405 86.107C44.2748 85.9828 44.2359 85.8463 44.2261 85.7062C44.2164 85.5661 44.236 85.4255 44.2837 85.2934C44.3315 85.1613 44.4063 85.0407 44.5034 84.9392L49.3355 79.89C49.5203 79.6969 49.7744 79.5851 50.0416 79.5793C50.3089 79.5735 50.5676 79.6741 50.7607 79.8589C50.9538 80.0438 51.0655 80.2978 51.0714 80.5651C51.0772 80.8324 50.9766 81.091 50.7917 81.2841L47.4877 84.7343C47.6593 84.7377 47.8305 84.7425 48.0003 84.7425C56.583 84.7514 64.8965 81.7476 71.4913 76.255C78.0862 70.7623 82.5441 63.1292 84.0877 54.6865C84.1114 54.5563 84.1605 54.4319 84.2323 54.3207C84.3041 54.2094 84.397 54.1134 84.5059 54.038C84.6148 53.9627 84.7374 53.9095 84.8668 53.8816C84.9963 53.8536 85.1299 53.8515 85.2602 53.8752C85.3904 53.8989 85.5148 53.948 85.626 54.0198C85.7373 54.0915 85.8334 54.1845 85.9087 54.2934C85.984 54.4022 86.0372 54.5249 86.0651 54.6543C86.0931 54.7837 86.0953 54.9174 86.0715 55.0477V55.048ZM48.0001 62.9911C50.9536 62.991 53.8407 62.1151 56.2963 60.4741C58.752 58.8332 60.6659 56.501 61.7961 53.7723C62.9263 51.0437 63.2219 48.0412 62.6457 45.1445C62.0695 42.2478 60.6473 39.587 58.5589 37.4986C56.4705 35.4102 53.8097 33.9879 50.9131 33.4117C48.0164 32.8355 45.0139 33.1311 42.2852 34.2613C39.5565 35.3914 37.2243 37.3053 35.5833 39.7609C33.9424 42.2166 33.0664 45.1036 33.0663 48.0571C33.071 52.0163 34.6459 55.8121 37.4455 58.6117C40.2451 61.4114 44.0409 62.9863 48.0001 62.9911ZM64.9496 48.0571C64.9496 44.7047 63.9555 41.4277 62.0931 38.6403C60.2306 35.853 57.5834 33.6805 54.4863 32.3976C51.3891 31.1148 47.9811 30.7791 44.6932 31.4331C41.4053 32.0872 38.3852 33.7015 36.0147 36.0719C33.6443 38.4424 32.03 41.4625 31.376 44.7505C30.722 48.0384 31.0577 51.4464 32.3406 54.5435C33.6235 57.6407 35.796 60.2878 38.5834 62.1503C41.3708 64.0127 44.6478 65.0067 48.0001 65.0067C52.494 65.0019 56.8023 63.2145 59.9799 60.0369C63.1575 56.8593 64.9448 52.5509 64.9496 48.0571ZM43.9958 75.6319H52.0046L52.8579 70.8096C52.8915 70.6186 52.9796 70.4414 53.1115 70.2992C53.2435 70.1571 53.4137 70.0561 53.6017 70.0084C55.6955 69.4752 57.7015 68.643 59.5579 67.5374C59.7247 67.4382 59.9166 67.3892 60.1105 67.3963C60.3044 67.4035 60.4922 67.4665 60.6512 67.5778L64.6673 70.3863L70.3296 64.7242L67.5212 60.7079C67.4102 60.5488 67.3474 60.361 67.3403 60.1672C67.3331 59.9733 67.3818 59.7814 67.4807 59.6145C68.5859 57.758 69.418 55.7521 69.9517 53.6586C69.9991 53.4704 70.1 53.3 70.2421 53.168C70.3843 53.0359 70.5617 52.9479 70.7529 52.9145L75.575 52.0612V44.0531L70.7529 43.1995C70.5619 43.1662 70.3848 43.0783 70.2426 42.9466C70.1004 42.8149 69.9994 42.6449 69.9517 42.4571C69.4183 40.3628 68.5861 38.3563 67.4807 36.4993C67.3815 36.3325 67.3325 36.1406 67.3397 35.9467C67.3469 35.7528 67.4099 35.565 67.5212 35.406L70.3296 31.3896L64.6673 25.7278L60.6512 28.5362C60.4922 28.6474 60.3044 28.7104 60.1104 28.7175C59.9165 28.7246 59.7246 28.6755 59.5579 28.5762C57.7012 27.4713 55.6953 26.6393 53.6017 26.1057C53.4138 26.0584 53.2436 25.9577 53.1116 25.8158C52.9797 25.6739 52.8915 25.4969 52.8579 25.3061L52.0046 20.4822H43.9958L43.1426 25.3061C43.1089 25.4969 43.0207 25.674 42.8886 25.8159C42.7566 25.9578 42.5863 26.0585 42.3983 26.1057C40.3042 26.6394 38.2978 27.4714 36.4405 28.5762C36.2741 28.6755 36.0824 28.7246 35.8887 28.7175C35.695 28.7104 35.5075 28.6474 35.3488 28.5362L31.3329 25.7278L25.6709 31.3896L28.4789 35.406C28.5902 35.565 28.6533 35.7528 28.6604 35.9467C28.6676 36.1406 28.6187 36.3325 28.5194 36.4993C27.4139 38.3555 26.5823 40.3616 26.0503 42.4556C26.0023 42.6434 25.9013 42.8135 25.7592 42.9454C25.6171 43.0774 25.44 43.1656 25.2491 43.1995L20.425 44.0531V52.0615L25.2476 52.9148C25.4387 52.9483 25.6161 53.0363 25.7582 53.1684C25.9004 53.3004 26.0013 53.4708 26.0488 53.6589C26.5825 55.7529 27.4146 57.7593 28.5194 59.6165C28.6187 59.783 28.6677 59.9747 28.6605 60.1684C28.6533 60.3621 28.5902 60.5496 28.4789 60.7083L25.6709 64.7245L31.3329 70.3867L35.3488 67.5781C35.508 67.4672 35.6958 67.4045 35.8897 67.3974C36.0835 67.3902 36.2754 67.439 36.4424 67.5378C38.2988 68.643 40.3047 69.4752 42.3983 70.0087C42.5864 70.0563 42.7567 70.1573 42.8887 70.2994C43.0208 70.4416 43.1089 70.6189 43.1426 70.8099L43.9958 75.6322V75.6319ZM53.8422 76.8159L54.7304 71.792C56.5737 71.2696 58.3495 70.5328 60.0213 69.5969L64.2055 72.5228C64.3995 72.6585 64.6351 72.7216 64.8709 72.701C65.1068 72.6804 65.3278 72.5774 65.4953 72.4101L72.3517 65.5522C72.5194 65.3849 72.6227 65.1639 72.6436 64.928C72.6645 64.6921 72.6017 64.4563 72.4661 64.2621L69.54 60.0782C70.476 58.4064 71.213 56.6307 71.7356 54.7873L76.7592 53.8988C76.9922 53.8572 77.2032 53.7349 77.3553 53.5535C77.5073 53.372 77.5907 53.1428 77.5908 52.9061V43.2079C77.5908 42.9711 77.5074 42.742 77.3554 42.5605C77.2033 42.3791 76.9922 42.2569 76.7592 42.2155L71.7338 41.327C71.2125 39.4834 70.4762 37.7076 69.54 36.0361L72.4661 31.8524C72.6016 31.6582 72.6645 31.4225 72.6435 31.1866C72.6226 30.9507 72.5193 30.7297 72.3517 30.5624L65.4953 23.706C65.3282 23.5382 65.1072 23.4347 64.8712 23.4138C64.6353 23.3929 64.3996 23.456 64.2055 23.5918L60.0213 26.5176C58.3497 25.5817 56.5739 24.8455 54.7304 24.3241L53.8422 19.2986C53.8005 19.0655 53.6783 18.8545 53.4968 18.7025C53.3153 18.5505 53.0861 18.4671 52.8493 18.467H43.1511C42.9144 18.4671 42.6852 18.5505 42.5037 18.7025C42.3222 18.8545 42.1999 19.0655 42.1583 19.2986L41.2697 24.3241C39.4262 24.8453 37.6503 25.5815 35.9788 26.5176L31.7946 23.5918C31.6005 23.456 31.3647 23.393 31.1288 23.4139C30.8928 23.4348 30.6718 23.5382 30.5046 23.706L23.6482 30.5624C23.4807 30.7297 23.3774 30.9507 23.3565 31.1866C23.3356 31.4225 23.3985 31.6582 23.534 31.8524L26.4602 36.0356C25.524 37.7071 24.7877 39.483 24.2663 41.3265L19.241 42.215C19.0079 42.2565 18.7969 42.3787 18.6449 42.5601C18.4929 42.7415 18.4097 42.9707 18.4097 43.2074V52.9061C18.4098 53.1428 18.4931 53.3719 18.645 53.5534C18.797 53.7349 19.0079 53.8571 19.241 53.8988L24.2665 54.7873C24.7879 56.6308 25.5242 58.4067 26.4603 60.0782L23.5342 64.2623C23.3986 64.4565 23.3357 64.6922 23.3566 64.9281C23.3775 65.164 23.4808 65.3851 23.6484 65.5524L30.5048 72.4103C30.6724 72.5775 30.8935 72.6803 31.1293 72.7009C31.3651 72.7215 31.6007 72.6586 31.7948 72.523L35.979 69.597C37.651 70.5326 39.4267 71.2693 41.2699 71.7922L42.1584 76.8161C42.2001 77.0491 42.3224 77.2601 42.5039 77.4121C42.6854 77.5641 42.9146 77.6474 43.1513 77.6475H52.8493C53.086 77.6474 53.3152 77.5641 53.4967 77.4121C53.6782 77.2602 53.8005 77.0492 53.8422 76.8162V76.8159Z" fill="#44AB64"></path></svg>