<svg xmlns="http://www.w3.org/2000/svg" width="134" height="135" viewBox="0 0 134 135" fill="none"><path d="M82.4284 17.5969C73.9561 23.8746 64.1854 28.2108 53.8199 30.2932L24.6283 36.0821C22.1997 36.5632 20.0138 37.8627 18.4414 39.7602C16.8691 41.6577 16.0071 44.0362 16.0017 46.4922V71.5683C15.9569 74.0607 16.7961 76.4896 18.3727 78.431C19.9493 80.3725 22.1633 81.7033 24.6283 82.1913L53.8199 87.9856C64.163 90.0043 73.9339 94.271 82.4284 100.469C83.2245 101.061 84.1708 101.421 85.1615 101.509C86.1522 101.597 87.1482 101.41 88.0378 100.969C88.9275 100.528 89.6758 99.8501 90.199 99.0111C90.7221 98.1721 90.9995 97.2052 91 96.2188V21.8472C91.0005 20.8603 90.7239 19.8927 90.2011 19.053C89.6784 18.2132 88.9302 17.5343 88.0403 17.0925C87.1504 16.6507 86.1541 16.4634 85.1629 16.5515C84.1717 16.6396 83.2249 17.0052 82.4284 17.5969Z" stroke="#44AB64" stroke-width="5" stroke-linecap="round" stroke-linejoin="round"></path><path d="M47.1109 86.7983L56.141 111.193C56.4452 112.012 56.5491 112.893 56.444 113.761C56.3389 114.629 56.0278 115.459 55.5373 116.179C55.0468 116.9 54.3913 117.49 53.6267 117.899C52.8621 118.308 52.0109 118.525 51.1457 118.53H44.8533C42.6579 118.535 40.5137 117.86 38.7082 116.598C36.9027 115.335 35.5224 113.545 34.7523 111.466L24 82.022M69.6311 42.4672V75.0641M102.953 35.6767L116.924 27.5303M102.953 81.8546L116.924 90.001M101.877 58.7712H118" stroke="#44AB64" stroke-width="5" stroke-linecap="round" stroke-linejoin="round"></path></svg>