<svg xmlns="http://www.w3.org/2000/svg" width="96" height="96" viewBox="0 0 96 96" fill="none"><path d="M82.0639 56.616L56.6159 82.064C55.9626 82.7093 55.2279 83.1933 54.4119 83.516C53.5959 83.8387 52.7826 84 51.9719 84C51.1612 84 50.3546 83.8387 49.5519 83.516C48.7492 83.1933 48.0212 82.7093 47.3679 82.064L13.9199 48.68C13.2879 48.1013 12.8106 47.4107 12.4879 46.608C12.1652 45.808 12.0039 44.9653 12.0039 44.08V18.536C12.0039 16.7387 12.6332 15.2 13.8919 13.92C15.1506 12.64 16.6999 12 18.5399 12H44.0839C44.9479 12 45.7866 12.1747 46.5999 12.524C47.4132 12.8733 48.1159 13.3453 48.7079 13.94L82.0639 47.316C82.7306 47.9693 83.2159 48.704 83.5199 49.52C83.8239 50.336 83.9759 51.1587 83.9759 51.988C83.9759 52.8173 83.8239 53.6307 83.5199 54.428C83.2159 55.2253 82.7306 55.9547 82.0639 56.616ZM53.7639 79.232L79.2079 53.784C79.7199 53.272 79.9759 52.6693 79.9759 51.976C79.9759 51.2827 79.7199 50.68 79.2079 50.168L45.0639 16.08H18.5399C17.8199 16.08 17.2172 16.3107 16.7319 16.772C16.2439 17.2333 15.9999 17.8227 15.9999 18.54V44.06C15.9999 44.3693 16.0519 44.6773 16.1559 44.984C16.2572 45.2933 16.4359 45.576 16.6919 45.832L50.1479 79.232C50.6599 79.744 51.2612 80 51.9519 80C52.6452 80 53.2492 79.744 53.7639 79.232ZM26.1999 30.232C27.3226 30.232 28.2746 29.8427 29.0559 29.064C29.8372 28.2853 30.2292 27.3413 30.2319 26.232C30.2319 25.0987 29.8426 24.136 29.0639 23.344C28.2852 22.552 27.3412 22.1547 26.2319 22.152C25.0986 22.152 24.1359 22.5453 23.3439 23.332C22.5519 24.1187 22.1559 25.0747 22.1559 26.2C22.1559 27.3253 22.5492 28.2773 23.3359 29.056C24.1226 29.8347 25.0772 30.2267 26.1999 30.232ZM54.3399 65.276L64.1559 55.076C64.7346 54.4973 65.1759 53.8227 65.4799 53.052C65.7866 52.284 65.9399 51.436 65.9399 50.508C65.9399 48.804 65.3346 47.3187 64.1239 46.052C62.9132 44.7853 61.4519 44.152 59.7399 44.152C58.4359 44.152 57.1506 44.4933 55.8839 45.176C54.6172 45.8587 53.3226 47.0667 51.9999 48.8C50.6132 47.0373 49.3039 45.8227 48.0719 45.156C46.8399 44.4893 45.5692 44.156 44.2599 44.156C42.5479 44.156 41.0866 44.7893 39.8759 46.056C38.6679 47.3227 38.0639 48.8067 38.0639 50.508C38.0639 51.436 38.2159 52.2853 38.5199 53.056C38.8239 53.824 39.2652 54.4973 39.8439 55.076L49.6599 65.276C50.3079 65.924 51.0879 66.248 51.9999 66.248C52.9119 66.248 53.6919 65.924 54.3399 65.276Z" fill="#44AB64"></path></svg>