<svg xmlns="http://www.w3.org/2000/svg" width="96" height="96" viewBox="0 0 96 96" fill="none"><path d="M20 20H72C75.1826 20 78.2348 21.2643 80.4853 23.5147C82.7357 25.7652 84 28.8174 84 32V68C84 71.1826 82.7357 74.2348 80.4853 76.4853C78.2348 78.7357 75.1826 80 72 80H20C16.8174 80 13.7652 78.7357 11.5147 76.4853C9.26428 74.2348 8 71.1826 8 68V32C8 28.8174 9.26428 25.7652 11.5147 23.5147C13.7652 21.2643 16.8174 20 20 20ZM20 24C18 24 16.24 24.68 14.88 25.88L46 46L77.12 25.88C75.76 24.68 74 24 72 24H20ZM46 50.84L12.52 29.12C12.2 30 12 31 12 32V68C12 70.1217 12.8429 72.1566 14.3431 73.6569C15.8434 75.1571 17.8783 76 20 76H72C74.1217 76 76.1566 75.1571 77.6569 73.6569C79.1571 72.1566 80 70.1217 80 68V32C80 31 79.8 30 79.48 29.12L46 50.84Z" fill="#44AB64"></path></svg>