<svg xmlns="http://www.w3.org/2000/svg" width="96" height="96" viewBox="0 0 96 96" fill="none"><path fill-rule="evenodd" clip-rule="evenodd" d="M25.4687 69.6102C24.6635 69.6102 24.0095 68.9568 24.0095 68.1537C24.0095 67.3491 24.6635 66.6971 25.4672 66.6971H49.727C50.5322 66.6971 51.1833 67.3491 51.1833 68.1537C51.1848 68.9568 50.5322 69.6102 49.727 69.6102H25.4687ZM68.2965 71.8876C66.6861 69.3642 67.7449 66.2422 70.3458 64.9028C70.7345 64.7042 71.1525 64.5472 71.5872 64.4375V63.5099C71.5872 62.7054 72.2398 62.0534 73.045 62.0534C73.8487 62.0534 74.5028 62.7054 74.5028 63.5099V64.4449C75.83 64.7857 77.0103 65.5725 77.7593 66.7312C78.1921 67.4054 77.9951 68.3078 77.3201 68.7404C76.6455 69.1731 75.7438 68.976 75.3095 68.3018C74.2283 66.6231 71.1305 66.8512 70.5299 68.7864C69.8655 71.2371 72.8909 71.4609 74.4641 71.9009C79.1059 73.1426 80.0652 78.951 75.6964 81.2047C75.3213 81.3973 74.9208 81.5484 74.5028 81.6566V82.6079C74.5028 83.411 73.8487 84.0659 73.045 84.0659C72.2398 84.0644 71.5857 83.411 71.5857 82.6079V81.6744C70.2406 81.338 69.041 80.5468 68.2832 79.3747C67.8501 78.7006 68.0475 77.7982 68.7221 77.367C69.3982 76.9329 70.2999 77.1314 70.7345 77.8056C71.479 78.9628 73.1741 79.2325 74.3631 78.6191C76.3551 77.5981 75.8209 75.2882 73.7196 74.7177C71.5933 74.2095 69.6325 73.9813 68.2965 71.8876ZM73.045 57.1148C81.8476 57.1148 89 64.2612 89 73.0582C89 81.8537 81.8476 89 73.045 89C64.242 89 57.0885 81.8552 57.0885 73.0582C57.0896 64.2597 64.2378 57.1148 73.045 57.1148ZM73.045 60.0279C65.8376 60.0279 60.0052 65.8555 60.0052 73.0582C60.0052 80.2593 65.8376 86.0854 73.045 86.0854C80.252 86.0854 86.0833 80.2593 86.0833 73.0582C86.0833 65.8555 80.2535 60.0279 73.045 60.0279ZM29.8746 22.779H35.7159C36.5212 22.779 37.1737 23.4322 37.1737 24.2367V27.184H40.1203C40.9255 27.184 41.5796 27.8361 41.5796 28.6406V34.4757C41.5796 35.2803 40.9255 35.935 40.1203 35.935L37.1737 35.9335V38.8762C37.1737 39.6808 36.5212 40.3328 35.7159 40.3328H29.8746C29.0679 40.3328 28.4154 39.6808 28.4154 38.8762V35.9335H25.4687C24.665 35.9335 24.0095 35.2803 24.0095 34.4757V28.6406C24.0095 27.8361 24.665 27.184 25.4687 27.184H28.4154V24.2356C28.4154 23.4322 29.0679 22.779 29.8746 22.779ZM34.2582 25.6933H31.3308V28.6019C31.3308 29.4273 30.7095 30.0987 29.8731 30.0987H26.928V33.0191H29.836C30.6635 33.0191 31.3308 33.6401 31.3308 34.4757V37.4196H34.2582V34.514C34.2582 33.6886 34.8796 33.0207 35.7159 33.0207L38.6641 33.0191V30.0987H35.7545C34.9285 30.0987 34.2567 29.4778 34.2567 28.6406L34.2582 25.6933ZM9.91698 76.1387C9.91698 76.9432 9.26298 77.5952 8.45925 77.5952C7.65548 77.5952 7 76.9432 7 76.1387L7.00148 11.2924C7.00148 10.1116 7.48343 9.04037 8.25755 8.26693C9.03462 7.49046 10.1068 7.00872 11.2887 7.00872C32.7278 7.00872 56.062 7.00303 78.038 7C78.8402 7 79.4897 7.6475 79.4897 8.45052L79.4973 51.9097C79.4973 52.7127 78.8417 53.3659 78.038 53.3659C77.2343 53.3659 76.5802 52.7142 76.5802 51.9097V9.90256L15.3654 9.97236C15.5018 10.3904 15.5759 10.8334 15.5759 11.2924C15.5759 33.7008 15.5759 56.1087 15.5759 78.5153C15.5759 80.6179 15.8073 82.6004 16.5843 83.98C18.5611 87.502 22.7861 85.8247 25.0891 83.4021C28.709 79.5851 31.2137 79.4755 34.9938 83.1724C37.5118 85.6884 40.8188 87.4279 43.3961 83.8733C46.472 79.637 50.4729 80.1304 53.9371 83.5947C55.0092 84.666 56.1808 85.8351 58.4719 86.0573C59.2699 86.1314 59.8557 86.8411 59.7813 87.6398C59.7072 88.4355 58.9969 89.0207 58.1974 88.9467C54.8593 88.6252 53.3024 87.0708 51.8772 85.6424C49.7683 83.5339 47.71 82.8924 45.7541 85.5832C42.023 90.7247 36.9557 89.1526 32.9695 85.2587C30.447 82.7382 29.5973 82.8775 27.1964 85.4068C23.4119 89.3897 17.047 90.7381 14.0426 85.4024C12.9793 83.5073 12.6605 81.0476 12.6605 78.5153V11.2924C12.6605 10.5326 12.048 9.92342 11.2887 9.92342C10.5354 9.92342 9.91698 10.5398 9.91698 11.2924V76.1387ZM50.8822 25.6933C50.077 25.6933 49.4244 25.0401 49.4244 24.2367C49.4244 23.4322 50.077 22.779 50.8807 22.779H66.6903C67.4943 22.779 68.1481 23.4322 68.1481 24.2367C68.1481 25.0401 67.4943 25.6933 66.6891 25.6933H50.8822ZM50.8822 40.3313C50.077 40.3313 49.4244 39.6793 49.4244 38.8732C49.4244 38.0702 50.077 37.4181 50.8807 37.4181H66.6903C67.4943 37.4181 68.1481 38.0702 68.1481 38.8732C68.1481 39.6793 67.4943 40.3313 66.6891 40.3313H50.8822ZM25.4687 54.9708C24.6635 54.9708 24.0095 54.3188 24.0095 53.5142C24.0095 52.7097 24.6635 52.0576 25.4672 52.0576H61.5432C62.3484 52.0576 63.001 52.7097 63.001 53.5142C63.001 54.3188 62.3468 54.9723 61.5432 54.9723L25.4687 54.9708Z" fill="#44AB64"></path></svg>