<svg xmlns="http://www.w3.org/2000/svg" width="96" height="97" viewBox="0 0 96 97" fill="none"><path d="M74.4707 83.9597H28.6526C24.5798 83.9597 21.2344 80.6143 21.2344 76.5415V35.6688C21.2344 34.7961 21.8162 34.2143 22.6889 34.2143C23.5616 34.2143 24.1435 34.7961 24.1435 35.6688V76.5415C24.1435 79.0143 26.1798 81.0506 28.6526 81.0506H74.4707C76.9435 81.0506 78.9798 79.0143 78.9798 76.5415V9.34152C78.9798 6.86879 76.9435 4.83243 74.4707 4.83243H28.6526C26.1798 4.83243 24.1435 6.86879 24.1435 9.34152C24.1435 10.2142 23.5616 10.7961 22.6889 10.7961C21.8162 10.7961 21.2344 10.2142 21.2344 9.34152C21.2344 5.26879 24.5798 1.92334 28.6526 1.92334H74.4707C78.5435 1.92334 81.8889 5.26879 81.8889 9.34152V76.5415C81.8889 80.6143 78.5435 83.9597 74.4707 83.9597Z" fill="#44AB64"></path><path d="M79.1246 95.0143C78.8337 95.0143 78.6883 95.0143 78.3974 95.0143L32.7246 90.7962C28.6519 90.3598 25.5974 86.7234 26.0337 82.6507V82.5052C26.0337 82.0689 26.1792 81.6325 26.6155 81.3416C26.9064 81.0507 27.3428 80.9052 27.7792 81.0507C28.0701 81.0507 28.361 81.1962 28.6519 81.1962H74.4701C76.9428 81.1962 78.9792 79.1598 78.9792 76.6871V14.2871C78.9792 13.8507 79.1246 13.5598 79.4155 13.2689C79.7064 12.978 80.1428 12.8325 80.5792 12.8325L85.961 13.2689C87.9974 13.4143 89.7428 14.4325 91.0519 15.8871C92.361 17.4871 92.9428 19.378 92.7974 21.2689L86.6883 88.178C86.5428 90.2143 85.5246 91.9598 84.0701 93.2689C82.4701 94.4325 80.7246 95.0143 79.1246 95.0143ZM28.9428 83.9598C29.2337 85.9962 30.9792 87.5962 33.0155 87.8871L78.6883 92.1052C79.8519 92.2507 81.0155 91.8143 82.0337 91.0871C82.9065 90.3598 83.4883 89.1962 83.6337 88.0325L89.7428 21.1234C89.8883 19.9598 89.4519 18.7962 88.7246 17.778C87.9974 16.9052 86.8337 16.3234 85.6701 16.178L81.8883 15.8871V76.6871C81.8883 80.7598 78.5428 84.1052 74.4701 84.1052H28.9428V83.9598Z" fill="#44AB64"></path><path d="M9.16219 95.0143C8.58037 95.0143 8.14401 94.7234 7.8531 94.1416L3.63491 84.978C3.34401 84.2507 3.63491 83.378 4.36219 83.0871C5.08946 82.7962 5.96219 83.0871 6.2531 83.8143L9.16219 90.2143L12.0713 83.8143C12.3622 83.0871 13.2349 82.7962 13.9622 83.0871C14.6895 83.378 14.9804 84.2507 14.6895 84.978L10.4713 94.1416C10.1804 94.7234 9.74401 95.0143 9.16219 95.0143Z" fill="#44AB64"></path><path d="M13.5256 85.8507H4.7983C3.92557 85.8507 3.34375 85.2688 3.34375 84.3961V44.687C3.34375 43.2325 4.21648 41.7779 5.67102 41.3416C7.9983 40.4688 10.3256 40.4688 12.7983 41.3416C14.1074 41.9234 15.1256 43.2325 15.1256 44.687V84.3961C14.9801 85.1234 14.2528 85.8507 13.5256 85.8507ZM6.25284 82.9416H12.071V44.687C12.071 44.3961 11.9256 44.1052 11.6347 43.9597C10.0347 43.3779 8.2892 43.2325 6.6892 43.9597C6.3983 44.1052 6.25284 44.3961 6.25284 44.687V82.9416Z" fill="#44AB64"></path><path d="M13.5256 49.487H4.7983C3.92557 49.487 3.34375 48.9052 3.34375 48.0325V44.687C3.34375 43.2325 4.21648 41.7779 5.67102 41.3416C7.9983 40.4688 10.3256 40.4688 12.7983 41.3416C14.1074 41.9234 15.1256 43.2325 15.1256 44.687V48.0325C14.9801 48.9052 14.2528 49.487 13.5256 49.487ZM6.25284 46.5779H12.071V44.687C12.071 44.3961 11.9256 44.1052 11.6347 43.9597C10.0347 43.3779 8.2892 43.3779 6.6892 43.9597C6.3983 44.1052 6.25284 44.3961 6.25284 44.687V46.5779Z" fill="#44AB64"></path><path d="M49.3087 49.0508H29.8178C28.9451 49.0508 28.3633 48.4689 28.3633 47.5962V45.2689C28.3633 42.5053 30.5451 40.3235 33.3087 40.3235H45.6724C48.436 40.3235 50.6178 42.5053 50.6178 45.2689V47.5962C50.7633 48.4689 50.1815 49.0508 49.3087 49.0508ZM31.2724 46.1417H47.8542V45.2689C47.8542 44.1053 46.9815 43.2326 45.8178 43.2326H33.4542C32.2906 43.2326 31.4178 44.1053 31.4178 45.2689V46.1417H31.2724Z" fill="#44AB64"></path><path d="M50.3259 33.3416C49.8895 33.3416 49.5986 33.1962 49.3077 32.9052L41.8895 25.4871C41.3077 24.9052 41.3077 24.0325 41.8895 23.4507L52.0713 13.2689C52.6531 12.6871 53.5259 12.6871 54.1077 13.2689L61.5259 20.6871C61.8168 20.978 61.9622 21.2689 61.9622 21.7052C61.9622 22.1416 61.8168 22.4325 61.5259 22.7234L51.344 32.9052C51.0531 33.1962 50.6168 33.3416 50.3259 33.3416ZM44.7986 24.4689L50.1804 29.8507L58.3259 21.7052L52.944 16.3234L44.7986 24.4689Z" fill="#44AB64"></path><path d="M48.5813 37.4144C47.7086 37.4144 46.6904 37.1234 45.9631 36.3962L38.3995 28.8325C36.945 27.378 36.945 25.0507 38.3995 23.5962L38.6904 23.3053C40.145 21.8507 42.4722 21.8507 43.9268 23.3053L51.4904 30.8689C52.945 32.3234 52.945 34.6507 51.4904 36.1053L51.1995 36.3962C50.4722 37.1234 49.4541 37.4144 48.5813 37.4144ZM41.1631 25.1962C41.0177 25.1962 40.7268 25.3416 40.5813 25.4871L40.2904 25.778C39.9995 26.0689 39.9995 26.5053 40.2904 26.9416L47.8541 34.5053C48.145 34.7962 48.5813 34.7962 49.0177 34.5053L49.3086 34.2144C49.5995 33.9234 49.5995 33.4871 49.3086 33.0507L41.745 25.4871C41.5995 25.1962 41.3086 25.1962 41.1631 25.1962Z" fill="#44AB64"></path><path d="M62.1102 23.887C61.2374 23.887 60.2192 23.5961 59.492 22.8688L51.9283 15.3052C51.2011 14.5779 50.9102 13.7052 50.9102 12.687C50.9102 11.6688 51.3465 10.7961 51.9283 10.0688L52.2192 9.77792C53.6738 8.32338 56.0011 8.32338 57.4556 9.77792L65.0192 17.3416C66.4738 18.7961 66.4738 21.1234 65.0192 22.5779L64.7283 22.8688C64.0011 23.5961 62.9829 23.887 62.1102 23.887ZM54.692 11.6688C54.5465 11.6688 54.2556 11.8143 54.1102 11.9597L53.9647 12.1052C53.8192 12.2506 53.6738 12.3961 53.6738 12.687C53.6738 12.9779 53.8192 13.1234 53.9647 13.2688L61.5283 20.8325C61.8192 21.1234 62.2556 21.1234 62.692 20.8325L62.9829 20.5416C63.2738 20.2506 63.2738 19.8143 62.9829 19.3779L55.2738 11.8143C55.1283 11.6688 54.8374 11.6688 54.692 11.6688Z" fill="#44AB64"></path><path d="M69.8158 46.1416C68.3612 46.1416 67.1976 45.5598 66.3249 44.5416L52.5067 29.7053C51.9249 29.1235 51.9249 28.2507 52.5067 27.6689L56.143 24.0326C56.7249 23.4507 57.5976 23.4507 58.1794 24.0326L73.0158 37.8507C74.034 38.7235 74.4703 40.0326 74.6158 41.3416C74.7612 42.6507 74.1794 43.9598 73.1612 44.8326C72.2885 45.5598 71.1249 46.1416 69.8158 46.1416ZM55.5612 28.6871L68.3612 42.5053C68.6521 42.9416 69.234 43.0871 69.6703 43.0871C70.2521 43.0871 70.6885 42.9416 70.9794 42.5053C71.4158 42.0689 71.5612 41.6326 71.5612 41.1962C71.5612 40.6144 71.2703 40.178 70.9794 39.8871L57.1612 27.0871L55.5612 28.6871Z" fill="#44AB64"></path><path d="M32.4351 64.1779C31.9987 64.1779 31.7078 64.0324 31.4169 63.7415L28.9442 61.2688C28.3624 60.6869 28.3624 59.8142 28.9442 59.2324C29.526 58.6506 30.3987 58.6506 30.9805 59.2324L32.4351 60.687L38.8351 54.2869C39.4169 53.7051 40.2896 53.7051 40.8715 54.2869C41.4533 54.8688 41.4533 55.7415 40.8715 56.3233L33.4533 63.7415C33.1624 64.0324 32.8714 64.1779 32.4351 64.1779Z" fill="#44AB64"></path><path d="M32.4351 75.087C31.9987 75.087 31.7078 74.9415 31.4169 74.6506L28.9442 72.1779C28.3624 71.5961 28.3624 70.7233 28.9442 70.1415C29.526 69.5597 30.3987 69.5597 30.9805 70.1415L32.4351 71.5961L38.8351 65.0506C39.4169 64.4688 40.2896 64.4688 40.8715 65.0506C41.4533 65.6324 41.4533 66.5052 40.8715 67.087L33.4533 74.6506C33.1624 74.9415 32.8714 75.087 32.4351 75.087Z" fill="#44AB64"></path><path d="M73.0183 59.3778H46.9819C46.1092 59.3778 45.5273 58.796 45.5273 57.9233C45.5273 57.0506 46.1092 56.4688 46.9819 56.4688H73.0183C73.891 56.4688 74.4728 57.0506 74.4728 57.9233C74.4728 58.796 73.891 59.3778 73.0183 59.3778Z" fill="#44AB64"></path><path d="M73.0183 71.4506H46.9819C46.1092 71.4506 45.5273 70.8688 45.5273 69.996C45.5273 69.1233 46.1092 68.5415 46.9819 68.5415H73.0183C73.891 68.5415 74.4728 69.1233 74.4728 69.996C74.4728 70.8688 73.891 71.4506 73.0183 71.4506Z" fill="#44AB64"></path><path d="M18.6165 37.8506C10.1801 37.8506 3.34375 30.8688 3.34375 22.4324C3.34375 13.996 10.1801 7.15967 18.6165 7.15967C27.0528 7.15967 33.8892 13.996 33.8892 22.4324C33.8892 30.8688 27.0528 37.8506 18.6165 37.8506ZM18.6165 10.0688C11.7801 10.0688 6.25284 15.596 6.25284 22.4324C6.25284 29.2688 11.7801 34.796 18.6165 34.796C25.4528 34.796 30.9801 29.2688 30.9801 22.4324C30.9801 15.596 25.4528 10.0688 18.6165 10.0688Z" fill="#44AB64"></path><path d="M15.7089 30.7232C14.6908 30.7232 13.6726 30.2869 12.9453 29.5596L10.0362 26.6505C8.58168 25.196 8.58168 22.5778 10.0362 21.1232C11.4908 19.6687 14.1089 19.6687 15.5635 21.1232L15.7089 21.2687L20.9453 16.0323C22.3999 14.5778 25.018 14.5778 26.4726 16.0323C27.9271 17.4869 27.9271 20.105 26.4726 21.5596L18.4726 29.5596C17.7453 30.2869 16.7271 30.7232 15.7089 30.7232ZM12.7999 23.0141C12.5089 23.0141 12.218 23.1596 12.0726 23.305C11.6362 23.7414 11.6362 24.3232 12.0726 24.7596L14.9817 27.6687C15.418 28.105 15.9999 28.105 16.4362 27.6687L24.4362 19.6687C24.8726 19.2323 24.8726 18.6505 24.4362 18.2141C23.9999 17.7778 23.418 17.7778 22.9817 18.2141L16.7271 24.4687C16.4362 24.7596 16.1453 24.905 15.7089 24.905C15.2726 24.905 14.9817 24.7596 14.6908 24.4687L13.5271 23.305C13.3817 23.1596 13.0908 23.0141 12.7999 23.0141Z" fill="#44AB64"></path></svg>