<svg xmlns="http://www.w3.org/2000/svg" width="96" height="96" viewBox="0 0 96 96" fill="none"><path d="M12 88H84" stroke="#44AB64" stroke-width="3.5" stroke-linecap="round" stroke-linejoin="round"></path><path d="M12 68C12 71.772 12 73.656 13.172 74.828C14.344 76 16.228 76 20 76C23.772 76 25.656 76 26.828 74.828C28 73.656 28 71.772 28 68V44C28 40.228 28 38.344 26.828 37.172C25.656 36 23.772 36 20 36C16.228 36 14.344 36 13.172 37.172C12 38.344 12 40.228 12 44V52" stroke="#44AB64" stroke-width="3.5" stroke-linecap="round"></path><path d="M40 28C40 24.228 40 22.344 41.172 21.172C42.344 20 44.228 20 48 20C51.772 20 53.656 20 54.828 21.172C56 22.344 56 24.228 56 28V68C56 71.772 56 73.656 54.828 74.828C53.656 76 51.772 76 48 76C44.228 76 42.344 76 41.172 74.828C40 73.656 40 71.772 40 68V28Z" stroke="#44AB64" stroke-width="3.5"></path><path d="M84 44V68C84 71.772 84 73.656 82.828 74.828C81.656 76 79.772 76 76 76C72.228 76 70.344 76 69.172 74.828C68 73.656 68 71.772 68 68V16C68 12.228 68 10.344 69.172 9.172C70.344 8 72.228 8 76 8C79.772 8 81.656 8 82.828 9.172C84 10.344 84 12.228 84 16V28" stroke="#44AB64" stroke-width="3.5" stroke-linecap="round"></path></svg>