<svg xmlns="http://www.w3.org/2000/svg" width="96" height="96" viewBox="0 0 96 96" fill="none"><path d="M47.9993 18C43.0863 17.9987 38.2482 19.2039 33.91 21.5099C29.5718 23.8159 25.8663 27.152 23.1191 31.2251C20.372 35.2983 18.6672 39.9838 18.1546 44.87C17.642 49.7561 18.3372 54.6934 20.1793 59.248C20.278 59.4915 20.3279 59.752 20.3259 60.0148C20.324 60.2775 20.2703 60.5373 20.168 60.7793C20.0657 61.0213 19.9167 61.2407 19.7295 61.4251C19.5424 61.6095 19.3208 61.7553 19.0773 61.854C18.8338 61.9528 18.5733 62.0026 18.3106 62.0007C18.0478 61.9988 17.788 61.9451 17.5461 61.8428C17.3041 61.7404 17.0846 61.5914 16.9002 61.4043C16.7158 61.2171 16.57 60.9955 16.4713 60.752C13.5319 53.4824 13.1957 45.4202 15.5195 37.9311C17.8433 30.442 22.6844 23.9863 29.2226 19.6575C35.7609 15.3287 43.5944 13.3929 51.3964 14.178C59.1983 14.9631 66.4891 18.4208 72.0338 23.9655C77.5785 29.5102 81.0362 36.801 81.8214 44.603C82.6065 52.4049 80.6707 60.2385 76.3419 66.7767C72.013 73.315 65.5573 78.156 58.0682 80.4798C50.5791 82.8036 42.5169 82.4674 35.2473 79.528C34.7591 79.3267 34.3704 78.9404 34.1659 78.4535C33.9614 77.9666 33.9578 77.4187 34.1558 76.9291C34.3539 76.4396 34.7375 76.0482 35.223 75.8404C35.7085 75.6327 36.2564 75.6253 36.7473 75.82C40.8492 77.4754 45.2664 78.2032 49.6825 77.9514C54.0987 77.6995 58.4045 76.4742 62.2916 74.3632C66.1786 72.2522 69.5508 69.3078 72.1666 65.7408C74.7824 62.1738 76.577 58.0725 77.4219 53.7306C78.2669 49.3888 78.1412 44.9138 77.054 40.6262C75.9668 36.3386 73.9449 32.3444 71.1331 28.9298C68.3213 25.5152 64.7892 22.7646 60.7898 20.875C56.7904 18.9855 52.4226 18.0037 47.9993 18Z" fill="#44AB64"></path><path d="M25.9995 48.0001C25.9995 53.3561 27.9115 58.2641 31.0915 62.0801L29.1715 64.0001H23.0795C21.4888 64.0015 19.9637 64.6345 18.8395 65.7601L12.2875 72.3081C11.8685 72.7276 11.5832 73.2619 11.4677 73.8435C11.3521 74.4251 11.4115 75.0279 11.6384 75.5758C11.8652 76.1236 12.2493 76.592 12.7422 76.9217C13.2351 77.2513 13.8146 77.4276 14.4075 77.4281H18.5675V81.5881C18.568 82.181 18.7443 82.7606 19.0739 83.2534C19.4036 83.7463 19.872 84.1304 20.4198 84.3572C20.9677 84.5841 21.5705 84.6435 22.1521 84.528C22.7337 84.4124 23.268 84.1271 23.6875 83.7081L30.2355 77.1561C31.3615 76.0336 31.996 74.51 31.9995 72.9201V66.8321L33.9195 64.9121C37.7642 68.1145 42.5857 69.9105 47.5886 70.004C52.5914 70.0975 57.4766 68.4827 61.4382 65.4262C65.3999 62.3697 68.2013 58.054 69.3802 53.1912C70.5591 48.3284 70.0451 43.2089 67.923 38.6775C65.8009 34.1461 62.1975 30.4735 57.7073 28.2655C53.2171 26.0576 48.1084 25.4463 43.224 26.5324C38.3396 27.6185 33.9714 30.3373 30.84 34.24C27.7087 38.1428 26.0013 42.9964 25.9995 48.0001ZM47.9995 30.0001C50.8746 30.001 53.7076 30.6907 56.2615 32.0113C58.8153 33.3319 61.0156 35.245 62.6783 37.5906C64.341 39.9361 65.4176 42.6458 65.8181 45.4929C66.2186 48.3399 65.9312 51.2415 64.9801 53.9547C64.029 56.6679 62.4418 59.1138 60.3514 61.0877C58.2609 63.0615 55.7281 64.506 52.9648 65.3C50.2016 66.094 47.2883 66.2146 44.4689 65.6516C41.6495 65.0886 39.0059 63.8585 36.7595 62.0641L43.9315 54.8921C45.6088 55.8811 47.5893 56.2244 49.5016 55.8576C51.4139 55.4909 53.1268 54.4393 54.3193 52.8999C55.5117 51.3606 56.1017 49.4391 55.9788 47.4959C55.8559 45.5526 55.0285 43.7208 53.6517 42.344C52.2748 40.9671 50.443 40.1397 48.4997 40.0168C46.5565 39.8939 44.635 40.4839 43.0957 41.6763C41.5563 42.8688 40.5047 44.5817 40.138 46.494C39.7712 48.4063 40.1145 50.3868 41.1035 52.0641L33.9355 59.2361C31.8195 56.5878 30.4944 53.3959 30.1125 50.0276C29.7307 46.6594 30.3077 43.2518 31.7772 40.1971C33.2467 37.1423 35.5489 34.5646 38.4188 32.7607C41.2887 30.9567 44.6097 29.9998 47.9995 30.0001ZM21.6675 68.5841C21.8536 68.3985 22.0744 68.2514 22.3174 68.1512C22.5604 68.051 22.8207 67.9996 23.0835 68.0001H27.9995V72.9161C27.9983 73.4461 27.7869 73.9539 27.4115 74.3281L22.5715 79.1681V75.4281C22.5715 74.8977 22.3608 74.3889 21.9857 74.0139C21.6107 73.6388 21.102 73.4281 20.5715 73.4281H16.8275L21.6675 68.5841Z" fill="#44AB64"></path></svg>