<svg xmlns="http://www.w3.org/2000/svg" width="96" height="97" viewBox="0 0 96 97" fill="none"><path d="M89.0765 48.7843C89.0765 75.0952 74.2651 89.8929 47.9611 89.8929C21.6571 89.8929 6.85938 75.0952 6.85938 48.7843C6.85938 22.4872 21.6571 7.68262 47.9679 7.68262" stroke="#44AB64" stroke-width="3" stroke-linecap="round" stroke-linejoin="round"></path><path d="M41.3837 28.0963C31.8454 30.2632 26.5859 37.4769 26.5859 48.7843C26.5859 62.4643 34.2865 70.158 47.9665 70.158C59.8225 70.158 67.1871 64.3775 68.9357 53.9203M47.9665 48.7843L62.2088 34.5352M62.2019 34.5557L61.3517 31.7855C60.6161 29.4016 60.5448 26.8622 61.1453 24.4408C61.7458 22.0194 62.9954 19.8077 64.7597 18.0437L75.1894 7.60718L78.4808 18.27L89.1437 21.5615L78.7071 31.998C76.9438 33.761 74.7332 35.0099 72.3132 35.6104C69.8931 36.2109 67.3551 36.1402 64.9722 35.406L62.2019 34.5557Z" stroke="#44AB64" stroke-width="3" stroke-linecap="round" stroke-linejoin="round"></path></svg>