<svg xmlns="http://www.w3.org/2000/svg" width="96" height="96" viewBox="0 0 96 96" fill="none"><path d="M38.7257 25.9271V22.7998M38.7257 25.9271C44.2645 25.9271 46.9049 28.6496 46.9049 31.859M38.7257 25.9271C33.1811 25.9271 30.5466 28.4912 30.5466 31.859C30.5466 34.4817 33.1869 37.0047 38.7257 37.7968C44.2704 38.5889 48.1546 40.4137 48.1546 44.3683C48.1546 47.9356 44.2704 50.9221 38.7257 50.9221C33.1811 50.9221 29.2969 48.3757 29.2969 44.9843M38.7257 54.0553V50.9339" stroke="#44AB64" stroke-width="3" stroke-linecap="round" stroke-linejoin="round"></path><path d="M66.16 46.7917C66.7154 44.2257 66.9932 41.4367 66.9932 38.4248C66.9932 20.3122 56.8074 10.1206 38.6948 10.1206C20.5823 10.1206 10.3906 20.3122 10.3906 38.4248C10.3906 52.131 16.2287 61.2958 26.919 64.9453M30.5861 85.8801C30.5861 85.8801 44.4273 67.5915 50.5645 68.0902C55.4931 68.4892 55.9332 78.9683 60.5039 77.0791C63.5549 75.8176 80.9458 60.0402 85.2231 56.1325" stroke="#44AB64" stroke-width="3" stroke-linecap="round" stroke-linejoin="round"></path><path d="M70.5977 54.8243C75.1507 53.686 81.065 54.1437 85.3834 55.9684C86.5217 60.5156 86.064 66.4299 84.2452 70.7542" stroke="#44AB64" stroke-linecap="round" stroke-linejoin="round"></path></svg>