<svg xmlns="http://www.w3.org/2000/svg" width="96" height="97" viewBox="0 0 96 97" fill="none"><path d="M81.0018 9.46973H15.0037C13.4125 9.46973 11.8864 10.1018 10.7612 11.227C9.63603 12.3522 9.00391 13.8783 9.00391 15.4696V81.4677C9.00391 83.0589 9.63603 84.585 10.7612 85.7102C11.8864 86.8354 13.4125 87.4675 15.0037 87.4675H81.0018C82.5931 87.4675 84.1192 86.8354 85.2444 85.7102C86.3695 84.585 87.0017 83.0589 87.0017 81.4677V15.4696C87.0017 13.8783 86.3695 12.3522 85.2444 11.227C84.1192 10.1018 82.5931 9.46973 81.0018 9.46973Z" stroke="#44AB64" stroke-width="3.5" stroke-linecap="round" stroke-linejoin="round"></path><path d="M48.0037 9.46973V22.2614C46.7088 21.1031 45.1063 20.3444 43.3897 20.0768C41.673 19.8092 39.9157 20.0443 38.3297 20.7535C36.7437 21.4627 35.3969 22.6159 34.4518 24.0737C33.5068 25.5316 33.0039 27.2318 33.0039 28.9692C33.0039 30.7065 33.5068 32.4067 34.4518 33.8646C35.3969 35.3224 36.7437 36.4756 38.3297 37.1848C39.9157 37.8941 41.673 38.1291 43.3897 37.8615C45.1063 37.594 46.7088 36.8353 48.0037 35.677V61.2602C49.2986 60.102 50.9011 59.3432 52.6177 59.0757C54.3344 58.8081 56.0917 59.0431 57.6777 59.7524C59.2637 60.4616 60.6106 61.6148 61.5556 63.0726C62.5006 64.5305 63.0035 66.2307 63.0035 67.968C63.0035 69.7054 62.5006 71.4056 61.5556 72.8635C60.6106 74.3213 59.2637 75.4745 57.6777 76.1837C56.0917 76.893 54.3344 77.128 52.6177 76.8604C50.9011 76.5929 49.2986 75.8341 48.0037 74.6759V87.4675" stroke="#44AB64" stroke-width="3.5" stroke-linecap="round" stroke-linejoin="round"></path><path d="M9.00391 48.4685H21.7955C20.6373 49.7635 19.8785 51.3659 19.611 53.0826C19.3434 54.7992 19.5784 56.5566 20.2877 58.1426C20.9969 59.7286 22.1501 61.0754 23.6079 62.0204C25.0658 62.9655 26.766 63.4683 28.5033 63.4683C30.2407 63.4683 31.9409 62.9655 33.3988 62.0204C34.8566 61.0754 36.0098 59.7286 36.719 58.1426C37.4283 56.5566 37.6633 54.7992 37.3957 53.0826C37.1282 51.3659 36.3694 49.7635 35.2112 48.4685H60.7944C59.6361 47.1736 58.8774 45.5711 58.6099 43.8545C58.3423 42.1379 58.5773 40.3805 59.2866 38.7945C59.9958 37.2085 61.149 35.8617 62.6068 34.9167C64.0646 33.9716 65.7649 33.4688 67.5022 33.4688C69.2396 33.4687 70.9398 33.9716 72.3977 34.9167C73.8555 35.8617 75.0086 37.2085 75.7179 38.7945C76.4271 40.3805 76.6622 42.1379 76.3946 43.8545C76.127 45.5711 75.3683 47.1736 74.21 48.4685H87.0017" stroke="#44AB64" stroke-width="3.5" stroke-linecap="round" stroke-linejoin="round"></path></svg>