<svg xmlns="http://www.w3.org/2000/svg" width="96" height="96" viewBox="0 0 96 96" fill="none"><path d="M38.7257 25.9271V22.7998M38.7257 25.9271C44.2645 25.9271 46.9049 28.6496 46.9049 31.859M38.7257 25.9271C33.1811 25.9271 30.5466 28.4912 30.5466 31.859C30.5466 34.4817 33.1869 37.0047 38.7257 37.7968C44.2704 38.5889 48.1546 40.4137 48.1546 44.3683C48.1546 47.9356 44.2704 50.9221 38.7257 50.9221C33.1811 50.9221 29.2969 48.3757 29.2969 44.9843M38.7257 54.0553V50.9339" stroke="#44AB64" stroke-width="3.5" stroke-linecap="round" stroke-linejoin="round"></path><path d="M66.16 46.7914C66.7154 44.2254 66.9932 41.4365 66.9932 38.4246C66.9932 20.312 56.8074 10.1204 38.6948 10.1204C20.5823 10.1204 10.3906 20.312 10.3906 38.4246C10.3906 52.1307 16.2287 61.2956 26.919 64.9451M30.5861 85.8799C30.5861 85.8799 44.4273 67.5913 50.5645 68.09C55.4931 68.489 55.9332 78.9681 60.5039 77.0788C63.5549 75.8173 80.9458 60.04 85.2231 56.1323" stroke="#44AB64" stroke-width="3.5" stroke-linecap="round" stroke-linejoin="round"></path><path d="M70.5977 54.824C75.1507 53.6858 81.065 54.1434 85.3834 55.9682C86.5217 60.5154 86.064 66.4297 84.2452 70.7539" stroke="#44AB64" stroke-width="3.5" stroke-linecap="round" stroke-linejoin="round"></path></svg>