<svg xmlns="http://www.w3.org/2000/svg" width="96" height="97" viewBox="0 0 96 97" fill="none"><path d="M85.7154 4.17859H10.2868C8.4682 4.17859 6.72406 4.90104 5.4381 6.187C4.15213 7.47296 3.42969 9.2171 3.42969 11.0357V86.4643C3.42969 88.2829 4.15213 90.0271 5.4381 91.313C6.72406 92.599 8.4682 93.3214 10.2868 93.3214H85.7154C87.534 93.3214 89.2782 92.599 90.5641 91.313C91.8501 90.0271 92.5725 88.2829 92.5725 86.4643V11.0357C92.5725 9.2171 91.8501 7.47296 90.5641 6.187C89.2782 4.90104 87.534 4.17859 85.7154 4.17859Z" stroke="#44AB64" stroke-width="3" stroke-linecap="round" stroke-linejoin="round"></path><path d="M48.0025 4.17859V18.798C46.5226 17.4742 44.6911 16.6071 42.7292 16.3013C40.7672 15.9955 38.7587 16.2641 36.9461 17.0747C35.1335 17.8853 33.5943 19.2032 32.5142 20.8694C31.4341 22.5355 30.8594 24.4787 30.8594 26.4643C30.8594 28.4499 31.4341 30.3931 32.5142 32.0592C33.5943 33.7254 35.1335 35.0433 36.9461 35.8539C38.7587 36.6645 40.7672 36.9331 42.7292 36.6273C44.6911 36.3215 46.5226 35.4544 48.0025 34.1306V63.3694C49.4824 62.0457 51.3139 61.1785 53.2758 60.8727C55.2377 60.5669 57.2462 60.8355 59.0589 61.6461C60.8715 62.4567 62.4107 63.7746 63.4908 65.4408C64.5709 67.107 65.1456 69.0501 65.1456 71.0357C65.1456 73.0213 64.5709 74.9645 63.4908 76.6307C62.4107 78.2968 60.8715 79.6147 59.0589 80.4253C57.2462 81.2359 55.2377 81.5045 53.2758 81.1987C51.3139 80.8929 49.4824 80.0258 48.0025 78.702V93.3214" stroke="#44AB64" stroke-width="3" stroke-linecap="round" stroke-linejoin="round"></path><path d="M3.42969 48.7501H18.0491C16.7253 50.23 15.8582 52.0615 15.5524 54.0234C15.2466 55.9853 15.5152 57.9938 16.3258 59.8064C17.1364 61.619 18.4543 63.1583 20.1205 64.2384C21.7866 65.3184 23.7298 65.8932 25.7154 65.8932C27.701 65.8932 29.6442 65.3184 31.3103 64.2384C32.9765 63.1583 34.2944 61.619 35.105 59.8064C35.9156 57.9938 36.1842 55.9853 35.8784 54.0234C35.5726 52.0615 34.7055 50.23 33.3817 48.7501H62.6205C61.2968 47.2701 60.4296 45.4386 60.1238 43.4767C59.818 41.5148 60.0866 39.5063 60.8972 37.6937C61.7078 35.8811 63.0257 34.3418 64.6919 33.2617C66.3581 32.1817 68.3012 31.6069 70.2868 31.6069C72.2724 31.6069 74.2156 32.1817 75.8818 33.2617C77.5479 34.3418 78.8658 35.8811 79.6764 37.6937C80.487 39.5063 80.7556 41.5148 80.4498 43.4767C80.144 45.4386 79.2769 47.2701 77.9531 48.7501H92.5725" stroke="#44AB64" stroke-width="3" stroke-linecap="round" stroke-linejoin="round"></path></svg>