<svg xmlns="http://www.w3.org/2000/svg" width="96" height="96" viewBox="0 0 96 96" fill="none"><path d="M3.30016 75.9002L7.28014 81.2066L3.12145 90.909C2.8695 91.4978 3.01744 92.1812 3.49206 92.6111C3.77476 92.8675 4.13658 93 4.49986 93C4.74742 93 4.99644 92.9392 5.22204 92.814L35.222 76.314C35.7025 76.0511 35.9999 75.5472 35.9999 75C35.9999 74.4529 35.7025 73.949 35.222 73.6861L5.22204 57.1861C4.6654 56.8777 3.96667 56.9576 3.49206 57.3889C3.01744 57.8189 2.8695 58.5022 3.12145 59.0911L7.28014 68.7935L3.30016 74.0999C2.90025 74.6331 2.90025 75.367 3.30016 75.9002ZM10.0799 82.2874L24.1615 78.9741L7.59508 88.0855L10.0799 82.2874ZM24.1615 71.026L10.0799 67.7127L7.59507 61.9146L24.1615 71.026ZM9.6108 70.6852L27.9487 75L9.6108 79.3148L6.37486 75L9.6108 70.6852Z" fill="#44AB64"></path><path d="M69 3C56.2729 3 45.8567 12.9662 45.076 25.5H41.1211L37.0605 21.4395L34.9395 23.5605L36.8789 25.5H30.75C22.0649 25.5 15 32.5657 15 41.25C15 49.9343 22.0649 57 30.75 57H47.3789L51.4395 61.0605L53.5605 58.9395L51.6211 57H80.25C84.7983 57 88.5 60.7009 88.5 65.25C88.5 69.7991 84.7983 73.5 80.25 73.5H66.6211L62.5605 69.4395L60.4395 71.5605L62.3789 73.5H39V76.5H62.3789L60.4395 78.4395L62.5605 80.5605L66.6211 76.5H80.25C86.4536 76.5 91.5 71.4536 91.5 65.25C91.5 59.0464 86.4536 54 80.25 54H51.6211L53.5605 52.0605L51.4395 49.9395L47.3789 54H30.75C23.7202 54 18 48.2805 18 41.25C18 34.2195 23.7202 28.5 30.75 28.5H36.8789L34.9395 30.4395L37.0605 32.5605L41.1211 28.5H45.076C45.8567 41.0339 56.2729 51 69 51C82.2334 51 93 40.2334 93 27C93 13.7666 82.2334 3 69 3ZM69 48C57.9267 48 48.8504 39.3794 48.076 28.5H52.576C53.3373 36.8969 60.4081 43.5 69 43.5C78.0981 43.5 85.5 36.0981 85.5 27C85.5 17.9019 78.0981 10.5 69 10.5C60.4081 10.5 53.3373 17.1032 52.576 25.5H48.076C48.8504 14.6206 57.9267 6 69 6C80.5796 6 90 15.4204 90 27C90 38.5796 80.5796 48 69 48ZM65.5605 32.5605L70.0605 28.0605C70.6465 27.4746 70.6465 26.5254 70.0605 25.9395L65.5605 21.4395L63.4395 23.5605L65.3789 25.5H55.5885C56.3377 18.7605 62.0632 13.5 69 13.5C76.4443 13.5 82.5 19.5564 82.5 27C82.5 34.4436 76.4443 40.5 69 40.5C62.0632 40.5 56.3377 35.2395 55.5885 28.5H65.3789L63.4395 30.4395L65.5605 32.5605Z" fill="#44AB64"></path><path d="M78 27C78 22.0371 73.9629 18 69 18V21C72.3091 21 75 23.6916 75 27C75 30.3084 72.3091 33 69 33V36C73.9629 36 78 31.9629 78 27Z" fill="#44AB64"></path></svg>