<svg xmlns="http://www.w3.org/2000/svg" width="1920" height="911" viewBox="0 0 1920 911" fill="none"><g clip-path="url(#clip0_216_82)"><rect width="1920" height="911" fill="white"></rect><g clip-path="url(#clip1_216_82)"><path d="M2446.34 -187.632C2446.94 -187.851 2447.53 -188.073 2448.13 -188.293C2448.58 -188.527 2449.03 -188.763 2449.48 -188.998C2448.44 -188.542 2447.39 -188.087 2446.34 -187.632ZM1280.17 648.605L1281.33 647.409L1279.83 648.709L1278.69 649.78L1280.17 648.605ZM2432.5 -181.574C2434.78 -182.281 2437.03 -182.996 2439.31 -183.7C2440.93 -184.545 2442.55 -185.387 2444.17 -186.229C2441.83 -185.363 2439.49 -184.498 2437.15 -183.634C2435.59 -182.951 2434.06 -182.26 2432.5 -181.574ZM2426.28 -179.618L2427.88 -180.122L2429.06 -180.643C2428.13 -180.302 2427.2 -179.962 2426.28 -179.618ZM1291.63 637.785L1292.77 636.482L1291.35 637.825L1290.15 639.073L1291.63 637.785ZM1286.69 643.439C1287.48 642.537 1288.27 641.636 1289.06 640.735C1288.04 641.616 1287.02 642.495 1286 643.374C1285.17 644.239 1284.34 645.106 1283.5 645.97L1286.69 643.439ZM2421.71 -176.77C2424.64 -177.544 2427.55 -178.324 2430.5 -179.093C2432.49 -180.139 2434.49 -181.182 2436.48 -182.226C2433.62 -181.331 2430.79 -180.43 2427.92 -179.536C2425.85 -178.615 2423.78 -177.693 2421.71 -176.77ZM2411.68 -174.095L2418.32 -175.865C2419.97 -176.606 2421.64 -177.341 2423.3 -178.082C2421.1 -177.394 2418.91 -176.707 2416.72 -176.016C2415.04 -175.378 2413.36 -174.734 2411.68 -174.095ZM2405.77 -172.517L2406.42 -172.69L2407.12 -172.958C2406.67 -172.813 2406.22 -172.664 2405.77 -172.517ZM1302.28 626.691C1302.65 626.212 1303.02 625.734 1303.4 625.256L1301.97 626.741L1300.82 628.08L1302.28 626.691ZM1297.73 632.498L1299.96 629.653L1297.09 632.377C1296.3 633.295 1295.49 634.215 1294.69 635.134L1297.73 632.498ZM1293.2 638.267C1294.13 637.093 1295.05 635.918 1295.97 634.744L1292.11 638.088C1291.13 639.219 1290.14 640.35 1289.16 641.482L1293.2 638.267ZM2411.49 -172.2C2414.94 -172.965 2418.35 -173.74 2421.82 -174.5C2423.98 -175.643 2426.13 -176.786 2428.29 -177.926C2424.95 -177.046 2421.67 -176.15 2418.33 -175.268C2416.05 -174.245 2413.76 -173.226 2411.49 -172.2ZM2399.75 -169.55C2402.78 -170.236 2405.81 -170.921 2408.85 -171.603C2410.88 -172.522 2412.9 -173.446 2414.94 -174.362C2412.09 -173.605 2409.24 -172.847 2406.41 -172.086C2404.19 -171.24 2401.95 -170.4 2399.75 -169.55ZM2389.77 -167.299C2391.83 -167.774 2393.93 -168.24 2396.02 -168.71C2397.72 -169.369 2399.44 -170.025 2401.14 -170.682C2399.05 -170.116 2396.98 -169.542 2394.9 -168.971C2393.19 -168.414 2391.47 -167.858 2389.77 -167.299ZM1312.02 615.396L1313.08 613.853L1311.89 615.239C1311.48 615.763 1311.08 616.287 1310.67 616.811L1312.02 615.396ZM1307.95 621.289C1308.64 620.297 1309.32 619.306 1310.01 618.315C1309.1 619.267 1308.2 620.22 1307.29 621.171L1305.06 624.042C1306.03 623.124 1306.99 622.207 1307.95 621.289ZM1303.82 627.21C1304.67 625.992 1305.52 624.775 1306.37 623.558C1305.18 624.686 1303.99 625.815 1302.81 626.943C1301.88 628.138 1300.94 629.334 1300 630.53C1301.27 629.423 1302.55 628.316 1303.82 627.21ZM1299.68 633.116C1300.64 631.759 1301.59 630.401 1302.54 629.045C1301.11 630.289 1299.67 631.533 1298.24 632.776C1297.21 634.089 1296.19 635.402 1295.16 636.715C1296.67 635.516 1298.18 634.316 1299.68 633.116ZM2401.73 -167.756C2405.51 -168.463 2409.26 -169.177 2413.08 -169.877C2415.34 -171.083 2417.62 -172.279 2419.89 -173.482C2416.18 -172.662 2412.55 -171.823 2408.85 -170.999C2406.47 -169.921 2404.1 -168.838 2401.73 -167.756ZM2388.96 -165.337C2392.45 -166 2395.94 -166.665 2399.45 -167.324C2401.7 -168.353 2403.96 -169.379 2406.21 -170.403C2402.8 -169.638 2399.39 -168.87 2396 -168.098C2393.63 -167.183 2391.31 -166.256 2388.96 -165.337ZM2377.08 -163.086C2380.01 -163.657 2383.01 -164.214 2385.99 -164.773C2388.12 -165.611 2390.25 -166.45 2392.39 -167.285C2389.34 -166.59 2386.31 -165.89 2383.3 -165.187C2381.2 -164.493 2379.16 -163.783 2377.08 -163.086ZM2365.93 -160.853C2368.23 -161.31 2370.5 -161.773 2372.79 -162.233C2374.31 -162.745 2375.81 -163.261 2377.33 -163.77C2374.89 -163.189 2372.45 -162.61 2370 -162.029C2368.64 -161.64 2367.3 -161.244 2365.93 -160.853ZM1320.93 603.811C1321.26 603.268 1321.59 602.724 1321.91 602.182C1321.49 602.73 1321.08 603.279 1320.66 603.828L1319.65 605.311L1320.93 603.811ZM1317.28 609.85L1319.13 606.793C1318.31 607.75 1317.5 608.706 1316.67 609.665C1315.99 610.67 1315.29 611.677 1314.6 612.684C1315.49 611.739 1316.38 610.794 1317.28 609.85ZM1313.6 615.889C1314.38 614.622 1315.16 613.354 1315.93 612.087C1314.82 613.26 1313.7 614.433 1312.59 615.606C1311.74 616.825 1310.91 618.046 1310.07 619.266C1311.24 618.14 1312.42 617.015 1313.6 615.889ZM1309.91 621.913L1312.48 617.72C1311.15 618.986 1309.83 620.253 1308.5 621.519C1307.55 622.888 1306.59 624.258 1305.64 625.629L1309.91 621.913ZM1306.16 627.953C1307.1 626.455 1308.03 624.959 1308.96 623.463C1307.42 624.797 1305.89 626.132 1304.35 627.466C1303.34 628.914 1302.34 630.362 1301.32 631.812C1302.94 630.525 1304.55 629.239 1306.16 627.953ZM2391.98 -163.322C2396.15 -163.968 2400.28 -164.624 2404.48 -165.262C2406.78 -166.494 2409.06 -167.732 2411.37 -168.961C2407.35 -168.221 2403.42 -167.458 2399.43 -166.711C2396.95 -165.579 2394.45 -164.457 2391.98 -163.322ZM2378.34 -161.172C2382.22 -161.786 2386.1 -162.4 2390 -163.009C2392.37 -164.103 2394.77 -165.19 2397.15 -166.28C2393.41 -165.575 2389.67 -164.868 2385.95 -164.157C2383.41 -163.162 2380.86 -162.17 2378.34 -161.172ZM2365.38 -159.13C2368.8 -159.688 2372.3 -160.224 2375.78 -160.768C2378.17 -161.715 2380.59 -162.652 2382.98 -163.595C2379.54 -162.938 2376.12 -162.278 2372.72 -161.61C2370.27 -160.785 2367.82 -159.958 2365.38 -159.13ZM2352.59 -156.966C2355.69 -157.484 2358.76 -158.01 2361.84 -158.531C2364 -159.267 2366.18 -159.996 2368.34 -160.729C2365.28 -160.114 2362.23 -159.498 2359.17 -158.883C2356.97 -158.247 2354.78 -157.607 2352.59 -156.966ZM2341.64 -155.116C2343.64 -155.457 2345.66 -155.795 2347.67 -156.135C2349.26 -156.605 2350.88 -157.071 2352.49 -157.539C2350.51 -157.142 2348.52 -156.75 2346.56 -156.348C2344.91 -155.938 2343.28 -155.525 2341.64 -155.116ZM1328.95 591.992C1329.24 591.43 1329.52 590.869 1329.81 590.306L1328.81 591.799C1328.46 592.384 1328.11 592.969 1327.76 593.555L1328.95 591.992ZM1325.73 598.182C1326.28 597.116 1326.84 596.048 1327.4 594.982C1326.66 595.955 1325.91 596.93 1325.17 597.903C1324.56 598.933 1323.95 599.961 1323.33 600.991C1324.13 600.054 1324.93 599.118 1325.73 598.182ZM1322.53 604.298C1323.21 603.006 1323.88 601.718 1324.56 600.427C1323.55 601.606 1322.54 602.786 1321.54 603.965C1320.77 605.242 1320 606.518 1319.22 607.795C1320.33 606.629 1321.43 605.464 1322.53 604.298ZM1319.25 610.481C1320.03 609.031 1320.8 607.58 1321.57 606.131C1320.34 607.432 1319.1 608.733 1317.87 610.033C1317.02 611.444 1316.16 612.854 1315.3 614.265C1316.62 613.003 1317.94 611.742 1319.25 610.481ZM1315.99 616.611C1316.81 615.083 1317.61 613.56 1318.43 612.034C1317.01 613.389 1315.6 614.742 1314.18 616.096C1313.26 617.596 1312.34 619.097 1311.42 620.598C1312.94 619.269 1314.47 617.94 1315.99 616.611ZM1312.63 622.797C1313.51 621.193 1314.38 619.588 1315.24 617.985C1313.65 619.372 1312.06 620.76 1310.47 622.148C1309.5 623.709 1308.54 625.271 1307.57 626.834C1309.26 625.489 1310.95 624.144 1312.63 622.797ZM2382.54 -158.93C2386.98 -159.493 2391.36 -160.07 2395.84 -160.624C2398.19 -161.891 2400.55 -163.151 2402.9 -164.416C2398.55 -163.751 2394.3 -163.063 2389.98 -162.391C2387.48 -161.243 2385.02 -160.082 2382.54 -158.93ZM2368 -157.051C2372.23 -157.601 2376.47 -158.153 2380.73 -158.696C2383.16 -159.825 2385.57 -160.957 2388 -162.081C2383.9 -161.439 2379.8 -160.795 2375.72 -160.145C2373.14 -159.117 2370.57 -158.083 2368 -157.051ZM2353.93 -155.222C2357.84 -155.748 2361.83 -156.255 2365.8 -156.767C2368.27 -157.756 2370.69 -158.758 2373.17 -159.742C2369.35 -159.134 2365.53 -158.524 2361.76 -157.904C2359.15 -157.01 2356.53 -156.12 2353.93 -155.222ZM2339.84 -153.245C2343.6 -153.768 2347.32 -154.3 2351.08 -154.821C2353.46 -155.649 2355.82 -156.482 2358.22 -157.306C2354.66 -156.707 2351.12 -156.104 2347.57 -155.505C2345 -154.75 2342.39 -154.006 2339.84 -153.245ZM2326.89 -151.428C2329.96 -151.867 2333.07 -152.297 2336.17 -152.729C2338.33 -153.377 2340.48 -154.029 2342.65 -154.673C2339.78 -154.192 2336.9 -153.713 2334.07 -153.223C2331.68 -152.621 2329.26 -152.033 2326.89 -151.428ZM2316.22 -149.916C2318.05 -150.185 2319.9 -150.449 2321.77 -150.709C2323.19 -151.077 2324.6 -151.452 2326.03 -151.818C2324.04 -151.463 2322.08 -151.098 2320.09 -150.744C2318.81 -150.466 2317.5 -150.194 2316.22 -149.916ZM1336.06 579.927L1336.76 578.288C1336.49 578.758 1336.21 579.229 1335.93 579.699C1335.65 580.258 1335.37 580.816 1335.09 581.377L1336.06 579.927ZM1333.33 586.19C1333.81 585.106 1334.28 584.024 1334.75 582.941C1334.08 583.949 1333.41 584.956 1332.74 585.965L1331.12 589.12L1333.33 586.19ZM1330.55 592.496C1331.14 591.16 1331.73 589.825 1332.32 588.491C1331.41 589.69 1330.51 590.889 1329.6 592.088C1328.92 593.402 1328.23 594.718 1327.55 596.034C1328.55 594.854 1329.55 593.675 1330.55 592.496ZM1327.75 598.771C1328.42 597.287 1329.08 595.804 1329.74 594.322C1328.61 595.651 1327.49 596.98 1326.36 598.308L1324.09 602.65C1325.32 601.357 1326.53 600.064 1327.75 598.771ZM1324.9 605.064C1325.62 603.487 1326.33 601.91 1327.04 600.334C1325.75 601.707 1324.45 603.081 1323.15 604.454C1322.34 606.004 1321.51 607.557 1320.68 609.11C1322.09 607.761 1323.5 606.413 1324.9 605.064ZM1322.03 611.338C1322.79 609.693 1323.54 608.05 1324.29 606.408C1322.81 607.826 1321.34 609.244 1319.85 610.662C1319 612.265 1318.15 613.867 1317.3 615.469L1322.03 611.338ZM1319.11 617.62C1319.9 615.931 1320.68 614.243 1321.46 612.556L1316.58 616.82C1315.69 618.481 1314.78 620.144 1313.87 621.807C1315.62 620.412 1317.36 619.016 1319.11 617.62ZM2373.07 -154.523C2377.81 -155.005 2382.49 -155.505 2387.27 -155.978C2389.63 -157.26 2391.99 -158.546 2394.35 -159.826C2389.75 -159.253 2385.26 -158.653 2380.69 -158.072C2378.15 -156.889 2375.6 -155.71 2373.07 -154.523ZM2357.82 -152.939C2362.33 -153.412 2366.84 -153.883 2371.39 -154.348C2373.88 -155.516 2376.39 -156.674 2378.89 -157.839C2374.49 -157.276 2370.1 -156.711 2365.74 -156.139C2363.09 -155.075 2360.45 -154.007 2357.82 -152.939ZM2342.97 -151.379C2347.2 -151.841 2351.51 -152.283 2355.81 -152.729C2358.38 -153.774 2360.96 -154.815 2363.55 -155.855C2359.34 -155.305 2355.14 -154.753 2350.98 -154.189C2348.3 -153.258 2345.64 -152.316 2342.97 -151.379ZM2328.1 -149.677C2332.22 -150.144 2336.3 -150.622 2340.43 -151.087C2342.99 -151.99 2345.55 -152.892 2348.13 -153.789C2344.09 -153.229 2340.09 -152.66 2336.06 -152.097C2333.39 -151.296 2330.76 -150.482 2328.1 -149.677ZM2313.99 -148.061C2317.61 -148.485 2321.27 -148.898 2324.93 -149.314C2327.41 -150.07 2329.89 -150.829 2332.39 -151.581C2328.8 -151.082 2325.19 -150.587 2321.66 -150.076C2319.07 -149.41 2316.55 -148.731 2313.99 -148.061ZM2300.75 -146.495C2303.79 -146.864 2306.84 -147.234 2309.91 -147.594C2312.16 -148.184 2314.39 -148.778 2316.65 -149.364C2313.36 -148.876 2310.15 -148.369 2306.87 -147.88C2304.81 -147.424 2302.8 -146.953 2300.75 -146.495ZM2288.74 -144.988C2290.74 -145.236 2292.73 -145.485 2294.7 -145.737C2296.04 -146.036 2297.36 -146.339 2298.7 -146.639C2296.51 -146.306 2294.31 -145.978 2292.13 -145.643C2290.99 -145.428 2289.88 -145.204 2288.74 -144.988ZM1342.26 567.627C1342.46 567.047 1342.67 566.465 1342.87 565.886L1342.12 567.405L1341.4 569.103C1341.68 568.612 1341.97 568.119 1342.26 567.627ZM1340 574.013C1340.39 572.911 1340.78 571.81 1341.17 570.708L1339.49 573.601C1339.01 574.718 1338.52 575.837 1338.04 576.957C1338.69 575.976 1339.35 574.993 1340 574.013ZM1337.68 580.439C1338.18 579.059 1338.69 577.68 1339.18 576.303C1338.37 577.525 1337.55 578.748 1336.74 579.97C1336.15 581.31 1335.58 582.647 1335 583.986C1335.89 582.804 1336.79 581.62 1337.68 580.439ZM1335.35 586.825C1335.9 585.315 1336.45 583.807 1337 582.298C1336 583.62 1335 584.944 1334 586.266C1333.34 587.767 1332.67 589.271 1332.01 590.773C1333.12 589.457 1334.24 588.14 1335.35 586.825ZM1332.95 593.249C1333.57 591.623 1334.18 589.995 1334.78 588.371C1333.59 589.779 1332.39 591.19 1331.2 592.599C1330.5 594.18 1329.8 595.759 1329.1 597.341C1330.38 595.977 1331.67 594.613 1332.95 593.249ZM1330.55 599.631C1331.19 597.954 1331.81 596.278 1332.44 594.6C1331.09 596.034 1329.74 597.469 1328.39 598.904C1327.65 600.561 1326.89 602.219 1326.14 603.878C1327.61 602.463 1329.08 601.048 1330.55 599.631ZM1328.07 606.058C1328.75 604.316 1329.43 602.573 1330.1 600.833C1328.57 602.296 1327.05 603.759 1325.53 605.223C1324.76 606.918 1323.99 608.613 1323.21 610.308C1324.83 608.892 1326.45 607.474 1328.07 606.058ZM1325.59 612.444C1326.28 610.68 1326.95 608.919 1327.64 607.156C1325.98 608.613 1324.31 610.069 1322.64 611.526C1321.84 613.26 1321.03 614.995 1320.22 616.73C1322.01 615.302 1323.8 613.873 1325.59 612.444ZM2363.77 -150.137C2368.71 -150.528 2373.68 -150.913 2378.67 -151.292C2381.07 -152.604 2383.48 -153.913 2385.89 -155.223C2380.98 -154.734 2376.21 -154.215 2371.34 -153.72C2368.8 -152.529 2366.29 -151.331 2363.77 -150.137ZM2347.72 -148.843C2352.53 -149.243 2357.38 -149.633 2362.24 -150.019C2364.72 -151.192 2367.17 -152.374 2369.66 -153.545C2365 -153.068 2360.35 -152.586 2355.74 -152.099C2353.07 -151.014 2350.38 -149.933 2347.72 -148.843ZM2331.87 -147.486C2336.53 -147.89 2341.19 -148.293 2345.89 -148.687C2348.49 -149.758 2351.11 -150.824 2353.73 -151.89C2349.24 -151.417 2344.76 -150.941 2340.33 -150.454C2337.52 -149.463 2334.67 -148.482 2331.87 -147.486ZM2316.48 -146.144C2320.83 -146.538 2325.24 -146.916 2329.64 -147.296C2332.33 -148.258 2335.08 -149.205 2337.79 -150.162C2333.44 -149.673 2329.14 -149.171 2324.82 -148.678C2322.04 -147.832 2319.24 -146.995 2316.48 -146.144ZM2301.25 -144.713C2305.36 -145.101 2309.48 -145.491 2313.62 -145.875C2316.27 -146.696 2318.98 -147.498 2321.64 -148.315C2317.68 -147.866 2313.7 -147.421 2309.79 -146.958C2306.94 -146.21 2304.07 -145.467 2301.25 -144.713ZM2286.9 -143.363C2290.44 -143.711 2294.06 -144.041 2297.67 -144.375C2300.32 -145.088 2303.04 -145.785 2305.72 -146.492C2301.96 -146.037 2298.31 -145.557 2294.57 -145.097C2292.01 -144.519 2289.44 -143.945 2286.9 -143.363ZM2272.98 -141.94C2276.01 -142.249 2279.01 -142.561 2282.03 -142.871C2284.18 -143.366 2286.37 -143.847 2288.53 -144.339C2285.54 -143.965 2282.55 -143.594 2279.58 -143.216C2277.38 -142.792 2275.17 -142.368 2272.98 -141.94ZM2261.58 -140.769C2263.12 -140.93 2264.69 -141.088 2266.24 -141.248C2267.67 -141.53 2269.14 -141.803 2270.57 -142.085C2269.1 -141.899 2267.63 -141.713 2266.18 -141.522C2264.64 -141.272 2263.11 -141.02 2261.58 -140.769ZM1347.56 554.995C1347.72 554.419 1347.88 553.844 1348.03 553.269L1347.44 554.702C1347.23 555.307 1347.02 555.914 1346.82 556.519C1347.07 556.011 1347.31 555.504 1347.56 554.995ZM1345.74 561.568C1346.05 560.464 1346.36 559.358 1346.66 558.255C1346.19 559.214 1345.7 560.176 1345.23 561.136C1344.84 562.253 1344.46 563.367 1344.07 564.486C1344.63 563.512 1345.18 562.54 1345.74 561.568ZM1343.92 568.082C1344.32 566.693 1344.7 565.306 1345.09 563.918C1344.38 565.152 1343.67 566.385 1342.96 567.621C1342.48 568.992 1341.99 570.364 1341.51 571.735C1342.31 570.516 1343.12 569.299 1343.92 568.082ZM1342.03 574.638C1342.48 573.083 1342.93 571.53 1343.38 569.978C1342.48 571.33 1341.59 572.681 1340.69 574.033C1340.15 575.562 1339.59 577.092 1339.04 578.625C1340.04 577.294 1341.03 575.966 1342.03 574.638ZM1340.13 581.16C1340.62 579.504 1341.1 577.851 1341.58 576.197C1340.51 577.627 1339.44 579.057 1338.36 580.489C1337.77 582.112 1337.18 583.735 1336.59 585.358C1337.77 583.958 1338.95 582.56 1340.13 581.16ZM1338.16 587.704C1338.68 585.976 1339.2 584.248 1339.72 582.523C1338.49 583.983 1337.26 585.442 1336.03 586.902C1335.4 588.603 1334.76 590.306 1334.12 592.01C1335.47 590.574 1336.81 589.139 1338.16 587.704ZM1336.17 594.23C1336.72 592.452 1337.26 590.678 1337.8 588.902C1336.4 590.388 1335.01 591.874 1333.61 593.361C1332.96 595.098 1332.31 596.835 1331.65 598.573C1333.16 597.126 1334.66 595.678 1336.17 594.23ZM1334.12 600.761C1334.69 598.947 1335.26 597.134 1335.82 595.323C1334.28 596.804 1332.74 598.285 1331.2 599.768C1330.52 601.551 1329.83 603.339 1329.13 605.126L1334.12 600.761ZM1332.03 607.286C1332.63 605.443 1333.22 603.601 1333.8 601.762C1332.1 603.249 1330.41 604.738 1328.71 606.224C1328.01 608.025 1327.31 609.825 1326.61 611.628C1328.42 610.181 1330.22 608.733 1332.03 607.286ZM2354.5 -145.727C2359.7 -146.033 2364.91 -146.336 2370.17 -146.629C2372.55 -147.942 2374.94 -149.252 2377.33 -150.561C2372.27 -150.175 2367.2 -149.788 2362.2 -149.389C2359.63 -148.17 2357.06 -146.95 2354.5 -145.727ZM2337.79 -144.715C2342.84 -145.03 2347.92 -145.337 2353.03 -145.639C2355.57 -146.852 2358.12 -148.061 2360.67 -149.27C2355.69 -148.873 2350.75 -148.467 2345.83 -148.057C2343.13 -146.948 2340.47 -145.829 2337.79 -144.715ZM2321.28 -143.657C2326.19 -143.982 2331.12 -144.302 2336.09 -144.613C2338.72 -145.709 2341.35 -146.808 2344 -147.901C2339.16 -147.493 2334.34 -147.083 2329.56 -146.665C2326.77 -145.67 2324.05 -144.657 2321.28 -143.657ZM2304.99 -142.55C2309.71 -142.879 2314.47 -143.201 2319.24 -143.518C2321.96 -144.505 2324.65 -145.499 2327.39 -146.48C2322.74 -146.073 2318.11 -145.662 2313.52 -145.242C2310.65 -144.353 2307.84 -143.446 2304.99 -142.55ZM2289 -141.413C2293.5 -141.742 2298.02 -142.068 2302.57 -142.387C2305.31 -143.249 2308 -144.125 2310.76 -144.984C2306.34 -144.574 2301.94 -144.161 2297.56 -143.744C2294.69 -142.973 2291.86 -142.189 2289 -141.413ZM2273.34 -140.229C2277.54 -140.552 2281.76 -140.87 2285.99 -141.185C2288.7 -141.925 2291.35 -142.681 2294.07 -143.416C2290 -143.03 2285.94 -142.639 2281.93 -142.239C2279.05 -141.573 2276.2 -140.899 2273.34 -140.229ZM2258.3 -139.052C2262.06 -139.355 2265.83 -139.655 2269.63 -139.949C2272.15 -140.544 2274.61 -141.156 2277.14 -141.748C2273.47 -141.373 2269.8 -140.997 2266.14 -140.618C2263.52 -140.097 2260.9 -139.576 2258.3 -139.052ZM2243.94 -137.852C2247.06 -138.116 2250.2 -138.377 2253.32 -138.636C2255.48 -139.074 2257.57 -139.524 2259.74 -139.959C2256.83 -139.66 2253.94 -139.357 2251.08 -139.048C2248.71 -138.649 2246.31 -138.256 2243.94 -137.852ZM2232.4 -136.888C2234.02 -137.029 2235.67 -137.164 2237.32 -137.299C2238.41 -137.488 2239.47 -137.683 2240.56 -137.872C2238.77 -137.669 2236.97 -137.471 2235.18 -137.27C2234.26 -137.14 2233.31 -137.018 2232.4 -136.888ZM1351.9 542.161C1352 541.64 1352.09 541.119 1352.19 540.598L1351.82 541.714C1351.66 542.321 1351.5 542.931 1351.34 543.539L1351.9 542.161ZM1350.56 548.871C1350.79 547.733 1351.03 546.595 1351.25 545.459C1350.84 546.468 1350.43 547.475 1350.02 548.486C1349.72 549.58 1349.44 550.671 1349.14 551.765C1349.62 550.8 1350.09 549.835 1350.56 548.871ZM1349.22 555.515C1349.51 554.107 1349.79 552.701 1350.07 551.293C1349.48 552.509 1348.88 553.724 1348.29 554.941C1347.9 556.354 1347.5 557.771 1347.11 559.186C1347.81 557.962 1348.52 556.738 1349.22 555.515ZM1347.8 562.204C1348.15 560.605 1348.5 559.007 1348.83 557.412C1348.04 558.786 1347.25 560.163 1346.46 561.537C1346.03 563.088 1345.61 564.637 1345.17 566.19C1346.05 564.861 1346.93 563.531 1347.8 562.204ZM1346.39 568.83C1346.75 567.151 1347.1 565.474 1347.46 563.796C1346.52 565.223 1345.57 566.652 1344.63 568.08C1344.15 569.754 1343.67 571.431 1343.18 573.108C1344.25 571.681 1345.32 570.256 1346.39 568.83ZM1344.88 575.518C1345.29 573.742 1345.7 571.966 1346.09 570.194C1344.97 571.684 1343.85 573.176 1342.73 574.666C1342.23 576.396 1341.74 578.123 1341.23 579.856C1342.44 578.41 1343.66 576.963 1344.88 575.518ZM1343.37 582.145C1343.79 580.337 1344.19 578.532 1344.6 576.725C1343.35 578.222 1342.08 579.72 1340.82 581.219C1340.29 583.008 1339.74 584.801 1339.2 586.593C1340.59 585.109 1341.99 583.627 1343.37 582.145ZM1341.77 588.824C1342.22 586.959 1342.68 585.092 1343.12 583.23C1341.69 584.75 1340.27 586.27 1338.84 587.791C1338.29 589.612 1337.74 591.432 1337.18 593.254C1338.71 591.778 1340.24 590.301 1341.77 588.824ZM1340.17 595.45C1340.63 593.572 1341.08 591.696 1341.53 589.819C1339.97 591.328 1338.4 592.837 1336.84 594.345C1336.26 596.197 1335.68 598.052 1335.09 599.905C1336.79 598.421 1338.48 596.935 1340.17 595.45ZM1338.46 602.128C1338.96 600.212 1339.46 598.295 1339.94 596.383C1338.22 597.891 1336.5 599.399 1334.78 600.905C1334.19 602.775 1333.59 604.645 1332.99 606.516C1334.81 605.053 1336.64 603.591 1338.46 602.128ZM2345.24 -141.3C2350.71 -141.518 2356.17 -141.737 2361.69 -141.945C2364.09 -143.275 2366.49 -144.604 2368.9 -145.93C2363.56 -145.631 2358.27 -145.318 2352.98 -145.006C2350.4 -143.771 2347.81 -142.539 2345.24 -141.3ZM2327.83 -140.577C2333.14 -140.808 2338.5 -141.029 2343.88 -141.246C2346.42 -142.472 2348.96 -143.696 2351.52 -144.918C2346.33 -144.611 2341.15 -144.3 2336.02 -143.979C2333.29 -142.845 2330.55 -141.716 2327.83 -140.577ZM2310.63 -139.788C2315.8 -140.031 2320.98 -140.27 2326.2 -140.502C2328.89 -141.633 2331.62 -142.751 2334.32 -143.877C2329.23 -143.555 2324.2 -143.22 2319.16 -142.886C2316.31 -141.855 2313.46 -140.824 2310.63 -139.788ZM2293.69 -138.967C2298.67 -139.219 2303.69 -139.463 2308.73 -139.701C2311.51 -140.722 2314.33 -141.732 2317.12 -142.748C2312.22 -142.422 2307.32 -142.093 2302.47 -141.754C2299.53 -140.827 2296.6 -139.899 2293.69 -138.967ZM2276.95 -138.086C2281.75 -138.345 2286.57 -138.598 2291.41 -138.847C2294.28 -139.765 2297.17 -140.676 2300.06 -141.59C2295.3 -141.251 2290.6 -140.901 2285.89 -140.553C2282.9 -139.734 2279.92 -138.911 2276.95 -138.086ZM2260.58 -137.176C2265.11 -137.437 2269.66 -137.694 2274.25 -137.944C2277.11 -138.742 2279.99 -139.534 2282.88 -140.326C2278.41 -139.994 2273.94 -139.662 2269.53 -139.318C2266.53 -138.609 2263.56 -137.891 2260.58 -137.176ZM2244.56 -136.218C2248.75 -136.475 2252.97 -136.726 2257.2 -136.974C2260.06 -137.666 2262.94 -138.352 2265.82 -139.038C2261.59 -138.702 2257.43 -138.35 2253.23 -138.007C2250.32 -137.416 2247.45 -136.815 2244.56 -136.218ZM2229.23 -135.257C2232.94 -135.497 2236.65 -135.738 2240.4 -135.97C2243.01 -136.514 2245.63 -137.052 2248.26 -137.592C2244.59 -137.288 2240.9 -136.987 2237.27 -136.674C2234.57 -136.207 2231.91 -135.729 2229.23 -135.257ZM2214.82 -134.288C2217.74 -134.488 2220.67 -134.682 2223.6 -134.878C2225.91 -135.29 2228.23 -135.697 2230.55 -136.105C2227.44 -135.828 2224.39 -135.534 2221.29 -135.255C2219.11 -134.937 2216.98 -134.609 2214.82 -134.288ZM2202.88 -133.477C2204.34 -133.581 2205.81 -133.683 2207.29 -133.783C2208.38 -133.946 2209.47 -134.108 2210.55 -134.27C2209.01 -134.127 2207.44 -133.988 2205.9 -133.843C2204.89 -133.721 2203.89 -133.6 2202.88 -133.477ZM1355.25 529.141L1355.43 527.672C1355.33 528.057 1355.24 528.44 1355.14 528.825C1355.05 529.324 1354.96 529.822 1354.87 530.323L1355.25 529.141ZM1354.44 535.919C1354.58 534.773 1354.72 533.629 1354.86 532.486C1354.54 533.465 1354.22 534.445 1353.9 535.426C1353.69 536.564 1353.47 537.704 1353.25 538.844C1353.64 537.868 1354.04 536.893 1354.44 535.919ZM1353.56 542.707C1353.75 541.283 1353.93 539.858 1354.11 538.437C1353.62 539.645 1353.12 540.857 1352.63 542.066C1352.35 543.503 1352.07 544.941 1351.78 546.38C1352.38 545.154 1352.97 543.931 1353.56 542.707ZM1352.66 549.479C1352.88 547.875 1353.09 546.272 1353.31 544.669C1352.64 546.046 1351.96 547.425 1351.29 548.803C1350.97 550.391 1350.65 551.981 1350.33 553.569C1351.11 552.205 1351.88 550.843 1352.66 549.479ZM1351.69 556.277C1351.94 554.556 1352.19 552.835 1352.42 551.116C1351.6 552.568 1350.78 554.016 1349.95 555.469C1349.59 557.172 1349.23 558.878 1348.87 560.585C1349.81 559.148 1350.75 557.714 1351.69 556.277ZM1350.69 563.059C1350.97 561.254 1351.24 559.452 1351.5 557.651C1350.51 559.162 1349.52 560.67 1348.53 562.182C1348.15 563.949 1347.77 565.716 1347.39 567.484C1348.49 566.009 1349.59 564.534 1350.69 563.059ZM1349.64 569.844C1349.93 567.988 1350.22 566.132 1350.5 564.277C1349.37 565.797 1348.24 567.316 1347.1 568.838C1346.7 570.672 1346.28 572.511 1345.86 574.348C1347.12 572.846 1348.38 571.346 1349.64 569.844ZM1348.54 576.623C1348.86 574.722 1349.17 572.822 1349.47 570.924C1348.18 572.468 1346.88 574.011 1345.59 575.555C1345.16 577.415 1344.75 579.276 1344.32 581.138C1345.73 579.633 1347.13 578.129 1348.54 576.623ZM1347.38 583.404C1347.72 581.475 1348.05 579.547 1348.37 577.622C1346.94 579.152 1345.51 580.682 1344.08 582.213C1343.63 584.114 1343.16 586.018 1342.7 587.925C1344.26 586.417 1345.82 584.911 1347.38 583.404ZM1346.18 590.178C1346.53 588.223 1346.89 586.269 1347.23 584.318C1345.64 585.852 1344.05 587.385 1342.46 588.919C1342 590.831 1341.55 592.74 1341.08 594.652L1346.18 590.178ZM1344.91 596.949C1345.29 594.98 1345.65 593.013 1346.01 591.046C1344.29 592.555 1342.58 594.064 1340.86 595.574C1340.38 597.514 1339.87 599.462 1339.36 601.408C1341.21 599.922 1343.06 598.435 1344.91 596.949ZM2336.16 -136.887C2341.76 -137.022 2347.5 -137.125 2353.19 -137.238C2355.61 -138.583 2358.04 -139.921 2360.46 -141.262C2354.88 -141.053 2349.34 -140.833 2343.83 -140.609C2341.26 -139.372 2338.72 -138.129 2336.16 -136.887ZM2318.02 -136.409C2323.62 -136.558 2329.19 -136.716 2334.84 -136.855C2337.38 -138.089 2339.91 -139.326 2342.46 -140.557C2336.98 -140.334 2331.54 -140.105 2326.13 -139.867C2323.4 -138.72 2320.73 -137.56 2318.02 -136.409ZM2300.17 -135.928C2305.55 -136.09 2311.05 -136.224 2316.51 -136.369C2319.19 -137.509 2321.83 -138.659 2324.52 -139.793C2319.2 -139.557 2313.9 -139.315 2308.64 -139.066C2305.8 -138.023 2302.98 -136.975 2300.17 -135.928ZM2282.38 -135.345C2287.71 -135.522 2293.03 -135.704 2298.41 -135.87C2301.19 -136.906 2303.95 -137.948 2306.75 -138.979C2301.57 -138.731 2296.43 -138.474 2291.31 -138.213C2288.33 -137.258 2285.34 -136.306 2282.38 -135.345ZM2264.94 -134.754C2270.03 -134.942 2275.2 -135.109 2280.36 -135.279C2283.24 -136.219 2286.13 -137.159 2289.03 -138.093C2284.04 -137.837 2279.07 -137.579 2274.14 -137.31C2271.08 -136.456 2267.98 -135.614 2264.94 -134.754ZM2247.63 -134.077C2252.58 -134.275 2257.54 -134.472 2262.53 -134.66C2265.48 -135.5 2268.46 -136.333 2271.44 -137.168C2266.62 -136.901 2261.86 -136.62 2257.09 -136.342C2253.96 -135.583 2250.74 -134.842 2247.63 -134.077ZM2230.84 -133.387C2235.45 -133.588 2240.12 -133.778 2244.79 -133.965C2247.74 -134.695 2250.74 -135.415 2253.71 -136.14C2249.22 -135.877 2244.73 -135.614 2240.3 -135.339C2237.16 -134.685 2233.95 -134.048 2230.84 -133.387ZM2214.35 -132.631C2218.63 -132.832 2222.92 -133.028 2227.23 -133.221C2230.17 -133.851 2233.17 -134.467 2236.14 -135.091C2231.9 -134.819 2227.74 -134.529 2223.53 -134.251C2220.49 -133.708 2217.37 -133.18 2214.35 -132.631ZM2198.66 -131.875C2202.37 -132.062 2206.1 -132.247 2209.85 -132.424C2212.51 -132.914 2215.23 -133.389 2217.91 -133.874C2214.35 -133.638 2210.77 -133.406 2207.26 -133.159C2204.41 -132.728 2201.5 -132.311 2198.66 -131.875ZM2183.81 -131.089C2186.7 -131.246 2189.61 -131.397 2192.52 -131.55C2194.76 -131.9 2197.04 -132.241 2199.3 -132.587C2196.12 -132.353 2192.97 -132.113 2189.8 -131.877C2187.78 -131.621 2185.82 -131.349 2183.81 -131.089ZM2171.39 -130.422C2172.92 -130.509 2174.45 -130.594 2176 -130.678C2176.98 -130.808 2177.96 -130.937 2178.95 -131.064C2177.44 -130.953 2175.91 -130.844 2174.42 -130.727C2173.42 -130.623 2172.39 -130.527 2171.39 -130.422ZM1357.65 515.86L1357.72 514.392L1357.54 515.407L1357.37 516.989L1357.65 515.86ZM1357.34 522.67C1357.4 521.567 1357.44 520.467 1357.49 519.364C1357.27 520.274 1357.04 521.186 1356.81 522.096C1356.68 523.267 1356.54 524.442 1356.4 525.615C1356.72 524.633 1357.03 523.653 1357.34 522.67ZM1356.95 529.639C1357.04 528.193 1357.12 526.748 1357.2 525.305C1356.81 526.533 1356.4 527.764 1356 528.995C1355.83 530.415 1355.68 531.83 1355.51 533.251C1355.99 532.046 1356.47 530.843 1356.95 529.639ZM1356.56 536.51C1356.66 534.894 1356.74 533.283 1356.84 531.668C1356.28 533.043 1355.74 534.415 1355.18 535.793C1354.98 537.408 1354.77 539.027 1354.56 540.647C1355.22 539.268 1355.9 537.887 1356.56 536.51ZM1356.07 543.478C1356.2 541.713 1356.33 539.946 1356.45 538.185C1355.73 539.659 1355.02 541.133 1354.3 542.609C1354.08 544.33 1353.86 546.049 1353.63 547.772C1354.44 546.341 1355.26 544.908 1356.07 543.478ZM1355.59 550.34C1355.72 548.517 1355.84 546.702 1355.97 544.882C1355.12 546.389 1354.25 547.899 1353.4 549.408C1353.15 551.222 1352.89 553.042 1352.62 554.86C1353.61 553.353 1354.6 551.846 1355.59 550.34ZM1354.99 557.288C1355.16 555.386 1355.33 553.483 1355.48 551.585C1354.47 553.133 1353.45 554.684 1352.43 556.232C1352.16 558.097 1351.89 559.958 1351.61 561.826C1352.74 560.312 1353.87 558.8 1354.99 557.288ZM1354.4 564.163C1354.58 562.233 1354.73 560.31 1354.9 558.382C1353.74 559.936 1352.58 561.491 1351.42 563.044C1351.14 564.954 1350.84 566.866 1350.53 568.778C1351.82 567.239 1353.11 565.7 1354.4 564.163ZM1353.7 571.098C1353.91 569.119 1354.11 567.14 1354.3 565.166C1352.99 566.729 1351.68 568.295 1350.37 569.858C1350.06 571.795 1349.75 573.732 1349.43 575.672C1350.85 574.147 1352.28 572.622 1353.7 571.098ZM1353 577.971C1353.22 575.982 1353.41 573.999 1353.61 572.013C1352.16 573.565 1350.71 575.118 1349.26 576.67C1348.93 578.632 1348.6 580.598 1348.25 582.564C1349.84 581.032 1351.42 579.502 1353 577.971ZM1352.19 584.893C1352.43 582.872 1352.67 580.851 1352.9 578.834L1348.1 583.477C1347.75 585.455 1347.4 587.434 1347.04 589.416L1352.19 584.893ZM1351.36 591.768C1351.62 589.744 1351.85 587.726 1352.09 585.705L1346.88 590.283C1346.52 592.275 1346.15 594.268 1345.77 596.263C1347.63 594.765 1349.5 593.268 1351.36 591.768ZM2326.97 -132.417C2332.88 -132.464 2338.83 -132.505 2344.81 -132.536C2347.21 -133.882 2349.6 -135.232 2352.01 -136.575C2346.25 -136.459 2340.45 -136.355 2334.79 -136.218C2332.18 -134.949 2329.56 -133.69 2326.97 -132.417ZM2308.28 -132.242C2314.04 -132.306 2319.86 -132.357 2325.7 -132.406C2328.27 -133.67 2330.87 -134.922 2333.46 -136.182C2327.74 -136.041 2322.1 -135.885 2316.44 -135.732C2313.71 -134.57 2310.99 -133.408 2308.28 -132.242ZM2289.74 -132.005C2295.42 -132.084 2301.09 -132.164 2306.83 -132.229C2309.52 -133.387 2312.23 -134.539 2314.93 -135.692C2309.37 -135.543 2303.8 -135.4 2298.32 -135.234C2295.45 -134.162 2292.6 -133.082 2289.74 -132.005ZM2271.44 -131.73C2276.94 -131.824 2282.51 -131.902 2288.07 -131.98C2290.9 -133.047 2293.73 -134.113 2296.57 -135.175C2291.1 -135.006 2285.67 -134.826 2280.26 -134.644C2277.3 -133.679 2274.38 -132.701 2271.44 -131.73ZM2253.28 -131.377C2258.69 -131.487 2264.07 -131.604 2269.53 -131.701C2272.43 -132.661 2275.32 -133.623 2278.23 -134.578C2272.94 -134.399 2267.65 -134.219 2262.42 -134.024C2259.35 -133.151 2256.34 -132.258 2253.28 -131.377ZM2235.49 -131.006C2240.62 -131.126 2245.84 -131.226 2251.04 -131.33C2254.03 -132.198 2257 -133.07 2260.01 -133.931C2254.88 -133.738 2249.77 -133.539 2244.69 -133.333C2241.59 -132.565 2238.57 -131.779 2235.49 -131.006ZM2217.8 -130.538C2222.82 -130.673 2227.79 -130.817 2232.85 -130.944C2235.85 -131.703 2238.82 -132.469 2241.85 -133.222C2236.91 -133.018 2232.02 -132.807 2227.14 -132.59C2223.99 -131.916 2220.92 -131.219 2217.8 -130.538ZM2200.68 -130.069C2205.28 -130.209 2209.96 -130.329 2214.63 -130.452C2217.64 -131.111 2220.6 -131.779 2223.63 -132.429C2218.99 -132.223 2214.36 -132.016 2209.78 -131.796C2206.7 -131.23 2203.73 -130.641 2200.68 -130.069ZM2183.72 -129.504C2188.05 -129.65 2192.39 -129.797 2196.74 -129.938C2199.67 -130.492 2202.56 -131.053 2205.51 -131.601C2201.12 -131.384 2196.82 -131.15 2192.47 -130.925C2189.51 -130.461 2186.66 -129.973 2183.72 -129.504ZM2167.47 -128.944C2171.26 -129.085 2175.09 -129.216 2178.92 -129.344C2181.56 -129.77 2184.17 -130.205 2186.83 -130.626C2183.17 -130.437 2179.49 -130.25 2175.89 -130.049C2173.08 -129.682 2170.26 -129.318 2167.47 -128.944ZM2152.28 -128.337C2155.11 -128.451 2157.96 -128.563 2160.79 -128.677C2163.02 -128.984 2165.34 -129.27 2167.59 -129.572C2164.62 -129.397 2161.66 -129.217 2158.7 -129.039C2156.56 -128.806 2154.42 -128.572 2152.28 -128.337ZM2140 -127.846C2141.14 -127.895 2142.31 -127.937 2143.47 -127.984C2144.41 -128.09 2145.37 -128.19 2146.31 -128.296C2144.9 -128.21 2143.48 -128.125 2142.08 -128.035C2141.38 -127.974 2140.7 -127.907 2140 -127.846ZM1359.06 502.223C1359.05 501.772 1359.04 501.319 1359.03 500.869L1358.95 501.729L1358.89 503.259C1358.95 502.913 1359.01 502.568 1359.06 502.223ZM1359.24 509.259L1359.16 506.003C1359.01 506.871 1358.86 507.743 1358.71 508.611C1358.67 509.752 1358.62 510.894 1358.57 512.038L1359.24 509.259ZM1359.38 516.312C1359.36 514.848 1359.34 513.384 1359.31 511.923C1359.01 513.17 1358.71 514.413 1358.41 515.661L1358.21 519.946C1358.6 518.734 1358.99 517.521 1359.38 516.312ZM1359.47 523.35C1359.45 521.707 1359.43 520.064 1359.4 518.421C1358.97 519.779 1358.54 521.139 1358.1 522.498C1358.02 524.15 1357.92 525.806 1357.83 527.462C1358.37 526.091 1358.92 524.719 1359.47 523.35ZM1359.5 530.385C1359.5 528.606 1359.5 526.827 1359.49 525.054C1358.9 526.531 1358.3 528.014 1357.71 529.492C1357.61 531.247 1357.51 533.002 1357.41 534.757C1358.11 533.298 1358.8 531.842 1359.5 530.385ZM1359.49 537.414C1359.5 535.556 1359.5 533.7 1359.5 531.844C1358.77 533.359 1358.04 534.874 1357.31 536.391C1357.19 538.246 1357.06 540.107 1356.92 541.967C1357.78 540.448 1358.64 538.932 1359.49 537.414ZM1359.42 544.461C1359.45 542.524 1359.48 540.587 1359.49 538.656C1358.6 540.231 1357.72 541.805 1356.82 543.382C1356.69 545.274 1356.56 547.163 1356.42 549.055C1357.42 547.524 1358.42 545.991 1359.42 544.461ZM1359.3 551.484C1359.34 549.513 1359.37 547.542 1359.4 545.572C1358.38 547.139 1357.36 548.703 1356.33 550.272C1356.18 552.229 1356.01 554.193 1355.83 556.155C1356.99 554.598 1358.15 553.04 1359.3 551.484ZM1359.11 558.526C1359.18 556.508 1359.24 554.49 1359.28 552.476C1358.1 554.067 1356.92 555.658 1355.74 557.251C1355.57 559.222 1355.41 561.19 1355.23 563.164C1356.53 561.617 1357.82 560.072 1359.11 558.526ZM1358.88 565.542C1358.96 563.508 1359.02 561.477 1359.08 559.446C1357.77 561.015 1356.46 562.584 1355.15 564.156C1354.96 566.168 1354.74 568.189 1354.53 570.207C1355.99 568.651 1357.43 567.098 1358.88 565.542ZM1358.57 572.58C1358.67 570.515 1358.77 568.449 1358.85 566.389C1357.38 567.967 1355.91 569.544 1354.44 571.122C1354.24 573.136 1354.05 575.147 1353.83 577.164C1355.41 575.636 1356.99 574.108 1358.57 572.58ZM1358.21 579.588C1358.33 577.517 1358.42 575.451 1358.53 573.384C1356.93 574.93 1355.33 576.478 1353.73 578.024C1353.51 580.068 1353.26 582.117 1353.01 584.167L1358.21 579.588ZM1357.77 586.616C1357.91 584.525 1358.05 582.434 1358.17 580.348L1352.92 584.977C1352.67 587.019 1352.45 589.057 1352.19 591.102C1354.05 589.607 1355.91 588.111 1357.77 586.616ZM2317.95 -127.948C2324.11 -127.906 2330.2 -127.881 2336.41 -127.829C2338.82 -129.186 2341.24 -130.536 2343.66 -131.89C2337.61 -131.857 2331.62 -131.813 2325.64 -131.765C2323.06 -130.499 2320.52 -129.22 2317.95 -127.948ZM2298.6 -128.061C2304.58 -128.041 2310.66 -127.996 2316.73 -127.955C2319.28 -129.22 2321.82 -130.492 2324.38 -131.754C2318.48 -131.706 2312.58 -131.656 2306.75 -131.591C2304.03 -130.416 2301.31 -129.241 2298.6 -128.061ZM2279.32 -128.079C2285.28 -128.075 2291.2 -128.08 2297.22 -128.063C2299.91 -129.236 2302.6 -130.409 2305.31 -131.577C2299.49 -131.509 2293.74 -131.424 2287.98 -131.343C2285.1 -130.253 2282.18 -129.174 2279.32 -128.079ZM2260.38 -128.073C2266.12 -128.086 2271.94 -128.084 2277.77 -128.081C2280.6 -129.165 2283.47 -130.239 2286.31 -131.317C2280.67 -131.239 2275 -131.163 2269.43 -131.066C2266.42 -130.067 2263.37 -129.079 2260.38 -128.073ZM2241.59 -127.989C2247.21 -128.019 2252.85 -128.047 2258.53 -128.064C2261.5 -129.065 2264.54 -130.043 2267.53 -131.038C2261.94 -130.936 2256.47 -130.81 2250.93 -130.697C2247.82 -129.793 2244.68 -128.898 2241.59 -127.989ZM2223.06 -127.861C2228.5 -127.908 2233.97 -127.947 2239.47 -127.979C2242.51 -128.878 2245.62 -129.757 2248.69 -130.649C2243.35 -130.54 2238 -130.437 2232.75 -130.31C2229.52 -129.495 2226.26 -128.685 2223.06 -127.861ZM2204.79 -127.677C2210.01 -127.738 2215.28 -127.789 2220.56 -127.836C2223.7 -128.646 2226.9 -129.436 2230.06 -130.238C2224.86 -130.106 2219.7 -129.963 2214.54 -129.821C2211.29 -129.107 2208.01 -128.398 2204.79 -127.677ZM2186.77 -127.43C2191.79 -127.505 2196.8 -127.585 2201.88 -127.648C2205.01 -128.352 2208.22 -129.038 2211.38 -129.736C2206.45 -129.6 2201.53 -129.46 2196.67 -129.309C2193.36 -128.684 2190.04 -128.063 2186.77 -127.43ZM2169.21 -127.15C2173.84 -127.235 2178.54 -127.303 2183.23 -127.374C2186.36 -127.984 2189.58 -128.575 2192.74 -129.178C2188.1 -129.028 2183.47 -128.877 2178.87 -128.716C2175.65 -128.196 2172.41 -127.679 2169.21 -127.15ZM2151.79 -126.788C2156.19 -126.883 2160.54 -126.991 2164.97 -127.079C2167.97 -127.581 2171.05 -128.064 2174.08 -128.558C2169.58 -128.397 2165.15 -128.222 2160.69 -128.051C2157.68 -127.64 2154.77 -127.206 2151.79 -126.788ZM2135.36 -126.426C2139.09 -126.519 2142.89 -126.596 2146.67 -126.676C2149.34 -127.053 2151.99 -127.437 2154.68 -127.811C2150.89 -127.663 2147.09 -127.517 2143.35 -127.359C2140.66 -127.053 2138.02 -126.735 2135.36 -126.426ZM2119.63 -125.986L2128.68 -126.245C2130.79 -126.494 2132.88 -126.749 2135 -126.996C2132.04 -126.861 2129.11 -126.718 2126.15 -126.582C2123.98 -126.381 2121.78 -126.189 2119.63 -125.986ZM2107.34 -125.637C2108.4 -125.67 2109.49 -125.697 2110.56 -125.729C2111.34 -125.804 2112.09 -125.883 2112.86 -125.959C2111.76 -125.907 2110.64 -125.858 2109.55 -125.804C2108.8 -125.75 2108.08 -125.692 2107.34 -125.637ZM1359.46 488.305C1359.43 487.937 1359.38 487.573 1359.35 487.206L1359.33 487.807C1359.35 488.27 1359.36 488.737 1359.38 489.201L1359.46 488.305ZM1360.15 495.596C1360.05 494.501 1359.95 493.407 1359.84 492.315C1359.76 493.217 1359.68 494.114 1359.6 495.018C1359.64 496.092 1359.68 497.163 1359.72 498.239C1359.86 497.358 1360.01 496.475 1360.15 495.596ZM1360.82 502.704C1360.69 501.26 1360.55 499.822 1360.41 498.38C1360.22 499.58 1360.02 500.78 1359.82 501.981C1359.87 503.448 1359.9 504.918 1359.93 506.387C1360.23 505.159 1360.53 503.93 1360.82 502.704ZM1361.4 509.908C1361.27 508.247 1361.14 506.587 1361 504.931C1360.67 506.302 1360.33 507.678 1360 509.051C1360.04 510.703 1360.08 512.352 1360.11 514.008C1360.55 512.639 1360.97 511.275 1361.4 509.908ZM1361.96 517.034C1361.83 515.248 1361.68 513.468 1361.54 511.685C1361.08 513.165 1360.61 514.645 1360.14 516.127C1360.17 517.908 1360.19 519.694 1360.21 521.479C1360.8 519.996 1361.38 518.515 1361.96 517.034ZM1362.44 524.24C1362.32 522.34 1362.2 520.439 1362.06 518.544C1361.45 520.093 1360.84 521.638 1360.23 523.188C1360.24 525.054 1360.26 526.919 1360.27 528.789C1360.99 527.272 1361.72 525.755 1362.44 524.24ZM1362.9 531.376C1362.78 529.42 1362.65 527.469 1362.53 525.518C1361.78 527.093 1361.02 528.67 1360.26 530.249C1360.27 532.184 1360.26 534.122 1360.25 536.061C1361.14 534.499 1362.02 532.936 1362.9 531.376ZM1363.26 538.558C1363.16 536.543 1363.07 534.527 1362.95 532.516C1362.06 534.11 1361.15 535.708 1360.25 537.303C1360.24 539.288 1360.22 541.276 1360.2 543.266C1361.22 541.696 1362.24 540.127 1363.26 538.558ZM1363.59 545.692C1363.51 543.648 1363.41 541.609 1363.31 539.568C1362.27 541.17 1361.22 542.774 1360.18 544.377C1360.15 546.396 1360.12 548.417 1360.08 550.439C1361.25 548.855 1362.42 547.273 1363.59 545.692ZM1363.83 552.868C1363.77 550.785 1363.71 548.701 1363.62 546.624C1362.44 548.225 1361.25 549.827 1360.06 551.43C1360.02 553.479 1359.96 555.53 1359.9 557.583L1363.83 552.868ZM1364.04 560.003C1363.99 557.904 1363.93 555.813 1363.86 553.719C1362.53 555.312 1361.2 556.907 1359.87 558.501C1359.81 560.566 1359.74 562.631 1359.67 564.699C1361.12 563.134 1362.58 561.568 1364.04 560.003ZM1364.15 567.164C1364.12 565.043 1364.1 562.923 1364.05 560.808C1362.58 562.387 1361.11 563.967 1359.64 565.547C1359.56 567.631 1359.46 569.721 1359.36 571.81C1360.96 570.261 1362.55 568.713 1364.15 567.164ZM1364.22 574.293C1364.21 572.166 1364.19 570.043 1364.16 567.919C1362.55 569.484 1360.93 571.049 1359.32 572.614C1359.22 574.706 1359.12 576.798 1359 578.891L1364.22 574.293ZM1364.19 581.445C1364.21 579.303 1364.22 577.16 1364.22 575.022L1358.96 579.652C1358.85 581.756 1358.71 583.865 1358.57 585.974L1364.19 581.445ZM2308.93 -123.473C2315.29 -123.349 2321.63 -123.228 2328.06 -123.089C2330.47 -124.457 2332.87 -125.833 2335.28 -127.197C2329.02 -127.249 2322.88 -127.273 2316.67 -127.313C2314.09 -126.034 2311.5 -124.757 2308.93 -123.473ZM2288.99 -123.836C2295.2 -123.731 2301.46 -123.619 2307.75 -123.497C2310.3 -124.776 2312.88 -126.046 2315.45 -127.321C2309.32 -127.361 2303.18 -127.402 2297.14 -127.422C2294.41 -126.23 2291.71 -125.032 2288.99 -123.836ZM2269.2 -124.138C2275.31 -124.053 2281.47 -123.958 2287.66 -123.856C2290.36 -125.046 2293.06 -126.237 2295.77 -127.422C2289.69 -127.44 2283.69 -127.439 2277.68 -127.441C2274.83 -126.347 2272.03 -125.238 2269.2 -124.138ZM2249.57 -124.38C2255.6 -124.312 2261.62 -124.245 2267.71 -124.161C2270.52 -125.255 2273.3 -126.354 2276.13 -127.443C2270.2 -127.445 2264.28 -127.442 2258.42 -127.426C2255.44 -126.42 2252.53 -125.392 2249.57 -124.38ZM2230.2 -124.581C2236.03 -124.532 2241.95 -124.464 2247.87 -124.398C2250.8 -125.402 2253.69 -126.42 2256.64 -127.418C2250.85 -127.401 2245.09 -127.375 2239.36 -127.343C2236.28 -126.43 2233.25 -125.5 2230.2 -124.581ZM2210.94 -124.698C2216.71 -124.666 2222.44 -124.644 2228.27 -124.6C2231.28 -125.508 2234.23 -126.432 2237.26 -127.333C2231.62 -127.298 2226.03 -127.25 2220.46 -127.202C2217.26 -126.374 2214.11 -125.532 2210.94 -124.698ZM2192.04 -124.79C2197.53 -124.777 2203.13 -124.741 2208.71 -124.709C2211.8 -125.528 2214.83 -126.364 2217.96 -127.176C2212.54 -127.128 2207.12 -127.079 2201.77 -127.014C2198.5 -126.279 2195.28 -125.533 2192.04 -124.79ZM2173.23 -124.785C2178.62 -124.79 2183.99 -124.796 2189.42 -124.789C2192.58 -125.518 2195.68 -126.263 2198.87 -126.986C2193.58 -126.916 2188.38 -126.824 2183.14 -126.743C2179.82 -126.096 2176.52 -125.441 2173.23 -124.785ZM2154.85 -124.753C2159.93 -124.773 2165.06 -124.78 2170.21 -124.785C2173.35 -125.415 2176.43 -126.064 2179.61 -126.687C2174.68 -126.613 2169.74 -126.542 2164.9 -126.451C2161.53 -125.889 2158.19 -125.322 2154.85 -124.753ZM2136.67 -124.646C2141.49 -124.681 2146.35 -124.708 2151.22 -124.731C2154.33 -125.268 2157.36 -125.824 2160.5 -126.353C2155.84 -126.255 2151.2 -126.152 2146.56 -126.048C2143.27 -125.581 2139.94 -125.12 2136.67 -124.646ZM2119.08 -124.492C2123.44 -124.537 2127.78 -124.585 2132.18 -124.62C2135.23 -125.068 2138.38 -125.494 2141.46 -125.935C2137.13 -125.837 2132.83 -125.729 2128.55 -125.617C2125.39 -125.243 2122.21 -124.873 2119.08 -124.492ZM2102.34 -124.295C2106 -124.345 2109.7 -124.384 2113.39 -124.426C2116.16 -124.768 2119.02 -125.089 2121.81 -125.426C2118.01 -125.32 2114.2 -125.217 2110.44 -125.105C2107.72 -124.84 2105.04 -124.565 2102.34 -124.295ZM2086.24 -124.044C2089.29 -124.095 2092.29 -124.159 2095.37 -124.207C2097.49 -124.424 2099.63 -124.634 2101.76 -124.848C2098.7 -124.748 2095.72 -124.633 2092.68 -124.53C2090.54 -124.364 2088.36 -124.212 2086.24 -124.044ZM2073.73 -123.82C2074.75 -123.84 2075.79 -123.857 2076.82 -123.876C2077.51 -123.933 2078.19 -123.991 2078.88 -124.047C2077.77 -124.008 2076.63 -123.972 2075.53 -123.932C2074.93 -123.896 2074.34 -123.856 2073.73 -123.82ZM1370.64 576.248C1370.52 574.059 1370.39 571.873 1370.26 569.687L1364.99 574.342C1365 576.499 1364.98 578.663 1364.96 580.826L1370.64 576.248ZM1358.82 474.249L1358.67 473.338L1358.68 473.702L1358.81 474.857L1358.82 474.249ZM1360.06 481.592C1359.88 480.502 1359.7 479.413 1359.51 478.326C1359.5 479.227 1359.49 480.126 1359.47 481.03C1359.59 482.115 1359.7 483.201 1359.82 484.286C1359.9 483.388 1359.98 482.488 1360.06 481.592ZM1361.23 488.857C1361 487.409 1360.77 485.964 1360.54 484.52C1360.43 485.694 1360.33 486.871 1360.22 488.047C1360.37 489.544 1360.51 491.05 1360.65 492.553C1360.85 491.319 1361.03 490.09 1361.23 488.857ZM1362.36 496.149C1362.1 494.483 1361.85 492.818 1361.59 491.154C1361.37 492.552 1361.14 493.951 1360.91 495.35C1361.07 497.001 1361.23 498.649 1361.38 500.3C1361.71 498.914 1362.03 497.532 1362.36 496.149ZM1363.43 503.456C1363.17 501.636 1362.9 499.818 1362.63 498.001C1362.28 499.495 1361.93 500.985 1361.58 502.48C1361.74 504.292 1361.88 506.112 1362.02 507.931C1362.49 506.44 1362.96 504.945 1363.43 503.456ZM1364.44 510.747C1364.18 508.828 1363.92 506.91 1363.65 504.995C1363.16 506.565 1362.66 508.136 1362.16 509.708C1362.32 511.594 1362.48 513.476 1362.62 515.364C1363.23 513.823 1363.84 512.284 1364.44 510.747ZM1365.39 518.033C1365.14 516.045 1364.88 514.058 1364.62 512.074C1363.99 513.666 1363.36 515.263 1362.73 516.858C1362.87 518.837 1363 520.825 1363.13 522.812C1363.89 521.216 1364.64 519.626 1365.39 518.033ZM1366.29 525.321C1366.05 523.275 1365.8 521.231 1365.54 519.19C1364.76 520.824 1363.99 522.455 1363.21 524.088C1363.34 526.095 1363.49 528.096 1363.61 530.105C1364.5 528.509 1365.4 526.916 1366.29 525.321ZM1367.12 532.607C1366.89 530.519 1366.65 528.433 1366.41 526.349C1365.49 527.982 1364.58 529.613 1363.67 531.249C1363.78 533.311 1363.88 535.38 1363.98 537.449C1365.03 535.834 1366.07 534.22 1367.12 532.607ZM1367.88 539.89C1367.67 537.77 1367.45 535.654 1367.22 533.539C1366.16 535.178 1365.1 536.818 1364.03 538.458C1364.13 540.536 1364.24 542.611 1364.33 544.692C1365.52 543.09 1366.7 541.49 1367.88 539.89ZM1368.58 547.169C1368.38 545.027 1368.18 542.886 1367.97 540.749C1366.77 542.373 1365.57 543.997 1364.36 545.623C1364.45 547.737 1364.51 549.856 1364.58 551.975C1365.91 550.373 1367.25 548.77 1368.58 547.169ZM1369.2 554.444C1369.03 552.283 1368.84 550.124 1368.65 547.968C1367.3 549.587 1365.95 551.206 1364.6 552.827C1364.67 554.946 1364.75 557.064 1364.8 559.187C1366.27 557.606 1367.73 556.026 1369.2 554.444ZM1369.76 561.717C1369.6 559.542 1369.44 557.369 1369.27 555.199C1367.78 556.797 1366.3 558.394 1364.81 559.993C1364.86 562.134 1364.88 564.281 1364.91 566.427C1366.53 564.857 1368.14 563.286 1369.76 561.717ZM1369.89 563.624L1369.81 562.433C1368.18 564.016 1366.55 565.598 1364.92 567.181C1364.95 569.323 1364.98 571.465 1364.99 573.612L1370.22 568.997C1370.12 567.205 1370.02 565.411 1369.89 563.624ZM2300 -118.987C2306.51 -118.783 2313.1 -118.564 2319.7 -118.339C2322.11 -119.716 2324.54 -121.089 2326.96 -122.464C2320.48 -122.603 2314.08 -122.729 2307.68 -122.852C2305.11 -121.565 2302.56 -120.276 2300 -118.987ZM2279.36 -119.6C2285.84 -119.412 2292.31 -119.228 2298.86 -119.024C2301.41 -120.307 2303.94 -121.596 2306.5 -122.876C2300.15 -122.997 2293.85 -123.107 2287.57 -123.212C2284.84 -122.006 2282.08 -120.81 2279.36 -119.6ZM2259.03 -120.179C2265.31 -120.013 2271.71 -119.822 2278.08 -119.637C2280.78 -120.841 2283.52 -122.033 2286.24 -123.232C2280 -123.335 2273.77 -123.434 2267.61 -123.52C2264.75 -122.406 2261.87 -121.298 2259.03 -120.179ZM2238.8 -120.667C2245.06 -120.518 2251.26 -120.383 2257.59 -120.219C2260.41 -121.333 2263.28 -122.435 2266.12 -123.542C2259.95 -123.625 2253.87 -123.69 2247.77 -123.757C2244.77 -122.729 2241.77 -121.702 2238.8 -120.667ZM2218.84 -121.129C2224.88 -121.001 2231.02 -120.852 2237.16 -120.706C2240.11 -121.735 2243.09 -122.752 2246.07 -123.775C2240.07 -123.842 2234.06 -123.913 2228.16 -123.962C2225.04 -123.021 2221.93 -122.076 2218.84 -121.129ZM2199 -121.507C2204.96 -121.397 2210.93 -121.288 2216.96 -121.164C2220.03 -122.107 2223.13 -123.043 2226.22 -123.979C2220.29 -124.022 2214.47 -124.042 2208.6 -124.072C2205.38 -123.222 2202.19 -122.365 2199 -121.507ZM2179.43 -121.84C2185.2 -121.751 2191.02 -121.653 2196.87 -121.548C2200.02 -122.397 2203.19 -123.242 2206.37 -124.084C2200.66 -124.114 2194.95 -124.143 2189.32 -124.154C2186 -123.388 2182.72 -122.614 2179.43 -121.84ZM2160.1 -122.112C2165.68 -122.042 2171.31 -121.96 2176.97 -121.875C2180.2 -122.639 2183.45 -123.398 2186.71 -124.154C2181.15 -124.162 2175.62 -124.159 2170.12 -124.153C2166.75 -123.479 2163.43 -122.795 2160.1 -122.112ZM2140.99 -122.316C2146.4 -122.265 2151.8 -122.217 2157.27 -122.152C2160.53 -122.823 2163.81 -123.489 2167.1 -124.152C2161.74 -124.143 2156.43 -124.123 2151.14 -124.1C2147.73 -123.513 2144.37 -122.913 2140.99 -122.316ZM2122.15 -122.483C2127.25 -122.45 2132.46 -122.395 2137.64 -122.345C2140.92 -122.927 2144.21 -123.506 2147.51 -124.08C2142.33 -124.055 2137.16 -124.031 2132.05 -123.992C2128.7 -123.5 2125.46 -122.982 2122.15 -122.483ZM2103.57 -122.555C2108.48 -122.539 2113.35 -122.528 2118.3 -122.505C2121.49 -122.992 2124.65 -123.487 2127.87 -123.967C2122.95 -123.922 2118.12 -123.853 2113.24 -123.798C2109.97 -123.394 2106.81 -122.966 2103.57 -122.555ZM2085.55 -122.6C2089.98 -122.6 2094.47 -122.585 2098.96 -122.57C2101.98 -122.959 2104.98 -123.355 2108.02 -123.737C2103.73 -123.69 2099.42 -123.643 2095.2 -123.58C2091.98 -123.253 2088.73 -122.935 2085.55 -122.6ZM2068.42 -122.561C2072.22 -122.572 2076.04 -122.58 2079.86 -122.587C2082.52 -122.872 2085.12 -123.169 2087.8 -123.449C2084.09 -123.383 2080.36 -123.321 2076.67 -123.252C2073.9 -123.026 2071.16 -122.793 2068.42 -122.561ZM2052.23 -122.497C2055.14 -122.514 2058.03 -122.533 2060.96 -122.544C2063.1 -122.731 2065.29 -122.906 2067.44 -123.088C2064.44 -123.028 2061.5 -122.951 2058.52 -122.884C2056.44 -122.75 2054.3 -122.631 2052.23 -122.497ZM2039.33 -122.39L2042.26 -122.414C2042.82 -122.453 2043.38 -122.493 2043.95 -122.531C2042.81 -122.503 2041.66 -122.479 2040.53 -122.449C2040.13 -122.43 2039.73 -122.408 2039.33 -122.39ZM1357.15 459.981L1356.97 459.234L1356.98 459.321L1357.17 460.366L1357.15 459.981ZM1358.91 467.372C1358.66 466.318 1358.41 465.265 1358.16 464.215L1358.3 466.606C1358.5 467.717 1358.69 468.829 1358.88 469.941C1358.9 469.083 1358.9 468.229 1358.91 467.372ZM1360.61 474.787C1360.29 473.359 1359.96 471.932 1359.64 470.507C1359.62 471.658 1359.6 472.816 1359.58 473.968C1359.83 475.426 1360.08 476.885 1360.32 478.345C1360.42 477.158 1360.52 475.972 1360.61 474.787ZM1362.27 482.221C1361.91 480.538 1361.53 478.861 1361.16 477.183C1361.04 478.563 1360.93 479.938 1360.82 481.32C1361.09 482.985 1361.36 484.652 1361.63 486.321C1361.84 484.954 1362.06 483.584 1362.27 482.221ZM1363.87 489.638C1363.49 487.804 1363.09 485.972 1362.69 484.144C1362.46 485.627 1362.23 487.113 1361.99 488.6C1362.28 490.425 1362.56 492.253 1362.84 494.082C1363.19 492.6 1363.53 491.118 1363.87 489.638ZM1365.41 497.05C1365.02 495.116 1364.62 493.184 1364.21 491.255C1363.86 492.806 1363.48 494.365 1363.12 495.92C1363.41 497.848 1363.69 499.776 1363.97 501.708C1364.46 500.153 1364.93 498.603 1365.41 497.05ZM1366.89 504.469C1366.5 502.45 1366.1 500.432 1365.69 498.418C1365.19 500.028 1364.7 501.635 1364.19 503.249C1364.48 505.242 1364.76 507.237 1365.03 509.235C1365.65 507.646 1366.27 506.057 1366.89 504.469ZM1368.31 511.887C1367.92 509.81 1367.53 507.733 1367.12 505.66C1366.49 507.293 1365.85 508.927 1365.21 510.562C1365.48 512.611 1365.76 514.661 1366.02 516.715C1366.78 515.106 1367.55 513.495 1368.31 511.887ZM1369.66 519.296C1369.28 517.176 1368.9 515.058 1368.5 512.942C1367.73 514.585 1366.94 516.23 1366.17 517.872C1366.43 519.966 1366.69 522.061 1366.94 524.159C1367.85 522.538 1368.75 520.916 1369.66 519.296ZM1370.94 526.704C1370.57 524.55 1370.2 522.398 1369.83 520.249C1368.91 521.893 1367.98 523.541 1367.06 525.187C1367.31 527.313 1367.55 529.441 1367.79 531.571C1368.84 529.948 1369.89 528.326 1370.94 526.704ZM1372.15 534.11C1371.8 531.928 1371.45 529.748 1371.08 527.571C1370.02 529.213 1368.96 530.858 1367.89 532.501C1368.13 534.651 1368.35 536.803 1368.57 538.958C1369.77 537.341 1370.96 535.725 1372.15 534.11ZM1373.28 541.513C1372.96 539.31 1372.62 537.109 1372.28 534.912C1371.07 536.545 1369.87 538.179 1368.66 539.813C1368.88 541.981 1369.08 544.151 1369.28 546.323L1373.28 541.513ZM1374.35 548.909C1374.04 546.692 1373.72 544.477 1373.4 542.265C1372.05 543.883 1370.7 545.503 1369.35 547.122C1369.55 549.303 1369.74 551.487 1369.92 553.673C1371.4 552.086 1372.87 550.497 1374.35 548.909ZM1375.33 556.299C1375.05 554.072 1374.75 551.847 1374.44 549.625C1372.96 551.225 1371.47 552.827 1369.98 554.428C1370.16 556.621 1370.33 558.815 1370.48 561.013C1372.1 559.441 1373.72 557.87 1375.33 556.299ZM1376.24 563.687C1375.97 561.449 1375.7 559.214 1375.42 556.982C1373.79 558.565 1372.16 560.147 1370.54 561.729C1370.57 562.265 1370.61 562.801 1370.65 563.338C1370.76 565.005 1370.86 566.678 1370.96 568.35L1376.24 563.687ZM1377.06 571.07C1376.82 568.826 1376.57 566.584 1376.31 564.347L1371 569.041C1371.13 571.243 1371.27 573.445 1371.38 575.651L1377.06 571.07ZM2291.12 -114.485C2297.79 -114.203 2304.61 -113.888 2311.4 -113.581C2313.8 -114.962 2316.21 -116.344 2318.62 -117.723C2311.98 -117.949 2305.34 -118.172 2298.8 -118.376C2296.23 -117.081 2293.67 -115.783 2291.12 -114.485ZM2269.94 -115.345C2276.62 -115.075 2283.25 -114.817 2290 -114.533C2292.55 -115.829 2295.1 -117.122 2297.66 -118.413C2291.05 -118.618 2284.54 -118.801 2278 -118.99C2275.29 -117.781 2272.63 -116.559 2269.94 -115.345ZM2248.96 -116.177C2255.48 -115.93 2262.1 -115.662 2268.7 -115.396C2271.38 -116.605 2274.04 -117.822 2276.74 -119.027C2270.3 -119.214 2263.82 -119.409 2257.49 -119.576C2254.63 -118.447 2251.8 -117.311 2248.96 -116.177ZM2228.11 -116.932C2234.57 -116.704 2241.05 -116.472 2247.59 -116.227C2250.4 -117.354 2253.19 -118.49 2256.03 -119.612C2249.64 -119.775 2243.36 -119.916 2237.05 -120.065C2234.06 -119.024 2231.08 -117.98 2228.11 -116.932ZM2207.47 -117.639C2213.8 -117.431 2220.17 -117.214 2226.58 -116.987C2229.52 -118.027 2232.45 -119.07 2235.41 -120.105C2229.19 -120.251 2222.98 -120.397 2216.85 -120.525C2213.72 -119.563 2210.57 -118.608 2207.47 -117.639ZM2187.03 -118.289C2193.22 -118.101 2199.47 -117.9 2205.74 -117.694C2208.8 -118.653 2211.89 -119.607 2214.97 -120.56C2208.86 -120.685 2202.8 -120.801 2196.76 -120.909C2193.53 -120.035 2190.24 -119.17 2187.03 -118.289ZM2166.76 -118.866C2172.85 -118.698 2178.93 -118.533 2185.09 -118.35C2188.25 -119.222 2191.45 -120.085 2194.64 -120.95C2188.67 -121.056 2182.75 -121.15 2176.86 -121.239C2173.5 -120.446 2170.08 -119.669 2166.76 -118.866ZM2146.81 -119.408C2152.65 -119.263 2158.61 -119.092 2164.54 -118.927C2167.8 -119.717 2171.11 -120.492 2174.4 -121.274C2168.63 -121.362 2162.86 -121.45 2157.18 -121.518C2153.74 -120.811 2150.21 -120.124 2146.81 -119.408ZM2126.97 -119.853C2132.72 -119.726 2138.45 -119.605 2144.25 -119.467C2147.59 -120.173 2150.99 -120.861 2154.35 -121.558C2148.7 -121.622 2143.15 -121.662 2137.56 -121.713C2134.05 -121.089 2130.44 -120.486 2126.97 -119.853ZM2107.58 -120.261C2113.01 -120.157 2118.51 -120.039 2124.02 -119.919C2127.38 -120.536 2130.82 -121.135 2134.22 -121.744C2128.84 -121.793 2123.46 -121.844 2118.16 -121.876C2114.63 -121.336 2111.07 -120.807 2107.58 -120.261ZM2088.31 -120.592C2093.51 -120.508 2098.75 -120.417 2104 -120.322C2107.37 -120.856 2110.85 -121.364 2114.26 -121.889C2109.09 -121.912 2103.94 -121.931 2098.81 -121.944C2095.32 -121.493 2091.78 -121.052 2088.31 -120.592ZM2069.62 -120.862C2074.48 -120.8 2079.33 -120.738 2084.24 -120.663C2087.53 -121.104 2090.9 -121.526 2094.22 -121.959C2089.34 -121.968 2084.52 -121.966 2079.7 -121.962C2076.32 -121.6 2072.97 -121.232 2069.62 -120.862ZM2051.35 -121.081C2055.73 -121.038 2060.18 -120.979 2064.62 -120.922C2067.73 -121.271 2070.89 -121.607 2074.02 -121.949C2069.59 -121.944 2065.15 -121.941 2060.78 -121.921C2057.62 -121.646 2054.49 -121.362 2051.35 -121.081ZM2033.76 -121.216C2037.66 -121.189 2041.52 -121.171 2045.44 -121.14C2048.12 -121.387 2050.77 -121.642 2053.48 -121.885C2049.65 -121.858 2045.87 -121.822 2042.06 -121.792C2039.28 -121.602 2036.51 -121.41 2033.76 -121.216ZM2017.55 -121.319C2020.26 -121.309 2023.03 -121.285 2025.79 -121.267C2027.9 -121.422 2030.07 -121.561 2032.19 -121.712C2029.39 -121.687 2026.6 -121.661 2023.83 -121.628C2021.75 -121.522 2019.62 -121.429 2017.55 -121.319ZM2004.17 -121.336L2006.96 -121.334L2008.19 -121.404C2007.01 -121.386 2005.8 -121.372 2004.62 -121.353L2004.17 -121.336ZM1354.41 445.424L1354.3 445.091L1354.43 445.58L1354.41 445.424ZM1356.7 452.922C1356.4 451.916 1356.09 450.91 1355.78 449.905C1355.88 450.65 1355.97 451.399 1356.07 452.146C1356.33 453.218 1356.6 454.292 1356.86 455.365C1356.81 454.549 1356.75 453.737 1356.7 452.922ZM1358.96 460.489C1358.54 459.06 1358.12 457.633 1357.69 456.207C1357.76 457.362 1357.83 458.514 1357.9 459.671C1358.25 461.103 1358.59 462.537 1358.93 463.973C1358.94 462.812 1358.95 461.648 1358.96 460.489ZM1361.16 468.043C1360.68 466.356 1360.19 464.672 1359.7 462.99C1359.69 464.352 1359.68 465.713 1359.66 467.078C1360.06 468.759 1360.45 470.442 1360.83 472.127C1360.94 470.765 1361.05 469.402 1361.16 468.043ZM1363.29 475.572C1362.78 473.734 1362.26 471.898 1361.74 470.065C1361.62 471.542 1361.5 473.025 1361.38 474.504C1361.79 476.348 1362.21 478.195 1362.62 480.043C1362.85 478.549 1363.07 477.063 1363.29 475.572ZM1365.37 483.117C1364.84 481.159 1364.3 479.203 1363.76 477.25C1363.52 478.817 1363.28 480.383 1363.04 481.954C1363.47 483.895 1363.88 485.84 1364.3 487.787C1364.66 486.229 1365.01 484.672 1365.37 483.117ZM1367.39 490.661C1366.85 488.617 1366.31 486.577 1365.76 484.539C1365.39 486.156 1365.02 487.773 1364.64 489.394C1365.07 491.412 1365.49 493.434 1365.9 495.458C1366.4 493.86 1366.9 492.257 1367.39 490.661ZM1369.33 498.2C1368.8 496.096 1368.26 493.994 1367.71 491.895C1367.2 493.536 1366.69 495.182 1366.18 496.827C1366.61 498.909 1367.02 500.993 1367.43 503.081C1368.07 501.453 1368.7 499.826 1369.33 498.2ZM1371.21 505.734C1370.68 503.582 1370.15 501.433 1369.61 499.288C1368.96 500.946 1368.31 502.608 1367.67 504.27C1368.08 506.397 1368.49 508.525 1368.89 510.657C1369.67 509.013 1370.44 507.376 1371.21 505.734ZM1373.02 513.269C1372.5 511.081 1371.98 508.893 1371.45 506.709C1370.66 508.378 1369.88 510.044 1369.09 511.714C1369.49 513.871 1369.88 516.033 1370.27 518.197C1371.19 516.554 1372.1 514.912 1373.02 513.269ZM1374.75 520.804C1374.25 518.583 1373.74 516.364 1373.22 514.149C1372.3 515.814 1371.37 517.479 1370.44 519.147C1370.83 521.333 1371.21 523.523 1371.58 525.717C1372.63 524.078 1373.69 522.441 1374.75 520.804ZM1376.4 528.33C1375.92 526.088 1375.43 523.85 1374.93 521.615L1371.72 526.581C1372.09 528.79 1372.45 531.001 1372.81 533.216C1374.01 531.586 1375.21 529.957 1376.4 528.33ZM1377.98 535.855C1377.52 533.597 1377.05 531.339 1376.57 529.086L1372.93 534.018C1373.29 536.241 1373.63 538.466 1373.96 540.696L1377.98 535.855ZM1379.48 543.37C1379.04 541.099 1378.59 538.831 1378.13 536.567L1374.07 541.449C1374.4 543.684 1374.73 545.92 1375.04 548.163C1376.52 546.565 1378 544.967 1379.48 543.37ZM1380.89 550.887C1380.48 548.605 1380.05 546.327 1379.61 544.05C1378.12 545.66 1376.63 547.268 1375.14 548.878C1375.45 551.12 1375.75 553.366 1376.04 555.614C1377.65 554.039 1379.28 552.463 1380.89 550.887ZM1382.22 558.392C1381.83 556.104 1381.43 553.82 1381.01 551.539L1376.12 556.295C1376.41 558.546 1376.68 560.8 1376.95 563.056L1382.22 558.392ZM1383.47 565.896C1383.1 563.604 1382.72 561.313 1382.33 559.026L1377.03 563.715C1377.29 565.97 1377.54 568.227 1377.78 570.486L1383.47 565.896ZM2282.22 -109.957C2289.11 -109.594 2296.14 -109.201 2303.13 -108.815C2305.53 -110.203 2307.94 -111.59 2310.35 -112.975C2303.52 -113.283 2296.65 -113.6 2289.94 -113.885C2287.37 -112.576 2284.78 -111.27 2282.22 -109.957ZM2260.5 -111.077C2267.34 -110.73 2274.21 -110.376 2281.14 -110.012C2283.69 -111.321 2286.25 -112.625 2288.81 -113.93C2282.03 -114.216 2275.34 -114.479 2268.62 -114.75C2265.91 -113.525 2263.19 -112.305 2260.5 -111.077ZM2238.97 -112.15C2245.69 -111.825 2252.48 -111.483 2259.29 -111.138C2261.97 -112.364 2264.69 -113.579 2267.38 -114.799C2260.72 -115.067 2254.06 -115.335 2247.49 -115.583C2244.64 -114.442 2241.8 -113.296 2238.97 -112.15ZM2217.61 -113.167C2224.23 -112.861 2230.92 -112.539 2237.63 -112.214C2240.44 -113.357 2243.28 -114.495 2246.11 -115.633C2239.53 -115.881 2232.99 -116.116 2226.48 -116.346C2223.51 -115.292 2220.57 -114.227 2217.61 -113.167ZM2196.41 -114.117C2202.96 -113.83 2209.5 -113.542 2216.13 -113.238C2219.06 -114.295 2221.99 -115.351 2224.95 -116.402C2218.47 -116.628 2212.04 -116.846 2205.64 -117.054C2202.54 -116.082 2199.49 -115.096 2196.41 -114.117ZM2175.47 -115.028C2181.81 -114.765 2188.29 -114.474 2194.74 -114.189C2197.79 -115.164 2200.83 -116.142 2203.91 -117.11C2197.57 -117.318 2191.23 -117.525 2184.99 -117.713C2181.78 -116.826 2178.64 -115.922 2175.47 -115.028ZM2154.61 -115.849C2160.93 -115.604 2167.21 -115.366 2173.59 -115.106C2176.74 -115.995 2179.87 -116.892 2183.05 -117.774C2176.79 -117.959 2170.63 -118.122 2164.44 -118.292C2161.13 -117.488 2157.9 -116.661 2154.61 -115.849ZM2134.07 -116.634C2140.15 -116.412 2146.32 -116.172 2152.49 -115.932C2155.74 -116.739 2158.95 -117.553 2162.22 -118.352C2156.18 -118.518 2150.12 -118.687 2144.17 -118.833C2140.76 -118.11 2137.45 -117.364 2134.07 -116.634ZM2113.69 -117.339C2119.64 -117.139 2125.62 -116.932 2131.64 -116.717C2134.97 -117.441 2138.25 -118.175 2141.61 -118.89C2135.68 -119.031 2129.81 -119.16 2123.95 -119.286C2120.48 -118.649 2117.12 -117.986 2113.69 -117.339ZM2093.45 -117.991C2099.25 -117.813 2105.07 -117.63 2110.95 -117.435C2114.31 -118.073 2117.63 -118.722 2121.04 -119.351C2115.27 -119.475 2109.55 -119.587 2103.86 -119.693C2100.34 -119.137 2096.93 -118.555 2093.45 -117.991ZM2073.65 -118.584C2079.14 -118.43 2084.73 -118.256 2090.32 -118.085C2093.71 -118.64 2097.05 -119.205 2100.48 -119.751C2094.99 -119.852 2089.51 -119.952 2084.1 -120.036C2080.57 -119.563 2077.14 -119.067 2073.65 -118.584ZM2053.95 -119.094C2059.32 -118.96 2064.64 -118.837 2070.06 -118.691C2073.44 -119.163 2076.8 -119.64 2080.22 -120.104C2074.91 -120.179 2069.71 -120.233 2064.46 -120.298C2060.93 -119.903 2057.44 -119.499 2053.95 -119.094ZM2034.89 -119.559C2039.79 -119.451 2044.77 -119.325 2049.75 -119.199C2053.01 -119.583 2056.2 -119.982 2059.49 -120.358C2054.73 -120.417 2049.96 -120.476 2045.27 -120.518C2041.8 -120.2 2038.32 -119.886 2034.89 -119.559ZM2016.21 -119.931C2020.64 -119.847 2025.1 -119.756 2029.55 -119.665C2032.71 -119.972 2035.96 -120.258 2039.15 -120.558C2034.62 -120.591 2030.08 -120.623 2025.58 -120.648C2022.43 -120.416 2019.34 -120.169 2016.21 -119.931ZM1998.49 -120.248C2002.32 -120.186 2006.16 -120.125 2010.04 -120.053C2012.78 -120.268 2015.51 -120.487 2018.28 -120.696C2014.4 -120.712 2010.6 -120.71 2006.77 -120.717C2003.99 -120.564 2001.24 -120.407 1998.49 -120.248ZM1981.8 -120.489C1984.52 -120.454 1987.28 -120.41 1990.02 -120.371C1992.07 -120.496 1994.19 -120.604 1996.26 -120.726C1993.58 -120.728 1990.87 -120.737 1988.21 -120.732C1986.09 -120.648 1983.92 -120.576 1981.8 -120.489ZM1969.06 -120.647C1969.72 -120.64 1970.37 -120.638 1971.04 -120.631L1971.73 -120.661L1969.06 -120.647ZM1353.44 438.267C1353.09 437.318 1352.73 436.37 1352.38 435.421L1352.81 437.575C1353.12 438.57 1353.44 439.565 1353.75 440.56L1353.44 438.267ZM1356.25 445.973C1355.74 444.545 1355.22 443.117 1354.69 441.692C1354.85 442.82 1355 443.945 1355.15 445.077C1355.6 446.506 1356.03 447.94 1356.47 449.372C1356.4 448.241 1356.33 447.102 1356.25 445.973ZM1358.99 453.602C1358.4 451.925 1357.8 450.249 1357.2 448.576C1357.28 449.915 1357.37 451.258 1357.46 452.599C1357.97 454.295 1358.48 455.992 1358.98 457.693C1358.99 456.325 1358.98 454.968 1358.99 453.602ZM1361.67 461.274C1361.03 459.428 1360.39 457.584 1359.74 455.743C1359.74 457.221 1359.73 458.703 1359.72 460.184C1360.26 462.028 1360.8 463.873 1361.34 465.722C1361.45 464.237 1361.56 462.756 1361.67 461.274ZM1364.3 468.947C1363.63 466.97 1362.96 464.997 1362.28 463.025C1362.16 464.601 1362.04 466.171 1361.92 467.75C1362.48 469.704 1363.04 471.664 1363.59 473.624C1363.83 472.066 1364.07 470.504 1364.3 468.947ZM1366.85 476.609C1366.17 474.545 1365.49 472.482 1364.8 470.425C1364.55 472.045 1364.31 473.669 1364.06 475.292C1364.63 477.338 1365.2 479.388 1365.76 481.44C1366.12 479.827 1366.49 478.217 1366.85 476.609ZM1369.34 484.267C1368.66 482.14 1367.97 480.016 1367.28 477.896C1366.9 479.548 1366.52 481.206 1366.14 482.862C1366.71 484.97 1367.28 487.08 1367.84 489.194C1368.34 487.55 1368.84 485.91 1369.34 484.267ZM1371.76 491.933C1371.08 489.748 1370.39 487.567 1369.7 485.388C1369.19 487.069 1368.68 488.745 1368.16 490.427C1368.73 492.581 1369.28 494.74 1369.83 496.901C1370.48 495.244 1371.12 493.587 1371.76 491.933ZM1374.1 499.597C1373.43 497.374 1372.75 495.152 1372.06 492.935C1371.41 494.618 1370.76 496.302 1370.11 497.988C1370.66 500.18 1371.21 502.374 1371.76 504.572C1372.54 502.914 1373.32 501.253 1374.1 499.597ZM1376.36 507.249C1375.71 504.996 1375.04 502.746 1374.37 500.497C1373.58 502.179 1372.78 503.864 1371.99 505.548C1372.54 507.771 1373.07 509.998 1373.6 512.228C1374.52 510.568 1375.44 508.908 1376.36 507.249ZM1378.55 514.906C1377.91 512.626 1377.26 510.35 1376.6 508.077C1375.67 509.752 1374.74 511.43 1373.8 513.107C1374.33 515.353 1374.85 517.605 1375.36 519.858C1376.42 518.206 1377.48 516.556 1378.55 514.906ZM1380.65 522.552C1380.03 520.254 1379.4 517.96 1378.76 515.669C1377.69 517.335 1376.62 519.001 1375.54 520.67C1376.05 522.933 1376.55 525.2 1377.04 527.469C1378.25 525.829 1379.45 524.19 1380.65 522.552ZM1382.67 530.2C1382.07 527.886 1381.47 525.575 1380.85 523.267C1379.63 524.919 1378.42 526.569 1377.2 528.222C1377.69 530.5 1378.17 532.782 1378.64 535.066L1382.67 530.2ZM1384.61 537.84C1384.03 535.516 1383.44 533.196 1382.85 530.878L1378.78 535.778C1379.25 538.064 1379.71 540.353 1380.15 542.645C1381.64 541.043 1383.13 539.44 1384.61 537.84ZM1386.45 545.472C1385.9 543.141 1385.34 540.812 1384.77 538.486L1380.28 543.325C1380.73 545.62 1381.16 547.919 1381.58 550.221L1386.45 545.472ZM1388.21 553.102C1387.68 550.764 1387.15 548.43 1386.6 546.099C1384.97 547.689 1383.33 549.279 1381.7 550.871C1382.12 553.169 1382.53 555.47 1382.92 557.773L1388.21 553.102ZM1389.87 560.719C1389.38 558.38 1388.86 556.044 1388.34 553.71L1383.03 558.408C1383.42 560.71 1383.81 563.015 1384.18 565.323L1389.87 560.719ZM2273.44 -105.412C2280.53 -104.967 2287.7 -104.506 2294.88 -104.042C2297.28 -105.436 2299.69 -106.826 2302.09 -108.217C2295.06 -108.605 2288.01 -108.997 2281.08 -109.363C2278.52 -108.05 2275.98 -106.729 2273.44 -105.412ZM2251.15 -106.788C2258.17 -106.364 2265.26 -105.923 2272.38 -105.478C2274.91 -106.792 2277.44 -108.109 2279.99 -109.419C2273.02 -109.786 2266.09 -110.143 2259.2 -110.492C2256.51 -109.261 2253.83 -108.024 2251.15 -106.788ZM2229 -108.107C2235.96 -107.698 2242.94 -107.288 2249.99 -106.861C2252.66 -108.092 2255.31 -109.328 2258 -110.554C2251.13 -110.901 2244.31 -111.242 2237.53 -111.57C2234.69 -110.415 2231.82 -109.267 2229 -108.107ZM2207.06 -109.381C2213.87 -108.997 2220.81 -108.587 2227.72 -108.182C2230.53 -109.337 2233.36 -110.484 2236.19 -111.634C2229.44 -111.961 2222.68 -112.289 2216.02 -112.596C2213.04 -111.522 2210.02 -110.462 2207.06 -109.381ZM2185.29 -110.573C2192.06 -110.206 2198.79 -109.849 2205.64 -109.465C2208.57 -110.54 2211.57 -111.597 2214.53 -112.666C2207.84 -112.973 2201.24 -113.259 2194.63 -113.549C2191.52 -112.556 2188.37 -111.574 2185.29 -110.573ZM2163.76 -111.727C2170.33 -111.387 2177 -111.023 2183.66 -110.661C2186.72 -111.658 2189.87 -112.633 2192.96 -113.622C2186.45 -113.909 2179.89 -114.204 2173.48 -114.467C2170.25 -113.554 2166.97 -112.65 2163.76 -111.727ZM2142.36 -112.804C2148.86 -112.482 2155.36 -112.158 2161.93 -111.82C2165.11 -112.737 2168.38 -113.633 2171.59 -114.542C2165.14 -114.805 2158.77 -115.049 2152.39 -115.296C2149.05 -114.465 2145.67 -113.643 2142.36 -112.804ZM2121.21 -113.828C2127.54 -113.53 2133.91 -113.222 2140.32 -112.906C2143.6 -113.741 2146.96 -114.554 2150.27 -115.379C2143.99 -115.622 2137.74 -115.86 2131.55 -116.083C2128.1 -115.331 2124.62 -114.588 2121.21 -113.828ZM2100.28 -114.791C2106.43 -114.517 2112.65 -114.227 2118.88 -113.934C2122.25 -114.689 2125.71 -115.421 2129.12 -116.167C2123 -116.386 2116.9 -116.601 2110.87 -116.801C2107.34 -116.132 2103.77 -115.47 2100.28 -114.791ZM2079.39 -115.686C2085.46 -115.43 2091.52 -115.183 2097.67 -114.911C2101.11 -115.585 2104.64 -116.234 2108.12 -116.897C2102.09 -117.095 2096.15 -117.276 2090.19 -117.456C2086.59 -116.867 2082.95 -116.285 2079.39 -115.686ZM2058.88 -116.534C2064.67 -116.307 2070.56 -116.056 2076.44 -115.808C2079.93 -116.401 2083.53 -116.968 2087.06 -117.55C2081.32 -117.727 2075.55 -117.91 2069.91 -118.065C2066.24 -117.553 2062.51 -117.056 2058.88 -116.534ZM2038.69 -117.283C2044.31 -117.078 2049.94 -116.872 2055.62 -116.654C2059.12 -117.163 2062.69 -117.659 2066.22 -118.158C2060.65 -118.304 2055.12 -118.442 2049.59 -118.577C2045.95 -118.148 2042.29 -117.722 2038.69 -117.283ZM2018.9 -117.98C2024.17 -117.803 2029.48 -117.619 2034.82 -117.426C2038.3 -117.855 2041.87 -118.263 2045.39 -118.683C2040.02 -118.811 2034.69 -118.932 2029.4 -119.045C2025.85 -118.701 2022.41 -118.333 2018.9 -117.98ZM1999.27 -118.613C2004.27 -118.46 2009.34 -118.293 2014.4 -118.125C2017.73 -118.467 2021.06 -118.81 2024.43 -119.145C2019.55 -119.246 2014.66 -119.349 2009.85 -119.436C2006.33 -119.161 2002.76 -118.897 1999.27 -118.613ZM1980.42 -119.156C1984.97 -119.03 1989.47 -118.917 1994.06 -118.782C1997.22 -119.044 2000.42 -119.297 2003.62 -119.552C1998.97 -119.629 1994.41 -119.688 1989.81 -119.755C1986.64 -119.565 1983.55 -119.354 1980.42 -119.156ZM1962.59 -119.642C1966.3 -119.551 1970.1 -119.441 1973.88 -119.334C1976.62 -119.514 1979.35 -119.695 1982.11 -119.869C1978.33 -119.923 1974.57 -119.974 1970.85 -120.017C1968.08 -119.895 1965.34 -119.769 1962.59 -119.642ZM1945.53 -120.024L1953.72 -119.844C1955.7 -119.94 1957.74 -120.023 1959.74 -120.117C1957.02 -120.14 1954.28 -120.17 1951.57 -120.191C1949.56 -120.134 1947.53 -120.083 1945.53 -120.024ZM1933.15 -120.296L1934.16 -120.274L1934.67 -120.291L1933.15 -120.296ZM1859.77 -120.621C1460.25 -122.851 1296.86 -72.3361 1248.51 14.6828C1206.53 90.2275 1251.15 193.402 1303.07 313.447C1315.14 341.364 1327.61 370.193 1339.48 399.8C1331.02 375.151 1322.21 351.036 1313.62 327.539C1270.29 208.955 1232.69 106.033 1274.99 28.7375C1324.04 -60.8778 1480.47 -115.884 1859.77 -120.621ZM1896.98 -120.28C1896.4 -120.288 1895.84 -120.291 1895.27 -120.299C1490.51 -118.68 1326.05 -63.2835 1275.66 28.7931C1233.49 105.837 1271.06 208.666 1314.35 327.144C1324.74 355.57 1335.45 384.898 1345.48 414.988L1345.6 415.297C1338.66 389.994 1331.3 365.224 1324.12 341.072C1289.49 224.514 1259.12 122.336 1301.39 43.8216C1352.63 -51.3754 1510.58 -111.639 1896.98 -120.28ZM1922.64 -119.871C1919.84 -119.919 1917.05 -119.964 1914.25 -120.01C1515.65 -112.864 1353.91 -52.4455 1302.06 43.8727C1259.92 122.156 1290.25 224.244 1324.86 340.698C1332.76 367.292 1340.89 394.635 1348.43 422.615C1348.8 423.599 1349.18 424.586 1349.55 425.573C1344.55 401.375 1339.14 377.643 1333.86 354.452C1307.9 240.458 1284.9 139.508 1326.86 60.114C1379.92 -40.2824 1536.81 -106.056 1922.64 -119.871ZM1945.24 -119.412C1941.46 -119.498 1937.67 -119.587 1933.94 -119.663C1540.18 -106.816 1380.96 -40.9333 1327.53 60.1591C1285.69 139.339 1308.66 240.205 1334.61 354.103C1340.26 378.913 1346.05 404.342 1351.34 430.302C1351.88 431.714 1352.4 433.129 1352.93 434.544C1349.78 411.838 1346.28 389.526 1342.84 367.669C1325.44 256.888 1309.87 157.756 1351.19 77.9364C1406.06 -28.0469 1561.17 -99.8525 1945.24 -119.412ZM1967.14 -118.897C1962.54 -119.017 1958 -119.124 1953.46 -119.23C1563.69 -100.363 1406.98 -28.4831 1351.87 77.974C1310.64 157.606 1326.2 256.657 1343.59 367.347C1347.21 390.38 1350.9 413.928 1354.18 437.9C1354.8 439.588 1355.42 441.276 1356.04 442.969C1354.58 421.877 1352.82 401.104 1351.08 380.711C1342 273.952 1333.79 177.389 1374.08 97.7451C1430.9 -14.5733 1584.11 -93.117 1967.14 -118.897ZM1988.6 -118.309C1983.6 -118.45 1978.61 -118.586 1973.65 -118.719C1586.21 -93.4734 1431.75 -14.8894 1374.76 97.7763C1334.55 177.25 1342.76 273.74 1351.83 380.418C1353.65 401.765 1355.5 423.521 1357.01 445.631C1357.67 447.473 1358.33 449.318 1358.99 451.164C1359.03 431.689 1358.81 412.469 1358.59 393.559C1357.41 291.856 1356.34 198.842 1395.09 120.207C1454.08 0.516979 1605.3 -85.7231 1988.6 -118.309ZM2009.71 -117.649C2004.4 -117.825 1999.07 -118.007 1993.86 -118.164C1607.01 -86.0114 1454.89 0.274341 1395.77 120.231C1357.09 198.715 1358.17 291.666 1359.35 393.3C1359.57 412.978 1359.8 432.99 1359.75 453.277C1360.45 455.252 1361.14 457.23 1361.83 459.211C1363.16 441.32 1364.29 423.635 1365.39 406.195C1371.44 310.928 1377.03 222.787 1413.59 146.354C1475.07 17.8208 1624.09 -77.4853 2009.71 -117.649ZM2030.93 -116.94C2025.3 -117.138 2019.76 -117.32 2014.2 -117.503C1625.63 -77.701 1475.86 17.6276 1414.28 146.368C1377.78 222.68 1372.19 310.765 1366.15 405.973C1365 424.054 1363.83 442.399 1362.44 460.962C1363.15 463.031 1363.86 465.102 1364.57 467.176C1367 450.81 1369.28 434.607 1371.52 418.593C1383.69 331.718 1395.09 250.351 1428.58 177.894C1493.1 38.3057 1639.48 -68.1305 2030.93 -116.94ZM2052.23 -116.146C2046.33 -116.372 2040.46 -116.591 2034.64 -116.801C1640.77 -68.2949 1493.86 38.1567 1429.28 177.897C1395.83 250.265 1384.44 331.586 1372.27 418.411C1369.95 434.965 1367.6 451.721 1365.07 468.652C1365.79 470.781 1366.5 472.913 1367.21 475.048C1370.57 460.14 1373.81 445.355 1377 430.721C1393.49 355.268 1409.15 283.651 1438.27 218.045C1506.73 63.8687 1649.57 -57.0032 2052.23 -116.146ZM2073.47 -115.295C2067.44 -115.546 2061.41 -115.794 2055.47 -116.026C1650.7 -57.1516 1507.48 63.738 1438.97 218.038C1409.87 283.575 1394.23 355.161 1377.75 430.582C1374.45 445.682 1371.11 460.944 1367.63 476.335C1368.34 478.519 1369.06 480.705 1369.76 482.895C1373.89 469.341 1377.91 455.88 1381.9 442.534C1399.38 384.047 1416.23 327.671 1438.79 274.389C1513.08 98.9494 1649.26 -42.7959 2073.47 -115.295ZM2094.96 -114.397C2088.67 -114.671 2082.5 -114.919 2076.29 -115.178C1650.25 -42.9227 1513.82 98.8355 1439.49 274.371C1416.95 327.611 1400.11 383.97 1382.63 442.441C1378.53 456.185 1374.38 470.052 1370.12 484.016C1370.83 486.242 1371.54 488.47 1372.23 490.703C1376.98 478.384 1381.65 466.136 1386.29 453.974C1481.25 204.787 1562.96 -9.67398 2094.96 -114.397ZM2116.45 -113.404C2110.13 -113.701 2103.8 -114 2097.57 -114.276C1563.76 -9.83759 1482 204.646 1387 453.932C1382.24 466.437 1377.43 479.034 1372.54 491.705C1373.24 493.964 1373.93 496.226 1374.62 498.491C1379.89 487.258 1385.09 476.079 1390.27 464.963C1505.23 217.979 1605.96 1.5245 2116.45 -113.404ZM2138.17 -112.369C2131.65 -112.69 2125.2 -112.995 2118.77 -113.297C1606.75 1.40143 1505.96 217.889 1390.96 464.97C1385.65 476.381 1380.3 487.859 1374.89 499.394C1375.57 501.676 1376.25 503.957 1376.92 506.245C1382.65 495.916 1388.34 485.623 1393.99 475.382C1528.98 230.882 1649.41 12.7099 2138.17 -112.369ZM2159.99 -111.27C2153.35 -111.612 2146.76 -111.944 2140.21 -112.267C1650.18 12.6301 1529.7 230.845 1394.66 475.442C1388.86 485.938 1383.04 496.484 1377.16 507.073C1377.83 509.375 1378.49 511.682 1379.14 513.993C1385.36 504.319 1391.55 494.672 1397.71 485.065C1552.64 243.391 1693.36 23.8532 2159.99 -111.27ZM2181.96 -110.105C2175.21 -110.47 2168.47 -110.834 2161.82 -111.179C1694.12 23.8053 1553.34 243.403 1398.34 485.175C1392.04 494.999 1385.72 504.862 1379.35 514.755C1380 517.072 1380.64 519.392 1381.27 521.716C1388.14 512.367 1394.97 503.041 1401.78 493.745C1576.46 255.324 1737.96 34.8696 2181.96 -110.105ZM2204.12 -108.9C2197.19 -109.287 2190.39 -109.648 2183.55 -110.018C1738.69 34.8553 1577.13 255.386 1402.38 493.909C1395.44 503.387 1388.47 512.897 1381.46 522.429C1382.09 524.76 1382.7 527.094 1383.31 529.431C1391.18 519.934 1399.02 510.453 1406.84 500.998C1600.84 266.366 1783.39 45.5922 2204.12 -108.9ZM2226.34 -107.608C2219.38 -108.015 2212.38 -108.432 2205.53 -108.818C1784.1 45.6081 1601.49 266.473 1407.4 501.212C1399.45 510.822 1391.49 520.456 1383.48 530.109C1384.09 532.447 1384.68 534.787 1385.26 537.131C1394.86 526.762 1404.43 516.409 1413.98 506.075C1626.5 276.018 1829.95 55.8175 2226.34 -107.608ZM2248.75 -106.282C2241.65 -106.71 2234.63 -107.122 2227.62 -107.533C1830.66 55.859 1627.13 276.164 1414.49 506.337C1404.83 516.798 1395.15 527.281 1385.42 537.779C1386 540.121 1386.57 542.467 1387.13 544.816C1399.89 532.375 1412.62 519.945 1425.32 507.534C1654.89 283.245 1878.31 65.0107 2248.75 -106.282ZM2271.24 -104.89C2264.09 -105.338 2256.96 -105.782 2249.91 -106.21C1879.02 65.0808 1655.49 283.429 1425.8 507.838C1412.98 520.356 1400.15 532.892 1387.27 545.441C1387.83 547.788 1388.36 550.138 1388.89 552.493C1407.84 535.72 1426.73 518.947 1445.6 502.191C1689.17 285.848 1929.82 72.1345 2271.24 -104.89ZM2293.86 -103.447C2286.64 -103.914 2279.44 -104.377 2272.3 -104.824C1930.54 72.2295 1689.75 286.066 1446.03 502.537C1427.06 519.381 1408.08 536.241 1389.03 553.101C1389.55 555.449 1390.07 557.8 1390.57 560.155C1423.02 533.927 1455.34 507.641 1487.67 481.356C1738.01 277.803 1988.34 74.2627 2293.86 -103.447ZM1385.34 572.855L1391.44 568.336C1390.97 565.993 1390.49 563.652 1390 561.315L1384.27 565.939C1384.64 568.24 1385 570.546 1385.34 572.855ZM1378.53 577.903C1380.56 576.399 1382.59 574.892 1384.62 573.388C1384.28 571.093 1383.93 568.8 1383.57 566.511L1377.85 571.126C1378.09 573.382 1378.32 575.641 1378.53 577.903ZM1371.71 582.954C1373.74 581.451 1375.77 579.948 1377.8 578.444C1377.59 576.197 1377.36 573.952 1377.13 571.71L1371.41 576.321C1371.52 578.53 1371.62 580.741 1371.71 582.954ZM1364.9 587.988C1366.92 586.494 1368.94 584.999 1370.96 583.504C1370.87 581.307 1370.78 579.111 1370.67 576.919L1364.96 581.522C1364.94 583.676 1364.94 585.829 1364.9 587.988ZM1358.08 593.03C1360.09 591.541 1362.11 590.054 1364.12 588.565C1364.16 586.42 1364.17 584.282 1364.19 582.143L1358.51 586.71C1358.37 588.815 1358.24 590.919 1358.08 593.03ZM1351.25 598.07L1357.28 593.615C1357.44 591.524 1357.57 589.439 1357.72 587.351C1355.84 588.861 1353.96 590.371 1352.09 591.88C1351.83 593.94 1351.53 596.006 1351.25 598.07ZM1344.44 603.091L1350.43 598.677C1350.71 596.633 1351 594.587 1351.26 592.547C1349.38 594.058 1347.5 595.568 1345.62 597.078C1345.23 599.081 1344.84 601.085 1344.44 603.091ZM1337.65 608.095C1339.63 606.636 1341.61 605.179 1343.59 603.72C1343.99 601.734 1344.38 599.748 1344.76 597.765C1342.89 599.269 1341.01 600.775 1339.14 602.279C1338.64 604.218 1338.16 606.154 1337.65 608.095ZM1330.82 613.125C1332.8 611.666 1334.78 610.204 1336.77 608.743C1337.28 606.825 1337.75 604.914 1338.24 602.999C1336.39 604.485 1334.53 605.97 1332.68 607.455C1332.07 609.344 1331.44 611.234 1330.82 613.125ZM1324.01 618.125C1325.97 616.687 1327.93 615.251 1329.88 613.812C1330.5 611.949 1331.11 610.087 1331.72 608.226C1329.88 609.695 1328.05 611.164 1326.22 612.633C1325.5 614.461 1324.75 616.294 1324.01 618.125ZM1317.24 623.103C1319.16 621.689 1321.09 620.274 1323.02 618.858C1323.74 617.057 1324.48 615.254 1325.19 613.456C1323.36 614.915 1321.54 616.372 1319.71 617.83C1318.89 619.588 1318.07 621.344 1317.24 623.103ZM1310.47 628.064C1312.37 626.675 1314.26 625.287 1316.16 623.897C1316.98 622.171 1317.79 620.446 1318.6 618.721C1316.8 620.157 1315.01 621.594 1313.21 623.029C1312.29 624.709 1311.39 626.384 1310.47 628.064ZM1303.71 633.02L1309.3 628.922C1310.2 627.285 1311.08 625.652 1311.97 624.016C1310.22 625.414 1308.46 626.81 1306.71 628.207C1305.71 629.811 1304.72 631.415 1303.71 633.02ZM1296.99 637.94C1298.8 636.618 1300.6 635.294 1302.41 633.973C1303.38 632.423 1304.34 630.874 1305.31 629.326C1303.61 630.681 1301.91 632.038 1300.2 633.392C1299.14 634.908 1298.07 636.423 1296.99 637.94ZM1290.35 642.792C1292.07 641.535 1293.79 640.278 1295.51 639.02C1296.54 637.577 1297.55 636.135 1298.57 634.692C1296.95 635.982 1295.32 637.272 1293.7 638.562C1292.59 639.972 1291.47 641.383 1290.35 642.792ZM1283.8 647.577C1285.41 646.404 1287.01 645.231 1288.62 644.057C1289.66 642.747 1290.7 641.436 1291.73 640.127C1290.21 641.336 1288.69 642.546 1287.16 643.755C1286.05 645.028 1284.92 646.302 1283.8 647.577ZM1277.46 652.204C1278.87 651.171 1280.29 650.139 1281.71 649.106C1282.7 647.977 1283.69 646.848 1284.69 645.72C1283.33 646.792 1281.98 647.864 1280.62 648.936L1277.46 652.204ZM1271.51 656.538L1274.82 654.121C1275.65 653.271 1276.47 652.421 1277.3 651.571C1276.22 652.421 1275.15 653.272 1274.08 654.122C1273.22 654.927 1272.36 655.733 1271.51 656.538ZM1266.46 660.217L1267.89 659.172L1269.01 658.127L1267.54 659.28L1266.46 660.217ZM2466.5 -196.931L2468.58 -198.204C2467.09 -197.447 2465.62 -196.686 2464.14 -195.928C2464.92 -196.263 2465.71 -196.596 2466.5 -196.931ZM2458.48 -192.004C2460.08 -192.995 2461.7 -193.982 2463.31 -194.972C2461.21 -194.075 2459.11 -193.179 2457.03 -192.278C2455.32 -191.404 2453.62 -190.532 2451.92 -189.655C2454.1 -190.439 2456.29 -191.22 2458.48 -192.004ZM2450.53 -187.096C2452.41 -188.257 2454.29 -189.419 2456.16 -190.578C2453.53 -189.626 2450.85 -188.686 2448.23 -187.73C2446.19 -186.673 2444.16 -185.612 2442.13 -184.553C2444.92 -185.405 2447.73 -186.247 2450.53 -187.096ZM2442.56 -182.17C2444.58 -183.423 2446.61 -184.671 2448.63 -185.922C2445.56 -184.987 2442.44 -184.065 2439.39 -183.123C2437.18 -181.971 2434.96 -180.824 2432.75 -179.668C2436 -180.507 2439.29 -181.334 2442.56 -182.17ZM2434.65 -177.246C2436.74 -178.547 2438.83 -179.852 2440.92 -181.15C2437.47 -180.267 2433.98 -179.396 2430.55 -178.505C2428.29 -177.312 2426.03 -176.114 2423.77 -174.919C2427.37 -175.701 2431.03 -176.47 2434.65 -177.246ZM2426.71 -172.306C2428.86 -173.648 2431.01 -174.983 2433.16 -176.321C2429.4 -175.513 2425.58 -174.718 2421.85 -173.901C2419.51 -172.664 2417.17 -171.43 2414.83 -170.19C2418.76 -170.904 2422.76 -171.6 2426.71 -172.306ZM2418.83 -167.366C2421 -168.73 2423.18 -170.093 2425.35 -171.452C2421.27 -170.722 2417.14 -170.007 2413.09 -169.268C2410.74 -168.014 2408.41 -166.751 2406.06 -165.493C2410.28 -166.128 2414.58 -166.741 2418.83 -167.366ZM2410.93 -162.415C2413.13 -163.8 2415.34 -165.18 2417.55 -166.563C2413.2 -165.923 2408.79 -165.298 2404.48 -164.647C2402.09 -163.365 2399.7 -162.084 2397.32 -160.798C2401.81 -161.349 2406.4 -161.875 2410.93 -162.415ZM2403.07 -157.46C2405.29 -158.856 2407.5 -160.255 2409.72 -161.65C2405.1 -161.098 2400.4 -160.565 2395.83 -160.002C2393.43 -158.705 2391.04 -157.406 2388.65 -156.106C2393.4 -156.571 2398.27 -157.006 2403.07 -157.46ZM2395.26 -152.53C2397.47 -153.931 2399.69 -155.326 2401.91 -156.725C2397.04 -156.263 2392.08 -155.825 2387.26 -155.351C2384.84 -154.034 2382.41 -152.714 2380 -151.395C2385.06 -151.779 2390.14 -152.159 2395.26 -152.53ZM2387.42 -147.552C2389.66 -148.976 2391.9 -150.403 2394.15 -151.824C2388.94 -151.447 2383.8 -151.056 2378.66 -150.664C2376.24 -149.341 2373.82 -148.02 2371.41 -146.695C2376.71 -146.988 2382.06 -147.272 2387.42 -147.552ZM2379.59 -142.577C2381.83 -144.008 2384.09 -145.434 2386.34 -146.863C2380.92 -146.579 2375.5 -146.294 2370.14 -145.996C2367.72 -144.664 2365.31 -143.329 2362.9 -141.993C2368.42 -142.198 2374.01 -142.386 2379.59 -142.577ZM2371.82 -137.614C2374.06 -139.044 2376.3 -140.478 2378.54 -141.906C2372.89 -141.713 2367.25 -141.518 2361.66 -141.31C2359.23 -139.959 2356.78 -138.614 2354.35 -137.261C2360.17 -137.379 2365.93 -137.511 2371.82 -137.614ZM2364 -132.612C2366.26 -134.064 2368.53 -135.509 2370.8 -136.959C2364.85 -136.854 2359.04 -136.718 2353.16 -136.598C2350.74 -135.25 2348.34 -133.892 2345.93 -132.54C2351.92 -132.572 2357.93 -132.597 2364 -132.612ZM2356.22 -127.611C2358.48 -129.062 2360.73 -130.516 2362.99 -131.966C2356.88 -131.951 2350.81 -131.927 2344.77 -131.895C2342.35 -130.535 2339.92 -129.18 2337.5 -127.817C2343.67 -127.764 2349.97 -127.681 2356.22 -127.611ZM2348.45 -122.611C2350.71 -124.069 2352.97 -125.52 2355.23 -126.975C2348.94 -127.047 2342.59 -127.13 2336.37 -127.185C2333.95 -125.816 2331.54 -124.439 2329.12 -123.068C2335.5 -122.928 2341.99 -122.767 2348.45 -122.611ZM2340.72 -117.608C2342.97 -119.067 2345.22 -120.528 2347.48 -121.985C2340.97 -122.142 2334.45 -122.301 2328.02 -122.442C2325.59 -121.064 2323.16 -119.687 2320.74 -118.305C2327.37 -118.079 2334.02 -117.851 2340.72 -117.608ZM2332.99 -112.602C2335.24 -114.067 2337.51 -115.527 2339.76 -116.99C2333.01 -117.232 2326.33 -117.462 2319.66 -117.689C2317.24 -116.306 2314.82 -114.921 2312.41 -113.537C2319.26 -113.227 2326.06 -112.927 2332.99 -112.602ZM2325.28 -107.589C2327.54 -109.057 2329.79 -110.527 2332.05 -111.993C2325.08 -112.32 2318.24 -112.619 2311.35 -112.93C2308.94 -111.542 2306.53 -110.151 2304.12 -108.76C2311.16 -108.373 2318.15 -107.997 2325.28 -107.589ZM2317.57 -102.561C2319.83 -104.037 2322.09 -105.51 2324.36 -106.984C2317.19 -107.394 2310.16 -107.774 2303.08 -108.163C2300.67 -106.768 2298.25 -105.376 2295.85 -103.979C2303.05 -103.513 2310.26 -103.047 2317.57 -102.561ZM1603.54 409.632C1835.99 234.946 2069.29 59.6329 2316.64 -101.959C2309.31 -102.447 2302.06 -102.917 2294.83 -103.385C1989.05 74.3843 1738.56 278.054 1488.06 481.738C1455.65 508.094 1423.23 534.448 1390.7 560.748C1391.19 563.099 1391.68 565.452 1392.15 567.809C1462.78 515.407 1533.12 462.549 1603.54 409.632ZM2590.26 -270.072C2553.33 -248.724 2516.79 -226.989 2480.59 -204.914C2518.38 -224.031 2557.02 -242.749 2596.64 -261.013L2596.76 -260.462C2555.06 -241.238 2514.42 -221.516 2474.74 -201.348C2473.11 -200.355 2471.49 -199.356 2469.87 -198.361C2512.77 -216.611 2557.15 -234.332 2603.23 -251.449L2603.27 -250.863C2556.03 -233.317 2510.58 -215.138 2466.67 -196.402C2464.76 -195.231 2462.86 -194.064 2460.95 -192.891C2508.38 -209.9 2557.89 -226.26 2609.82 -241.878L2609.79 -241.27C2557.02 -225.398 2506.74 -208.763 2458.62 -191.456C2456.59 -190.208 2454.57 -188.956 2452.55 -187.707C2504.33 -203.377 2558.81 -218.275 2616.4 -232.304L2616.31 -231.682C2558.05 -217.49 2502.96 -202.406 2450.65 -186.534C2448.53 -185.227 2446.42 -183.924 2444.3 -182.614C2500.38 -196.911 2559.77 -210.32 2622.97 -222.728L2622.84 -222.095C2559.07 -209.576 2499.18 -196.036 2442.66 -181.593C2440.5 -180.258 2438.36 -178.917 2436.21 -177.58C2496.54 -190.481 2560.78 -202.38 2629.54 -213.149L2629.37 -212.51C2560.11 -201.662 2495.43 -189.669 2434.72 -176.656C2432.53 -175.29 2430.33 -173.928 2428.14 -172.561C2492.71 -184.063 2561.81 -194.446 2636.11 -203.569L2635.91 -202.925C2561.16 -193.748 2491.67 -183.293 2426.77 -171.707C2424.57 -170.328 2422.36 -168.943 2420.16 -167.561C2488.95 -177.657 2562.86 -186.515 2642.67 -193.989L2642.45 -193.342C2562.22 -185.832 2487.96 -176.919 2418.88 -166.757C2416.64 -165.359 2414.41 -163.965 2412.18 -162.564C2485.18 -171.251 2563.92 -178.586 2649.23 -184.407L2648.99 -183.76C2563.29 -177.912 2484.23 -170.537 2410.96 -161.798C2408.73 -160.391 2406.5 -158.98 2404.26 -157.571C2481.46 -164.847 2564.99 -170.657 2655.79 -174.825L2655.53 -174.177C2564.37 -169.992 2480.54 -164.153 2403.1 -156.836C2400.87 -155.427 2398.63 -154.021 2396.4 -152.609C2477.75 -158.47 2566.13 -162.729 2662.35 -165.244L2662.08 -164.597C2565.52 -162.072 2476.86 -157.794 2395.28 -151.904C2393.03 -150.476 2390.78 -149.042 2388.52 -147.612C2474.07 -152.062 2567.22 -154.797 2668.91 -155.664L2668.63 -155.014C2566.61 -154.146 2473.19 -151.395 2387.44 -146.922C2385.18 -145.486 2382.91 -144.052 2380.65 -142.612C2470.38 -145.653 2568.32 -146.863 2675.47 -146.081L2675.17 -145.432C2567.71 -146.217 2469.52 -144.999 2379.59 -141.941C2377.34 -140.507 2375.1 -139.067 2372.85 -137.631C2466.72 -139.26 2569.47 -138.929 2682.03 -136.499L2681.72 -135.85C2568.87 -138.286 2465.88 -138.616 2371.83 -136.975C2369.55 -135.522 2367.28 -134.071 2365.01 -132.616C2463.06 -132.838 2570.57 -130.993 2688.58 -126.917L2688.27 -126.269C2569.96 -130.355 2462.23 -132.2 2364 -131.97C2361.73 -130.515 2359.47 -129.055 2357.2 -127.599C2459.43 -126.416 2571.68 -123.056 2695.14 -117.335L2694.81 -116.687C2571.08 -122.421 2458.61 -125.784 2356.22 -126.965C2353.95 -125.506 2351.68 -124.048 2349.41 -122.588C2455.8 -119.998 2572.81 -115.117 2701.7 -107.753L2701.36 -107.105C2572.21 -114.483 2454.99 -119.371 2348.44 -121.96C2346.18 -120.5 2343.92 -119.036 2341.66 -117.573C2452.19 -113.579 2573.97 -107.175 2708.25 -98.1716L2707.91 -97.5231C2573.37 -106.543 2451.39 -112.958 2340.71 -116.956C2338.44 -115.489 2336.17 -114.025 2333.91 -112.557C2448.58 -107.159 2575.13 -99.2301 2714.81 -88.5885L2714.46 -87.9418C2574.53 -98.6018 2447.79 -106.544 2332.97 -111.948C2330.71 -110.479 2328.45 -109.006 2326.19 -107.536C2445 -100.736 2576.31 -91.2822 2721.36 -79.0065L2721.01 -78.361C2575.72 -90.6564 2444.21 -100.126 2325.27 -106.933C2323 -105.457 2320.73 -103.98 2318.47 -102.501C2441.42 -94.3002 2577.46 -83.3378 2727.92 -69.4254L2727.56 -68.7774C2576.85 -82.712 2440.64 -93.6891 2317.54 -101.9C2069.99 59.7834 1836.52 235.228 1603.89 410.045C1533.39 463.02 1462.97 515.936 1392.26 568.395C1397.54 594.924 1401.17 621.818 1402.56 649.006C1413.95 871.632 1275.96 1113.75 676.985 1333.47L676.953 1332.89C1275.32 1113.38 1413.18 871.59 1401.81 649.285C1400.42 622.183 1396.81 595.371 1391.55 568.922L1385.43 573.462C1387.99 590.833 1389.86 608.358 1390.86 626.013C1403.67 852.259 1275.21 1100.04 670.435 1323.89L670.4 1323.31C1274.57 1099.68 1402.9 852.225 1390.1 626.293C1389.11 608.723 1387.25 591.284 1384.71 573.995C1382.67 575.507 1380.63 577.02 1378.59 578.531C1379.21 585.111 1379.74 591.712 1380.15 598.335C1394.58 829.381 1278.11 1084.81 663.885 1314.31L663.846 1313.72C1277.45 1084.45 1393.8 829.357 1379.39 598.618C1378.98 592.084 1378.47 585.567 1377.86 579.072C1375.82 580.584 1373.78 582.093 1371.73 583.605C1380.86 816.003 1269.03 1073.88 657.334 1304.73L657.292 1304.14C1268.11 1073.63 1380 816.182 1370.99 584.154C1368.96 585.66 1366.92 587.167 1364.88 588.672C1360.9 817.266 1242.38 1069.52 650.783 1295.14L650.741 1294.56C1241.34 1069.32 1359.97 817.5 1364.1 589.249C1362.08 590.745 1360.05 592.241 1358.03 593.737C1340.92 818.544 1215.68 1065.18 644.234 1285.56L644.186 1284.98C1214.65 1064.98 1340 818.783 1357.23 594.322L1351.15 598.816C1320.92 819.833 1188.98 1060.84 637.685 1275.98L637.631 1275.4C1187.94 1060.65 1319.98 820.085 1350.33 599.423L1344.28 603.88C1300.93 821.109 1162.28 1056.5 631.134 1266.4L631.077 1265.82C1161.24 1056.32 1299.98 821.375 1343.43 604.509C1341.43 605.982 1339.43 607.453 1337.43 608.925C1280.97 822.371 1135.6 1052.16 624.585 1256.81L624.523 1256.24C1134.55 1051.98 1280 822.656 1336.54 609.583C1334.54 611.058 1332.53 612.535 1330.53 614.009C1260.95 823.662 1108.89 1047.82 618.036 1247.23L617.968 1246.66C1107.83 1047.65 1259.97 823.965 1329.59 614.695C1327.61 616.156 1325.62 617.615 1323.63 619.075C1240.95 824.939 1082.2 1043.48 611.488 1237.65L611.412 1237.08C1081.13 1043.32 1239.93 825.272 1322.63 619.808C1320.67 621.25 1318.71 622.693 1316.74 624.135C1220.96 826.209 1055.52 1039.13 604.938 1228.06L604.857 1227.5C1054.41 1039 1219.89 826.584 1315.66 624.929C1313.73 626.347 1311.8 627.764 1309.86 629.181C1200.98 827.47 1028.85 1034.79 598.39 1218.48L598.302 1217.92C1027.71 1034.67 1199.85 827.894 1308.68 630.05L1302.94 634.252C1180.97 828.747 1002.16 1030.44 591.841 1208.9L591.746 1208.34C1000.98 1030.35 1179.76 829.226 1301.64 635.204C1299.77 636.576 1297.89 637.95 1296.02 639.321C1160.95 830.024 975.48 1026.1 585.294 1199.31L585.19 1198.75C974.233 1026.05 1159.63 830.585 1294.54 640.401L1289.1 644.377C1140.95 831.289 948.81 1021.75 578.745 1189.73L578.634 1189.18C947.465 1021.76 1139.46 831.972 1287.36 645.642C1285.63 646.909 1283.89 648.179 1282.16 649.446C1120.93 832.563 922.134 1017.41 572.199 1180.14L572.076 1179.6C920.659 1017.49 1119.21 833.408 1280.07 650.963C1278.47 652.136 1276.86 653.306 1275.25 654.478C1100.95 833.813 895.482 1013.05 565.652 1170.56L565.519 1170.02C893.797 1013.25 1098.83 834.922 1272.6 656.406C1271.16 657.454 1269.72 658.505 1268.28 659.553C1080.92 835.089 868.806 1008.71 559.108 1160.98L558.96 1160.44C866.768 1009.1 1078.15 836.641 1264.68 662.174C1263.57 662.98 1262.46 663.786 1261.35 664.593C1060.91 836.343 842.155 1004.36 552.564 1151.39L552.401 1150.86C839.408 1005.14 1056.84 838.781 1255.83 668.602L1254.39 669.645C1040.9 837.604 815.497 1000.01 546.018 1141.8L545.842 1141.28C810.645 1001.95 1032.9 842.689 1243.12 677.813C1017.94 840.849 787.264 996.521 539.477 1132.22L539.278 1131.71C791.141 993.778 1025.33 835.195 1254.06 669.218C1258.42 665.789 1262.77 662.359 1267.12 658.927C1271.22 655.403 1275.32 651.878 1279.41 648.351C1283.23 644.748 1287.04 641.145 1290.85 637.542C1294.4 633.852 1297.93 630.163 1301.46 626.475C1304.76 622.663 1308.04 618.851 1311.31 615.042C1314.24 611.248 1317.15 607.456 1320.05 603.667C1322.77 599.676 1325.47 595.686 1328.16 591.703C1330.54 587.684 1332.91 583.67 1335.25 579.661C1337.33 575.572 1339.38 571.489 1341.41 567.411C1343.2 563.188 1344.97 558.971 1346.72 554.76C1348.19 550.44 1349.65 546.125 1351.08 541.819C1352.21 537.521 1353.31 533.232 1354.4 528.952C1355.22 524.499 1356.01 520.056 1356.78 515.623C1357.27 511.065 1357.74 506.516 1358.18 501.98C1358.34 497.327 1358.46 492.687 1358.57 488.059C1358.38 483.349 1358.16 478.651 1357.93 473.97C1357.39 469.188 1356.82 464.423 1356.23 459.672C1355.34 454.822 1354.43 449.989 1353.49 445.172C1352.24 440.228 1350.96 435.301 1349.66 430.393C1348.05 425.382 1346.41 420.391 1344.76 415.421C1331.14 380.463 1316.47 346.538 1302.34 313.862C1250.38 193.705 1205.71 90.4346 1247.84 14.6213C1297.78 -75.2554 1469.66 -126.355 1895.8 -120.903C1907.69 -120.951 1919.8 -120.95 1932.1 -120.907C1943.88 -121.072 1955.9 -121.184 1968.11 -121.253C1980.1 -121.544 1992.34 -121.777 2004.77 -121.97C2016.54 -122.382 2028.53 -122.747 2040.7 -123.069C2052.18 -123.603 2063.82 -124.099 2075.67 -124.552C2086.82 -125.211 2098.11 -125.84 2109.6 -126.422C2120.33 -127.204 2131.18 -127.957 2142.24 -128.664C2152.86 -129.594 2163.61 -130.496 2174.54 -131.354C2184.87 -132.426 2195.36 -133.462 2205.98 -134.469C2215.56 -135.634 2225.28 -136.767 2235.1 -137.879C2245.39 -139.335 2255.74 -140.779 2266.34 -142.166C2274.89 -143.557 2283.54 -144.929 2292.26 -146.279C2301.46 -148.011 2310.8 -149.704 2320.22 -151.381C2328.96 -153.263 2337.72 -155.137 2346.64 -156.972C2354.38 -158.885 2362.22 -160.773 2370.09 -162.655C2378.29 -164.988 2386.58 -167.299 2394.95 -169.587C2402.15 -171.939 2409.39 -174.284 2416.7 -176.606C2423.45 -179.158 2430.26 -181.69 2437.1 -184.217C2443.66 -187.1 2450.26 -189.97 2456.89 -192.825C2462.75 -195.844 2468.63 -198.856 2474.53 -201.855C2512.63 -225.154 2551.12 -248.073 2590.03 -270.568L2590.26 -270.072Z" fill="url(#paint0_linear_216_82)"></path></g></g><defs><linearGradient id="paint0_linear_216_82" x1="1352.97" y1="-180.986" x2="1392" y2="985.5" gradientUnits="userSpaceOnUse"><stop offset="0.160933" stop-color="#43A862" stop-opacity="0"></stop><stop offset="0.265215" stop-color="#44AB64"></stop><stop offset="1" stop-color="#44AB64"></stop></linearGradient><clipPath id="clip0_216_82"><rect width="1920" height="911" fill="white"></rect></clipPath><clipPath id="clip1_216_82"><rect width="1684" height="1037" fill="white" transform="translate(236)"></rect></clipPath></defs></svg>