<svg xmlns="http://www.w3.org/2000/svg" width="506" height="466" viewBox="0 0 506 466" fill="none"><path d="M236.04 404.765L260.057 375.039L236.674 384.731L236.04 404.765Z" stroke="#44AB64" stroke-width="0.57" stroke-linecap="round" stroke-linejoin="round"></path><path d="M268.51 387.932L236.04 404.765L260.057 375.039L268.51 387.932Z" stroke="#44AB64" stroke-width="0.57" stroke-linecap="round" stroke-linejoin="round"></path><path d="M268.51 406.005V387.933L236.04 404.765L268.51 406.005Z" stroke="#44AB64" stroke-width="0.57" stroke-linecap="round" stroke-linejoin="round"></path><path d="M234.712 434.83L244.596 428.561L236.04 404.765L234.712 434.83Z" stroke="#44AB64" stroke-width="0.57" stroke-linecap="round" stroke-linejoin="round"></path><path d="M268.51 406.004L244.596 428.561L236.04 404.765L268.51 406.004Z" stroke="#44AB64" stroke-width="0.57" stroke-linecap="round" stroke-linejoin="round"></path><path d="M268.865 421.141L268.511 406.005L244.597 428.562L268.865 421.141Z" stroke="#44AB64" stroke-width="0.57" stroke-linecap="round" stroke-linejoin="round"></path><path d="M238.459 246.971L228.28 265.116L257.638 242.265L238.459 246.971Z" stroke="#44AB64" stroke-width="0.57" stroke-linecap="round" stroke-linejoin="round"></path><path d="M228.28 265.117L255.867 290.432L236.674 282.923L228.28 265.117Z" stroke="#44AB64" stroke-width="0.57" stroke-linecap="round" stroke-linejoin="round"></path><path d="M275.105 265.116L247.001 258.109L257.638 242.265L275.105 265.116Z" stroke="#44AB64" stroke-width="0.57" stroke-linecap="round" stroke-linejoin="round"></path><path d="M228.28 265.117L247.001 258.109L255.867 290.432L228.28 265.117Z" stroke="#44AB64" stroke-width="0.57" stroke-linecap="round" stroke-linejoin="round"></path><path d="M247.001 258.109L275.105 265.117L255.867 290.432L247.001 258.109Z" stroke="#44AB64" stroke-width="0.57" stroke-linecap="round" stroke-linejoin="round"></path><path d="M275.104 265.117L268.51 284.34L255.867 290.432L275.104 265.117Z" stroke="#44AB64" stroke-width="0.57" stroke-linecap="round" stroke-linejoin="round"></path><path d="M244.597 428.561L262.772 445.291L268.865 421.141L244.597 428.561Z" stroke="#44AB64" stroke-width="0.57" stroke-linecap="round" stroke-linejoin="round"></path><path d="M244.597 428.561L248.049 444.375L262.772 445.29L244.597 428.561Z" stroke="#44AB64" stroke-width="0.57" stroke-linecap="round" stroke-linejoin="round"></path><path d="M237.176 456.709L248.048 444.375L244.596 428.561L237.176 456.709Z" stroke="#44AB64" stroke-width="0.57" stroke-linecap="round" stroke-linejoin="round"></path><path d="M236.04 367.042V346.669L248.461 353.116L236.04 367.042Z" stroke="#44AB64" stroke-width="0.57" stroke-linecap="round" stroke-linejoin="round"></path><path d="M236.674 282.923L238.769 314.316L255.868 290.432L236.674 282.923Z" stroke="#44AB64" stroke-width="0.57" stroke-linecap="round" stroke-linejoin="round"></path><path d="M266.784 313.255L255.867 290.432L268.51 284.339L266.784 313.255Z" stroke="#44AB64" stroke-width="0.57" stroke-linecap="round" stroke-linejoin="round"></path><path d="M238.769 314.316L236.04 346.669L245.304 322.43L238.769 314.316Z" stroke="#44AB64" stroke-width="0.57" stroke-linecap="round" stroke-linejoin="round"></path><path d="M266.784 313.254L267.625 334.557L261.089 329.379L266.784 313.254Z" stroke="#44AB64" stroke-width="0.57" stroke-linecap="round" stroke-linejoin="round"></path><path d="M248.461 353.116L236.04 346.67L267.625 334.558L248.461 353.116Z" stroke="#44AB64" stroke-width="0.57" stroke-linecap="round" stroke-linejoin="round"></path><path d="M236.04 346.668L267.625 334.557L261.09 329.378L236.04 346.668Z" stroke="#44AB64" stroke-width="0.57" stroke-linecap="round" stroke-linejoin="round"></path><path d="M262.771 445.291L283.115 442.635L268.864 421.141L262.771 445.291Z" stroke="#44AB64" stroke-width="0.57" stroke-linecap="round" stroke-linejoin="round"></path><path d="M283.941 456.709L306.97 458.391L283.115 442.635L283.941 456.709Z" stroke="#44AB64" stroke-width="0.57" stroke-linecap="round" stroke-linejoin="round"></path><path d="M245.304 322.43L261.09 329.379L236.04 346.669L245.304 322.43Z" stroke="#44AB64" stroke-width="0.57" stroke-linecap="round" stroke-linejoin="round"></path><path d="M245.305 322.431L266.785 313.254L261.09 329.379L245.305 322.431Z" stroke="#44AB64" stroke-width="0.57" stroke-linecap="round" stroke-linejoin="round"></path><path d="M238.769 314.317L255.867 290.432L245.304 322.431L238.769 314.317Z" stroke="#44AB64" stroke-width="0.57" stroke-linecap="round" stroke-linejoin="round"></path><path d="M212.79 459.144L222.541 445.291L237.176 456.71L212.79 459.144Z" stroke="#44AB64" stroke-width="0.57" stroke-linecap="round" stroke-linejoin="round"></path><path d="M212.789 459.143L160.58 465L200.426 452.253L212.789 459.143Z" stroke="#44AB64" stroke-width="0.57" stroke-linecap="round" stroke-linejoin="round"></path><path d="M222.541 445.29L234.712 434.831L237.176 456.709L222.541 445.29Z" stroke="#44AB64" stroke-width="0.57" stroke-linecap="round" stroke-linejoin="round"></path><path d="M269.174 353.116H248.461L268.864 364.343L269.174 353.116Z" stroke="#44AB64" stroke-width="0.57" stroke-linecap="round" stroke-linejoin="round"></path><path d="M236.04 367.043L260.057 375.039L236.674 384.731L236.04 367.043Z" stroke="#44AB64" stroke-width="0.57" stroke-linecap="round" stroke-linejoin="round"></path><path d="M260.057 375.039L248.461 353.116L268.864 364.343L260.057 375.039Z" stroke="#44AB64" stroke-width="0.57" stroke-linecap="round" stroke-linejoin="round"></path><path d="M268.51 387.932L268.864 364.343L260.057 375.038L268.51 387.932Z" stroke="#44AB64" stroke-width="0.57" stroke-linecap="round" stroke-linejoin="round"></path><path d="M237.176 456.71H283.942L262.772 445.291L237.176 456.71Z" stroke="#44AB64" stroke-width="0.57" stroke-linecap="round" stroke-linejoin="round"></path><path d="M307.59 458.391L322.49 455.308L364.048 462.979L307.59 458.391Z" stroke="#44AB64" stroke-width="0.57" stroke-linecap="round" stroke-linejoin="round"></path><path d="M200.426 452.254L222.54 445.291L212.789 459.144L200.426 452.254Z" stroke="#44AB64" stroke-width="0.57" stroke-linecap="round" stroke-linejoin="round"></path><path d="M267.625 334.558L274.677 338.024L269.174 353.116L267.625 334.558Z" stroke="#44AB64" stroke-width="0.57" stroke-linecap="round" stroke-linejoin="round"></path><path d="M269.174 353.116L278.099 345.519L274.677 338.024L269.174 353.116Z" stroke="#44AB64" stroke-width="0.57" stroke-linecap="round" stroke-linejoin="round"></path><path d="M269.174 353.117L282.363 348.116L278.099 345.519L269.174 353.117Z" stroke="#44AB64" stroke-width="0.57" stroke-linecap="round" stroke-linejoin="round"></path><path d="M274.676 338.024L289.783 337.08L278.099 345.519L274.676 338.024Z" stroke="#44AB64" stroke-width="0.57" stroke-linecap="round" stroke-linejoin="round"></path><path d="M282.363 348.115L289.784 337.08L278.1 345.519L282.363 348.115Z" stroke="#44AB64" stroke-width="0.57" stroke-linecap="round" stroke-linejoin="round"></path><path d="M274.676 338.024L295.374 326.517L289.783 337.079L274.676 338.024Z" stroke="#44AB64" stroke-width="0.57" stroke-linecap="round" stroke-linejoin="round"></path><path d="M282.363 348.114L295.714 336.283L289.783 337.079L282.363 348.114Z" stroke="#44AB64" stroke-width="0.57" stroke-linecap="round" stroke-linejoin="round"></path><path d="M295.375 326.517L305.82 331.149L295.714 336.283L295.375 326.517Z" stroke="#44AB64" stroke-width="0.57" stroke-linecap="round" stroke-linejoin="round"></path><path d="M311.618 323.773L295.375 326.517L305.82 331.149L311.618 323.773Z" stroke="#44AB64" stroke-width="0.57" stroke-linecap="round" stroke-linejoin="round"></path><path d="M326.355 326.133L311.618 323.773L305.82 331.149L326.355 326.133Z" stroke="#44AB64" stroke-width="0.57" stroke-linecap="round" stroke-linejoin="round"></path><path d="M268.864 364.343L282.363 348.115L269.174 353.116L268.864 364.343Z" stroke="#44AB64" stroke-width="0.57" stroke-linecap="round" stroke-linejoin="round"></path><path d="M283.115 442.635L322.49 455.307L307.59 458.391L283.115 442.635Z" stroke="#44AB64" stroke-width="0.57" stroke-linecap="round" stroke-linejoin="round"></path><path d="M238.459 246.971L230.935 225.343L245.599 219.427L238.459 246.971Z" stroke="#44AB64" stroke-width="0.47" stroke-linecap="round" stroke-linejoin="round"></path><path d="M202.241 225.344H230.935L238.459 246.971L202.241 225.344Z" stroke="#44AB64" stroke-width="0.47" stroke-linecap="round" stroke-linejoin="round"></path><path d="M220.254 193.257L202.241 225.344H230.935L220.254 193.257Z" stroke="#44AB64" stroke-width="0.47" stroke-linecap="round" stroke-linejoin="round"></path><path d="M264.158 192.327L220.254 193.256L239.919 202.329L264.158 192.327Z" stroke="#44AB64" stroke-width="0.47" stroke-linecap="round" stroke-linejoin="round"></path><path d="M245.599 219.427L239.919 202.329L230.935 225.343L245.599 219.427Z" stroke="#44AB64" stroke-width="0.47" stroke-linecap="round" stroke-linejoin="round"></path><path d="M245.599 219.427L264.158 192.327L239.919 202.329L245.599 219.427Z" stroke="#44AB64" stroke-width="0.47" stroke-linecap="round" stroke-linejoin="round"></path><path d="M274.927 234.578L245.599 219.427L264.158 192.327L274.927 234.578Z" stroke="#44AB64" stroke-width="0.47" stroke-linecap="round" stroke-linejoin="round"></path><path d="M238.459 246.971L257.637 242.265L245.599 219.427L238.459 246.971Z" stroke="#44AB64" stroke-width="0.47" stroke-linecap="round" stroke-linejoin="round"></path><path d="M274.927 234.578L257.637 242.265L245.599 219.427L274.927 234.578Z" stroke="#44AB64" stroke-width="0.47" stroke-linecap="round" stroke-linejoin="round"></path><path d="M295.05 220.932L264.158 192.327L274.928 234.578L295.05 220.932Z" stroke="#44AB64" stroke-width="0.47" stroke-linecap="round" stroke-linejoin="round"></path><path d="M272.818 248.239L257.637 242.265L274.927 265.116L272.818 248.239Z" stroke="#44AB64" stroke-width="0.47" stroke-linecap="round" stroke-linejoin="round"></path><path d="M274.928 234.579L272.818 248.24L295.051 220.932L274.928 234.579Z" stroke="#44AB64" stroke-width="0.47" stroke-linecap="round" stroke-linejoin="round"></path><path d="M333.171 232.13L295.05 220.932L290.063 255.306L333.171 232.13Z" stroke="#44AB64" stroke-width="0.47" stroke-linecap="round" stroke-linejoin="round"></path><path d="M264.158 192.327L327.285 195.572L295.05 220.932L264.158 192.327Z" stroke="#44AB64" stroke-width="0.47" stroke-linecap="round" stroke-linejoin="round"></path><path d="M358.929 206.091L327.285 195.573L333.171 232.13L358.929 206.091Z" stroke="#44AB64" stroke-width="0.47" stroke-linecap="round" stroke-linejoin="round"></path><path d="M264.158 192.327L275.267 166.436L327.285 195.572L264.158 192.327Z" stroke="#44AB64" stroke-width="0.47" stroke-linecap="round" stroke-linejoin="round"></path><path d="M244.079 154.177L220.254 193.257L264.158 192.327L244.079 154.177Z" stroke="#44AB64" stroke-width="0.47" stroke-linecap="round" stroke-linejoin="round"></path><path d="M194.983 191.161L202.241 225.343L180.23 208.142L194.983 191.161Z" stroke="#44AB64" stroke-width="0.47" stroke-linecap="round" stroke-linejoin="round"></path><path d="M223.352 245.555L202.241 225.344L206.874 254.126L223.352 245.555Z" stroke="#44AB64" stroke-width="0.47" stroke-linecap="round" stroke-linejoin="round"></path><path d="M166.171 259.894L202.242 225.344L206.874 254.126L166.171 259.894Z" stroke="#44AB64" stroke-width="0.47" stroke-linecap="round" stroke-linejoin="round"></path><path d="M177.207 169.225L180.231 208.142L194.983 191.162L177.207 169.225Z" stroke="#44AB64" stroke-width="0.47" stroke-linecap="round" stroke-linejoin="round"></path><path d="M188.256 161.937L177.207 169.224L194.983 191.162L188.256 161.937Z" stroke="#44AB64" stroke-width="0.47" stroke-linecap="round" stroke-linejoin="round"></path><path d="M154.133 161.937L177.206 169.224L180.23 208.142L154.133 161.937Z" stroke="#44AB64" stroke-width="0.47" stroke-linecap="round" stroke-linejoin="round"></path><path d="M151.02 242.619L166.171 259.894L161.14 273.614L151.02 242.619Z" stroke="#44AB64" stroke-width="0.47" stroke-linecap="round" stroke-linejoin="round"></path><path d="M117.354 259.628L151.02 242.619L140.516 269.823L117.354 259.628Z" stroke="#44AB64" stroke-width="0.47" stroke-linecap="round" stroke-linejoin="round"></path><path d="M130.5 207.434L151.02 242.619L164.121 206.74L130.5 207.434Z" stroke="#44AB64" stroke-width="0.47" stroke-linecap="round" stroke-linejoin="round"></path><path d="M112.604 222.791L130.499 207.434L151.02 242.619L112.604 222.791Z" stroke="#44AB64" stroke-width="0.47" stroke-linecap="round" stroke-linejoin="round"></path><path d="M90.7114 245.348L112.604 222.792L151.02 242.619L90.7114 245.348Z" stroke="#44AB64" stroke-width="0.47" stroke-linecap="round" stroke-linejoin="round"></path><path d="M93.2637 208.142L90.7115 245.348L63.0503 252.429L93.2637 208.142Z" stroke="#44AB64" stroke-width="0.47" stroke-linecap="round" stroke-linejoin="round"></path><path d="M60.4985 222.614L66.3553 201.857L93.2641 208.142L60.4985 222.614Z" stroke="#44AB64" stroke-width="0.47" stroke-linecap="round" stroke-linejoin="round"></path><path d="M63.0507 252.429L60.4985 222.614L93.2641 208.142L63.0507 252.429Z" stroke="#44AB64" stroke-width="0.47" stroke-linecap="round" stroke-linejoin="round"></path><path d="M20.9609 230.698L60.498 222.614L36.2447 249.302L20.9609 230.698Z" stroke="#44AB64" stroke-width="0.47" stroke-linecap="round" stroke-linejoin="round"></path><path d="M63.0501 252.429L34.3857 265.117L86.3888 269.823L63.0501 252.429Z" stroke="#44AB64" stroke-width="0.47" stroke-linecap="round" stroke-linejoin="round"></path><path d="M90.7112 245.348L117.354 259.628L86.3887 269.822L90.7112 245.348Z" stroke="#44AB64" stroke-width="0.47" stroke-linecap="round" stroke-linejoin="round"></path><path d="M15.7826 206.74L60.4979 222.614L0.793945 222.039L15.7826 206.74Z" stroke="#44AB64" stroke-width="0.47" stroke-linecap="round" stroke-linejoin="round"></path><path d="M37.3663 178.268L30.6538 195.572L66.3552 201.857L37.3663 178.268Z" stroke="#44AB64" stroke-width="0.47" stroke-linecap="round" stroke-linejoin="round"></path><path d="M15.7827 206.74L30.6534 195.573L60.498 222.614L15.7827 206.74Z" stroke="#44AB64" stroke-width="0.47" stroke-linecap="round" stroke-linejoin="round"></path><path d="M112.604 222.791L91.6851 188.683L130.499 207.433L112.604 222.791Z" stroke="#44AB64" stroke-width="0.47" stroke-linecap="round" stroke-linejoin="round"></path><path d="M63.0504 176.085L45.8193 175.967L66.355 201.857L63.0504 176.085Z" stroke="#44AB64" stroke-width="0.47" stroke-linecap="round" stroke-linejoin="round"></path><path d="M91.6851 188.683L119.877 181.631L130.499 207.433L91.6851 188.683Z" stroke="#44AB64" stroke-width="0.47" stroke-linecap="round" stroke-linejoin="round"></path><path d="M164.121 206.741L147.672 182.502L130.5 207.434L164.121 206.741Z" stroke="#44AB64" stroke-width="0.47" stroke-linecap="round" stroke-linejoin="round"></path><path d="M154.133 161.937L164.121 206.74L147.671 182.502L154.133 161.937Z" stroke="#44AB64" stroke-width="0.47" stroke-linecap="round" stroke-linejoin="round"></path><path d="M180.23 208.142L164.12 206.74L154.133 161.937L180.23 208.142Z" stroke="#44AB64" stroke-width="0.47" stroke-linecap="round" stroke-linejoin="round"></path><path d="M166.171 259.894C167.765 257.106 177.221 229.651 177.221 229.651L202.256 225.344L166.186 259.894H166.171Z" stroke="#44AB64" stroke-width="0.47" stroke-linecap="round" stroke-linejoin="round"></path><path d="M164.121 206.74L177.206 229.651L180.23 208.142L164.121 206.74Z" stroke="#44AB64" stroke-width="0.47" stroke-linecap="round" stroke-linejoin="round"></path><path d="M206.874 254.126L182.945 276.093L213.705 267.3L206.874 254.126Z" stroke="#44AB64" stroke-width="0.47" stroke-linecap="round" stroke-linejoin="round"></path><path d="M228.28 265.116L206.874 254.126L223.352 245.554L228.28 265.116Z" stroke="#44AB64" stroke-width="0.47" stroke-linecap="round" stroke-linejoin="round"></path><path d="M272.818 248.239L288.884 265.706L290.064 255.306L272.818 248.239Z" stroke="#44AB64" stroke-width="0.47" stroke-linecap="round" stroke-linejoin="round"></path><path d="M321.575 255.306H290.063L329.468 268.2L321.575 255.306Z" stroke="#44AB64" stroke-width="0.47" stroke-linecap="round" stroke-linejoin="round"></path><path d="M373.298 230.949L321.575 255.306L353.751 254.126L373.298 230.949Z" stroke="#44AB64" stroke-width="0.47" stroke-linecap="round" stroke-linejoin="round"></path><path d="M395.87 224.768L373.298 230.949L398.761 252.695L395.87 224.768Z" stroke="#44AB64" stroke-width="0.47" stroke-linecap="round" stroke-linejoin="round"></path><path d="M369.757 266.075L398.761 252.695L412.274 275.104L369.757 266.075Z" stroke="#44AB64" stroke-width="0.47" stroke-linecap="round" stroke-linejoin="round"></path><path d="M329.468 268.2L353.751 254.126L321.575 255.306L329.468 268.2Z" stroke="#44AB64" stroke-width="0.47" stroke-linecap="round" stroke-linejoin="round"></path><path d="M367.25 273.614L329.468 268.2L353.751 254.126L367.25 273.614Z" stroke="#44AB64" stroke-width="0.47" stroke-linecap="round" stroke-linejoin="round"></path><path d="M300.922 275.104L329.468 268.2L320.735 289.355L300.922 275.104Z" stroke="#44AB64" stroke-width="0.47" stroke-linecap="round" stroke-linejoin="round"></path><path d="M358.929 206.091L371.07 195.351L395.869 224.768L358.929 206.091Z" stroke="#44AB64" stroke-width="0.47" stroke-linecap="round" stroke-linejoin="round"></path><path d="M400.119 199.305L371.071 195.351L388.995 178.371L400.119 199.305Z" stroke="#44AB64" stroke-width="0.47" stroke-linecap="round" stroke-linejoin="round"></path><path d="M395.87 224.768L420.108 219.029L408.513 244.153L395.87 224.768Z" stroke="#44AB64" stroke-width="0.47" stroke-linecap="round" stroke-linejoin="round"></path><path d="M463.363 224.768L420.108 219.029L446.486 215.194L463.363 224.768Z" stroke="#44AB64" stroke-width="0.47" stroke-linecap="round" stroke-linejoin="round"></path><path d="M408.513 244.153L431.66 246.705L432.914 268.2L408.513 244.153Z" stroke="#44AB64" stroke-width="0.47" stroke-linecap="round" stroke-linejoin="round"></path><path d="M456.68 268.2H432.914L431.66 246.705L456.68 268.2Z" stroke="#44AB64" stroke-width="0.47" stroke-linecap="round" stroke-linejoin="round"></path><path d="M431.66 246.705L440.91 237.839L472.126 242.869L431.66 246.705Z" stroke="#44AB64" stroke-width="0.47" stroke-linecap="round" stroke-linejoin="round"></path><path d="M446.486 215.194L431.66 209.529L475.195 193.257L446.486 215.194Z" stroke="#44AB64" stroke-width="0.47" stroke-linecap="round" stroke-linejoin="round"></path><path d="M420.108 219.029L423.044 180.112L400.119 199.305L420.108 219.029Z" stroke="#44AB64" stroke-width="0.47" stroke-linecap="round" stroke-linejoin="round"></path><path d="M388.996 178.371L398.762 171.393L400.119 178.371H388.996Z" stroke="#44AB64" stroke-width="0.47" stroke-linecap="round" stroke-linejoin="round"></path><path d="M410.445 174.889L400.119 178.371L406.861 187.99L410.445 174.889Z" stroke="#44AB64" stroke-width="0.47" stroke-linecap="round" stroke-linejoin="round"></path><path d="M423.044 180.112L433.931 179.153L424.711 192.327L423.044 180.112Z" stroke="#44AB64" stroke-width="0.47" stroke-linecap="round" stroke-linejoin="round"></path><path d="M439.951 180.923L424.711 192.327L447.608 184.257L439.951 180.923Z" stroke="#44AB64" stroke-width="0.47" stroke-linecap="round" stroke-linejoin="round"></path><path d="M432.914 200.515L447.608 184.257L475.195 193.256L432.914 200.515Z" stroke="#44AB64" stroke-width="0.47" stroke-linecap="round" stroke-linejoin="round"></path><path d="M327.285 195.572L335.738 176.084L358.929 206.091L327.285 195.572Z" stroke="#44AB64" stroke-width="0.47" stroke-linecap="round" stroke-linejoin="round"></path><path d="M306.852 166.436H275.267L288.101 150.931L306.852 166.436Z" stroke="#44AB64" stroke-width="0.47" stroke-linecap="round" stroke-linejoin="round"></path><path d="M312.605 166.436L333.171 146.712L335.738 176.084L312.605 166.436Z" stroke="#44AB64" stroke-width="0.47" stroke-linecap="round" stroke-linejoin="round"></path><path d="M306.852 136.813L319.407 133.715L306.852 166.436V136.813Z" stroke="#44AB64" stroke-width="0.47" stroke-linecap="round" stroke-linejoin="round"></path><path d="M288.249 147.213L306.852 136.813L303.828 152.628L288.249 147.213Z" stroke="#44AB64" stroke-width="0.47" stroke-linecap="round" stroke-linejoin="round"></path><path d="M333.171 146.712L322.593 138.067L312.605 166.436L333.171 146.712Z" stroke="#44AB64" stroke-width="0.47" stroke-linecap="round" stroke-linejoin="round"></path><path d="M339.278 135.677L333.171 146.712L353.751 154.811L339.278 135.677Z" stroke="#44AB64" stroke-width="0.47" stroke-linecap="round" stroke-linejoin="round"></path><path d="M353.751 128.846V154.811L369.758 138.819L353.751 128.846Z" stroke="#44AB64" stroke-width="0.47" stroke-linecap="round" stroke-linejoin="round"></path><path d="M365.627 155.888L353.751 154.811L357.601 173.945L365.627 155.888Z" stroke="#44AB64" stroke-width="0.47" stroke-linecap="round" stroke-linejoin="round"></path><path d="M354.591 121.396L369.757 138.819L400.841 131.9L354.591 121.396Z" stroke="#44AB64" stroke-width="0.47" stroke-linecap="round" stroke-linejoin="round"></path><path d="M384.923 110.465L354.591 121.396L400.841 131.9L384.923 110.465Z" stroke="#44AB64" stroke-width="0.47" stroke-linecap="round" stroke-linejoin="round"></path><path d="M358.929 206.091L357.601 173.945L335.738 176.084L358.929 206.091Z" stroke="#44AB64" stroke-width="0.47" stroke-linecap="round" stroke-linejoin="round"></path><path d="M388.994 178.371L357.601 173.945L371.07 164.415L388.994 178.371Z" stroke="#44AB64" stroke-width="0.47" stroke-linecap="round" stroke-linejoin="round"></path><path d="M306.852 166.436L327.284 195.572L275.267 166.436H306.852Z" stroke="#44AB64" stroke-width="0.47" stroke-linecap="round" stroke-linejoin="round"></path><path d="M273.04 134.88L244.08 154.177L254.599 129.761L273.04 134.88Z" stroke="#44AB64" stroke-width="0.47" stroke-linecap="round" stroke-linejoin="round"></path><path d="M271.004 145.812L273.04 134.88L283.027 150.075L271.004 145.812Z" stroke="#44AB64" stroke-width="0.47" stroke-linecap="round" stroke-linejoin="round"></path><path d="M254.598 129.761L223.352 132.328L244.08 112.323L254.598 129.761Z" stroke="#44AB64" stroke-width="0.47" stroke-linecap="round" stroke-linejoin="round"></path><path d="M229.475 107.676L210.09 131.664L244.08 112.323L229.475 107.676Z" stroke="#44AB64" stroke-width="0.47" stroke-linecap="round" stroke-linejoin="round"></path><path d="M211.771 103.014L210.089 131.664L203.318 104.578L211.771 103.014Z" stroke="#44AB64" stroke-width="0.47" stroke-linecap="round" stroke-linejoin="round"></path><path d="M220.623 112.323L211.771 103.014L224.488 104.416L220.623 112.323Z" stroke="#44AB64" stroke-width="0.47" stroke-linecap="round" stroke-linejoin="round"></path><path d="M208.717 161.154L191.235 125.925L210.089 131.664L208.717 161.154Z" stroke="#44AB64" stroke-width="0.47" stroke-linecap="round" stroke-linejoin="round"></path><path d="M244.08 154.177L210.09 131.664L208.718 161.155L244.08 154.177Z" stroke="#44AB64" stroke-width="0.47" stroke-linecap="round" stroke-linejoin="round"></path><path d="M191.575 150.931L191.235 125.925L208.717 161.154L191.575 150.931Z" stroke="#44AB64" stroke-width="0.47" stroke-linecap="round" stroke-linejoin="round"></path><path d="M154.133 161.936L166.171 150.001L177.206 169.224L154.133 161.936Z" stroke="#44AB64" stroke-width="0.47" stroke-linecap="round" stroke-linejoin="round"></path><path d="M173.105 132.328L166.171 150.002L177.206 169.224L173.105 132.328Z" stroke="#44AB64" stroke-width="0.47" stroke-linecap="round" stroke-linejoin="round"></path><path d="M188.256 161.937L173.105 132.328L177.206 169.224L188.256 161.937Z" stroke="#44AB64" stroke-width="0.47" stroke-linecap="round" stroke-linejoin="round"></path><path d="M191.575 150.931L188.256 161.937L173.105 132.328L191.575 150.931Z" stroke="#44AB64" stroke-width="0.47" stroke-linecap="round" stroke-linejoin="round"></path><path d="M142.272 125.66L157.084 125.114L166.171 150.001L142.272 125.66Z" stroke="#44AB64" stroke-width="0.47" stroke-linecap="round" stroke-linejoin="round"></path><path d="M147.672 182.502L124.495 172.219L154.133 161.937L147.672 182.502Z" stroke="#44AB64" stroke-width="0.47" stroke-linecap="round" stroke-linejoin="round"></path><path d="M139.321 150.931L154.133 161.936L166.171 150.001L139.321 150.931Z" stroke="#44AB64" stroke-width="0.47" stroke-linecap="round" stroke-linejoin="round"></path><path d="M51.7495 143.083L63.05 176.084L72.2999 168.944L51.7495 143.083Z" stroke="#44AB64" stroke-width="0.47" stroke-linecap="round" stroke-linejoin="round"></path><path d="M51.7495 143.083L72.2999 168.944L83.1136 165.344L51.7495 143.083Z" stroke="#44AB64" stroke-width="0.47" stroke-linecap="round" stroke-linejoin="round"></path><path d="M91.6852 188.683L93.2637 172.219L63.0503 176.084L91.6852 188.683Z" stroke="#44AB64" stroke-width="0.47" stroke-linecap="round" stroke-linejoin="round"></path><path d="M102.174 173.016L91.6851 188.683L119.877 181.631L102.174 173.016Z" stroke="#44AB64" stroke-width="0.47" stroke-linecap="round" stroke-linejoin="round"></path><path d="M139.322 150.931L124.495 172.219L154.133 161.936L139.322 150.931Z" stroke="#44AB64" stroke-width="0.47" stroke-linecap="round" stroke-linejoin="round"></path><path d="M125.793 122.326L139.321 150.931L119.287 141.622L125.793 122.326Z" stroke="#44AB64" stroke-width="0.47" stroke-linecap="round" stroke-linejoin="round"></path><path d="M103.311 165.816L139.322 150.931L107.161 149.5L103.311 165.816Z" stroke="#44AB64" stroke-width="0.47" stroke-linecap="round" stroke-linejoin="round"></path><path d="M119.287 141.622L107.161 149.5L139.321 150.931L119.287 141.622Z" stroke="#44AB64" stroke-width="0.47" stroke-linecap="round" stroke-linejoin="round"></path><path d="M142.272 125.66L139.321 150.931L166.171 150.002L142.272 125.66Z" stroke="#44AB64" stroke-width="0.47" stroke-linecap="round" stroke-linejoin="round"></path><path d="M191.236 125.925L174.625 123.698L191.575 150.931L191.236 125.925Z" stroke="#44AB64" stroke-width="0.47" stroke-linecap="round" stroke-linejoin="round"></path><path d="M203.318 104.578L164.121 86.6687L167.189 119.538L203.318 104.578Z" stroke="#44AB64" stroke-width="0.47" stroke-linecap="round" stroke-linejoin="round"></path><path d="M191.235 125.925L203.318 104.578L210.089 131.664L191.235 125.925Z" stroke="#44AB64" stroke-width="0.47" stroke-linecap="round" stroke-linejoin="round"></path><path d="M167.189 119.538L148.63 86.6687H164.12L167.189 119.538Z" stroke="#44AB64" stroke-width="0.47" stroke-linecap="round" stroke-linejoin="round"></path><path d="M129.304 100.728L148.63 86.6687L167.189 119.538L129.304 100.728Z" stroke="#44AB64" stroke-width="0.47" stroke-linecap="round" stroke-linejoin="round"></path><path d="M164.121 86.6686L168.694 51.3213L189.952 60.0696L164.121 86.6686Z" stroke="#44AB64" stroke-width="0.47" stroke-linecap="round" stroke-linejoin="round"></path><path d="M151.02 51.3213H168.694L164.12 86.6686L151.02 51.3213Z" stroke="#44AB64" stroke-width="0.47" stroke-linecap="round" stroke-linejoin="round"></path><path d="M130.499 39.0618L151.02 51.3212L127.209 60.0695L130.499 39.0618Z" stroke="#44AB64" stroke-width="0.47" stroke-linecap="round" stroke-linejoin="round"></path><path d="M164.121 86.6686L127.209 60.0696L151.02 51.3213L164.121 86.6686Z" stroke="#44AB64" stroke-width="0.47" stroke-linecap="round" stroke-linejoin="round"></path><path d="M131.222 76.5925L127.209 60.0696L148.63 86.6686L131.222 76.5925Z" stroke="#44AB64" stroke-width="0.47" stroke-linecap="round" stroke-linejoin="round"></path><path d="M200.146 89.1765L232.026 91.1829L223.352 97.9543L200.146 89.1765Z" stroke="#44AB64" stroke-width="0.47" stroke-linecap="round" stroke-linejoin="round"></path><path d="M220.962 76.5925L200.146 89.1765L232.026 91.1829L220.962 76.5925Z" stroke="#44AB64" stroke-width="0.47" stroke-linecap="round" stroke-linejoin="round"></path><path d="M228.044 64.6428L220.962 76.5925L252.445 84.4114L228.044 64.6428Z" stroke="#44AB64" stroke-width="0.47" stroke-linecap="round" stroke-linejoin="round"></path><path d="M232.027 91.1828L264.159 121.396L252.445 84.4114L232.027 91.1828Z" stroke="#44AB64" stroke-width="0.47" stroke-linecap="round" stroke-linejoin="round"></path><path d="M247.399 65.1887L252.444 84.4114L228.043 64.6428L247.399 65.1887Z" stroke="#44AB64" stroke-width="0.47" stroke-linecap="round" stroke-linejoin="round"></path><path d="M265.855 53.4014L252.445 84.4114L247.399 65.1887L265.855 53.4014Z" stroke="#44AB64" stroke-width="0.47" stroke-linecap="round" stroke-linejoin="round"></path><path d="M285.225 68.8326L265.855 53.4014L252.445 84.4114L285.225 68.8326Z" stroke="#44AB64" stroke-width="0.47" stroke-linecap="round" stroke-linejoin="round"></path><path d="M265.619 89.1469L252.445 84.4113L285.225 68.8325L265.619 89.1469Z" stroke="#44AB64" stroke-width="0.47" stroke-linecap="round" stroke-linejoin="round"></path><path d="M264.158 121.396L265.619 89.147L252.445 84.4114L264.158 121.396Z" stroke="#44AB64" stroke-width="0.47" stroke-linecap="round" stroke-linejoin="round"></path><path d="M289.709 89.1469L285.224 68.8325L265.618 89.1469H289.709Z" stroke="#44AB64" stroke-width="0.47" stroke-linecap="round" stroke-linejoin="round"></path><path d="M264.158 121.396L265.619 89.147H289.71L264.158 121.396Z" stroke="#44AB64" stroke-width="0.47" stroke-linecap="round" stroke-linejoin="round"></path><path d="M285.225 68.8326L313.21 65.1887L322.741 89.147L285.225 68.8326Z" stroke="#44AB64" stroke-width="0.47" stroke-linecap="round" stroke-linejoin="round"></path><path d="M289.709 89.147H322.74L321.221 104.578L289.709 89.147Z" stroke="#44AB64" stroke-width="0.47" stroke-linecap="round" stroke-linejoin="round"></path><path d="M284.163 112.324L321.222 104.578L345.741 116.853L284.163 112.324Z" stroke="#44AB64" stroke-width="0.47" stroke-linecap="round" stroke-linejoin="round"></path><path d="M354.591 121.396L372.442 89.147L384.923 110.465L354.591 121.396Z" stroke="#44AB64" stroke-width="0.47" stroke-linecap="round" stroke-linejoin="round"></path><path d="M327.432 72.9487L372.442 89.1471L333.171 101.156L327.432 72.9487Z" stroke="#44AB64" stroke-width="0.47" stroke-linecap="round" stroke-linejoin="round"></path><path d="M342.126 67.1067L327.432 72.9487L372.442 89.1471L342.126 67.1067Z" stroke="#44AB64" stroke-width="0.47" stroke-linecap="round" stroke-linejoin="round"></path><path d="M364.196 74.5271L372.443 89.147L373.667 64.6428L364.196 74.5271Z" stroke="#44AB64" stroke-width="0.47" stroke-linecap="round" stroke-linejoin="round"></path><path d="M342.126 67.1067L364.196 74.5273L372.443 89.1471L342.126 67.1067Z" stroke="#44AB64" stroke-width="0.47" stroke-linecap="round" stroke-linejoin="round"></path><path d="M398.378 68.8326L386.885 78.8349L373.667 64.6428L398.378 68.8326Z" stroke="#44AB64" stroke-width="0.47" stroke-linecap="round" stroke-linejoin="round"></path><path d="M382.194 91.2418L398.377 68.8325L407.465 78.1709L382.194 91.2418Z" stroke="#44AB64" stroke-width="0.47" stroke-linecap="round" stroke-linejoin="round"></path><path d="M406.86 98.4265L407.465 78.1711L382.194 91.242L406.86 98.4265Z" stroke="#44AB64" stroke-width="0.47" stroke-linecap="round" stroke-linejoin="round"></path><path d="M384.923 110.465L406.86 98.4265L417.438 109.063L384.923 110.465Z" stroke="#44AB64" stroke-width="0.47" stroke-linecap="round" stroke-linejoin="round"></path><path d="M431.66 105.272L406.86 98.4265L417.438 109.063L431.66 105.272Z" stroke="#44AB64" stroke-width="0.47" stroke-linecap="round" stroke-linejoin="round"></path><path d="M386.03 62.194L407.465 51.3213V61.4711L386.03 62.194Z" stroke="#44AB64" stroke-width="0.47" stroke-linecap="round" stroke-linejoin="round"></path><path d="M411.389 80.7381L407.465 61.4712L431.66 84.4115L411.389 80.7381Z" stroke="#44AB64" stroke-width="0.47" stroke-linecap="round" stroke-linejoin="round"></path><path d="M372.442 55.5848L407.465 51.3213L386.03 62.194L372.442 55.5848Z" stroke="#44AB64" stroke-width="0.47" stroke-linecap="round" stroke-linejoin="round"></path><path d="M375.688 36.2L354.591 64.643L372.442 55.5849L375.688 36.2Z" stroke="#44AB64" stroke-width="0.47" stroke-linecap="round" stroke-linejoin="round"></path><path d="M375.688 36.2L364.195 39.062L354.591 64.643L375.688 36.2Z" stroke="#44AB64" stroke-width="0.47" stroke-linecap="round" stroke-linejoin="round"></path><path d="M356.214 31.3464L364.196 39.0621L352.394 50.3036L356.214 31.3464Z" stroke="#44AB64" stroke-width="0.47" stroke-linecap="round" stroke-linejoin="round"></path><path d="M337.11 32.0103L356.215 31.3464L352.394 50.3036L337.11 32.0103Z" stroke="#44AB64" stroke-width="0.47" stroke-linecap="round" stroke-linejoin="round"></path><path d="M321.222 34.2084L337.11 32.0102L321.222 27.2451V34.2084Z" stroke="#44AB64" stroke-width="0.47" stroke-linecap="round" stroke-linejoin="round"></path><path d="M352.394 50.3033L321.222 34.2082L337.11 32.01L352.394 50.3033Z" stroke="#44AB64" stroke-width="0.47" stroke-linecap="round" stroke-linejoin="round"></path><path d="M351.804 62.7986L321.222 34.208L352.394 50.3031L351.804 62.7986Z" stroke="#44AB64" stroke-width="0.47" stroke-linecap="round" stroke-linejoin="round"></path><path d="M292.026 29.5317L295.05 56.9569L309.434 32.8068L292.026 29.5317Z" stroke="#44AB64" stroke-width="0.47" stroke-linecap="round" stroke-linejoin="round"></path><path d="M321.221 34.2084L309.434 32.8069L321.221 27.2451V34.2084Z" stroke="#44AB64" stroke-width="0.47" stroke-linecap="round" stroke-linejoin="round"></path><path d="M283.027 30.7263L295.05 56.9565L270.398 39.0616L283.027 30.7263Z" stroke="#44AB64" stroke-width="0.47" stroke-linecap="round" stroke-linejoin="round"></path><path d="M292.025 29.5317L295.05 56.9569L283.026 30.7267L292.025 29.5317Z" stroke="#44AB64" stroke-width="0.47" stroke-linecap="round" stroke-linejoin="round"></path><path d="M265.854 53.4013L270.398 39.0618L295.05 56.9567L265.854 53.4013Z" stroke="#44AB64" stroke-width="0.47" stroke-linecap="round" stroke-linejoin="round"></path><path d="M247.399 65.1887L245.732 32.9099L220.254 46.5118L247.399 65.1887Z" stroke="#44AB64" stroke-width="0.47" stroke-linecap="round" stroke-linejoin="round"></path><path d="M198.436 50.3034L220.255 46.512L228.044 64.643L198.436 50.3034Z" stroke="#44AB64" stroke-width="0.47" stroke-linecap="round" stroke-linejoin="round"></path><path d="M231.673 19.2934L220.254 46.512L217.746 16.5051L231.673 19.2934Z" stroke="#44AB64" stroke-width="0.47" stroke-linecap="round" stroke-linejoin="round"></path><path d="M245.732 32.9098L247.429 12.6987L265.855 53.4013L245.732 32.9098Z" stroke="#44AB64" stroke-width="0.47" stroke-linecap="round" stroke-linejoin="round"></path><path d="M231.672 19.2932L245.732 32.9099L220.254 46.5118L231.672 19.2932Z" stroke="#44AB64" stroke-width="0.47" stroke-linecap="round" stroke-linejoin="round"></path><path d="M247.429 12.6988L265.619 17.5967L273.04 1L247.429 12.6988Z" stroke="#44AB64" stroke-width="0.47" stroke-linecap="round" stroke-linejoin="round"></path><path d="M288.721 14.1443L265.618 17.5964L283.026 30.7262L288.721 14.1443Z" stroke="#44AB64" stroke-width="0.47" stroke-linecap="round" stroke-linejoin="round"></path><path d="M292.025 29.5313L283.026 30.7262L288.721 14.1443L292.025 29.5313Z" stroke="#44AB64" stroke-width="0.47" stroke-linecap="round" stroke-linejoin="round"></path><path d="M321.221 27.245L311.396 14.6462L292.026 29.5317L321.221 27.245Z" stroke="#44AB64" stroke-width="0.47" stroke-linecap="round" stroke-linejoin="round"></path><path d="M273.039 1L265.618 17.5967L288.721 14.1446L273.039 1Z" stroke="#44AB64" stroke-width="0.47" stroke-linecap="round" stroke-linejoin="round"></path><path d="M247.429 12.6987L231.673 19.2932L245.732 32.9098L247.429 12.6987Z" stroke="#44AB64" stroke-width="0.47" stroke-linecap="round" stroke-linejoin="round"></path><path d="M212.79 36.2L198.436 50.3035L220.255 46.512L212.79 36.2Z" stroke="#44AB64" stroke-width="0.47" stroke-linecap="round" stroke-linejoin="round"></path><path d="M189.953 60.0695L182.34 34.2081L196.724 19.2932L189.953 60.0695Z" stroke="#44AB64" stroke-width="0.47" stroke-linecap="round" stroke-linejoin="round"></path><path d="M168.694 51.3211L182.34 34.208L130.5 39.0616L168.694 51.3211Z" stroke="#44AB64" stroke-width="0.47" stroke-linecap="round" stroke-linejoin="round"></path><path d="M182.34 34.208L168.694 51.3211L189.952 60.0694L182.34 34.208Z" stroke="#44AB64" stroke-width="0.47" stroke-linecap="round" stroke-linejoin="round"></path><path d="M151.02 51.3212L130.5 39.0618L168.694 51.3212H151.02Z" stroke="#44AB64" stroke-width="0.47" stroke-linecap="round" stroke-linejoin="round"></path><path d="M127.209 60.0696L98.8398 68.9949L131.222 76.5925L127.209 60.0696Z" stroke="#44AB64" stroke-width="0.47" stroke-linecap="round" stroke-linejoin="round"></path><path d="M148.63 86.6688L98.8398 68.9951L131.222 76.5927L148.63 86.6688Z" stroke="#44AB64" stroke-width="0.47" stroke-linecap="round" stroke-linejoin="round"></path><path d="M129.304 100.728L98.8398 68.9951L148.63 86.6688L129.304 100.728Z" stroke="#44AB64" stroke-width="0.47" stroke-linecap="round" stroke-linejoin="round"></path><path d="M90.8441 161.936L106.556 139.306L79.042 151.167L90.8441 161.936Z" stroke="#44AB64" stroke-width="0.47" stroke-linecap="round" stroke-linejoin="round"></path><path d="M67.2246 139.306H106.555L79.0415 124.037L67.2246 139.306Z" stroke="#44AB64" stroke-width="0.47" stroke-linecap="round" stroke-linejoin="round"></path><path d="M125.793 122.326L79.042 124.037L95.8157 116.543L125.793 122.326Z" stroke="#44AB64" stroke-width="0.47" stroke-linecap="round" stroke-linejoin="round"></path><path d="M72.3003 107.676L100.478 104.224L91.6115 95.3875L72.3003 107.676Z" stroke="#44AB64" stroke-width="0.47" stroke-linecap="round" stroke-linejoin="round"></path><path d="M97.2617 80.0298L100.478 104.224L115.806 98.1018L97.2617 80.0298Z" stroke="#44AB64" stroke-width="0.47" stroke-linecap="round" stroke-linejoin="round"></path><path d="M129.304 100.728L100.478 104.224L125.793 122.326L129.304 100.728Z" stroke="#44AB64" stroke-width="0.47" stroke-linecap="round" stroke-linejoin="round"></path><path d="M173.105 16.9476L194.364 3.21289L196.724 19.2933L173.105 16.9476Z" stroke="#44AB64" stroke-width="0.47" stroke-linecap="round" stroke-linejoin="round"></path><path d="M212.79 36.2L204.292 10.3091L198.436 50.3035L212.79 36.2Z" stroke="#44AB64" stroke-width="0.47" stroke-linecap="round" stroke-linejoin="round"></path><path d="M217.746 16.5052L204.292 10.3091L212.79 36.2L217.746 16.5052Z" stroke="#44AB64" stroke-width="0.47" stroke-linecap="round" stroke-linejoin="round"></path><path d="M247.429 12.6987L270.399 39.0617L265.619 17.5966L247.429 12.6987Z" stroke="#44AB64" stroke-width="0.47" stroke-linecap="round" stroke-linejoin="round"></path><path d="M295.05 56.9566L321.221 34.208L313.21 65.1885L295.05 56.9566Z" stroke="#44AB64" stroke-width="0.47" stroke-linecap="round" stroke-linejoin="round"></path><path d="M417.438 109.063L433.931 110.465L434.89 119.198L417.438 109.063Z" stroke="#44AB64" stroke-width="0.47" stroke-linecap="round" stroke-linejoin="round"></path><path d="M400.841 131.9L417.438 109.063L434.89 119.198L400.841 131.9Z" stroke="#44AB64" stroke-width="0.47" stroke-linecap="round" stroke-linejoin="round"></path><path d="M431.659 149.529L400.841 131.9L426.938 130.661L431.659 149.529Z" stroke="#44AB64" stroke-width="0.47" stroke-linecap="round" stroke-linejoin="round"></path><path d="M434.89 119.198L426.938 130.661L400.841 131.9L434.89 119.198Z" stroke="#44AB64" stroke-width="0.47" stroke-linecap="round" stroke-linejoin="round"></path><path d="M453.228 123.255L434.89 119.198L433.931 110.465L453.228 123.255Z" stroke="#44AB64" stroke-width="0.47" stroke-linecap="round" stroke-linejoin="round"></path><path d="M426.938 130.661L449.141 126.043L461.371 144.189L426.938 130.661Z" stroke="#44AB64" stroke-width="0.47" stroke-linecap="round" stroke-linejoin="round"></path><path d="M431.66 149.529L467.361 151.55L443.58 161.154L431.66 149.529Z" stroke="#44AB64" stroke-width="0.47" stroke-linecap="round" stroke-linejoin="round"></path><path d="M365.627 155.888L369.758 138.819L353.751 154.811L365.627 155.888Z" stroke="#44AB64" stroke-width="0.47" stroke-linecap="round" stroke-linejoin="round"></path><path d="M379.244 152.244L365.627 155.888L371.071 164.415L379.244 152.244Z" stroke="#44AB64" stroke-width="0.47" stroke-linecap="round" stroke-linejoin="round"></path><path d="M383.891 153.719L398.761 171.393L371.071 164.415L383.891 153.719Z" stroke="#44AB64" stroke-width="0.47" stroke-linecap="round" stroke-linejoin="round"></path><path d="M409.56 149.529L406.816 164.415L383.891 153.719L409.56 149.529Z" stroke="#44AB64" stroke-width="0.47" stroke-linecap="round" stroke-linejoin="round"></path><path d="M416.228 174.299L409.56 149.529L430.642 162.084L416.228 174.299Z" stroke="#44AB64" stroke-width="0.47" stroke-linecap="round" stroke-linejoin="round"></path><path d="M410.445 174.889L423.044 180.112L406.86 187.99L410.445 174.889Z" stroke="#44AB64" stroke-width="0.47" stroke-linecap="round" stroke-linejoin="round"></path><path d="M430.642 162.084L446.486 169.991L439.375 174.299L430.642 162.084Z" stroke="#44AB64" stroke-width="0.47" stroke-linecap="round" stroke-linejoin="round"></path><path d="M498.607 195.573L466.83 206.622L488.634 210.635L498.607 195.573Z" stroke="#44AB64" stroke-width="0.47" stroke-linecap="round" stroke-linejoin="round"></path><path d="M284.163 112.323L289.71 89.147L321.222 104.578L284.163 112.323Z" stroke="#44AB64" stroke-width="0.47" stroke-linecap="round" stroke-linejoin="round"></path><path d="M238.459 246.971L223.352 245.555L202.241 225.344L238.459 246.971Z" stroke="#44AB64" stroke-width="0.47" stroke-linecap="round" stroke-linejoin="round"></path><path d="M358.929 206.091L373.298 230.95L333.171 232.13L358.929 206.091Z" stroke="#44AB64" stroke-width="0.47" stroke-linecap="round" stroke-linejoin="round"></path><path d="M208.717 161.155L194.982 191.162L244.079 154.177L208.717 161.155Z" stroke="#44AB64" stroke-width="0.47" stroke-linecap="round" stroke-linejoin="round"></path><path d="M220.254 193.256L194.982 191.161L202.241 225.343L220.254 193.256Z" stroke="#44AB64" stroke-width="0.47" stroke-linecap="round" stroke-linejoin="round"></path><path d="M198.435 50.3032L188.683 86.6685L228.043 64.6428L198.435 50.3032Z" stroke="#44AB64" stroke-width="0.47" stroke-linecap="round" stroke-linejoin="round"></path><path d="M420.108 219.029L440.909 237.839L472.126 242.87L420.108 219.029Z" stroke="#44AB64" stroke-width="0.47" stroke-linecap="round" stroke-linejoin="round"></path><path d="M306.852 136.813L285.741 122.326L289.71 133.715L306.852 136.813Z" stroke="#44AB64" stroke-width="0.47" stroke-linecap="round" stroke-linejoin="round"></path><path d="M345.74 116.853L322.593 138.067L313.21 122.326L345.74 116.853Z" stroke="#44AB64" stroke-width="0.47" stroke-linecap="round" stroke-linejoin="round"></path><path d="M446.485 169.992L458.464 165.994L480.225 183.328L446.485 169.992Z" stroke="#44AB64" stroke-width="0.47" stroke-linecap="round" stroke-linejoin="round"></path><path d="M472.126 242.87L474.103 227.335L504.936 223.131L472.126 242.87Z" stroke="#44AB64" stroke-width="0.47" stroke-linecap="round" stroke-linejoin="round"></path><path d="M472.126 242.869L467.361 255.586L501.853 242.869H472.126Z" stroke="#44AB64" stroke-width="0.47" stroke-linecap="round" stroke-linejoin="round"></path><path d="M463.363 224.768L466.83 206.622L488.634 210.635L463.363 224.768Z" stroke="#44AB64" stroke-width="0.47" stroke-linecap="round" stroke-linejoin="round"></path><path d="M447.607 184.257L458.259 179.153L475.195 193.256L447.607 184.257Z" stroke="#44AB64" stroke-width="0.47" stroke-linecap="round" stroke-linejoin="round"></path><path d="M408.513 244.153L398.761 252.695L412.275 275.104L408.513 244.153Z" stroke="#44AB64" stroke-width="0.47" stroke-linecap="round" stroke-linejoin="round"></path><path d="M395.87 224.768L400.118 199.305L420.108 219.029L395.87 224.768Z" stroke="#44AB64" stroke-width="0.47" stroke-linecap="round" stroke-linejoin="round"></path><path d="M288.884 265.706L274.928 265.116L272.818 248.239L288.884 265.706Z" stroke="#44AB64" stroke-width="0.47" stroke-linecap="round" stroke-linejoin="round"></path><path d="M333.171 232.13L321.575 255.306L373.298 230.949L333.171 232.13Z" stroke="#44AB64" stroke-width="0.47" stroke-linecap="round" stroke-linejoin="round"></path></svg>